<?xml version="1.0" encoding="UTF-8" standalone="no"?>
<svg
   xmlns:dc="http://purl.org/dc/elements/1.1/"
   xmlns:cc="http://creativecommons.org/ns#"
   xmlns:rdf="http://www.w3.org/1999/02/22-rdf-syntax-ns#"
   xmlns:svg="http://www.w3.org/2000/svg"
   xmlns="http://www.w3.org/2000/svg"
   xmlns:sodipodi="http://sodipodi.sourceforge.net/DTD/sodipodi-0.dtd"
   xmlns:inkscape="http://www.inkscape.org/namespaces/inkscape"
   id="svg2"
   sodipodi:docname="parchment-page.svg"
   viewBox="0 0 480.7 584.04"
   sodipodi:version="0.32"
   version="1.0"
   inkscape:output_extension="org.inkscape.output.svg.inkscape"
   inkscape:version="0.48.4 r9939"
   width="100%"
   height="100%">
  <defs
     id="defs62" />
  <sodipodi:namedview
     id="base"
     bordercolor="#666666"
     inkscape:pageshadow="2"
     guidetolerance="10.0"
     pagecolor="#ffffff"
     gridtolerance="10.0"
     inkscape:zoom="1.2362125"
     objecttolerance="10.0"
     borderopacity="1.0"
     inkscape:current-layer="svg2"
     inkscape:cx="271.2858"
     inkscape:cy="274.35436"
     inkscape:window-y="-8"
     inkscape:window-x="-8"
     inkscape:window-height="998"
     inkscape:pageopacity="0.0"
     inkscape:window-width="1680"
     showgrid="false"
     inkscape:window-maximized="1" />
  <path
     id="path7"
     style="fill-rule:evenodd;fill:#dca480;fill-opacity:1"
     d="m335.96 581.99c-0.23-2.51-0.46-2.97-1.6-3.65-0.45-0.23-1.37-0.69-2.05-1.15-0.91-0.45-1.37-0.68-2.97-0.68-2.05-0.23-2.51 0-3.65 0.91-1.14 0.69-1.37 1.37-1.37 2.51 0 0.46-0.23 0.92-0.23 0.92-0.46 0-2.05-1.37-2.51-2.06-0.69-1.14-2.06-1.6-3.43-0.91-0.45 0.23-1.82 0.46-5.02 0.46-4.11 0-4.56 0-5.02 0.45-0.46 0.23-0.91 0.91-0.91 1.37-0.23 0.23-0.23 0.46-0.23 0.69h-3.2c-1.14 0-2.28 0-3.19 0.22 0.22-0.68 0.45-1.14 0.68-1.59 0.46-0.69 0.91-1.6 0.91-1.83 0-0.69-0.68-1.6-1.59-1.83-0.46-0.22-1.15-0.45-1.37-0.68-0.46-0.23-1.6-0.46-2.29-0.46-1.37-0.23-1.82 0-2.28 0.23-1.37 0.91-1.83 2.74-0.91 4.57 0.45 0.45 0.23 0.91-0.23 0.91-0.23 0-0.91 0.23-1.6 0.46-0.23 0.22-0.68 0.45-0.91 0.68-0.23-0.23-0.46-0.46-0.69-0.68-0.23-0.23-0.23-0.46-0.45-0.69h-2.97c-3.43 0-3.65 0-4.34 1.83-0.23 0.23-0.23 0.45-0.46 0.91h-2.51c-2.05 0-2.28-0.23-2.74-0.68-0.22-0.23-0.91-0.69-1.37-0.92-0.68-0.23-0.68-0.45-0.91-1.37-0.23-1.14-1.6-3.65-2.28-3.88-0.23-0.23-0.92-0.45-1.6-0.45-0.69-0.23-1.14-0.46-1.83-1.15-1.14-0.91-1.82-1.14-2.74-1.14-0.68 0-1.82 0.69-1.82 1.14 0 0.23-0.46 0.46-1.14 0.46-0.92 0-1.15 0-1.83 0.69-0.91 0.68-1.14 0.68-2.51 0.91-1.37 0-1.6 0-2.06 0.68-0.22 0.23-0.45 0.46-0.45 0.69-0.23-0.23-0.23-0.46-0.46-0.69-0.68-1.59-2.05-1.82-3.42-0.91-1.37 0.68-1.6 2.06-0.69 4.11 0.23 1.14 0 1.37-0.91 0.91-0.46-0.23-1.14-0.23-1.6-0.23s-0.91-0.22-1.37-0.68c-0.46-0.91-1.14-1.14-2.05-1.14-0.92-0.23-2.06 0.45-2.52 1.14 0 0.23-0.22 0.68-0.45 0.68 0 0-0.69-0.45-1.37-0.91-0.69-0.46-1.6-0.68-1.83-0.68-0.45 0-0.68-0.69-0.68-1.37 0-0.69-0.92-1.6-2.06-2.29-0.68-0.22-1.14-0.22-3.19-0.22-2.74 0-3.66 0-4.57 0.91-0.91 0.68-2.28 1.37-3.65 1.83-0.92 0.45-1.6 1.36-1.6 2.28 0 0.23-0.46 0.45-2.51 0.45-1.6 0-2.28 0-2.97 0.23-0.46 0.23-0.46 0.23-0.91-0.23 0-0.22-1.37-0.91-2.74-1.59-1.6-0.92-2.74-1.6-2.97-1.83-0.46-0.69-1.6-1.37-2.74-1.14-0.68 0-2.05 0.68-2.05 1.14 0 0-0.46 0.69-0.92 1.14-0.68 0.46-1.14 1.37-1.37 1.83 0 0.45-0.45 1.14-1.14 1.6-1.14 1.14-1.37 1.14-1.14 0v-1.6c-0.46-0.69-3.42-2.74-4.79-3.2-1.37-0.23-2.97 0.23-3.43 1.14-0.23 0.23-0.68 0.46-1.14 0.69-0.46 0-1.14 0.23-1.37 0.45-0.23 0.46-0.68 0.46-1.83 0.46-0.91 0-1.82-0.23-2.28-0.46-0.68-0.22-0.91-0.22-1.6 0-0.45 0.23-1.37 0.23-2.05 0.46-1.37 0-1.37 0-1.83-0.68-0.45-1.37-1.37-1.83-2.74-2.06-1.6-0.23-2.96 0-4.11 0.92-0.45 0.22-0.91 0.45-1.14 0.68-0.23-0.23-0.45-0.46-0.68-0.68-0.23-0.46-1.14-1.15-1.83-1.38-1.14-0.68-1.14-0.68-4.79-0.45-3.88 0-3.88 0-4.8 0.68-0.91 0.69-1.14 1.6-1.37 2.74 0 0.46 0 0.92-0.68 1.37-1.6 1.37-1.83 1.37-2.74 0.23-1.37-2.05-3.2-2.74-5.02-2.28-0.92 0.23-1.6 0.91-2.74 2.05-0.69 0.46-1.14 0.92-1.83 1.6v-1.14c0-1.14 0-1.37-0.46-2.06-0.68-0.45-0.91-0.45-1.59-0.45-0.69 0-1.37-0.23-1.6-0.46-1.14-0.45-2.29-0.68-3.66-0.23-0.68 0.46-1.59 0.46-2.28 0.46-0.45 0-0.91 0-1.14 0.23 0-0.69-0.23-1.14-0.23-1.6 0-1.37-0.45-2.05-1.82-2.74-0.69-0.23-1.15-0.23-1.6-0.23-1.14 0.23-2.06 0.69-2.28 1.14 0 0.46-0.46 0.46-1.15 0.69-0.68 0-1.82 0.45-2.74 0.91-1.59 0.69-2.05 0.92-3.42 0.92-1.14 0-1.6-0.23-2.06-0.46-0.45-0.46-1.14-0.46-2.73-0.46-1.83 0-2.52 0-2.74 0.46-0.69 0.23-1.37 0.46-6.62 0.46h-6.17v-0.69c-0.23-0.23-0.45-0.91-0.45-1.37-0.69-2.06-2.29-2.97-3.658-2.06-0.685 0.46-1.37 1.83-1.141 2.52 0 0.45 0 0.45-0.914 0.91-1.369 0.46-2.054 1.37-2.054 2.28v1.14h-2.968c-2.511 0-2.968-0.22-3.424-0.45-0.457-0.46-4.795-0.69-5.936-0.23-0.685 0.23-1.141 1.14-1.141 1.83 0 0.68 0 0.68-1.827-0.23-0.685-0.23-1.37-0.92-1.598-1.14-0.685-1.37-1.141-1.6-2.283-1.37-1.141 0-1.598 0-2.511-0.46-0.685-0.46-2.055-0.68-2.739-0.91-0.914 0-2.055-0.23-2.512-0.23-1.141-0.23-1.141-0.23-2.283 0.91-0.228 0.46-0.685 0.91-0.913 1.37-0.456-0.23-0.685-0.46-0.913-0.68-0.685-0.23-1.141-0.23-1.598-0.23s-0.913 0-1.598-0.46c-0.913-0.45-1.37-0.45-4.109-0.45-2.74-0.23-3.196 0-4.11 0.22-0.684 0.46-1.369 0.69-1.598 0.69-0.456 0-1.598-0.69-3.881-1.83-1.369-0.68-2.054-0.68-2.739-0.68-1.37 0-1.826 0.22-2.74 1.6-0.685 0.68-0.685 0.91-1.826 0.91-0.913 0-1.141-0.23-1.37-0.69-0.685-0.91-1.598-1.37-2.968-1.14-0.913 0.23-1.598 0.23-3.196-0.23-1.141-0.23-3.196-0.68-4.565-0.91-2.283-0.46-2.283-0.46-2.968-1.37-0.457-0.46-1.142-0.91-1.598-0.91-0.913-0.46-7.077-0.46-8.219 0-0.685 0.22-1.369 0.68-2.967 2.28-1.827 1.83-3.1968 2.97-3.6528 2.97-0.228 0-0.457-1.83-0.457-5.25 0-4.57 0-5.02-0.456-5.94-0.229-0.91-0.457-1.37-0.457-7.08 0-5.7 0-7.07-0.457-8.21 0-0.23 0-0.46 0.457-0.69 0.685-0.23 1.598-1.6 1.826-2.28 0-0.46 0.229-1.14 0.457-1.6 0.685-1.37 0.685-2.74-0.228-3.42-0.229-0.46-0.913-0.92-1.37-0.92-0.228 0-0.457-0.23-0.685-0.23 0.457-0.45 0.685-0.68 1.142-1.14 1.141-0.91 1.141-0.91 2.2818-0.91 1.37 0 2.283-0.68 2.512-1.83 0.228-1.37-0.913-2.51-2.512-2.51-0.6838 0-1.3688-0.23-1.5978-0.45-0.228-0.23-1.141-0.46-1.826-0.46-0.913-0.23-2.283-0.46-2.968-0.69-0.456-0.22-0.913-0.22-1.369-0.45v-1.14-0.92c0.228 0 0.456 0 0.684 0.23 1.598 0.46 2.968-0.68 2.968-2.51 0-0.46 0-1.37 0.457-2.28 0.456-1.83 0.456-3.66 0-4.57-0.457-0.91-1.37-1.37-3.196-1.37-0.457-0.23-0.913-0.23-1.37-0.23 0.228-0.22 0.457-0.45 0.457-0.68 0.456-0.23 0.684-0.92 1.141-1.6 0.228-0.68 0.685-1.14 1.37-1.6 1.369-0.68 2.054-2.51 1.598-3.65 0-0.46-0.229-0.91-0.457-0.91-0.456-0.23-1.826-3.2-2.054-4.11 0-0.69-0.457-1.6-0.685-2.06-0.685-0.91-0.685-0.91-0.229-0.91 0.457 0 1.37-0.91 1.598-1.83 0.229-0.91-0.228-1.82-1.369-2.51-0.685-0.46-1.142-0.68-1.142-1.14 0-0.23 0-0.91-0.228-1.6-0.457-1.14-0.457-1.14 0.457-2.51 0.684-1.37 0.684-1.83 0.684-3.88 0-0.69 0.229-1.37 0.229-2.05h1.826c1.598 0 2.511 0 3.424 0.45 0.914 0.23 1.8268 0.46 3.4248 0.46 2.054 0 2.283-0.23 2.968-0.69 0.913-0.91 0.913-2.28 0-3.19-0.685-0.69-3.196-1.6-5.4788-2.29-1.37-0.22-4.795-1.82-4.566-2.05 0-0.23 0.228-0.46 0.456-0.69 0.457-0.22 0.913-0.45 1.142-0.91 0.456-0.91 0.228-2.74-0.685-3.65-0.228-0.46-0.685-0.91-0.685-0.91s0.457-0.46 0.913-0.92c3.653-2.97 4.7938-4.79 4.7938-6.39 0.229-1.14 0-1.82-1.3688-3.2-2.283-2.51-2.74-2.96-2.968-3.65-0.457-0.45-0.913-0.91-1.142-0.91-0.456 0-0.685-0.46-1.141-1.37-0.457-0.91-0.457-1.14-0.228-2.05 0-0.69 0.228-2.74 0-4.57 0-2.74 0-3.43-0.457-4.11-0.228-0.23-0.228-0.46-0.457-0.46h2.055c3.653 0 4.338-0.91 4.338-5.25 0.228-2.74-0.229-4.33-1.37-5.48-0.685-0.68-0.913-0.91-1.827-0.68h-1.141v-1.6c-0.228-1.14 0-1.6 0.457-2.51 0.913-1.83 1.369-3.65 1.141-8.45v-4.11c-0.228-0.68-0.685-1.14-0.913-1.82-0.685-1.6-0.913-2.06-0.913-3.66 0-1.14 0-2.28-0.457-3.42-0.228-0.68-0.456-1.14-0.685-1.83 0.229-0.45 0.457-0.68 0.685-1.14 0.457-0.68 0.685-1.14 0.685-1.14s0.457 0.23 0.913 0.46c2.055 1.82 4.7938-1.14 2.968-3.2-0.228-0.23-0.685-1.14-0.913-1.83-0.457-0.68-0.913-1.14-1.37-1.36-0.685-0.46-0.913-0.69-0.913-1.38-0.457-1.82-0.228-2.73 0.456-3.42 0.457-0.68 0.685-0.91 0.457-1.6-0.228-1.14-1.141-2.05-2.055-1.82-0.456 0-0.456-0.23-0.456-0.69 0-0.68 0-0.68 0.456-0.68 0.685 0 2.055-1.37 2.055-2.06 0-0.91-0.685-1.82-1.598-2.28-0.685-0.46-1.141-0.91-1.141-1.14-0.457-0.69-0.229-0.92 0.456-2.06 1.142-1.82 1.826-2.51 2.511-2.74 0.457 0 0.914 0 1.37-0.23 0.913-0.91 1.37-3.65 0.457-4.1-0.229 0-0.229-0.69-0.229-1.6 0-1.6 0-1.6-0.913-2.97-0.456-0.69-1.598-1.83-2.283-2.74-1.826-2.05-1.826-2.74-0.228-3.42 2.055-0.69 2.74-1.15 2.968-1.83 0.456-0.91 0.456-1.37-0.457-2.97-0.228-0.68-0.685-1.82-0.913-2.28-0.228-0.69-0.457-1.14-0.913-1.37-0.685-0.46-0.685-0.69-0.913-2.06 0-0.91-0.229-1.82-0.457-2.28-0.228-0.91 0-1.37 1.37-3.19 1.598-2.06 1.598-2.74 0.456-4.11-0.913-0.69-0.913-0.69-2.511-0.69-0.913 0-1.826-0.23-1.826-0.23s0.685-0.91 1.37-1.6c0.685-0.91 1.369-1.82 1.826-2.28 0.457-0.91 0.685-0.91 1.37-0.91 1.598 0 2.054-0.46 2.968-2.28 1.3688-2.74 1.1408-4.34-0.685-5.25-0.685-0.46-0.913-0.69-0.913-0.92-0.229-0.91-0.685-2.05-1.37-2.74-0.457-0.22-0.913-0.45-1.598-0.22h-0.685c-0.228-0.69-0.228-1.15-0.228-1.83 0-0.91 0.228-2.51 0.456-3.65 0.457-0.92 0.457-2.06 0.457-2.52 0-0.45 0.228-0.45 0.685-0.45 1.141 0 1.826-1.14 2.511-3.2 0.685-2.05 0.685-2.28 0.228-2.97-0.228-0.91-0.228-0.91 0.228-0.45 0.685 0.23 2.2828 0 2.9678-0.69 0.913-0.91 0.685-2.05-0.685-4.11-0.685-0.91-1.1408-1.82-1.1408-2.05s-0.228-0.69-0.457-1.37c-0.685-1.37-2.054-2.28-3.881-2.28-0.456-0.23-1.141-0.23-1.598-0.23 0.229-0.23 0.457-0.46 0.685-0.69 0.457-0.68 0.457-0.91 0.457-2.97 0-2.05 0-2.51-0.457-3.19-0.228-0.23-0.456-0.46-0.685-0.69 0.229-0.22 0.457-0.68 0.685-0.91 0.457-0.91 0.457-1.37 0.457-5.02v-3.88c-0.229-0.23-0.685-0.46-0.913-0.92-0.685-0.45-0.914-0.68-0.914-0.68 0.457 0 2.512-2.05 2.968-2.97 0.913-1.6 0.913-2.97-0.228-4.56-0.685-1.6-0.913-1.6-0.685-3.2 0-0.91 0.228-2.06 0.457-2.51 0.228-0.69 0.228-1.6 0.228-3.43 0-2.05 0.228-2.51 0.685-2.96 0.456-0.92 0.456-1.83-0.229-3.2-0.456-0.91-0.456-6.62 0-7.53 0.457-0.92 0.685-3.2 0-4.11-0.228-0.46-0.228-0.46 0.229-1.14 0.685-1.83 0.456-3.43-1.37-5.26-1.37-1.36-1.37-2.05-0.228-3.19 0.456-0.46 1.369-1.14 2.054-1.37 1.37-0.46 1.827-1.14 1.827-3.42 0-1.38-0.229-1.6-0.913-2.29-0.457-0.68-0.914-0.91-1.827-0.91-0.456 0-0.685 0-1.141-0.23v-2.97c0.228-2.28 0-3.19-0.229-4.56-0.456-1.37-0.456-1.6 0-2.51 0.229-0.46 0.457-1.37 0.457-1.83 0-0.68 0-1.37 0.228-1.83 0.457-0.45 0.457-1.14 0.457-1.37 0.228-1.14 1.141-2.74 2.055-3.42 0.684-0.69 1.598-2.28 1.826-2.97 0-0.68-0.685-1.37-1.826-2.51-1.599-1.6-3.197-3.65-2.968-3.65 0.228 0.23 1.598 0.91 2.511 1.59 1.141 1.15 1.598 1.15 3.4238 1.15 1.598 0.23 2.283-0.23 2.74-1.15 0.685-1.59 0.228-2.73-1.826-4.1-0.685-0.23-1.827-1.14-2.5118-1.6-2.283-2.06-4.337-3.2-5.25-3.43-0.229 0-0.685-0.23-0.914-0.23 0.229 0 0.685-0.22 0.914-0.22 1.598-0.23 2.511-2.29 1.598-3.66-0.685-0.68-0.685-2.74-0.229-2.96 0.229 0 0.913-0.23 1.827-0.69 0.685-0.45 1.826-0.91 2.283-0.91 0.9128-0.23 2.0538-1.14 2.0538-2.06-0.228-0.91-0.685-1.82-1.37-2.05-0.228-0.23-0.4558-0.23-0.6838-0.46 0.228-0.23 0.4558-0.45 0.6838-0.68 1.599-1.6 0.457-3.88-1.8258-3.65-0.685 0-0.685-0.23-0.685-0.69 0.229-0.46 0-1.14-0.228-1.6-0.457-0.45-0.457-0.91-0.228-1.14 0.228-0.46 0-1.37-0.229-2.05-0.228-0.23 0-0.23 2.74-0.23 3.1958 0 3.8808-0.23 4.1088-1.6 0.457-1.37-0.685-2.74-2.511-2.74-0.457 0-0.913-0.46-1.5978-0.91-0.457-0.69-1.37-1.14-1.826-1.37-0.457-0.23-0.685-0.23-0.914-0.46v-2.05-1.83c0.229-0.23 0.457-0.23 0.685-0.23 0.913 0 3.1958-1.14 3.4248-2.05 0.456-0.69 0.456-2.74-0.229-3.88-0.228-0.92-0.228-1.15 0-1.6 0.457-0.46 0.685-2.06 0.457-3.2-0.228-0.45-0.228-0.91 0-1.6 0-0.23 0.228-0.68 0.228-0.91 0.685 0 1.37 0 1.827-0.23 1.369 0 2.054-0.23 2.511-0.45 1.37-0.92 1.141-2.74 0-3.43-0.685-0.45-1.142-0.45-3.881-0.45-2.9678 0-3.4248 0-4.3378 0.68-0.685 0.23-0.913 0.68-1.141 1.37-0.229 0.68-0.685 1.14-1.37 1.6-0.457 0.23-0.913 0.45-0.685 0.45 0 0 0-0.45 0.228-0.91 0.229-0.68 0.229-2.05 0.229-7.08v-6.16c0.456 0 0.685-0.23 0.913-0.23 0.913-0.23 2.055-1.37 2.055-2.05-0.229-0.23-0.229-0.92-0.457-1.37-0.457-0.46-0.685-1.37-0.685-2.06 0-0.45-0.457-1.6-0.685-2.28-1.598-2.74-1.826-3.42-2.511-5.48-0.228-0.46-0.457-1.14-0.685-1.83 0.228-0.22 0.457-0.45 0.457-0.68 0.456-0.69 0.685-0.91 0.456-2.28v-1.37c0.457-0.23 0.685-0.46 1.142-0.69 1.141-0.68 1.141-0.68 5.2498-0.68 4.11-0.23 4.11-0.23 4.795-0.69 0.684-0.91 0.913-1.82 0.913-4.34 0-1.82 0-2.28-0.457-2.74-0.913-1.36-2.968-1.59-6.8488-0.91-1.141 0.46-2.283 0.46-2.739 0.46-0.457 0-0.685-0.23-0.228-0.46 0.228-0.23 0.913-1.82 1.141-2.74 0-0.68 0.228-1.37 0.457-1.82 0.228-0.23 0.456-1.37 0.456-2.06 0.229-2.053-0.228-2.966-1.826-3.423-0.457-0.228-0.685-0.456-0.685-0.685 0-0.228 0-0.913 0.457-1.826 0.228-0.913 0.228-1.826 0.228-2.055 0-0.456 0.228-0.684 0.685-0.684 0.685-0.457 1.37-1.142 1.37-2.055 0-0.685-0.685-1.827-0.914-2.055-0.228 0-0.685-0.228-1.141-0.685-0.228-0.228-0.457-0.685-0.913-0.913 0.456-0.228 0.685-0.456 0.913-0.913 0.228-0.228 0.685-0.457 0.913-0.913v-3.425c0.228-2.967 0.228-3.652 0.457-4.109 0.456-0.228 0.456-0.913 0.456-4.337v-4.11c-0.228-0.228-0.685-0.456-0.913-0.685-0.457-0.456-0.913-0.684-1.141-0.684-0.229 0-0.457-0.685-0.914-1.142-0.228-0.913-0.228-1.141 0-2.283 0.229-0.685 0.457-1.598 0.685-1.826 0.229-0.913 0.685-2.283 1.37-6.164 0.228-1.598 0-2.283-1.141-3.424-0.457-0.457-0.685-0.913-0.685-1.142 0 0 0.456-0.228 0.913-0.456 1.37-0.457 1.826-1.37 1.826-3.196 0-2.74-0.685-4.11-2.739-5.251-0.913-0.457-1.142-0.457-1.142-0.913 0.457-3.196 0.457-4.566 0-5.936-0.228-0.913-0.456-2.511-0.685-3.881v-2.283c0.229-0.228 0.685-0.456 1.142-0.456 0.685-0.229 1.37-0.685 1.826-1.37 0.228-0.228 0.457-0.457 0.685-0.913v-5.251-6.164c-0.228-0.457-0.228-0.685 0.457-1.37 0.456-0.456 0.913-1.141 1.369-1.598 0.229-0.456 0.914-1.141 1.3698-1.369 0.457-0.229 0.913-0.685 1.142-1.142 0.228-0.456 0.456-0.456 0.913-0.456 0.456 0 0.913-0.457 1.37-0.685 1.369-0.913 1.826-0.913 2.054-0.457 0.228 0.685 1.142 1.598 2.055 1.598 1.141 0 1.826-0.685 2.739-2.511 0.457-0.913 0.913-1.598 0.913-1.598 0.229 0 0.457 0.228 0.914 0.456 0.456 0.685 0.685 0.914 0.685 1.827 0 1.37 0.228 2.054 1.141 2.511 0.685 0.457 1.141 0.457 1.826 0 0.913-0.457 1.37-1.141 1.37-3.653v-2.054h0.457c0.456 0 0.684 0 0.913 0.456 0.228 0.913 1.598 1.827 2.511 2.055 0.228 0 0.456 0.228 0.913 0.228v1.37c0 1.37 0 1.598 0.457 2.283 0.913 0.913 2.283 0.913 3.196 0 0.456-0.685 0.685-0.913 0.685-3.653v-1.826c0.456 2.055 2.283 2.968 3.881 1.598 0.228-0.457 0.684-0.913 0.684-1.142 0-0.456 0-0.456 0.457-0.456 0.228 0 0.913-0.228 1.37-0.685 0.685-0.228 1.141-0.457 3.881-0.228 3.196 0 3.424 0 4.794 0.685 0.457 0.228 0.913 0.456 1.598 0.684-0.228 0.229-0.228 0.685 0 0.914 0 1.369 0.457 2.283 1.141 2.511 1.142 0.456 1.827 0.228 3.425-0.913 2.054-1.598 3.196-2.283 5.707-2.283 1.598 0 2.055 0.228 2.511 0.456 0.229 0.229 0.685 0.457 1.37 0.457 0.457 0.228 1.142 0.457 1.598 0.685 0.685 0.685 2.055 1.37 2.968 1.141 0.685-0.228 1.598-1.141 1.826-2.054 0.228-0.914 0.228-0.914 0.913 0 0.685 1.141 1.37 1.369 3.425 1.141 1.369 0 1.826-0.228 3.424-0.913 1.142-0.457 1.826-0.913 1.826-1.142 0.229-0.684 0.457-0.684 0.914 0.229 0.228 0.685 1.141 1.598 1.826 1.598 0.913 0 3.196-0.913 3.653-1.598 0.228-0.229 0.456-0.685 0.456-0.913-0.228-0.457 0.229-0.685 1.142-0.229 0.456 0.229 1.598 0.457 2.511 0.457 1.141 0 1.598 0 2.055 0.456 0.456 0.229 0.913 0.457 2.739 0.457h2.053v2.055c0 2.511 0.23 3.196 1.14 3.652 0.69 0.457 1.15 0.457 1.83 0 0.91-0.456 1.37-1.141 1.37-2.967 0-1.37 0.23-1.827 1.6-3.425 0.45-0.456 0.91-1.37 0.91-1.598 0.23-0.685 0.46-0.685 0.91 0 0.46 0.457 0.92 0.913 1.6 1.142 0.46 0 1.37 0.456 2.29 0.684 0.68 0.229 1.82 0.457 2.73 0.914 0.69 0 1.15 0.228 1.6 0.456 0.46-0.228 0.69-0.456 1.14-0.456 0.92-0.685 1.6-0.457 2.29 0.685 0.68 1.141 2.28 1.369 3.19 0.456 0.46-0.456 0.69-0.685 0.69-1.598 0.23-0.457 0.23-0.685 0.23-1.141h1.82c2.06 0.228 3.43-0.229 3.88-1.142 0.23-0.456 0.46-0.685 0.46-0.685 0-0.228 0.46 0 1.14 0 0.23 0 0.69 0 0.91 0.229 0 0.913 0.23 1.826 0.23 2.967 0 2.512 0 2.968 0.46 3.425 0.91 0.913 2.51 0.913 3.65-0.229 0.23-0.456 0.92-0.913 1.6-1.141 1.37-0.685 2.05-1.37 2.05-2.511 0-0.457 0-1.142-0.22-1.37-0.23-0.228 0-0.457 0.91-0.457s1.14 0.229 1.37 0.457c0 0.228 0 1.37 0.23 2.74 0 2.739 0.23 3.424 1.14 3.88 0.68 0.457 1.14 0.457 1.83 0 0.91-0.456 1.37-1.141 1.37-2.739v-1.37c0.68 0 1.37-0.228 2.05-0.228 2.51 0 3.65-0.457 3.88-1.142 0.23-0.456 0.23-0.456 3.2-0.456 2.74 0 3.19 0 3.65 0.228 0.46 0.685 1.14 2.055 1.14 2.74 0 0.456 0.23 0.913 0.46 1.369 0.91 0.914 2.28 0.914 3.19 0 0.23-0.456 0.69-0.913 0.69-1.141s0.23-0.913 0.68-1.826c0.46-0.685 0.92-1.827 0.92-2.283 0-0.457 0.23-0.685 0.23-0.913h0.91c0.91 0 1.14 0 1.6 0.456 0.68 0.685 1.59 0.913 2.51 0.685 0.45-0.228 1.37-0.228 2.05-0.228 1.14 0 1.37 0 2.06 0.685 0.68 0.456 0.91 0.684 1.82 0.456 0.46 0 1.6-0.228 2.74-0.228 0.92-0.228 2.06-0.457 2.51-0.685 0.46-0.228 1.6-0.457 2.29-0.457 1.59-0.228 2.51 0.229 3.88 1.598 1.14 0.914 2.05 1.37 3.42 1.827 0.69 0.228 1.83 0.913 2.51 1.141 1.37 0.913 3.2 1.142 4.11 0.685 0.69-0.228 1.14-1.598 1.14-2.511 0-0.685 0.23-0.913 0.92-1.142 1.14-0.684 1.82-0.684 2.97 0.457 1.82 1.142 3.19 0.913 4.1-0.913 0.23-0.228 0.46-0.457 0.46-0.685 0 0.457 0.23 0.685 0.23 0.913 0.23 1.142 0.46 1.598 1.37 2.055 0.91 0.456 1.6 0.228 2.74-0.685 0.23-0.228 0.45-0.457 0.68-0.913h2.29c2.74 0.228 2.96 0.228 5.48 2.054 1.36 1.142 1.82 2.055 2.05 2.968 0 0.228 0 0.685 0.23 1.142 0.91 1.369 2.97 1.369 3.65 0 0.23-0.685 0.46-1.37 0.46-3.425v-2.511h1.82c2.51 0 3.2-0.228 3.66-1.141 0.45-0.685 0.45-0.685 1.59-0.685 1.15 0 1.15 0 1.6 0.456 0.92 1.37 3.43 1.598 4.8 0.685 0.22-0.228 0.91-0.456 1.82-0.456 0.46 0 0.92 0 1.37 0.228v0.913c0 0.913 0 1.37 0.46 1.826 0.46 0.685 0.68 0.685 2.05 0.685 1.15 0 1.6 0 2.51-0.685 0.46-0.456 1.15-1.141 1.6-1.826 0.23-0.685 0.92-1.37 1.14-1.826 0.46-0.229 0.92-0.685 0.92-0.913 0-0.229 0.45-0.229 2.05-0.229 1.83 0.229 2.06 0.229 2.97-0.456s1.83-0.685 2.05 0.228c0.92 2.283 2.97 4.109 5.03 5.251 1.14 0.685 1.6 0.685 2.28 0.228 1.14-0.457 1.37-1.141 1.37-4.109v-2.283h0.46c0.45 0 0.68 0 0.68 0.456 0 0.457 0.23 1.142 0.46 1.598 0.91 0.914 2.28 0.914 3.19 0 0.23-0.456 0.69-1.141 0.69-1.598v-0.456h2.05c2.29 0 2.51 0 3.2 0.456 0.91 0.685 0.91 0.685 5.71 0.914h4.79c0 0.228 0.23 0.456 0.23 0.913 0.46 0.685 1.6 1.369 4.11 2.054 1.14 0.457 2.05 0.685 4.11 0.685 1.82 0 2.97 0 3.42 0.229 0.46 0.228 1.37 0.228 2.29 0.228 1.14 0 1.36 0 1.82-0.685 0.23-0.228 0.69-0.913 0.69-1.142 0-0.913 0.22-1.141 0.91-0.913 0.23 0.229 1.37 0.229 2.05 0.229 1.37 0 1.6 0 2.29-0.457 0.45-0.457 0.68-0.913 0.68-1.37v-0.685h1.83 2.05v1.598c0 1.37 0 1.827 0.69 2.74 0.23 0.685 0.45 1.141 0.68 1.37 0 0.228-0.45 0.685-0.68 1.369-0.46 0.685-0.69 1.598-0.69 2.512-0.23 1.598-0.23 1.598 0.46 2.282 1.37 1.599 4.11 0.685 4.79-1.369 0.23-0.913 1.6-2.968 2.51-3.653 0.23-0.228 0.92-0.685 1.6-0.913 1.83-0.457 2.97-1.598 2.97-3.196-0.23-0.685 0-0.913 0.46-1.142 0.68-0.456 1.6 0 1.82 1.142 0.23 1.141 1.14 2.739 1.83 3.196 0.23 0.228 0.91 0.457 1.37 0.457 1.83 0 2.74-1.142 2.97-2.74 0-0.685 0-0.913 0.23-0.685 1.82 0.685 2.74 0.685 4.79-0.685 0.46-0.228 1.14-0.456 2.51-0.685 1.83 0 2.06 0 2.51-0.684 0.23-0.229 0.69-0.914 0.69-1.142s0-0.228 1.37-0.228h1.59c0 0.456 0 1.141 0.23 1.598 0 1.598 0 1.826 0.69 2.283 0.91 0.913 2.05 0.685 2.97 0 0.22-0.457 0.68-0.913 0.68-1.37 0-0.913 0.23-1.141 1.14-1.141 0.69 0 0.92 0 1.37 0.684 0.92 0.914 1.83 0.914 3.65-0.228 0.69-0.456 1.37-0.685 1.37-0.685 0.23 0.913 1.6 2.283 2.52 2.968 0.68 0.457 1.59 0.685 2.74 0.685 0.45-0.228 1.59-1.37 1.82-1.826 0-0.229 0-0.229 0.91 0.228 1.37 0.685 2.52 0.913 3.2 0.456 0.46-0.228 0.91-0.456 0.91-0.913 0-0.228 0.46-0.913 1.15-1.369 0.45-0.685 0.91-1.142 0.91-1.37h1.6c1.59 0 1.59 0 2.05 0.456 0.23 0.685 0.46 1.598 0.46 4.11 0 2.967 0 3.652 0.45 4.794 0.69 1.826 1.37 2.511 2.52 2.739 1.14 0 1.59-0.456 2.28-2.054 0-0.457 0.46-1.142 0.91-1.37 1.37-0.913 5.02-2.055 6.62-1.826 2.51 0 3.43-1.142 3.2-3.425v-1.37c0.23 0 0.68 1.142 1.37 2.283 1.37 2.968 2.74 3.881 4.11 2.512 1.14-0.914 1.14-1.827 0.68-3.425-0.23-0.685-0.45-1.37-0.23-1.37 0 0 2.29-0.913 2.51-0.913 0 0 0.23 0.457 0.23 0.913 0 1.827 1.37 2.968 3.2 2.74s2.51-0.913 2.74-2.74c0.23-0.913 0.23-0.913 1.37-1.369 1.6-0.457 1.82-0.457 1.82 0 0 1.369 0.92 2.511 2.29 2.511 0.45-0.228 0.91 0.228 1.6 0.685 0.91 0.913 1.37 0.913 2.96 0.456 0.46-0.228 0.92-0.685 1.37-1.369 0.23-0.685 0.46-0.914 1.14-0.914 0.46 0 1.37 0 1.83-0.228 0.46 0 1.14-0.228 1.6-0.228 0.46-0.228 3.2 0.685 3.65 1.141 0.46 0.229 2.28 0.229 2.97-0.228 0.23 0 0.68-0.457 1.14-0.685 0.23-0.228 0.23-0.456 0.46-0.685 0.23 0.229 0.23 0.457 0.23 0.457 0.22 0.685 1.37 1.37 2.05 1.37l0.69 0.684c0.45 0.914 1.37 1.37 3.19 1.142 1.6 0 3.43-0.913 4.34-1.826 0.46-0.457 2.51-1.598 2.97-1.598 0 0 0.23 0.228 0.23 0.684 0 0.685 0.45 1.37 0.91 1.827 1.14 0.913 1.82 1.141 2.74 0.685 0.91-0.457 0.91-0.457 1.37-1.827 0-0.456 0.23-0.685 0.23-1.141v1.598c0.22 2.968 1.14 4.566 3.19 4.566 1.37 0 2.28-1.142 2.28-2.511 0-1.142 0.23-1.37 2.74-2.74 0.69-0.228 1.83-0.913 2.52-1.37 0.68-0.456 1.37-0.685 1.59-0.685 0 0 0.69 0.229 1.15 0.914 0.91 0.913 2.51 1.826 3.88 1.826 0.45 0 0.68-0.228 1.14-0.228-0.23 0.456-0.46 0.684-0.46 0.913-0.23 0.456-0.46 1.141-0.46 1.826s0.23 1.142 0.69 1.826c0.91 1.142 2.74 2.512 3.65 2.74 0.23 0 0.46 0 0.69 0.228-0.23 0.457-0.46 0.913-0.69 1.37-0.68 1.141-0.68 1.598-0.68 3.424-0.23 1.37 0 2.283 0.23 2.968 0.22 0.685 0.45 2.283 0.68 3.881 0 1.598 0 2.968 0.23 3.424 0 0.457 0 0.457-1.14 0.685-2.74 0.229-4.34 2.055-3.2 3.653 0.46 0.685 2.06 1.37 2.74 1.37 0.46 0 0.46 0.228-0.23 0.913-1.37 1.141-0.91 2.739 0.92 3.881 2.05 1.141 1.82 1.826-0.46 2.511-1.83 0.685-2.51 1.37-2.51 2.511 0 0.685 0 0.914 0.45 1.598 0.69 0.457 0.92 0.685 2.97 0.685 3.2 0 3.2-0.228 3.2 1.827 0 1.826-0.46 2.739-1.6 2.967-2.28 0.914-1.83 4.566 0.68 4.795 0.23 0 0.46 0.228 0.92 0.228v1.598 1.598h-0.92c-1.14 0-2.05 0.913-2.05 1.826 0 1.598 0.91 3.196 2.28 3.881 0.46 0 0.69 0.228 0.69 1.37 0 1.141-0.23 1.141-0.92 1.598-0.45 0.228-1.59 0.685-2.28 1.141-1.14 0.685-1.6 1.37-1.6 2.283 0 0.685 0.92 1.827 2.52 2.968 0.45 0.228 0.91 0.457 1.59 0.913-0.23 0.229-0.45 0.457-0.68 0.457-0.91 1.141-0.91 3.196 0.23 4.566 0.22 0.456 0.45 0.685 0.91 1.141-0.23 0.228-0.23 0.457-0.46 0.685-0.23 0.457-0.45 1.598-0.45 2.283 0 0.456-0.23 0.913-0.23 1.37-0.46 0.228-0.91 0.456-1.37 0.685-1.37 0.684-1.6 0.913-3.88 0.913-2.97 0-4.11 0.228-4.8 0.913-0.91 1.141-0.45 2.739 0.92 3.196 0.22 0.228 1.82 0.457 3.19 0.457h2.51v1.826c0 1.598 0 2.055 0.46 2.511 0.23 0.457 0.91 0.913 1.14 0.913s0.46 0 0.69 0.229c0 0.228-0.23 0.685-0.23 0.913-0.23 0.685-0.23 1.37-0.23 1.598s-0.46 0.685-0.91 0.913c-0.23 0.455-0.92 1.145-1.37 2.055-0.46 1.14-0.69 1.6-0.46 2.74 0 0.91 0.23 1.83 0.46 2.05 0.23 0.69 0.23 0.92-0.23 1.83-0.23 0.69-0.23 1.6-0.23 1.83 0 0.45-0.46 0.91-0.91 1.59-0.46 0.46-0.92 1.15-0.92 1.37-0.22 0.69-0.22 0.69-1.14 0.92-1.37 0.45-3.42 1.6-3.88 2.28-0.91 1.14-0.45 2.74 0.69 3.2 0.91 0.45 3.19 0.22 4.33-0.23 0.69-0.46 0.92-0.46 0.92 0.23 0 0.45-0.23 0.91-0.69 0.91-0.23 0-0.45 0.46-0.68 0.91-0.69 1.14-0.46 1.6 0.91 2.97 1.14 1.37 1.37 1.6 1.37 2.51 0 0.46 0 1.37 0.23 1.6 0.23 0.68 1.14 1.37 2.05 1.14 0.92 0 1.37 1.14 1.37 4.8v3.19h-0.68c-2.28 0-2.74 2.97-1.14 4.8 0.45 0.45 0.91 0.68 0.91 0.68 0 0.46-2.74 2.28-3.65 2.51-1.37 0.46-1.83 1.14-1.83 2.28 0 1.6 1.6 2.74 4.57 2.74 0.45 0.23 1.14 0.23 1.6 0.23 0 1.6 0 3.43 0.22 5.03 0 3.65 0 5.25 0.23 5.47 0.46 0.46 0.23 0.69-0.68 2.51-0.46 1.15-1.37 2.52-1.83 3.2-1.37 1.83-1.83 4.8-1.14 6.62 0.23 0.46 0.68 1.14 0.91 1.14 0.46 0.23 0.46 0.69 0.69 4.34 0 2.97 0.23 4.34 0.45 5.02 0 0.23 0.23 0.69 0.23 0.92-0.23 0.22-0.45 0.68-0.91 0.91-0.91 1.14-0.91 1.6-0.46 3.19 0.23 1.15 0.92 1.83 2.29 1.83h1.36c0 0.46-1.14 1.37-2.51 2.06-2.05 1.14-3.42 2.28-3.88 2.96-0.68 1.37 0.23 2.97 1.83 3.2 0.23 0 1.14-0.23 1.83-0.46 0.68-0.45 1.59-0.45 1.82-0.45h0.69v4.56 4.57c-0.46 0.23-0.69 0.45-0.92 0.45-0.45 0.23-1.59 0.46-2.96 0.46-2.06 0.23-2.29 0.23-2.97 0.92-0.69 0.91-0.69 0.91-0.46 3.19 0 1.83 0.23 2.51 0.46 3.43 0.23 0.45 0.45 0.91 0.68 1.36-0.45 0.23-0.68 0.46-0.91 0.92-1.14 1.14-1.37 2.05-1.14 3.2 0.23 0.68 0.23 0.68-0.69 1.82-1.14 1.14-1.14 1.6-1.14 4.11 0 4.57 2.06 7.99 6.17 10.05 0.91 0.45 1.82 0.91 2.28 0.91 0.91 0.23 0.91 0.23 0.68 1.14-0.22 1.37-2.05 2.97-4.11 3.88-1.14 0.46-1.82 0.91-2.51 1.83-0.45 0.68-0.45 1.14-0.45 2.05 0 1.37 0.22 2.06 1.82 2.97 1.14 0.68 1.37 0.91 1.14 1.37-0.45 1.83-0.68 2.28-0.22 3.19 0.45 0.92 1.37 1.6 2.28 1.83 1.6 0.46 1.6 0.69 0 1.6-1.37 0.91-4.57 3.88-5.02 4.79-0.23 0.92 0 1.6 0.91 2.29 0.46 0.45 0.91 0.68 2.51 0.68 1.37 0 2.06 0 1.83 0.23 0 0 0 0.91 0.23 1.6 0.22 1.82 0.68 2.51 2.28 3.19 0.45 0.23 0.91 0.46 1.37 0.69 0 1.37-0.23 2.74-0.23 4.11v3.88c-0.23 0.46-0.69 0.68-0.91 1.14-0.69 0.69-1.6 1.37-2.29 1.83-0.45 0.22-0.91 0.68-0.91 0.91 0 0-0.68 0.69-1.37 1.6-1.6 1.6-1.83 2.51-1.83 4.11s0.23 2.51 1.15 2.74c0.91 0.45 1.14 0.45 2.05 0 0.46-0.23 1.37-0.69 1.83-0.69 0.45 0 1.14-0.23 1.37-0.23 0.68-0.22 0.45 0.46-0.46 0.92-1.37 0.91-1.6 1.82-1.37 5.48v4.33 1.15c-0.46-0.23-0.68-0.23-0.91-0.23-1.14-0.23-2.29 0.23-2.97 0.91-0.91 0.91-0.91 1.37 0 3.2 0.68 1.36 0.91 1.82 1.83 2.28 0.22 0.23 0.68 0.46 0.91 0.68 0 0.69 0.23 1.14 0.23 1.83 0 1.14 0 2.28 0.23 2.51 0.22 0.23 0 0.46-0.69 0.46-1.14-0.23-2.28 0.91-2.28 2.05 0 0.91 0.68 1.83 1.82 2.06 0.92 0.23 1.15 1.37 0 2.74-1.37 2.05-1.37 3.65 0 4.79 0.46 0.46 0.92 1.14 1.15 1.6 0.45 0.91 0.68 0.91 0.22 1.6-0.45 0.91-0.45 2.05 0 2.96 0.69 0.92 0.46 2.06-0.91 4.57-1.37 2.97-2.05 4.79-2.28 6.62-0.23 1.14 0 1.37 0.45 2.05 0.23 0.23 0.69 0.69 0.92 0.69 0.45 0.23 0.45 0.46 0.45 2.05-0.22 1.83-0.22 1.83-1.14 2.74-1.37 1.15-1.82 2.06-1.6 3.2 0.23 1.83 1.6 2.74 4.11 2.74 0.46 0.23 0.69 0.23 0.46 0.68v0.92c0 0.23-0.68 1.14-1.14 1.82-1.6 1.6-1.6 1.83-1.6 3.2s0.69 2.97 1.6 3.65c0.46 0.46 0.91 0.69 0.91 0.92 0 0.22-2.05 3.42-3.42 5.02-1.37 1.83-3.43 5.93-3.66 7.53-0.22 0.92 0 1.14 0.46 1.83 0.69 0.91 1.6 1.14 2.51 0.68 0.46-0.23 0.92-0.45 0.92-0.68 0-0.46 0.22 0 0.68 0.91 0.69 0.92 0.69 1.14 0.23 1.83-0.23 0.45-0.23 2.05-0.23 7.53-0.23 6.17-0.23 7.08-0.46 7.54-0.22 0.22-0.45 0.91-0.45 1.82-0.23 1.37-0.23 1.83-1.37 3.43-2.29 3.42-2.97 4.33-3.43 5.7-0.22 0.69-0.91 1.83-1.37 2.74-0.91 1.37-1.14 1.6-1.14 2.74s0 1.37 0.69 1.83c0.91 0.91 2.05 0.68 2.96-0.23 0.69-0.46 0.92-0.68 1.6-0.46 0.69 0.23 0.92 0.46 1.14 1.15 0.23 0.45 0.69 0.91 1.15 1.14 0.45 0.22 1.14 0.68 1.14 0.91 0.23 0.23 0.68 0.46 1.37 0.69 0.23 0 0.45 0 0.68 0.22 0 0.23-0.23 0.69-0.45 0.92-0.69 1.82 0 3.19 2.05 3.42 0.46 0.23 0.68 0.23 1.14 0.23h-1.14c-2.28 0.23-3.42 1.37-3.2 3.42 0.23 0.69 0.46 1.37 1.15 2.06 0.45 0.68 0.91 1.14 0.91 1.37s0.23 0.45 0.68 0.91c0.23 0.46 0.69 0.69 0.69 0.91 0 0-0.69 0.23-1.14 0.46-2.06 0.68-2.97 3.42-1.6 4.57 0.23 0.23 0.91 0.68 1.37 0.68 0.91 0.23 0.91 0.23 0.68 0.91v1.37c0 0.46-0.45 0.69-0.68 0.92-1.14 0.45-1.14 1.14-1.14 4.56v3.2c-0.46 0-0.92 0.23-1.14 0.23-2.74 0.45-3.43 1.14-3.43 3.65 0 2.28 1.14 3.2 3.43 3.2 0.45 0.23 1.14 0.23 1.14 0.23s-0.23 0.45-0.46 0.68c-0.23 0.46-0.23 0.91-0.23 1.14 0 0.46-0.45 0.91-1.14 1.6-2.28 2.05-2.74 3.88-2.74 11.41v4.57c-0.46 0.68-0.68 1.37-1.14 2.05-0.91 2.06-0.91 2.29-0.69 3.43 0.46 1.37 0.69 1.82 1.83 2.05 0.46 0.23 0.46 0.46 0.69 1.83 0.22 0.68 0.45 1.6 0.45 1.83 0.23 0.45 0 0.45-0.91 0.68-1.6 0.23-2.28 0.69-2.74 2.05-0.46 0.92-0.46 1.15-0.23 2.06 0.46 1.14 1.37 2.05 2.06 2.05 0.45 0 0.68 0 0.91 0.46 0.46 0.46 0.46 0.69-0.91 2.28-0.92 1.6-1.15 1.83-0.92 2.51 0.23 0.92 1.14 1.83 2.06 1.83 0.68 0 0.91 0 1.6 0.91 0.22 0.46 0.68 1.15 0.68 1.15-0.23 0.22-0.46 0.91-0.91 1.59-0.46 0.46-0.92 1.37-0.92 1.83-0.22 0.91 0.23 2.05 0.46 2.28 0.23 0 0.23 0.46-0.23 0.92-0.23 0.45-0.23 1.14-0.23 2.05 0 0.69-0.22 1.37-0.45 1.37 0 0-0.23 0.46-0.46 0.91-0.23 0.69-0.46 0.69-1.6 1.15-1.59 0.22-3.88 1.59-5.25 2.73-0.91 0.69-1.14 1.15-1.14 1.83 0 0.46 0.23 0.91 0.46 1.37 0.45 0.69 2.28 1.6 4.34 1.83 1.82 0.45 4.1 1.14 6.16 2.28 1.83 0.91 2.51 1.6 2.51 2.74 0 0.69-0.23 0.69-1.37 0.91-2.51 0.23-3.2 1.37-3.2 5.03 0 2.05 0 2.28 0.46 2.73 0.23 0.46 0.91 0.92 1.37 0.92 0.23 0 0.69 0.23 0.69 0.46 0 0 0.68 0.45 1.14 0.91 0.23 0.23 0.68 0.45 0.91 0.68v1.37c-0.23 1.6-0.23 1.6-1.37 2.74-1.6 1.6-2.05 3.66-0.68 4.8 0.68 0.68 0.68 0.91 0.45 1.37-0.45 0.91-0.45 2.28 0 2.96 0.23 0.69 1.14 1.37 2.06 1.37 0.23 0 0.45 0 0.45 2.29 0 2.28-0.22 2.51-0.68 2.74-0.69 0.45-2.51 3.19-2.97 4.56 0 0.69-0.46 1.6-0.68 1.83 0 0.23-0.46 0.91-0.69 1.37-0.46 0.91-0.46 1.37-0.46 5.48v4.56c-0.45 0-0.91 0.23-1.37 0.23-0.45 0-1.37 0.23-1.59 0.46-0.23 0.45-0.46 0.23-1.6-0.46-2.74-2.28-6.62-2.51-7.99-0.68-0.46 0.45-0.46 0.45-3.43 0.68-1.59 0-2.96 0.23-3.19 0.23-0.46 0.46-0.46 0.46-0.92-0.46-0.91-1.82-2.73-2.97-4.1-2.97s-2.29 0.69-2.29 2.06c0 0.23-0.23 0.68-0.23 0.91-0.22 0-0.45-0.23-0.68-0.23-0.46-0.45-1.6-0.45-4.34-0.45-3.42-0.23-3.88 0-4.56 0.23-0.69 0.45-1.15 0.68-7.08 0.68h-6.16c-0.23-0.46-0.46-0.68-0.69-1.14-1.83-1.83-2.74-2.06-6.39-0.91-2.51 0.91-2.74 0.91-3.2 0.68-0.23-0.23-1.14-0.45-2.97-0.45-2.28-0.23-2.96-0.23-3.42-0.69-1.14-0.46-1.6-1.37-1.6-2.28 0-1.15-1.14-2.06-2.28-2.06h-1.14c-1.14 0.69-1.83 0.69-2.29 0.46 0-0.23-0.45-0.46-0.91-0.69-0.68-0.22-0.91-0.22-2.05-0.22-0.92 0.22-1.14 0.22-1.83-0.23-1.14-0.92-3.88-0.92-4.79 0-1.15 1.14-1.37 3.19-0.46 4.56 0.68 2.06 0.46 2.74-1.83 2.97-0.68 0-1.82 0.23-2.28 0.46-0.68 0.45-1.14 0.68-1.14 0.68v-1.14c0-1.37-0.69-2.28-1.37-2.51-0.91-0.46-2.51-0.23-3.2 0.46-0.23 0-0.45 0.23-0.68 0.45-0.23-0.22-0.46-0.45-0.69-0.45-0.23-0.46-1.14-0.69-1.59-0.69-0.46-0.23-1.37-0.46-1.83-0.68-0.46-0.23-0.91-0.23-1.14-0.23-0.69 0-1.6 0.45-1.83 1.14 0 0.23-0.46 0.69-0.91 1.14-0.69 0.46-0.92 0.46-1.6 0.46s-1.14 0-1.83 0.23c-1.14 0.68-1.14 0.68-1.59 0-0.23-0.69-2.74-2.29-4.57-3.2-2.28-1.14-5.25-1.14-6.39 0-0.69 0.46-0.69 0.68-0.69 2.28 0 0.46-0.23 1.14-0.23 1.6h-0.68c-1.37-0.23-2.28 0.23-2.74 1.37 0 0.23 0 0.46-0.23 0.69-0.23-0.23-0.45-0.23-0.68-0.46-1.6-1.37-2.06-1.37-4.57-1.37-1.83 0-2.28-0.23-2.97-0.69-1.37-0.91-1.82-0.91-4.33 1.15-0.69 0.68-1.37 1.37-1.6 2.05-0.23 0.46-0.46 0.68-0.46 1.14v-2.05" />
  <path
     id="path31"
     style="fill:#ffe6d5;fill-opacity:0.77647059;fill-rule:evenodd"
     d="m 332.06,576.13461 c -0.23,-2.51 -0.45,-2.97 -1.59,-3.65 -0.46,-0.23 -1.37,-0.69 -2.06,-1.14 -0.91,-0.46 -1.37,-0.69 -2.97,-0.69 -2.05,-0.23 -2.51,0 -3.65,0.91 -1.14,0.69 -1.37,1.37 -1.37,2.52 0,0.45 -0.23,0.91 -0.23,0.91 -0.45,0 -2.05,-1.37 -2.51,-2.06 -0.68,-1.14 -2.05,-1.59 -3.42,-0.91 -0.46,0.23 -1.83,0.46 -5.03,0.46 -4.11,0 -4.56,0 -5.02,0.45 -0.46,0.23 -0.91,0.92 -0.91,1.37 -0.23,0.23 -0.23,0.46 -0.23,0.69 h -3.2 c -1.14,0 -2.28,0 -3.19,0.23 0.23,-0.69 0.45,-1.14 0.68,-1.6 0.46,-0.69 0.92,-1.6 0.92,-1.83 0,-0.68 -0.69,-1.6 -1.6,-1.82 -0.46,-0.23 -1.14,-0.46 -1.37,-0.69 -0.46,-0.23 -1.6,-0.46 -2.28,-0.46 -1.37,-0.22 -1.83,0 -2.29,0.23 -1.37,0.92 -1.82,2.74 -0.91,4.57 0.46,0.46 0.23,0.91 -0.23,0.91 -0.23,0 -0.91,0.23 -1.6,0.46 -0.23,0.23 -0.68,0.45 -0.91,0.68 -0.23,-0.23 -0.46,-0.45 -0.69,-0.68 -0.22,-0.23 -0.22,-0.46 -0.45,-0.69 h -2.97 c -3.42,0 -3.65,0 -4.34,1.83 -0.23,0.23 -0.23,0.46 -0.45,0.91 h -2.51 c -2.06,0 -2.29,-0.23 -2.74,-0.68 -0.23,-0.23 -0.92,-0.69 -1.37,-0.92 -0.69,-0.22 -0.69,-0.45 -0.92,-1.36 -0.23,-1.15 -1.6,-3.66 -2.28,-3.89 -0.23,-0.22 -0.91,-0.45 -1.6,-0.45 -0.68,-0.23 -1.14,-0.46 -1.82,-1.14 -1.15,-0.92 -1.83,-1.15 -2.74,-1.15 -0.69,0 -1.83,0.69 -1.83,1.15 0,0.22 -0.46,0.45 -1.14,0.45 -0.92,0 -1.14,0 -1.83,0.69 -0.91,0.68 -1.14,0.68 -2.51,0.91 -1.37,0 -1.6,0 -2.05,0.69 -0.23,0.22 -0.46,0.45 -0.46,0.68 -0.23,-0.23 -0.23,-0.46 -0.46,-0.68 -0.68,-1.6 -2.05,-1.83 -3.42,-0.92 -1.37,0.69 -1.6,2.06 -0.69,4.11 0.23,1.14 0,1.37 -0.91,0.91 -0.46,-0.22 -1.14,-0.22 -1.6,-0.22 -0.45,0 -0.91,-0.23 -1.37,-0.69 -0.45,-0.91 -1.14,-1.14 -2.05,-1.14 -0.92,-0.23 -2.06,0.46 -2.51,1.14 0,0.23 -0.23,0.69 -0.46,0.69 0,0 -0.68,-0.46 -1.37,-0.92 -0.68,-0.45 -1.6,-0.68 -1.83,-0.68 -0.45,0 -0.68,-0.69 -0.68,-1.37 0,-0.69 -0.91,-1.6 -2.06,-2.28 -0.68,-0.23 -1.14,-0.23 -3.19,-0.23 -2.74,0 -3.65,0 -4.57,0.91 -0.91,0.69 -2.28,1.37 -3.65,1.83 -0.91,0.45 -1.6,1.37 -1.6,2.28 0,0.23 -0.45,0.46 -2.51,0.46 -1.6,0 -2.28,0 -2.97,0.22 -0.45,0.23 -0.45,0.23 -0.91,-0.22 0,-0.23 -1.37,-0.92 -2.74,-1.6 -1.6,-0.92 -2.74,-1.6 -2.97,-1.83 -0.45,-0.68 -1.6,-1.37 -2.74,-1.14 -0.68,0 -2.05,0.69 -2.05,1.14 0,0 -0.46,0.69 -0.91,1.14 -0.69,0.46 -1.15,1.37 -1.37,1.83 0,0.46 -0.46,1.14 -1.15,1.6 -1.14,1.14 -1.37,1.14 -1.14,0 v -1.6 c -0.45,-0.68 -3.42,-2.74 -4.79,-3.2 -1.37,-0.22 -2.97,0.23 -3.43,1.14 -0.22,0.23 -0.68,0.46 -1.14,0.69 -0.45,0 -1.14,0.23 -1.37,0.46 -0.23,0.45 -0.68,0.45 -1.82,0.45 -0.92,0 -1.83,-0.22 -2.29,-0.45 -0.68,-0.23 -0.91,-0.23 -1.59,0 -0.46,0.23 -1.37,0.23 -2.06,0.45 -1.37,0 -1.37,0 -1.83,-0.68 -0.45,-1.37 -1.37,-1.83 -2.73,-2.06 -1.6,-0.22 -2.97,0 -4.11,0.92 -0.46,0.22 -0.92,0.45 -1.15,0.68 -0.22,-0.23 -0.45,-0.46 -0.68,-0.68 -0.23,-0.46 -1.14,-1.14 -1.83,-1.37 -1.14,-0.69 -1.14,-0.69 -4.79,-0.46 -3.88,0 -3.88,0 -4.8,0.69 -0.91,0.68 -1.14,1.59 -1.36,2.74 0,0.45 0,0.91 -0.69,1.36 -1.6,1.37 -1.83,1.37 -2.74,0.23 -1.37,-2.05 -3.2,-2.74 -5.02,-2.28 -0.91,0.23 -1.6,0.91 -2.74,2.05 -0.69,0.46 -1.14,0.92 -1.83,1.6 v -1.14 c 0,-1.14 0,-1.37 -0.45,-2.05 -0.69,-0.46 -0.92,-0.46 -1.6,-0.46 -0.69,0 -1.37,-0.23 -1.6,-0.46 -1.14,-0.45 -2.28,-0.68 -3.65,-0.23 -0.69,0.46 -1.6,0.46 -2.29,0.46 -0.45,0 -0.91,0 -1.14,0.23 0,-0.69 -0.23,-1.14 -0.23,-1.6 0,-1.37 -0.45,-2.05 -1.82,-2.74 -0.69,-0.23 -1.14,-0.23 -1.6,-0.23 -1.14,0.23 -2.05,0.69 -2.28,1.15 0,0.45 -0.46,0.45 -1.14,0.68 -0.69,0 -1.83,0.46 -2.74,0.91 -1.6,0.69 -2.06,0.92 -3.43,0.92 -1.14,0 -1.6,-0.23 -2.05,-0.46 -0.46,-0.46 -1.14,-0.46 -2.74,-0.46 -1.83,0 -2.51,0 -2.74,0.46 -0.69,0.23 -1.37,0.46 -6.62,0.46 h -6.170002 v -0.69 c -0.22,-0.23 -0.45,-0.91 -0.45,-1.37 -0.69,-2.05 -2.285998,-2.97 -3.655998,-2.05 -0.685,0.45 -1.37,1.82 -1.141,2.51 0,0.46 0,0.46 -0.914,0.91 -1.369,0.46 -2.054,1.37 -2.054,2.29 v 1.14 h -2.968 c -2.511,0 -2.968,-0.23 -3.424,-0.46 -0.457,-0.46 -4.794002,-0.68 -5.936002,-0.23 -0.685,0.23 -1.141,1.14 -1.141,1.83 0,0.68 0,0.68 -1.827,-0.23 -0.685,-0.23 -1.369,-0.91 -1.598,-1.14 -0.685,-1.37 -1.141,-1.6 -2.283,-1.37 -1.141,0 -1.598,0 -2.511,-0.46 -0.685,-0.46 -2.055,-0.68 -2.739,-0.91 -0.914,0 -2.055,-0.23 -2.512,-0.23 -1.141,-0.23 -1.141,-0.23 -2.283,0.91 -0.228,0.46 -0.684,0.92 -0.913,1.37 -0.456,-0.22 -0.685,-0.45 -0.913,-0.68 -0.685,-0.23 -1.141,-0.23 -1.598,-0.23 -0.457,0 -0.913,0 -1.598,-0.46 -0.913,-0.45 -1.37,-0.45 -4.109,-0.45 -2.74,-0.23 -3.196,0 -4.109,0.22 -0.685,0.46 -1.37,0.69 -1.598,0.69 -0.457,0 -1.599,-0.69 -3.881,-1.83 -1.37,-0.68 -2.055,-0.68 -2.74,-0.68 -1.37,0 -1.826,0.23 -2.739,1.6 -0.685,0.68 -0.685,0.91 -1.827,0.91 -0.913,0 -1.141,-0.23 -1.37,-0.69 -0.684,-0.91 -1.598,-1.36 -2.967,-1.14 -0.914,0.23 -1.598,0.23 -3.196,-0.22 -1.142,-0.23 -3.197,-0.69 -4.566,-0.92 -2.283,-0.45 -2.283,-0.45 -2.968,-1.37 -0.457,-0.45 -1.142,-0.91 -1.598,-0.91 -0.913,-0.46 -7.077,-0.46 -8.219,0 -0.684,0.23 -1.3690003,0.68 -2.9670003,2.28 -1.8268,1.83 -3.1958,2.97 -3.6528,2.97 -0.228,0 -0.457,-1.83 -0.457,-5.25 0,-4.57 0,-5.02 -0.456,-5.94 -0.229,-0.91 -0.457,-1.37 -0.457,-7.07 0,-5.71 0,-7.08 -0.456,-8.22 0,-0.23 0,-0.46 0.456,-0.69 0.685,-0.22 1.598,-1.6 1.827,-2.28 0,-0.46 0.228,-1.14 0.456,-1.6 0.685,-1.37 0.685,-2.74 -0.228,-3.42 -0.228,-0.46 -0.913,-0.92 -1.37,-0.92 -0.228,0 -0.457,-0.22 -0.685,-0.22 0.457,-0.46 0.685,-0.69 1.142,-1.14 1.141,-0.92 1.141,-0.92 2.283,-0.92 1.369,0 2.2818,-0.68 2.5108,-1.82 0.228,-1.37 -0.913,-2.52 -2.5108,-2.52 -0.685,0 -1.37,-0.22 -1.598,-0.45 -0.229,-0.23 -1.142,-0.46 -1.827,-0.46 -0.913,-0.23 -2.28299998,-0.46 -2.96799998,-0.68 -0.456,-0.23 -0.913,-0.23 -1.36900002,-0.46 -2e-5,-0.23 -2e-5,-0.69 -2e-5,-1.14 v -0.91 c 0.228,0 0.45602002,0 0.68502002,0.22 1.59799998,0.46 2.96699998,-0.68 2.96699998,-2.51 0,-0.45 0,-1.37 0.457,-2.28 0.456,-1.83 0.456,-3.65 0,-4.57 -0.457,-0.91 -1.37,-1.37 -3.19599998,-1.37 -0.457,-0.23 -0.91302002,-0.23 -1.37000002,-0.23 0.22798,-0.22 0.45698,-0.45 0.45698,-0.68 0.45602002,-0.23 0.68502002,-0.91 1.14100002,-1.6 0.228,-0.68 0.685,-1.14 1.36999998,-1.6 1.37,-0.68 2.054,-2.51 1.598,-3.65 0,-0.45 -0.228,-0.91 -0.457,-0.91 -0.456,-0.23 -1.82599998,-3.2 -2.05399998,-4.11 0,-0.69 -0.457,-1.6 -0.685,-2.05 -0.68502002,-0.92 -0.68502002,-0.92 -0.228,-0.92 0.456,0 1.369,-0.91 1.59799998,-1.82 0.228,-0.92 -0.22899998,-1.83 -1.36999998,-2.52 -0.68502002,-0.45 -1.14200002,-0.68 -1.14200002,-1.14 -2e-5,-0.23 -2e-5,-0.91 -0.22802,-1.6 -0.457,-1.14 -0.457,-1.14 0.457,-2.51 0.68502002,-1.37 0.68502002,-1.82 0.68502002,-3.88 0,-0.68 0.228,-1.37 0.228,-2.05 H 1.4961777 c 1.598,0 2.511,0 3.425,0.45 0.913,0.23 1.826,0.46 3.4238,0.46 2.0550003,0 2.2830003,-0.23 2.9680003,-0.68 0.913,-0.92 0.913,-2.29 0,-3.2 -0.685,-0.69 -3.1960003,-1.6 -5.4788003,-2.28 -1.37,-0.23 -4.794,-1.83 -4.566,-2.06 0,-0.23 0.228,-0.45 0.456,-0.68 0.457,-0.23 0.914,-0.46 1.142,-0.92 0.456,-0.91 0.228,-2.73 -0.685,-3.65 -0.228,-0.46 -0.685,-0.91 -0.685,-0.91 0,0 0.457,-0.46 0.913,-0.91 3.653,-2.97 4.794,-4.8 4.794,-6.4 0.229,-1.14 0,-1.82 -1.369,-3.19 -2.283,-2.51 -2.74,-2.97 -2.968,-3.66 -0.457,-0.45 -0.913,-0.91 -1.142,-0.91 -0.456,0 -0.684,-0.46 -1.14099998,-1.37 -0.457,-0.91 -0.457,-1.14 -0.228,-2.05 0,-0.69 0.228,-2.74 0,-4.57 0,-2.74 0,-3.42 -0.457,-4.11 -0.228,-0.23 -0.228,-0.46 -0.456,-0.46 H 1.4961777 c 3.653,0 4.338,-0.91 4.338,-5.25 0.228,-2.73 -0.229,-4.33 -1.37,-5.47 -0.685,-0.69 -0.913,-0.92 -1.826,-0.69 h -1.142 v -1.6 c -0.228,-1.14 0,-1.6 0.457,-2.51 0.913,-1.82 1.369,-3.65 1.141,-8.45 v -4.11 c -0.228,-0.68 -0.685,-1.14 -0.913,-1.82 -0.685,-1.6 -0.913,-2.06 -0.913,-3.65 0,-1.15 0,-2.29 -0.45699998,-3.43 -0.228,-0.68 -0.456,-1.14 -0.685,-1.82 0.229,-0.46 0.457,-0.69 0.685,-1.15 0.45699998,-0.68 0.68499998,-1.14 0.68499998,-1.14 0,0 0.457,0.23 0.913,0.46 2.055,1.83 4.794,-1.14 2.968,-3.2 -0.228,-0.23 -0.685,-1.14 -0.913,-1.82 -0.457,-0.69 -0.913,-1.15 -1.37,-1.37 -0.685,-0.46 -0.913,-0.69 -0.913,-1.37 -0.457,-1.83 -0.228,-2.74 0.457,-3.43 0.456,-0.68 0.684,-0.91 0.456,-1.6 -0.228,-1.14 -1.141,-2.05 -2.054,-1.82 -0.45699998,0 -0.45699998,-0.23 -0.45699998,-0.69 0,-0.68 0,-0.68 0.45699998,-0.68 0.684,0 2.054,-1.37 2.054,-2.06 0,-0.91 -0.685,-1.82 -1.598,-2.28 -0.68499998,-0.45 -1.14099998,-0.91 -1.14099998,-1.14 -0.457,-0.69 -0.229,-0.91 0.456,-2.05 1.14199998,-1.83 1.82699998,-2.52 2.51099998,-2.74 0.457,0 0.914,0 1.37,-0.23 0.913,-0.92 1.37,-3.66 0.457,-4.11 -0.228,0 -0.228,-0.69 -0.228,-1.6 0,-1.6 0,-1.6 -0.914,-2.97 -0.456,-0.68 -1.598,-1.82 -2.283,-2.74 -1.82599998,-2.05 -1.82599998,-2.74 -0.228,-3.42 2.055,-0.69 2.74,-1.14 2.968,-1.83 0.457,-0.91 0.457,-1.37 -0.457,-2.97 -0.228,-0.68 -0.685,-1.82 -0.913,-2.28 -0.228,-0.68 -0.456,-1.14 -0.913,-1.37 -0.685,-0.46 -0.685,-0.68 -0.913,-2.05 0,-0.92 -0.228,-1.83 -0.45699998,-2.29 -0.228,-0.91 0,-1.37 1.36999998,-3.19 1.598,-2.06 1.598,-2.74 0.457,-4.11 -0.914,-0.69 -0.914,-0.69 -2.51199998,-0.69 -0.913,0 -1.82600002,-0.23 -1.82600002,-0.23 -2e-5,0 0.68498,-0.91 1.37000002,-1.59 0.685,-0.92 1.36999998,-1.83 1.82599998,-2.29 0.457,-0.91 0.685,-0.91 1.37,-0.91 1.598,0 2.055,-0.45 2.968,-2.28 1.369,-2.74 1.141,-4.34 -0.685,-5.25 -0.685,-0.46 -0.913,-0.69 -0.913,-0.92 -0.229,-0.91 -0.685,-2.05 -1.37,-2.74 -0.457,-0.22 -0.913,-0.45 -1.598,-0.22 H 0.58317772 c -0.228,-0.69 -0.228,-1.14 -0.228,-1.83 0,-0.91 0.228,-2.51 0.456,-3.65 0.45699998,-0.92 0.45699998,-2.06 0.45699998,-2.51 0,-0.46 0.228,-0.46 0.685,-0.46 1.141,0 1.826,-1.14 2.511,-3.2 0.685,-2.05 0.685,-2.28 0.228,-2.96 -0.228,-0.92 -0.228,-0.92 0.229,-0.46 0.684,0.23 2.282,0 2.967,-0.69 0.9128,-0.91 0.6848,-2.05 -0.685,-4.1 -0.684,-0.92 -1.141,-1.83 -1.141,-2.06 0,-0.23 -0.228,-0.68 -0.457,-1.37 -0.684,-1.37 -2.054,-2.28 -3.881,-2.28 -0.456,-0.23 -1.14099998,-0.23 -1.59799998,-0.23 0.229,-0.23 0.457,-0.46 0.685,-0.68 0.45699998,-0.69 0.45699998,-0.92 0.45699998,-2.97 0,-2.06 0,-2.51 -0.45699998,-3.2 -0.228,-0.23 -0.456,-0.46 -0.685,-0.68 0.229,-0.23 0.457,-0.69 0.685,-0.92 0.45699998,-0.91 0.45699998,-1.37 0.45699998,-5.02 v -3.88 c -0.228,-0.23 -0.68499998,-0.46 -0.91299998,-0.91 -0.685,-0.46 -0.913,-0.69 -0.913,-0.69 0.456,0 2.51099998,-2.05 2.96699998,-2.97 0.913,-1.59 0.913,-2.96 -0.228,-4.56 -0.685,-1.6 -0.913,-1.6 -0.685,-3.2 0,-0.91 0.228,-2.05 0.457,-2.51 0.228,-0.68 0.228,-1.6 0.228,-3.42 0,-2.06 0.228,-2.51 0.685,-2.97 0.456,-0.92 0.456,-1.83 -0.228,-3.2 -0.457,-0.91 -0.457,-6.62 0,-7.53 0.456,-0.91 0.684,-3.2 0,-4.11 -0.229,-0.46 -0.229,-0.46 0.228,-1.14 0.685,-1.83 0.456,-3.43 -1.37,-5.25 -1.36999998,-1.37 -1.36999998,-2.06 -0.228,-3.2 0.456,-0.45 1.37,-1.14 2.054,-1.37 1.37,-0.46 1.827,-1.14 1.827,-3.42 0,-1.37 -0.228,-1.6 -0.913,-2.29 -0.457,-0.68 -0.914,-0.91 -1.827,-0.91 -0.456,0 -0.685,0 -1.141,-0.23 v -2.97 c 0.228,-2.28 0,-3.19 -0.228,-4.56 -0.45699998,-1.37 -0.45699998,-1.6 0,-2.51 0.228,-0.46 0.456,-1.37 0.456,-1.83 0,-0.68 0,-1.37 0.228,-1.82 0.457,-0.46 0.457,-1.15 0.457,-1.38 0.228,-1.14 1.141,-2.73 2.055,-3.42 0.685,-0.68 1.598,-2.28 1.826,-2.97 0,-0.68 -0.685,-1.37 -1.826,-2.51 -1.598,-1.6 -3.196,-3.65 -2.968,-3.65 0.228,0.23 1.598,0.91 2.511,1.6 1.142,1.14 1.598,1.14 3.424,1.14 1.5978,0.23 2.2828,-0.23 2.7398,-1.14 0.6850003,-1.6 0.2280003,-2.74 -1.826,-4.11 -0.6848,-0.23 -1.8268,-1.14 -2.5118,-1.6 -2.283,-2.06 -4.337,-3.2 -5.24999998,-3.42 -0.229,0 -0.685,-0.23 -0.913,-0.23 0.228,0 0.684,-0.23 0.913,-0.23 1.59799998,-0.23 2.51099998,-2.28 1.59799998,-3.65 -0.685,-0.69 -0.685,-2.74 -0.229,-2.97 0.229,0 0.914,-0.23 1.827,-0.69 0.685,-0.45 1.826,-0.91 2.283,-0.91 0.913,-0.23 2.054,-1.14 2.054,-2.05 -0.228,-0.92 -0.685,-1.83 -1.369,-2.06 -0.229,-0.23 -0.457,-0.23 -0.685,-0.45 0.228,-0.23 0.456,-0.46 0.685,-0.69 1.5978,-1.6 0.456,-3.88 -1.827,-3.65 -0.685,0 -0.685,-0.23 -0.685,-0.69 0.229,-0.45 0,-1.14 -0.228,-1.6 -0.457,-0.45 -0.457,-0.91 -0.228,-1.14 0.228,-0.45 0,-1.37 -0.229,-2.05 -0.228,-0.23 0,-0.23 2.74,-0.23 3.1958,0 3.8808,-0.23 4.1088003,-1.6 0.457,-1.37 -0.6850003,-2.74 -2.5108003,-2.74 -0.457,0 -0.913,-0.45 -1.598,-0.91 -0.457,-0.69 -1.37,-1.14 -1.826,-1.37 -0.457,-0.23 -0.685,-0.23 -0.914,-0.46 v -2.05 -1.83 c 0.229,-0.23 0.457,-0.23 0.685,-0.23 0.914,0 3.196,-1.14 3.425,-2.05 0.456,-0.69 0.456,-2.74 -0.229,-3.88 -0.228,-0.91 -0.228,-1.14 0,-1.6 0.457,-0.46 0.685,-2.05 0.457,-3.2 -0.228,-0.45 -0.228,-0.91 0,-1.59 0,-0.23 0.228,-0.69 0.228,-0.92 0.6848,0 1.3698,0 1.8268,-0.23 1.3690003,0 2.0540003,-0.22 2.5110003,-0.45 1.37,-0.92 1.141,-2.74 0,-3.43 -0.685,-0.45 -1.142,-0.45 -3.8810003,-0.45 -2.9678,0 -3.4238,0 -4.3378,0.68 -0.685,0.23 -0.913,0.69 -1.141,1.37 -0.228,0.69 -0.685,1.14 -1.37,1.6 -0.456,0.23 -0.91299998,0.46 -0.68499998,0.46 0,0 0,-0.46 0.22899998,-0.92 0.228,-0.68 0.228,-2.05 0.228,-7.07 v -6.17 c 0.456,0 0.685,-0.23 0.913,-0.23 0.913,-0.22 2.055,-1.37 2.055,-2.05 -0.229,-0.23 -0.229,-0.91 -0.457,-1.37 -0.457,-0.46 -0.685,-1.37 -0.685,-2.06 0,-0.45 -0.456,-1.59 -0.685,-2.28 -1.59799998,-2.74 -1.82599998,-3.42 -2.51099998,-5.48 -0.228,-0.45 -0.456,-1.14 -0.685,-1.82 0.229,-0.23 0.457,-0.46 0.457,-0.69 0.456,-0.68 0.685,-0.91 0.456,-2.28 v -1.37 c 0.457,-0.23 0.685,-0.46 1.14199998,-0.69 1.141,-0.68 1.141,-0.68 5.251,-0.68 4.1088003,-0.23 4.1088003,-0.23 4.7938003,-0.69 0.684,-0.91 0.913,-1.82 0.913,-4.33 0,-1.82999 0,-2.28999 -0.457,-2.73999 -0.913,-1.37 -2.9680003,-1.6 -6.8478003,-0.92 -1.142,0.46 -2.283,0.46 -2.74,0.46 -0.457,0 -0.685,-0.23 -0.228,-0.46 0.228,-0.22 0.913,-1.820005 1.141,-2.730005 0,-0.69 0.228,-1.38 0.457,-1.83 0.228,-0.23 0.456,-1.371 0.456,-2.056 0.229,-2.055 -0.228,-2.968 -1.826,-3.425 -0.457,-0.228 -0.685,-0.456 -0.685,-0.684998 0,-0.228 0,-0.913 0.457,-1.826 0.228,-0.913 0.228,-1.826 0.228,-2.055 0,-0.456 0.228,-0.684 0.685,-0.684 0.685,-0.457 1.37,-1.142 1.37,-2.055 0,-0.685 -0.685,-1.826 -0.914,-2.055 -0.228,0 -0.684,-0.228 -1.141,-0.685 -0.228,-0.228 -0.457,-0.684 -0.913,-0.913 0.456,-0.228 0.685,-0.456 0.913,-0.913 0.228,-0.228 0.685,-0.456 0.913,-0.913 v -3.424 c 0.228,-2.968 0.228,-3.653 0.457,-4.11 0.456,-0.228 0.456,-0.913 0.456,-4.337 v -4.109 c -0.228,-0.229 -0.685,-0.457 -0.913,-0.685 -0.456,-0.457 -0.913,-0.685 -1.141,-0.685 -0.229,0 -0.457,-0.685 -0.913,-1.142 -0.22899998,-0.913 -0.22899998,-1.141 0,-2.283 0.228,-0.684 0.456,-1.598 0.684,-1.826 0.229,-0.913005 0.685,-2.283005 1.37,-6.164005 0.228,-1.598 0,-2.283 -1.141,-3.424 -0.457,-0.457 -0.685,-0.913 -0.685,-1.142 0,0 0.456,-0.228 0.913,-0.456 1.37,-0.457 1.826,-1.37 1.826,-3.196 0,-2.74 -0.685,-4.11 -2.739,-5.251 -0.91299998,-0.457 -1.14199998,-0.457 -1.14199998,-0.913 0.457,-3.196 0.457,-4.566 0,-5.936 -0.228,-0.913 -0.456,-2.511 -0.684,-3.881 v -2.283 c 0.228,-0.228 0.684,-0.456 1.141,-0.456 0.68499998,-0.229 1.36999998,-0.685 1.82599998,-1.37 0.229,-0.228 0.457,-0.457 0.685,-0.913 v -5.251 -6.1639999 c -0.228,-0.4560001 -0.228,-0.6850001 0.457,-1.3700001 0.456,-0.456 0.913,-1.1410001 1.37,-1.5980001 0.228,-0.456 0.913,-1.141 1.369,-1.369 0.457,-0.2290001 0.913,-0.6850001 1.142,-1.1420001 0.228,-0.456 0.456,-0.456 0.9128,-0.456 0.456,0 0.913,-0.457 1.37,-0.6850001 1.3690003,-0.913 1.8260003,-0.913 2.0540003,-0.457 0.228,0.6850001 1.142,1.5980001 2.055,1.5980001 1.141,0 1.826,-0.685 2.739,-2.51100011 0.457,-0.9130002 0.914,-1.5980002 0.914,-1.5980002 0.228,0 0.456,0.228 0.913,0.457 0.456,0.684 0.685,0.9130002 0.685,1.82600021 0,1.3700001 0.228,2.0540001 1.141,2.5110001 0.685,0.4570001 1.141,0.4570001 1.826,0 0.913,-0.457 1.37,-1.141 1.37,-3.65300031 V -1.6723885 h 0.457 c 0.456,0 0.685,0 0.913,0.456 0.228,0.91399999 1.598,1.82700019 2.511,2.05500019 0.228,0 0.457,0.22800001 0.913,0.22800001 v 1.3700001 c 0,1.37 0,1.598 0.457,2.2830001 0.913,0.913 2.283,0.913 3.196,0 0.456,-0.6850001 0.685,-0.9130001 0.685,-3.6530002 v -1.82600021 c 0.456,2.05500021 2.283,2.96800021 3.881,1.5980002 0.228,-0.4570002 0.685,-0.9130002 0.685,-1.1410002 0,-0.457 0,-0.457 0.456,-0.457 0.229,0 0.913,-0.228 1.37,-0.68499999 0.685,-0.228 1.141,-0.456 3.881,-0.228 3.196,0 3.424,0 4.794,0.68499999 0.457,0.228 0.913,0.456 1.598,0.685 -0.228,0.228 -0.228,0.684 0,0.9130002 0,1.37000001 0.457,2.28300011 1.141,2.51100011 1.142,0.456 1.827,0.228 3.425,-0.9130001 2.055,-1.59800001 3.196,-2.28300021 5.707,-2.28300021 1.598,0 2.055,0.228 2.511,0.456 0.229,0.2290002 0.685,0.4570002 1.37,0.4570002 0.457,0.22800001 1.142,0.45700001 1.598,0.68500001 0.685,0.685 2.055,1.3700001 2.968,1.1410001 0.685,-0.228 1.598,-1.1410001 1.826,-2.05400011 0.229,-0.9130002 0.229,-0.9130002 0.914,0 0.684,1.14100001 1.369,1.37000001 3.424,1.14100001 1.37,0 1.826,-0.228 3.424,-0.91300001 1.142,-0.4570002 1.827,-0.9130002 1.827,-1.1410002 0.228,-0.685 0.456,-0.685 0.913,0.228 0.228,0.6850002 1.141,1.59800021 1.826002,1.59800021 0.913,0 3.196,-0.91300001 3.653,-1.59800021 0.228,-0.228 0.456,-0.685 0.456,-0.913 -0.228,-0.45699999 0.229,-0.68499999 1.142,-0.22899999 0.456,0.22899999 1.598,0.45699999 2.511,0.45699999 1.142,0 1.598,0 2.055,0.457 0.456,0.228 0.913,0.456 2.739,0.456 h 2.055 V 2.2086117 c 0,2.5110002 0.228,3.1960002 1.140998,3.6520002 0.685,0.457 1.145,0.457 1.825,0 0.920002,-0.456 1.370002,-1.141 1.370002,-2.9670001 0,-1.3700001 0.23,-1.8270001 1.6,-3.42500031 0.46,-0.456 0.91,-1.36899999 0.91,-1.59799999 0.23,-0.685 0.46,-0.685 0.92,0 0.45,0.457 0.91,0.913 1.59,1.14199999 0.46,0 1.37,0.456 2.29,0.685 0.68,0.228 1.82,0.456 2.74,0.9130002 0.68,0 1.14,0.228 1.59,0.45600001 0.46,-0.22800001 0.69,-0.45600001 1.15,-0.45600001 0.91,-0.6850002 1.59,-0.4570002 2.28,0.68500001 0.68,1.1410001 2.28,1.3690001 3.2,0.456 0.45,-0.456 0.68,-0.685 0.68,-1.59800021 0.23,-0.456 0.23,-0.685 0.23,-1.141 h 1.82 c 2.06,0.228 3.43,-0.22899999 3.89,-1.14199999 0.22,-0.456 0.45,-0.685 0.45,-0.685 0,-0.228 0.46,0 1.14,0 0.23,0 0.69,0 0.92,0.229 0,0.913 0.23,1.82599999 0.23,2.96699999 0,2.51200031 0,2.96800031 0.45,3.42500031 0.91,0.9130001 2.51,0.9130001 3.65,-0.229 0.23,-0.456 0.92,-0.913 1.6,-1.141 1.37,-0.6850001 2.06,-1.3700001 2.06,-2.51100031 0,-0.457 0,-1.14199999 -0.23,-1.36999999 -0.23,-0.228 0,-0.456 0.91,-0.456 0.92,0 1.14,0.228 1.37,0.456 0,0.228 0,1.36999999 0.23,2.7400002 0,2.7390001 0.23,3.4240002 1.14,3.8810002 0.69,0.456 1.14,0.456 1.83,0 0.91,-0.457 1.37,-1.1420001 1.37,-2.7400001 V 1.0666117 c 0.68,0 1.37,-0.22800001 2.05,-0.22800001 2.51,0 3.65,-0.4570002 3.88,-1.1410002 0.23,-0.457 0.23,-0.457 3.2,-0.457 2.74,0 3.2,0 3.65,0.228 0.46,0.685 1.14,2.05500021 1.14,2.74000021 0,0.4560001 0.23,0.9130001 0.46,1.3690001 0.91,0.9140001 2.28,0.9140001 3.2,0 0.22,-0.456 0.68,-0.913 0.68,-1.141 0,-0.2280001 0.23,-0.9130001 0.69,-1.82600011 0.45,-0.6850002 0.91,-1.82700019 0.91,-2.28300019 0,-0.457 0.23,-0.685 0.23,-0.913 h 0.91 c 0.91,0 1.14,0 1.6,0.456 0.68,0.685 1.6,0.913 2.51,0.685 0.46,-0.228 1.37,-0.228 2.05,-0.228 1.15,0 1.37,0 2.06,0.68499999 0.68,0.456 0.91,0.685 1.83,0.456 0.45,0 1.59,-0.228 2.73,-0.228 0.92,-0.228 2.06,-0.45699999 2.52,-0.68499999 0.45,-0.228 1.59,-0.456 2.28,-0.456 1.6,-0.229 2.51,0.228 3.88,1.59799999 1.14,0.9130002 2.05,1.36900021 3.42,1.82600021 0.69,0.228 1.83,0.9130001 2.52,1.1410001 1.37,0.913 3.19,1.142 4.1,0.685 0.69,-0.228 1.15,-1.5980001 1.15,-2.51100011 0,-0.6850002 0.22,-0.9130002 0.91,-1.1410002 1.14,-0.685 1.83,-0.685 2.97,0.456 1.82,1.14200021 3.19,0.91300021 4.11,-0.913 0.22,-0.228 0.45,-0.45699999 0.45,-0.68499999 0,0.45699999 0.23,0.68499999 0.23,0.91299999 0.23,1.1420002 0.46,1.59800021 1.37,2.05500021 0.91,0.457 1.6,0.228 2.74,-0.68500001 0.23,-0.228 0.46,-0.4570002 0.69,-0.9130002 h 2.28 c 2.74,0.228 2.97,0.228 5.48,2.05500021 1.37,1.1410001 1.82,2.0540001 2.05,2.9670002 0,0.229 0,0.685 0.23,1.142 0.91,1.3690001 2.97,1.3690001 3.65,0 0.23,-0.685 0.46,-1.37 0.46,-3.4250001 V 0.15361149 h 1.83 c 2.51,0 3.19,-0.228 3.65,-1.141 0.46,-0.68499999 0.46,-0.68499999 1.6,-0.68499999 1.14,0 1.14,0 1.59,0.456 0.92,1.36999999 3.43,1.59799999 4.8,0.68499999 0.23,-0.228 0.91,-0.456 1.83,-0.456 0.45,0 0.91,0 1.36,0.228 v 0.913 c 0,0.91300021 0,1.37000021 0.46,1.82700021 0.46,0.6840001 0.69,0.6840001 2.06,0.6840001 1.14,0 1.59,0 2.51,-0.6840001 0.45,-0.457 1.14,-1.14200001 1.6,-1.82700021 0.22,-0.685 0.91,-1.36999999 1.14,-1.82599999 0.45,-0.228 0.91,-0.685 0.91,-0.913 0,-0.229 0.46,-0.229 2.05,-0.229 1.83,0.229 2.06,0.229 2.97,-0.456 0.92,-0.685 1.83,-0.685 2.06,0.228 0.91,2.28299999 2.96,4.1090002 5.02,5.2510002 1.14,0.6850001 1.6,0.6850001 2.28,0.2280001 1.14,-0.4560001 1.37,-1.1410001 1.37,-4.1090003 v -2.283 c 0,0 0.23,0 0.46,0 0.46,0 0.68,0 0.68,0.457 0,0.456 0.23,1.141 0.46,1.598 0.91,0.91299999 2.28,0.91299999 3.2,0 0.22,-0.457 0.68,-1.142 0.68,-1.598 v -0.457 c 0.69,0 1.37,0 2.06,0 2.28,0 2.51,0 3.19,0.457 0.91,0.684 0.91,0.684 5.71,0.913 h 4.79 c 0,0.228 0.23,0.456 0.23,0.913 0.46,0.68499999 1.6,1.36999999 4.11,2.05399999 1.14,0.4570002 2.06,0.68500021 4.11,0.68500021 1.83,0 2.97,0 3.42,0.229 0.46,0.228 1.37,0.228 2.29,0.228 1.14,0 1.37,0 1.82,-0.68500001 0.23,-0.228 0.69,-0.9130002 0.69,-1.1410002 0,-0.91399999 0.23,-1.14199999 0.91,-0.91399999 0.23,0.22899999 1.37,0.22899999 2.06,0.22899999 1.37,0 1.59,0 2.28,-0.45699999 0.46,-0.456 0.68,-0.913 0.68,-1.37 v -0.684 h 1.83 2.05 v 1.598 c 0,1.36899999 0,1.82599999 0.69,2.73900019 0.23,0.68500001 0.46,1.14200001 0.68,1.37000001 0,0.2280001 -0.45,0.6850001 -0.68,1.3690001 -0.46,0.685 -0.69,1.5990001 -0.69,2.5120001 -0.22,1.5980001 -0.22,1.5980001 0.46,2.2830001 1.37,1.5980001 4.11,0.6850001 4.8,-1.37 0.22,-0.9130001 1.59,-2.9680002 2.51,-3.6530002 0.23,-0.228 0.91,-0.685 1.59,-0.913 1.83,-0.4560001 2.97,-1.59800011 2.97,-3.19600031 -0.23,-0.68499999 0,-0.91299999 0.46,-1.14099999 0.68,-0.457 1.6,0 1.83,1.14099999 0.22,1.141 1.14,2.74000021 1.82,3.19600031 0.23,0.228 0.92,0.457 1.37,0.457 1.83,0 2.74,-1.1420001 2.97,-2.74000031 0,-0.685 0,-0.913 0.23,-0.685 1.82,0.685 2.74,0.685 4.79,-0.68499999 0.46,-0.228 1.14,-0.456 2.51,-0.684 1.83,0 2.06,0 2.51,-0.685 0.23,-0.229 0.69,-0.913 0.69,-1.142 0,-0.228 0,-0.228 1.37,-0.228 0.68,0 1.14,0 1.6,0 0,0.457 0,1.141 0.23,1.598 0,1.59799999 0,1.82599999 0.68,2.28299999 0.91,0.9130002 2.05,0.6850002 2.97,0 0.23,-0.457 0.68,-0.913 0.68,-1.36999999 0,-0.913 0.23,-1.141 1.14,-1.141 0.69,0 0.92,0 1.37,0.685 0.92,0.91299999 1.83,0.91299999 3.66,-0.229 0.68,-0.456 1.37,-0.685 1.37,-0.685 0.22,0.914 1.59,2.28299999 2.51,2.96799999 0.68,0.4570002 1.6,0.6850002 2.74,0.6850002 0.45,-0.228 1.6,-1.3700002 1.82,-1.8260002 0,-0.22899999 0,-0.22899999 0.92,0.228 1.37,0.685 2.51,0.913 3.19,0.457 0.46,-0.229 0.92,-0.457 0.92,-0.91399999 0,-0.228 0.45,-0.913 1.14,-1.369 0.45,-0.685 0.91,-1.142 0.91,-1.37 0,0 0.69,0 1.6,0 1.6,0 1.6,0 2.05,0.457 0.23,0.684 0.46,1.598 0.46,4.10900019 0,2.96700011 0,3.65200011 0.46,4.79400021 0.68,1.8260001 1.37,2.5110001 2.51,2.7390001 1.14,0 1.6,-0.456 2.28,-2.0540001 0,-0.457 0.46,-1.142 0.91,-1.37 1.37,-0.9130001 5.03,-2.0550001 6.62,-1.8260001 2.52,0 3.43,-1.1420001 3.2,-3.42500031 V -1.9003885 c 0.23,0 0.69,1.14099999 1.37,2.28199999 1.37,2.96800031 2.74,3.88100031 4.11,2.51200031 1.14,-0.9130001 1.14,-1.8270001 0.68,-3.42500031 -0.22,-0.68499999 -0.45,-1.36899999 -0.22,-1.36899999 0,0 2.28,-0.914 2.51,-0.914 0,0 0.23,0.457 0.23,0.914 0,1.82599999 1.37,2.9670002 3.19,2.73900019 1.83,-0.228 2.51,-0.9130002 2.74,-2.73900019 0.23,-0.914 0.23,-0.914 1.37,-1.37 1.6,-0.457 1.83,-0.457 1.83,0 0,1.37 0.91,2.51099999 2.28,2.51099999 0.46,-0.228 0.91,0.228 1.6,0.685 0.91,0.9130002 1.37,0.9130002 2.97,0.456 0.45,-0.228 0.91,-0.684 1.37,-1.369 0.22,-0.68499999 0.45,-0.91299999 1.14,-0.91299999 0.45,0 1.37,0 1.82,-0.229 0.46,0 1.14,-0.228 1.6,-0.228 0.46,-0.228 3.2,0.685 3.65,1.141 0.46,0.22899999 2.29,0.22899999 2.97,-0.228 0.23,0 0.69,-0.456 1.14,-0.685 0.23,-0.228 0.23,-0.456 0.46,-0.685 0.23,0.229 0.23,0.457 0.23,0.457 0.23,0.685 1.37,1.36999999 2.05,1.36999999 0,0 0.46,0.456 0.69,0.685 0.45,0.9130002 1.37,1.36900021 3.19,1.1410002 1.6,0 3.43,-0.9130002 4.34,-1.8260002 0.46,-0.45699999 2.51,-1.59799999 2.97,-1.59799999 0,0 0.23,0.228 0.23,0.685 0,0.684 0.45,1.36899999 0.91,1.82599999 1.14,0.9130002 1.83,1.14100021 2.74,0.6850002 0.91,-0.4570002 0.91,-0.4570002 1.37,-1.82700019 0,-0.456 0.23,-0.684 0.23,-1.141 v 1.59799999 c 0.23,2.96800021 1.14,4.56600031 3.19,4.56600031 1.37,0 2.29,-1.142 2.29,-2.5110001 0,-1.14200021 0.23,-1.37000021 2.74,-2.7400002 0.68,-0.228 1.82,-0.913 2.51,-1.37 0.68,-0.456 1.37,-0.684 1.6,-0.684 0,0 0.68,0.228 1.14,0.913 0.91,0.913 2.51,1.82599999 3.88,1.82599999 0.45,0 0.68,-0.228 1.14,-0.228 -0.23,0.456 -0.46,0.685 -0.46,0.913 -0.23,0.456 -0.45,1.14100021 -0.45,1.82600021 0,0.6850001 0.22,1.1420001 0.68,1.8260001 0.91,1.1420001 2.74,2.5120001 3.65,2.7400001 0.23,0 0.46,0 0.69,0.2280001 -0.23,0.457 -0.46,0.913 -0.69,1.37 -0.68,1.1420001 -0.68,1.5980001 -0.68,3.424 -0.23,1.37 0,2.283 0.23,2.968 0.23,0.685 0.45,2.283 0.68,3.881 0,1.598 0,2.968 0.23,3.425 0,0.456 0,0.456 -1.14,0.684 -2.74,0.229 -4.34,2.055 -3.2,3.653 0.46,0.685 2.06,1.37 2.74,1.37 0.46,0 0.46,0.228 -0.23,0.913 -1.37,1.142 -0.91,2.74 0.92,3.881 2.05,1.141 1.82,1.826 -0.46,2.511 -1.83,0.685 -2.51,1.37 -2.51,2.511 0,0.685 0,0.914 0.46,1.598 0.68,0.457 0.91,0.685 2.96,0.685 3.2,0 3.2,-0.228 3.2,1.827 0,1.826 -0.46,2.739 -1.6,2.968 -2.28,0.913 -1.82,4.565 0.69,4.794 0.23,0 0.45,0.228 0.91,0.228 v 1.598 1.598 h -0.91 c -1.14,0 -2.06,0.913 -2.06,1.826 0,1.598005 0.92,3.196005 2.29,3.881005 0.45,0 0.68,0.229 0.68,1.37 0,1.142 -0.23,1.142 -0.91,1.598 -0.46,0.228 -1.6,0.685 -2.29,1.142 -1.14,0.684 -1.59,1.369 -1.59,2.282 0,0.685 0.91,1.827 2.51,2.968 0.45,0.229 0.91,0.457 1.6,0.913 -0.23,0.229 -0.46,0.457 -0.69,0.457 -0.91,1.141 -0.91,3.196 0.23,4.566 0.23,0.456 0.46,0.685 0.91,1.141 -0.23,0.229 -0.23,0.457 -0.45,0.685 -0.23,0.457 -0.46,1.598 -0.46,2.283 0,0.457 -0.23,0.913 -0.23,1.37 -0.46,0.228 -0.91,0.456 -1.37,0.685 -1.37,0.685 -1.6,0.913 -3.88,0.913 -2.97,0 -4.11,0.228 -4.79,0.913 -0.92,1.142 -0.46,2.74 0.91,3.196 0.23,0.228 1.83,0.457 3.19,0.457 h 2.52 v 1.826 c 0,1.598 0,2.055 0.45,2.511 0.23,0.457 0.92,0.913 1.14,0.913 0.23,0 0.46,0 0.69,0.228998 0,0.228 -0.23,0.685 -0.23,0.913 -0.23,0.685 -0.23,1.37 -0.23,1.598 0,0.228 -0.45,0.685 -0.91,0.913 -0.23,0.457 -0.91,1.142 -1.37,2.055 -0.46,1.138 -0.69,1.598 -0.46,2.738 0,0.91 0.23,1.830005 0.46,2.060005 0.23,0.68 0.23,0.91 -0.23,1.82 -0.23,0.69 -0.23,1.59999 -0.23,1.82999 0,0.46 -0.45,0.91 -0.91,1.6 -0.46,0.45 -0.91,1.14 -0.91,1.37 -0.23,0.68 -0.23,0.68 -1.14,0.91 -1.37,0.46 -3.43,1.6 -3.89,2.28 -0.91,1.14 -0.45,2.74 0.69,3.2 0.91,0.46 3.2,0.23 4.34,-0.23 0.68,-0.46 0.91,-0.46 0.91,0.23 0,0.46 -0.23,0.91 -0.69,0.91 -0.22,0 -0.45,0.46 -0.68,0.91 -0.68,1.15 -0.46,1.6 0.91,2.97 1.14,1.37 1.37,1.6 1.37,2.51 0,0.46 0,1.37 0.23,1.6 0.23,0.69 1.14,1.37 2.06,1.14 0.91,0 1.37,1.14 1.37,4.8 v 3.19 h -0.69 c -2.28,0 -2.74,2.97 -1.14,4.8 0.46,0.45 0.91,0.68 0.91,0.68 0,0.46 -2.74,2.29 -3.65,2.51 -1.37,0.46 -1.83,1.14 -1.83,2.29 0,1.59 1.6,2.74 4.57,2.74 0.46,0.22 1.14,0.22 1.6,0.22 0,1.6 0,3.43 0.23,5.03 0,3.65 0,5.25 0.22,5.48 0.46,0.45 0.23,0.68 -0.68,2.51 -0.46,1.14 -1.37,2.51 -1.83,3.19 -1.37,1.83 -1.82,4.8 -1.14,6.62 0.23,0.46 0.69,1.14 0.91,1.14 0.46,0.23 0.46,0.69 0.69,4.34 0,2.97 0.23,4.34 0.46,5.02 0,0.23 0.22,0.69 0.22,0.92 -0.22,0.23 -0.45,0.68 -0.91,0.91 -0.91,1.14 -0.91,1.6 -0.46,3.2 0.23,1.14 0.92,1.82 2.29,1.82 h 1.37 c 0,0.46 -1.14,1.37 -2.51,2.06 -2.06,1.14 -3.43,2.28 -3.89,2.97 -0.68,1.37 0.23,2.96 1.83,3.19 0.23,0 1.14,-0.23 1.83,-0.45 0.68,-0.46 1.6,-0.46 1.82,-0.46 h 0.69 v 4.56 4.57 c -0.46,0.23 -0.69,0.46 -0.91,0.46 -0.46,0.23 -1.6,0.45 -2.97,0.45 -2.06,0.23 -2.29,0.23 -2.97,0.92 -0.68,0.91 -0.68,0.91 -0.46,3.19 0,1.83 0.23,2.51 0.46,3.43 0.23,0.45 0.46,0.91 0.68,1.37 -0.45,0.23 -0.68,0.45 -0.91,0.91 -1.14,1.14 -1.37,2.06 -1.14,3.2 0.23,0.68 0.23,0.68 -0.68,1.82 -1.15,1.14 -1.15,1.6 -1.15,4.11 0,4.57 2.06,7.99 6.17,10.05 0.91,0.45 1.82,0.91 2.28,0.91 0.91,0.23 0.91,0.23 0.69,1.14 -0.23,1.37 -2.06,2.97 -4.11,3.88 -1.15,0.46 -1.83,0.92 -2.51,1.83 -0.46,0.68 -0.46,1.14 -0.46,2.05 0,1.37 0.23,2.06 1.82,2.97 1.15,0.69 1.37,0.91 1.15,1.37 -0.46,1.83 -0.69,2.28 -0.23,3.2 0.45,0.91 1.37,1.59 2.28,1.82 1.6,0.46 1.6,0.69 0,1.6 -1.37,0.91 -4.56,3.88 -5.02,4.8 -0.23,0.91 0,1.59 0.91,2.28 0.46,0.45 0.91,0.68 2.51,0.68 1.37,0 2.06,0 1.83,0.23 0,0 0,0.92 0.23,1.6 0.23,1.83 0.68,2.51 2.28,3.2 0.46,0.22 0.91,0.45 1.37,0.68 0,1.37 -0.23,2.74 -0.23,4.11 v 3.88 c -0.23,0.46 -0.68,0.69 -0.91,1.14 -0.69,0.69 -1.6,1.37 -2.28,1.83 -0.46,0.23 -0.92,0.68 -0.92,0.91 0,0 -0.68,0.69 -1.37,1.6 -1.6,1.6 -1.82,2.51 -1.82,4.11 0,1.6 0.22,2.51 1.14,2.74 0.91,0.46 1.14,0.46 2.05,0 0.46,-0.23 1.37,-0.69 1.83,-0.69 0.46,0 1.14,-0.22 1.37,-0.22 0.68,-0.23 0.46,0.45 -0.46,0.91 -1.37,0.91 -1.6,1.82 -1.37,5.48 v 4.34 1.14 c -0.45,-0.23 -0.68,-0.23 -0.91,-0.23 -1.14,-0.23 -2.28,0.23 -2.97,0.91 -0.91,0.92 -0.91,1.37 0,3.2 0.69,1.37 0.91,1.82 1.83,2.28 0.23,0.23 0.68,0.46 0.91,0.68 0,0.69 0.23,1.15 0.23,1.83 0,1.14 0,2.29 0.23,2.51 0.23,0.23 0,0.46 -0.69,0.46 -1.14,-0.23 -2.28,0.91 -2.28,2.05 0,0.92 0.68,1.83 1.83,2.06 0.91,0.23 1.14,1.37 0,2.74 -1.37,2.05 -1.37,3.65 0,4.79 0.45,0.46 0.91,1.14 1.14,1.6 0.45,0.91 0.68,0.91 0.23,1.6 -0.46,0.91 -0.46,2.05 0,2.97 0.68,0.91 0.45,2.05 -0.92,4.56 -1.37,2.97 -2.05,4.8 -2.28,6.62 -0.23,1.14 0,1.37 0.46,2.06 0.22,0.23 0.68,0.68 0.91,0.68 0.46,0.23 0.46,0.46 0.46,2.06 -0.23,1.82 -0.23,1.82 -1.15,2.74 -1.37,1.14 -1.82,2.05 -1.59,3.19 0.22,1.83 1.59,2.74 4.11,2.74 0.45,0.23 0.68,0.23 0.45,0.69 v 0.91 c 0,0.23 -0.68,1.14 -1.14,1.83 -1.6,1.59 -1.6,1.82 -1.6,3.19 0,1.37 0.69,2.97 1.6,3.66 0.46,0.45 0.91,0.68 0.91,0.91 0,0.23 -2.05,3.42 -3.42,5.02 -1.37,1.83 -3.42,5.94 -3.65,7.53 -0.23,0.92 0,1.15 0.45,1.83 0.69,0.91 1.6,1.14 2.51,0.69 0.46,-0.23 0.92,-0.46 0.92,-0.69 0,-0.46 0.23,0 0.68,0.91 0.69,0.92 0.69,1.14 0.23,1.83 -0.23,0.46 -0.23,2.05 -0.23,7.53 -0.23,6.17 -0.23,7.08 -0.45,7.54 -0.23,0.23 -0.46,0.91 -0.46,1.82 -0.23,1.37 -0.23,1.83 -1.37,3.43 -2.28,3.42 -2.97,4.34 -3.42,5.71 -0.23,0.68 -0.92,1.82 -1.37,2.74 -0.92,1.36 -1.15,1.59 -1.15,2.73 0,1.15 0,1.37 0.69,1.83 0.91,0.91 2.05,0.69 2.97,-0.23 0.68,-0.45 0.91,-0.68 1.6,-0.45 0.68,0.22 0.91,0.45 1.14,1.14 0.22,0.45 0.68,0.91 1.14,1.14 0.45,0.23 1.14,0.68 1.14,0.91 0.23,0.23 0.68,0.46 1.37,0.69 0.23,0 0.46,0 0.68,0.22 0,0.23 -0.22,0.69 -0.45,0.92 -0.69,1.82 0,3.19 2.05,3.42 0.46,0.23 0.69,0.23 1.14,0.23 h -1.14 c -2.28,0.23 -3.42,1.37 -3.19,3.43 0.22,0.68 0.45,1.36 1.14,2.05 0.45,0.69 0.91,1.14 0.91,1.37 0,0.23 0.23,0.46 0.69,0.91 0.22,0.46 0.68,0.69 0.68,0.92 0,0 -0.68,0.22 -1.14,0.45 -2.06,0.69 -2.97,3.43 -1.6,4.57 0.23,0.23 0.91,0.68 1.37,0.68 0.91,0.23 0.91,0.23 0.69,0.92 v 1.37 c 0,0.45 -0.46,0.68 -0.69,0.91 -1.14,0.46 -1.14,1.14 -1.14,4.57 v 3.19 c -0.46,0 -0.91,0.23 -1.14,0.23 -2.74,0.46 -3.43,1.14 -3.43,3.65 0,2.29 1.14,3.2 3.43,3.2 0.45,0.23 1.14,0.23 1.14,0.23 0,0 -0.23,0.45 -0.46,0.68 -0.23,0.46 -0.23,0.92 -0.23,1.14 0,0.46 -0.45,0.92 -1.14,1.6 -2.28,2.06 -2.74,3.88 -2.74,11.42 v 4.56 c -0.45,0.69 -0.68,1.37 -1.14,2.06 -0.91,2.05 -0.91,2.28 -0.68,3.42 0.45,1.37 0.68,1.83 1.82,2.06 0.46,0.22 0.46,0.45 0.69,1.82 0.23,0.69 0.45,1.6 0.45,1.83 0.23,0.45 0,0.45 -0.91,0.68 -1.6,0.23 -2.28,0.69 -2.74,2.06 -0.45,0.91 -0.45,1.14 -0.23,2.05 0.46,1.14 1.37,2.06 2.06,2.06 0.46,0 0.68,0 0.91,0.45 0.46,0.46 0.46,0.69 -0.91,2.29 -0.91,1.59 -1.14,1.82 -0.91,2.51 0.22,0.91 1.14,1.82 2.05,1.82 0.68,0 0.91,0 1.6,0.92 0.23,0.45 0.68,1.14 0.68,1.14 -0.23,0.23 -0.45,0.91 -0.91,1.6 -0.46,0.45 -0.91,1.37 -0.91,1.82 -0.23,0.92 0.22,2.06 0.45,2.29 0.23,0 0.23,0.45 -0.23,0.91 -0.22,0.45 -0.22,1.14 -0.22,2.05 0,0.69 -0.23,1.37 -0.46,1.37 l -0.46,0.92 c -0.22,0.68 -0.45,0.68 -1.59,1.14 -1.6,0.23 -3.89,1.6 -5.26,2.74 -0.91,0.68 -1.14,1.14 -1.14,1.82 0,0.46 0.23,0.92 0.46,1.37 0.46,0.69 2.28,1.6 4.34,1.83 1.82,0.46 4.11,1.14 6.16,2.28 1.83,0.92 2.51,1.6 2.51,2.74 0,0.69 -0.23,0.69 -1.37,0.91 -2.51,0.23 -3.19,1.38 -3.19,5.03 0,2.05 0,2.28 0.45,2.74 0.23,0.45 0.92,0.91 1.37,0.91 0.23,0 0.69,0.23 0.69,0.46 0,0 0.68,0.45 1.14,0.91 0.23,0.23 0.68,0.46 0.91,0.69 v 1.36 c -0.23,1.6 -0.23,1.6 -1.37,2.74 -1.6,1.6 -2.05,3.66 -0.68,4.8 0.68,0.68 0.68,0.91 0.45,1.37 -0.45,0.91 -0.45,2.28 0,2.97 0.23,0.68 1.15,1.37 2.06,1.37 0.23,0 0.46,0 0.46,2.28 0,2.28 -0.23,2.51 -0.69,2.74 -0.68,0.45 -2.51,3.19 -2.97,4.56 0,0.69 -0.45,1.6 -0.68,1.83 0,0.23 -0.46,0.91 -0.69,1.37 -0.45,0.91 -0.45,1.37 -0.45,5.48 v 4.57 c -0.46,0 -0.92,0.22 -1.37,0.22 -0.46,0 -1.37,0.23 -1.6,0.46 -0.23,0.46 -0.46,0.23 -1.6,-0.46 -2.74,-2.28 -6.62,-2.51 -7.99,-0.68 -0.46,0.46 -0.46,0.46 -3.42,0.68 -1.6,0 -2.97,0.23 -3.2,0.23 -0.46,0.46 -0.46,0.46 -0.91,-0.45 -0.92,-1.83 -2.74,-2.97 -4.11,-2.97 -1.37,0 -2.29,0.68 -2.29,2.05 0,0.23 -0.22,0.69 -0.22,0.92 -0.23,0 -0.46,-0.23 -0.69,-0.23 -0.46,-0.46 -1.6,-0.46 -4.34,-0.46 -3.42,-0.23 -3.88,0 -4.56,0.23 -0.69,0.46 -1.14,0.68 -7.08,0.68 h -6.16 c -0.23,-0.45 -0.46,-0.68 -0.69,-1.14 -1.82,-1.82 -2.74,-2.05 -6.39,-0.91 -2.51,0.91 -2.74,0.91 -3.2,0.68 -0.22,-0.23 -1.14,-0.45 -2.96,-0.45 -2.29,-0.23 -2.97,-0.23 -3.43,-0.69 -1.14,-0.45 -1.6,-1.37 -1.6,-2.28 0,-1.14 -1.14,-2.06 -2.28,-2.06 h -1.14 c -1.14,0.69 -1.83,0.69 -2.28,0.46 0,-0.23 -0.46,-0.46 -0.92,-0.68 -0.68,-0.23 -0.91,-0.23 -2.05,-0.23 -0.91,0.23 -1.14,0.23 -1.83,-0.23 -1.14,-0.91 -3.88,-0.91 -4.79,0 -1.14,1.14 -1.37,3.2 -0.46,4.57 0.69,2.05 0.46,2.74 -1.82,2.96 -0.69,0 -1.83,0.23 -2.29,0.46 -0.68,0.46 -1.14,0.68 -1.14,0.68 v -1.14 c 0,-1.37 -0.68,-2.28 -1.37,-2.51 -0.91,-0.45 -2.51,-0.23 -3.19,0.46 -0.23,0 -0.46,0.23 -0.69,0.45 -0.23,-0.22 -0.46,-0.45 -0.68,-0.45 -0.23,-0.46 -1.15,-0.69 -1.6,-0.69 -0.46,-0.22 -1.37,-0.45 -1.83,-0.68 -0.46,-0.23 -0.91,-0.23 -1.14,-0.23 -0.69,0 -1.6,0.46 -1.83,1.14 0,0.23 -0.45,0.69 -0.91,1.14 -0.68,0.46 -0.91,0.46 -1.6,0.46 -0.68,0 -1.14,0 -1.82,0.23 -1.15,0.68 -1.15,0.68 -1.6,0 -0.23,-0.69 -2.74,-2.28 -4.57,-3.2 -2.28,-1.14 -5.25,-1.14 -6.39,0 -0.69,0.46 -0.69,0.69 -0.69,2.28 0,0.46 -0.22,1.15 -0.22,1.6 h -0.69 c -1.37,-0.22 -2.28,0.23 -2.74,1.37 0,0.23 0,0.46 -0.23,0.69 -0.22,-0.23 -0.45,-0.23 -0.68,-0.46 -1.6,-1.37 -2.06,-1.37 -4.57,-1.37 -1.82,0 -2.28,-0.23 -2.96,-0.68 -1.37,-0.92 -1.83,-0.92 -4.34,1.14 -0.69,0.68 -1.37,1.37 -1.6,2.05 -0.23,0.46 -0.46,0.69 -0.46,1.14 v -2.05"
     inkscape:connector-curvature="0" />
  <path
     id="path9"
     style="fill-rule:evenodd;fill:#8e4700"
     d="m480.24 583.81c0-0.23 0.23-0.23 0.23 0 0.23 0 0 0.23 0 0.23-0.23 0-0.46-0.23-0.23-0.23" />
  <path
     id="path11"
     style="fill-rule:evenodd;fill:#8e4700"
     d="m122.05 582.67c0-0.23 0.23-0.23 0.23 0 0.23 0 0 0.23 0 0.23-0.23 0-0.46-0.23-0.23-0.23" />
  <path
     id="path13"
     style="fill-rule:evenodd;fill:#8e4700"
     d="m28.68 580.85c0-0.23 0.228-0.23 0.228 0 0.228 0 0 0.22 0 0.22-0.228 0-0.457-0.22-0.228-0.22" />
  <path
     id="path15"
     style="fill-rule:evenodd;fill:#8e4700"
     d="m477.5 571.94v-0.23c0.23 0 0.23 0.23 0 0.23v0" />
  <path
     id="path17"
     style="fill-rule:evenodd;fill:#8e4700"
     d="m480.24 566.69c0-0.23 0-0.45 0.23-0.45 0 0 0.23 0 0.23 0.22 0 0.23-0.23 0.46-0.23 0.46-0.23 0-0.23-0.23-0.23-0.23" />
  <path
     id="path19"
     style="fill-rule:evenodd;fill:#8e4700"
     d="m476.59 472.18v-0.23 0.46-0.23" />
  <path
     id="path21"
     style="fill-rule:evenodd;fill:#8e4700"
     d="m479.33 411.22v-0.68 1.14-0.46" />
  <path
     id="path23"
     style="fill-rule:evenodd;fill:#8e4700"
     d="m478.19 345.7c0-0.22 0-0.45 0.23-0.45v0 0.68c-0.23 0-0.23-0.23-0.23-0.23" />
  <path
     id="path25"
     style="fill-rule:evenodd;fill:#8e4700"
     d="m477.27 247.08c0-0.22 0.23-0.22 0.23-0.22v0.22l-0.23 0.23v-0.23" />
  <path
     id="path27"
     style="fill-rule:evenodd;fill:#8e4700"
     d="m11.33 111.02h0.456-0.228-0.228" />
  <path
     id="path29"
     style="fill-rule:evenodd;fill:#8e4700"
     d="m385.96 1.898h0.23c0.22 0 0 0.228 0 0.228-0.23 0-0.46-0.228-0.23-0.228" />
  <path
     id="path33"
     style="fill-rule:evenodd;fill:#e37100"
     d="m478.34 581.92c0-0.23 0.23-0.23 0.23 0 0.23 0 0 0.22 0 0.22-0.23 0-0.45-0.22-0.23-0.22" />
  <path
     id="path35"
     style="fill-rule:evenodd;fill:#e37100"
     d="m120.15 580.77c0-0.22 0.23-0.22 0.23 0 0.23 0 0 0.23 0 0.23-0.23 0-0.45-0.23-0.23-0.23" />
  <path
     id="path37"
     style="fill-rule:evenodd;fill:#e37100"
     d="m26.782 578.95c0-0.23 0.228-0.23 0.228 0 0.228 0 0 0.23 0 0.23-0.228 0-0.456-0.23-0.228-0.23" />
  <path
     id="path39"
     style="fill-rule:evenodd;fill:#e37100"
     d="m475.6 570.04v-0.22c0.23 0 0.23 0.22 0 0.22v0" />
  <path
     id="path41"
     style="fill-rule:evenodd;fill:#e37100"
     d="m478.34 564.79c0-0.22 0-0.45 0.23-0.45 0 0 0.23 0 0.23 0.23 0 0.22-0.23 0.45-0.23 0.45-0.23 0-0.23-0.23-0.23-0.23" />
  <path
     id="path43"
     style="fill-rule:evenodd;fill:#e37100"
     d="m474.69 470.28v-0.23 0.46-0.23" />
  <path
     id="path45"
     style="fill-rule:evenodd;fill:#e37100"
     d="m477.43 409.33v-0.69 1.14-0.45" />
  <path
     id="path47"
     style="fill-rule:evenodd;fill:#e37100"
     d="m476.29 343.81c0-0.23 0-0.46 0.23-0.46v0 0.69c-0.23 0-0.23-0.23-0.23-0.23" />
  <path
     id="path49"
     style="fill-rule:evenodd;fill:#e37100"
     d="m475.38 245.18c0-0.22 0.22-0.22 0.22-0.22v0.22s-0.22 0.23-0.22 0.23v-0.23" />
  <path
     id="path51"
     style="fill-rule:evenodd;fill:#e37100"
     d="m9.4322 109.12h0.456-0.228-0.228" />
  <path
     id="path53"
     style="fill-rule:evenodd;fill:#e37100"
     d="m384.06-5.6843e-14h0.23c0.23 0 0 0.228 0 0.228-0.23 0-0.46-0.228-0.23-0.228" />
  <metadata
     id="metadata4258">
    <rdf:RDF>
      <cc:Work>
        <dc:format>image/svg+xml</dc:format>
        <dc:type
           rdf:resource="http://purl.org/dc/dcmitype/StillImage" />
        <cc:license
           rdf:resource="http://creativecommons.org/licenses/publicdomain/" />
        <dc:publisher>
          <cc:Agent
             rdf:about="http://openclipart.org/">
            <dc:title>Openclipart</dc:title>
          </cc:Agent>
        </dc:publisher>
        <dc:title></dc:title>
        <dc:date>2011-02-20T16:48:48</dc:date>
        <dc:description>Parchment page with fold lines.</dc:description>
        <dc:source>https://openclipart.org/detail/121357/parchment-page-with-fold-lines-by-lordoftheloch</dc:source>
        <dc:creator>
          <cc:Agent>
            <dc:title>lordoftheloch</dc:title>
          </cc:Agent>
        </dc:creator>
        <dc:subject>
          <rdf:Bag>
            <rdf:li>Parchment</rdf:li>
            <rdf:li>paper</rdf:li>
          </rdf:Bag>
        </dc:subject>
      </cc:Work>
      <cc:License
         rdf:about="http://creativecommons.org/licenses/publicdomain/">
        <cc:permits
           rdf:resource="http://creativecommons.org/ns#Reproduction" />
        <cc:permits
           rdf:resource="http://creativecommons.org/ns#Distribution" />
        <cc:permits
           rdf:resource="http://creativecommons.org/ns#DerivativeWorks" />
      </cc:License>
    </rdf:RDF>
  </metadata>
</svg>
