<?xml version="1.0" encoding="UTF-8" standalone="no"?>
<!-- Created with Inkscape (http://www.inkscape.org/) -->

<svg
   xmlns:dc="http://purl.org/dc/elements/1.1/"
   xmlns:cc="http://creativecommons.org/ns#"
   xmlns:rdf="http://www.w3.org/1999/02/22-rdf-syntax-ns#"
   xmlns:svg="http://www.w3.org/2000/svg"
   xmlns="http://www.w3.org/2000/svg"
   xmlns:sodipodi="http://sodipodi.sourceforge.net/DTD/sodipodi-0.dtd"
   xmlns:inkscape="http://www.inkscape.org/namespaces/inkscape"
   id="Layer_1"
   sodipodi:docname="14thWarrior-Cartoon-Elephant.adapted.svg"
   xml:space="preserve"
   version="1.0"
   inkscape:version="0.92.3 (2405546, 2018-03-11)"
   viewBox="0 0 760.96924 709.75476"
   width="380.48462"
   height="354.87738"><defs
   id="defs34" /><sodipodi:namedview
   id="namedview3474"
   bordercolor="#666666"
   inkscape:pageshadow="2"
   guidetolerance="10"
   pagecolor="#ffffff"
   gridtolerance="10"
   inkscape:window-maximized="1"
   inkscape:zoom="3.3203143"
   objecttolerance="10"
   borderopacity="1"
   inkscape:current-layer="Layer_1"
   inkscape:cx="186.22007"
   inkscape:cy="142.14581"
   inkscape:window-y="-9"
   inkscape:window-x="-9"
   inkscape:window-width="2560"
   showgrid="false"
   inkscape:pageopacity="0"
   inkscape:window-height="1373"
   fit-margin-top="50"
   fit-margin-left="50"
   fit-margin-right="50"
   fit-margin-bottom="50" />
<path
   id="path2383_2_"
   style="fill:#ffffff;stroke:#010101;stroke-width:2;stroke-linecap:round;stroke-linejoin:round;fill-opacity:1;stroke-miterlimit:4;stroke-dasharray:none"
   d="m 601.57974,359.15276 c 0.036,121.016 -98.056,219.14 -219.08,219.14 -121.01799,0 -219.11999,-98.122 -219.07999,-219.14 -0.038,-121.01601 98.056,-219.14001 219.07999,-219.14001 121.018,0 219.12,98.122 219.08,219.14001 z"
   inkscape:connector-curvature="0" /><path
   id="path3245"
   style="fill:#ffffff;stroke:#010101;stroke-width:2;stroke-linecap:round;stroke-linejoin:round;fill-opacity:1;stroke-miterlimit:4;stroke-dasharray:none"
   d="m 212.50375,558.75276 c -0.012,41.684 33.774,46.994 75.458,46.994 41.68399,0 75.46999,-5.31 75.45799,-46.994 0.012,-41.682 -35.196,-64.692 -75.45799,-75.478 -62.636,-16.784 -75.47,33.796 -75.458,75.478 z"
   inkscape:connector-curvature="0" /><path
   id="path3239"
   style="fill:#ffffff;stroke:#010101;stroke-width:2;stroke-linecap:round;stroke-linejoin:round;stroke-miterlimit:4;stroke-dasharray:none"
   d="m 346.69974,586.25276 c 3.02,11.26 -5.974,15.208 -17.546,18.308 -11.572,3.1 -21.334,4.178 -24.348,-7.084 -3.022,-11.262 3.912,-22.904 15.482,-26.006 11.57,-3.102 23.396,3.518 26.412,14.782 z"
   inkscape:connector-curvature="0" /><path
   id="path3241"
   style="fill:#ffffff;stroke:#010101;stroke-width:2;stroke-linecap:round;stroke-linejoin:round;stroke-miterlimit:4;stroke-dasharray:none"
   d="m 270.53375,598.45276 c -3.014,11.264 -12.778,10.184 -24.348,7.086 -11.572,-3.102 -20.568,-7.05 -17.546,-18.31 3.014,-11.262 14.84,-17.88 26.412,-14.78 11.57,3.1 18.502,14.742 15.482,26.004 z"
   inkscape:connector-curvature="0" /><path
   id="path3243"
   style="fill:#ffffff;stroke:#010101;stroke-width:2;stroke-linecap:round;stroke-linejoin:round;stroke-miterlimit:4;stroke-dasharray:none"
   d="m 307.79974,596.61276 c 0.004,11.658 -9.70599,13.142 -21.68599,13.142 -11.978,0 -21.688,-1.484 -21.684,-13.142 -0.004,-11.66 9.706,-21.114 21.684,-21.114 11.98,0 21.68999,9.452 21.68599,21.114 z"
   inkscape:connector-curvature="0" /><path
   id="path3220"
   style="fill:#ffffff;stroke:#010101;stroke-width:2;stroke-linecap:round;stroke-linejoin:round;fill-opacity:1;stroke-miterlimit:4;stroke-dasharray:none"
   d="m 552.49974,558.75276 c 0.012,41.684 -33.774,46.994 -75.458,46.994 -41.684,0 -75.47,-5.31 -75.458,-46.994 -0.014,-41.682 35.196,-64.692 75.458,-75.478 62.638,-16.784 75.47,33.796 75.458,75.478 z"
   inkscape:connector-curvature="0" /><path
   id="path3235_1_"
   style="fill:#ffffff;stroke:#010101;stroke-width:2;stroke-linecap:round;stroke-linejoin:round;stroke-miterlimit:4;stroke-dasharray:none"
   d="m 537.61974,586.25276 c 3.02,11.26 -5.974,15.208 -17.546,18.308 -11.57,3.102 -21.332,4.178 -24.348,-7.084 -3.022,-11.262 3.912,-22.904 15.482,-26.006 11.57,-3.102 23.396,3.518 26.412,14.782 z"
   inkscape:connector-curvature="0" /><path
   id="path3237"
   style="fill:#ffffff;stroke:#010101;stroke-width:2;stroke-linecap:round;stroke-linejoin:round;stroke-miterlimit:4;stroke-dasharray:none"
   d="m 461.45974,598.45276 c -3.016,11.264 -12.778,10.184 -24.35,7.086 -11.57,-3.102 -20.566,-7.05 -17.544,-18.31 3.016,-11.262 14.842,-17.88 26.412,-14.78 11.568,3.1 18.5,14.742 15.482,26.004 z"
   inkscape:connector-curvature="0" /><path
   id="path3224"
   style="fill:#ffffff;stroke:#010101;stroke-width:2;stroke-linecap:round;stroke-linejoin:round;stroke-miterlimit:4;stroke-dasharray:none"
   d="m 498.73974,596.61276 c 0.004,11.658 -9.706,13.142 -21.686,13.142 -11.978,0 -21.69,-1.484 -21.686,-13.142 -0.004,-11.66 9.708,-21.114 21.686,-21.114 11.982,0 21.69,9.452 21.686,21.114 z"
   inkscape:connector-curvature="0" /><path
   id="path2523_1_"
   sodipodi:nodetypes="cccsc"
   style="fill:#ffffff;stroke:#010101;stroke-width:2;stroke-linecap:round;stroke-linejoin:round;fill-opacity:1;stroke-miterlimit:4;stroke-dasharray:none"
   d="m 127.00775,123.32476 c 43.906,-36.216003 130.468,-13.1296 182.17199,1.862 -28.10599,98.61399 -5.64,160.18999 -29.81599,216.02 -55.54,55.32 -141.508,116.22 -136.664,80.18 23.334,-173.70201 -83.816002,-241.88001 -15.692,-298.06 z"
   inkscape:connector-curvature="0" /><path
   id="path4380"
   sodipodi:nodetypes="cccsc"
   style="fill:#ffffff;stroke:#010101;stroke-width:2;stroke-linecap:round;stroke-linejoin:round;fill-opacity:1;stroke-miterlimit:4;stroke-dasharray:none"
   d="m 633.95974,123.32476 c -43.906,-36.216003 -130.468,-13.1294 -182.178,1.86184 28.112,98.61399 5.6492,160.19199 29.822,216.02 55.542,55.316 141.508,116.228 136.666,80.178 -23.334,-173.69801 83.816,-241.88001 15.6914,-298.06 z"
   inkscape:connector-curvature="0" /><path
   id="path267"
   sodipodi:nodetypes="cszsz"
   style="fill:#ffffff;stroke:#010101;stroke-width:2;stroke-linecap:round;stroke-linejoin:round;fill-opacity:1;stroke-miterlimit:4;stroke-dasharray:none"
   d="m 380.47974,108.01636 c -160.70799,0 -200.59999,70.42999 -173.08799,173.13799 32.614,121.71801 138.91599,173.13801 173.08599,173.13801 34.17,0 141.008,-53.412 173.088,-173.13801 27.468,-102.512 -12.3776,-173.13799 -173.086,-173.13799 z"
   inkscape:connector-curvature="0" /><path
   id="path3159"
   style="fill:#ffffff;stroke:#010101;stroke-width:2;stroke-linecap:round;stroke-linejoin:round;stroke-miterlimit:4;stroke-dasharray:none"
   d="m 480.55974,216.21475 c 0.006,25.038 -20.29,45.338 -45.326,45.338 -25.04,0 -45.334,-20.3 -45.326,-45.338 -0.008,-25.038 20.288,-45.338 45.326,-45.338 25.038,-0.002 45.332,20.3 45.326,45.338 z"
   inkscape:connector-curvature="0" /><path
   id="path3161"
   style="fill:#010101;stroke-width:2;stroke-miterlimit:4;stroke-dasharray:none"
   d="m 440.27974,224.21475 c 0.004,8.346 -6.762,15.114 -15.108,15.114 -8.346,0 -15.112,-6.768 -15.11,-15.114 -0.002,-8.346 6.764,-15.114 15.11,-15.114 8.346,0 15.112,6.768 15.108,15.114 z"
   inkscape:connector-curvature="0" /><path
   id="path3157"
   style="fill:#ffffff;stroke:#010101;stroke-width:2;stroke-linecap:round;stroke-linejoin:round;stroke-miterlimit:4;stroke-dasharray:none"
   d="m 375.09974,216.21475 c 0.008,25.038 -20.29,45.338 -45.326,45.338 -25.036,0 -45.33199,-20.3 -45.32599,-45.338 -0.006,-25.038 20.28999,-45.338 45.32599,-45.338 25.036,0 45.334,20.3 45.326,45.338 z"
   inkscape:connector-curvature="0" /><path
   id="path3163"
   style="fill:#010101;stroke-width:2;stroke-miterlimit:4;stroke-dasharray:none"
   d="m 356.21974,224.21475 c 0.004,8.346 -6.762,15.114 -15.108,15.114 -8.346,0 -15.112,-6.768 -15.11,-15.114 -0.002,-8.346 6.764,-15.114 15.11,-15.114 8.346,0 15.112,6.768 15.108,15.114 z"
   inkscape:connector-curvature="0" /><path
   id="path4386"
   sodipodi:nodetypes="czs"
   style="fill:#ffffff;stroke:#010101;stroke-width:2;stroke-linecap:round;stroke-linejoin:round;fill-opacity:1;stroke-miterlimit:4;stroke-dasharray:none"
   d="m 318.29974,290.30875 c 73.078,272.74001 -20.38399,264.54001 62.174,266.08001 82.556,1.53698 -6.6036,8.5502 62.174,-266.08001"
   inkscape:connector-curvature="0" /><path
   id="path4407"
   style="fill:none;stroke:#000000;stroke-width:2;stroke-linecap:round;stroke-linejoin:round;stroke-opacity:1;stroke-miterlimit:4;stroke-dasharray:none"
   d="m 360.37974,527.53276 h 40.212"
   inkscape:connector-curvature="0" /><path
   id="path4425"
   sodipodi:nodetypes="cc"
   style="fill:none;stroke:#000000;stroke-width:2;stroke-linecap:round;stroke-linejoin:round;stroke-opacity:1;stroke-miterlimit:4;stroke-dasharray:none"
   d="m 364.37974,495.53276 h 32.212"
   inkscape:connector-curvature="0" /><path
   id="path4427"
   sodipodi:nodetypes="cc"
   style="fill:none;stroke:#000000;stroke-width:2;stroke-linecap:round;stroke-linejoin:round;stroke-opacity:1;stroke-miterlimit:4;stroke-dasharray:none"
   d="m 364.37974,463.53276 h 32.212"
   inkscape:connector-curvature="0" /><path
   id="path4429"
   style="fill:none;stroke:#000000;stroke-width:2;stroke-linecap:round;stroke-linejoin:round;stroke-opacity:1;stroke-miterlimit:4;stroke-dasharray:none"
   d="m 360.37974,431.53276 h 40.212"
   inkscape:connector-curvature="0" /><path
   id="path4431"
   sodipodi:nodetypes="cc"
   style="fill:none;stroke:#000000;stroke-width:2;stroke-linecap:round;stroke-linejoin:round;stroke-opacity:1;stroke-miterlimit:4;stroke-dasharray:none"
   d="m 356.37974,399.53276 h 48.212"
   inkscape:connector-curvature="0" /><path
   id="path4433"
   sodipodi:nodetypes="cc"
   style="fill:none;stroke:#000000;stroke-width:2;stroke-linecap:round;stroke-linejoin:round;stroke-opacity:1;stroke-miterlimit:4;stroke-dasharray:none"
   d="m 352.37974,367.53276 h 56.212"
   inkscape:connector-curvature="0" /><path
   id="path4435"
   sodipodi:nodetypes="cc"
   style="fill:none;stroke:#000000;stroke-width:2;stroke-linecap:round;stroke-linejoin:round;stroke-opacity:1;stroke-miterlimit:4;stroke-dasharray:none"
   d="m 344.37974,335.53276 h 72.212"
   inkscape:connector-curvature="0" /><metadata
   id="metadata31"><rdf:RDF><cc:Work><dc:format>image/svg+xml</dc:format><dc:type
         rdf:resource="http://purl.org/dc/dcmitype/StillImage" /><cc:license
         rdf:resource="http://creativecommons.org/publicdomain/zero/1.0/" /><dc:publisher><cc:Agent
           rdf:about="http://openclipart.org/"><dc:title>Openclipart</dc:title></cc:Agent></dc:publisher><dc:title>Cartoon Elephant</dc:title><dc:date>2010-09-03T16:28:14</dc:date><dc:description>Cartoon Elephant.  Remixed from Studiofibonacci's Cartoon Rhino.</dc:description><dc:source>https://openclipart.org/detail/83479/cartoon-elephant-by-14thwarrior</dc:source><dc:creator><cc:Agent><dc:title>14thWarrior</dc:title></cc:Agent></dc:creator><dc:subject><rdf:Bag><rdf:li>africa</rdf:li><rdf:li>animal</rdf:li><rdf:li>cartoon</rdf:li><rdf:li>elephant</rdf:li><rdf:li>india</rdf:li><rdf:li>mammal</rdf:li><rdf:li>remix</rdf:li></rdf:Bag></dc:subject></cc:Work><cc:License
       rdf:about="http://creativecommons.org/publicdomain/zero/1.0/"><cc:permits
         rdf:resource="http://creativecommons.org/ns#Reproduction" /><cc:permits
         rdf:resource="http://creativecommons.org/ns#Distribution" /><cc:permits
         rdf:resource="http://creativecommons.org/ns#DerivativeWorks" /></cc:License></rdf:RDF></metadata></svg>