<?xml version="1.0" encoding="UTF-8" standalone="no"?>
<!-- Created with Inkscape (http://www.inkscape.org/) -->

<svg
   xmlns:dc="http://purl.org/dc/elements/1.1/"
   xmlns:cc="http://creativecommons.org/ns#"
   xmlns:rdf="http://www.w3.org/1999/02/22-rdf-syntax-ns#"
   xmlns:svg="http://www.w3.org/2000/svg"
   xmlns="http://www.w3.org/2000/svg"
   xmlns:sodipodi="http://sodipodi.sourceforge.net/DTD/sodipodi-0.dtd"
   xmlns:inkscape="http://www.inkscape.org/namespaces/inkscape"
   id="svg2"
   sodipodi:docname="14thWarrior-Cartoon-Mallard.adapted.svg"
   inkscape:export-filename="C:\__Compartment-2\__L2\RPG_Stuff\Big_Hippie_Games\Warm_and_Fuzzy\WandF_DiceFaceIcons.png"
   viewBox="0 0 676.07953 945.98895"
   inkscape:export-xdpi="119.84538"
   version="1.1"
   inkscape:export-ydpi="119.84538"
   inkscape:version="0.92.3 (2405546, 2018-03-11)"
   width="676.07953"
   height="945.98895">
  <defs
     id="defs4" />
  <sodipodi:namedview
     id="base"
     bordercolor="#666666"
     inkscape:pageshadow="2"
     inkscape:window-y="-9"
     pagecolor="#ffffff"
     inkscape:window-height="1373"
     inkscape:window-maximized="1"
     inkscape:zoom="0.62368593"
     inkscape:window-x="-9"
     showgrid="false"
     borderopacity="1.0"
     inkscape:current-layer="g6232"
     inkscape:cx="786.43941"
     inkscape:cy="267.57095"
     showguides="true"
     inkscape:guide-bbox="true"
     inkscape:window-width="2560"
     inkscape:pageopacity="0.0"
     inkscape:document-units="px"
     fit-margin-top="50"
     fit-margin-left="50"
     fit-margin-right="50"
     fit-margin-bottom="50" />
  <g
     id="layer2"
     style="display:none"
     inkscape:label="Outline"
     inkscape:groupmode="layer"
     transform="translate(103.79427,-333.60976)">
    <rect
       id="rect3680"
       style="fill:none;stroke:#000000;stroke-width:0.83499998;stroke-linecap:round;stroke-linejoin:round"
       height="83.764999"
       width="83.764999"
       y="91.348999"
       x="67.695999" />
    <rect
       id="rect3770"
       style="fill:none;stroke:#000000;stroke-width:0.83499998;stroke-linecap:round;stroke-linejoin:round"
       height="83.764999"
       width="83.764999"
       y="91.348999"
       x="167.7" />
    <rect
       id="rect3845"
       style="fill:none;stroke:#000000;stroke-width:0.83499998;stroke-linecap:round;stroke-linejoin:round"
       height="83.764999"
       width="83.764999"
       y="195.35001"
       x="67.695999" />
    <rect
       id="rect3892"
       style="fill:none;stroke:#000000;stroke-width:0.83499998;stroke-linecap:round;stroke-linejoin:round"
       height="83.764999"
       width="83.764999"
       y="195.35001"
       x="167.7" />
    <rect
       id="rect3928"
       style="fill:none;stroke:#000000;stroke-width:0.83499998;stroke-linecap:round;stroke-linejoin:round"
       height="83.764999"
       width="83.764999"
       y="149.35001"
       x="271.70001" />
    <rect
       id="rect3981"
       style="fill:none;stroke:#000000;stroke-width:0.83499998;stroke-linecap:round;stroke-linejoin:round"
       height="83.764999"
       width="83.764999"
       y="149.35001"
       x="375.70001" />
  </g>
  <g
     id="layer1"
     inkscape:label="Icon"
     inkscape:groupmode="layer"
     transform="translate(103.79427,-333.60976)">
    <g
       id="g328"
       style="display:none"
       transform="translate(422.9,674.48)">
      <path
         id="path3283_1_"
         style="display:inline;fill:#ffffff;stroke:#010101;stroke-width:5;stroke-linejoin:round"
         d="m 201.31,36.735 c 6.693,-16.214 17.981,-18.409 17.981,-18.409 0,0 -6.278,8.458 -0.592,6.105 8.805,-3.644 36.803,7.773 36.803,7.773 0,0 -37.094,-8.633 -54.192,4.531 z"
         inkscape:connector-curvature="0" />
      <path
         id="path3285_1_"
         style="display:inline;fill:#ffffff;stroke:#010101;stroke-width:5;stroke-linejoin:round"
         d="m 185.96,35.223 c -6.69,-16.214 -17.98,-18.409 -17.98,-18.409 0,0 6.279,8.457 0.591,6.105 -8.805,-3.643 -36.802,7.773 -36.802,7.773 0,0 37.094,-8.634 54.192,4.531 z"
         inkscape:connector-curvature="0" />
    </g>
    <g
       id="g6232"
       transform="matrix(2.1579,0,0,2.1579,-1096.1663,-1061.4684)">
      <path
         id="path3806"
         style="fill:#ffffff;fill-rule:evenodd;stroke:#000000;stroke-width:1.05089047;fill-opacity:1;stroke-miterlimit:4;stroke-dasharray:none"
         d="m 581.25,998.75 c -48.083,4.9498 -103.23,43.858 -81.312,52.344 21.92,8.4853 85.542,12.024 97.562,2.125 6.177,-5.087 17.229,-17.827 18.531,-29.781 1.3042,11.953 12.324,24.695 18.5,29.781 12.021,9.8995 75.673,6.3603 97.594,-2.125 21.92,-8.4853 -33.229,-47.394 -81.312,-52.344 -24.76,2.3865 -33.666,10.706 -34.781,20.25 -1.1157,-9.5442 -10.022,-17.864 -34.781,-20.25 z"
         inkscape:connector-curvature="0" />
      <path
         id="path2383"
         style="fill:#ffffff;stroke:#010101;stroke-width:1.05089047;stroke-linecap:round;stroke-linejoin:round;fill-opacity:1;stroke-miterlimit:4;stroke-dasharray:none"
         d="m 726.07,928.62 c 0.018,60.508 -49.029,109.57 -109.54,109.57 -60.508,0 -109.56,-49.062 -109.54,-109.57 -0.019,-60.508 49.028,-109.57 109.54,-109.57 60.508,-10e-4 109.55,49.061 109.54,109.57 z"
         inkscape:connector-curvature="0" />
      <path
         id="path3800_2_"
         style="fill:#ffffff;stroke:#010101;stroke-width:1.05089047;fill-opacity:1;stroke-miterlimit:4;stroke-dasharray:none"
         d="m 694.75,857.99 c -48.11,17.3 14.164,94.143 -37.818,161.19 -9.608,12.394 57.867,2.091 81.723,-66.585 23.198,-66.786 1.132,-107.54 -43.905,-94.606 z"
         inkscape:connector-curvature="0" />
      <path
         id="path6203"
         style="fill:#ffffff;stroke:#010101;stroke-width:1.05089047;stroke-miterlimit:4;stroke-dasharray:none"
         d="m 747.75,897.5 c -20.715,10.391 -44.509,18.388 -70.375,23.312 1.9088,18.727 3.5081,39.837 -2.0938,61.25 20.972,-3.8405 40.626,-9.6792 58.406,-17.188 1.8184,-3.8712 3.4662,-7.9559 4.9688,-12.281 7.4,-21.32 10.19,-39.97 9.09,-55.09 z"
         inkscape:connector-curvature="0" />
      <ellipse
         id="ellipse6194"
         style="fill:#ffffff;stroke:#000000;stroke-width:0.93405505;fill-opacity:1;stroke-miterlimit:4;stroke-dasharray:none"
         rx="50.25"
         ry="17"
         transform="matrix(1.0818,0,0,1.1701,172.99,321.41)"
         cy="461.35999"
         cx="409.94" />
      <path
         id="path6207"
         style="fill:#ffffff;stroke:#010101;stroke-width:1.05089047;fill-opacity:1;stroke-miterlimit:4;stroke-dasharray:none"
         d="m 747.88,908.53 c -18.811,10.618 -42.55,18.962 -69.406,24.062 0.97457,12.771 1.2264,26.364 -1.1562,40.219 22.946,-4.2634 43.653,-10.866 61,-19.25 0.11494,-0.32268 0.23075,-0.64345 0.34375,-0.96875 5.694,-16.393 8.6491,-31.216 9.2188,-44.062 z"
         inkscape:connector-curvature="0" />
      <path
         id="path3169_2_"
         style="fill:#ffffff;stroke:#010101;stroke-width:1.05089047;fill-opacity:1;stroke-miterlimit:4;stroke-dasharray:none"
         d="m 538.31,857.99 c 48.111,17.3 -14.163,94.143 37.819,161.19 9.608,12.394 -57.868,2.091 -81.723,-66.585 -23.197,-66.786 -1.131,-107.54 43.904,-94.606 z"
         inkscape:connector-curvature="0" />
      <path
         id="path6201"
         style="fill:#ffffff;stroke:#010101;stroke-width:1.05089047;stroke-linecap:round;stroke-linejoin:round;stroke-miterlimit:4;stroke-dasharray:none"
         d="m 485.31,897.47 c -1.1034,15.122 1.6814,33.784 9.0938,55.125 1.4909,4.2922 3.1665,8.3426 4.9688,12.188 0.004,0.002 -0.004,0.0297 0,0.0312 17.78,7.52 37.429,13.4 58.406,17.25 -5.6049,-21.425 -4.0038,-42.547 -2.0938,-61.281 -25.864,-4.933 -49.663,-12.915 -70.375,-23.312 z"
         inkscape:connector-curvature="0" />
      <path
         id="path6196"
         style="fill:#ffffff;stroke:#010101;stroke-width:1.05089047;stroke-linecap:round;stroke-linejoin:round;fill-opacity:1;stroke-miterlimit:4;stroke-dasharray:none"
         d="m 485.19,908.5 c 0.56613,12.854 3.5204,27.688 9.2188,44.094 0.10536,0.30333 0.20544,0.60519 0.3125,0.90625 17.354,8.4067 38.088,15.005 61.062,19.281 -2.3795,-13.856 -2.1634,-27.447 -1.1875,-40.219 -26.86,-5.11 -50.61,-13.43 -69.41,-24.06 z"
         inkscape:connector-curvature="0" />
      <path
         id="ellipse311"
         sodipodi:nodetypes="cscsc"
         style="fill:#ffffff;stroke:#000000;stroke-width:1.05089047;fill-opacity:1;stroke-miterlimit:4;stroke-dasharray:none"
         transform="translate(206.17,392.43)"
         d="m 460.19,461.36 c -0.17469,10.869 -22.498,17 -50.25,17 -27.752,0 -50.25,-7.6112 -50.25,-17 10.132,-8.166 22.498,-17 50.25,-17 27.752,0 36.798,5.4317 50.25,17 z"
         inkscape:connector-curvature="0" />
      <path
         id="path3167"
         style="fill:#ffffff;stroke:#000000;stroke-width:1.05089047;stroke-linecap:round;stroke-linejoin:round;fill-opacity:1;stroke-miterlimit:4;stroke-dasharray:none"
         d="m 676.57,942.88 c -19.788,-3.6765 -1.6782,16.152 -4.7123,23.322 -11.995,-5.8978 -7.4244,13.627 -12.848,19.051 -10.278,-0.54965 -11.882,9.8141 -19.052,12.848 -8.663,-4.8064 -15.051,4.7122 -23.322,4.7122 -8.2709,0 -13.165,-9.1452 -23.322,-4.7122 -7.1696,-3.0342 -8.7738,-13.025 -19.051,-12.848 -5.424,-5.424 -4.5872,-26.069 -12.848,-19.051 -3.0342,-7.1696 10.969,-28.492 -4.7123,-23.322 0,-8.2709 16.612,-23.619 4.7123,-23.322 3.0342,-7.1696 18.252,-12.507 12.848,-19.051 10.848,-10.848 25.831,-17.561 42.373,-17.561 16.542,0 31.525,6.7126 42.373,17.561 -8.0168,3.9306 9.8142,11.882 12.848,19.051 -13.393,-0.67085 4.7123,15.051 4.7123,23.322 z"
         inkscape:connector-curvature="0" />
      <path
         id="path2399"
         sodipodi:nodetypes="cccc"
         style="fill:#ffffff;stroke:#010101;stroke-width:1.05089047;stroke-linecap:round;stroke-linejoin:round;fill-opacity:1;stroke-miterlimit:4;stroke-dasharray:none"
         d="m 565.65,853.96 c 24.794,-17.827 17.969,-58.63 17.969,-58.63 l 58.797,-3.4588 c 0,0 -1.518,43.032 23.782,61.167"
         inkscape:connector-curvature="0" />
      <path
         id="path314"
         style="fill:#ffffff;stroke:#010101;stroke-width:1.05089047;stroke-linecap:round;stroke-linejoin:round;fill-opacity:1;stroke-miterlimit:4;stroke-dasharray:none"
         d="m 664.78,691.02 c -13.018,-9.159 -29.542,-14.532 -48.948,-14.532 -17.658,0 -32.721,4.198 -44.939,11.49 -13.976,9.66 -25.2,23.694 -32.085,40.362 -3.172,9.29 -4.819,19.403 -4.819,29.992 0,45.175 56.125,81.844 81.844,81.844 26.717,0 81.843,-36.669 81.843,-81.844 0,-10.912 -1.831,-21.32 -5.303,-30.841 -6.206,-14.628 -15.765,-27.186 -27.593,-36.471 z"
         inkscape:connector-curvature="0" />
      <path
         id="path2391_1_"
         sodipodi:nodetypes="cczcc"
         style="fill:#ffffff;stroke:#010101;stroke-width:1.05089047;fill-opacity:1;stroke-miterlimit:4;stroke-dasharray:none"
         d="m 617.33,758.27 c -11.154,0 -23.279,11.687 -22.793,19.065 6.6977,26.132 -21.646,38.13 24.249,38.13 45.895,0 12.47,-23.562 20.855,-38.746 -0.48375,-8.6086 -15.032,-19.063 -22.311,-18.449 z"
         inkscape:connector-curvature="0" />
      <g
         id="g332"
         transform="translate(422.9,674.48)"
         style="stroke-width:1.05089047;stroke-miterlimit:4;stroke-dasharray:none">
        <path
           id="path2387_1_"
           style="fill:#ffffff;stroke:#010101;stroke-width:1.05089047;stroke-linecap:round;stroke-miterlimit:4;stroke-dasharray:none"
           d="m 171.65,31.18 c -15.749,0 -28.539,14.788 -28.539,33.009 0,18.221 12.79,33.008 28.539,33.008 9.254,0 17.466,-5.112 22.679,-13.022 5.213,7.916 13.443,13.022 22.702,13.022 15.747,0 28.538,-14.788 28.538,-33.008 0,-18.222 -12.791,-33.009 -28.538,-33.009 -9.258,0 -17.489,5.108 -22.702,13.023 -5.21,-7.908 -13.43,-13.023 -22.68,-13.023 z"
           inkscape:connector-curvature="0" />
        <g
           id="g335"
           style="stroke-width:1.05089047;stroke-miterlimit:4;stroke-dasharray:none">
          <path
             id="path2411_1_"
             style="fill:#010101;stroke:#010101;stroke-width:1.05089047;stroke-linecap:round;stroke-miterlimit:4;stroke-dasharray:none"
             d="m 192.53,66.423 c 0,4.563 -3.699,8.261 -8.261,8.261 -4.563,0 -8.262,-3.699 -8.262,-8.261 0,-4.563 3.699,-8.262 8.262,-8.262 4.562,0 8.261,3.699 8.261,8.262 z"
             inkscape:connector-curvature="0" />
          <path
             id="path3341_1_"
             style="fill:#ffffff;stroke-width:1.05089047;stroke-miterlimit:4;stroke-dasharray:none"
             d="m 183.43,63.529 c 0,1.184 -0.958,2.143 -2.142,2.143 -1.184,0 -2.143,-0.959 -2.143,-2.143 0,-1.184 0.959,-2.144 2.143,-2.144 1.184,0 2.142,0.961 2.142,2.144 z"
             inkscape:connector-curvature="0" />
        </g>
        <g
           id="g339"
           style="stroke-width:1.05089047;stroke-miterlimit:4;stroke-dasharray:none">
          <path
             id="path3301_1_"
             style="fill:#010101;stroke:#010101;stroke-width:1.05089047;stroke-linecap:round;stroke-miterlimit:4;stroke-dasharray:none"
             d="m 213.45,66.423 c 0,4.563 -3.699,8.261 -8.261,8.261 -4.563,0 -8.262,-3.699 -8.262,-8.261 0,-4.563 3.699,-8.262 8.262,-8.262 4.562,0 8.261,3.699 8.261,8.262 z"
             inkscape:connector-curvature="0" />
          <path
             id="path3343_1_"
             style="fill:#ffffff;stroke-width:1.05089047;stroke-miterlimit:4;stroke-dasharray:none"
             d="m 204.35,63.529 c 0,1.184 -0.959,2.143 -2.143,2.143 -1.184,0 -2.143,-0.959 -2.143,-2.143 0,-1.184 0.959,-2.144 2.143,-2.144 1.183,0.001 2.143,0.961 2.143,2.144 z"
             inkscape:connector-curvature="0" />
        </g>
      </g>
      <path
         id="path3283"
         style="fill:#ffffff;fill-rule:evenodd;stroke:#000000;stroke-width:1.05089047;stroke-linejoin:round;fill-opacity:1;stroke-miterlimit:4;stroke-dasharray:none"
         d="m 624.19,709.57 c 7.292,-33.479 19.59,-38.011 19.59,-38.011 0,0 -6.8402,17.463 -0.64478,12.605 9.5931,-7.5222 40.095,16.051 40.095,16.051 0,0 -40.412,-17.828 -59.04,9.3547 z"
         inkscape:connector-curvature="0" />
      <path
         id="path3285"
         style="fill:#ffffff;fill-rule:evenodd;stroke:#000000;stroke-width:1.05089047;stroke-linejoin:round;fill-opacity:1;stroke-miterlimit:4;stroke-dasharray:none"
         d="m 607.47,709.57 c -7.292,-33.479 -19.59,-38.011 -19.59,-38.011 0,0 6.8402,17.463 0.64481,12.605 -9.5931,-7.5222 -40.095,16.051 -40.095,16.051 0,0 40.412,-17.828 59.04,9.3547 z"
         inkscape:connector-curvature="0" />
      <path
         id="path6211"
         style="fill:none;stroke:#010101;stroke-width:1.05089047;stroke-miterlimit:4;stroke-dasharray:none"
         d="m 694.75,857.99 c -48.11,17.3 14.164,94.143 -37.818,161.19 -9.608,12.394 57.867,2.091 81.723,-66.585 23.198,-66.786 1.132,-107.54 -43.905,-94.606 z"
         inkscape:connector-curvature="0" />
      <path
         id="path6213"
         style="fill:none;stroke:#010101;stroke-width:1.05089047;stroke-miterlimit:4;stroke-dasharray:none"
         d="m 538.31,857.99 c 48.111,17.3 -14.163,94.143 37.819,161.19 9.608,12.394 -57.868,2.091 -81.723,-66.585 -23.197,-66.786 -1.131,-107.54 43.904,-94.606 z"
         inkscape:connector-curvature="0" />
    </g>
  </g>
  <metadata
     id="metadata56">
    <rdf:RDF>
      <cc:Work>
        <dc:format>image/svg+xml</dc:format>
        <dc:type
           rdf:resource="http://purl.org/dc/dcmitype/StillImage" />
        <cc:license
           rdf:resource="http://creativecommons.org/publicdomain/zero/1.0/" />
        <dc:publisher>
          <cc:Agent
             rdf:about="http://openclipart.org/">
            <dc:title>Openclipart</dc:title>
          </cc:Agent>
        </dc:publisher>
        <dc:title>Cartoon Mallard</dc:title>
        <dc:date>2010-09-03T16:01:58</dc:date>
        <dc:description>Cartoon Mallard Duck.  Remixed from StudioFibonacci's Cartoon Ostrich, Lemmling's Cartoon Owl, and Lemmling's Cartoon Penguin.</dc:description>
        <dc:source>https://openclipart.org/detail/83473/cartoon-mallard-by-14thwarrior</dc:source>
        <dc:creator>
          <cc:Agent>
            <dc:title>14thWarrior</dc:title>
          </cc:Agent>
        </dc:creator>
        <dc:subject>
          <rdf:Bag>
            <rdf:li>bird</rdf:li>
            <rdf:li>cartoon</rdf:li>
            <rdf:li>duck</rdf:li>
            <rdf:li>mallard</rdf:li>
            <rdf:li>remix</rdf:li>
          </rdf:Bag>
        </dc:subject>
      </cc:Work>
      <cc:License
         rdf:about="http://creativecommons.org/publicdomain/zero/1.0/">
        <cc:permits
           rdf:resource="http://creativecommons.org/ns#Reproduction" />
        <cc:permits
           rdf:resource="http://creativecommons.org/ns#Distribution" />
        <cc:permits
           rdf:resource="http://creativecommons.org/ns#DerivativeWorks" />
      </cc:License>
    </rdf:RDF>
  </metadata>
</svg>
