<?xml version="1.0" encoding="UTF-8" standalone="no"?>
<!-- Created with Inkscape (http://www.inkscape.org/) -->

<svg
   xmlns:dc="http://purl.org/dc/elements/1.1/"
   xmlns:cc="http://creativecommons.org/ns#"
   xmlns:rdf="http://www.w3.org/1999/02/22-rdf-syntax-ns#"
   xmlns:svg="http://www.w3.org/2000/svg"
   xmlns="http://www.w3.org/2000/svg"
   xmlns:xlink="http://www.w3.org/1999/xlink"
   xmlns:sodipodi="http://sodipodi.sourceforge.net/DTD/sodipodi-0.dtd"
   xmlns:inkscape="http://www.inkscape.org/namespaces/inkscape"
   id="svg14789"
   sodipodi:docname="bee-forestgreen.adapted.svg"
   inkscape:label="bitmap"
   viewBox="0 0 600 600"
   version="1.1"
   inkscape:version="0.92.3 (2405546, 2018-03-11)"
   width="600"
   height="600">
  <title
     id="title3076">Liitle Bee</title>
  <defs
     id="defs14793">
    <linearGradient
       id="linearGradient15922-5">
      <stop
         id="stop15924-76"
         style="stop-color:#ffffff"
         offset="0" />
      <stop
         id="stop15926-1"
         style="stop-color:#a2ffff"
         offset="1" />
    </linearGradient>
    <linearGradient
       inkscape:collect="always"
       xlink:href="#linearGradient15922-5"
       id="linearGradient4350"
       gradientUnits="userSpaceOnUse"
       x1="45.099998"
       y1="61.153999"
       x2="84.952003"
       y2="61.153999"
       gradientTransform="matrix(0,-6.318191,7.0383627,0,86.503468,-39.723413)" />
  </defs>
  <sodipodi:namedview
     id="namedview14791"
     inkscape:zoom="1.9666667"
     borderopacity="1"
     inkscape:current-layer="layer1"
     inkscape:cx="300"
     inkscape:cy="300"
     inkscape:window-maximized="1"
     inkscape:snap-bbox="true"
     showgrid="false"
     inkscape:bbox-nodes="true"
     bordercolor="#666666"
     inkscape:window-x="-9"
     guidetolerance="10"
     objecttolerance="10"
     inkscape:window-y="-9"
     inkscape:window-width="2560"
     inkscape:pageopacity="0"
     inkscape:pageshadow="2"
     pagecolor="#ffffff"
     gridtolerance="10"
     inkscape:bbox-paths="false"
     inkscape:window-height="1373"
     fit-margin-top="0"
     fit-margin-left="0"
     fit-margin-right="0"
     fit-margin-bottom="0" />
  <g
     id="layer1"
     inkscape:label="vector"
     inkscape:groupmode="layer"
     transform="translate(-4.1768999,509.1771)">
    <ellipse
       cy="-289.76404"
       cx="-246.18442"
       transform="scale(-1,1)"
       style="fill:#ffffff;fill-opacity:1;stroke:#000000;stroke-width:4;stroke-miterlimit:4;stroke-dasharray:none"
       id="path15590"
       rx="89.390587"
       ry="80.244064" />
    <path
       d="m 237.49043,-142.16372 c 18.66573,81.52362 104.54784,155.2885 191.83057,164.765787 87.28978,9.470968 142.91396,-48.93439 124.25526,-130.458007 -18.66574,-81.52362 -104.54784,-155.29482 -191.83058,-164.76579 -87.28273,-9.47728 -142.91395,48.92807 -124.25525,130.45801 z"
       inkscape:connector-curvature="0"
       style="fill:#ffffff;fill-opacity:1;stroke:#000000;stroke-width:4;stroke-miterlimit:4;stroke-dasharray:none"
       id="path15590-7" />
    <path
       inkscape:connector-curvature="0"
       style="fill:#ffffff;fill-opacity:1;stroke:#000000;stroke-width:4;stroke-miterlimit:4;stroke-dasharray:none"
       sodipodi:nodetypes="czc"
       d="M 302.84494,-225.09571 C 171.93139,-214.9866 -21.848811,-154.22456 50.871553,-60.822742 123.59192,32.579075 269.0608,-113.89555 302.84494,-225.09571 Z"
       id="path14800" />
    <path
       d="m 450.7869,-241.67868 c 15.39713,9.64093 29.77017,20.9189 42.67008,33.56539 -11.53377,0.7995 -24.98619,1.8808 -40.25099,3.75143 -38.06347,4.66459 -82.81338,14.28606 -104.03404,27.2472 l -0.8798,0.59201 c -20.83144,13.1728 -48.32258,48.41377 -68.40444,80.165208 -4.51391,7.136396 -8.5129,13.848211 -12.31713,20.336993 -10.05852,-13.85832 -18.36168,-28.582231 -24.41467,-43.832451 14.39063,-38.47462 32.00273,-81.81425 63.56486,-101.09106 31.85563,-19.46634 87.40942,-21.02694 134.17231,-20.74262 5.73345,0.0379 4.58809,-0.0253 9.89734,0 z m 72.36845,68.90619 c 7.89634,11.55913 14.6229,23.65215 19.79539,36.13247 -8.30245,0.72805 -17.19753,1.61026 -26.61345,2.76421 -39.84981,4.88358 -86.65632,14.86228 -108.87644,28.43186 l -1.09974,0.59202 c -21.80907,13.790711 -50.45943,50.675047 -71.48161,83.911891 -1.21848,1.926416 -2.12488,3.632517 -3.29923,5.528417 -12.78801,-8.405721 -24.84965,-17.909544 -35.85202,-28.43186 15.16979,-40.651241 33.84679,-86.976218 67.30435,-107.409248 33.34494,-20.36732 91.37202,-21.81861 140.33087,-21.52102 11.44368,0.0695 10.08457,-0.0316 19.7954,0 z m 30.12982,71.67356 c 1.78514,10.679008 2.25847,20.918268 1.53964,30.604055 -30.94345,3.870461 -66.83699,11.61789 -84.02397,22.113669 l -0.65949,0.592014 c -17.06803,10.792734 -39.63373,39.5386076 -56.08731,65.551232 -0.17174,0.271682 -0.26887,0.518723 -0.4399,0.789774 -11.36836,-2.099409 -22.59666,-5.210233 -33.65182,-9.280159 1.14275,-2.939096 2.14445,-5.589704 3.29924,-8.6875128 11.91242,-31.9542512 26.44172,-68.6092362 52.78772,-84.7016692 26.09613,-15.939533 71.6646,-17.212643 109.97441,-16.980133 4.20036,0.0253 3.33147,-0.019 7.25796,0 z"
       inkscape:connector-curvature="0"
       style="color:#000000;text-indent:0;text-transform:none;fill:#000000;stroke-width:6.66856194"
       id="path15630" />
    <path
       style="color:#000000;fill:#ffffff;fill-opacity:1;stroke:#000000;stroke-width:4;stroke-miterlimit:4;stroke-dasharray:none"
       inkscape:connector-curvature="0"
       inkscape:transform-center-y="117.51613"
       inkscape:transform-center-x="-66.397635"
       d="m 305.16539,-224.55293 c -83.38348,58.0389 -184.56699,174.836982 -90.1755,209.372214 94.39148,34.535233 121.37656,-121.157634 90.1755,-209.372214 z"
       sodipodi:nodetypes="czc"
       id="path14800-1" />
    <path
       inkscape:connector-curvature="0"
       style="fill:none;stroke:#000000;stroke-width:3;stroke-miterlimit:4;stroke-dasharray:none"
       sodipodi:nodetypes="czzzc"
       d="m 161.62756,-320.07766 c -69.50384,-1.26364 -78.139907,-6.6499 -92.554474,10.58297 -14.412455,17.23287 -22.167324,46.04129 -4.223018,46.12279 17.944306,0.0815 16.927263,-28.47987 22.12439,-40.19759 5.201352,-11.72024 38.760262,-14.53816 74.655912,-16.50943 z"
       id="path15841" />
    <path
       inkscape:connector-curvature="0"
       style="fill:none;stroke:#000000;stroke-width:3;stroke-miterlimit:4;stroke-dasharray:none"
       sodipodi:nodetypes="czzzc"
       d="m 239.56674,-369.09132 c -0.002,-62.40477 -5.82656,-70.2646 13.65795,-82.85044 19.4843,-12.58647 51.72633,-18.96468 51.45465,-2.85778 -0.27168,16.10697 -32.06185,14.6165 -45.21726,19.04429 -13.1554,4.4276 -16.9709,34.49101 -19.89534,66.66955 z"
       id="path15841-2" />
    <path
       id="path14800-4"
       sodipodi:nodetypes="czc"
       style="color:#000000;fill:#ffffff;fill-opacity:1;stroke:#000000;stroke-width:4;stroke-miterlimit:4;stroke-dasharray:none"
       inkscape:connector-curvature="0"
       d="m 303.64621,-224.64998 c 11.26138,-117.51836 78.94931,-291.47079 182.99743,-226.19124 104.04811,65.27955 -59.12225,195.86392 -182.99743,226.19124 z" />
    <path
       id="path14800-1-5"
       style="color:#000000;fill:url(#linearGradient4350);stroke:#000000;stroke-width:4;stroke-miterlimit:4;stroke-dasharray:none"
       d="m 304.70679,-222.98257 c 64.6544,-74.84529 194.75853,-165.6756 233.23023,-80.94234 38.47169,84.73326 -134.96765,108.9572 -233.23023,80.94234 z"
       sodipodi:nodetypes="czc"
       inkscape:transform-center-y="117.51613"
       inkscape:connector-curvature="0"
       inkscape:transform-center-x="-66.397636" />
    <path
       inkscape:connector-curvature="0"
       style="fill:#000000;stroke-width:0"
       d="M 524.69192,-3.2140618 562.19232,56.555394 504.79377,9.838689 Z"
       id="path15886" />
  </g>
  <metadata
     id="metadata4346">
    <rdf:RDF>
      <cc:Work>
        <dc:format>image/svg+xml</dc:format>
        <dc:type
           rdf:resource="http://purl.org/dc/dcmitype/StillImage" />
        <cc:license
           rdf:resource="http://creativecommons.org/publicdomain/zero/1.0/" />
        <dc:publisher>
          <cc:Agent
             rdf:about="http://openclipart.org/">
            <dc:title>Openclipart</dc:title>
          </cc:Agent>
        </dc:publisher>
        <dc:title>Liitle Bee</dc:title>
        <dc:date>2011-02-13T11:40:20</dc:date>
        <dc:description>A little bee with a sting</dc:description>
        <dc:source>https://openclipart.org/detail/118099/bee-by-forestgreen</dc:source>
        <dc:creator>
          <cc:Agent>
            <dc:title>forestgreen</dc:title>
          </cc:Agent>
        </dc:creator>
        <dc:subject>
          <rdf:Bag>
            <rdf:li>Animal</rdf:li>
            <rdf:li>Bee</rdf:li>
            <rdf:li>Insect</rdf:li>
            <rdf:li>sting</rdf:li>
          </rdf:Bag>
        </dc:subject>
      </cc:Work>
      <cc:License
         rdf:about="http://creativecommons.org/publicdomain/zero/1.0/">
        <cc:permits
           rdf:resource="http://creativecommons.org/ns#Reproduction" />
        <cc:permits
           rdf:resource="http://creativecommons.org/ns#Distribution" />
        <cc:permits
           rdf:resource="http://creativecommons.org/ns#DerivativeWorks" />
      </cc:License>
    </rdf:RDF>
  </metadata>
</svg>
