<?xml version="1.0" encoding="UTF-8" standalone="no"?>
<!-- Created with Inkscape (http://www.inkscape.org/) -->

<svg
   xmlns:dc="http://purl.org/dc/elements/1.1/"
   xmlns:cc="http://creativecommons.org/ns#"
   xmlns:rdf="http://www.w3.org/1999/02/22-rdf-syntax-ns#"
   xmlns:svg="http://www.w3.org/2000/svg"
   xmlns="http://www.w3.org/2000/svg"
   xmlns:sodipodi="http://sodipodi.sourceforge.net/DTD/sodipodi-0.dtd"
   xmlns:inkscape="http://www.inkscape.org/namespaces/inkscape"
   id="svg2"
   sodipodi:docname="bloodsong-Chicken-RoundCartoon.adaptedsvg.svg"
   viewBox="0 0 548.90228 659.23511"
   sodipodi:version="0.32"
   version="1.0"
   inkscape:output_extension="org.inkscape.output.svg.inkscape"
   inkscape:version="0.92.3 (2405546, 2018-03-11)"
   width="548.90228"
   height="659.23511">
  <defs
     id="defs28" />
  <sodipodi:namedview
     id="base"
     bordercolor="#666666"
     inkscape:pageshadow="2"
     guidetolerance="10.0"
     pagecolor="#ffffff"
     gridtolerance="10.0"
     inkscape:zoom="1.7899532"
     objecttolerance="10.0"
     borderopacity="1.0"
     inkscape:current-layer="g4177"
     inkscape:cx="274.45114"
     inkscape:cy="332.26571"
     inkscape:window-y="-9"
     inkscape:window-x="-9"
     inkscape:window-height="1373"
     showgrid="false"
     inkscape:pageopacity="0.0"
     inkscape:window-width="2560"
     inkscape:window-maximized="1"
     fit-margin-top="50"
     fit-margin-left="50"
     fit-margin-right="50"
     fit-margin-bottom="50" />
  <g
     id="g4177"
     inkscape:export-ydpi="38.709999"
     inkscape:export-xdpi="38.709999"
     inkscape:export-filename="C:\D\GFX\Inkscape\InkscapeWORK\CHICKENicon.png"
     transform="matrix(1.62486,0,0,1.62486,51.023674,136.75835)">
    <path
       id="path3943"
       style="fill:#ffffff;fill-rule:evenodd;stroke:#000000;stroke-width:1.84631291;stroke-linecap:round;fill-opacity:1;stroke-miterlimit:4;stroke-dasharray:none"
       d="m 65.906,206.03 c -6.064,0.61 -5.19,8.12 -4.918,12.56 -0.078,11.77 0.027,23.55 0.168,35.32 -9.575,-1.26 -19.138,-3.86 -28.687,-4.66 -5.355,0.65 -6.449,9.22 -0.657,10.16 3.714,1.31 16.884,1.53 14.298,3.45 -8.192,3.73 -17.277,6.05 -25.11,10.26 -4.209,4.13 1.634,11.51 6.715,8.27 10.034,-3.82 19.971,-7.88 29.973,-11.8 -0.948,5.45 -5.76,10.54 -4.75,16.13 2.176,5.65 11.602,4.44 11.781,-2.1 2.515,-6.52 4.795,-13.14 7.25,-19.68 8.975,-3.99 18.702,-6.75 27.406,-11.06 4.355,-3.37 0.735,-10.9 -4.687,-9.07 -7.419,2.66 -14.725,5.77 -22.032,8.63 -0.204,-13.77 -0.199,-27.58 -0.156,-41.28 -0.428,-3.17 -3.454,-5.4 -6.594,-5.13 z"
       inkscape:connector-curvature="0" />
    <g
       id="g3979"
       style="fill:#ffffff;fill-opacity:1;stroke-width:1.84631542;stroke-miterlimit:4;stroke-dasharray:none"
       transform="matrix(0.85527,0.51818,-0.51818,0.85527,22.995,-124.98)">
      <path
         id="path3977"
         style="fill:#ffffff;stroke:#000000;stroke-width:1.84631542;stroke-linecap:round;stroke-linejoin:round;fill-opacity:1;stroke-miterlimit:4;stroke-dasharray:none"
         d="m 280.85,64.552 c -2.42,-10.609 -7.01,-14.965 -9.67,-15.061 -6.36,-0.916 -11.61,2.495 -17.19,4.549 -2.93,1.933 -6.85,3.234 -6.06,14.207 1.37,10.236 5.1,21.739 8.52,31.843 7.11,20.52 17.16,36.95 23.6,36.1 8.37,-0.54 9.47,-24.17 5.16,-50.362 -1.11,-6.905 -2.58,-14.089 -4.36,-21.276 z"
         inkscape:connector-curvature="0" />
      <path
         id="path3971"
         style="fill:#ffffff;stroke:#000000;stroke-width:1.84631542;stroke-linecap:round;stroke-linejoin:round;fill-opacity:1;stroke-miterlimit:4;stroke-dasharray:none"
         d="m 304.51,66.941 c 0.44,-10.872 -2.85,-16.275 -5.4,-17.061 -5.9,-2.544 -11.86,-0.624 -17.78,-0.097 -3.34,1.101 -7.45,1.335 -9.56,12.133 -1.35,10.239 -0.75,22.317 -0.08,32.961 1.51,21.673 6.92,40.153 13.36,41.013 8.22,1.66 15.45,-20.86 18.12,-47.273 0.73,-6.956 1.19,-14.274 1.34,-21.676 z"
         inkscape:connector-curvature="0" />
      <path
         id="path3975"
         style="fill:#ffffff;stroke:#000000;stroke-width:1.84631542;stroke-linecap:round;stroke-linejoin:round;fill-opacity:1;stroke-miterlimit:4;stroke-dasharray:none"
         d="m 326.79,71.713 c 2.69,-10.543 0.6,-16.513 -1.73,-17.813 -5.24,-3.717 -11.47,-3.082 -17.37,-3.8 -3.49,0.382 -7.57,-0.248 -11.88,9.875 -3.45,9.733 -5.38,21.67 -6.95,32.22 -3.03,21.505 -1.59,40.715 4.53,42.895 7.69,3.34 19.45,-17.19 27.57,-42.458 2.16,-6.651 4.13,-13.713 5.83,-20.919 z"
         inkscape:connector-curvature="0" />
    </g>
    <path
       id="path3492"
       style="fill:#ffffff;fill-rule:evenodd;stroke:#000000;stroke-width:1.84631291;stroke-linecap:round;fill-opacity:1;stroke-miterlimit:4;stroke-dasharray:none"
       d="m 155.47,205.34 c -6.85,0.91 -5.71,9.17 -5.19,14.13 -0.45,10.71 -0.05,21.53 -0.34,32.28 -8.15,-2.59 -15.95,-7.69 -24.47,-8.72 -6.46,0.78 -4.69,10.7 1.22,10.72 7.89,3.67 17.36,5.81 24.28,10.44 3.42,7.63 4.82,16.52 9.47,23.43 4.26,3.58 12.11,-1.78 8.78,-6.9 -1.2,-4.86 -8.11,-15.57 1.21,-9.63 9.22,3.21 18.06,8.01 27.51,10.29 6.17,0.06 6.81,-10.02 0.56,-10.47 -7.96,-3.16 -15.92,-6.32 -23.88,-9.47 6.11,-1.92 13.78,-0.49 19.04,-4.41 3.66,-4.12 -2.19,-10.5 -6.85,-8.12 -8.46,1.43 -16.91,2.87 -25.37,4.31 -0.08,-14.9 0.8,-30.01 -0.28,-44.78 -0.99,-2.09 -3.41,-3.33 -5.69,-3.1 z"
       inkscape:connector-curvature="0" />
    <path
       id="path3885"
       style="fill:#ffffff;stroke:#000000;stroke-width:1.84631291;stroke-linecap:round;stroke-linejoin:round;fill-opacity:1;stroke-miterlimit:4;stroke-dasharray:none"
       d="M 220.44,138.82 C 220.46,199.32 171.41,248.39 110.9,248.39 50.394,248.39 1.35,199.32 1.37,138.82 1.3475,78.307 50.394,29.25 110.9,29.25 171.41,29.246 220.46,78.307 220.44,138.82 Z"
       inkscape:connector-curvature="0" />
    <path
       id="path3887"
       style="fill:none;fill-opacity:0.31373004;stroke:#000000;stroke-opacity:1;stroke-width:1.84631291;stroke-miterlimit:4;stroke-dasharray:none"
       d="m 213.82,101.23 c 0.07,1.69 0.12,3.4 0.12,5.1 0,60.46 -49.07,109.53 -109.53,109.53 -47.262,0 -87.591,-30 -102.94,-71.97 2.6565,58.11 50.677,104.47 109.44,104.47 60.46,0 109.53,-49.07 109.53,-109.53 0,-13.2 -2.34,-25.87 -6.62,-37.6 z"
       inkscape:connector-curvature="0" />
    <path
       id="path4090"
       sodipodi:nodetypes="ccss"
       style="fill:#ffffff;fill-rule:evenodd;stroke:#000000;stroke-width:1.84631291;stroke-linecap:round;stroke-linejoin:round;fill-opacity:1;stroke-miterlimit:4;stroke-dasharray:none"
       d="m 115.84,-14.331 -4.93,46.91 c 10.58,-10.454 21.8,-20.153 36.62,-24.271 41.34,-11.482 -11.68,-49.175 -31.69,-22.639 z"
       inkscape:connector-curvature="0" />
    <path
       id="path4092"
       sodipodi:nodetypes="ccss"
       style="fill:#ffffff;fill-rule:evenodd;stroke:#000000;stroke-width:1.84631291;stroke-linecap:round;stroke-linejoin:round;fill-opacity:1;stroke-miterlimit:4;stroke-dasharray:none"
       d="m 100.27,-23.686 8.9,55.895 c 6.96,-15.582 14.73,-30.496 27.52,-40.144 35.65,-26.902 -25.21,-53.043 -36.42,-15.751 z"
       inkscape:connector-curvature="0" />
    <path
       id="path3984"
       style="fill:#ffffff;stroke:#000000;stroke-width:1.84631291;stroke-linecap:round;stroke-linejoin:round;fill-opacity:1;stroke-miterlimit:4;stroke-dasharray:none"
       d="m 183.27,70.761 c 0.01,41.079 -33.29,74.389 -74.37,74.389 -41.078,0 -74.378,-33.31 -74.365,-74.389 -0.013,-41.081 33.287,-74.39 74.365,-74.39 41.08,1e-4 74.38,33.309 74.37,74.39 z"
       inkscape:connector-curvature="0" />
    <g
       id="g4080"
       transform="matrix(1.387,0,0,1.387,-38.099,-19.738)"
       style="stroke-width:1.33115567;stroke-miterlimit:4;stroke-dasharray:none">
      <path
         id="path4014"
         style="fill:#ffffff;stroke:#000000;stroke-width:1.33115567;stroke-linecap:round;stroke-linejoin:round;stroke-miterlimit:4;stroke-dasharray:none"
         d="m 142.82,56.167 c 0,8.48 -6.87,15.356 -15.35,15.356 -8.48,0 -15.36,-6.876 -15.35,-15.356 -0.01,-8.481 6.87,-15.357 15.35,-15.357 8.48,0 15.35,6.876 15.35,15.357 z"
         inkscape:connector-curvature="0" />
      <path
         id="path4016"
         style="fill:#000000;stroke-width:1.33115567;stroke-miterlimit:4;stroke-dasharray:none"
         d="m 129.17,58.876 c 0,2.827 -2.29,5.119 -5.11,5.119 -2.83,0 -5.12,-2.292 -5.12,-5.119 0,-2.826 2.29,-5.118 5.12,-5.118 2.82,0 5.11,2.292 5.11,5.118 z"
         inkscape:connector-curvature="0" />
    </g>
    <g
       id="g4084"
       transform="matrix(1.387,0,0,1.387,-46.743,-19.738)"
       style="stroke-width:1.33115567;stroke-miterlimit:4;stroke-dasharray:none">
      <path
         id="path4012"
         style="fill:#ffffff;stroke:#000000;stroke-width:1.33115567;stroke-linecap:round;stroke-linejoin:round;stroke-miterlimit:4;stroke-dasharray:none"
         d="m 107.1,56.167 c 0,8.48 -6.87,15.356 -15.353,15.356 -8.481,0 -15.354,-6.876 -15.352,-15.356 -0.002,-8.481 6.871,-15.357 15.352,-15.357 8.483,0 15.353,6.876 15.353,15.357 z"
         inkscape:connector-curvature="0" />
      <path
         id="path4018"
         style="fill:#000000;stroke-width:1.33115567;stroke-miterlimit:4;stroke-dasharray:none"
         d="m 100.7,58.876 c 0,2.827 -2.289,5.119 -5.115,5.119 -2.827,0 -5.118,-2.292 -5.118,-5.119 0,-2.826 2.291,-5.118 5.118,-5.118 2.826,0 5.115,2.292 5.115,5.118 z"
         inkscape:connector-curvature="0" />
    </g>
    <path
       id="path3454"
       sodipodi:nodetypes="cccc"
       style="fill:#ffffff;fill-opacity:1;fill-rule:evenodd;stroke:#000000;stroke-width:2.03094411;stroke-linecap:round;stroke-linejoin:round;stroke-miterlimit:4;stroke-dasharray:none"
       d="m 86.1409,108.32003 20.2752,47.762 22.286,-42.878 c -7.711,-19.486505 -31.1157,-21.950505 -42.5612,-4.884 z"
       inkscape:connector-curvature="0" />
    <path
       id="path4088"
       sodipodi:nodetypes="cccc"
       style="fill:#ffffff;fill-opacity:1;fill-rule:evenodd;stroke:#000000;stroke-width:2.03094411;stroke-linecap:round;stroke-linejoin:round;stroke-miterlimit:4;stroke-dasharray:none"
       d="m 80.9929,94.329125 13.9821,55.471905 35.8501,-39.985 C 125.7761,87.312225 98.3388,79.031425 80.9929,94.329125 Z"
       inkscape:connector-curvature="0" />
    <path
       id="path4094"
       sodipodi:nodetypes="ccss"
       style="fill:#ffffff;fill-rule:evenodd;stroke:#000000;stroke-width:1.84631291;stroke-linecap:round;stroke-linejoin:round;fill-opacity:1;stroke-miterlimit:4;stroke-dasharray:none"
       d="m 80.725,-28.776 27.315,61.722 c 1.27,-18.072 3.54,-35.471 12.31,-47.438 24.45,-33.367 -41.709,-57.036 -39.625,-14.284 z"
       inkscape:connector-curvature="0" />
  </g>
  <metadata
     id="metadata25">
    <rdf:RDF>
      <cc:Work>
        <dc:format>image/svg+xml</dc:format>
        <dc:type
           rdf:resource="http://purl.org/dc/dcmitype/StillImage" />
        <cc:license
           rdf:resource="http://creativecommons.org/publicdomain/zero/1.0/" />
        <dc:publisher>
          <cc:Agent
             rdf:about="http://openclipart.org/">
            <dc:title>Openclipart</dc:title>
          </cc:Agent>
        </dc:publisher>
        <dc:title></dc:title>
        <dc:date>2009-05-14T16:33:16</dc:date>
        <dc:description>lemmling's cow base; pitr's chicken beak and feet</dc:description>
        <dc:source>https://openclipart.org/detail/26012/chicken-roundcartoon-by-bloodsong</dc:source>
        <dc:creator>
          <cc:Agent>
            <dc:title>bloodsong</dc:title>
          </cc:Agent>
        </dc:creator>
        <dc:subject>
          <rdf:Bag>
            <rdf:li>animal</rdf:li>
            <rdf:li>bird</rdf:li>
            <rdf:li>cartoon</rdf:li>
            <rdf:li>chicken</rdf:li>
            <rdf:li>colour</rdf:li>
            <rdf:li>hen</rdf:li>
            <rdf:li>outline</rdf:li>
            <rdf:li>remix</rdf:li>
          </rdf:Bag>
        </dc:subject>
      </cc:Work>
      <cc:License
         rdf:about="http://creativecommons.org/publicdomain/zero/1.0/">
        <cc:permits
           rdf:resource="http://creativecommons.org/ns#Reproduction" />
        <cc:permits
           rdf:resource="http://creativecommons.org/ns#Distribution" />
        <cc:permits
           rdf:resource="http://creativecommons.org/ns#DerivativeWorks" />
      </cc:License>
    </rdf:RDF>
  </metadata>
</svg>
