<?xml version="1.0" encoding="UTF-8" standalone="no"?>
<!-- Created with Inkscape (http://www.inkscape.org/) -->

<svg
   xmlns:dc="http://purl.org/dc/elements/1.1/"
   xmlns:cc="http://creativecommons.org/ns#"
   xmlns:rdf="http://www.w3.org/1999/02/22-rdf-syntax-ns#"
   xmlns:svg="http://www.w3.org/2000/svg"
   xmlns="http://www.w3.org/2000/svg"
   xmlns:sodipodi="http://sodipodi.sourceforge.net/DTD/sodipodi-0.dtd"
   xmlns:inkscape="http://www.inkscape.org/namespaces/inkscape"
   id="svg2"
   sodipodi:docname="bloodsong-Pig-RoundCartoon.adapted.svg"
   viewBox="0 0 566.3064 590.69293"
   sodipodi:version="0.32"
   version="1.0"
   inkscape:output_extension="org.inkscape.output.svg.inkscape"
   inkscape:version="0.92.3 (2405546, 2018-03-11)"
   width="566.3064"
   height="590.69293">
  <defs
     id="defs31" />
  <sodipodi:namedview
     id="base"
     bordercolor="#666666"
     inkscape:pageshadow="2"
     guidetolerance="10.0"
     pagecolor="#ffffff"
     gridtolerance="10.0"
     inkscape:zoom="1.9976538"
     objecttolerance="10.0"
     borderopacity="1.0"
     inkscape:current-layer="g4340"
     inkscape:cx="194.54926"
     inkscape:cy="295.34647"
     inkscape:window-y="-9"
     inkscape:window-x="-9"
     inkscape:window-height="1373"
     showgrid="false"
     inkscape:pageopacity="0.0"
     inkscape:window-width="2560"
     inkscape:window-maximized="1"
     fit-margin-top="50"
     fit-margin-left="50"
     fit-margin-right="50"
     fit-margin-bottom="50" />
  <g
     id="g4340"
     inkscape:export-ydpi="87.989998"
     inkscape:export-xdpi="87.989998"
     inkscape:export-filename="C:\D\GFX\Inkscape\InkscapeWORK\PIGicon.png"
     transform="matrix(1.78086,0,0,1.86148,1028.2442,69.321169)">
    <path
       id="path2980"
       style="text-indent:0;text-transform:none;fill:#ffffff;stroke:#000000;stroke-width:1.09846423;fill-opacity:1;stroke-miterlimit:4;stroke-dasharray:none"
       d="m -304.78,60.334 c -2.75,-0.061 -5.53,0.538 -8.06,1.876 -1.18,0.622 -1.61,2.052 -0.97,3.195 0.64,1.143 2.11,1.565 3.29,0.942 5.66,-2.99 13.16,-0.809 16.1,5.343 2.63,5.482 0.71,12.697 -4.52,16.927 -0.04,-1.81 -0.26,-3.606 -0.81,-5.333 -2.78,-8.667 -11.44,-12.996 -18.34,-10.289 -7.15,2.809 -9.03,11.917 -3.89,18.059 0.28,0.336 0.58,0.657 0.88,0.965 -2.48,-1.044 -5.17,-1.26 -7.65,-0.358 -3.12,1.132 -5.16,3.8 -5.63,6.739 -0.47,2.9 0.54,6.07 2.99,8.52 -2.39,-0.99 -5.03,-1.13 -7.42,-0.12 -5.5,2.34 -6.74,9.64 -2.4,14.26 2.26,2.39 5.47,3.72 8.96,3.94 -0.54,0.5 -1.1,0.97 -1.76,1.34 -3.69,2.08 -8.18,1.13 -10.07,-1.36 -0.51,-0.69 -1.36,-1.05 -2.23,-0.96 -0.87,0.09 -1.62,0.63 -1.96,1.4 -0.35,0.78 -0.24,1.68 0.29,2.36 3.58,4.71 10.73,5.82 16.4,2.63 2.69,-1.52 4.66,-3.78 5.89,-6.33 1.49,-0.5 2.97,-1.14 4.36,-2.06 4.56,-3 7.47,-7.65 8.43,-12.54 1.48,-0.6 2.93,-1.31 4.32,-2.27 4.48,-3.1 7.49,-7.624 8.85,-12.469 0.62,-0.302 1.24,-0.623 1.84,-0.993 8.43,-5.197 11.86,-15.687 7.86,-24.044 -2.81,-5.88 -8.7,-9.236 -14.75,-9.37 z m -8.31,16.633 c 3.39,0.331 7.16,2.862 8.71,7.715 0.66,2.063 0.75,4.345 0.4,6.629 -5.49,1.731 -11.34,0.267 -14.25,-3.218 -3.38,-4.044 -2.14,-9.119 1.96,-10.73 0.96,-0.375 2.05,-0.506 3.18,-0.396 z m -3.67,18.077 c 3.32,1.59 7.23,2.098 11.15,1.49 -1.3,2.654 -3.23,5.076 -5.79,6.836 -0.4,0.28 -0.81,0.49 -1.23,0.72 -0.1,-0.95 -0.28,-1.89 -0.54,-2.81 -0.72,-2.509 -2.01,-4.586 -3.59,-6.236 z m -9.16,0.782 c 2.81,-0.236 6.69,1.833 8.08,6.704 0.31,1.07 0.41,2.22 0.4,3.39 -4.25,0.86 -8.29,-0.12 -10.43,-2.21 -1.53,-1.48 -1.96,-3.16 -1.73,-4.574 0.23,-1.412 1.06,-2.528 2.55,-3.071 0.35,-0.127 0.73,-0.205 1.13,-0.239 z m -1.77,13.634 c 2.74,1.31 5.97,1.82 9.32,1.45 -1.07,2.83 -3,5.45 -5.68,7.2 -0.08,0.06 -0.16,0.09 -0.24,0.14 0.02,-1.43 -0.16,-2.86 -0.61,-4.24 -0.59,-1.8 -1.59,-3.31 -2.79,-4.55 z m -7.26,1.36 c 2.08,0.15 4.44,1.62 5.43,4.63 0.48,1.44 0.49,3.08 0.11,4.67 -3.39,0.47 -6.55,-0.47 -8.22,-2.25 -2.45,-2.6 -1.65,-5.72 0.77,-6.75 0.57,-0.24 1.22,-0.35 1.91,-0.3 z"
       inkscape:connector-curvature="0" />
    <path
       id="path2383"
       style="fill:#ffffff;stroke:#000000;stroke-width:1.09846423;stroke-linecap:round;stroke-linejoin:round;fill-opacity:1;stroke-miterlimit:4;stroke-dasharray:none"
       d="m -328.24,131.26 c 0.02,60.51 -49.03,109.57 -109.53,109.57 -60.51,0 -109.56,-49.06 -109.54,-109.57 -0.02,-60.511 49.03,-109.57 109.54,-109.57 60.5,-0.002 109.55,49.059 109.53,109.57 z"
       inkscape:connector-curvature="0" />
    <path
       id="path3221"
       style="fill:#ffffff;fill-opacity:1;stroke:#000000;stroke-opacity:1;stroke-width:1.09846423;stroke-miterlimit:4;stroke-dasharray:none"
       d="m -334.86,93.677 c 0.08,1.681 0.13,3.393 0.13,5.093 0,60.46 -49.07,109.53 -109.54,109.53 -47.26,0 -87.59,-30 -102.93,-71.97 2.65,58.12 50.67,104.47 109.43,104.47 60.47,0 109.54,-49.07 109.54,-109.53 0,-13.2 -2.34,-25.87 -6.63,-37.593 z"
       inkscape:connector-curvature="0" />
    <path
       id="path3172"
       style="fill:#ffffff;stroke:#000000;stroke-width:1.09846423;stroke-linecap:round;stroke-linejoin:round;fill-opacity:1;stroke-miterlimit:4;stroke-dasharray:none"
       d="m -429.59,241.83 c 0,9.09 14.66,9.38 32.73,9.38 18.07,0 32.74,0.69 32.74,-9.38 0,-17.72 -14.67,-32.1 -32.74,-32.1 -18.07,0 -32.73,14.38 -32.73,32.1 z"
       inkscape:connector-curvature="0" />
    <path
       id="path3174"
       style="fill:#ffffff;fill-opacity:1;fill-rule:evenodd;stroke:#000000;stroke-width:1.09846425;stroke-linejoin:round;stroke-miterlimit:4;stroke-dasharray:none"
       d="m -384.27,250.61 c 0,-16.37 -9.44,-26.44 -9.44,-26.44 0,0 3.78,13.85 3.15,26.44 z"
       inkscape:connector-curvature="0" />
    <path
       id="path3329"
       style="fill:#ffffff;stroke:#000000;stroke-width:1.09846423;stroke-linecap:round;stroke-linejoin:round;fill-opacity:1;stroke-miterlimit:4;stroke-dasharray:none"
       d="m -444.59,241.83 c 0,9.09 -14.67,9.38 -32.74,9.38 -18.07,0 -32.73,0.69 -32.73,-9.38 0,-17.72 14.66,-32.1 32.73,-32.1 18.07,0 32.74,14.38 32.74,32.1 z"
       inkscape:connector-curvature="0" />
    <path
       id="path3331"
       style="fill:#ffffff;fill-opacity:1;fill-rule:evenodd;stroke:#000000;stroke-width:1.09846425;stroke-linejoin:round;stroke-miterlimit:4;stroke-dasharray:none"
       d="m -489.92,250.61 c 0,-16.37 9.45,-26.44 9.45,-26.44 0,0 -3.78,13.85 -3.15,26.44 z"
       inkscape:connector-curvature="0" />
    <g
       id="g4318"
       transform="matrix(-1,0,0,1,-875.44,0)"
       style="fill:#ffffff;fill-opacity:1;stroke-width:1.09846423;stroke-miterlimit:4;stroke-dasharray:none">
      <path
         id="path4320"
         d="m -411.77,11.248 c -7.04,6.405 0.53,16.456 10.13,28.588 9.6,12.132 16.85,22.466 24.65,15.368 13.72,-12.482 33.1,-47.06 23.5,-59.191 -9.6,-12.132 -44.56,2.7529 -58.28,15.235 z"
         sodipodi:nodetypes="csssc"
         style="fill:#ffffff;stroke:#000000;stroke-width:1.09846423;stroke-linecap:round;stroke-linejoin:round;fill-opacity:1;stroke-miterlimit:4;stroke-dasharray:none"
         inkscape:connector-curvature="0" />
      <path
         id="path4322"
         style="fill:#ffffff;stroke:#000000;stroke-width:1.09846423;stroke-linecap:round;stroke-linejoin:round;fill-opacity:1;stroke-miterlimit:4;stroke-dasharray:none"
         d="m -385.22,9.4402 c 5.45,-3.9877 19.6,-6.9172 27.9,-8.2992"
         inkscape:connector-curvature="0" />
    </g>
    <g
       id="g4314"
       style="fill:#ffffff;fill-opacity:1;stroke-width:1.09846423;stroke-miterlimit:4;stroke-dasharray:none">
      <path
         id="path4310"
         sodipodi:nodetypes="csssc"
         style="fill:#ffffff;stroke:#000000;stroke-width:1.09846423;stroke-linecap:round;stroke-linejoin:round;fill-opacity:1;stroke-miterlimit:4;stroke-dasharray:none"
         d="m -411.77,11.248 c -7.04,6.405 0.53,16.456 10.13,28.588 9.6,12.132 16.85,22.466 24.65,15.368 13.72,-12.482 33.1,-47.06 23.5,-59.191 -9.6,-12.132 -44.56,2.7529 -58.28,15.235 z"
         inkscape:connector-curvature="0" />
      <path
         id="path4312"
         style="fill:#ffffff;stroke:#000000;stroke-width:1.09846423;stroke-linecap:round;stroke-linejoin:round;fill-opacity:1;stroke-miterlimit:4;stroke-dasharray:none"
         d="m -385.22,9.4402 c 5.45,-3.9877 19.6,-6.9172 27.9,-8.2992"
         inkscape:connector-curvature="0" />
    </g>
    <path
       id="path4252"
       style="fill:#ffffff;stroke:#000000;stroke-width:1.09846423;stroke-linecap:round;stroke-linejoin:round;fill-opacity:1;stroke-miterlimit:4;stroke-dasharray:none"
       d="m -354.4,76.488 c 0.02,45.652 -37.32,82.672 -83.37,82.672 -46.06,0 -83.39,-37.02 -83.38,-82.672 -0.01,-45.653 37.32,-82.669 83.38,-82.669 46.05,-10e-5 83.39,37.016 83.37,82.669 z"
       inkscape:connector-curvature="0" />
    <path
       id="path4250"
       style="fill:#ffffff;stroke:#000000;stroke-width:1.09846423;stroke-linecap:round;stroke-linejoin:round;fill-opacity:1;stroke-miterlimit:4;stroke-dasharray:none"
       d="m -402.31,115.51 c 0.01,15.52 -15.87,28.1 -35.46,28.1 -19.6,0 -35.48,-12.58 -35.47,-28.1 -0.01,-15.516 15.87,-28.098 35.47,-28.098 19.59,0 35.47,12.582 35.46,28.098 z"
       inkscape:connector-curvature="0" />
    <g
       id="g4275"
       transform="matrix(1.387,0,0,1.387,-586.34,-23.02)"
       style="stroke-width:0.79197133;stroke-miterlimit:4;stroke-dasharray:none">
      <path
         id="path4277"
         style="fill:#ffffff;stroke:#000000;stroke-width:0.79197133;stroke-linecap:round;stroke-linejoin:round;stroke-miterlimit:4;stroke-dasharray:none"
         d="m 142.82,56.167 c 0,8.48 -6.87,15.356 -15.35,15.356 -8.48,0 -15.36,-6.876 -15.35,-15.356 -0.01,-8.481 6.87,-15.357 15.35,-15.357 8.48,0 15.35,6.876 15.35,15.357 z"
         inkscape:connector-curvature="0" />
      <path
         id="path4279"
         style="fill:#000000;stroke-width:0.79197133;stroke-miterlimit:4;stroke-dasharray:none"
         d="m 129.17,58.876 c 0,2.827 -2.29,5.119 -5.11,5.119 -2.83,0 -5.12,-2.292 -5.12,-5.119 0,-2.826 2.29,-5.118 5.12,-5.118 2.82,0 5.11,2.292 5.11,5.118 z"
         inkscape:connector-curvature="0" />
    </g>
    <g
       id="g4281"
       transform="matrix(1.387,0,0,1.387,-594.99,-23.02)"
       style="stroke-width:0.79197133;stroke-miterlimit:4;stroke-dasharray:none">
      <path
         id="path4283"
         style="fill:#ffffff;stroke:#000000;stroke-width:0.79197133;stroke-linecap:round;stroke-linejoin:round;stroke-miterlimit:4;stroke-dasharray:none"
         d="m 107.1,56.167 c 0,8.48 -6.87,15.356 -15.353,15.356 -8.481,0 -15.354,-6.876 -15.352,-15.356 -0.002,-8.481 6.871,-15.357 15.352,-15.357 8.483,0 15.353,6.876 15.353,15.357 z"
         inkscape:connector-curvature="0" />
      <path
         id="path4285"
         style="fill:#000000;stroke-width:0.79197133;stroke-miterlimit:4;stroke-dasharray:none"
         d="m 100.7,58.876 c 0,2.827 -2.289,5.119 -5.115,5.119 -2.827,0 -5.118,-2.292 -5.118,-5.119 0,-2.826 2.291,-5.118 5.118,-5.118 2.826,0 5.115,2.292 5.115,5.118 z"
         inkscape:connector-curvature="0" />
    </g>
    <path
       id="path4328"
       style="fill:#000000;stroke-width:1.09846423;stroke-miterlimit:4;stroke-dasharray:none"
       d="m -415.18,113.97 c 0.01,3.92 -3.17,7.1 -7.09,7.1 -3.92,0 -7.1,-3.18 -7.1,-7.1 0,-3.92 3.18,-7.1 7.1,-7.1 3.92,0 7.1,3.18 7.09,7.1 z"
       inkscape:connector-curvature="0" />
    <path
       id="path4334"
       style="fill:#000000;stroke-width:1.09846423;stroke-miterlimit:4;stroke-dasharray:none"
       d="m -447.31,113.97 c 0,3.92 -3.18,7.1 -7.1,7.1 -3.92,0 -7.1,-3.18 -7.1,-7.1 0,-3.92 3.18,-7.1 7.1,-7.1 3.92,0 7.1,3.18 7.1,7.1 z"
       inkscape:connector-curvature="0" />
  </g>
  <metadata
     id="metadata28">
    <rdf:RDF>
      <cc:Work>
        <dc:format>image/svg+xml</dc:format>
        <dc:type
           rdf:resource="http://purl.org/dc/dcmitype/StillImage" />
        <cc:license
           rdf:resource="http://creativecommons.org/publicdomain/zero/1.0/" />
        <dc:publisher>
          <cc:Agent
             rdf:about="http://openclipart.org/">
            <dc:title>Openclipart</dc:title>
          </cc:Agent>
        </dc:publisher>
        <dc:title />
        <dc:date>2009-05-14T16:30:50</dc:date>
        <dc:description>lemmling's cow, recoloured; kattekrab's pig tail; linuxian's pig head as source</dc:description>
        <dc:source>https://openclipart.org/detail/26011/pig-roundcartoon-by-bloodsong</dc:source>
        <dc:creator>
          <cc:Agent>
            <dc:title>bloodsong</dc:title>
          </cc:Agent>
        </dc:creator>
        <dc:subject>
          <rdf:Bag>
            <rdf:li>animal</rdf:li>
            <rdf:li>cartoon</rdf:li>
            <rdf:li>colour</rdf:li>
            <rdf:li>icon</rdf:li>
            <rdf:li>outline</rdf:li>
            <rdf:li>pig</rdf:li>
            <rdf:li>remix</rdf:li>
          </rdf:Bag>
        </dc:subject>
      </cc:Work>
      <cc:License
         rdf:about="http://creativecommons.org/publicdomain/zero/1.0/">
        <cc:permits
           rdf:resource="http://creativecommons.org/ns#Reproduction" />
        <cc:permits
           rdf:resource="http://creativecommons.org/ns#Distribution" />
        <cc:permits
           rdf:resource="http://creativecommons.org/ns#DerivativeWorks" />
      </cc:License>
    </rdf:RDF>
  </metadata>
</svg>
