<?xml version="1.0" encoding="UTF-8" standalone="no"?>
<!-- Created with Inkscape (http://www.inkscape.org/) -->

<svg
   xmlns:dc="http://purl.org/dc/elements/1.1/"
   xmlns:cc="http://creativecommons.org/ns#"
   xmlns:rdf="http://www.w3.org/1999/02/22-rdf-syntax-ns#"
   xmlns:svg="http://www.w3.org/2000/svg"
   xmlns="http://www.w3.org/2000/svg"
   xmlns:sodipodi="http://sodipodi.sourceforge.net/DTD/sodipodi-0.dtd"
   xmlns:inkscape="http://www.inkscape.org/namespaces/inkscape"
   id="svg3511"
   sodipodi:docname="Eid-Sheep1.adapted.svg"
   viewBox="0 0 379.18 376.76"
   version="1.1"
   inkscape:version="0.91 r13725">
  <defs
     id="defs4228" />
  <sodipodi:namedview
     id="base"
     fit-margin-left="1"
     inkscape:zoom="2.1728723"
     borderopacity="1.0"
     inkscape:current-layer="layer1"
     inkscape:cx="101.87598"
     inkscape:cy="187.25043"
     inkscape:window-maximized="1"
     showgrid="false"
     fit-margin-right="1"
     units="cm"
     inkscape:document-units="mm"
     bordercolor="#666666"
     inkscape:window-x="-8"
     inkscape:window-y="-8"
     fit-margin-bottom="1"
     inkscape:window-width="2048"
     inkscape:pageopacity="0.0"
     inkscape:pageshadow="2"
     pagecolor="#ffffff"
     inkscape:window-height="1099"
     fit-margin-top="1" />
  <g
     id="layer1"
     inkscape:label="Layer 1"
     inkscape:groupmode="layer"
     transform="translate(-210.37 -192.27)">
    <ellipse
       ry="14.765786"
       rx="136.58353"
       cy="518.83331"
       cx="417.52649"
       style="fill:none;stroke:#000000;stroke-opacity:1;stroke-width:3.6;stroke-miterlimit:4;stroke-dasharray:none"
       id="path4400" />
    <ellipse
       ry="78.258362"
       rx="8.8594379"
       cy="311.85754"
       cx="482.51053"
       transform="matrix(0.95123368,0.30847119,-0.30847119,0.95123368,0,0)"
       style="fill:#ffffff;stroke:#000000;stroke-width:3.5999999;stroke-linecap:round;stroke-linejoin:round"
       id="path4375" />
    <ellipse
       ry="78.258362"
       rx="8.8594379"
       cy="304.05942"
       cx="506.55774"
       transform="matrix(0.95123368,0.30847119,-0.30847119,0.95123368,0,0)"
       style="fill:#ffffff;stroke:#000000;stroke-width:3.5999999;stroke-linecap:round;stroke-linejoin:round"
       id="path4377" />
    <ellipse
       ry="78.258598"
       rx="8.8594646"
       cy="508.66989"
       cx="390.6937"
       transform="matrix(0.98814086,-0.15355013,0.15355013,0.98814086,0,0)"
       style="fill:#ffffff;stroke:#000000;stroke-width:3.5999999;stroke-linecap:round;stroke-linejoin:round"
       id="path4379" />
    <ellipse
       ry="78.258598"
       rx="8.8594646"
       cy="512.47797"
       cx="415.19958"
       transform="matrix(0.98814086,-0.15355013,0.15355013,0.98814086,0,0)"
       style="fill:#ffffff;stroke:#000000;stroke-width:3.5999999;stroke-linecap:round;stroke-linejoin:round"
       id="path4381" />
    <path
       inkscape:connector-curvature="0"
       style="fill:#ffffff;stroke:#000000;stroke-width:3.6;stroke-linecap:round;stroke-linejoin:round;stroke-miterlimit:4;stroke-dasharray:none"
       sodipodi:nodetypes="scscscsscscscsscssccscscsscsscscscsscscs"
       d="m 444.12,255.32 c -8.8362,0 -16.556,4.7937 -20.719,11.906 -4.358,-6.0257 -11.433,-9.9375 -19.438,-9.9375 -9.9371,0 -18.452,6.0458 -22.094,14.656 -4.2962,-6.4744 -11.679,-10.75 -20.031,-10.75 -12.726,0 -23.104,9.9139 -23.906,22.438 -3.3759,-1.8135 -7.2433,-2.8438 -11.344,-2.8438 -13.249,0 -23.969,10.751 -23.969,24 0,1.862 0.19235,3.6662 0.59375,5.4062 -12.848,0.4559 -23.125,11.009 -23.125,23.969 0,7.8822 3.7868,14.877 9.6562,19.25 -12.035,1.2879 -21.406,11.435 -21.406,23.812 0,11.426 7.9915,20.991 18.688,23.406 -3.693,4.2196 -5.9688,9.7333 -5.9688,15.781 0,13.249 10.751,23.969 24,23.969 5.3826,0 10.341,-1.7566 14.344,-4.75 -0.71978,2.2809 -1.125,4.7 -1.125,7.2188 0,13.249 10.751,23.969 24,23.969 6.1821,0 11.809,-2.3545 16.062,-6.1875 1.3296,0.5514 2.6721,1.0852 4.0312,1.5938 0.41899,12.883 10.985,23.219 23.969,23.219 9.9962,0 18.551,-6.1202 22.156,-14.812 3.0664,9.7172 12.144,16.75 22.875,16.75 11.724,0 21.47,-8.3843 23.562,-19.5 3.4061,9.1034 12.177,15.594 22.469,15.594 13.25,0 24,-10.751 24,-24 0,-2.4843 -0.3928,-4.8714 -1.0937,-7.125 3.9904,2.9616 8.9614,4.6875 14.312,4.6875 13.249,0 23.969,-10.751 23.969,-24 0,-6.0353 -2.2271,-11.534 -5.9063,-15.75 10.681,-2.4262 18.656,-11.991 18.656,-23.406 0,-9.2736 -5.2678,-17.32 -12.969,-21.312 8.2232,-3.8046 13.938,-12.125 13.938,-21.781 0,-12.612 -9.7294,-22.91 -22.094,-23.875 0.9856,-2.624 1.5312,-5.4691 1.5312,-8.4375 0,-13.249 -10.751,-23.969 -24,-23.969 -1.862,0 -3.6661,0.19235 -5.4062,0.59375 -0.4559,-12.848 -11.009,-23.125 -23.969,-23.125 -3.8662,0 -7.5156,0.93799 -10.75,2.5625 -2.2138,-10.962 -11.885,-19.219 -23.5,-19.219 z"
       id="path3563" />
    <g
       transform="translate(100.78,-96.462)"
       id="g4390">
      <path
         d="m 358.11,450.31 c 5.3105,24.786 -5.5195,40.505 -24.189,35.11 -18.67,-5.3952 -11.257,-31.396 -16.567,-56.182 -5.3105,-24.786 -21.333,-38.971 -2.6635,-33.576 18.67,5.3952 38.11,29.862 43.42,54.648 z"
         inkscape:connector-curvature="0"
         style="fill:#ffffff;stroke:#000000;stroke-width:4.25500011;stroke-linecap:round;stroke-linejoin:round"
         sodipodi:nodetypes="sssss"
         id="path4385" />
      <path
         inkscape:connector-curvature="0"
         style="fill:#ffffff;stroke:#000000;stroke-width:4.25500011;stroke-linecap:round;stroke-linejoin:round"
         sodipodi:nodetypes="sssss"
         d="m 149.17,449.15 c -6.5429,24.49 3.4877,40.731 22.404,36.276 18.916,-4.4551 12.812,-30.794 19.355,-55.283 6.5429,-24.49 23.255,-37.856 4.3387,-33.401 -18.916,4.4551 -39.555,27.919 -46.098,52.409 z"
         id="path4388" />
      <path
         d="m 312.69,446.95 c 0,47.59 -26.304,68.169 -58.752,68.169 -32.448,0 -58.752,-20.579 -58.752,-68.169 0,-47.59 26.304,-104.17 58.752,-104.17 32.448,0 58.752,56.579 58.752,104.17 z"
         inkscape:connector-curvature="0"
         style="fill:#ffffff;stroke:#000000;stroke-width:3.5999999;stroke-linecap:round;stroke-linejoin:round"
         sodipodi:nodetypes="sssss"
         id="path3568" />
      <ellipse
         ry="27.906977"
         rx="33.782131"
         cy="714.05127"
         cx="61.199509"
         transform="translate(154.07,-319.86)"
         style="fill:#ffffff;stroke:#000000;stroke-width:3.5999999;stroke-linecap:round;stroke-linejoin:round"
         id="path3571" />
      <circle
         r="36.23011"
         cy="708.66571"
         cx="143.94125"
         transform="translate(142.31,-313)"
         style="fill:#ffffff;stroke:#000000;stroke-width:3.5999999;stroke-linecap:round;stroke-linejoin:round"
         id="path3573" />
      <path
         d="m 226.94,482.41 c 7.07,7.1232 15.818,10.406 25.406,10.406 7.0217,0 13.593,-1.7639 19.375,-5.5 l 1.5312,2.625 c -6.2766,4.0204 -13.402,6 -20.906,6 -1.1115,0 -2.2182,-0.039 -3.3125,-0.125 -0.7534,7.1038 -0.27662,13.206 3.625,17.344 l -2.625,2.4688 c -5.0042,-5.3069 -5.3819,-12.673 -4.5625,-20.25 -7.6211,-1.2884 -14.673,-4.7876 -20.562,-10.625 0.67575,-0.78775 1.3579,-1.5629 2.0312,-2.3438 z"
         inkscape:connector-curvature="0"
         style="color:#000000;text-indent:0;text-transform:none;block-progression:tb;fill:#000000"
         id="path3575" />
      <path
         d="m 235.51,400.45 c 0,4.4852 -3.636,8.1212 -8.1212,8.1212 -4.4852,0 -8.1212,-3.636 -8.1212,-8.1212 0,-4.4852 3.636,-8.1212 8.1212,-8.1212 4.4852,0 8.1212,3.636 8.1212,8.1212 z"
         inkscape:connector-curvature="0"
         style="fill:#000000;stroke:#000000;stroke-width:3.5999999;stroke-linecap:round;stroke-linejoin:round"
         id="path4370" />
      <path
         d="m 276.86,399.71 c 0,4.4852 -3.636,8.1212 -8.1212,8.1212 -4.4852,0 -8.1212,-3.636 -8.1212,-8.1212 0,-4.4852 3.636,-8.1212 8.1212,-8.1212 4.4852,0 8.1212,3.636 8.1212,8.1212 z"
         inkscape:connector-curvature="0"
         style="fill:#000000;stroke:#000000;stroke-width:3.5999999;stroke-linecap:round;stroke-linejoin:round"
         id="path4373" />
    </g>
    <path
       sodipodi:nodetypes="cccc"
       inkscape:connector-curvature="0"
       inkscape:transform-center-x="2.5555474"
       d="m 401.76,395.65 c 4.2945,-11.326 0.26152,-21.183 -7.4344,-30.159 6.3381,1.553 16.178,3.6681 14.563,12.829 -1.131,6.661 -3.9285,12.893 -7.1282,17.33 z"
       style="fill:#ffffff;stroke:#000000;stroke-width:3.5999999"
       id="path4406" />
    <path
       id="path3097"
       sodipodi:nodetypes="ccc"
       d="m395.18 358.26c-10.165-1.6656-12.959 9.2095-10.004 15.892-10.013-10.346-2.8929-22.27 10.004-15.892z"
       style="fill:#000000"
       inkscape:connector-curvature="0" />
  </g>
  <metadata
     id="metadata4226">
    <rdf:RDF>
      <cc:Work>
        <dc:format>image/svg+xml</dc:format>
        <dc:type
           rdf:resource="http://purl.org/dc/dcmitype/StillImage" />
        <cc:license
           rdf:resource="http://creativecommons.org/licenses/publicdomain/" />
        <dc:publisher>
          <cc:Agent
             rdf:about="http://openclipart.org/">
            <dc:title>Openclipart</dc:title>
          </cc:Agent>
        </dc:publisher>
        <dc:title></dc:title>
        <dc:date>2013-03-04T23:15:55</dc:date>
        <dc:description />
        <dc:source>https://openclipart.org/detail/175473/eid-sheep-1-by-serioustux-175473</dc:source>
        <dc:creator>
          <cc:Agent>
            <dc:title>SeriousTux</dc:title>
          </cc:Agent>
        </dc:creator>
        <dc:subject>
          <rdf:Bag>
            <rdf:li>Eid</rdf:li>
            <rdf:li>Sheep</rdf:li>
          </rdf:Bag>
        </dc:subject>
      </cc:Work>
      <cc:License
         rdf:about="http://creativecommons.org/licenses/publicdomain/">
        <cc:permits
           rdf:resource="http://creativecommons.org/ns#Reproduction" />
        <cc:permits
           rdf:resource="http://creativecommons.org/ns#Distribution" />
        <cc:permits
           rdf:resource="http://creativecommons.org/ns#DerivativeWorks" />
      </cc:License>
    </rdf:RDF>
  </metadata>
</svg>
