<?xml version="1.0" encoding="UTF-8" standalone="no"?>
<!-- Created with Inkscape (http://www.inkscape.org/) -->

<svg
   xmlns:dc="http://purl.org/dc/elements/1.1/"
   xmlns:cc="http://creativecommons.org/ns#"
   xmlns:rdf="http://www.w3.org/1999/02/22-rdf-syntax-ns#"
   xmlns:svg="http://www.w3.org/2000/svg"
   xmlns="http://www.w3.org/2000/svg"
   xmlns:sodipodi="http://sodipodi.sourceforge.net/DTD/sodipodi-0.dtd"
   xmlns:inkscape="http://www.inkscape.org/namespaces/inkscape"
   id="svg3511"
   sodipodi:docname="Eid-Sheep1.adapted.svg"
   viewBox="0 0 600.00001 599.99998"
   version="1.1"
   inkscape:version="0.92.3 (2405546, 2018-03-11)"
   width="600"
   height="600">
  <defs
     id="defs4228" />
  <sodipodi:namedview
     id="base"
     fit-margin-left="1"
     inkscape:zoom="0.98333333"
     borderopacity="1.0"
     inkscape:current-layer="g4390"
     inkscape:cx="818.32566"
     inkscape:cy="170.31686"
     inkscape:window-maximized="1"
     showgrid="false"
     fit-margin-right="1"
     units="cm"
     inkscape:document-units="mm"
     bordercolor="#666666"
     inkscape:window-x="-9"
     inkscape:window-y="-9"
     fit-margin-bottom="1"
     inkscape:window-width="2560"
     inkscape:pageopacity="0.0"
     inkscape:pageshadow="2"
     pagecolor="#ffffff"
     inkscape:window-height="1373"
     fit-margin-top="1" />
  <g
     id="layer1"
     inkscape:label="Layer 1"
     inkscape:groupmode="layer"
     transform="translate(-210.37,30.969989)">
    <ellipse
       ry="24.806808"
       rx="229.46298"
       cy="484.1109"
       cx="531.69495"
       style="fill:none;stroke:#000000;stroke-width:3.77952753;stroke-miterlimit:4;stroke-dasharray:none;stroke-opacity:1"
       id="path4400" />
    <ellipse
       ry="131.47557"
       rx="14.884028"
       cy="207.65181"
       cx="529.60321"
       transform="rotate(17.967122)"
       style="fill:#ffffff;stroke:#000000;stroke-width:3.77952753;stroke-linecap:round;stroke-linejoin:round;stroke-miterlimit:4;stroke-dasharray:none"
       id="path4375" />
    <ellipse
       ry="131.47557"
       rx="14.884028"
       cy="194.55081"
       cx="570.00293"
       transform="rotate(17.967122)"
       style="fill:#ffffff;stroke:#000000;stroke-width:3.77952753;stroke-linecap:round;stroke-linejoin:round;stroke-miterlimit:4;stroke-dasharray:none"
       id="path4377" />
    <ellipse
       ry="131.47597"
       rx="14.884073"
       cy="445.5657"
       cx="548.13519"
       transform="rotate(-8.8327182)"
       style="fill:#ffffff;stroke:#000000;stroke-width:3.77952753;stroke-linecap:round;stroke-linejoin:round;stroke-miterlimit:4;stroke-dasharray:none"
       id="path4379" />
    <ellipse
       ry="131.47597"
       rx="14.884073"
       cy="451.96335"
       cx="589.30548"
       transform="rotate(-8.8327182)"
       style="fill:#ffffff;stroke:#000000;stroke-width:3.77952753;stroke-linecap:round;stroke-linejoin:round;stroke-miterlimit:4;stroke-dasharray:none"
       id="path4381" />
    <path
       inkscape:connector-curvature="0"
       style="fill:#ffffff;stroke:#000000;stroke-width:3.77952753;stroke-linecap:round;stroke-linejoin:round;stroke-miterlimit:4;stroke-dasharray:none"
       sodipodi:nodetypes="scscscsscscscsscssccscscsscsscscscsscscs"
       d="m 576.37254,41.40339 c -14.84499,0 -27.81441,8.05351 -34.80833,20.002313 -7.32152,-10.123294 -19.20766,-16.695194 -32.65622,-16.695194 -16.69452,0 -30.99972,10.157062 -37.11835,24.622366 -7.2177,-10.877119 -19.62095,-18.06021 -33.65247,-18.06021 -21.37993,0 -38.81517,16.655545 -40.16255,37.696278 -5.67157,-3.046716 -12.16888,-4.77764 -19.05814,-4.77764 -22.25857,0 -40.26838,18.061887 -40.26838,40.320467 0,3.1282 0.32315,6.15929 0.99751,9.08252 -21.58489,0.76592 -38.85045,18.49534 -38.85045,40.26839 0,13.24225 6.36189,24.99365 16.2226,32.34038 -20.21903,2.16369 -35.9625,19.21102 -35.9625,40.00462 0,19.1959 13.42588,35.26529 31.39621,39.32254 -6.20431,7.08901 -10.0277,16.35213 -10.0277,26.51238 0,22.25858 18.06189,40.26839 40.32047,40.26839 9.04287,0 17.37308,-2.95112 24.0982,-7.98009 -1.20925,3.83196 -1.89003,7.89609 -1.89003,12.12772 0,22.25858 18.06189,40.26839 40.32047,40.26839 10.38605,0 19.83935,-3.9556 26.98447,-10.39512 2.23376,0.92636 4.48919,1.82316 6.7725,2.67762 0.70391,21.64369 18.45501,39.00837 40.26839,39.00837 16.79381,0 31.16604,-10.28206 37.22251,-24.88445 5.15161,16.32509 20.40216,28.14033 38.43045,28.14033 19.69654,0 36.07001,-14.08579 39.58462,-32.76038 5.72231,15.29389 20.45759,26.19822 37.74835,26.19822 22.26026,0 40.32047,-18.06189 40.32047,-40.32047 0,-4.17367 -0.65991,-8.18404 -1.83744,-11.97014 6.70395,4.97555 15.05533,7.8751 24.04444,7.8751 22.25858,0 40.26839,-18.06189 40.26839,-40.32047 0,-10.13942 -3.74157,-19.37735 -9.9227,-26.46031 17.94429,-4.07606 31.34245,-20.14511 31.34245,-39.32254 0,-15.57983 -8.85001,-29.09793 -21.78818,-35.80457 13.81514,-6.3918 23.41611,-20.37024 23.41611,-36.59251 0,-21.1884 -16.34558,-38.48924 -37.11835,-40.11046 1.65583,-4.40837 2.57245,-9.1882 2.57245,-14.17517 0,-22.25858 -18.06189,-40.26839 -40.32047,-40.26839 -3.12819,0 -6.15912,0.32316 -9.08252,0.99752 -0.76592,-21.584894 -18.49533,-38.850455 -40.26839,-38.850455 -6.49529,0 -12.62635,1.575842 -18.06021,4.30505 C 612.131,55.277411 595.88319,41.40549 576.36976,41.40549 Z"
       id="path3563" />
    <g
       transform="matrix(1.6800195,0,0,1.6800195,-0.44536144,-549.59723)"
       id="g4390"
       style="stroke-width:2.24969265;stroke-miterlimit:4;stroke-dasharray:none">
      <path
         d="m 358.11,450.31 c 5.3105,24.786 -5.5195,40.505 -24.189,35.11 -18.67,-5.3952 -11.257,-31.396 -16.567,-56.182 -5.3105,-24.786 -21.333,-38.971 -2.6635,-33.576 18.67,5.3952 38.11,29.862 43.42,54.648 z"
         inkscape:connector-curvature="0"
         style="fill:#ffffff;stroke:#000000;stroke-width:2.24969265;stroke-linecap:round;stroke-linejoin:round;stroke-miterlimit:4;stroke-dasharray:none"
         sodipodi:nodetypes="sssss"
         id="path4385" />
      <path
         inkscape:connector-curvature="0"
         style="fill:#ffffff;stroke:#000000;stroke-width:2.24969265;stroke-linecap:round;stroke-linejoin:round;stroke-miterlimit:4;stroke-dasharray:none"
         sodipodi:nodetypes="sssss"
         d="m 149.17,449.15 c -6.5429,24.49 3.4877,40.731 22.404,36.276 18.916,-4.4551 12.812,-30.794 19.355,-55.283 6.5429,-24.49 23.255,-37.856 4.3387,-33.401 -18.916,4.4551 -39.555,27.919 -46.098,52.409 z"
         id="path4388" />
      <path
         d="m 312.69,446.95 c 0,47.59 -26.304,68.169 -58.752,68.169 -32.448,0 -58.752,-20.579 -58.752,-68.169 0,-47.59 26.304,-104.17 58.752,-104.17 32.448,0 58.752,56.579 58.752,104.17 z"
         inkscape:connector-curvature="0"
         style="fill:#ffffff;stroke:#000000;stroke-width:2.24969265;stroke-linecap:round;stroke-linejoin:round;stroke-miterlimit:4;stroke-dasharray:none"
         sodipodi:nodetypes="sssss"
         id="path3568" />
      <ellipse
         ry="27.906977"
         rx="33.782131"
         cy="714.05127"
         cx="61.199509"
         transform="translate(154.07,-319.86)"
         style="fill:#ffffff;stroke:#000000;stroke-width:2.24969265;stroke-linecap:round;stroke-linejoin:round;stroke-miterlimit:4;stroke-dasharray:none"
         id="path3571" />
      <circle
         r="36.23011"
         cy="708.66571"
         cx="143.94125"
         transform="translate(142.31,-313)"
         style="fill:#ffffff;stroke:#000000;stroke-width:2.24969265;stroke-linecap:round;stroke-linejoin:round;stroke-miterlimit:4;stroke-dasharray:none"
         id="path3573" />
      <path
         d="m 226.94,482.41 c 7.07,7.1232 15.818,10.406 25.406,10.406 7.0217,0 13.593,-1.7639 19.375,-5.5 l 1.5312,2.625 c -6.2766,4.0204 -13.402,6 -20.906,6 -1.1115,0 -2.2182,-0.039 -3.3125,-0.125 -0.7534,7.1038 -0.27662,13.206 3.625,17.344 l -2.625,2.4688 c -5.0042,-5.3069 -5.3819,-12.673 -4.5625,-20.25 -7.6211,-1.2884 -14.673,-4.7876 -20.562,-10.625 0.67575,-0.78775 1.3579,-1.5629 2.0312,-2.3438 z"
         inkscape:connector-curvature="0"
         style="color:#000000;text-indent:0;text-transform:none;fill:#000000;stroke-width:2.24969265;stroke-miterlimit:4;stroke-dasharray:none"
         id="path3575" />
      <path
         d="m 233.88576,400.45 c 0,3.58816 -2.9088,6.49696 -6.49696,6.49696 -3.58816,0 -6.49696,-2.9088 -6.49696,-6.49696 0,-3.58816 2.9088,-6.49696 6.49696,-6.49696 3.58816,0 6.49696,2.9088 6.49696,6.49696 z"
         inkscape:connector-curvature="0"
         style="fill:#000000;stroke:#000000;stroke-width:1.79975414;stroke-linecap:round;stroke-linejoin:round;stroke-miterlimit:4;stroke-dasharray:none"
         id="path4370" />
      <path
         d="m 275.23576,399.71 c 0,3.58816 -2.9088,6.49696 -6.49696,6.49696 -3.58816,0 -6.49696,-2.9088 -6.49696,-6.49696 0,-3.58816 2.9088,-6.49696 6.49696,-6.49696 3.58816,0 6.49696,2.9088 6.49696,6.49696 z"
         inkscape:connector-curvature="0"
         style="fill:#000000;stroke:#000000;stroke-width:1.79975414;stroke-linecap:round;stroke-linejoin:round;stroke-miterlimit:4;stroke-dasharray:none"
         id="path4373" />
    </g>
    <path
       sodipodi:nodetypes="cccc"
       inkscape:connector-curvature="0"
       inkscape:transform-center-x="4.2933697"
       d="m 505.20691,277.16053 c 7.21484,-19.0279 0.43936,-35.58786 -12.48994,-50.66771 10.64813,2.60907 27.17936,6.16248 24.46613,21.55297 -1.90011,11.19061 -6.59996,21.66049 -11.97552,29.11474 z"
       style="fill:#ffffff;stroke:#000000;stroke-width:3.77952753;stroke-miterlimit:4;stroke-dasharray:none"
       id="path4406"
       inkscape:transform-center-y="1.2655163e-006" />
    <path
       id="path3097"
       sodipodi:nodetypes="ccc"
       d="m 494.15238,214.3446 c -17.0774,-2.79824 -21.77137,15.47214 -16.80691,26.69887 -16.82204,-17.38148 -4.86013,-37.41404 16.80691,-26.69887 z"
       style="fill:#000000;stroke-width:3.77952753;stroke-miterlimit:4;stroke-dasharray:none"
       inkscape:connector-curvature="0" />
  </g>
  <metadata
     id="metadata4226">
    <rdf:RDF>
      <cc:Work>
        <dc:format>image/svg+xml</dc:format>
        <dc:type
           rdf:resource="http://purl.org/dc/dcmitype/StillImage" />
        <cc:license
           rdf:resource="http://creativecommons.org/publicdomain/zero/1.0/" />
        <dc:publisher>
          <cc:Agent
             rdf:about="http://openclipart.org/">
            <dc:title>Openclipart</dc:title>
          </cc:Agent>
        </dc:publisher>
        <dc:title></dc:title>
        <dc:date>2013-03-04T23:15:55</dc:date>
        <dc:description />
        <dc:source>https://openclipart.org/detail/175473/eid-sheep-1-by-serioustux-175473</dc:source>
        <dc:creator>
          <cc:Agent>
            <dc:title>SeriousTux</dc:title>
          </cc:Agent>
        </dc:creator>
        <dc:subject>
          <rdf:Bag>
            <rdf:li>Eid</rdf:li>
            <rdf:li>Sheep</rdf:li>
          </rdf:Bag>
        </dc:subject>
      </cc:Work>
      <cc:License
         rdf:about="http://creativecommons.org/publicdomain/zero/1.0/">
        <cc:permits
           rdf:resource="http://creativecommons.org/ns#Reproduction" />
        <cc:permits
           rdf:resource="http://creativecommons.org/ns#Distribution" />
        <cc:permits
           rdf:resource="http://creativecommons.org/ns#DerivativeWorks" />
      </cc:License>
    </rdf:RDF>
  </metadata>
</svg>
