<?xml version="1.0" encoding="UTF-8" standalone="no"?>
<!-- Generator: Adobe Illustrator 10.0, SVG Export Plug-In . SVG Version: 3.0.0 Build 77)  -->

<svg
   xmlns:i="http://ns.adobe.com/AdobeIllustrator/10.0/"
   xmlns:dc="http://purl.org/dc/elements/1.1/"
   xmlns:cc="http://creativecommons.org/ns#"
   xmlns:rdf="http://www.w3.org/1999/02/22-rdf-syntax-ns#"
   xmlns:svg="http://www.w3.org/2000/svg"
   xmlns="http://www.w3.org/2000/svg"
   xmlns:sodipodi="http://sodipodi.sourceforge.net/DTD/sodipodi-0.dtd"
   xmlns:inkscape="http://www.inkscape.org/namespaces/inkscape"
   i:rulerOrigin="0 0"
   i:viewOrigin="248 515"
   space="preserve"
   i:pageBounds="0 792 612 0"
   viewBox="0 0 154.90173 279.4501"
   enable-background="new 0 0 114.816 239.25"
   overflow="visible"
   version="1.1"
   id="svg53"
   sodipodi:docname="Gerald-G-Soft-Ice-Cream-Cones-FF-Menu-1.adapted.svg"
   width="154.90173"
   height="279.4501"
   style="overflow:visible"
   inkscape:version="0.92.3 (2405546, 2018-03-11)">
  <defs
     id="defs57" />
  <sodipodi:namedview
     pagecolor="#ffffff"
     bordercolor="#666666"
     borderopacity="1"
     objecttolerance="10"
     gridtolerance="10"
     guidetolerance="10"
     inkscape:pageopacity="0"
     inkscape:pageshadow="2"
     inkscape:window-width="2560"
     inkscape:window-height="1373"
     id="namedview55"
     showgrid="false"
     fit-margin-top="20"
     fit-margin-left="20"
     fit-margin-right="20"
     fit-margin-bottom="20"
     inkscape:zoom="3.9456635"
     inkscape:cx="94.096816"
     inkscape:cy="129.62692"
     inkscape:window-x="-9"
     inkscape:window-y="-9"
     inkscape:window-maximized="1"
     inkscape:current-layer="g48" />
  <g
     id="Layer_1"
     i:layer="yes"
     i:rgbTrio="#4F008000FFFF"
     i:dimmedPercent="50"
     transform="translate(19.997808,20.083276)">
    <g
       stroke-miterlimit="10"
       id="g48"
       style="clip-rule:evenodd;fill-rule:evenodd;stroke:#000000;stroke-width:0;stroke-miterlimit:10;stroke-dasharray:none">
      <path
         d="m 6.746,108.48 c -0.972,1.908 -1.368,3.78 -0.792,5.616 0.396,1.836 1.764,3.636 3.708,5.4 l 2.7,29.089 c -0.936,0.971 -1.44,2.051 -1.656,2.844 -0.216,0.791 -0.504,1.043 0.504,2.16 0.936,0.971 3.492,3.131 5.292,4.104 1.692,0.9 3.312,1.404 5.004,1.512 1.872,1.404 3.24,3.816 4.248,7.381 0.9,3.455 0.648,6.768 1.476,13.68 0.684,6.803 2.052,20.447 3.132,27.324 1.116,6.803 2.052,11.16 3.204,13.355 -0.792,2.951 -0.864,5.615 -0.072,7.992 0.72,2.268 0.972,4.32 4.644,6.012 3.708,1.729 11.196,3.707 17.172,4.283 5.868,0.469 13.141,-0.576 17.784,-1.332 4.464,-0.756 7.416,-1.08 9.432,-3.348 2.017,-2.484 2.664,-6.047 2.34,-11.088 0.576,-3.959 1.08,-7.199 1.513,-9.863 0.359,-2.736 0.647,-2.197 1.008,-6.156 0.252,-4.213 0.396,-11.953 1.008,-18.072 0.576,-6.156 1.872,-13.896 2.772,-18.359 0.72,-4.537 1.332,-6.445 2.268,-8.496 0.864,-2.16 1.368,-2.629 3.456,-4.176 2.088,-1.656 4.968,-3.492 8.928,-5.508 -0.359,-2.09 -0.576,-5.006 -0.647,-8.605 -0.181,-3.744 -0.324,-9.18 -0.145,-13.248 0.036,-4.104 0.396,-7.848 0.792,-11.231 1.261,-0.72 2.16,-1.728 2.845,-3.024 0.684,-1.44 1.008,-2.988 1.115,-5.04 2.628,-3.204 4.104,-6.408 4.824,-9.756 0.576,-3.42 0.288,-7.128 -1.008,-10.152 -1.332,-3.06 -3.528,-5.688 -6.732,-8.028 3.456,-3.204 5.112,-6.624 5.257,-10.692 0,-4.176 -2.521,-10.224 -4.788,-13.428 -2.305,-3.204 -5.221,-5.004 -8.748,-5.544 2.52,-4.932 3.023,-9.468 1.655,-13.752 -1.512,-4.356 -5.58,-7.848 -10.115,-11.844 -4.645,-4.068 -13.32,-7.776 -17.28,-12.096 -4.068,-4.5 -3.636,-11.556 -6.336,-14.22 -2.809,-2.7 -8.244,-2.412 -9.648,-1.908 -1.332,0.432 1.224,2.7 1.404,4.32 -0.036,1.368 1.044,2.736 -1.332,4.644 -2.484,1.908 -10.044,4.176 -13.104,6.948 -3.168,2.7 -4.716,5.76 -5.184,9.324 -7.812,5.04 -13.428,9.72 -16.848,14.04 -3.492,4.284 -3.636,7.596 -3.888,11.736 -0.288,4.104 0.36,8.244 2.088,12.708 C 11.212,68.414 5.308,73.382 2.14,78.746 -1.1,84.182 0.124,91.13 0.952,96.242 c 0.717,4.998 2.697,9.028 5.793,12.268 z"
         i:knockout="Off"
         id="path2"
         inkscape:connector-curvature="0"
         style="stroke-width:0;stroke-miterlimit:10;stroke-dasharray:none" />
      <path
         d="m 59.342,1.129 c 2.484,-0.036 4.536,0.612 5.76,2.34 1.188,1.584 0.468,4.716 1.872,7.452 1.296,2.556 2.484,5.04 6.336,8.424 3.888,3.312 12.528,7.92 16.74,11.484 3.96,3.384 6.3,5.436 7.452,9.216 1.116,3.744 0.899,8.316 -0.648,13.572 -7.704,0.324 -15.048,-0.216 -22.716,-1.764 -7.704,-1.656 -17.316,-4.572 -22.716,-7.38 -5.364,-2.772 -7.668,-5.76 -9.432,-9.108 -1.908,-3.384 -2.448,-7.668 -1.764,-10.764 0.648,-3.276 2.772,-5.94 5.544,-7.992 2.664,-1.98 7.92,-2.7 10.476,-4.104 2.376,-1.548 3.744,-3.204 4.249,-5.112 0.503,-2.016 0.07,-3.924 -1.153,-6.264 z"
         i:knockout="Off"
         id="path4"
         inkscape:connector-curvature="0"
         style="fill:#ffffff;stroke-width:0;stroke-miterlimit:10;stroke-dasharray:none" />
      <path
         d="m 38.174,27.445 c -0.432,3.852 0.036,7.2 1.8,10.188 1.62,2.952 3.42,4.932 8.316,7.488 4.788,2.484 14.22,5.4 20.952,7.344 6.696,1.728 14.112,2.736 19.332,3.42 5.04,0.612 8.496,-0.828 11.484,0.396 2.988,1.116 5.004,3.888 6.588,6.66 1.548,2.628 2.772,6.336 2.557,9.612 -0.288,3.24 -1.692,6.516 -4.213,9.972 -3.491,-1.872 -8.855,-3.168 -16.235,-3.888 -7.416,-0.864 -19.296,-0.18 -28.008,-0.576 -8.928,-0.468 -18.396,0.288 -24.66,-1.62 -6.3,-2.016 -9.972,-6.48 -12.672,-10.188 -2.808,-3.78 -3.564,-8.172 -3.672,-12.204 -0.108,-4.248 0.864,-9.036 2.772,-12.564 1.8,-3.528 5.364,-5.76 8.064,-8.064 2.617,-2.376 5.1,-4.32 7.585,-5.976 z"
         i:knockout="Off"
         id="path6"
         inkscape:connector-curvature="0"
         style="fill:#ffffff;stroke-width:0;stroke-miterlimit:10;stroke-dasharray:none" />
      <path
         d="m 20.894,65.785 c 0.432,1.908 1.656,3.96 4.068,6.156 2.304,2.196 4.392,5.292 9.864,6.768 5.4,1.188 14.508,0.936 22.752,1.188 8.244,0.144 19.08,0 26.244,0.54 6.984,0.504 11.629,1.224 15.876,2.7 4.213,1.404 7.272,2.952 9.324,5.76 2.017,2.736 2.484,6.588 2.376,10.584 -0.288,3.816 -1.548,7.884 -3.924,12.348 -9.468,3.24 -19.332,5.4 -30.42,6.336 -11.124,0.9 -24.084,1.008 -35.388,-0.648 C 30.218,115.789 16.07,113.413 9.482,108.013 2.894,102.361 0.626,91.741 2.534,84.613 4.472,77.442 10.412,71.394 20.888,65.778 Z"
         i:knockout="Off"
         id="path8"
         inkscape:connector-curvature="0"
         style="fill:#ffffff;stroke-width:0;stroke-miterlimit:10;stroke-dasharray:none" />
      <path
         d="m 101.86,121.44 c -8.136,3.779 -17.352,6.229 -28.08,7.199 -10.836,0.865 -25.848,-0.072 -36.144,-1.439 -10.332,-1.404 -18.612,-3.6 -25.272,-6.732 -2.088,-2.16 -3.204,-4.284 -3.888,-5.976 -0.648,-1.728 -0.54,-3.42 0.18,-4.68 -0.252,1.296 2.484,2.772 8.208,4.572 5.76,1.692 15.84,4.932 26.064,5.976 10.152,1.008 23.328,1.152 34.271,0.035 10.837,-1.223 20.845,-3.6 30.421,-7.127 0.252,1.152 0.071,2.196 -0.937,3.672 -1.04,1.33 -2.52,2.88 -4.82,4.5 z"
         i:knockout="Off"
         id="path10"
         inkscape:connector-curvature="0"
         style="fill:#ffffff;stroke-width:0;stroke-miterlimit:10;stroke-dasharray:none" />
      <path
         d="m 12.074,122.99 1.8,26.354 c 4.32,2.664 11.844,4.68 22.572,5.65 10.8,0.828 30.24,1.117 41.652,0.469 11.268,-0.576 19.729,-1.836 25.813,-3.779 -0.469,-4.932 -0.757,-9.648 -0.864,-14.438 -0.145,-4.787 -0.108,-9.359 0.107,-14.004 -5.399,2.916 -11.88,5.076 -19.872,6.336 -8.136,1.225 -18.54,1.621 -27.863,1.332 -9.468,-0.395 -20.376,-1.943 -27.72,-3.275 -7.279,-1.37 -12.392,-2.92 -15.631,-4.65 z"
         i:knockout="Off"
         id="path12"
         inkscape:connector-curvature="0"
         style="fill:#ffffff;stroke-width:0;stroke-miterlimit:10;stroke-dasharray:none" />
      <path
         d="m 96.746,156.69 c -2.593,1.98 -8.425,3.42 -18.036,4.031 -9.792,0.576 -29.196,0.469 -39.313,-0.18 -10.08,-0.648 -16.596,-2.52 -20.916,-3.672 -4.428,-1.297 -4.716,-2.844 -5.328,-3.672 -0.72,-0.9 -1.584,-2.053 1.44,-1.512 3.024,0.539 8.676,3.275 16.38,4.463 7.704,0.9 20.7,1.441 29.124,1.621 8.244,0.107 14.04,0 20.448,-0.469 6.372,-0.504 12.096,-1.225 17.604,-2.305 -0.467,0.53 -0.935,1.11 -1.403,1.69 z"
         i:knockout="Off"
         id="path14"
         inkscape:connector-curvature="0"
         style="fill:#ffffff;stroke-width:0;stroke-miterlimit:10;stroke-dasharray:none" />
      <path
         d="m 26.33,160.5 c 1.188,1.547 2.232,5.111 3.132,10.836 0.792,5.76 1.368,14.65 2.304,23.219 1.008,8.424 2.052,17.281 3.528,27 2.952,2.844 7.056,4.752 12.456,5.869 5.364,1.08 13.789,1.295 19.836,0.504 6.012,-0.828 11.195,-2.809 15.948,-5.652 0.323,-3.961 0.575,-9.107 1.151,-15.732 0.468,-6.732 1.116,-17.641 1.8,-23.688 0.648,-6.084 0.937,-8.641 1.98,-12.385 0.936,-3.779 2.16,-7.02 3.672,-10.008 -5.652,1.188 -11.52,2.088 -18,2.701 -6.48,0.467 -12.528,1.295 -20.484,0.826 -8.063,-0.48 -16.991,-1.59 -27.323,-3.5 z"
         i:knockout="Off"
         id="path16"
         inkscape:connector-curvature="0"
         style="fill:#ffffff;stroke-width:0;stroke-miterlimit:10;stroke-dasharray:none" />
      <path
         d="m 34.934,165.47 1.224,9.793 9.9,0.719 -8.892,-1.656 -2.232,-8.85 z"
         i:knockout="Off"
         id="path18"
         inkscape:connector-curvature="0"
         style="stroke-width:0;stroke-miterlimit:10;stroke-dasharray:none" />
      <path
         d="m 37.13,179.98 1.944,17.568 9.864,1.691 -8.676,-2.807 -3.132,-16.45 z"
         i:knockout="Off"
         id="path20"
         inkscape:connector-curvature="0"
         style="stroke-width:0;stroke-miterlimit:10;stroke-dasharray:none" />
      <path
         d="m 40.622,203.45 0.972,16.379 7.704,2.018 -6.12,-3.133 -2.556,-15.27 z"
         i:knockout="Off"
         id="path22"
         inkscape:connector-curvature="0"
         style="stroke-width:0;stroke-miterlimit:10;stroke-dasharray:none" />
      <path
         d="m 51.782,167.63 0.288,8.389 6.228,0.215 -4.824,-1.152 -1.728,-6.299 0.036,-1.16 z"
         i:knockout="Off"
         id="path24"
         inkscape:connector-curvature="0"
         style="stroke-width:0;stroke-miterlimit:10;stroke-dasharray:none" />
      <path
         d="m 52.105,180.3 1.296,19.512 5.795,0.396 -4.428,-1.332 -2.663,-18.58 z"
         i:knockout="Off"
         id="path26"
         inkscape:connector-curvature="0"
         style="stroke-width:0;stroke-miterlimit:10;stroke-dasharray:none" />
      <path
         d="m 53.618,204.28 0.576,17.531 5.436,0.396 -4.248,-1.512 -1.764,-16.42 z"
         i:knockout="Off"
         id="path28"
         inkscape:connector-curvature="0"
         style="stroke-width:0;stroke-miterlimit:10;stroke-dasharray:none" />
      <path
         d="m 62.905,167.23 0.469,8.785 4.859,-0.217 -3.852,-0.719 -1.548,-6.301 0.072,-1.55 z"
         i:knockout="Off"
         id="path30"
         inkscape:connector-curvature="0"
         style="stroke-width:0;stroke-miterlimit:10;stroke-dasharray:none" />
      <path
         d="m 62.653,179.69 0.828,20.447 6.84,-0.324 -5.399,-0.971 -2.269,-19.16 z"
         i:knockout="Off"
         id="path32"
         inkscape:connector-curvature="0"
         style="stroke-width:0;stroke-miterlimit:10;stroke-dasharray:none" />
      <path
         d="m 63.157,204.82 0.54,17.354 5.257,-0.217 -4.248,-0.721 -1.549,-16.41 z"
         i:knockout="Off"
         id="path34"
         inkscape:connector-curvature="0"
         style="stroke-width:0;stroke-miterlimit:10;stroke-dasharray:none" />
      <path
         d="m 73.489,203.99 -1.188,17.102 4.32,-1.008 -3.097,-0.109 -0.035,-15.98 z"
         i:knockout="Off"
         id="path36"
         inkscape:connector-curvature="0"
         style="stroke-width:0;stroke-miterlimit:10;stroke-dasharray:none" />
      <path
         d="m 73.382,179.47 -0.324,19.656 4.896,-1.008 -3.889,0.252 z"
         i:knockout="Off"
         id="path38"
         inkscape:connector-curvature="0"
         style="stroke-width:0;stroke-miterlimit:10;stroke-dasharray:none" />
      <path
         d="m 74.21,166.66 -0.504,8.172 7.235,-0.936 -5.832,-0.18 -0.899,-7.05 z"
         i:knockout="Off"
         id="path40"
         inkscape:connector-curvature="0"
         style="stroke-width:0;stroke-miterlimit:10;stroke-dasharray:none" />
      <path
         d="m 82.562,166.77 -0.036,6.623 2.736,-0.324 -1.512,-0.611 -1.188,-5.69 z"
         i:knockout="Off"
         id="path42"
         inkscape:connector-curvature="0"
         style="stroke-width:0;stroke-miterlimit:10;stroke-dasharray:none" />
      <path
         d="m 81.518,179.76 -0.792,17.496 3.348,-1.262 -2.304,-0.252 -0.252,-15.99 z"
         i:knockout="Off"
         id="path44"
         inkscape:connector-curvature="0"
         style="stroke-width:0;stroke-miterlimit:10;stroke-dasharray:none" />
      <path
         d="m 80.113,203.67 -1.151,16.486 4.14,-2.195 -3.312,0.684 0.323,-14.977 v 0.01 z"
         i:knockout="Off"
         id="path46"
         inkscape:connector-curvature="0"
         style="stroke-width:0;stroke-miterlimit:10;stroke-dasharray:none" />
    </g>
  </g>
  <metadata
     id="metadata51">
    <rdf:RDF>
      <cc:Work>
        <dc:format>image/svg+xml</dc:format>
        <dc:type
           rdf:resource="http://purl.org/dc/dcmitype/StillImage" />
        <cc:license
           rdf:resource="http://creativecommons.org/publicdomain/zero/1.0/" />
        <dc:publisher>
          <cc:Agent
             rdf:about="http://openclipart.org/">
            <dc:title>Openclipart</dc:title>
          </cc:Agent>
        </dc:publisher>
        <dc:title></dc:title>
        <dc:date>2007-11-13T23:54:25</dc:date>
        <dc:description>This Clip Art is part of a fast food menu set. Search for &quot;fastfood&quot; to find all.</dc:description>
        <dc:source>https://openclipart.org/detail/8333/fast-food-desserts-ice-cream-cones-soft-serve-by-gerald_g-8333</dc:source>
        <dc:creator>
          <cc:Agent>
            <dc:title>Gerald_G</dc:title>
          </cc:Agent>
        </dc:creator>
        <dc:subject>
          <rdf:Bag>
            <rdf:li>colouring book</rdf:li>
            <rdf:li>cone</rdf:li>
            <rdf:li>dessert</rdf:li>
            <rdf:li>dinner</rdf:li>
            <rdf:li>fastfood</rdf:li>
            <rdf:li>food</rdf:li>
            <rdf:li>icecream</rdf:li>
            <rdf:li>lunch</rdf:li>
            <rdf:li>menu</rdf:li>
          </rdf:Bag>
        </dc:subject>
      </cc:Work>
      <cc:License
         rdf:about="http://creativecommons.org/publicdomain/zero/1.0/">
        <cc:permits
           rdf:resource="http://creativecommons.org/ns#Reproduction" />
        <cc:permits
           rdf:resource="http://creativecommons.org/ns#Distribution" />
        <cc:permits
           rdf:resource="http://creativecommons.org/ns#DerivativeWorks" />
      </cc:License>
    </rdf:RDF>
  </metadata>
</svg>
