<?xml version="1.0" encoding="UTF-8" standalone="no"?>
<!-- Created with Inkscape (http://www.inkscape.org/) -->

<svg
   xmlns:dc="http://purl.org/dc/elements/1.1/"
   xmlns:cc="http://creativecommons.org/ns#"
   xmlns:rdf="http://www.w3.org/1999/02/22-rdf-syntax-ns#"
   xmlns:svg="http://www.w3.org/2000/svg"
   xmlns="http://www.w3.org/2000/svg"
   xmlns:sodipodi="http://sodipodi.sourceforge.net/DTD/sodipodi-0.dtd"
   xmlns:inkscape="http://www.inkscape.org/namespaces/inkscape"
   id="Layer_1"
   xml:space="preserve"
   version="1.0"
   viewBox="0 0 430.88966 513.078"
   inkscape:version="0.92.3 (2405546, 2018-03-11)"
   sodipodi:docname="Gerald-G-KU-impatiens-aurella-bw.adapted.svg"
   width="430.88965"
   height="513.078"><defs
   id="defs85" /><sodipodi:namedview
   pagecolor="#ffffff"
   bordercolor="#666666"
   borderopacity="1"
   objecttolerance="10"
   gridtolerance="10"
   guidetolerance="10"
   inkscape:pageopacity="0"
   inkscape:pageshadow="2"
   inkscape:window-width="2560"
   inkscape:window-height="1373"
   id="namedview83"
   showgrid="false"
   fit-margin-top="30"
   fit-margin-left="30"
   fit-margin-right="30"
   fit-margin-bottom="30"
   inkscape:zoom="2.0835081"
   inkscape:cx="177.91608"
   inkscape:cy="292.56216"
   inkscape:window-x="-9"
   inkscape:window-y="-9"
   inkscape:window-maximized="1"
   inkscape:current-layer="Layer_1" />
<path
   id="path5"
   style="fill-rule:evenodd;stroke:#000000;stroke-width:0.036;stroke-miterlimit:10"
   d="m 115.67895,179.04001 c -4.212,-1.22 -7.452,-2.48 -10.26,-3.92 -2.844,-1.55 -5.471995,-3.31 -6.227995,-4.61 -0.864,-1.26 -0.216,-2.23 1.547995,-2.91 -4.139995,-1.19 -8.171995,-3.5 -12.239995,-7.06 -4.068,-3.67 -9.648,-10.91 -12.024,-14.36 -2.448,-3.53 -2.52,-5.22 -2.448,-6.59 0.072,-1.44 0.828,-2.09 2.664,-1.95 -4.536,-7.02 -7.668,-12.38 -9.792,-16.772 -2.052,-4.356 -2.484,-7.308 -2.7,-9 -0.36,-1.656 -0.252,-2.196 0.468,-1.224 -2.016,-4.86 -3.312,-8.856 -4.032,-12.420002 -0.864,-3.636 -1.008,-6.732 -0.432,-8.748 0.54,-2.016 1.872,-3.204 3.996,-3.42 -0.72,-2.88 -1.512,-6.552 -1.98,-11.16 -0.648,-4.788 -1.476,-12.672 -1.368,-16.56 0.036,-3.816 0.684,-5.976 1.8,-6.336 -0.792,-4.14 -1.044,-7.272 -0.9,-9.252 0.108,-2.088 0.756,-3.06 1.8,-2.916 l 0.432,-9.72 c 3.924,-0.252 6.912,0.036 9.36,0.468 2.376,0.54 3.96,1.224 4.896,2.448 0.288,-1.116 1.008,-1.728 2.016,-1.692 1.008,0 2.088,0.612 4.212,1.692 2.124,0.936 5.4,2.412 8.028,4.14 2.556,1.62 4.68,3.78 6.912,6.084 0.144,-0.9 0.468,-1.548 1.115995,-1.944 0.54,-0.504 0.684,-1.044 2.664,-0.504 2.016,0.576 6.552,2.34 9.144,3.888 2.448,1.44 3.528,3.672 5.58,4.896 1.944,1.008 4.068,0.504 6.228,1.944 1.98,1.44 4.536,5.004 6.013,6.804 1.4,1.8 2.34,2.88 2.66,3.636 0.25,-0.468 0.83,-0.288 1.59,0.252 0.75,0.396 1.51,1.224 3.09,3.168 1.51,2.016 4.21,6.588 6.01,9 1.73,2.232 3.1,3.384 4.25,5.112 1.08,1.764 1.66,3.456 2.02,5.364 0.86,-0.54 1.94,-0.252 3.09,0.72 1.16,0.972 2.38,2.952 3.82,5.112 1.48,2.052 3.17,4.536 4.68,7.308 1.44,2.736002 2.45,5.472002 3.56,8.748002 1.05,-0.396 1.98,0.144 2.67,1.476 0.61,1.26 0.75,2.664 1.55,6.552 0.79,3.924 2.34,11.952 3.13,16.736 0.61,4.68 0.68,6.84 0.9,11.2 0.18,4.25 0.47,7.38 0.43,14.11 -0.18,6.59 -0.58,14.98 -1.33,25.31 l 4.68,5.83 c -1.08,-28.69 -1.8,-51.77 -2.02,-70.342 -0.36,-18.576002 0.11,-26.676002 0.43,-40.140002 0.33,-13.608 0.69,-26.676 1.37,-40.32 h 12.67 c -0.14,17.712 -0.21,34.308 -0.21,50.616 -0.07,16.200002 -0.07,31.428002 0,46.226002 0.07,14.72 0.18,28.22 0.47,41.33 4.75,-8.64 8.42,-15.34 11.55,-20.24 2.88,-4.86 4.07,-6.19 6.48,-9 2.45,-2.91 5.08,-5.79 8.03,-8.49 1.84,-6.88 4.1,-12.998 6.66,-18.758 2.45,-5.796 5.9,-11.304 8.71,-15.552 2.88,-4.428002 6.09,-8.352002 8.25,-9.972002 1.98,-1.584 3.24,-1.476 3.78,0.468 4.6,-4.464 8.71,-8.064 12.45,-10.944 3.6,-2.952 5.87,-4.464 9.58,-6.336 3.71,-2.052 9.86,-4.356 12.49,-5.112 2.52,-0.72 3.24,-0.396 2.45,0.972 2.45,-1.944 5.36,-3.6 8.89,-5.112 3.49,-1.548 7.52,-2.844 11.81,-3.888 4.07,-1.08 9.25,-2.484 12.92,-2.664 3.64,-0.288 6.77,0.36 8.71,0.972 1.88,0.576 2.49,1.332 2.24,2.412 3.96,-1.08 8.28,-1.8 13.35,-2.16 5.08,-0.432 11.99,-0.468 16.71,-0.252 4.64,0.072 8.6,0.396 10.9,0.972 2.13,0.576 2.85,1.332 2.02,2.412 4.93,-0.252 9.36,-0.252 13.57,0 4.14,0.108 8.07,0.324 11.38,1.224 3.31,0.828 6.91,2.628 8.03,4.14 0.97,1.404 -1.12,2.196 -2.24,4.608 -1.33,2.412 -2.91,6.912 -4.89,9.756 -2.05,2.736 -4.11,5.004 -6.7,6.804 1.01,0.828 1.59,1.8 1.59,2.916 -0.08,1.044 0.5,0.144 -1.59,3.672 -2.3,3.528002 -7.2,11.880002 -11.34,17.280002 -4.21,5.292 -8.53,9.972 -13.39,14.328 1.04,0.364 1.33,1.224 0.47,2.444 -0.83,1.16 -1.55,1.34 -5.37,4.86 -3.96,3.46 -13.32,12.57 -17.82,16.06 -4.57,3.46 -7.52,4.79 -9.14,4.39 -0.43,1.15 -1.15,2.16 -1.76,3.17 -0.8,0.94 -1.48,1.87 -2.45,2.66 2.99,0.36 5.33,1.66 6.87,3.89 1.62,2.23 2.45,5.55 2.49,9.51 -0.07,3.78 -1.23,9.21 -2.92,13.39 -1.91,3.99 -4.5,6.95 -7.77,10.94 -3.28,3.93 -7.1,8.14 -11.6,12.64 3.6,2.3 6.7,5.18 9.58,8.78 2.81,3.57 5.58,8.39 7.34,12.39 1.77,3.88 2.6,6.91 2.88,10.72 0.22,3.75 -0.18,8.79 -1.76,11.67 -1.76,2.7 -5.65,4.61 -8.46,4.89 -2.77,0.26 -5.72,-0.93 -8.46,-3.42 -1.98,3.86 -3.96,6.7 -6.48,8.54 -2.48,1.69 -5.51,2.77 -8.24,2.41 -2.88,-0.36 -5.98,-0.72 -8.46,-4.39 -2.56,-3.71 -4.58,-9.58 -6.45,-17.75 -3.56,1.26 -7.56,1.26 -12.27,0 -4.86,-1.44 -10.23,-5.01 -15.81,-7.78 -5.65,-2.84 -12.02,-6.19 -17.17,-8.78 -5.22,-2.67 -8.75,-6.88 -13.36,-6.81 -4.64,0.04 -11.26,4.14 -14.04,7.31 -2.8,3.06 -3.42,7.49 -2.66,11.2 0.68,3.53 4.07,7.49 6.7,10.47 2.52,2.85 5.22,5.22 8.24,7.27 3.02,1.95 7.31,3.46 9.79,5.12 2.45,1.73 5.33,3.45 4.47,4.89 -1.12,1.26 -5.66,3.49 -10.7,2.67 -5.29,-1.01 -14.36,-4.04 -19.83,-7.82 -5.44,-3.78 -9.65,-8.6 -12.49,-14.33 -2.96,-5.9 -5.19,-14.4 -4.9,-20.19 0.11,-5.83 2.56,-9.72 6.23,-14.15 3.74,-4.46 10.37,-8.64 15.84,-12.38 5.29,-3.86 10.04,-7.17 15.8,-10.23 5.62,-3.17 11.63,-5.79 18.04,-8.28 -4.68,-1.04 -8.86,-2.23 -12.67,-3.42 -3.89,-1.44 -7.13,-3.2 -10.26,-3.89 -3.17,-0.61 -5.69,-0.72 -8.68,0.51 -3.1,1.08 -6.19,3.96 -9.58,6.55 -3.45,2.56 -7.92,5.51 -10.47,9 -2.59,3.35 -3.64,5.58 -4.68,11.7 -1.08,6.12 -1.51,16.24 -1.59,25.06 -0.14,8.71 0.58,17.71 0.9,27 0.33,9.14 0.51,13.89 0.69,28 -0.07,14.26 -0.51,39.32 -0.47,56.31 -0.07,16.81 0.18,31.14 0.47,43.81 0.68,-1.29 1.47,-2.37 2.23,-3.38 0.76,-1.05 1.62,-1.95 2.45,-2.7 -0.51,-7.45 -0.11,-15.56 1.33,-24.59 1.37,-9.11 3.49,-20.99 6.91,-29.41 3.39,-8.64 9.61,-16.74 13.14,-20.95 3.39,-4.11 5.83,-5.37 7.35,-3.64 2.23,-2.41 5.61,-4.97 10,-7.81 4.5,-2.92 11.6,-7.42 16.28,-9.22 4.53,-1.87 8.49,-1.76 10.9,-1.48 2.31,0.18 3.28,1.16 2.92,2.92 4.9,-2.48 9.97,-4.61 15.37,-6.08 5.47,-1.52 10.98,-2.52 16.92,-3.17 5.8,-0.87 13.61,-1.62 17.61,-1.44 3.85,0.18 5.83,1.11 5.79,2.66 4.86,-0.14 9.54,-0.14 14.04,0 4.43,-0.03 8.07,0.07 12.71,0.72 4.61,0.65 12.1,2.31 14.69,3.42 2.41,1.05 2.41,2.02 0,2.92 4.71,0.03 8.6,0.43 11.81,1.48 3.2,1 5.43,2.41 7.12,4.35 2.67,0.07 4.32,0.72 5.12,1.94 0.75,1.08 2.05,1.77 -0.44,5.12 -2.63,3.38 -7.63,8.2 -15.15,14.86 0.32,1.44 -0.4,3.17 -1.77,5.33 -1.58,2.13 -4.03,4.65 -6.91,7.56 -2.95,2.95 -6.12,6.01 -10.04,9.72 -0.26,1.51 -1.01,3.03 -1.98,4.39 -1.05,1.34 0,0.83 -4.25,3.89 -4.5,3.06 -16.63,10.8 -21.82,13.9 -5.14,2.88 -5.9,2.66 -8.92,3.64 -3.17,0.93 -6.23,1.36 -9.58,1.69 0.18,0.83 -0.36,1.98 -1.33,3.17 -1.01,1.15 -1.62,2.16 -4.9,4.14 -3.45,1.94 -10.8,5.61 -15.37,7.56 -4.65,1.69 -8.39,2.63 -11.81,3.38 -3.42,0.87 -6.19,1.23 -8.46,1.48 1.51,1.19 2.27,2.45 1.98,3.63 -0.36,1.12 -0.72,2.16 -3.56,3.42 -3.03,1.19 -8.25,3.03 -13.57,4.14 -5.33,1.05 -12.71,2.2 -17.82,2.2 -5.12,-0.14 -8.28,-1.33 -12.71,-2.45 -4.65,-1.22 -9.29,-2.55 -14.47,-4.39 -2.7,1.51 -4.94,4 -6.7,7.31 -1.98,3.27 -3.38,8.6 -4.21,12.67 -0.76,3.96 -0.54,2.52 -0.47,11.66 -0.07,9.22 0.36,32.62 0.47,43.13 0.03,10.41 0.03,16.63 0,18.97 h -14.04 c -0.43,-11.48 -0.69,-21.96 -0.9,-32.11 -0.29,-10.19 -0.4,-21.17 -0.47,-28.22 -0.11,-7.2 0.4,-10.19 -0.43,-14.11 -1.05,-3.86 -1.8,-4.65 -5.33,-9.18 -3.53,-4.79 -8.86,-10.98 -15.84,-18.98 -1.48,1.19 -4.46,2.67 -9.11,4.43 -4.71,1.73 -13.1,4.54 -18.503,6.09 -5.436,1.36 -8.496,2.77 -13.608,2.66 -5.184,-0.18 -12.096,-1.91 -17.135995,-3.38 -5.112,-1.59 -10.836,-4 -13.14,-5.87 -2.376,-1.98 -2.628,-3.75 -0.9,-5.58 -4.464,-4.07 -7.848,-7.63 -10.692,-10.69 -2.844,-3.1 -5.22,-5.84 -6.012,-7.82 -0.864,-2.05 -0.612,-3.45 0.9,-4.35 -3.96,-3.57 -6.948,-7.38 -9.36,-11.45 -2.52,-4.25 -4.248,-9.97 -4.896,-13.14 -0.612,-3.28 -0.216,-5.04 1.332,-5.83 -3.816,-6.34 -6.444,-11.45 -8.028,-15.34 -1.548,-4.07 -1.296,-5.76 -1.332,-8.28 -0.144,-2.48 0,-4.68 0.432,-6.59 -1.908,-4.06 -3.312,-7.41 -4.212,-10.18 -0.936,-2.81 -1.008,-5.01 -1.332,-6.59 -0.36,-1.77 -0.792,-1.8 -0.9,-3.42 -0.216,-1.66 -0.288,-3.89 -0.216,-6.55 -2.556,-5.73 -4.248,-10.73 -5.364,-14.87 -1.152,-4.21 -2.916,-9.18 -1.116,-10.19 1.728,-1.01 5.544,0.14 11.592,3.89 2.124,-0.36 4.716,-0.25 7.776,0.72 3.096,0.93 6.408,2.34 10.476,4.61 1.296,-0.47 2.736,-0.29 4.464,0.25 1.62,0.5 3.06,1.65 5.58,3.17 2.484,1.51 5.436,3.24 9.144,5.61 0.396,-1.33 1.08,-2.34 2.196,-3.17 1.08,-0.82 2.448,-1.4 4.248,-1.72 -3.456,-3.24 -5.904,-7.13 -7.344,-11.96 -1.548,-4.86 -2.34,-11.48 -1.548,-16.81 0.756,-5.47 2.808,-12.2 6.012,-15.33 3.132,-3.17 9.252,-3.32 12.672,-3.64 3.348,-0.5 4.967995,-0.04 7.379995,0.97 2.376,0.94 4.464,2.56 6.66,4.86 0.288,-6.66 0.612,-12.24 1.116,-17.03 0.324,-4.82 0.792,-8.31 1.548,-11.44 0.722,-3.17 1.694,-5.66 2.918,-7.46 z m 2.016,33.74 c -1.008,-4.36 -1.188,-8.61 -0.684,-13.14 0.54,-4.58 2.592,-10.95 3.78,-13.86 1.08,-2.92 1.764,-4.18 2.448,-3.64 3.096,1.26 6.696,2.34 10.943,3.38 4.25,0.98 9.65,1.84 14.26,2.45 4.46,0.51 8.64,0.79 12.67,0.72 2.12,2.13 4.28,4.72 6.48,7.78 2.19,3.02 4.86,5.54 6.44,10.47 1.44,4.86 1.84,9.18 2.45,18.51 0.54,9.21 0.65,18.9 0.9,36.97 0.07,18.18 0.07,51.88 0,70.96 -0.14,18.79 -0.5,31.53 -0.65,41.58 -0.18,9.97 -0.54,15.84 -0.68,18.03 -0.83,-2.45 -2.41,-5.11 -4.9,-8.28 -2.52,-3.13 -5.87,-6.62 -10.04,-10.47 1.55,-5.48 2.27,-11.24 2.45,-17.28 0.1,-6.23 -1.08,-14.08 -1.77,-19.23 -0.86,-5.18 -1.8,-9.36 -2.66,-11.41 -0.83,-2.09 -1.69,-2.41 -2.45,-0.97 -1.01,-2.49 -2.84,-5.08 -5.36,-8.07 -2.67,-2.98 -5.87,-6.22 -10.01,-9.72 2.91,-2.3 5.04,-5.11 6.23,-8.02 1.08,-3.24 1,-6.66 0.9,-9.98 -0.15,-3.13 -0.33,-6.22 -1.37,-9 -1.12,-2.8 -2.77,-5.58 -5.11,-8.02 0.79,-1.44 2.08,-2.06 4.03,-1.98 1.83,0.03 5.65,0.9 7.56,2.44 1.87,1.52 2.99,3.57 3.78,6.59 0.75,2.92 1.08,6.52 0.68,10.95 -0.54,4.42 -3.24,10.62 -3.78,14.83 -0.68,3.99 -0.83,7.92 0,9 0.76,0.86 2.31,0.03 4.65,-3.17 2.19,-3.38 6.44,-10.4 8.71,-16.06 2.16,-5.68 3.78,-11.52 4.46,-17.49 0.61,-6.23 0.61,-13.32 -0.68,-18.51 -1.44,-5.11 -3.42,-8.35 -7.35,-11.66 -3.99,-3.31 -9.28,-6.12 -16.27,-8.28 1.05,-4.5 1.19,-9 0.43,-13.9 -0.86,-5 -2.19,-11.84 -5.11,-15.08 -2.99,-3.17 -9.03,-3.82 -12.45,-3.89 -3.495,-0.32 -6.375,1.59 -8.499,2.67 -2.268,1.11 -3.564,2.23 -4.428,3.78 z m 79.307,-36.18 c 1.73,-4.14 3.31,-7.74 4.9,-10.95 1.58,-3.2 2.19,-5.36 4.46,-8.28 2.16,-3.09 4.93,-6.19 8.46,-9.72 -0.22,2.77 -0.5,5.47 -0.47,8.25 -0.07,2.7 0,5.32 0.22,8.02 -2.23,1.19 -4.57,2.78 -7.56,4.9 -2.92,2.09 -6.3,4.68 -10.01,7.78 z"
   inkscape:connector-curvature="0" />
<path
   id="path7"
   style="fill:#ffffff;fill-rule:evenodd;stroke:#000000;stroke-width:0.036;stroke-miterlimit:10"
   d="m 196.75195,378.12001 c -0.36,-5.47 -0.25,-11.37 0.47,-18 0.61,-6.66 1.98,-15.04 3.56,-21.42 1.48,-6.51 3.2,-11.91 5.58,-16.77 2.38,-5.01 6.12,-8.93 8.46,-11.92 2.27,-2.81 3.78,-4.61 5.11,-5.11 1.26,-0.61 1.91,-0.18 2.23,1.44 1.59,-1.08 3.96,-2.74 7.13,-5.11 3.1,-2.45 7.38,-6.73 11.59,-9.25 4.18,-2.74 10.12,-4.83 13.36,-5.84 3.02,-0.86 4.21,-0.18 5.36,0.51 1.16,0.61 1.62,1.44 1.55,2.91 4.21,-2.3 8.46,-4.24 13.14,-5.83 4.65,-1.65 9.47,-2.91 14.47,-3.92 4.9,-1.08 10.73,-1.8 14.73,-2.16 3.85,-0.33 6.69,-0.51 8.68,-0.25 1.83,0.07 2.55,0.03 3.13,0.72 0.54,0.64 0.68,1.65 0.43,3.16 5.29,-0.28 10.26,-0.54 15.59,-0.46 5.22,-0.08 11.19,0.03 15.59,0.46 4.21,0.4 7.99,1.41 9.83,2.2 1.69,0.79 1.9,1.55 0.64,2.41 2.95,0.69 5.73,1.33 8.46,1.95 2.63,0.46 6.09,0.86 7.6,1.47 1.37,0.54 1.69,1.73 1.11,2.2 -0.57,0.21 -1.87,0.11 -4.46,0.25 -2.74,0.22 -7.45,0.43 -11.38,1.19 -4.03,0.75 -8.46,2.01 -12.02,2.95 -3.64,0.79 -6.62,1.44 -9.36,1.94 1.33,-2.37 2.63,-4.24 4.03,-5.61 1.44,-1.41 1.88,-2.16 4.22,-2.67 2.16,-0.61 5.18,-0.93 8.92,-0.97 -2.05,-0.68 -3.78,-1.04 -5.58,-1.22 -1.87,-0.25 -3.45,-0.22 -4.89,0.25 -1.55,0.43 -2.67,1.37 -3.78,2.66 -0.87,-1.51 -1.91,-2.52 -3.13,-3.16 -1.3,-0.65 -3.07,-0.76 -4.47,-0.73 -1.55,-0.03 -3.85,0.08 -4.43,0.47 -0.64,0.22 -0.36,0.9 0.87,1.23 1.18,0.25 4.75,0 6.26,0.5 1.37,0.47 1.84,1.55 2.23,2.41 0.36,0.76 0.36,0.8 0,2.2 -0.43,1.37 -1.26,3.06 -2.48,5.62 -5.22,0.93 -9.9,2.19 -14.47,3.63 -4.47,1.41 -8.61,3.24 -12.71,5.11 -4.32,1.8 -8.57,3.93 -12.89,6.09 1.69,-3.14 2.88,-6.23 3.56,-9 0.65,-2.81 0.79,-5.58 0.44,-8.03 2.34,-2.74 4.96,-4.9 8.02,-6.34 3.1,-1.51 8.28,-1.94 10.01,-2.66 1.44,-0.86 1.04,-2.34 -0.65,-2.2 -1.8,0.11 -6.4,1.23 -9.36,2.67 -2.95,1.29 -5.58,3.13 -8.02,5.36 -0.18,-1.4 -0.58,-2.41 -1.33,-3.17 -0.87,-0.86 -2.88,-1.62 -3.14,-1.44 -0.32,0.18 1.44,0.8 1.8,2.67 0.33,1.73 0.65,5.51 0.44,8.28 -0.4,2.81 -1.34,5.87 -2.24,8.49 -0.93,2.49 -1.76,4.68 -2.88,6.59 -5.94,2.38 -11.12,4.86 -15.84,7.31 -4.68,2.38 -7.27,4.46 -12.24,7.52 -5.14,3.1 -11.19,6.7 -18.28,10.95 2.52,-4.14 4.39,-7.74 6.04,-10.95 1.41,-3.31 2.56,-4.68 3.32,-8.28 0.79,-3.63 1.36,-7.92 1.58,-13.14 2.45,-3.06 5.15,-5.79 8.24,-8.49 3.06,-2.77 6.59,-5.76 10.01,-7.56 3.39,-1.8 7.2,-3.03 10.05,-3.39 2.7,-0.5 5.4,0.72 6.01,0.47 0.47,-0.36 -1.08,-1.87 -2.7,-2.19 -1.84,-0.36 -4.61,-0.51 -7.35,0.25 -2.77,0.68 -5.76,1.8 -9.1,3.89 -3.42,2.05 -8.1,5.83 -10.73,8.28 -2.56,2.41 -4.32,4.17 -4.9,5.83 -0.57,-1.15 -1.37,-2.13 -2.66,-2.92 -1.33,-0.9 -3.39,-1.87 -4.9,-1.94 -1.65,-0.04 -4.39,0.79 -4.46,1.22 -0.04,0.29 2.55,0.07 4.03,0.47 1.3,0.18 2.7,0.04 3.78,1.22 0.9,1.12 1.84,3.21 1.98,5.84 0.07,2.48 0.5,4.21 -1.33,9.75 -1.95,5.62 -5.19,13.18 -10.01,23.37 -5.51,3.92 -10.58,7.56 -15.37,11.19 -4.97,3.67 -9.79,7.27 -13.36,10.23 -3.53,2.77 -6.01,4.82 -7.59,6.3 2.48,-7.35 4.53,-13.61 6.69,-19.23 1.95,-5.65 4.5,-10.08 5.58,-14.11 1.08,-4.14 1.37,-7.42 0.87,-10.22 2.19,-3.75 4.17,-6.84 6.47,-9.72 2.16,-2.88 4.11,-5.04 6.66,-7.31 2.56,-2.38 7.2,-5.4 8.5,-6.55 1.08,-1.26 0.11,-1.34 -1.37,-0.51 -1.62,0.87 -4.97,3.24 -7.56,5.62 -2.63,2.23 -5.9,5.14 -8.03,7.77 -2.19,2.49 -3.78,4.97 -4.89,7.31 -0.36,-2.52 -1.08,-4.18 -2.02,-5.11 -1.08,-0.94 -3.78,-1.15 -3.78,-0.5 -0.04,0.61 2.63,1.76 3.56,4.14 0.72,2.37 1.7,5.54 1.12,9.5 -0.76,3.64 -2.77,7.7 -4.68,12.89 -1.94,5.25 -4.46,13.1 -6.44,18.25 -1.95,5 -3.57,8.89 -5.15,11.66 -1.69,2.67 -3.21,4 -4.68,4.14 z"
   inkscape:connector-curvature="0" />
<path
   id="path9"
   style="fill-rule:evenodd;stroke:#000000;stroke-width:0.036;stroke-miterlimit:10"
   d="m 221.26195,326.54001 c 0.47,-1.37 3.1,-4.61 3.57,-4.86 0.32,-0.22 -0.4,2.3 -0.9,3.67 -0.65,1.26 -1.77,3.53 -2.23,3.89 -0.62,0.1 -0.9,-1.44 -0.44,-2.7 z"
   inkscape:connector-curvature="0" />
<path
   id="path11"
   style="fill-rule:evenodd;stroke:#000000;stroke-width:0.036;stroke-miterlimit:10"
   d="m 215.25195,352.10001 c -0.39,0.1 -3.38,6.48 -3.56,8.02 -0.25,1.48 0.61,1.84 2.01,1.23 1.23,-0.69 5.48,-4.79 5.55,-5.11 -0.11,-0.47 -4.61,3.6 -5.33,2.91 -0.72,-0.75 1.62,-7.27 1.33,-7.05 z"
   inkscape:connector-curvature="0" />
<path
   id="path13"
   style="fill-rule:evenodd;stroke:#000000;stroke-width:0.036;stroke-miterlimit:10"
   d="m 255.36195,327.51001 c -0.33,0.29 -4.58,5.65 -4,6.08 0.43,0.33 6.52,-3.35 6.88,-3.63 0.25,-0.36 -4.43,2.01 -4.9,1.69 -0.54,-0.43 2.3,-4.5 2.02,-4.14 z"
   inkscape:connector-curvature="0" />
<path
   id="path15"
   style="fill-rule:evenodd;stroke:#000000;stroke-width:0.036;stroke-miterlimit:10"
   d="m 258.49195,315.12001 c -0.18,-0.21 0.14,-5.11 1.11,-7.05 0.87,-1.98 4.29,-4.47 4.43,-4.39 0.04,0.07 -2.63,2.84 -3.56,4.86 -0.94,1.83 -1.87,6.62 -1.98,6.58 z"
   inkscape:connector-curvature="0" />
<path
   id="path17"
   style="fill-rule:evenodd;stroke:#000000;stroke-width:0.036;stroke-miterlimit:10"
   d="m 302.16195,302.96001 c -0.26,0.18 -3.82,4.57 -2.92,5.11 0.86,0.43 7.45,-2.02 7.81,-2.2 0.07,-0.25 -5.65,1.37 -6.48,0.97 -0.72,-0.57 1.62,-4.14 1.59,-3.88 z"
   inkscape:connector-curvature="0" />
<path
   id="path19"
   style="fill-rule:evenodd;stroke:#000000;stroke-width:0.036;stroke-miterlimit:10"
   d="m 342.69195,293.92001 c -0.68,0.11 -1.01,1.3 -0.68,1.48 0.32,0 2.99,-0.44 3.13,-0.72 0.14,-0.33 -2.02,-0.9 -2.45,-0.76 z"
   inkscape:connector-curvature="0" />
<path
   id="path21"
   style="fill-rule:evenodd;stroke:#000000;stroke-width:0.036;stroke-miterlimit:10"
   d="m 320.84195,286.65001 c 0.76,-0.54 4.72,-1.12 4.93,-0.76 0,0.29 -3.7,2.49 -4.46,2.7 -0.94,-0.03 -1.19,-1.47 -0.47,-1.94 z"
   inkscape:connector-curvature="0" />
<path
   id="path23"
   style="fill:#ffffff;fill-rule:evenodd;stroke:#000000;stroke-width:0.036;stroke-miterlimit:10"
   d="m 203.44195,387.38001 c 3.78,1.4 7.82,2.62 12.24,3.67 4.43,0.9 8.32,2.45 14.04,2.41 5.55,0 14.15,-1.4 19.41,-2.41 5.11,-1.15 9.79,-2.63 11.55,-3.89 1.52,-1.33 -1.54,-2.92 -1.54,-3.92 0,-1.08 -0.51,-1.7 1.8,-2.42 2.19,-0.75 6.69,-0.93 11.55,-2.19 4.86,-1.44 12.46,-4.03 16.96,-5.83 4.21,-1.95 6.73,-3.75 8.68,-5.12 1.83,-1.36 2.44,-2.01 2.66,-2.91 0.22,-0.94 -0.4,-2.05 -1.55,-2.95 3.06,-0.18 6.63,-0.83 10.69,-1.95 4.03,-1.11 8.57,-2.23 13.61,-4.86 5,-2.84 12.64,-8.82 16.49,-11.66 3.74,-2.88 5.04,-3.93 6.23,-5.36 1.08,-1.52 1.22,-2.78 0.43,-3.64 2.02,-1.66 3.96,-3.31 6.23,-5.36 2.23,-2.13 4.68,-4.47 6.91,-6.59 2.09,-2.2 5.18,-4.68 5.8,-6.09 0.43,-1.47 -0.33,-2.23 -2.67,-2.41 2.16,-0.86 4.68,-2.41 7.56,-4.64 2.92,-2.34 7.56,-6.56 9.61,-8.75 1.98,-2.23 2.67,-3.6 1.77,-4.39 -1.12,-0.83 -4.25,-0.94 -8.03,-0.47 -3.89,0.32 -11.23,1.76 -14.69,2.66 -3.56,0.87 -5,1.73 -6.26,2.45 -1.37,0.58 -1.44,0.83 -1.33,1.44 0.07,0.61 0.79,1.3 2.01,2.2 -1,0.1 -1.94,-0.08 -2.66,-0.26 -0.79,-0.25 -1.58,-0.64 -1.8,-1.18 -0.29,-0.69 -0.04,-1.37 0.47,-2.45 l -6.01,2.66 c 1.15,1.05 2.95,2.02 5.11,2.92 2.12,0.93 5.54,1.94 8.03,2.19 2.41,0 4.6,-0.43 6.44,-1.44 1.69,-0.97 3.49,-4.06 4.03,-4.14 0.43,-0.14 -0.22,2.23 -1.12,3.39 -1.04,1.08 -2.59,2.16 -4.24,2.95 -1.59,0.65 -3.42,1.04 -5.37,1.19 -0.18,1.98 -0.79,3.89 -1.98,5.87 -1.29,1.94 -4.57,5.32 -5.11,5.58 -0.61,0.07 1.15,-3.14 1.98,-4.61 0.72,-1.55 2.67,-2.88 2.92,-4.14 0.14,-1.33 -0.25,-2.52 -1.59,-3.42 -1.4,-0.94 -4.5,-1.26 -6.23,-1.95 -1.76,-0.79 -2.62,-2.12 -4.24,-2.44 -1.66,-0.33 -3.06,-0.29 -6.02,0.5 -3.27,0.83 -8.56,2.3 -12.67,3.89 -4.1,1.33 -7.59,2.52 -11.59,4.39 -4.03,1.8 -8.32,4.03 -12.71,6.55 3.39,-0.07 6.81,0.47 10.26,1.48 3.49,0.94 6.81,3.63 10.23,4.61 3.24,0.86 6.33,1.08 9.14,1.22 2.59,0.07 4.25,0.36 6.91,-0.25 2.63,-0.72 7.6,-3.24 8.93,-3.39 1.19,-0.28 0.22,1.44 -1.37,2.42 -1.72,1.04 -4.71,3.06 -7.99,3.67 -3.27,0.47 -7.02,0.21 -11.37,-0.76 0.54,2.63 0.39,4.97 -0.44,7.31 -0.97,2.3 -2.48,4.32 -4.68,6.34 -2.16,1.94 -5.9,4.24 -8.02,5.36 -2.2,1.12 -5.55,1.58 -4.9,0.97 0.61,-0.83 6.37,-3.67 8.68,-5.61 2.16,-2.09 3.74,-4.18 4.89,-6.56 1.15,-2.48 1.95,-5.11 2.23,-8.02 -2.34,-0.47 -4.71,-1.12 -7.12,-1.95 -2.49,-1 -4.94,-2.34 -7.35,-3.16 -2.41,-0.83 -4.53,-1.55 -7.34,-1.48 -2.95,-0.11 -6.05,0.14 -10.26,1.73 -4.43,1.58 -10.98,5.33 -15.37,7.77 -4.47,2.31 -7.38,4.32 -10.7,6.34 -3.45,1.94 -6.15,3.38 -9.36,5.58 -3.2,2.09 -6.3,4.57 -9.57,7.31 3.42,-0.58 6.44,-0.58 9.36,0 2.84,0.54 4.93,2.19 7.77,3.17 2.74,0.79 5.62,1.69 8.93,2.16 3.31,0.43 6.88,0.79 10.69,0.5 3.64,-0.47 7.67,-1.58 11.13,-2.92 3.35,-1.4 8.13,-5.14 8.93,-5.11 0.72,0.07 -1.88,3.35 -4.47,5.11 -2.66,1.59 -6.44,3.17 -11.34,4.61 -0.43,2.16 -1.55,4.32 -3.35,6.34 -1.83,2.01 -7.09,5.58 -7.59,5.83 -0.61,-0.04 2.88,-3.17 4.24,-5.11 1.41,-1.95 2.49,-4 3.78,-6.3 -4.32,0.79 -8.53,0.79 -12.92,0 -4.46,-0.94 -9.79,-3.82 -13.36,-4.9 -3.67,-1.01 -5.58,-1.08 -8.24,-1.19 -2.73,-0.18 -5.29,-0.1 -7.81,0.22 -2.81,1.33 -5.65,3.02 -8.68,5.36 -3.17,2.27 -6.73,5.55 -9.57,8.28 -2.85,2.74 -5.3,5.15 -7.35,7.78 3.67,0.03 7.63,0.43 12.03,1.47 4.35,1.05 10.08,3.61 14.25,4.36 4.11,0.61 7.35,-0.32 10.26,-0.72 2.74,-0.54 4.54,-1.22 6.66,-2.2 2.16,-1.11 5.26,-3.92 6.23,-4.14 0.94,-0.25 0.65,1.44 -0.86,2.7 -1.69,1.16 -5.69,3.21 -8.93,4.36 -3.38,1.08 -6.77,1.69 -10.69,1.98 -0.18,1.37 -1.3,2.63 -3.35,3.38 -2.2,0.8 -6.62,1.34 -9.11,1.48 -2.63,-0.04 -5.83,-0.9 -5.58,-1.22 0.4,-0.36 5.58,-0.51 7.78,-0.72 2.05,-0.29 3.17,-0.36 4.46,-0.76 1.15,-0.47 2.05,-1.12 2.7,-1.94 -2.23,-0.76 -4.93,-1.52 -8.24,-2.42 -3.39,-1 -8.03,-2.44 -11.59,-2.91 -3.68,-0.4 -6.81,-0.29 -9.83,0.47 -2.02,1.26 -3.6,2.59 -4.9,4.14 -1.33,1.47 -2.13,3.09 -2.67,4.86 z"
   inkscape:connector-curvature="0" />
<path
   id="path25"
   style="fill-rule:evenodd;stroke:#000000;stroke-width:0.036;stroke-miterlimit:10"
   d="m 260.47195,343.35001 c -0.61,-0.04 -4.68,2.09 -5.55,3.17 -0.79,0.97 -0.57,2.48 0.65,3.13 1.05,0.65 5.62,0.54 5.8,0.5 -0.04,-0.29 -4.47,-0.83 -5.11,-1.47 -0.65,-0.65 0.79,-1.37 1.54,-2.16 0.62,-0.9 3.17,-3.21 2.67,-3.17 z"
   inkscape:connector-curvature="0" />
<path
   id="path27"
   style="fill-rule:evenodd;stroke:#000000;stroke-width:0.036;stroke-miterlimit:10"
   d="m 307.27195,318.76001 c 1.01,0.47 7.16,1.91 7.77,1.94 0.33,-0.14 -3.99,-2.37 -5.32,-2.66 -1.37,-0.36 -3.39,0.25 -2.45,0.72 z"
   inkscape:connector-curvature="0" />
<path
   id="path29"
   style="fill-rule:evenodd;stroke:#000000;stroke-width:0.036;stroke-miterlimit:10"
   d="m 267.16195,373.77001 c 0.87,-0.94 3.78,-2.45 4.47,-2.45 0.57,0 0.21,1.51 -0.69,2.45 -1.04,0.75 -3.99,2.66 -4.68,2.66 -0.64,0 -0.07,-1.91 0.9,-2.66 z"
   inkscape:connector-curvature="0" />
<path
   id="path31"
   style="fill-rule:evenodd;stroke:#000000;stroke-width:0.036;stroke-miterlimit:10"
   d="m 224.18195,370.10001 c -0.83,0.39 -3.06,2.34 -2.23,2.91 0.83,0.51 6.62,0.36 7.13,0.25 0.25,-0.21 -4.18,-0.72 -4.68,-1.22 -0.44,-0.58 1.94,-1.69 1.98,-1.94 -0.04,-0.47 -1.55,-0.47 -2.2,0 z"
   inkscape:connector-curvature="0" />
<path
   id="path33"
   style="fill-rule:evenodd;stroke:#000000;stroke-width:0.036;stroke-miterlimit:10"
   d="m 215.68195,384.46001 c 1.84,-0.04 5.69,0.25 6.7,0.72 0.83,0.36 0.43,1.94 -1.33,1.98 -1.95,-0.04 -8.35,-1.62 -9.36,-1.98 -0.87,-0.47 2.09,-0.76 3.99,-0.72 z"
   inkscape:connector-curvature="0" />
<path
   id="path35"
   style="fill:#ffffff;fill-rule:evenodd;stroke:#000000;stroke-width:0.036;stroke-miterlimit:10"
   d="m 182.06195,404.48001 c 4.21,-7.17 8.75,-13.79 14.04,-20.02 5.22,-6.26 9.83,-11.05 17.14,-17.28 7.2,-6.34 17.38,-14.36 25.84,-20.2 8.39,-5.94 16.74,-10.51 24.09,-14.83 7.16,-4.35 11.48,-7.63 18.93,-11.19 7.53,-3.82 17.93,-7.67 25.39,-10.73 7.23,-3.1 11.62,-5.15 18.03,-7.27 6.27,-2.2 14.08,-3.86 19.84,-5.37 5.65,-1.58 10.01,-2.63 14.47,-3.42 4.46,-0.79 8.93,-1.01 12.27,-1.22 3.43,-0.4 6.92,-0.65 7.57,-0.47 0.39,0.22 -1.98,1.01 -4.9,1.69 -3.13,0.51 -7.49,0.58 -12.92,1.73 -5.44,1.08 -12.42,3.06 -19.15,5.11 -6.77,1.91 -13.32,4.03 -21.17,7.06 -8.03,3.06 -17.39,6.84 -26.28,11.19 -9,4.22 -18.36,9.11 -26.97,14.12 -8.78,4.86 -17.02,10.51 -24.3,15.3 -7.27,4.75 -12.7,8.35 -18.68,13.14 -6.19,4.68 -11.92,9.9 -17.17,15.12 -5.33,5.14 -10.44,10.33 -13.83,15.55 -3.27,5.11 -5.4,7.99 -6.23,14.87 -1,6.73 0.26,18.46 0.44,25.48 0.07,6.88 0.25,7.71 0.25,15.81 -0.07,8.1 -0.18,18.57 -0.47,32.11 h -9.36 c -0.83,-10.84 -1.22,-20.84 -1.33,-30.17 -0.18,-9.5 0.83,-18.75 0.68,-25.81 -0.29,-7.02 -1.11,-12.49 -1.8,-16.27 -0.79,-3.85 0.94,-2.23 -2.45,-6.95 -3.49,-5 -12.27,-15.59 -18.03,-22.03 -5.8,-6.45 -10.3,-9.94 -16.71,-16.31 -6.62,-6.55 -14.72,-15.37 -22.064,-22.14 -7.308,-6.95 -15.264,-13.1 -21.383995,-18.47 -6.228,-5.43 -10.476,-8.64 -15.372,-13.64 -5.04,-5.26 -9.864,-11.05 -14.04,-16.56 -4.176,-5.44 -7.416,-11.27 -10.692,-15.55 -3.384,-4.25 -5.724,-6.23 -9.108,-10.23 -3.456,-4.18 -10.548,-13.39 -11.16,-14.62 -0.648,-1.33 3.42,2.56 7.344,6.81 3.78,4.25 11.628,13.03 15.624,18.03 3.888,4.72 4.752,6.66 7.992,10.69 3.204,3.96 6.876,8.21 11.16,12.89 0.18,2.09 0.972,3.96 2.232,5.48 1.26,1.51 3.636,2.73 5.328,3.67 1.62,0.83 2.988,1.19 4.248,1.22 5.364,4.47 11.447995,9.65 18.251995,15.7 6.84,5.97 15.912,14.22 22.5,20.45 6.55,6.22 10.8,11.26 16.49,16.77 5.54,5.47 12.45,11.48 16.7,15.81 4.11,4.14 5.29,5.83 8.03,9.35 2.7,3.46 5.9,8.75 7.81,11.45 1.76,2.6 2.77,3.93 2.88,4.15 z"
   inkscape:connector-curvature="0" />
<path
   id="path37"
   style="fill:#ffffff;fill-rule:evenodd;stroke:#000000;stroke-width:0.036;stroke-miterlimit:10"
   d="m 51.526955,275.38001 c -1.944,-2.52 -4.032,-5.15 -6.264,-8.03 -2.412,-2.99 -5.364,-6.77 -7.344,-9.25 -1.98,-2.52 -4.068,-5.9 -4.464,-5.58 -0.432,0.32 0.864,4.57 1.8,7.31 0.828,2.59 1.944,5.47 3.348,8.49 0.144,-2.34 0.36,-3.63 0.648,-3.88 0.288,-0.26 0.54,1.08 0.9,2.19 0.288,1.05 0.468,2.85 1.116,4.14 0.54,1.33 1.656,2.41 2.664,3.39 1.008,0.75 2.196,1.51 3.564,1.72 1.26,0.15 2.556,0.08 4.032,-0.5 z"
   inkscape:connector-curvature="0" />
<path
   id="path39"
   style="fill:#ffffff;fill-rule:evenodd;stroke:#000000;stroke-width:0.036;stroke-miterlimit:10"
   d="m 73.558955,304.36001 c -2.16,-2.34 -4.284,-4.86 -6.228,-7.56 -2.052,-2.74 -3.888,-6.12 -5.796,-8.75 -2.088,-2.88 -4.14,-5.87 -6.012,-7.56 -1.98,-1.69 -3.636,-2.23 -5.364,-2.45 -1.8,-0.32 -3.816,-0.07 -4.644,0.76 -0.9,0.72 -0.468,2.12 -0.252,3.64 0.144,1.44 1.692,4.17 1.584,4.86 -0.108,0.43 -1.728,0 -2.232,-1.44 -0.612,-1.59 -1.188,-5.15 -1.332,-6.81 -0.216,-1.55 -0.144,-2.41 0.216,-2.45 -0.864,-1 -1.656,-2.01 -2.232,-3.16 -0.684,-1.23 -0.9,-3.46 -1.332,-3.64 -0.432,-0.14 -1.26,1.12 -1.116,2.66 0,1.52 1.116,3.68 1.548,6.09 0.324,2.27 -0.216,4.64 0.9,7.56 1.044,2.88 2.952,5.9 5.58,9.47 -0.72,1 -1.296,2.37 -1.332,4.39 -0.252,1.94 -0.18,4.25 0.648,7.31 0.9,2.98 3.06,7.52 4.68,10.69 1.476,3.06 3.168,5.65 4.68,7.77 -0.828,1.19 -1.152,2.78 -1.116,4.9 0,2.05 0.396,4.93 1.332,7.52 0.828,2.38 1.656,4.25 4.032,7.56 2.304,3.35 5.688,7.38 10.008,12.39 -1.728,-0.25 -2.736,0 -2.88,0.75 -0.252,0.72 0.612,1.98 1.764,3.64 1.044,1.55 2.556,3.64 4.68,5.83 2.088,2.09 5.616,5.15 7.812,6.84 2.052,1.59 3.78,2.56 4.896,2.92 -2.052,0.61 -2.988,1.55 -2.664,2.66 0.252,1.08 0.684,2.59 4.212,4.14 3.42,1.48 11.088,3.93 16.487995,4.86 5.256,0.87 9.684,0.9 15.372,0.25 5.652,-0.79 12.813,-3.06 18.283,-4.86 5.4,-1.94 9.98,-4.14 14.01,-6.58 -0.94,-1.12 -2.59,-2.38 -4.68,-3.64 -2.23,-1.4 -4.93,-3.2 -8.25,-4.14 -3.45,-0.94 -7.7,-1.8 -11.767,-1.48 -4.104,0.15 -9.072,1.59 -12.276,2.92 -3.204,1.33 -5.148,3.1 -6.66,4.9 -1.584,1.69 -2.484,3.81 -2.7,5.11 -0.36,1.08 -0.108,1.8 0.9,2.16 0.9,0.21 4.752,0.11 4.896,0.25 -0.036,0.18 -2.736,1.33 -4.212,1.22 -1.512,-0.21 -4.392,-0.57 -4.464,-2.19 -0.072,-1.66 1.044,-4.47 3.78,-8.03 -4.716,-1.22 -8.783995,-2.52 -12.491995,-3.89 -3.708,-1.51 -6.768,-2.12 -9.576,-4.61 -2.988,-2.59 -6.948,-9.32 -7.56,-10.47 -0.648,-1.19 2.304,2.01 3.996,3.63 1.62,1.52 2.556,3.71 5.58,5.62 2.952,1.73 7.956,3.89 11.808,5.11 3.671995,1.15 7.163995,1.98 10.475995,2.2 2.88,-1.84 5.724,-3.17 8.676,-4.14 2.916,-1.05 5.94,-1.44 8.928,-1.73 2.916,-0.36 5.507,-0.61 8.457,-0.22 2.88,0.33 5.73,1.05 8.68,2.16 -4.29,-4.06 -8.25,-7.7 -12.03,-11.19 -3.847,-3.49 -7.159,-6.56 -10.471,-9.47 -3.348,-2.99 -5.868,-6.12 -9.36,-8.28 -3.636,-2.27 -7.848,-4 -11.807995,-4.65 -4.068,-0.64 -8.28,-0.07 -11.808,0.76 -3.6,0.69 -6.732,2.09 -9.108,3.39 -2.448,1.18 -4.032,2.59 -5.148,3.92 -1.152,1.37 -0.9,3.1 -1.332,3.64 -0.504,0.25 -1.152,-0.62 -1.116,-1.48 -0.072,-0.86 0.396,-2.12 1.116,-3.64 -1.692,-0.79 -3.276,-1.47 -4.896,-2.44 -1.62,-0.9 -3.636,-1.95 -4.68,-3.14 -1.188,-1.4 -2.556,-4.57 -2.016,-4.64 0.468,-0.07 3.024,3.06 4.896,4.39 1.8,1.26 3.96,2.41 5.796,2.92 1.62,0.28 2.412,0 4.464,-0.72 1.98,-0.83 4.716,-2.7 7.812,-3.68 3.06,-1 7.74,-1.87 10.692,-2.19 2.772,-0.4 4.32,-0.4 6.443995,0 2.16,0.39 4.104,1.08 6.264,2.19 -4.824,-3.85 -8.891995,-7.16 -12.491995,-10.22 -3.708,-3.13 -6.084,-5.44 -8.928,-8.03 -2.916,-2.7 -5.256,-5.72 -7.992,-7.52 -2.772,-1.87 -5.868,-2.41 -8.46,-3.17 -2.7,-0.9 -5.436,-1.76 -7.38,-1.48 -2.052,0.22 -3.744,1.73 -4.68,3.17 -0.936,1.3 -1.26,3.13 -1.116,5.11 0,2.02 1.476,5.65 1.368,6.59 -0.324,0.61 -1.944,-0.5 -2.484,-1.94 -0.576,-1.48 -0.792,-4.97 -0.648,-6.59 0.072,-1.76 0.324,-2.88 0.9,-3.64 -1.8,-1.01 -3.24,-2.12 -4.032,-3.89 -0.936,-1.8 -1.404,-6.22 -1.116,-6.33 0.36,-0.15 1.8,4.17 2.916,5.58 0.9,1.26 1.728,2.27 2.88,2.19 1.044,-0.21 2.52,-2.12 4.032,-2.66 1.476,-0.61 3.06,-0.83 5.328,-0.5 2.304,0.32 5.076,1.22 8.46,2.7 z"
   inkscape:connector-curvature="0" />
<path
   id="path41"
   style="fill-rule:evenodd;stroke:#000000;stroke-width:0.036;stroke-miterlimit:10"
   d="m 47.278955,290.00001 c -0.216,0.18 1.476,3.6 2.016,4.14 0.432,0.43 1.188,-0.58 0.9,-1.23 -0.468,-0.83 -2.736,-3.09 -2.916,-2.91 z"
   inkscape:connector-curvature="0" />
<path
   id="path43"
   style="fill-rule:evenodd;stroke:#000000;stroke-width:0.036;stroke-miterlimit:10"
   d="m 91.630955,324.77001 c 0.54,0 4.536,3.13 4.896,4.14 0.18,0.9 -1.692,1.12 -3.132,1.48 -1.584,0.29 -4.752,0.57 -5.328,0.47 -0.54,-0.22 1.296,-1.16 2.196,-1.44 0.828,-0.36 2.376,0.25 2.7,-0.51 0.18,-0.86 -1.98,-4.14 -1.332,-4.14 z"
   inkscape:connector-curvature="0" />
<path
   id="path45"
   style="fill-rule:evenodd;stroke:#000000;stroke-width:0.036;stroke-miterlimit:10"
   d="m 106.31895,339.64001 c 1.512,0.4 4.68,1.69 6.012,2.92 1.26,1.08 1.872,3.63 1.548,3.63 -0.54,-0.14 -2.196,-3.09 -3.996,-4.14 -1.836,-1.11 -6.156,-1.58 -6.696,-1.94 -0.54,-0.54 1.476,-0.83 3.132,-0.47 z"
   inkscape:connector-curvature="0" />
<path
   id="path47"
   style="fill-rule:evenodd;stroke:#000000;stroke-width:0.036;stroke-miterlimit:10"
   d="m 129.25095,358.61001 c 0.72,0.22 4.251,3.93 4.461,4.61 0,0.54 -3.27,-0.5 -3.993,-1.19 -0.756,-0.83 -1.188,-3.63 -0.468,-3.42 z"
   inkscape:connector-curvature="0" />
<path
   id="path49"
   style="fill-rule:evenodd;stroke:#000000;stroke-width:0.036;stroke-miterlimit:10"
   d="m 73.342955,351.30001 c -0.324,-0.1 0,2.13 0.432,2.67 0.36,0.43 1.584,0.65 1.584,0.25 -0.216,-0.58 -1.728,-2.84 -2.016,-2.92 z"
   inkscape:connector-curvature="0" />
<path
   id="path51"
   style="fill-rule:evenodd;stroke:#000000;stroke-width:0.036;stroke-miterlimit:10"
   d="m 57.070955,323.58001 c -0.324,-0.07 0.828,3.6 1.368,4.36 0.432,0.68 1.728,0.68 1.548,0 -0.36,-0.76 -2.628,-4.43 -2.916,-4.36 z"
   inkscape:connector-curvature="0" />
<path
   id="path53"
   style="fill:#ffffff;fill-rule:evenodd;stroke:#000000;stroke-width:0.036;stroke-miterlimit:10"
   d="m 54.622955,269.80001 c -1.224,-1.91 -3.276,-4.25 -6.012,-7.31 -2.988,-3.17 -8.172,-8.06 -10.692,-10.94 -2.412,-2.95 -4.32,-5.51 -3.78,-5.87 0.396,-0.32 2.592,0.94 6.444,3.92 1.8,-0.36 3.888,-0.36 6.264,0 2.232,0.26 5.328,0.9 7.776,1.95 2.376,1.04 4.608,2.45 6.696,4.35 1.116,-0.64 2.52,-0.72 4.212,-0.21 1.692,0.54 3.348,1.73 5.796,3.13 2.34,1.3 4.968,2.63 8.028,4.39 -0.396,1.19 -0.54,2.2 -0.432,3.17 0,0.9 0.432,1.76 0.9,2.45 -0.9,1.01 -1.764,1.44 -2.448,1.44 -0.792,-0.04 -0.864,-1.15 -2.016,-1.69 -1.224,-0.69 -4.572,-2.34 -4.896,-2.2 -0.36,0.11 1.548,1.55 2.664,2.66 1.008,0.98 2.664,1.66 3.564,3.42 0.684,1.59 0.684,4.76 1.116,6.59 0.432,1.8 0.9,3.21 1.548,4.36 -1.152,2.34 -2.016,4.35 -2.448,6.59 -0.504,2.12 -0.648,4.1 -0.432,6.08 -1.116,-0.83 -3.348,-3.17 -6.696,-7.31 -3.456,-4.21 -7.884,-9.83 -13.572,-17.28 0.828,-1.51 1.152,-3.31 1.116,-5.11 -0.072,-1.84 -0.648,-3.96 -1.584,-6.08 1.44,0.07 2.808,0.39 4.248,0.97 1.296,0.5 3.6,2.3 3.996,2.19 0.324,-0.32 -0.864,-2.3 -1.764,-3.16 -1.008,-0.8 -2.448,-1.41 -3.78,-1.7 -1.404,-0.36 -2.844,-0.57 -4.464,-0.5 -1.728,-1.73 -3.24,-2.81 -4.68,-3.64 -1.44,-0.79 -4.176,-1.58 -3.78,-0.97 0.324,0.61 3.888,2.85 5.544,4.36 1.62,1.33 2.88,2.45 3.78,3.92 0.684,1.41 0.72,3.17 0.684,4.61 0,1.3 -0.396,2.48 -0.9,3.42 z"
   inkscape:connector-curvature="0" />
<path
   id="path55"
   style="fill:#ffffff;fill-rule:evenodd;stroke:#000000;stroke-width:0.036;stroke-miterlimit:10"
   d="m 79.822955,270.99001 c 0.54,0.83 1.332,1.47 2.664,1.94 1.296,0.43 2.88,0.69 4.896,0.76 -2.052,1.44 -3.564,2.84 -4.68,4.35 -1.116,1.52 -1.836,2.85 -2.016,4.4 -0.792,-2.2 -1.26,-4.04 -1.548,-5.37 -0.36,-1.44 0.144,-2.09 0,-2.91 -0.216,-0.9 -0.54,-1.84 -1.116,-2.67 0.576,-0.14 1.188,-0.32 1.8,-0.5 z"
   inkscape:connector-curvature="0" />
<path
   id="path57"
   style="fill:#ffffff;fill-rule:evenodd;stroke:#000000;stroke-width:0.036;stroke-miterlimit:10"
   d="m 92.962955,260.04001 c -2.412,-0.93 -4.284,-1.26 -6.012,-0.97 -1.8,0.15 -3.096,1.19 -4.032,2.45 -1.008,1.26 -1.98,3.56 -1.548,5.11 0.396,1.41 2.304,2.67 4.212,3.64 1.836,0.9 4.14,1.55 6.912,1.94 -3.312,1.51 -6.012,3.57 -8.244,6.59 -2.268,2.92 -4.248,7.34 -5.112,10.94 -0.972,3.64 -1.296,6.92 -0.432,9.98 0.9,2.8 2.772,5.43 5.328,7.05 2.376,1.48 5.544,2.31 8.928,2.2 3.384,-0.33 7.919995,-1.98 10.691995,-3.17 2.52,-1.19 3.384,-2.12 4.68,-3.64 1.224,-1.58 2.232,-2.84 2.88,-5.86 0.468,-3.28 0.324,-11.6 0.684,-12.89 0.324,-1.26 1.116,2.52 1.548,5.36 0.288,2.7 -0.288,7.78 0.9,10.94 1.26,3.1 3.312,6.09 6.444,7.57 3.024,1.36 7.992,1.15 11.591,0.72 3.49,-0.54 6.98,-1.48 9.36,-3.64 2.34,-2.27 3.92,-5.94 4.46,-9.5 0.4,-3.75 -0.9,-8.82 -1.8,-12.17 -0.97,-3.42 -2.23,-5.22 -3.78,-7.78 -1.69,-2.63 -3.6,-5.18 -6.01,-7.81 2.74,-1.33 4.32,-2.67 4.9,-4.14 0.47,-1.44 -0.07,-3.03 -1.77,-4.61 -1.98,1.73 -3.49,2.41 -4.24,2.45 -0.9,-0.07 -1.55,-1.3 -0.69,-2.7 0.83,-1.69 4.11,-4.18 5.8,-6.34 1.62,-2.16 2.52,-3.63 3.81,-6.08 1.19,-2.52 2.67,-5 3.32,-8.42 0.5,-3.53 0.5,-8.46 0,-12.17 -0.69,-3.85 -2.52,-8.61 -3.57,-10.23 -1.19,-1.62 -1.87,-0.5 -2.88,0.72 -1.04,1.08 -1.22,5.01 -2.91,6.34 -1.77,1.26 -5.19,2.34 -7.347,1.69 -2.196,-0.75 -3.96,-4.1 -5.58,-5.58 -1.656,-1.62 -2.88,-3.6 -4.212,-3.17 -1.44,0.51 -2.808,2.49 -4.248,6.09 0.684,3.09 1.008,6.44 1.116,10.44 -0.036,3.85 -0.396,11.95 -0.648,12.92 -0.252,0.9 -0.684,-4.35 -0.9,-7.31 -0.252,-3.06 -0.504,-8.02 -0.9,-10.72 -0.54,-2.85 -1.008,-3.78 -2.232,-5.58 -1.368,-1.8 -4.068,-4.72 -5.328,-4.86 -1.26,-0.26 -1.872,2.01 -2.232,3.88 -0.54,1.84 0.108,5.12 -0.432,7.06 -0.684,1.73 -0.936,2.74 -3.132,4.14 -2.375995,1.33 -7.739995,2.38 -10.259995,4.39 -2.556,1.91 -4.14,4.79 -4.896,7.53 -0.936,2.77 -1.26,6.04 0,9 1.296,2.91 3.852,5.5 7.812,8.2 z"
   inkscape:connector-curvature="0" />
<path
   id="path59"
   style="fill-rule:evenodd;stroke:#000000;stroke-width:0.036;stroke-miterlimit:10"
   d="m 97.642955,258.89001 c 1.656,1.01 3.059995,1.87 4.211995,2.45 1.044,0.58 1.476,0.9 2.664,0.97 1.188,0.07 2.628,-0.21 4.464,-0.72 -0.936,1.23 -1.872,1.95 -3.348,2.16 -1.548,0.15 -3.708,-0.18 -5.112,-0.97 -1.403995,-0.83 -2.267995,-2.12 -2.879995,-3.89 z"
   inkscape:connector-curvature="0" />
<path
   id="path61"
   style="fill-rule:evenodd;stroke:#000000;stroke-width:0.036;stroke-miterlimit:10"
   d="m 103.18695,266.92001 c -1.224,0 -4.139995,0.68 -5.543995,1.48 -1.512,0.79 -3.06,2.73 -2.7,2.91 0.396,0 3.456,-2.23 5.147995,-2.66 1.548,-0.58 3.852,0.03 4.428,-0.25 0.468,-0.4 -0.252,-1.44 -1.332,-1.48 z"
   inkscape:connector-curvature="0" />
<path
   id="path63"
   style="fill-rule:evenodd;stroke:#000000;stroke-width:0.036;stroke-miterlimit:10"
   d="m 102.53895,271.56001 c -0.972,0.4 -3.239995,1.37 -4.031995,2.92 -0.864,1.33 -1.296,5.29 -0.864,5.36 0.252,0 1.98,-3.92 3.095995,-5.11 1.224,-1.22 3.06,-2.09 3.564,-2.45 0.216,-0.64 -0.828,-1.08 -1.764,-0.72 z"
   inkscape:connector-curvature="0" />
<path
   id="path65"
   style="fill-rule:evenodd;stroke:#000000;stroke-width:0.036;stroke-miterlimit:10"
   d="m 124.35495,269.12001 c -0.072,0.32 2.736,0.86 3.564,2.19 0.648,1.3 0.324,5.15 0.684,5.58 0.216,0.18 1.399,-2.55 1.332,-3.89 -0.036,-1.4 -0.684,-3.52 -1.548,-4.14 -1.044,-0.68 -3.96,-0.18 -4.032,0.26 z"
   inkscape:connector-curvature="0" />
<path
   id="path67"
   style="fill-rule:evenodd;stroke:#000000;stroke-width:0.036;stroke-miterlimit:10"
   d="m 120.79095,264.00001 c 0.792,0.51 2.412,1.23 4.032,0.76 1.548,-0.5 5.289,-3.17 5.539,-3.67 0.08,-0.58 -2.947,-0.07 -4.207,0.25 -1.224,0.29 -2.124,1.37 -3.132,1.44 -1.188,-0.07 -2.952,-1.62 -3.348,-1.44 -0.396,0.22 0.252,1.98 1.116,2.66 z"
   inkscape:connector-curvature="0" />
<path
   id="path69"
   style="fill-rule:evenodd;stroke:#000000;stroke-width:0.036;stroke-miterlimit:10"
   d="m 116.79495,256.48001 c 0.288,1.37 -0.504,4.9 0,6.55 0.432,1.51 1.62,2.38 2.448,3.17 0.684,0.65 2.34,0.94 1.764,1.69 -0.684,0.76 -4.428,1.44 -5.544,3.17 -1.152,1.69 -0.756,5.76 -1.332,7.06 -0.756,1.15 -2.16,1.33 -2.7,0.25 -0.684,-1.23 0,-5.33 -0.864,-7.06 -1.008,-1.8 -3.924,-2.66 -4.464,-3.42 -0.54,-0.83 0.756,-0.93 1.548,-1.44 0.72,-0.65 2.016,-1.01 2.916,-2.19 0.684,-1.34 1.296,-3.82 1.98,-5.37 0.684,-1.73 1.476,-3.71 2.232,-4.14 0.72,-0.36 1.584,0.22 2.016,1.73 z"
   inkscape:connector-curvature="0" />
<path
   id="path71"
   style="fill:#ffffff;fill-rule:evenodd;stroke:#000000;stroke-width:0.036;stroke-miterlimit:10"
   d="m 113.23095,264.76001 c -0.36,-0.04 -0.864,2.02 -0.684,2.66 0.144,0.47 1.368,0.9 1.584,0.47 0.072,-0.47 -0.684,-3.13 -0.9,-3.13 z"
   inkscape:connector-curvature="0" />
<path
   id="path73"
   style="fill:#ffffff;fill-rule:evenodd;stroke:#000000;stroke-width:0.036;stroke-miterlimit:10"
   d="m 82.702955,246.00001 c -1.512,-1.8 -2.376,-4.24 -2.88,-7.77 -0.612,-3.6 -0.792,-9.15 0,-13.14 0.684,-4.03 2.268,-8.53 4.896,-10.73 2.628,-2.23 7.74,-2.88 10.908,-2.92 3.024,-0.18 5.543995,0.47 7.559995,1.95 -1.224,2.91 -2.088,5.54 -2.448,8.03 -0.468,2.48 0.828,4.86 0,6.58 -1.043995,1.55 -3.347995,2.02 -5.543995,2.92 -2.196,0.68 -5.58,0.68 -7.38,1.94 -1.872,1.26 -2.988,3.53 -3.78,5.84 -0.9,2.16 -1.296,4.64 -1.332,7.3 z"
   inkscape:connector-curvature="0" />
<path
   id="path75"
   style="fill:#ffffff;fill-rule:evenodd;stroke:#000000;stroke-width:0.036;stroke-miterlimit:10"
   d="m 121.47495,213.14001 c 1.116,-1.12 2.52,-2.09 4.212,-2.92 1.656,-0.9 3.312,-2.41 5.795,-2.2 2.45,0.18 5.26,1.19 8.71,3.17 -1.26,0.22 -2.45,1.12 -3.56,2.7 -1.19,1.51 -1.98,5.37 -3.35,6.55 -1.51,1.01 -3.779,0.83 -5.147,0 -1.368,-0.97 -1.872,-3.92 -2.88,-5.11 -1.116,-1.19 -2.376,-2.01 -3.78,-2.19 z"
   inkscape:connector-curvature="0" />
<path
   id="path77"
   style="fill:#ffffff;fill-rule:evenodd;stroke:#000000;stroke-width:0.036;stroke-miterlimit:10"
   d="m 112.11495,217.10001 c -0.468,-2.96 -0.54,-6.66 -0.216,-11.67 0.324,-5.04 0.612,-12.74 1.98,-17.96 1.26,-5.26 3.744,-9.54 5.796,-13.14 1.872,-3.67 3.6,-6.05 6.012,-8.5 2.412,-2.59 5.255,-5.33 8.245,-6.41 2.88,-1.08 5.65,-1.15 9.14,-0.21 3.53,0.79 8.46,2.55 11.59,4.86 2.92,2.16 3.42,4.14 6.23,8.03 2.81,3.81 7.27,10.29 10.48,14.58 3.09,4.1 5.87,8.35 8.03,10.22 2.01,1.76 2.8,2.95 4.46,0.5 1.62,-2.55 3.74,-11.12 5.54,-15.58 1.73,-4.61 2.45,-7.06 4.94,-11.67 2.37,-4.82 6.26,-11.55 9.57,-16.31 3.28,-4.78 6.66,-9.03 10.01,-11.91 3.31,-2.88 6.3,-4.25 9.79,-5.37 3.42,-1.18 6.84,-2.44 10.69,-1.69 3.75,0.61 8.14,2.34 11.81,5.58 3.46,3.28 6.59,8.28 9.83,13.65 3.31,5.25 6.44,11.12 9.79,17.74 3.93,-0.68 7.13,-0.97 10.01,-0.72 2.74,0.18 4.5,0.83 6.7,1.95 2.12,1.04 4.24,2.37 6.22,4.14 l -1.54,3.89 c -3.82,-0.36 -6.59,-0.58 -8.46,-0.26 -1.88,0.18 -2.02,-0.21 -2.67,1.73 -0.75,1.91 -1.01,8.07 -1.58,9.72 -0.69,1.48 -0.33,0.36 -1.98,-0.72 -1.84,-1.22 -6.08,-4.89 -8.03,-5.87 -2.01,-1.08 -1.19,-1.18 -3.35,0.26 -2.27,1.51 -5.4,4.21 -9.79,8.53 0.9,-4.14 1.91,-7.6 2.88,-10.23 0.86,-2.73 1.91,-4.03 3.13,-5.83 1.23,-1.87 2.7,-3.71 4.43,-5.36 -2.3,-5.47 -4.39,-10.3 -6.66,-14.62 -2.19,-4.35 -4.1,-7.95 -6.69,-11.19 -2.77,-3.32 -6.02,-6.66 -9.58,-8.25 -3.74,-1.76 -7.95,-2.3 -11.81,-1.47 -3.89,0.82 -7.99,4.14 -10.9,6.58 -2.92,2.27 -4.32,4.36 -6.7,7.53 -2.56,3.13 -5.9,6.95 -8.24,11.45 -2.42,4.5 -4.22,10.08 -6.23,15.33 -2.2,5.22 -4.83,9.9 -6.23,15.55 -1.48,5.51 -1.94,8.36 -2.23,17.28 -0.4,8.82 0,20.31 0.21,35.28 0.11,15.05 0.62,36.11 0.69,53.61 0,17.35 -0.18,34.27 -0.25,49.64 -0.08,15.3 -0.08,28.8 0,41.47 -0.98,1.19 -1.98,2.52 -2.88,4.14 -0.9,1.62 -1.84,3.28 -2.67,5.37 -0.61,-1.19 -1.26,-2.34 -1.8,-3.17 -0.57,-0.86 -1.04,-1.69 -1.55,-2.2 0.26,-12.52 0.47,-25.34 0.65,-39.42 0.25,-14.18 0.36,-30.74 0.47,-44.28 -0.07,-13.6 -0.76,-21.85 -0.68,-36.25 -0.08,-14.51 0.43,-38.66 0.68,-49.28 0.22,-10.51 0.36,-9.69 0.43,-13.61 -0.11,-4.07 -0.36,-7.7 -0.9,-10.22 -0.72,-2.63 -1.8,-2.99 -3.09,-5.12 -1.41,-2.16 -2.13,-3.88 -4.68,-7.56 -2.74,-3.78 -7.6,-10.94 -10.7,-14.83 -3.09,-4.03 -4.68,-6.77 -7.81,-8.75 -3.24,-2.08 -7.59,-3.27 -11.12,-3.42 -3.71,-0.25 -6.73,-0.21 -10.05,2.2 -3.309,2.38 -7.197,8.1 -9.573,12.17 -2.484,3.99 -3.528,7.59 -4.68,11.91 -1.152,4.29 -1.944,9.08 -2.232,13.4 -0.396,4.24 0.072,8.78 0,11.66 -0.144,2.59 -0.432,4.14 -0.864,4.64 -0.47,0.54 -1.19,-0.07 -2.018,-1.54 z"
   inkscape:connector-curvature="0" />
<path
   id="path79"
   style="fill:#ffffff;fill-rule:evenodd;stroke:#000000;stroke-width:0.036;stroke-miterlimit:10"
   d="m 151.10195,173.86001 -6.48,-8.53 c -3.1,-0.61 -5.54,-0.87 -7.78,-0.47 -2.23,0.18 -4.39,1.76 -5.36,2.41 -1.04,0.65 -1.26,1.23 -0.65,1.73 3.57,1.22 7.06,2.27 10.48,3.13 3.42,0.76 6.55,1.33 9.79,1.73 z"
   inkscape:connector-curvature="0" />
<path
   id="path81"
   style="fill:#ffffff;fill-rule:evenodd;stroke:#000000;stroke-width:0.036;stroke-miterlimit:10"
   d="m 128.81895,170.44001 c 1.443,0.72 3.633,1.4 6.443,2.2 2.81,0.79 7.27,1.65 10.48,2.44 3.06,0.58 5.61,1.16 7.81,1.44 l 6.23,9.98 c -6.74,-0.47 -12.39,-0.94 -17.39,-1.7 -5.08,-0.79 -9.36,-1.9 -12.457,-2.66 -3.168,-0.86 -5.04,-1.55 -6.012,-2.2 0.936,-2.16 1.872,-4.03 2.664,-5.61 0.792,-1.59 1.584,-2.88 2.232,-3.89 z"
   inkscape:connector-curvature="0" />
<path
   id="path83"
   style="fill:#ffffff;fill-rule:evenodd;stroke:#000000;stroke-width:0.036;stroke-miterlimit:10"
   d="m 248.91195,187.72001 c -6.98,2.48 -13.32,5.33 -19.4,8.53 -6.16,3.13 -11.85,6.66 -16.92,10.44 -5.22,3.67 -10.48,7.53 -13.83,11.7 -3.34,4.03 -5.94,8.14 -6.22,13.14 -0.44,4.97 1.72,11.81 3.99,16.78 2.23,4.93 5.01,8.89 9.15,12.42 4.03,3.42 10.26,6.37 14.94,8.03 4.6,1.54 10.65,1.76 12.45,1.47 1.51,-0.43 -0.07,-1.83 -2.66,-3.67 -2.63,-1.94 -9.18,-4.64 -12.71,-7.52 -3.6,-2.92 -6.95,-6.2 -8.68,-9.98 -1.83,-4.1 -2.7,-9.54 -2.01,-13.39 0.68,-3.78 3.24,-6.73 6.01,-9 2.66,-2.45 6.34,-4.53 10.04,-4.89 3.68,-0.33 7.82,1.51 11.6,3.16 3.6,1.55 6.15,4.22 10,6.34 3.86,1.98 8.46,3.74 12.71,5.83 4.14,2.13 7.45,5.11 12.03,6.59 4.42,1.26 9.32,1.87 14.68,1.44 -0.28,-4 -0.1,-7.67 0.69,-11.41 0.76,-3.85 2.34,-7.89 3.78,-10.73 1.33,-2.84 2.7,-4.82 4.25,-6.08 -1.73,-2.7 -3.03,-6.05 -4.04,-10.44 -1.04,-4.47 -1.65,-11.7 -1.97,-15.59 -0.36,-3.82 -0.36,-6.3 0,-7.31 l -7.6,0.25 c -0.72,4 -1.51,6.95 -1.98,9.25 -0.58,2.27 -0.43,3.78 -1.37,4.14 -1.08,0.08 -2.37,-1.69 -4.43,-2.91 -2.08,-1.23 -4.64,-2.56 -7.81,-4.14 -2.48,1.04 -4.79,2.37 -6.91,4.14 -2.23,1.69 -4.61,5.36 -6.01,6.3 -1.3,0.9 -2.09,1.04 -2.23,-0.97 -0.29,-2.2 -0.19,-6.12 0.46,-11.92 z"
   inkscape:connector-curvature="0" />
<path
   id="path85"
   style="fill:#ffffff;fill-rule:evenodd;stroke:#000000;stroke-width:0.036;stroke-miterlimit:10"
   d="m 296.36195,215.48001 c -1.87,-1.66 -3.24,-5.12 -4.25,-10.23 -1.08,-5.29 -2.12,-15.15 -1.76,-20.7 0.32,-5.54 2.16,-9.65 3.99,-12.17 1.77,-2.52 4.94,-3.2 6.45,-3.16 1.44,-0.15 1.4,1.65 2.23,2.91 0.65,1.3 1.51,3.49 2.45,4.65 0.93,0.93 1.8,2.26 3.56,1.22 1.66,-1.08 3.89,-3.6 6.7,-7.56 0.82,3.42 0.5,7.34 -0.69,11.92 -1.4,4.64 -3.74,9.61 -6.87,15.33 -3.13,5.55 -7.02,11.34 -11.81,17.79 z"
   inkscape:connector-curvature="0" />
<path
   id="path87"
   style="fill:#ffffff;fill-rule:evenodd;stroke:#000000;stroke-width:0.036;stroke-miterlimit:10"
   d="m 301.04195,213.28001 c 2.74,-4.07 5.33,-8.03 7.78,-12.17 2.37,-4.1 4.93,-8.57 6.69,-12.42 1.62,-4.07 2.74,-8.17 3.35,-11.19 0.54,-2.96 0.36,-5.19 -0.25,-6.56 2.19,-1.8 3.96,-2.77 5.15,-2.91 1.15,-0.25 1.87,0.57 2.01,1.94 -0.07,1.37 -1.76,4.25 -1.58,6.3 0.25,1.98 1.37,4.14 2.91,5.37 1.41,1.08 3.21,1.44 5.55,1.22 -2.09,4.82 -4.43,9.07 -6.88,12.89 -2.63,3.78 -5.25,6.98 -8.03,9.75 -2.77,2.63 -6.12,4.83 -8.24,6.3 -2.2,1.3 -3.6,1.98 -4.9,2.2 -1.44,0.18 -2.62,0.04 -3.56,-0.72 z"
   inkscape:connector-curvature="0" />
<path
   id="path89"
   style="fill:#ffffff;fill-rule:evenodd;stroke:#000000;stroke-width:0.036;stroke-miterlimit:10"
   d="m 327.75195,167.78001 c 1.66,0.39 2.92,1.69 3.78,3.88 0.83,2.16 1.15,5.12 1.12,9 -2.99,0.22 -4.79,-0.39 -5.8,-1.44 -1.01,-1.26 -0.36,-3.92 0,-5.36 0.36,-1.4 1.26,-2.23 1.59,-3.17 0.18,-1.04 -0.15,-2.01 -0.69,-2.91 z"
   inkscape:connector-curvature="0" />
<path
   id="path91"
   style="fill:#ffffff;fill-rule:evenodd;stroke:#000000;stroke-width:0.036;stroke-miterlimit:10"
   d="m 301.26195,167.27001 c 1.87,-3.06 3.67,-4.97 5.79,-5.58 2.02,-0.65 5.19,0.47 6.45,1.69 1.18,1.16 1.36,2.81 0.68,5.12 -2.12,3.63 -3.89,5.9 -5.15,6.8 -1.29,0.86 -1.9,-0.72 -2.66,-1.69 -0.83,-1.23 -1.69,-3.82 -2.45,-4.86 -0.86,-1.05 -1.8,-1.59 -2.66,-1.48 z"
   inkscape:connector-curvature="0" />
<path
   id="path93"
   style="fill:#ffffff;fill-rule:evenodd;stroke:#000000;stroke-width:0.036;stroke-miterlimit:10"
   d="m 301.69195,217.17001 c 3.45,-1.05 6.62,-1.05 9.79,0 3.13,1.04 6.16,3.02 8.93,6.08 2.55,2.95 5.18,7.81 6.91,11.67 1.73,3.81 3.02,7.34 3.35,10.98 0.14,3.56 -0.79,7.99 -2.23,10.22 -1.48,2.02 -4.14,2.77 -6.48,2.41 -2.49,-0.36 -5.11,-1.94 -8.03,-4.61 1.12,-4.17 1.3,-8.35 0.69,-12.67 -0.73,-4.39 -2.56,-9.14 -4.69,-13.14 -2.12,-4.03 -4.97,-7.63 -8.24,-10.94 z"
   inkscape:connector-curvature="0" />
<path
   id="path95"
   style="fill:#ffffff;fill-rule:evenodd;stroke:#000000;stroke-width:0.036;stroke-miterlimit:10"
   d="m 296.58195,217.17001 c -2.27,0.57 -4.54,5.11 -6.23,9.72 -1.84,4.68 -4.03,11.45 -3.82,17.53 0.22,5.98 2.85,13.57 5.37,17.53 2.44,3.6 6.44,5.04 9.36,4.86 2.77,-0.29 5.86,-2.88 7.77,-5.83 1.91,-2.95 3.28,-7.45 3.57,-11.7 0.18,-4.39 -1.26,-9.79 -2.67,-14.11 -1.58,-4.5 -4.25,-8.57 -6.44,-11.67 -2.38,-3.09 -4.68,-6.87 -6.91,-6.33 z"
   inkscape:connector-curvature="0" />
<path
   id="path97"
   style="fill:#ffffff;fill-rule:evenodd;stroke:#000000;stroke-width:0.036;stroke-miterlimit:10"
   d="m 217.70195,175.12001 c 2.2,-2.16 4.64,-3.89 7.34,-5.33 2.67,-1.51 5.62,-3.17 8.72,-3.17 2.98,-0.03 6.66,2.27 9.36,3.17 2.62,0.83 4.5,1.66 6.44,1.95 1.87,0.25 5.08,-0.15 4.9,-0.51 -0.44,-0.54 -3.93,-1.22 -6.45,-2.19 -2.59,-0.98 -5.54,-2.88 -8.03,-3.64 -2.48,-0.9 -5.68,-0.94 -6.69,-1.48 -1.12,-0.64 -0.94,-1.36 0,-2.16 0.79,-0.93 2.37,-1.4 4.89,-2.95 2.45,-1.58 5.8,-3.63 10.05,-6.3 2.34,3.35 4.46,6.63 6.23,9.97 1.8,3.28 3.24,6.52 4.46,9.72 -1.47,1.66 -2.63,3.5 -3.99,5.37 -1.34,1.91 -2.56,3.71 -3.82,5.83 -4.75,-0.9 -9.18,-1.87 -13.57,-2.92 -4.46,-1.18 -9.15,-2.77 -12.49,-3.63 -3.35,-0.94 -5.8,-1.51 -7.35,-1.73 z"
   inkscape:connector-curvature="0" />
<path
   id="path99"
   style="fill:#ffffff;fill-rule:evenodd;stroke:#000000;stroke-width:0.036;stroke-miterlimit:10"
   d="m 255.14195,148.84001 c 2.02,-0.9 5.04,-1.3 9.36,-1.19 4.21,0.18 11.84,0.79 16.24,1.69 4.32,0.65 7.12,1.26 9.82,2.67 2.7,1.29 4.58,3.13 6.02,5.36 v 9.51 c -1.7,1.15 -3.06,2.44 -4.25,3.88 -1.23,1.48 -2.02,2.88 -2.67,4.61 -2.3,-3.06 -4.86,-5.04 -7.81,-6.33 -3.13,-1.3 -7.09,-1.19 -9.79,-1.19 -2.63,-0.04 -4.68,0.07 -6.01,0.72 -1.77,-4.25 -3.6,-7.85 -5.37,-11.2 -1.87,-3.31 -3.67,-6.15 -5.54,-8.53 z"
   inkscape:connector-curvature="0" />
<path
   id="path101"
   style="fill:#ffffff;fill-rule:evenodd;stroke:#000000;stroke-width:0.036;stroke-miterlimit:10"
   d="m 259.35195,144.95001 c 6.84,-4.79 13.18,-9.03 19.41,-12.89 6.15,-3.956 12.34,-8.06 17.6,-10.22 5.18,-2.124 8.96,-2.52 13.14,-2.448 3.89,0.036 6.48,0.756 11.12,2.448 4.72,1.584 10.23,3.888 16.92,7.056 -0.79,5.114 -1.8,9.284 -3.31,12.674 -1.51,3.2 -3.09,5.25 -5.58,7.27 -2.59,2.05 -4.93,3.64 -9.79,4.9 -5,1.11 -11.52,1.83 -19.84,2.16 -1.65,-2.27 -4.1,-4 -7.34,-5.58 -3.31,-1.62 -6.95,-2.7 -12.28,-3.64 -5.47,-0.94 -12.02,-1.51 -20.05,-1.73 z"
   inkscape:connector-curvature="0" />
<path
   id="path103"
   style="fill:#ffffff;fill-rule:evenodd;stroke:#000000;stroke-width:0.036;stroke-miterlimit:10"
   d="m 299.02195,158.60001 -0.21,7.3 1.76,0.22 c 0.97,-2.27 2.23,-4 3.78,-5.33 1.51,-1.44 3.67,-2.45 5.37,-2.45 1.58,0.08 3.02,1.16 4.46,2.67 1.37,1.37 2.7,5 4,5.61 1.33,0.47 2.59,-1.87 3.78,-2.44 1.08,-0.65 1.76,-1.01 2.44,-1.23 0.94,-1.33 1.84,-2.63 2.7,-3.89 0.8,-1.33 1.59,-2.62 2.24,-3.88 2.3,0.18 4.75,-0.51 7.34,-2.2 2.45,-1.8 4.75,-4.72 8.03,-7.78 3.31,-3.2 9.5,-7.99 11.77,-10.47 2.23,-2.49 2.56,-3.82 1.37,-4.14 2.27,-1.73 5.11,-4.43 8.67,-8.498 3.57,-4.176 9.07,-11.448 12.24,-15.588 3.06,-4.14 4.86,-6.768002 5.8,-9.000002 0.83,-2.268 0.54,-3.852 -0.86,-4.608 0.86,-1.8 2.19,-3.672 3.99,-5.616 1.84,-2.088 5.04,-4.068 6.7,-6.336 1.58,-2.34 2.98,-6.66 2.66,-7.272 -0.61,-0.684 -4.64,3.312 -5.15,3.384 -0.47,0 3.35,-2.88 2.7,-3.384 -0.75,-0.576 -3.63,-0.576 -6.69,0 -3.21,0.468 -9.04,1.908 -11.81,2.916 -2.7,0.864 -4.39,1.8 -4.68,2.664 3.13,0.9 5.76,1.44 8.03,1.476 2.23,0 3.49,-0.504 5.32,-1.224 1.77,-0.828 4.83,-3.492 5.15,-3.42 0.15,0.036 -1.87,2.772 -3.56,3.888 -1.69,1.044 -3.86,1.728 -6.48,2.196 -0.18,3.096 -0.4,5.04 -0.65,5.832 -0.39,0.756 -0.72,-0.432 -1.11,-1.188 -0.4,-0.864 -0.15,-2.916 -1.34,-3.672 -1.36,-0.72 -4.42,-1.044 -6.26,-0.972 -1.91,-0.108 -3.49,0.108 -4.9,0.504 -3.09,1.116 -6.8,2.556 -11.12,4.86 -4.39,2.16 -9.33,4.968 -14.94,8.28 3.81,1.404 7.38,2.412 10.69,3.168 3.24,0.684 5.69,1.404002 9.15,1.188002 3.42,-0.396002 8.35,-2.016002 11.59,-2.916002 3.2,-1.044 7.34,-2.772 7.56,-2.412 0.07,0.396 -3.96,3.492 -6.7,4.86 -2.88,1.188002 -6.08,2.124002 -10.01,2.664002 0.83,3.132 1.08,6.012 0.9,8.784 -0.28,2.772 -2.05,7.488 -2.23,7.776 -0.25,0.036 1.12,-4.032 0.9,-6.804 -0.25,-2.772 -1.11,-5.976 -2.45,-9.756 -2.66,-0.432 -5.76,-0.864 -9.57,-1.44 -3.82,-0.576 -8.21,-1.224002 -13.18,-1.944002 -4.39,1.728002 -8.35,3.384002 -12.02,5.112002 -3.71,1.656 -6.88,2.772 -9.79,4.86 -3.03,1.98 -5.66,4.464 -8.03,7.308 2.66,-0.72 6.01,-0.612 10.04,0.468 4,1.044 10.01,4.14 14.01,5.832 3.99,1.62 6.22,3.348 9.61,3.924 3.2,0.36 6.66,-0.108 9.79,-1.008 3.06,-0.972 7.31,-3.96 8.46,-4.104 0.97,-0.288 -0.22,1.8 -2.02,2.916 -1.87,1.152 -5.76,2.736 -8.46,3.636 -2.73,0.828 -5.32,1.188 -7.77,1.224 -0.43,4.172 -1.48,7.812 -3.13,11.452 -1.8,3.52 -4.18,7.09 -7.13,9.72 -3.1,2.48 -7.17,4.14 -10.69,5.36 -3.6,0.94 -6.88,1.04 -10.26,1.44 -3.35,0.54 -6.66,0.9 -9.8,1.48 z"
   inkscape:connector-curvature="0" />
<path
   id="path105"
   style="fill-rule:evenodd;stroke:#000000;stroke-width:0.036;stroke-miterlimit:10"
   d="m 274.72195,137.90001 c -1,0.25 -5.47,2.84 -6.01,3.88 -0.61,0.87 0.69,1.44 2.92,1.73 2.23,0.18 10.26,-0.03 10.47,-0.25 0,-0.25 -8.46,-0.58 -9.82,-0.97 -1.3,-0.43 1.29,-1.05 1.8,-1.69 0.36,-0.76 1.54,-2.96 0.64,-2.7 z"
   inkscape:connector-curvature="0" />
<path
   id="path107"
   style="fill-rule:evenodd;stroke:#000000;stroke-width:0.036;stroke-miterlimit:10"
   d="m 319.72195,109.67201 c -0.68,-0.036 -4.93,2.088 -5.11,2.916 -0.14,0.72 3.89,1.656 4.47,1.692 0.54,-0.036 -1.26,-0.972 -1.12,-1.692 0.07,-0.828 2.23,-2.952 1.76,-2.916 z"
   inkscape:connector-curvature="0" />
<path
   id="path109"
   style="fill-rule:evenodd;stroke:#000000;stroke-width:0.036;stroke-miterlimit:10"
   d="m 349.14195,93.616008 c -1.34,0.648 -2.09,1.116 -1.98,1.692 0.1,0.396 2.01,0.828 2.66,0.72 0.47,-0.288 -0.14,-1.26 0.65,-1.944 0.79,-0.756 4.17,-2.124 4.03,-2.16 -0.36,0 -4.14,0.936 -5.36,1.692 z"
   inkscape:connector-curvature="0" />
<path
   id="path111"
   style="fill:#ffffff;fill-rule:evenodd;stroke:#000000;stroke-width:0.036;stroke-miterlimit:10"
   d="m 196.75195,179.22001 c 7.45,-5.68 13.75,-10.18 19.19,-13.64 5.25,-3.46 8.17,-4.14 12.92,-7.06 4.75,-3.13 9.72,-6.55 15.34,-10.94 l 2.01,3.64 c -5.43,2.88 -10.29,6.04 -15.15,9.5 -4.86,3.49 -9.43,7.78 -13.57,11.2 -4.25,3.31 -7.02,4.93 -11.38,8.74 -4.39,3.75 -9.29,8.03 -14.69,13.4 0.58,-2.74 1.37,-5.33 2.24,-7.78 0.86,-2.52 1.94,-4.82 3.09,-7.06 z"
   inkscape:connector-curvature="0" />
<path
   id="path113"
   style="fill:#ffffff;fill-rule:evenodd;stroke:#000000;stroke-width:0.036;stroke-miterlimit:10"
   d="m 252.91195,142.47001 c 7.67,-5.87 15.77,-11.67 24.73,-17.534 9,-6.048 18.83,-12.24 28.51,-17.748 9.51,-5.58 18.94,-10.512002 28.3,-15.084002 9.25,-4.68 19.58,-9.108 26.96,-12.168 7.35,-3.06 11.67,-4.572 16.71,-6.084 4.93,-1.692 13.35,-3.708 12.92,-3.42 -0.58,0.216 -11.63,3.348 -16.06,5.112 -4.6,1.584 -2.84,1.296 -10.69,5.112 -7.95,3.816 -24.98,11.988 -36.07,18 -11.02,5.940002 -18.9,10.584002 -29.88,17.532002 -11.27,6.948 -28.87,18.252 -36.29,23.362 -7.38,4.83 -9.93,6.77 -7.81,5.83 -0.43,-0.97 -0.86,-1.94 -1.33,-2.91 z"
   inkscape:connector-curvature="0" />
<path
   id="path115"
   style="fill:#ffffff;fill-rule:evenodd;stroke:#000000;stroke-width:0.036;stroke-miterlimit:10"
   d="m 218.60195,135.41001 c 2.05,-6.91 4.21,-12.85 6.91,-18.25 2.59,-5.436 6.41,-10.512 8.68,-13.86 2.12,-3.420002 3.24,-5.436002 4.46,-6.336002 1.23,-0.936 2.31,-0.612 3.1,0.972 6.73,-6.588 12.49,-11.7 17.82,-15.336 5.18,-3.708 10.3,-5.292 13.39,-6.552 2.88,-1.404 3.49,-1.44 4.47,-1.224 0.97,0.18 1.36,0.936 1.33,2.412 5.07,-4.896 10.51,-8.496 16.7,-10.944 6.12,-2.484 15.52,-3.24 19.84,-3.636 4.17,-0.396 4.28,0.252 5.33,0.972 0.9,0.54 0.97,1.476 0.21,2.664 4,-1.08 8.43,-1.764 13.83,-2.196 5.32,-0.54 13.03,-0.504 17.82,-0.468 4.57,0 8.06,0.144 10.04,0.72 1.91,0.468 1.55,1.656 1.55,2.448 -0.15,0.684 -0.94,1.8 -1.8,1.944 -0.9,0 -1.41,-1.008 -3.32,-1.224 -2.08,-0.216 -6.12,-0.396 -8.49,-0.252 -2.41,0 -4.14,-0.18 -5.76,0.72 -1.69,0.792 -3.06,2.304 -4.25,4.392 -0.47,-1.188 -1.44,-2.016 -2.92,-2.196 -1.65,-0.324 -5.72,0.432 -6.22,0.756 -0.4,0.252 2.41,0.648 3.56,1.188 0.97,0.432 2.41,0.216 2.66,1.728 0.11,1.368 -0.5,4.284 -1.54,6.804 -1.12,2.412 -2.7,5.652 -4.9,7.776 -2.3,1.944 -4.82,2.52 -8.68,4.644 -3.96,2.196 -8.82,4.86 -14.72,8.280002 1.84,-3.744002 3.35,-6.948002 4.25,-10.008002 0.79,-3.06 0.54,-5.688 1.33,-8.028 0.76,-2.376 0.9,-4.5 3.35,-6.084 2.34,-1.656 9,-2.772 10.69,-3.636 1.51,-0.936 0.29,-2.088 -0.9,-1.944 -1.4,0.072 -4.43,1.548 -6.44,2.196 -2.13,0.54 -3.89,0.288 -5.15,1.188 -1.23,0.756 -1.84,1.98 -1.98,3.672 -0.83,-2.304 -1.48,-3.492 -1.8,-3.168 -0.43,0.288 -0.25,2.016 -0.43,4.608 -0.26,2.592 0.39,6.192 -0.69,10.224 -1.11,3.924 -3.17,8.1 -6.01,12.924002 -4.72,3.132 -8.93,6.012 -12.49,8.496 -3.6,2.376 -5.29,3.564 -9.11,6.336 -4.03,2.808 -8.71,6.084 -14.47,10.224 3.89,-7.092 6.87,-13.536 9.11,-19.476 2.19,-6.012 3.49,-11.268002 4.03,-16.056002 1.69,-3.276 3.85,-6.012 6.87,-8.748 2.88,-2.772 7.1,-5.76 10.7,-7.308 3.56,-1.62 8.92,-1.656 10.26,-2.196 1.15,-0.72 -0.72,-1.764 -3.1,-1.476 -2.52,0.216 -8.03,1.404 -11.38,3.168 -3.45,1.692 -6.44,4.788 -8.67,7.056 -2.27,2.16 -3.78,4.068 -4.68,5.868 -1.26,-2.16 -2.13,-3.06 -2.45,-2.7 -0.43,0.288 0.43,2.16 0.22,4.644 -0.26,2.232 -0.26,4.68 -1.8,9.720002 -1.66,5.148 -5.91,15.516 -8.03,20.7 -2.2,5.076 -3.78,8.136 -4.9,9.468 l -14.04,9.5 c -1.04,-1.76 -2.19,-3.27 -3.99,-4.39 -1.73,-1.19 -3.93,-2.12 -6.45,-2.66 4,-10.694 7.71,-18.794 11.13,-24.842 3.34,-6.048 6.44,-8.172 9.14,-10.944002 2.59,-2.808 4.03,-3.888 6.66,-5.58 2.59,-1.836 8.21,-3.708 8.93,-4.644 0.5,-1.008 -2.63,-1.62 -5.11,-0.72 -2.49,0.972 -6.48,3.456 -9.62,6.336 -3.27,2.808 -6.33,6.084 -9.57,10.224002 -2.49,-1.8 -4,-2.7 -4.68,-2.7 -0.65,0 0.18,1.332 0.68,2.448 0.36,0.9 2.2,0.972 1.77,3.42 -0.47,2.448 -2.6,6.372 -4.43,10.944 -1.98,4.464 -4.36,9.468 -7.13,15.548 -3.6,-0.82 -6.44,-1.15 -8.93,-0.97 -2.45,0.15 -4.25,1.26 -5.79,1.95 -1.73,0.54 -2.92,1.08 -4,1.47 z"
   inkscape:connector-curvature="0" />
<path
   id="path117"
   style="fill-rule:evenodd;stroke:#000000;stroke-width:0.036;stroke-miterlimit:10"
   d="m 280.09195,109.85201 c -0.51,0.36 -3.96,6.84 -3.56,7.776 0.35,0.864 4.28,-1.296 5.79,-2.16 1.4,-0.972 3.46,-3.096 3.1,-3.168 -0.43,-0.144 -4.03,2.448 -5.11,2.916 -1.12,0.432 -1.34,0.576 -1.34,-0.252 -0.03,-0.972 1.44,-5.544 1.12,-5.112 z"
   inkscape:connector-curvature="0" />
<path
   id="path119"
   style="fill-rule:evenodd;stroke:#000000;stroke-width:0.036;stroke-miterlimit:10"
   d="m 313.71195,92.572008 c -0.18,0.216 -1.37,3.384 -0.64,3.672 0.68,0.108 4.46,-1.872 4.68,-2.196 0.1,-0.288 -3.21,0.612 -3.82,0.468 -0.65,-0.396 -0.22,-2.196 -0.22,-1.944 z"
   inkscape:connector-curvature="0" />
<path
   id="path121"
   style="fill:#ffffff;fill-rule:evenodd;stroke:#000000;stroke-width:0.036;stroke-miterlimit:10"
   d="m 358.50195,69.964008 c -2.09,-1.044 -4.18,-1.584 -6.66,-1.476 -2.6,-0.072 -6.02,0.576 -8.03,1.944 -2.05,1.404 -2.81,4.032 -3.78,6.336 -1.04,2.16 -1.51,5.292 -2.23,7.056 -0.83,1.728 -1.44,2.916 -2.23,3.42 4.86,-1.692 9,-3.24 12.71,-4.644 3.6,-1.44 6.91,-2.412 9.1,-3.888 2.2,-1.692 3.46,-4.212 3.78,-5.616 0.11,-1.512 -0.65,-2.556 -2.66,-3.132 z"
   inkscape:connector-curvature="0" />
<path
   id="path123"
   style="fill-rule:evenodd;stroke:#000000;stroke-width:0.036;stroke-miterlimit:10"
   d="m 341.36195,79.684008 c -0.32,0.036 -1.3,2.7 -1.12,3.42 0.18,0.612 1.16,0.72 2.24,0.468 0.97,-0.324 3.85,-2.124 3.78,-2.196 -0.22,-0.216 -3.86,1.764 -4.68,1.476 -0.9,-0.324 0,-3.276 -0.22,-3.168 z"
   inkscape:connector-curvature="0" />
<path
   id="path125"
   style="fill:#ffffff;fill-rule:evenodd;stroke:#000000;stroke-width:0.036;stroke-miterlimit:10"
   d="m 366.96195,66.544008 c 0,0.54 -0.29,1.152 -0.87,1.692 -0.68,0.468 -1.65,1.008 -2.91,1.476 0,1.908 -0.08,3.492 -0.22,4.608 -0.14,1.152 -0.58,1.836 -0.9,2.196 6.52,-1.944 11.77,-3.528 16.06,-4.608 4.17,-1.224 6.44,-1.764 9.14,-2.196 2.67,-0.468 6.77,-0.036 6.88,-0.504 -0.04,-0.684 -3.35,-2.628 -6.88,-2.916 -3.71,-0.396 -10.83,0.9 -14.29,0.972 -3.39,0.072 -5.44,-0.216 -6.01,-0.72 z"
   inkscape:connector-curvature="0" />
<path
   id="path127"
   style="fill:#ffffff;fill-rule:evenodd;stroke:#000000;stroke-width:0.036;stroke-miterlimit:10"
   d="m 181.84195,194.06001 6.02,-16.06 c -0.62,-28.62 -1.19,-51.84 -1.34,-71.064 -0.25,-19.116002 -0.25,-31.896002 0,-43.056002 0.18,-11.232 0.44,-19.116 0.9,-23.94 l -8.71,-0.972 c -1.15,22.644 -1.76,42.768 -1.98,61.344002 -0.29,18.54 0.51,35.348 0.87,48.928 0.32,13.32 1.04,23.72 1.33,30.81 0.29,6.95 -0.33,8.79 0.25,11.2 0.43,2.3 1.37,3.24 2.66,2.81 z"
   inkscape:connector-curvature="0" />
<path
   id="path129"
   style="fill:#ffffff;fill-rule:evenodd;stroke:#000000;stroke-width:0.036;stroke-miterlimit:10"
   d="m 168.92195,178.00001 c 0.72,-5 1.19,-10.55 1.55,-17.03 0.29,-6.55 0.9,-14.47 0.47,-21.42 -0.62,-7.09 -2.52,-15.082 -3.35,-19.942 -0.87,-4.824 -1.01,-7.344 -1.55,-8.532 -0.58,-1.26 -1.3,-0.936 -2.02,0.972 -1.44,-6.336 -3.02,-11.268 -4.89,-15.084002 -2.02,-3.96 -4.83,-6.552 -6.48,-7.776 -1.62,-1.224 -2.67,-0.936 -3.13,0.72 0.14,-2.376 -0.69,-5.076 -2.88,-8.532 -2.27,-3.456 -7.78,-9.324 -10.01,-11.916 -2.34,-2.736 -2.63,-3.384 -3.35,-3.888 -0.72,-0.576 -1.19,-0.468 -1.12,0.468 -3.379,-5.328 -6.295,-9.18 -8.455,-11.412 -2.232,-2.304 -3.024,-1.224 -4.896,-2.196 -2.088,-1.116 -4.32,-2.412 -6.696,-3.888 -2.412,-1.62 -5.688,-5.04 -7.344,-5.256 -1.764,-0.324 -2.736,0.9 -2.916,3.672 -2.015995,-0.72 -4.391995,-1.944 -7.127995,-3.672 -2.916,-1.8 -6.912,-5.688 -9.36,-6.804 -2.412,-1.152 -3.996,-1.152 -4.896,0 -1.944,-1.512 -4.14,-2.52 -6.444,-3.168 -2.376,-0.648 -4.86,-0.936 -7.596,-0.72 1.512,1.584 2.88,3.492 4.248,5.58 1.404,2.088 2.484,4.5 3.78,7.092 1.62,-1.476 2.088,-2.736 1.8,-3.924 -0.324,-1.296 -3.888,-2.628 -4.032,-3.168 -0.288,-0.648 1.548,-0.54 2.448,-0.216 0.864,0.324 1.548,1.008 2.448,2.196 1.26,-0.504 2.376,-0.504 3.348,0 0.9,0.396 2.412,2.664 2.448,2.916 -0.108,0.108 -1.836,-1.764 -2.664,-1.729 -0.864,0.072 -1.656,0.9 -2.232,1.944 -0.612,0.936 -1.008,2.16 -1.332,3.672 1.8,3.528 4.104,7.668 6.912,12.42 2.808,4.788 5.976,10.044 9.792,16.056 0.936,-5.148 1.332,-9.432 0.9,-13.14 -0.432,-3.672 -1.872,-6.3 -3.348,-9 -1.764,-2.916 -5.904,-7.488 -6.012,-8.028 0.108,-0.576 4.248,2.844 6.012,4.86 1.512,1.908 2.628,4.176 3.348,6.804 1.476,-1.116 2.916,-1.764 4.464,-1.944 1.475995,-0.324 2.987995,-0.18 4.679995,0.72 1.656,0.9 5.328,4.608 5.328,4.86 -0.18,0.072 -3.6,-3.636 -5.796,-3.888 -2.196,-0.252 -4.571995,0.432 -7.127995,2.196 0.684,2.664 1.152,5.328 1.116,8.532 0.036,3.096 -0.432,6.372 -1.116,9.972 0.972,2.736 3.42,7.02 7.343995,13.14 3.924,6.12 9.18,13.644002 16.056,23.112002 1.26,-8.64 2.052,-15.444002 2.232,-20.700002 0.144,-5.328 -0.324,-7.092 -1.116,-10.692 -0.828,-3.708 -2.592,-7.956 -4.032,-10.944 -1.62,-3.096 -5.292,-6.336 -5.328,-6.804 -0.108,-0.432 3.492,2.232 5.112,4.104 1.512,1.764 3.276,3.456 4.464,6.336 1.116,2.808 1.979,6.084 2.448,10.224 1.728,-0.54 3.312,-0.972 4.896,-1.44 1.476,-0.54 2.733,-1.872 4.463,-1.224 1.73,0.72 5.72,4.464 6.01,5.112 0.22,0.432 -3.17,-1.692 -4.46,-2.196 -1.44,-0.576 -2.23,-1.368 -3.78,-0.972 -1.693,0.288 -3.493,1.26 -5.797,2.916 -0.108,3.708 -0.612,7.92 -1.116,12.636 -0.684,4.680002 -1.368,9.828002 -2.448,15.588002 3.06,5.076 6.156,10.224 9.571,15.585 3.32,5.37 6.81,10.62 10.48,16.31 0,-2.95 0.25,-5.9 0.9,-9 0.54,-3.2 1.8,-5.22 2.66,-9.503 0.8,-4.428 1.91,-12.132 2.24,-16.308 0.28,-4.284 0.07,-5.58 -0.65,-8.748 -1.05,-3.204 -4.83,-9.756002 -4.68,-10.224002 0.21,-0.468 4.35,4.248 5.76,7.056002 1.26,2.628 1.69,5.544 1.58,8.748 1.95,-0.612 3.6,-0.612 5.11,0 1.44,0.576 3.6,3.06 3.57,3.42 -0.15,0.144 -2.99,-1.548 -4.21,-1.728 -1.44,-0.324 -2.6,-1.044 -3.6,0.756 -1.01,1.872 -1.7,6.48 -2.2,10.224 -0.47,3.636 -0.32,8.277 -0.68,11.417 -0.62,2.98 -1.55,3.88 -2.24,6.58 -0.57,2.6 -1.22,5.55 -1.54,9 l 4.46,8.9 c 1.69,-0.08 3.67,0.57 5.8,1.94 2.05,1.37 4.39,3.42 6.87,6.3 -0.32,-6.37 -0.29,-11.34 0.25,-15.3 0.51,-3.96 2.09,-4.9 2.67,-8.06 0.43,-3.35 1.4,-6.95 0.43,-10.95 -1.08,-4.139 -5.8,-11.159 -6.23,-12.887 -0.39,-1.692 2.49,1.044 3.78,2.916 1.12,1.764 2.16,4.356 3.13,7.776 2.45,1.295 3.78,2.195 4,2.705 0.11,0.43 -2.38,0.14 -2.88,0.25 -0.5,0.03 -0.5,0.03 0,0 0.5,5.07 0.5,9.18 0,12.17 -0.54,2.98 -2.7,1.87 -3.13,5.83 -0.51,3.99 -0.43,9.61 0.21,17.53 2.24,3.24 4.47,6.48 6.7,9.72 z"
   inkscape:connector-curvature="0" />
<path
   id="path131"
   style="fill-rule:evenodd;stroke:#000000;stroke-width:0.036;stroke-miterlimit:10"
   d="m 139.72195,132.24001 c 0.22,0.54 -0.5,4.97 -0.9,6.09 -0.5,0.93 -1.04,0.57 -1.76,-0.25 -0.83,-0.98 -2.95,-4.72 -2.88,-5.12 0.04,-0.54 2.09,2.6 3.1,2.45 0.9,-0.21 2.08,-3.63 2.44,-3.17 z"
   inkscape:connector-curvature="0" />
<path
   id="path133"
   style="fill-rule:evenodd;stroke:#000000;stroke-width:0.036;stroke-miterlimit:10"
   d="m 112.76295,99.160008 c 0.18,0.72 3.384,5.868002 4.464,5.328002 1.008,-0.756 1.728,-8.820002 1.584,-9.468002 -0.288,-0.648 -1.908,4.572 -2.916,5.364002 -1.116,0.648 -3.312,-1.980002 -3.132,-1.224002 z"
   inkscape:connector-curvature="0" />
<path
   id="path135"
   style="fill-rule:evenodd;stroke:#000000;stroke-width:0.036;stroke-miterlimit:10"
   d="m 89.398955,66.040008 c 0.036,0.54 2.592,3.348 3.096,3.42 0.36,-0.072 0.072,-2.88 -0.432,-3.42 -0.648,-0.612 -2.7,-0.612 -2.664,0 z"
   inkscape:connector-curvature="0" />
<path
   id="path137"
   style="fill:#ffffff;fill-rule:evenodd;stroke:#000000;stroke-width:0.036;stroke-miterlimit:10"
   d="m 66.430955,34.360008 c 1.656,3.204 3.096,5.724 4.032,7.56 0.9,1.764 1.584,2.988 1.764,3.384 -1.26,0.252 -2.268,-0.072 -2.88,-0.972 -0.756,-1.008 -0.756,-4.392 -1.116,-4.608 -0.432,-0.252 -1.008,2.052 -0.9,3.168 0,1.008 0.54,1.98 1.332,2.916 -0.576,1.26 -0.792,2.268 -0.648,3.168 0.036,0.792 1.08,2.34 1.332,2.16 0.072,-0.288 -0.828,-2.988 -0.216,-3.384 0.612,-0.468 2.268,-0.612 3.996,0.972 1.764,1.548 3.672,4.536 6.012,8.28 2.124,3.708 4.428,8.064 6.912,13.608 -3.06,-1.692 -5.508,-2.772 -7.344,-3.384 -1.872,-0.648 -3.096,-0.684 -3.816,-0.252 -1.836,-0.036 -3.168,-1.008 -3.996,-2.916 -0.828,-1.98 -0.828,-8.244 -1.116,-8.784 -0.504,-0.54 -1.404,3.564 -1.332,5.364 0.144,1.692 1.008,3.24 1.764,4.644 0.612,1.224 1.332,2.196 2.016,2.916 -0.9,0.936 -1.62,2.016 -2.016,3.636 -0.468,1.512 -1.008,5.364 -0.648,5.58 0.288,0.072 1.26,-3.312 2.232,-4.608 0.864,-1.26 1.296,-2.736 3.096,-2.916 1.872,-0.252 5.004,0.108 7.596,1.224 2.52,1.008 4.068,1.908 7.128,5.328 2.916,3.42 6.372,9 10.224,15.336 3.743995,6.228 7.631995,13.608002 12.059995,22.140002 -2.88,-1.152 -6.3,-2.124 -10.692,-2.916 -4.427995,-0.792 -11.303995,-0.792 -15.371995,-1.944 -4.14,-1.332 -7.092,-3.276 -9.144,-5.832 -2.088,-2.628 -2.484,-6.660002 -3.132,-9.720002 -0.792,-3.24 -0.684,-6.84 -1.332,-9 -0.864,-2.268 -2.7,-4.716 -2.88,-4.14 -0.144,0.468 1.62,4.14 2.232,7.272 0.54,3.06 0.432,8.46 1.08,11.196 0.54,2.592002 0.864,3.024002 2.484,4.896002 1.512,1.872 3.852,3.924 6.876,6.3 -2.124,0.576 -3.312,1.872 -3.564,3.888 -0.252,1.944 1.584,7.812 2.016,8.028 0.18,0.108 -0.864,-5.437 -0.216,-7.056 0.72,-1.656 1.656,-2.628 4.464,-2.916 2.772,-0.54 6.84,-0.504 11.808,0.252 4.895995,0.792 10.475995,2.16 17.135995,4.392 3.744,4.752 7.056,9.648 10.476,14.83 3.276,5.22 7.743,13.21 9.363,16.06 1.54,2.59 1.54,2.52 0,-0.22 -4.539,-1.73 -8.823,-2.73 -12.711,-3.17 -3.996,-0.39 -7.452,0.36 -10.908,0.47 -3.6,0 -7.02,0.22 -10.259995,-0.72 -3.276,-1.15 -6.588,-2.95 -9.108,-5.83 -2.592,-2.99 -5.184,-10.404 -6.264,-11.7 -1.152,-1.332 -1.368,1.764 -0.648,3.89 0.612,2.05 2.628,6.05 4.68,8.53 2.052,2.41 4.896,4.36 7.56,5.83 2.52,1.37 5.003995,2.05 7.595995,2.2 -1.08,1.76 -1.512,3.2 -1.584,4.86 -0.072,1.4 0.504,2.91 1.332,4.39 0.72,1.66 1.836,3.1 3.348,4.86 1.512,1.51 3.276,3.02 5.58,4.39 -1.008,0.51 -1.656,1.19 -1.8,2.2 -0.18,0.97 0.18,3.53 0.684,3.63 0.288,-0.07 0.18,-2.88 1.764,-3.42 1.62,-0.43 4.176,-0.39 7.813,0.51 -1.26,1.51 -2.088,3.02 -2.88,4.39 -0.828,1.44 -1.224,2.56 -1.584,3.89 -6.696,-2.09 -10.908,-3.93 -12.924,-5.37 -1.98,-1.51 -1.656,-2.77 1.116,-3.63 -5.003995,-1.8 -9.251995,-4.32 -13.139995,-7.56 -3.96,-3.42 -7.668,-8.82 -10.008,-12.17 -2.448,-3.53 -3.888,-6.12 -4.032,-7.78 -0.144,-1.54 0.972,-2.08 3.348,-1.47 -5.796,-8.28 -9.684,-14.51 -11.808,-18.974 -2.16,-4.572 -2.412,-6.984 -0.9,-7.776 -1.764,-4.824 -3.024,-9 -3.78,-12.672002 -0.792,-3.708 -1.368,-7.632 -0.9,-9.252 0.396,-1.656 1.584,-1.944 3.564,-0.72 -1.188,-4.284 -1.944,-9.036 -2.664,-14.112 -0.684,-5.22 -1.548,-13.104 -1.332,-16.56 0.18,-3.492 0.828,-4.824 2.232,-4.14 -0.648,-2.232 -0.9,-4.5 -0.9,-6.804 0,-2.376 0.252,-4.68 0.9,-7.056 -0.54,-1.584 -0.684,-2.88 -0.432,-3.888 0.251,-1.08 0.863,-1.764 1.979,-2.196 z"
   inkscape:connector-curvature="0" />
<path
   id="path139"
   style="fill-rule:evenodd;stroke:#000000;stroke-width:0.036;stroke-miterlimit:10"
   d="m 100.30695,106.39601 c 0.468,0.468 5.616,2.34 6.012,1.44 0.252,-1.26 -3.888,-7.272 -4.248,-7.776 -0.396,-0.396002 1.8,4.212 1.584,5.364 -0.324,0.936 -3.887995,0.612 -3.348,0.972 z"
   inkscape:connector-curvature="0" />
<path
   id="path141"
   style="fill-rule:evenodd;stroke:#000000;stroke-width:0.036;stroke-miterlimit:10"
   d="m 79.354955,61.864008 c 0.504,0.072 1.224,2.7 0.9,3.168 -0.504,0.468 -3.24,-0.072 -3.348,-0.504 -0.18,-0.648 1.836,-2.7 2.448,-2.664 z"
   inkscape:connector-curvature="0" />
<path
   id="path143"
   style="fill-rule:evenodd;stroke:#000000;stroke-width:0.036;stroke-miterlimit:10"
   d="m 121.90695,136.82001 c 0.9,1.29 5.04,4.75 4.248,5.36 -0.936,0.43 -8.64,-1.69 -9.36,-2.2 -0.792,-0.54 3.96,0.15 4.68,-0.72 0.54,-1.04 -1.26,-4.21 -1.116,-4.64 0.072,-0.36 0.54,0.79 1.548,2.2 z"
   inkscape:connector-curvature="0" />
<path
   id="path145"
   style="fill:#ffffff;fill-rule:evenodd;stroke:#000000;stroke-width:0.036;stroke-miterlimit:10"
   d="m 139.29195,156.04001 -4.89,-5.83 c -4.719,-1.62 -9.003,-2.63 -13.143,-3.17 -4.248,-0.61 -8.712,-0.47 -11.592,0 -2.916,0.43 -4.356,1.22 -5.148,2.66 -0.828,1.37 -0.324,3.39 0.684,5.62 0.864,2.05 2.376,5.33 5.112,7.06 2.88,1.65 6.516,2.62 11.592,2.91 1.98,-3.13 4.428,-5.58 7.344,-7.05 2.951,-1.52 6.121,-2.34 10.041,-2.2 z"
   inkscape:connector-curvature="0" />
<path
   id="path147"
   style="fill:#ffffff;fill-rule:evenodd;stroke:#000000;stroke-width:0.036;stroke-miterlimit:10"
   d="m 93.682955,310.98001 c 2.88,-0.36 5.616,-0.97 8.207995,-1.83 2.52,-0.97 5.364,-2.27 7.128,-3.46 1.62,-1.26 2.7,-2.55 2.952,-3.89 1.296,2.67 2.988,4.76 5.22,6.41 2.268,1.66 4.104,2.88 7.992,3.24 3.708,0.15 8.419,-0.5 14.289,-2.09 4.75,3.32 8.46,6.66 11.13,10.34 2.66,3.56 4.06,7.3 4.6,11.23 0.72,-1.23 1.52,-0.87 2.52,0.93 0.94,1.77 3.17,3.39 3.39,9.87 0.14,6.48 -0.58,16.02 -2.31,28.9 l -10.29,-9.64 c -1.95,-8.82 -3.24,-15.48 -4.43,-20.41 -1.22,-4.97 -2.27,-6.99 -2.3,-8.97 -0.15,-2.19 0.43,-3.71 1.87,-3.42 1.4,0.4 6.05,5.26 6.73,5.26 0.65,-0.25 -1.37,-4.94 -2.74,-6.41 -1.47,-1.44 -3.38,-2.41 -5.86,-2.52 -1.16,-2.85 -2.56,-5.19 -4.22,-6.88 -1.8,-1.76 -5.65,-4.06 -5.86,-3.45 -0.11,0.47 3.7,4.28 5.04,6.44 1.26,2.09 2.05,4.1 2.52,6.19 -0.83,0.33 -0.76,2.95 0.21,8.03 0.87,5.04 2.67,12.27 5.26,21.99 -8.61,-8.49 -15.589,-15.15 -21.241,-20.41 -5.652,-5.29 -9.684,-8.74 -12.384,-10.76 -1.368,-8.46 -2.34,-13.57 -2.916,-15.63 -0.684,-2.01 -0.72,1.08 -0.648,3.46 0,2.23 0.324,5.47 0.828,9.86 -3.06,-2.73 -5.688,-5.11 -8.172,-7.12 -2.519995,-2.16 -4.643995,-3.78 -6.515995,-5.26 z"
   inkscape:connector-curvature="0" />
<path
   id="path149"
   style="fill:#ffffff;fill-rule:evenodd;stroke:#000000;stroke-width:0.036;stroke-miterlimit:10"
   d="m 139.87195,267.17001 c 1.76,-0.97 2.63,-2.3 2.73,-4.14 0.04,-1.83 -0.68,-4.17 -2.3,-6.87 1.91,-2.6 3.56,-5.12 4.82,-7.56 1.26,-2.45 2.13,-4.83 2.74,-7.13 6.41,1.73 11.45,4.28 15.12,7.81 3.64,3.35 5.65,7.7 6.73,13.07 0.94,5.47 0.29,12.67 -0.83,19.26 -1.26,6.51 -3.81,14.51 -6.12,19.26 -2.37,4.71 -6.94,8.24 -7.74,8.49 -0.79,0.08 1.8,-4.03 2.92,-8.02 0.97,-4.14 3.2,-11.42 2.95,-16.28 -0.47,-5 -2.99,-9.93 -5.04,-12.85 -2.16,-2.91 -4.43,-3.99 -6.95,-4.35 -2.55,-0.44 -5,0.25 -7.77,2.05 -0.4,-0.9 -0.83,-1.8 -1.26,-2.74 z"
   inkscape:connector-curvature="0" />
<path
   id="path151"
   style="fill:#ffffff;fill-rule:evenodd;stroke:#000000;stroke-width:0.036;stroke-miterlimit:10"
   d="m 216.76195,145.89001 v 16.05 l 9.65,-6.44 c 3.06,-8.35 4.97,-13.03 5.87,-14.44 0.83,-1.29 -0.61,4.11 -0.83,6.2 -0.32,1.98 -1.69,4.93 -1.04,5.5 0.57,0.36 2.27,-1.44 4.39,-2.77 2.09,-1.33 4.5,-3.13 7.78,-5.25 -2.42,-2.88 -4.72,-4.72 -7.35,-5.51 -2.59,-0.83 -6.01,0.18 -8.17,0.68 -2.27,0.43 -3.82,0.97 -5.47,2.05 -1.8,1.01 -3.28,2.27 -4.83,3.93 z"
   inkscape:connector-curvature="0" />
<path
   id="path153"
   style="fill:#ffffff;fill-rule:evenodd;stroke:#000000;stroke-width:0.036;stroke-miterlimit:10"
   d="m 147.03195,166.16001 c 1.26,-0.33 2.7,0.1 4.32,1.15 1.55,0.97 2.92,2.34 5.22,5.22 2.23,2.91 5.4,7.67 8.39,12.02 2.88,4.21 6.95,9.72 8.86,13.18 1.76,3.35 2.37,5.58 1.83,6.84 -3.49,-5.01 -7.13,-9.9 -10.91,-15.23 -3.96,-5.4 -8.82,-12.42 -11.8,-16.34 -3.03,-3.93 -4.86,-6.16 -5.91,-6.84 z"
   inkscape:connector-curvature="0" />
<path
   id="path155"
   style="fill:#ffffff;fill-rule:evenodd;stroke:#000000;stroke-width:0.036;stroke-miterlimit:10"
   d="m 143.83195,155.93001 c -5.47,-9.18 -10.95,-17.93 -16.561,-26.782 -5.688,-8.928 -11.412,-17.244 -17.028,-25.92 -5.652,-8.820002 -11.411995,-17.496002 -16.595995,-25.884002 -5.292,-8.496 -12.312,-20.736 -14.544,-24.084 -2.16,-3.348 -1.008,0.036 1.368,4.32 2.232,4.212 6.768,12.204 12.06,20.916 5.22,8.712 12.923995,21.276 19.079995,30.888002 6.156,9.468 12.132,18 17.244,25.886 4.927,7.81 8.927,14.69 12.277,20.91 0.9,-0.07 1.8,-0.14 2.7,-0.25 z"
   inkscape:connector-curvature="0" />


<metadata
   id="metadata80"><rdf:RDF><cc:Work><dc:format>image/svg+xml</dc:format><dc:type
         rdf:resource="http://purl.org/dc/dcmitype/StillImage" /><cc:license
         rdf:resource="http://creativecommons.org/publicdomain/zero/1.0/" /><dc:publisher><cc:Agent
           rdf:about="http://openclipart.org/"><dc:title>Openclipart</dc:title></cc:Agent></dc:publisher><dc:title></dc:title><dc:date>2010-04-27T14:56:34</dc:date><dc:description>...done by Karl Urban at Umatilla National Forest in Oregon. They are meant to be used as coloring book pages for Celebrating Wildflowers and other educational activities. Karl put the drawings into the public domain...</dc:description><dc:source>https://openclipart.org/detail/57343/ku-impatiens-aurella-by-gerald_g-57343</dc:source><dc:creator><cc:Agent><dc:title>Gerald_G</dc:title></cc:Agent></dc:creator><dc:subject><rdf:Bag><rdf:li>black and white</rdf:li><rdf:li>externalsource</rdf:li><rdf:li>flower</rdf:li><rdf:li>herb</rdf:li><rdf:li>nature</rdf:li><rdf:li>outline</rdf:li><rdf:li>plant</rdf:li><rdf:li>yellow</rdf:li></rdf:Bag></dc:subject></cc:Work><cc:License
       rdf:about="http://creativecommons.org/publicdomain/zero/1.0/"><cc:permits
         rdf:resource="http://creativecommons.org/ns#Reproduction" /><cc:permits
         rdf:resource="http://creativecommons.org/ns#Distribution" /><cc:permits
         rdf:resource="http://creativecommons.org/ns#DerivativeWorks" /></cc:License></rdf:RDF></metadata></svg>