<?xml version="1.0" encoding="UTF-8" standalone="no"?>
<!-- Created with Inkscape (http://www.inkscape.org/) -->
<svg xmlns:rdf="http://www.w3.org/1999/02/22-rdf-syntax-ns#" xmlns="http://www.w3.org/2000/svg" xmlns:cc="http://web.resource.org/cc/" xmlns:dc="http://purl.org/dc/elements/1.1/" xmlns:svg="http://www.w3.org/2000/svg" xmlns:inkscape="http://www.inkscape.org/namespaces/inkscape" xmlns:sodipodi="http://sodipodi.sourceforge.net/DTD/sodipodi-0.dtd" xmlns:ns1="http://sozi.baierouge.fr" xmlns:xlink="http://www.w3.org/1999/xlink" id="Layer_1" xml:space="preserve" version="1.0" viewBox="0 0 555.693 414.52" inkscape:version="0.91 r13725">
<g id="g5">
	<path id="path7" style="fill-rule:evenodd" d="m201.64 151c18.93-2.3 40.68-5.9 66.06-10.94 25.48-5.08 53.31-11.45 85.28-19.26l8.96-16.78c3.64-2.66 7.71-4.32 12.89-4.824 5.08-0.648 9.4 0.504 17.43 1.514 7.88 1.11 16.56 2.66 30.31 4.5 13.82 1.65 37.98 4.43 51.91 5.4 13.72 0.79 20.45-0.43 30.31-0.61 9.83-0.44 23.73-2.13 28.23-1.19 4.32 0.97-0.4 3.78-2.09 6.91-1.87 2.99-6.95 8.03-8.42 11.09-1.52 2.99-1.52 5.29-0.29 6.91 1.98 1.15 3.53 3.17 5.07 6.59 1.41 3.24 2.67 8.24 3.64 13.21 1.01 4.82 1.66 8.78 2.09 16.2 0.32 7.49 0.18 16.7-0.29 28.22 8.46 0.4 14.36 1.16 18 2.42 3.56 1.08 2.48 2.3 3.28 4.78 0.75 2.52 2.8 7.82 0.89 10.19-2.15 2.31-6.37 3.46-13.17 3.6-0.69-1.4-1.33-2.3-1.8-2.7-0.54-0.39-0.9-0.29-1.23 0.33 0 4.42-0.25 8.02-0.9 11.08-0.64 2.99-1.69 5.3-2.98 6.92l-8.43-0.29c-0.39 9.83-1.44 18.57-3.27 26.93-1.84 8.24-3.42 16.81-7.53 22.5-4.24 5.61-9.9 9.21-17.39 11.08l-24.91-4.5c-1.69-2.12-2.95-5.36-3.92-9.57-0.94-4.29-1.59-9.54-1.8-15.91-17.71 9.03-36.54 17.74-57.6 26.71-21.17 8.93-43.31 17.53-67.83 26.39-1 4.68-2.01 7.23-3.31 7.81-1.26 0.47-2.66-0.9-4.21-4.5l-16.49-0.29c1.19 6.59 1.59 13.5 1.19 21.28-0.47 7.7-1.44 16.88-3.6 24.62-2.27 7.63-5.29 14.4-9.61 20.99-4.54 6.41-10.51 13.57-16.81 18.03-6.34 4.43-13.11 7.28-20.7 8.68l-37.19-8.68c-1.77-2.48-3.82-6.69-6.01-12.92-2.27-6.3-4.83-14.22-7.53-24.3l-10.47 4.79c-22.04-6.3-40.32-11.41-55.84-15.88-15.48-4.43-27.36-7.88-36.32-10.51-8.46 2.84-15.736 4.54-22.216 5.08-6.588 0.43-11.16-0.4-16.488-2.09-5.508-1.77-10.8-4.14-15.3-8.1-4.428-4.07-8.136-9.47-11.124-16.2-11.088-3.96-20.556-7.27-28.8-10.23-8.244-2.91-15.048-5.36-20.412-7.2l-0.9-16.48c1.692-1.95 4.536-3.46 8.388-4.83s8.712-2.41 14.724-3.27l0.288-11.63c-0.432-3.13-0.576-6.16-0.576-9.47 0-3.28 0.144-6.62 0.576-10.04-1.368-4.32-1.26-7.89 0.324-11.13 1.584-3.2 4.536-5.9 9-8.1-0.756-3.92-0.612-6.87 0.576-9 1.116-2.12 2.664-2.95 6.3-3.6 3.564-0.75 8.676-0.9 15.336-0.57l80.714-49.54 17.71-7.49c16.09-4.03 32.18-8.06 48.28-12.13z"/>
	<path id="path9" style="fill-rule:evenodd;fill:white" d="m154.55 164.46c-5.83 1.88-11.88 4.58-18.29 8.1-6.44 3.42-10.51 6.99-20.12 12.93-9.76 6.01-26.248 15.69-37.804 22.79-11.772 6.94-25.2 14.72-31.536 18.61-6.228 3.71-6.084 2.7-5.688 3.92 0.324 1.19 1.476 1.77 7.488 2.99 6.012 1.01 15.192 1.37 27.936 3.6 12.708 2.16 35.644 7.6 47.414 9.9 11.48 2.27 13.93 4.18 21.92 3.92 7.81-0.32 10.98-1.26 25.49-5.72 14.65-4.68 41.08-14.65 61.24-21.6 19.98-7.09 40.71-13.93 57.92-20.12 17.1-6.23 31.61-11.7 44.1-16.82-5.26-2.66-15.91-5.25-32.4-7.77-16.74-2.7-44.82-5.4-66.31-7.53-21.57-2.19-47.49-3.88-61.24-5.07-13.68-1.26-20.19-1.87-20.12-2.13z"/>
	<path id="path11" style="fill-rule:evenodd" d="m63.036 224.51c9.756-5.65 50.504-28.47 66.314-36.93 15.55-8.57 29.09-15.3 27-13.79-2.41 1.51-25.96 14.79-40.21 22.79-14.33 7.99-35.428 19.44-44.428 24.33-8.964 4.57-18.288 9.15-8.676 3.6z"/>
	<path id="path13" style="fill-rule:evenodd" d="m89.676 228.04c9.9-5.44 51.374-26.93 67.354-35.03 15.84-8.21 29.45-14.36 27.36-13.03-2.45 1.48-26.42 14.11-40.82 21.67-14.44 7.49-36.07 18.54-45.074 23.04-9.108 4.43-18.576 8.46-8.82 3.35z"/>
	<path id="path15" style="fill-rule:evenodd" d="m126.86 227.03c10.08-5.11 52.02-25.52 68.33-33.05 16.09-7.66 29.88-13.64 27.76-12.24-2.56 1.41-26.75 13.32-41.47 20.49-14.73 7.09-36.54 17.42-45.72 21.71-9.15 4.14-18.87 7.99-8.9 3.09z"/>
	<path id="path17" style="fill-rule:evenodd" d="m152.53 230.09c10.33-4.68 53.32-22.71 69.95-29.52 16.45-6.77 30.53-12.13 28.33-10.8-2.52 1.33-27.5 11.88-42.44 18.33-15.01 6.26-37.41 15.58-46.77 19.36-9.43 3.71-19.26 6.99-9.07 2.63z"/>
	<path id="path19" style="fill-rule:evenodd" d="m172.22 237.83c10.48-4.17 54.11-20.63 71.07-26.71 16.74-6.08 30.99-10.87 28.76-9.65-2.52 1.26-27.97 10.73-43.16 16.6-15.34 5.69-37.98 14.11-47.52 17.49-9.54 3.32-19.44 6.2-9.15 2.27z"/>
	<path id="path21" style="fill-rule:evenodd;fill:white" d="m39.312 233.8c2.556 0.22 6.804 0.86 12.888 1.8 6.12 1.01 15.048 2.12 23.436 3.89 8.244 1.51 16.056 3.56 25.814 5.72 9.65 2.05 23.61 5.51 31.79 6.91 7.92 1.3 9.03 2.34 16.52 1.19 7.52-1.22 14.94-3.74 28.51-8.1 13.5-4.57 35.57-12.49 51.91-18.32 16.24-5.8 32.55-11.56 45.04-15.91 12.28-4.43 18.54-6.34 28.8-10.19 10.22-3.85 20.88-8.21 32.4-12.93 0.94 0.83 1.04 1.73 0.61 2.7-0.47 0.94-1.76 1.95-3.6 3.03-14.98 5.4-31.21 11.27-49.54 18-18.54 6.73-43.12 15.66-59.72 21.92-16.49 6.01-27.72 10.3-38.7 14.4-11.19 4.11-19.8 7.92-27.32 9.9-7.56 1.73-10.77 1.62-17.39 1.19-6.77-0.5-14.04-1.98-22.5-3.6s-19.441-4.21-27.937-5.98c-8.532-1.8-15.264-3.27-23.112-4.82-8.028-1.73-19.512-3.92-24.3-4.79-4.824-0.9-3.636 0.61-4.212-0.32-0.575-1.01-0.467-2.95 0.613-5.69z"/>
	<path id="path23" style="fill-rule:evenodd;fill:white" d="m34.812 235.6c-3.348 0.36-5.616 1.51-7.2 3.6-1.512 2.02-1.836 2.7-2.088 8.71-0.396 6.05 0.072 19.44 0 27-0.18 7.35-0.252 13-0.612 17.1l19.8 6.3c-1.404-15.95-2.808-28.73-4.5-39.31-1.656-10.51-3.456-18.22-5.4-23.4z"/>
	<path id="path25" style="fill-rule:evenodd;fill:white" d="m39.6 242.19c11.916 1.87 23.292 3.92 34.812 6.3 11.52 2.3 24.3 5.69 33.628 7.81 9.14 2.02 14.9 3.53 21.31 4.82 6.41 1.3 10.91 2.99 16.81 2.99 5.83-0.14 7.02-0.14 17.71-3.6 10.62-3.6 30.96-11.95 45.33-17.42 14.25-5.51 26.38-10.48 39.6-15.3 13.17-5.11 27.46-10.19 38.41-14.11 10.65-3.82 17.31-6.12 25.52-9 8.28-3.03 18.72-6.3 23.4-9 4.54-2.78 3.24-5.22 3.6-7.49 0.22-2.23-0.43-4.29-2.09-6.01l15.02-4.5c-0.08 8.31 0.07 18.72 0.28 31.5 0.26 12.78 0.83 33.98 1.19 44.74 0.25 10.59 0.36 16.89 0.33 18.9 6.69-2.26 13.6-4.82 21.27-7.52 7.6-2.84 17.68-5.98 24.01-9 6.2-3.02 9.4-3.53 12.93-9.29 3.38-6.08 5.18-16.59 7.49-26.1 2.19-9.5 4.75-20.41 5.72-30.35 0.86-10.04 0.61-19.51-0.61-29.08l3.31-0.9-0.61 75.92c-0.72 2.99-0.69 5.18-0.29 6.59 0.4 1.29 0.14 2.41 2.99 1.8 2.81-0.69 7.27-3.13 13.79-5.4 6.51-2.38 14.68-5.08 24.91-8.39 2.37-4.46 4.93-10.12 7.81-17.1 2.81-7.06 7.67-18.5 9.33-24.62 1.58-6.2 0.75-5.33 0.57-11.99-0.14-6.84-0.68-16.02-1.48-28.23 11.85-3.63 20.67-6.3 27-8.38 6.2-2.09 9.54-3.35 10.19-3.93 2.13 4.03 3.78 8.39 5.11 12.93 1.27 4.5 2.16 7.48 2.7 14.4 0.47 6.94 0.58 15.62 0.33 26.71-1.87-6.48-3.78-10.98-5.73-13.5-2.01-2.63-1.8-2.45-6.01-1.8-4.32 0.57-15.08 3.99-19.51 5.4-4.54 1.26-6.8 2.05-7.2 2.37-4.18 11.67-7.78 21.5-10.8 30.03-3.17 8.39-5.44 14.54-7.49 20.41-2.05 5.72-3.71 9.32-4.82 14.11-1.19 4.79-1.84 9.54-2.09 14.4l-126.65 52.81-0.61-11.08c-2.63-7.6-5.69-15.48-9.58-24.34-3.92-9-9.86-22.43-13.53-28.19-3.78-5.65-4.03-4.5-8.39-5.69-4.43-1.4-6.77-2.98-17.42-1.83-10.77 1.11-25.89 4.07-46.19 8.71 0.03-0.36-1.41-0.79-3.93-0.9-2.77-0.29-6.94-0.58-11.7-0.29-4.75 0.15-13.39 0.33-16.48 1.8-3.21 1.48-3.96 3.93-2.42 7.2-7.88 0.15-14.04 0.79-18.61 1.8-4.61 0.94-6.59 0.9-8.71 4.21-2.27 3.28-3.02 6.99-4.5 15.59-1.58 8.53-3.6 26.5-4.5 35.43-0.86 8.82-1.26 14.43-0.9 17.24l-125.46-35.42c-0.504-10.37-1.404-20.09-2.7-29.7-1.404-9.65-3.204-18.62-5.4-27.47z"/>
	<path id="path27" style="fill-rule:evenodd;fill:white" d="m176.47 335.39c-0.57-7.27-0.57-15.05 0.29-24.01 0.83-9.04 3.02-22.03 4.5-29.12 1.22-7.02 1.91-10.12 3.6-12.89 1.69-2.95 2.41-3.21 6.62-4.21 4.14-1.08 10.05-1.73 18-2.09-1.44 3.02-1.94 5.22-1.51 6.59 0.36 1.22 0.65 1.08 3.93 1.51 3.27 0.36 11.19 2.05 15.58 1.19 4.11-0.94 6.95-4.58 9.9-6.59 3.06-2.2 6.56-4.39 8.1-6.01 1.37-1.66 1.48-2.81 0.33-3.6 13.32-3.17 23.94-5.48 32.4-7.2 8.31-1.77 12.09-3.14 17.71-2.99 5.54 0.14 11.52 1.26 15.59 3.89 3.89 2.59 5.58 6.76 8.13 11.41 2.52 4.46 4.83 9.29 7.49 15.59 2.74 6.26 6.81 16.38 8.71 21.6 1.77 5 1.77 4.71 2.09 8.71 0.25 3.99-0.03 13.03-0.29 15.3-0.32 2.16-0.82 0.03-1.22-2.09-0.43-2.16-0.18-7.06-1.19-10.8-1.11-3.92-1.8-4.64-5.4-12.02-3.78-7.49-9.29-17.97-16.81-32.12l-46.51 13.22c-2.85 1.44-4.72 3.09-6.01 4.82-1.34 1.62-0.08 0.15-1.48 5.69-1.58 5.54-5.11 19.51-7.24 27.9-2.16 8.42-3.78 17.17-5.4 22.21-1.72 4.86-1.15 5.54-4.78 7.2-3.82 1.58-9.44 2.34-17.43 2.41 2.7-6.01 4.11-9.97 3.93-12.31-0.18-2.3-1.34-1.87-4.83-1.48-3.74 0.33-11.7 2.49-16.49 3.28-4.68 0.72-6.73 1.3-11.7 0.9-5.07-0.5-11.23-1.8-18.61-3.89z"/>
	<path id="path29" style="fill-rule:evenodd;fill:white" d="m355.93 177.06c-0.25-0.21 2.02-1.11 7.2-2.7 5.15-1.72 13.43-4.53 23.44-6.87 9.9-2.34 21.67-4.65 35.71-6.91 1.23 2.66 1.62 7.63 1.48 15.3-0.29 7.66-0.87 19.26-2.7 30.31-1.98 10.94-4.68 26.53-8.68 34.81-4.1 7.99-9.54 10.48-15.34 13.82-5.86 3.39-12.74 3.82-19.51 6.3-6.8 2.45-13.75 5.01-20.99 8.1-0.18-30.7-0.39-61.41-0.61-92.16z"/>
	<path id="path31" style="fill-rule:evenodd;fill:white" d="m431.57 158.78l52.23-11.13c1.19 13.5 1.73 23.69 1.48 31.54-0.36 7.63 0.04 5.9-2.99 14.4-3.02 8.46-8.03 20.27-15.01 36l-36.9 12.92c0.4-27.9 0.79-55.8 1.19-83.73z"/>
	<path id="path33" style="fill-rule:evenodd" d="m363.38 197.04c6.63-2.05 33.38-9.03 37.48-9.86 3.78-0.9-7.81 2.74-14.36 4.79-6.73 1.91-20.88 6.15-24.81 7.05-3.89 0.8-4.89 0 1.69-1.98z"/>
	<path id="path35" style="fill-rule:evenodd" d="m363.38 240.57c6.63-2.05 33.38-9.04 37.48-9.87 3.78-0.79-7.81 2.7-14.36 4.79-6.73 1.87-20.88 6.16-24.81 7.02-3.89 0.72-4.89 0.07 1.69-1.94z"/>
	<path id="path37" style="fill-rule:evenodd" d="m436.32 215.33c6.62-2.05 33.37-9.03 37.48-9.86 3.78-0.83-7.82 2.77-14.37 4.82-6.73 1.87-20.88 6.16-24.8 7.02-3.89 0.69-4.9 0.07 1.69-1.98z"/>
	<path id="path39" style="fill-rule:evenodd" d="m437.33 178.25c4.57-1.47 22.93-6.19 25.77-6.77 2.52-0.72-5.36 1.95-9.9 3.28-4.68 1.37-14.29 4.14-17.02 4.86-2.6 0.5-3.46 0 1.15-1.37z"/>
	<path id="path41" style="fill-rule:evenodd" d="m491.9 162.3c2.88-0.97 15.02-4.06 16.82-4.42 1.62-0.44-3.5 1.26-6.45 2.16-3.09 0.86-9.39 2.7-11.12 3.16-1.84 0.33-2.23-0.07 0.75-0.9z"/>
	<path id="path43" style="fill-rule:evenodd" d="m513.18 153.99c1.8-0.65 9.32-2.49 10.48-2.74 0.9-0.29-2.16 0.76-4.04 1.33-1.83 0.47-5.93 1.73-6.91 1.98-1.15 0.22-1.37-0.07 0.47-0.57z"/>
	<path id="path45" style="fill-rule:evenodd" d="m514.4 157.3c1.84-0.65 9.26-2.48 10.44-2.74 0.98-0.28-2.16 0.76-3.99 1.34-1.84 0.5-5.94 1.65-6.91 1.94-1.05 0.18-1.44 0 0.46-0.54z"/>
	<path id="path47" style="fill-rule:evenodd" d="m514.98 160.9c1.8-0.65 9.32-2.48 10.48-2.74 0.9-0.28-2.16 0.76-4.04 1.34-1.83 0.5-5.94 1.65-6.91 1.94-1.15 0.18-1.37 0 0.47-0.54z"/>
	<path id="path49" style="fill-rule:evenodd" d="m516.2 165.11c1.84-0.61 9.26-2.55 10.44-2.77 0.98-0.29-2.16 0.76-3.99 1.33-1.84 0.54-5.94 1.62-6.91 1.98-1.05 0.18-1.44 0 0.46-0.54z"/>
	<path id="path51" style="fill-rule:evenodd" d="m516.78 169c1.8-0.65 9.32-2.48 10.48-2.74 0.9-0.28-2.16 0.76-4.04 1.34-1.83 0.5-5.94 1.65-6.91 1.94-1.15 0.18-1.37 0 0.47-0.54z"/>
	<path id="path53" style="fill-rule:evenodd" d="m518 172.6c1.84-0.65 9.26-2.48 10.44-2.74 0.98-0.28-2.16 0.76-3.99 1.34-1.84 0.5-5.94 1.65-6.91 1.94-1.05 0.18-1.44 0 0.46-0.54z"/>
	<path id="path55" style="fill-rule:evenodd" d="m349.63 278.51c18.94-7.27 96.99-35.21 111.96-40.21 14.51-5-10.08 4.79-24.62 10.51-14.73 5.76-48.13 18.15-62.71 23.69-14.62 5.33-20.24 7.31-24.34 8.42-4.1 0.9-19.01 4.68-0.29-2.41z"/>
	<path id="path57" style="fill-rule:evenodd" d="m354.67 299.9c16.96-7.64 87.16-37.05 100.62-42.41 13-5.26-8.93 4.79-22.03 10.83-13.28 6.05-43.16 19.01-56.3 24.84-13.11 5.55-18.18 7.78-21.89 8.93-3.82 1.15-17.14 5.15-0.4-2.19z"/>
	<path id="path59" style="fill-rule:evenodd" d="m239.18 243.99c2.31-0.72 9.47-3.31 25.82-9.58 16.41-6.37 60.19-23.18 72.03-27.93 11.56-4.76 7.06-3.6-2.41-0.29-9.65 3.38-40.25 14.58-54.32 20.12-14.19 5.33-22.79 9-29.7 11.99-6.92 2.95-13.83 6.19-11.42 5.69z"/>
	<path id="path61" style="fill-rule:evenodd" d="m321.73 254.82c2.09-0.93 22.32-7.23 24.59-7.81 1.98-0.54-7.85 3.46-11.99 4.79-4.28 1.37-14.51 3.67-12.6 3.02z"/>
	<path id="path63" style="fill-rule:evenodd" d="m405.76 195.1c-0.65-1.19-0.54-5.54 0.9-7.24 1.44-1.69 5.29-2.26 7.81-2.7 2.37-0.61 6.51-0.75 6.59-0.28-0.08 0.43-4.68 2.12-6.59 2.98-1.95 0.65-4.11 0.51-4.83 1.52-0.72 1.11 0.83 3.74 0.33 4.82-0.79 0.86-3.64 1.94-4.21 0.9z"/>
	<path id="path65" style="fill-rule:evenodd" d="m469.62 177.14c-0.54-1.01-0.54-5.08 0.83-6.52 1.26-1.44 4.86-2.12 7.05-2.45 2.24-0.54 5.8-0.68 5.98-0.29-0.18 0.36-4.21 2.02-5.98 2.74-1.83 0.65-3.6 0.36-4.32 1.37-0.68 0.86 0.8 3.45 0.26 4.32-0.76 0.86-3.28 1.65-3.82 0.83z"/>
	<path id="path67" style="fill-rule:evenodd;fill:white" d="m469.08 261.34c-0.14-5.26 0.61-10.62 2.41-16.52 1.87-5.94 4.9-11.02 8.1-18.58 2.92-7.74 7.56-20.09 9.9-27.04 2.41-7.02 3.64-11.62 4.21-14.4 4.04-1.72 8.28-3.27 13.18-4.5 4.82-1.33 12.49-3.2 15.62-2.98 2.99 0.14 1.01 1.26 2.42 4.17 1.22 2.99 3.52 7.99 5.4 13.21 1.83 5.26 4.57 12.14 5.68 17.43 1.01 5.07 1.08 13.21 0.62 12.89-0.58-0.62-1.88-9.51-3.89-15.59-2.16-6.01-4.97-12.82-8.71-20.41l-20.42 5.11c-4.79 13.21-8.64 23.83-11.7 32.4-3.13 8.39-5.47 13.14-6.62 18.29-1.19 5.11 0.29 9.54-0.29 12.31-0.57 2.63-0.76 3.24-3.31 3.92-2.7 0.69-6.8 0.83-12.6 0.29z"/>
	<path id="path69" style="fill-rule:evenodd;fill:white" d="m536.9 199.82c6.23-0.72 10.59 0.03 13.22 2.41 2.62 2.41 3.38 9.03 2.41 11.7-1.12 2.48-3.75 3.78-8.43 3.6-1-1.77-1.9-3.03-2.98-3.93-1.12-0.9-2.13-1.44-3.32-1.47-0.21-2.27-0.61-4.61-1.18-6.63-0.65-2.05-1.41-4.17-2.42-5.97 0.9 0.07 1.8 0.18 2.7 0.29z"/>
	<path id="path71" style="fill-rule:evenodd;fill:white" d="m19.188 285.93c-4.68 0.75-8.424 1.62-11.088 3.02-2.736 1.19-4.392 1.77-5.112 4.79-0.684 3.1-0.432 7.27 0.9 13.21l202.61 63.33c2.34 0.72 4.5-0.44 6.87-3.32 2.27-3.09 4.9-9.32 6.91-14.11 1.8-4.86 5.48-11.95 4.5-14.07-1.08-2.13-5.72 0.86-10.18 1.47-4.47 0.58-7.89 2.38-16.24 1.8-8.5-0.72-18.83-2.16-34.2-5.97-15.66-3.89-36.86-11.13-57.92-17.14-21.064-6.26-52.816-14.65-67.216-19.19-14.364-4.57-15.336-5.18-18.612-7.52-3.348-2.34-3.708-4.39-1.224-6.3z"/>
	<path id="path73" style="fill-rule:evenodd;fill:white" d="m53.136 327.04l61.524 18.32c-8.82 2.34-16.74 3.5-24.336 3.32-7.56-0.15-14.508-0.72-20.7-4.22-6.264-3.67-11.664-9.43-16.488-17.42z"/>
	<path id="path75" style="fill-rule:evenodd;fill:white" d="m224.5 352.1c4.64 0.18 8.31 0.03 11.7-0.58 3.16-0.54 5.58-0.9 7.81-3.02 2.16-2.24 3.45-2.81 5.69-10.48 2.26-7.92 4.82-19.8 7.81-36.32 6.48-4.29 12.35-7.64 18-9.9 5.51-2.42 10.01-5.3 15.3-3.93 5.29 1.41 11.52 5.83 15.91 12.03 4.25 6.08 8.42 13.03 9.61 24.3 1.01 11.26 0.65 30.06-3.02 42.62-3.82 12.42-11.88 23.8-19.19 31.5-7.38 7.6-15.3 12.06-24.3 13.82l-36.04-7.52c-4.14-9.14-7.09-16.85-9.28-23.69-2.2-6.77-3.68-12.09-3.6-16.81 0-4.82 1.15-8.78 3.6-12.02z"/>
	<path id="path77" style="fill-rule:evenodd" d="m268.02 325.1c-3.96 5.04-7.27 11.7-8.42 20.41-1.34 8.64-1.59 23.58 0.9 31.21 2.48 7.45 8.67 12.92 14.11 13.5 5.33 0.36 13.5-3.74 18-10.51 4.46-6.84 8.39-20.16 8.71-29.7 0.18-9.72-4.21-21.42-7.2-27.33-2.99-5.9-6.59-7.88-10.8-7.48-4.43 0.43-11.34 4.75-15.3 9.9z"/>
	<path id="path79" style="fill-rule:evenodd;fill:white" d="m271.91 330.5c-4.18 5.65-6.63 11.55-7.49 18-0.86 6.51 0.25 15.73 2.38 20.41 2.08 4.46 6.4 6.51 9.9 6.3 3.34-0.36 7.27-3.42 10.22-7.78 2.81-4.39 5.11-10.4 6.91-18.32-1.19-3.6-2.99-4.75-5.4-3.31-2.48 1.4-7.95 11.7-9.32 11.73-1.41-0.18 1.94-11.09 0.9-12.31-1.15-1.3-6.7 6.23-7.49 5.08-0.79-1.23 2.27-9.58 2.38-11.99 0-2.38-1.95-1.19-2.38-2.41-0.5-1.34-0.76-3.14-0.61-5.4z"/>
	<path id="path81" style="fill-rule:evenodd;fill:white" d="m274 328.41c0.97-2.34 2.23-3.82 3.92-4.83 1.58-1 3.85-1.44 5.98-0.9 2.08 0.51 5.04 2.24 6.62 4.22 1.4 1.94 2.16 4.06 2.7 7.2 0.61 2.98 0.86 6.58 0.9 10.8-1.33-1.52-2.74-2.16-4.21-2.09-1.66 0-3.21 1.22-4.79 2.7-1.58 1.44-3.82 6.59-4.21 6.01-0.54-0.79 2.55-9 1.51-9.9-1.12-0.9-7.06 5.04-7.81 4.5-0.79-0.72 2.99-6.01 2.99-8.1-0.15-2.09-3.06-2.66-3.6-4.21-0.62-1.62-0.62-3.42 0-5.4z"/>
	<path id="path83" style="fill-rule:evenodd" d="m229 368.01c0.9 7.2 2.26 13.61 4.5 19.22 2.19 5.58 4.86 10.33 8.38 14.4-2.26-4.21-4.46-9.11-6.58-14.69-2.16-5.72-4.22-11.84-6.3-18.93z"/>
	<path id="path85" style="fill-rule:evenodd" d="m239.51 375.21c0.25 5.29 1.4 10.4 3.6 15.33 2.19 4.9 5.15 9.54 9.29 14.08-2.88-4.36-5.33-8.82-7.49-13.79-2.27-4.97-3.89-10.04-5.4-15.62z"/>
	<path id="path87" style="fill-rule:evenodd" d="m245.2 365.92c0.07 7.27 0.72 13.18 2.08 18 1.3 4.79 3.21 8.24 5.73 10.51v-1.51c-1.48-1.98-2.74-4.93-3.93-9-1.22-4.03-2.12-9.18-2.98-15.3l-0.9-2.7z"/>
	<path id="path89" style="fill-rule:evenodd" d="m117.9 305.69c-0.61-3.89-2.3-7.02-5.36-9.79-3.1-2.88-9.29-5.54-12.748-6.59-3.564-1.01-6.156-0.79-8.172 0.65-5.724-4.75-11.34-6.73-17.388-5.8-6.156 0.9-13.968 5.87-18.576 11.16-4.644 5.26-9.072 15.05-8.712 20.2 0.468 5 4.824 9.07 10.98 9.68 6.012 0.51 17.172-3.7 24.876-6.4 7.632-2.92 14.508-8.07 20.48-10.3 5.87-2.2 10.7-3.13 14.62-2.81z"/>
	<path id="path91" style="fill-rule:evenodd;fill:white" d="m82.944 293.09c-0.648-1.58-2.052-2.3-4.356-2.7-2.34-0.43-6.156-1.08-9.504 0.69-3.528 1.72-8.46 6.15-11.052 9.97-2.628 3.85-4.464 9.54-4.248 12.74 0.144 3.06 1.944 4.9 5.4 5.65 3.42 0.65 8.64 0.72 14.832-1.58 6.156-2.45 15.336-9.9 21.312-12.64 5.762-2.77 10.192-3.99 13.282-3.67-2.01-2.27-4.64-3.78-7.88-4.68-3.314-0.97-6.554-1.87-11.81-0.61-5.4 1.33-11.988 4-20.16 8.39 0.864-1.33 2.268-2.95 4.752-4.86 2.376-1.95 5.472-4.18 9.432-6.7z"/>
	<path id="path93" style="fill-rule:evenodd" d="m186.8 296.19c-3.13 4.71-4.82 14-5.07 20.37-0.33 6.23 0.14 14.12 3.35 17.14 3.09 2.88 11.01 4.39 15.15 0.65 4.03-3.89 9.04-15.77 9.04-23.4-0.22-7.81-5.55-20.05-9.33-22.54-3.85-2.52-10.08 2.99-13.14 7.78z"/>
	<path id="path95" style="fill-rule:evenodd;fill:white" d="m187.7 298.1c-2.8 4.14-4.21 12.49-4.5 18.1-0.39 5.66 0.22 12.39 2.96 15.2 2.73 2.59 9.75 3.88 13.42 0.57 3.57-3.49 8-13.93 8.03-20.77-0.07-6.95-5-17.78-8.28-20.02-3.42-2.16-8.96 2.6-11.63 6.92z"/>
	<path id="path97" style="fill-rule:evenodd" d="m187.49 313.47c-1.3 1.91-1.95 5.76-2.09 8.35-0.14 2.52 0.04 5.72 1.37 6.98 1.29 1.19 4.43 1.73 6.19 0.26 1.69-1.62 3.56-6.38 3.67-9.54-0.14-3.24-2.23-8.21-3.78-9.22-1.69-1.08-4.03 1.22-5.36 3.17z"/>
	<path id="path99" style="fill-rule:evenodd" d="m109.3 294.96c1.26 0.54 3.34 1.55 6.26 3.42 2.84 1.84 7.63 5.91 11.16 7.35 3.46 1.29 6.66 1.29 9.61 0.68 2.81-0.68 5.37-2.12 7.53-4.46 0.07-0.61-0.33-1.19-1.19-1.73-0.87-0.54-2.2-1.26-4-1.76 1.66-0.18 3.39 0.03 5.19 0.79 1.83 0.83 4.24 1.91 5.43 3.63 1.01 1.48 1.33 4.14 0.83 5.62-0.58 1.44-1.94 2.48-4.1 3.13 0.57-2.66 0.68-4.39 0.18-5.18-0.47-0.83-1.55-0.76-3.24 0.21-1.88 0.94-4.58 4.22-7.71 4.83-3.35 0.39-8.17-1.3-11.27-2.31-3.09-1.11-4.75-2.84-6.76-4.06-2.16-1.37-3.89-2.42-5.62-3.57-0.76-2.19-1.51-4.39-2.3-6.59z"/>
	<path id="path101" style="fill-rule:evenodd" d="m143.71 292.88c4.5 0.46 7.85 1.98 10.19 4.39 2.27 2.41 3.53 6.41 3.64 10.04 0.03 3.57-0.9 7.31-3.1 11.38 4.18-6.09 6.19-11.09 6.48-15.3 0.11-4.32-2.45-8.07-5.33-9.87-2.91-1.76-6.87-1.98-11.88-0.64z"/>
	<path id="path103" style="fill-rule:evenodd" d="m30.096 259.54c-1.656 5-0.864 13.75 0.432 19.58 1.296 5.8 3.6 12.46 7.2 14.58 3.492 1.91 11.016 1.19 13.824-3.13 2.7-4.61 4.14-16.31 2.376-23.29-2.088-6.98-9.936-16.63-13.968-17.96-4.068-1.26-8.28 5.11-9.864 10.22z"/>
	<path id="path105" style="fill-rule:evenodd;fill:white" d="m31.356 261.05c-1.44 4.54-0.792 12.1 0.396 17.39 1.152 5.04 3.24 11.2 6.408 12.92 3.132 1.73 9.756 0.98 12.24-2.8 2.412-4.04 3.708-14.48 2.088-20.63-1.8-6.19-8.784-14.8-12.348-15.95-3.6-1.12-7.452 4.5-8.784 9.07z"/>
	<path id="path107" style="fill-rule:evenodd" d="m34.956 274.91c-0.648 2.13-0.396 5.55 0.18 8.03 0.54 2.38 1.476 5 2.952 5.94 1.404 0.79 4.428 0.36 5.616-1.3 1.044-1.9 1.692-6.69 0.972-9.5-0.828-2.92-4.068-6.8-5.688-7.34-1.692-0.51-3.456 2.05-4.032 4.17z"/>
	<path id="path109" style="fill-rule:evenodd;fill:white" d="m487.08 258.21c-0.9-2.63-1.08-5.73-0.68-9.29 0.32-3.6 0.57-5.54 2.98-12.24 2.38-6.77 6.09-16.13 11.27-28.22 2.7-2.92 5.11-4.43 7.63-4.97 2.49-0.54 4.36-1.26 6.99 2.01 2.52 3.35 6.51 10.88 7.95 17.57 1.34 6.59 0.83 12.67 0 21.57-1.08 8.74-3.24 23.65-5.65 30.81-2.41 6.98-4.71 8.53-8.28 11.31-3.71 2.77-7.95 4.24-13.28 4.96l-20.23-2.66c-2.38-5.33-4.04-10.08-4.97-14.26-0.94-4.24-1.15-7.85-0.65-10.94 5.76 0.47 10.12 0.25 12.93-0.65 2.8-0.97 4.13-2.59 3.99-5z"/>
	<path id="path111" style="fill-rule:evenodd" d="m496.04 236.82c-2.16 2.63-3.78 6.16-4.42 10.73-0.8 4.54-0.83 12.42 0.46 16.45 1.37 3.93 4.5 6.77 7.46 7.13 2.91 0.25 6.94-2.05 9.46-5.54 2.34-3.64 4.4-10.62 4.61-15.66 0.07-5.04-2.3-11.41-3.81-14.4-1.66-3.1-3.42-4.21-5.69-3.93-2.38 0.15-5.94 2.49-8.07 5.22z"/>
	<path id="path113" style="fill-rule:evenodd;fill:white" d="m498.1 239.67c-2.27 2.99-3.46 6.01-3.96 9.47-0.47 3.45 0.14 8.24 1.29 10.76 1.12 2.38 3.32 3.38 5.22 3.31 1.77-0.25 3.78-1.8 5.37-4.1 1.47-2.31 2.73-5.47 3.63-9.65-0.64-1.91-1.55-2.48-2.84-1.73-1.33 0.79-4.21 6.09-4.9 6.16-0.68-0.15 0.9-5.87 0.47-6.48-0.68-0.69-3.53 3.27-3.96 2.7-0.47-0.69 1.15-5.11 1.26-6.34-0.07-1.29-1.01-0.64-1.26-1.26-0.29-0.65-0.4-1.69-0.32-2.84z"/>
	<path id="path115" style="fill-rule:evenodd;fill:white" d="m499.21 238.55c0.51-1.22 1.19-2.01 2.05-2.52 0.83-0.5 1.98-0.9 3.17-0.5 1.05 0.25 2.63 1.19 3.49 2.23 0.65 0.9 1.12 2.16 1.41 3.78 0.25 1.55 0.5 3.45 0.47 5.72-0.65-0.82-1.48-1.15-2.2-1.11-0.76 0.07-1.87 0.54-2.52 1.4-0.86 0.72-1.98 3.49-2.23 3.17-0.25-0.47 1.26-4.75 0.79-5.22-0.68-0.47-3.67 2.59-4.1 2.38-0.47-0.44 1.58-3.21 1.58-4.29-0.11-1.08-1.62-1.44-1.91-2.19-0.36-0.8-0.36-1.88 0-2.85z"/>
	<path id="path117" style="fill-rule:evenodd" d="m475.85 269.26c0.43 3.92 1.26 7.45 2.48 10.58 1.15 3.1 2.74 5.69 4.61 7.92-1.22-2.34-2.48-5.04-3.64-8.1-1.29-3.09-2.26-6.51-3.45-10.4z"/>
	<path id="path119" style="fill-rule:evenodd" d="m481.61 273.22c0.14 2.88 0.75 5.69 1.98 8.42 1.19 2.74 2.84 5.19 5.11 7.74-1.66-2.37-2.88-4.89-4.1-7.56-1.19-2.77-2.24-5.54-2.99-8.6z"/>
	<path id="path121" style="fill-rule:evenodd" d="m484.78 268.11c0.1 4.03 0.36 7.23 1.15 9.9 0.68 2.55 1.73 4.53 3.13 5.79v-0.82c-0.86-1.08-1.58-2.74-2.16-4.97-0.68-2.23-1.19-5.04-1.66-8.43l-0.46-1.47z"/>
	<path id="path123" style="fill-rule:evenodd;fill:white" d="m34.92 231.96c-2.052-3.85-1.872-6.55 0.684-8.24 2.592-1.73 7.236-2.34 14.472-1.84-4.824 2.34-8.496 4.14-11.016 5.94-2.592 1.7-3.924 3.03-4.14 4.14z"/>
	<path id="path125" style="fill-rule:evenodd;fill:white" d="m212.26 268.5c0.39-3.09 0.75-5.58 0.93-7.59 0.11-2.13-2.27-3.28 0.22-4.57 2.37-1.34 9.47-2.7 14.47-2.99 5-0.33 10.04 0.18 15.41 1.37 2.01 0.57 1.83 2.12-0.69 4.35-2.62 2.23-9.39 7.53-14.47 9.22-5.15 1.55-10.29 1.62-15.87 0.21z"/>
	<path id="path127" style="fill-rule:evenodd" d="m201.64 154.38c12.74-2.12 27.1-4.71 43.77-7.92 16.74-3.31 42.59-8.74 55.48-11.3 12.67-2.66 19.33-3.92 20.37-4.18l28.7-8.67-11.78 43.45c-45.5-3.78-91-7.56-136.54-11.38z"/>
	<polygon id="polygon129" style="fill-rule:evenodd;fill:white" points="208.04 154.02 319.03 134.4 346.18 125.73 339.01 163.1"/>
	<path id="path131" style="fill-rule:evenodd" d="m370.8 189.16c-3.38-4.82-4.93-8.82-5.08-11.99-0.14-3.27 1.41-5.58 4.5-7.2-1.94-2.66-2.91-5.36-3.31-8.1-0.43-2.88 0.29-6.33 1.19-8.42 0.79-2.13 1.37-2.95 4.21-3.89 2.88-1.01 8.57-2.41 12.89-2.12 4.18 0.1 9.9 1.11 12.31 3.31 2.16 2.27 1.52 6.44 1.52 9.61-0.04 2.99-0.22 6.01-1.52 8.1-1.29 1.87-2.7 3.02-6.58 3.6-4.15 0.47-9.9 0.5-17.72-0.29-2.27 1.66-3.42 3.71-3.31 6.3 0 2.59 3.42 7.02 3.6 9 0.04 1.87-0.68 2.52-2.7 2.09z"/>
	<path id="path133" style="fill-rule:evenodd;fill:silver" d="m373.82 169.65c-2.19-1.95-3.6-4.14-4.21-6.59-0.72-2.52-1.4-6.01 0.29-8.1 1.76-2.16 5.62-4.03 9.9-4.5 4.18-0.54 8.89 0 14.72 1.48-7.66 5.04-11.88 8.1-12.92 9.32-1.01 1.08 4.36-0.86 6.91-2.09 2.49-1.15 5.04-2.81 7.81-4.82 0.58 3.99 0.62 7.2-0.28 9.61-0.94 2.27-2.6 3.82-4.83 4.79-2.45 0.83-5.72 0.75-8.71 0.9-2.95 0.14-5.8 0.14-8.68 0z"/>
	<path id="path135" style="fill-rule:evenodd" d="m323.86 70.577c-2.52 0.396-5.22 0.9-7.96 1.116-2.88 0.252-6.77 1.008-8.75 0.468-1.94-0.648-2.01-2.628-2.84-3.852-1.08-1.224-2.63-2.304-2.56-3.24 0.11-0.972 0.43-1.368 3.6-2.736 3.1-1.512 9.4-4.068 15.16-6.3 5.72-2.34 15.44-4.5 19.29-7.452 3.75-3.132 3.42-7.596 3.32-10.332-0.15-2.664-3.64-4.176-4.11-5.508-0.61-1.476-3.31-1.332 0.79-2.916 4.14-1.8 17.61-5.076 23.87-6.768 5.98-1.692 7.2-2.844 12.85-2.916 5.8-0.072 16.38-0.288 21.35 2.412 4.79 2.628 5.65 7.74 7.45 13.248 1.66 5.436 2.6 11.808 2.81 19.26 3.53-0.468 6.3-0.576 8.75-0.324 2.27 0.18 3.74 0.72 5.4 1.62 1.66 0.936 3.71 2.16 4.36 3.528 0.5 1.152-0.58 2.016-1.01 3.563-0.51 1.44-1.33 3.492-1.8 5.184-0.61 1.584-0.4 2.988-1.3 4.356-1.01 1.26-3.2 2.196-4.1 3.24-0.9 0.936-0.51 1.692-1.05 2.412-0.61 0.576-1.51 1.476-2.55 1.44-1.3-0.18-3.03-1.512-4.36-1.908-1.33-0.468-2.23-0.684-3.1-0.648-1.76 1.584-2.91 3.888-3.6 6.768-0.61 2.952-0.5 6.732-0.5 10.512-0.15 3.6-0.04 6.446-0.25 11.156-0.25 4.61-0.4 11.74-1.55 16.53-1.3 4.64-2.16 8.64-5.91 11.45-3.95 2.84-11.34 5.54-16.99 5.04-5.69-0.83-13.43-5.3-16.7-9.22-3.42-4-3.74-10.01-3.06-13.75 0.65-3.64 3.09-6.48 7.2-8.25-1.76 0-2.84-0.64-3.1-2.08-0.36-1.55 0.07-3.53 1.3-6.484-1.15 0.468-2.74 0.904-4.9 1.294-2.12 0.4-6.12 1.23-7.95 1.12-2.02-0.18-2.38-0.65-3.6-2.09-1.3-1.476-2.49-3.78-3.86-6.768 2.13-0.936 4.61-2.34 7.46-4.212 2.88-1.908 5.86-4.284 9.5-7.128-1.73 1.296-4 2.484-6.95 3.42-3.02 0.9-7.92 1.836-10.8 2.232-2.91 0.324-5.15 0.144-6.41-0.144-1.26-0.36-1.22-1.332-1.29-1.944-0.25-0.756-0.25-1.512 0-2.412-1.19 0.144-2.56 0.288-4.11 0.144-1.61-0.108-4.21-0.324-5.4-0.792-1.26-0.54-1.94-1.296-2.05-2.412-0.32-1.332 0.76-2.988 0.76-4.536 0-1.475-0.25-2.988-0.75-4.391z"/>
	<path id="path137" style="fill-rule:evenodd;fill:white" d="m327.2 69.641c6.38-1.116 11.24-2.088 15.16-2.916 3.74-0.864 6.08-1.62 7.7-2.412 1.55-0.936 2.06-2.232 1.8-2.772-0.39-0.576-1.65-0.612-3.34-0.648-1.77-0.216-3.86-0.324-6.66-0.468 3.88 0.504 5.97 1.044 6.66 1.62 0.57 0.504-0.08 0.72-3.06 1.62-3.14 0.828-10.37 2.124-15.2 3.204-4.96 0.936-10.33 1.98-13.86 2.592-3.56 0.468-5.83 0.684-7.2 0.504-1.47-0.288-0.79-0.936-1.29-1.8-0.61-0.936-3.39-2.16-2.05-3.384 1.15-1.296 5.61-2.7 9.5-4.356 3.89-1.8 8.39-3.42 13.64-5.832 5.22-2.484 14.48-5.508 17.21-8.64 2.52-3.312-1.04-7.92-1.8-10.332-0.79-2.484-3.49-2.988-2.84-4.032 0.47-1.044 2.48-1.152 6.19-2.268 3.64-1.26 10.84-3.384 16.2-4.716 5.44-1.368 10.87-2.988 15.91-3.06 4.93-0.072 9.9 0.864 13.36 2.124 3.27 1.008 4.71 1.584 6.69 4.356s3.57 8.208 4.9 12.276c1.04 4.032 1.73 8.46 2.05 11.484 0.4 2.772 0.43 4.788 0.25 5.652 1.98-0.9 3.86-1.332 6.16-1.152 2.12 0.036 5.22 1.008 6.95 1.944 1.73 0.9 3.02 2.088 3.34 3.42 0.15 1.116-1.51 2.268-2.05 3.852-0.5 1.656-0.61 3.96-1.29 5.652-0.83 1.584-2.63 2.304-3.6 3.564-1.01 1.044-1.41 2.664-2.31 3.06-0.94 0.252-2.27-0.72-3.6-1.116-1.44-0.576-3.02-1.44-4.89-1.62-2.02-0.252-5.91 0.288-6.95 0.648-1.12 0.36-0.47 1.26 0.29 1.44 0.68 0.108 2.98-1.08 3.85-0.792 0.79 0.144 1.08 1.116 1.01 2.088-0.29 0.936-1.44-0.288-2.06 3.564-0.68 3.78-1.47 13.428-1.8 19.221-0.36 5.65 0.58 9.54-0.25 14.73-0.94 5.11-2.2 12.2-5.15 15.84-3.09 3.6-8.53 5.43-13.1 5.65-4.79-0.07-11.02-2.2-14.65-4.86-3.64-2.7-6.09-7.13-6.66-10.51-0.54-3.46 1.58-6.95 3.31-9.51 1.62-2.52 3.64-4.35 6.19-5.51-2.19 0.36-3.56-0.07-4.1-1.29-0.58-1.3-0.33-3.35 0.75-6.301l4.11-2.412 5.65-5.04c-3.27 2.088-6.19 3.708-8.75 4.86-2.7 1.116-4.35 1.44-6.91 1.944-2.74 0.36-6.59 0.9-8.5 0.648-1.87-0.324-1.61-1.404-2.3-2.412-0.72-1.152-1.62-2.304-2.3-3.888 2.87-1.368 6.04-3.348 9.5-5.652 3.49-2.448 8.42-6.372 11.05-8.568 2.45-2.304 1.84-2.988 3.86-4.536 1.94-1.584 4.64-3.204 7.95-4.86-3.2 0.756-6.41 1.548-10.01 2.772-3.64 1.152-6.94 2.772-11.3 4.032-4.5 1.152-10.44 2.304-14.91 3.06-4.53 0.684-8.81 1.116-11.59 1.152-2.77-0.144-4.06-0.504-4.86-1.476-0.9-1.08-0.28-3.276-0.25-4.5-0.03-1.332 0.15-2.124 0.25-2.916 0.04-0.793 0.04-1.512 0-2.016z"/>
	<path id="path139" style="fill-rule:evenodd" d="m410.18 71.656c-0.54-1.26-1.29-4.284-0.75-6.156 0.43-1.944 2.84-4.86 3.35-5.148 0.32-0.288-1.37 2.448-1.05 3.06 0.29 0.36 1.33-0.072 2.59-0.324 1.08-0.36 3.89-1.584 4.11-1.296 0.03 0.288-2.38 1.764-3.35 3.06-1.08 1.332-2.16 2.736-2.56 4.212-0.39 1.224 0.26 2.952 0 3.384-0.46 0.469-1.8 0.253-2.34-0.792z"/>
	<path id="path141" style="fill-rule:evenodd;fill:white" d="m338.26 82.637c4.06-0.432 7.74-0.972 11.3-1.764 3.46-0.792 6.66-2.088 9.76-2.916 3.06-0.936 5.97-1.8 8.74-2.592-1.36 0.9-2.73 1.872-4.64 2.916-1.94 1.116-3.71 2.196-6.41 3.384-2.77 0.936-6.95 2.232-9.75 2.916-2.88 0.612-5.48 0.936-6.95 0.972-1.48-0.144-1.84-0.468-2.05-0.972-0.36-0.504-0.36-1.152 0-1.944z"/>
	<path id="path143" style="fill-rule:evenodd" d="m360.92 36.824c8.95 0 16.2 3.774 16.2 8.424s-7.25 8.424-16.2 8.424c-8.94 0-16.2-3.774-16.2-8.424s7.26-8.424 16.2-8.424"/>
	<path id="path145" style="fill-rule:evenodd;fill:white" d="m360.44 39.537c6.96 0 12.6 2.935 12.6 6.552s-5.64 6.552-12.6 6.552c-6.95 0-12.6-2.936-12.6-6.552s5.65-6.552 12.6-6.552"/>
	<path id="path147" style="fill-rule:evenodd" d="m358.28 45.021c1.83 0 3.32 0.693 3.32 1.548s-1.49 1.548-3.32 1.548c-1.82 0-3.31-0.693-3.31-1.548s1.49-1.548 3.31-1.548"/>
	<path id="path149" style="fill-rule:evenodd" d="m331.16 36.345c8.95 0 16.2 3.773 16.2 8.424 0 4.65-7.25 8.424-16.2 8.424-8.94 0-16.2-3.774-16.2-8.424 0-4.651 7.26-8.424 16.2-8.424"/>
	<path id="path151" style="fill-rule:evenodd;fill:white" d="m330.44 39.057c6.96 0 12.6 2.935 12.6 6.552s-5.64 6.552-12.6 6.552c-6.95 0-12.6-2.936-12.6-6.552s5.65-6.552 12.6-6.552"/>
	<path id="path153" style="fill-rule:evenodd" d="m328.4 44.577c1.83 0 3.32 0.677 3.32 1.512s-1.49 1.512-3.32 1.512-3.31-0.678-3.31-1.512 1.49-1.512 3.31-1.512"/>
	<path id="path155" style="fill-rule:evenodd" d="m360.86 37.42c0-1.404 0.9-2.7 3.1-4.032 2.05-1.44 5.22-2.556 9.5-3.888-2.91 0.972-4.96 2.268-6.44 3.744-1.48 1.44-2.2 3.204-2.3 5.148l-3.86-0.972z"/>
	<path id="path157" style="fill-rule:evenodd" d="m369.61 38.896c0.94-1.764 2.34-2.772 4.36-3.42 2.01-0.54 4.35-0.72 7.45-0.144-3.06 0.18-5.15 0.9-6.7 1.764-1.54 0.972-2.26 2.088-2.3 3.744l-2.81-1.944z"/>
	<path id="path159" style="fill-rule:evenodd" d="m323.6 37.42c-0.86-0.828-1.26-1.584-1.04-2.412 0.11-0.828 0.79-1.692 2.05-2.592-0.36 0.9-0.36 1.764 0 2.592 0.36 0.792 1.01 1.548 2.09 2.268l-3.1 0.144z"/>
	<path id="path161" style="fill-rule:evenodd" d="m331.56 37.097c-1.01-0.432-1.3-0.972-1.01-1.764 0.25-0.792 1.19-1.764 2.81-2.916-0.25 0.828-0.29 1.584-0.25 2.412 0 0.72 0.21 1.476 0.5 2.268h-2.05z"/>
	<path id="path163" style="fill-rule:evenodd" d="m379.37 57.437c0.5-0.144-2.27-1.692-3.6-2.268-1.44-0.792-3.67-1.656-4.9-1.62-1.44 0.036-3.02 1.656-2.81 2.088 0.18 0.252 2.42 0.036 4.36 0.324 1.8 0.324 6.34 1.512 6.95 1.476z"/>
	<path id="path165" style="fill-rule:evenodd" d="m330.26 21.904c2.27-1.512 6.09-2.916 11.6-4.5 5.54-1.656 14.18-4.068 21.06-4.86 6.73-0.828 12.92-0.828 19.01 0-0.76-2.664-1.95-4.572-3.86-6.156-1.9-1.584-4.39-2.556-7.45-3.06 2.2-1.62 5.18-2.772 9.25-3.06 3.96-0.468 10.66-0.396 14.65 0.792 3.86 1.116 6.63 3.816 8.75 6.3 1.98 2.52 3.32 5.148 3.6 8.424 0.87-0.864 1.55-2.268 2.06-4.356 0.43-2.124 0.68-4.68 0.75-7.956 4.79 1.764 8.64 3.924 11.85 6.48 3.09 2.448 6.04 5.22 6.91 8.748 0.72 3.528-1.3 8.82-2.31 12.276-1.19 3.384-2.37 5.832-4.1 7.74 2.73 0.36 4.14 1.296 4.35 3.096 0.15 1.728-1.94 4.788-3.34 7.236-1.52 2.232-3.35 4.392-5.66 6.48-2.62-0.396-4.71-0.504-6.4-0.324-1.7 0.144-2.85 0.576-3.6 1.296l-3.35-5.328c1.19 2.304 1.15 5.256-0.25 8.568-1.52 3.42-4.11 7.056-8.21 11.484-1.12-0.504-1.95-1.476-2.34-2.916-0.47-1.476-0.51-3.42-0.25-5.832 0 2.52-0.69 4.68-2.06 6.48-1.36 1.8-3.42 3.096-6.15 4.176 0.86-1.368 0.9-3.6 0.5-7.092-0.5-3.636-3.89-9.972-3.35-13.572 0.44-3.6 4.25-5.112 5.91-7.452 1.47-2.448 3.56-4.428 3.35-6.624-0.29-2.124-2.24-4.14-4.86-6.444-2.74-2.484-6.52-6.336-11.34-8.244-4.97-1.98-12.53-2.988-17.97-3.42-5.54-0.432-10.15 0.108-14.65 0.504-4.5 0.181-8.53 0.685-12.1 1.116z"/>
	<path id="path167" style="fill-rule:evenodd;fill:white" d="m349.02 17.873c7.67-1.908 14.47-3.096 20.84-3.564 6.31-0.54 11.78-0.324 16.71 0.504 0.21-2.088-0.18-3.744-1.05-5.508-0.97-1.728-2.7-3.744-4.35-4.68-1.66-0.972-3.46-1.584-5.4-1.44 3.24-0.828 6.19-1.116 9-1.152 2.74 0 5.04 0.252 7.45 1.152 2.31 0.792 4.9 1.8 6.66 3.852 1.73 2.016 2.88 5.544 3.6 8.1 0.65 2.448 0.69 4.608 0.25 6.624 3.32-1.944 5.58-3.78 7.2-5.652 1.55-2.088 1.69-3.744 2.09-5.508 0.33-1.692 0.18-3.096-0.29-4.356 4.5 1.8 7.89 3.744 10.3 6.12 2.41 2.196 3.56 4.284 3.85 7.776 0.07 3.6-1.48 9.504-2.84 13.248-1.44 3.528-3.1 6.228-5.36 8.1 2.34-1.26 3.74-1.584 4.6-0.972 0.79 0.612 0.79 2.016 0 4.5-0.97 2.412-2.81 5.652-5.65 9.864-1.62-0.18-3.2-0.18-4.61-0.144-1.51 0.036-2.84 0.144-4.14 0.324 0.22-0.828-0.25-1.908-1.26-3.24-1.04-1.368-2.63-2.988-4.89-4.86 0.93 1.764 1.19 3.924 0.75 6.624-0.5 2.772-2.62 6.876-3.6 9.396-1.04 2.304-1.94 3.708-2.56 4.356-0.53-1.332-0.93-2.844-1.04-4.536-0.18-1.764-0.18-3.708 0-5.832-1.36 1.44-2.34 2.844-3.06 4.212-0.72 1.26-0.5 2.412-1.29 3.888-0.94 1.44-2.09 2.952-3.86 4.68 0.79-1.944 0.87-4.248 0.51-6.768-0.51-2.592-3.24-6.048-3.06-8.568 0.07-2.628 2.23-4.068 3.85-6.804 1.44-2.808 5.36-7.02 5.4-9.864-0.15-2.916-2.45-4.788-5.4-7.416-3.06-2.772-8.25-6.696-12.35-8.568-4.14-1.836-7.56-2.232-12.06-2.736-4.61-0.72-9.4-1.008-14.94-1.152z"/>
	<path id="path169" style="fill-rule:evenodd" d="m403.02 28.061c2.95-0.504 5.51-1.836 7.96-3.708 2.37-1.908 4.46-4.644 6.4-7.92 0.47 2.556 0.65 5.04 0.54 7.74-0.18 2.628 0.04 5.472-1.29 8.1-1.33 2.52-3.57 4.788-6.7 6.948 1.41-1.8 2.52-3.96 3.35-6.48 0.83-2.592 1.3-5.4 1.55-8.712-2.05 2.88-3.89 4.608-5.9 5.328-2.06 0.612-3.89 0.18-5.91-1.296z"/>
	<path id="path171" style="fill-rule:evenodd" d="m307.19 135.41c-1.8 0.4-1.8 0.4 0 0 1.73-0.47 6.55-0.18 10.58-2.48 3.96-2.41 8.5-7.89 13.03-11.56 4.36-3.81 7.82-10.26 13.29-10.58 5.47-0.33 11.7 2.63 19.22 8.85 2.02 3.53 6.23 5.55 12.78 5.91 6.52 0.25 18.04-4.03 26.1-3.67 8.1 0.39 16.42 3.2 21.64 5.9 5.04 2.59 7.74 5.87 8.39 9.83l0.46 21.27-82.65 20.78c-1.94-4.29-3.64-7.89-4.93-10.8-1.37-3.03-2.49-5.19-3.21-6.88 0.94-4.9 0.94-8.5 0-11.09-1.08-2.66-1.8-4.1-5.9-4.17-4.18 0-10.44 1.22-18.94 3.96-1.29-2.38-2.7-4.9-4.35-7.42-1.77-2.52-3.42-5.18-5.51-7.85z"/>
	<path id="path173" style="fill-rule:evenodd;fill:white" d="m310.39 137.36c1.95-0.11 3.75 0.79 5.4 2.7 1.62 1.94 3.1 4.64 4.43 8.64 5.04-2.13 9.5-3.32 13.54-3.71 3.92-0.43 8.92-1.84 10.58 1.22 1.58 2.99 1.44 8.39-0.72 16.49 0.94 1.37 1.62 2.88 2.2 4.93 0.39 1.95 0.39 5.08 0.97 6.91 0.54 1.77 1.37 2.92 2.48 3.6l80.03-19.62c1.73-4.6 2.34-9.03 1.69-13.28-0.79-4.39-1.91-9-5.69-12.31-3.81-3.42-10.22-6.84-16.74-7.63-6.55-0.9-16.23 2.08-22.39 2.7-6.3 0.61-10.12 2.16-14.76 0.75-4.72-1.58-8.82-7.67-13.28-10.08-4.61-2.59-9.58-5.25-13.79-4.68-4.32 0.61-7.85 5.11-11.56 8.35-3.81 3.1-7.41 7.74-11.09 10.34-3.77 2.52-7.45 4.03-11.3 4.68z"/>
	<path id="path175" style="fill-rule:evenodd" d="m291.1 159.42l-5.58-0.9c0.9-3.63 3.16-6.73 6.66-9.57 3.49-2.92 9.03-5.98 14.25-7.38 5.22-1.48 10.91-1.62 16.49-1.01 5.44 0.58 11.99 2.09 15.77 4.68 3.53 2.52 5.22 7.52 5.9 10.58 0.69 2.99 0.11 5.4-1.73 7.38l-2.7-1.98c0.98-3.06 0.69-5.72-0.86-8.13-1.73-2.41-4.86-5.04-8.71-6.34-3.89-1.47-9.87-1.98-14.19-1.94-4.46-0.07-8.28 0.39-11.98 1.94-3.82 1.59-8.07 5.01-10.26 7.2-2.27 2.09-3.24 3.96-3.06 5.47z"/>
	<path id="path177" style="fill-rule:evenodd" d="m296.89 138.44c-2.48-0.8-4.53-0.87-6.3-0.22-1.87 0.5-4.39 1.19-4.07 3.85 0.29 2.63 3.89 8.68 6.09 12.17 2.19 3.38 4.43 6.55 6.98 8.1 2.45 1.44 6.05 1.04 7.89 0.47 1.72-0.79 2.62-2.13 2.7-4.54 1.04 0.69 2.23 0.97 3.85 1.15 1.55 0.15 3.85-0.1 5.4-0.46 1.33-0.51 2.59-1.44 2.95-2.24 0.4-0.86-0.04-1.72-0.9-2.73 2.27 1.29 4.25 1.98 6.08 2.05 1.84-0.04 3.61-0.68 4.72-1.8 0.9-1.15 2.02-2.95 1.12-4.97-1.05-2.09-5.76-5.04-6.77-7.45-1.08-2.48 1.51-5 0.68-7.42-0.9-2.55-3.49-6.26-5.83-7.23-2.52-1.01-6.98 0.54-8.82 1.58-1.94 0.94-2.77 2.41-2.48 4.29-2.59-2.2-5.04-2.67-7.2-1.8-2.27 0.93-4.25 3.2-6.09 7.2z"/>
	<path id="path179" style="fill-rule:evenodd;fill:white" d="m319.64 128.32c-1.94-0.14-5.43 0.97-6.73 2.23-1.33 1.15-1.33 2.31-0.68 4.97 0.68 2.59 2.95 7.74 4.71 10.58 1.62 2.74 3.57 4.32 5.44 5.87 1.91 1.48 3.92 2.95 5.62 2.92 1.62-0.22 3.56-2.09 3.6-3.82-0.22-1.87-3.14-5.54-4.29-6.98-1.19-1.44-1.51-1.51-2.48-2.02-1.12-0.72-3.81-1.37-3.81-1.8-0.11-0.29 2.8 0.25 3.6-0.47 0.75-1.04 1-3.49 0.9-4.96-0.18-1.52-0.83-2.74-1.81-3.82-1.04-1.19-2.3-2.59-4.07-2.7z"/>
	<path id="path181" style="fill-rule:evenodd;fill:white" d="m308.84 133.72c-2.05-1.15-3.88-1.26-5.65-0.47-1.8 0.79-4.39 2.85-4.71 5.19-0.36 2.23 1 5.76 2.7 8.35 1.54 2.52 4.64 4.82 6.76 6.77 1.88 1.98 3.53 3.85 5.4 4.5 1.95 0.36 4.76-1.01 6.09-1.59 1.11-0.54 1.11-0.79 1.11-1.58 0-0.94-0.25-1.87-0.9-3.35-2.12-2.52-4.06-5.18-5.83-8.14-1.83-3.02-3.49-6.15-4.97-9.68z"/>
	<path id="path183" style="fill-rule:evenodd;fill:white" d="m297.11 140.92c-2.38-1.15-4.11-1.48-5.62-1.12-1.62 0.33-3.27 1.19-3.17 3.17 0.11 1.8 2.63 5.65 4.07 8.1 1.37 2.45 2.52 4.68 4.29 6.55 1.76 1.84 3.99 3.5 5.86 4.29 1.73 0.61 3.21 0.07 4.29-0.25 0.79-0.36 1.04-1.26 1.33-2.02 0.25-0.9 0.61-1.91 0.68-3.17-3.16-1.8-5.72-3.92-7.66-6.51-2.02-2.67-3.28-5.55-4.07-9.04z"/>
	<path id="path185" style="fill-rule:evenodd" d="m155.59 163.1c3.53-10.52 7.89-21.75 13.21-34.38 5.33-12.64 11.31-26 18.47-40.755 21.17 0.108 46.05 0.684 75.89 1.872 29.92 1.08 63.29 2.772 101.92 4.932-1.08 14.541-2.38 28.191-4.18 41.901-1.84 13.61-3.92 26.46-6.41 39.24-7.38 1.84-12.49 3.42-15.48 4.9-2.99 1.51-3.74 2.59-2.27 3.78-10.62-3.57-23.4-6.41-38.88-8.68-15.73-2.3-36-3.24-53.56-4.89-17.57-1.84-35.68-3.93-50.58-5.3-14.91-1.36-27.44-2.19-38.13-2.62zm15.09-12.1l20.77-52.092 162.29 2.662-13.58 63.76-169.48-14.33z"/>
	<path id="path187" style="fill-rule:evenodd;fill:white" d="m159.01 161.4c1.98-5.25 4.65-12.02 8.14-20.7 3.42-8.82 8.85-22.6 12.56-31.06 3.67-8.43 6.88-14.584 9.61-18.868 16.13 0.324 37.98 0.864 66.96 1.476 29.02 0.612 63.54 1.296 105.38 2.196-11.92 0.288-24.88 0.792-39.57 1.116-14.9 0.288-32.4 0.792-48.06 1.116-15.69 0.288-30.71 0.684-44.75 0.756-13.96 0-26.6-0.252-38.48-0.756l-23.65 56.594c24.66 1.58 47.34 3.31 69.15 5.18 21.78 1.91 42.84 4.25 60.66 5.91 17.64 1.51 32.37 2.62 44.75 3.34l15.16-68.432c-16.45 0.144-30.67 0.144-43.64 0-12.95-0.216-23.83-0.54-33.29-1.116 18.35-0.792 33.04-1.332 44.74-1.476 11.6-0.18 18.33 0.072 24.77 0.36 6.37 0.18 10.77 0.432 13.32 0.756l-10.73 77.648-14.79 4.83c0.25 1.19-0.29 2.05-1.48 2.19-1.19 0.22 0.03 0-5.9-1.08-6.16-1.26-15.84-4.28-30.71-6.3-15.12-2.12-40.29-4.5-58.43-6.3-18.14-1.87-35.86-3.6-49.54-4.78-13.71-1.26-24.29-2.13-32.18-2.6z"/>
	<path id="path189" style="fill-rule:evenodd" d="m415.94 124.83c5.51 0.14 9.8 1.65 13 4.53s5.33 7.17 5.98 12.57c0.39 5.33-3.82 12.17-2.92 19.15 0.94 6.88 7.52 17.21 8.24 21.85 0.47 4.39-3.42 2.59-4.71 5.15-1.3 2.59-0.11 9.25-2.7 10.12-2.85 0.57-7.17-7.06-12.96-5.8-5.76 1.26-12.71 5.8-21.24 13.61v-5.98c-2.85-0.18-6.16 0.65-10.08 2.49-4.07 1.9-9.25 6.19-13.61 8.42-4.35 2.09-10.08 4.07-12.17 3.71-2.09-0.61-2.27-2.74-0.39-6.81-4.9 1.77-7.67 1.84-8.46 0.22-0.8-1.69 0.39-5 3.7-10.08-3.99 0.04-6.11-0.72-6.37-2.27-0.29-1.62 1.52-5.07 4.72-7.02 3.09-2.01 7.78-3.49 14.04-4.71-5.51-1.19-8.93-2.85-10.12-4.97-1.29-2.23 0.15-8.03 2.67-7.81 2.52 0.21 7.27 7.7 12.16 9.25 4.76 1.47 10.08 1.29 16.28-0.4l-3.28-5.36c3.89-3.78 7.89-5.98 12.56-6.59 4.61-0.72 12.75 4 14.84 2.88 1.9-1.15-2.09-4.64-3.1-9.5-1.12-5.01-2.02-11.63-3.1-20.16 2.34-5.48 4.68-10.98 7.02-16.49z"/>
	<path id="path191" style="fill-rule:evenodd;fill:white" d="m390.6 174.69c3.13 1.87 5.58 5.22 7.2 9.9 1.62 4.71 2.45 10.65 2.48 18.11 3.82-4.07 7.31-6.95 10.91-9.04 3.53-2.16 6.77-3.46 10.12-3.31 3.24 0.11 7.59 4.39 9.47 4.1 1.69-0.47 0.1-4.28 1.22-6.15 1.15-1.91 5.4-2.42 5.8-4.97 0.25-2.74-2.38-7.35-3.71-10.91-1.37-3.67-4.21-5.36-4.36-10.51-0.25-5.33 3.96-15.19 3.31-20.41-0.75-5.22-3.99-8.46-7.19-10.7-3.35-2.41-8.86-4.06-11.96-3.31-3.06 0.76-5.72 5.37-6.19 7.85-0.54 2.3 2.49 3.85 3.1 6.16 0.43 2.23-0.15 4.14 0.22 7.23 0.39 3.06 1.15 7.35 2.26 10.91 0.94 3.49 2.24 6.91 3.89 9.68 1.69 2.63 5.8 5.48 5.8 6.2-0.29 0.57-4.18-1.48-6.81-2.27-2.66-0.9-5.61-2.05-8.85-2.49-3.32-0.5-7.99-0.43-10.73 0.22-2.81 0.68-4.76 1.87-5.98 3.71z"/>
	<path id="path193" style="fill-rule:evenodd;fill:white" d="m391.64 182.1c0.26 1.16 0.87 3.03 1.84 5.76 0.94 2.74 2.12 6.2 3.71 10.52-4.65 0.32-8.86 1.44-13.18 3.49s-8.96 6.59-12.38 8.46c-3.53 1.69-7.02 2.27-8.25 1.87-1.26-0.54-0.28-2.77 0.83-4.36 1.05-1.58 2.95-3.06 5.58-4.71-4.79 2.12-8.17 3.24-10.29 3.49-2.2 0.14-2.56-0.68-2.49-2.05 0-1.44 0.61-4.43 2.67-6.19 2.05-1.8 4.96-3.42 9.28-4.72-7.02 2.05-11.44 2.74-13.82 2.45-2.3-0.58-1.8-2.99 0-4.72 1.66-1.69 6.62-3.81 9.9-4.97 3.1-1.18 6.05-1.87 8.86-2.05-3.78-0.75-6.74-1.76-8.86-2.88-2.12-1.15-3.56-2.59-3.92-3.92-0.47-1.55-0.15-4.68 1.26-4.54 1.33 0.11 4.53 3.71 6.98 5.37 2.23 1.62 4.64 3.13 7.24 4.1 2.59 0.76 6.12 0.9 8.64 0.83 2.48-0.11 4.57-0.47 6.4-1.23z"/>
</g>
<metadata><rdf:RDF><cc:Work><dc:format>image/svg+xml</dc:format><dc:type rdf:resource="http://purl.org/dc/dcmitype/StillImage"/><cc:license rdf:resource="http://creativecommons.org/licenses/publicdomain/"/><dc:publisher><cc:Agent rdf:about="http://openclipart.org/"><dc:title>Openclipart</dc:title></cc:Agent></dc:publisher><dc:title>Boy Driving Car Cartoon</dc:title><dc:date>2010-04-20T18:30:33</dc:date><dc:description/><dc:source>https://openclipart.org/detail/49105/boy-driving-car-cartoon-by-gerald_g-49105</dc:source><dc:creator><cc:Agent><dc:title>Gerald_G</dc:title></cc:Agent></dc:creator><dc:subject><rdf:Bag><rdf:li>boy</rdf:li><rdf:li>car</rdf:li><rdf:li>cartoon</rdf:li><rdf:li>man</rdf:li><rdf:li>people</rdf:li><rdf:li>transportation</rdf:li></rdf:Bag></dc:subject></cc:Work><cc:License rdf:about="http://creativecommons.org/licenses/publicdomain/"><cc:permits rdf:resource="http://creativecommons.org/ns#Reproduction"/><cc:permits rdf:resource="http://creativecommons.org/ns#Distribution"/><cc:permits rdf:resource="http://creativecommons.org/ns#DerivativeWorks"/></cc:License></rdf:RDF></metadata></svg>
