<?xml version="1.0" encoding="UTF-8" standalone="no"?>
<!-- Created with Inkscape (http://www.inkscape.org/) -->

<svg
   xmlns:dc="http://purl.org/dc/elements/1.1/"
   xmlns:cc="http://creativecommons.org/ns#"
   xmlns:rdf="http://www.w3.org/1999/02/22-rdf-syntax-ns#"
   xmlns:svg="http://www.w3.org/2000/svg"
   xmlns="http://www.w3.org/2000/svg"
   xmlns:sodipodi="http://sodipodi.sourceforge.net/DTD/sodipodi-0.dtd"
   xmlns:inkscape="http://www.inkscape.org/namespaces/inkscape"
   id="Layer_1"
   xml:space="preserve"
   version="1.0"
   viewBox="0 0 497.42009 556.83259"
   inkscape:version="0.92.3 (2405546, 2018-03-11)"
   sodipodi:docname="Gerald-G-Cartoon-Cat-Sitting-1.adapted.svg"
   width="497.4201"
   height="556.83258"><defs
   id="defs126" /><sodipodi:namedview
   pagecolor="#ffffff"
   bordercolor="#666666"
   borderopacity="1"
   objecttolerance="10"
   gridtolerance="10"
   guidetolerance="10"
   inkscape:pageopacity="0"
   inkscape:pageshadow="2"
   inkscape:window-width="2560"
   inkscape:window-height="1373"
   id="namedview124"
   showgrid="false"
   fit-margin-top="30"
   fit-margin-left="30"
   fit-margin-right="30"
   fit-margin-bottom="30"
   inkscape:zoom="1.9000272"
   inkscape:cx="226.55233"
   inkscape:cy="351.26484"
   inkscape:window-x="-9"
   inkscape:window-y="-9"
   inkscape:window-maximized="1"
   inkscape:current-layer="g5" />
<g
   id="g5"
   transform="translate(29.999186,30.000474)">
	<path
   id="path7"
   style="fill-rule:evenodd;stroke:#000000;stroke-width:0.036;stroke-miterlimit:10"
   d="m 437.32,264.59 c -1.29,-13.92 -11.99,-26.82 -21.4,-37.65 -9.54,-10.83 -21.54,-22.69 -35.2,-26.69 -13.54,-3.74 -35.2,-3.35 -45.91,3.61 -10.57,7.22 -12.89,26.95 -17.15,38.56 -4.12,11.6 -3.48,21.66 -7.48,30.43 -4.12,8.64 -10.57,15.73 -16.89,21.4 -6.44,5.54 -16.24,11.22 -23.98,13.54 4.51,4.25 7.74,10.19 9.16,17.79 1.41,7.48 1.15,16.25 -0.78,26.82 18.96,-7.86 33.53,-17.79 44.23,-30.3 10.44,-13.15 12.89,-30.95 18.83,-44.36 5.67,-13.4 8.51,-27.97 15.98,-33.78 7.35,-5.8 19.99,-4.9 27.99,-0.26 7.08,4.52 12.11,20.38 18.04,27.21 6.19,6.71 12.26,9.93 18.7,11.61 0,-0.01 17.28,-4 15.86,-17.93 z"
   inkscape:connector-curvature="0" />
	<path
   id="path9"
   style="fill:#ffffff;fill-rule:evenodd;stroke:#000000;stroke-width:0.036;stroke-miterlimit:10"
   d="m 283.24,347.24 c 0,-7.35 -1.03,-13.92 -2.06,-20.24 -1.56,-6.58 -3.1,-11.99 -5.68,-17.67 l 7.86,-3.47 c 5.16,2.19 9.68,5.54 14.06,9.54 4.12,4.25 7.74,8.51 10.83,14.69 -3.35,2.71 -6.83,5.55 -10.96,8.51 -4.38,2.58 -8.9,5.94 -14.05,8.64 z"
   inkscape:connector-curvature="0" />
	<path
   id="path11"
   style="fill:#ffffff;fill-rule:evenodd;stroke:#000000;stroke-width:0.036;stroke-miterlimit:10"
   d="m 310.96,326.48 c -1.42,-3.09 -4.13,-6.7 -8.12,-10.31 -4.26,-3.87 -9.29,-7.74 -16.12,-12.12 1.93,-1.03 3.22,-2.71 4.9,-3.61 1.16,-1.55 2.7,-2.32 3.61,-3.74 3.35,-1.03 6.96,-0.9 10.83,-1.03 3.48,-0.13 8.12,-0.26 11.99,1.16 4,1.03 7.35,2.96 11.09,5.8 -2.32,5.42 -4.9,9.93 -7.74,14.05 -3.22,4 -6.7,7.1 -10.44,9.8 z"
   inkscape:connector-curvature="0" />
	<path
   id="path13"
   style="fill:#ffffff;fill-rule:evenodd;stroke:#000000;stroke-width:0.036;stroke-miterlimit:10"
   d="m 330.56,297.6 c 0.9,-2.58 1.68,-4.77 2.84,-7.99 1.03,-3.35 2.44,-6.32 3.73,-10.32 -3.09,-0.39 -6.83,-1.03 -11.21,-0.51 -4.65,0.38 -9.8,0.51 -16,1.8 -1.8,2.71 -3.73,5.16 -5.28,7.35 -1.8,1.94 -3.48,3.61 -5.03,5.03 5.67,-1.42 10.7,-1.94 16.12,-1.03 5.29,0.64 10.06,2.71 14.83,5.67 z"
   inkscape:connector-curvature="0" />
	<path
   id="path15"
   style="fill:#ffffff;fill-rule:evenodd;stroke:#000000;stroke-width:0.036;stroke-miterlimit:10"
   d="m 312.25,276.59 c 2.97,-1.04 6.45,-1.55 10.96,-1.55 4.12,-0.13 9.28,0.25 14.96,1.16 l 2.83,-8 c -2.58,-4.38 -5.67,-7.99 -9.28,-11.34 -3.87,-3.49 -7.74,-6.19 -12.64,-8.64 -1.16,6.83 -2.06,12.38 -3.22,17.15 -1.29,4.64 -2.32,8.38 -3.61,11.22 z"
   inkscape:connector-curvature="0" />
	<path
   id="path17"
   style="fill:#ffffff;fill-rule:evenodd;stroke:#000000;stroke-width:0.036;stroke-miterlimit:10"
   d="m 342.42,263.56 c -1.55,-3.35 -4,-6.45 -7.35,-9.8 -3.61,-3.48 -8.13,-6.7 -13.54,-10.18 0.77,-6.32 2.32,-11.22 3.23,-15.22 1.28,-4.13 1.93,-6.83 3.35,-8.64 4.64,2.58 8.77,6.45 12.38,11.6 3.6,5.16 6.31,10.84 8.63,18.44 -0.9,1.68 -2.06,4.13 -2.96,6.32 -1.16,2.06 -2.58,4.9 -3.74,7.48 z"
   inkscape:connector-curvature="0" />
	<path
   id="path19"
   style="fill:#ffffff;fill-rule:evenodd;stroke:#000000;stroke-width:0.036;stroke-miterlimit:10"
   d="m 352.35,243.83 c -0.9,-5.16 -2.97,-10.05 -6.71,-14.7 -4.12,-4.77 -8.64,-9.28 -15.47,-13.54 0.39,-3.74 2.06,-6.57 5.54,-8.51 3.36,-2.32 8,-3.61 14.45,-4.38 5.03,3.22 8.76,7.48 10.7,13.28 1.93,5.67 2.19,12.76 0.77,21.28 -2.45,0.64 -4.39,1.54 -5.8,2.7 -1.68,1.03 -2.84,2.32 -3.48,3.87 z"
   inkscape:connector-curvature="0" />
	<path
   id="path21"
   style="fill:#ffffff;fill-rule:evenodd;stroke:#000000;stroke-width:0.036;stroke-miterlimit:10"
   d="m 364.73,235.97 c 0,-0.52 1.15,-0.91 2.96,-0.65 1.68,0 4.52,0.13 8,0.9 1.93,-5.54 3.99,-10.44 7.22,-14.7 2.96,-4.38 6.57,-8.12 10.83,-11.21 -5.03,-2.97 -8.9,-4.9 -13.54,-6.32 -4.51,-1.68 -9.28,-1.68 -12.9,-2.07 -3.73,-0.51 -7.22,-0.51 -9.92,0 3.22,3.49 6.06,7.87 7.09,13.67 1.41,5.81 1.03,12.12 0.26,20.38 z"
   inkscape:connector-curvature="0" />
	<path
   id="path23"
   style="fill:#ffffff;fill-rule:evenodd;stroke:#000000;stroke-width:0.036;stroke-miterlimit:10"
   d="m 379.68,237.64 c -0.26,-3.09 1.29,-6.7 4.13,-10.83 2.96,-4.25 6.7,-9.03 12.76,-14.31 4.65,3.61 7.87,6.7 10.71,9.28 2.7,2.58 4,4.13 4.9,5.68 -0.13,3.48 -0.9,6.83 -2.32,10.57 -1.94,3.87 -5.03,8.12 -7.22,11.35 -2.07,2.71 -4.39,4.12 -5.94,4.77 -2.57,-5.42 -5.28,-9.29 -8.12,-12.13 -2.84,-2.83 -5.8,-4.12 -8.9,-4.38 z"
   inkscape:connector-curvature="0" />
	<path
   id="path25"
   style="fill:#ffffff;fill-rule:evenodd;stroke:#000000;stroke-width:0.036;stroke-miterlimit:10"
   d="m 414.88,229.52 c 1.04,4.77 0.26,8.9 -2.32,13.8 -2.83,4.64 -7.48,9.02 -13.92,13.66 1.93,5.42 4.9,9.8 8.89,13.67 4.39,3.74 10.06,7.74 14.96,7.99 4,-0.9 9.16,-4.89 10.58,-9.53 1.41,-4.9 -0.65,-9.8 -3.23,-16.64 -3.35,-6.71 -7.86,-14.18 -14.96,-22.95 z"
   inkscape:connector-curvature="0" />
	<path
   id="path27"
   style="fill-rule:evenodd;stroke:#000000;stroke-width:0.036;stroke-miterlimit:10"
   d="m 410.5,212.5 c -1.68,0.77 -2.58,1.29 -4.12,2.96 -1.81,1.3 -4.39,4 -5.68,5.16 -1.55,0.65 -3.61,0.91 -2.71,-0.26 0.26,-1.67 3.61,-5.54 6.06,-7.6 2.46,-1.94 6.71,-5.29 8.77,-5.16 1.29,-0.39 2.2,1.94 1.68,2.97 -0.26,0.77 -3.1,0.77 -4,1.93 z"
   inkscape:connector-curvature="0" />
	<path
   id="path29"
   style="fill-rule:evenodd;stroke:#000000;stroke-width:0.036;stroke-miterlimit:10"
   d="m 416.17,217.53 c -1.15,0.39 -2.58,1.42 -3.74,2.58 -1.93,1.29 -3.61,3.48 -5.02,4.51 -1.29,0.39 -3.23,0.77 -2.33,-0.26 0.14,-1.29 3.1,-5.16 5.42,-6.7 2.06,-2.32 5.93,-4 7.61,-4.52 1.16,-0.12 1.67,1.42 1.55,2.58 -0.65,0.39 -2.46,1.16 -3.49,1.81 z"
   inkscape:connector-curvature="0" />
	<path
   id="path31"
   style="fill-rule:evenodd;stroke:#000000;stroke-width:0.036;stroke-miterlimit:10"
   d="m 330.3,318.23 c -1.03,-1.55 -2.19,-2.32 -3.48,-3.74 -1.94,-1.8 -4.65,-3.87 -5.67,-5.16 -1.03,-1.41 -1.68,-3.47 0,-2.7 1.28,0.39 5.67,2.83 8.25,5.28 2.32,2.19 5.15,6.06 6.06,8.13 0.38,1.54 -2.19,2.19 -2.84,1.93 -0.9,-0.52 -1.68,-2.57 -2.32,-3.74 z"
   inkscape:connector-curvature="0" />
	<path
   id="path33"
   style="fill-rule:evenodd;stroke:#000000;stroke-width:0.036;stroke-miterlimit:10"
   d="m 325.92,324.42 c -0.91,-1.42 -2.07,-2.06 -2.97,-3.35 -1.8,-1.55 -4,-3.23 -5.03,-4.51 -0.9,-1.29 -1.42,-3.1 0,-2.46 0.77,0.26 5.16,2.46 7.22,4.65 1.68,1.93 4.77,5.29 5.29,7.09 0.13,1.29 -1.68,2.06 -2.45,1.81 -0.9,-0.39 -1.42,-2.46 -2.06,-3.23 z"
   inkscape:connector-curvature="0" />
	<path
   id="path35"
   style="fill-rule:evenodd;stroke:#000000;stroke-width:0.036;stroke-miterlimit:10"
   d="m 147.46,246.15 c -13.28,-0.26 -24.37,3.23 -33.78,9.93 -9.67,6.71 -18.311,20.38 -22.952,30.05 -4.899,9.41 -7.221,17.4 -6.447,25.4 -11.347,0.77 -20.759,3.74 -29.271,8.89 -8.896,5.29 -17.02,12.26 -21.403,21.92 -4.127,9.42 -4.127,25.02 -2.966,34.82 1.159,9.41 5.803,14.57 8.896,21.4 2.708,6.58 4.384,11.74 6.448,16.89 -9.026,2.45 -14.958,5.29 -19.343,10.45 -3.996,4.77 -6.189,12.24 -6.06,17.92 -0.515,5.16 0.129,10.44 3.482,13.41 3.223,2.83 7.735,3.48 14.956,2.96 1.162,5.81 3.999,10.45 8.51,12.51 4.514,2.45 12.122,2.32 18.312,1.03 5.8,-1.67 11.475,-5.15 17.019,-10.44 1.546,4.64 3.353,8.9 5.931,11.35 2.193,2.83 5.029,3.87 8.509,4.51 3.479,0.52 7.609,-0.77 12.379,-2.45 -1.03,4.77 0.65,7.99 4.51,9.16 3.74,1.16 10.19,0.64 18.83,-1.55 1.8,7.99 6.45,11.99 13.93,12.5 7.6,0.13 22.56,-2.83 30.42,-9.92 7.48,-7.22 12.64,-17.67 14.96,-31.85 3.48,13.28 7.74,22.05 14.31,27.33 6.19,4.77 17.15,4.77 22.96,2.97 5.41,-1.81 8.89,-6.96 9.92,-14.44 5.81,5.67 11.61,7.99 16.9,7.48 5.15,-0.78 10.31,-4.9 14.95,-11.87 5.03,2.84 9.03,3.49 12.51,2.45 3.1,-1.29 5.54,-4.77 7.35,-9.93 8.64,9.93 16.12,14.57 21.92,15.35 5.67,0.39 10.19,-3.74 13.02,-12.38 11.35,0.39 17.67,-1.94 20.89,-7.48 2.71,-5.8 0.9,-18.56 -4,-25.4 -5.02,-7.09 -13.66,-12.38 -25.91,-16.38 19.6,-19.98 30.04,-36.1 32.36,-49.76 1.81,-13.67 -9.16,-24.63 -19.47,-31.34 -10.44,-7.09 -24.37,-10.57 -42.29,-10.44 2.71,-21.02 0.26,-37.4 -7.35,-50.16 -8,-12.64 -26.56,-20.63 -38.3,-25.4 -11.73,-5.03 -22.05,-6.84 -31.46,-4.9 z"
   inkscape:connector-curvature="0" />
	<path
   id="path37"
   style="fill:#ffffff;fill-rule:evenodd;stroke:#000000;stroke-width:0.036;stroke-miterlimit:10"
   d="m 121.16,257.63 c -5.29,2.32 -10.06,5.8 -13.8,9.41 -3.87,3.48 -7.09,7.48 -9.669,13.02 -3.094,5.42 -6.962,12.9 -8.638,19.99 -1.935,6.83 -2.579,13.8 -1.935,21.92 0.257,7.99 2.063,16.76 4.384,25.27 1.935,8.13 5.415,16.12 9.028,23.98 11.86,-12.5 18.44,-20.37 21.15,-25.52 2.32,-4.9 -3.36,-3.74 -6.58,-4 -3.48,-0.65 -8.25,-0.65 -14.31,0 4.25,-4.13 7.86,-7.09 11.34,-9.93 2.97,-2.97 8.64,-4.77 8.51,-6.45 -0.51,-1.8 -5.67,-2.45 -9.92,-3.48 -4.39,-1.54 -10.06,-3.22 -16.509,-5.03 6.059,-3.48 12.379,-5.8 18.959,-8.38 6.57,-2.83 18.82,-3.87 19.85,-6.06 0.39,-2.06 -10.7,-3.87 -15.86,-5.93 -5.41,-2.32 -10.57,-4.64 -15.99,-7.48 11.09,-2.58 19.09,-4.77 23.47,-7.99 4,-3.23 3.48,-6.71 2.96,-10.45 -0.9,-4 -2.57,-8.12 -6.44,-12.89 z"
   inkscape:connector-curvature="0" />
	<path
   id="path39"
   style="fill:#ffffff;fill-rule:evenodd;stroke:#000000;stroke-width:0.036;stroke-miterlimit:10"
   d="m 246.62,252.09 c 8.64,3.22 15.08,6.7 20.76,10.96 5.41,4.25 9.02,8.25 11.34,13.41 -13.66,5.8 -23.72,9.15 -30.17,10.57 -6.7,1.16 -9.02,2.45 -9.02,-3.1 -0.65,-6.06 2.19,-16.5 7.09,-31.84 z"
   inkscape:connector-curvature="0" />
	<path
   id="path41"
   style="fill:#ffffff;fill-rule:evenodd;stroke:#000000;stroke-width:0.036;stroke-miterlimit:10"
   d="m 279.11,278.13 c 2.45,2.84 4.38,6.97 5.29,13.8 0.77,6.57 0.9,15.47 0.38,25.66 -0.9,9.67 -2.32,20.63 -4.77,32.88 -13.67,-6.19 -21.53,-10.45 -25.01,-13.28 -3.1,-2.71 1.55,-2.84 5.42,-3.87 3.34,-1.55 7.99,-3.23 14.43,-5.03 -8.12,-4.51 -15.08,-7.87 -21.92,-11.48 -7.35,-3.61 -18.43,-5.41 -18.3,-8.89 0.38,-3.74 12.5,-7.1 20.37,-12 7.35,-5.02 15.21,-10.95 24.11,-17.79 z"
   inkscape:connector-curvature="0" />
	<path
   id="path43"
   style="fill:#ffffff;fill-rule:evenodd;stroke:#000000;stroke-width:0.036;stroke-miterlimit:10"
   d="m 319.08,331.38 c 7.22,2.84 13.02,6.84 17.41,10.58 4.25,4.12 7.09,7.99 8.51,13.02 1.55,4.64 1.42,8.38 -0.39,14.7 -2.45,6.32 -6.44,13.15 -13.02,21.92 -14.19,-5.93 -22.31,-10.32 -24.37,-14.57 -2.07,-4.51 7.09,-6.32 11.99,-9.93 4.77,-3.74 14.7,-8.9 15.86,-10.96 0.26,-1.8 -8.51,-1.68 -12.38,-1.03 -4.51,0 -9.67,2.84 -10.96,1.55 -0.9,-1.81 2.71,-6.97 4.39,-10.96 1.16,-4.26 2.32,-9.03 2.96,-14.32 z"
   inkscape:connector-curvature="0" />
	<path
   id="path45"
   style="fill:#ffffff;fill-rule:evenodd;stroke:#000000;stroke-width:0.036;stroke-miterlimit:10"
   d="m 59.782,322.87 c -7.607,3.61 -13.28,7.35 -17.535,12.64 -4.255,4.77 -6.19,10.57 -7.22,17.41 -1.291,6.96 -1.291,15.98 0,23.59 1.03,7.35 3.61,13.28 7.22,19.21 5.159,-4.89 8.898,-8.64 11.735,-12.24 2.836,-3.61 5.027,-6.58 4.512,-8.9 -0.903,-2.32 -7.222,-2.84 -10.059,-5.03 -3.351,-2.83 -9.798,-6.96 -9.412,-9.41 0.516,-2.45 6.189,-5.42 11.476,-5.93 4.771,-0.9 15.731,2.06 17.922,0 1.934,-3.1 -4.382,-9.41 -5.544,-14.96 -1.547,-5.29 -2.579,-10.57 -3.095,-16.38 z"
   inkscape:connector-curvature="0" />
	<path
   id="path47"
   style="fill:#ffffff;fill-rule:evenodd;stroke:#000000;stroke-width:0.036;stroke-miterlimit:10"
   d="m 122.45,254.02 c 3.35,4.51 5.8,9.02 7.35,13.02 1.42,3.87 4.12,7.09 1.16,11.09 -3.36,3.87 -10.7,7.61 -21.54,11.73 8.9,1.68 15.86,3.87 20.38,6.58 4.77,2.71 8.25,6.19 6.96,8.9 -2.06,1.93 -11.09,1.68 -17.15,3.73 -5.93,1.94 -12.89,4 -19.47,7.23 9.16,1.54 15.35,3.48 19.08,5.28 3.61,1.42 4.26,3.49 2.46,6.19 -2.33,2.97 -6.58,6.58 -14.32,11.35 7.09,-1.16 11.99,-1.03 14.7,0.38 2.45,1.3 4.52,1.56 1.16,7.74 -3.35,5.94 -10.7,14.7 -21.53,27.34 3.48,6.96 6.71,14.18 10.19,21.14 3.35,6.71 6.44,13.67 9.8,20.38 -8.78,1.93 -16.12,5.67 -22.054,11.73 -6.188,6.06 -12.12,16.25 -13.796,23.59 -1.677,6.97 0.387,13.16 3.224,17.54 2.837,4 8.38,6.45 12.636,6.84 3.48,0.12 6.71,-1.94 10.19,-5.68 3.35,-4.26 7.09,-10.19 10.7,-18.31 -2.45,5.67 -4.26,10.83 -5.93,14.96 -1.94,4 -3.23,7.48 -4.39,9.93 1.55,3.74 4.13,6.19 7.74,6.83 3.87,0.26 9.02,-1.81 13.41,-3.22 3.48,-1.55 6.32,-1.94 9.03,-5.68 2.32,-4.25 4.51,-10.7 6.05,-19.34 1.55,8 0.91,13.8 -0.51,18.83 -2.06,4.9 -4.9,7.6 -9.93,9.54 0.39,5.29 2.45,8.38 7.61,9.28 4.77,0.65 15.08,-1.8 21.53,-4.9 6.58,-3.6 11.87,-6.19 16.38,-14.18 3.74,-8.38 6.44,-19.73 8.12,-32.62 0.9,-13.02 1.16,-30.69 0.77,-43.58 -0.25,-12.9 -1.54,-23.99 -2.83,-33.27 -4.26,-0.52 -7.87,-1.03 -11.35,-2.06 -3.61,-0.91 -6.58,-1.94 -9.41,-3.61 -3.23,-2.32 -11.35,-8.51 -9.41,-8.64 1.8,0 13.79,6.06 19.98,7.73 5.67,1.03 9.54,1.68 15.09,0 5.41,-2.19 13.92,-9.67 16.63,-10.57 1.94,-0.77 -0.64,3.74 -3.22,6.58 -3.1,2.7 -6.96,5.67 -13.15,9.41 1.29,17.92 1.93,33.65 2.45,47.71 0.25,13.79 -2.45,25.27 -0.65,35.97 1.29,10.19 4.26,21.28 8.9,27.34 4.51,6.31 11.21,9.41 17.14,9.28 5.55,-0.52 10.07,-5.03 14.96,-13.02 -3.22,-3.1 -5.54,-6.19 -6.96,-9.8 -1.55,-3.87 -2.58,-7.35 -2.58,-11.87 3.23,5.68 6.71,10.32 10.45,14.45 3.99,3.87 7.86,7.73 12.12,9.67 3.99,1.42 7.34,1.42 10.57,0 2.45,-1.42 4.38,-4.52 5.28,-8.77 -6.83,-3.61 -11.47,-7.74 -14.44,-11.86 -3.22,-4.13 -3.74,-8.77 -2.96,-13.41 3.48,7.6 7.48,12.89 12.5,17.79 4.77,4.25 11.87,8.25 16.38,9.03 4.13,0.64 5.8,-0.65 8.51,-4.9 2.45,-5.03 7.22,-15.48 6.32,-22.44 -1.29,-6.83 -4.26,-12.51 -12.9,-18.44 -9.02,-6.58 -22.3,-12.38 -40.35,-18.95 11.6,-9.67 20.89,-18.18 27.33,-26.05 6.45,-7.73 10.58,-14.82 11.86,-20.76 -12.76,-6.19 -21.27,-11.09 -26.04,-14.7 -4.64,-3.61 -5.16,-6.18 -2.06,-7.73 2.57,-2.19 8.38,-3.35 17.92,-4 -11.09,-4.13 -19.6,-7.99 -26.05,-11.09 -6.58,-3.48 -12.12,-5.8 -12.63,-8.51 -0.65,-3.22 4.12,-5.67 9.41,-8.89 5.28,-3.74 12.25,-7.1 21.92,-11.48 -11.74,3.48 -19.73,4.9 -23.99,3.74 -4.38,-1.03 -3.74,-3.87 -2.06,-10.58 1.29,-7.09 4.39,-17.53 9.8,-31.33 -7.99,-1.67 -16.76,-2.45 -27.72,-2.32 -11.22,0 -25.02,0.65 -36.88,1.94 -12.25,1.03 -24.5,2.19 -34.3,3.48 -9.67,0.51 -17.53,1.42 -23.59,1.29 z"
   inkscape:connector-curvature="0" />
	<path
   id="path49"
   style="fill:#ffffff;fill-rule:evenodd;stroke:#000000;stroke-width:0.036;stroke-miterlimit:10;stroke-dasharray:none"
   d="m 82.218,315.91 c 0.259,8.77 1.934,18.57 5.028,29.4 3.096,10.7 7.608,23.46 13.024,35.33 5.03,11.48 10.19,22.3 16.5,33.01 -8.51,3.99 -15.34,8.38 -19.981,12.12 -5.028,3.61 -6.833,7.6 -8.897,10.96 -2.321,3.22 -4.125,5.67 -4.899,9.41 -1.161,3.74 -1.42,7.61 -0.774,12.64 -5.287,5.93 -10.444,9.66 -15.472,11.73 -5.803,1.42 -11.605,1.16 -15.86,-0.77 -4.255,-1.94 -6.962,-5.03 -8.639,-9.8 6.578,-2.19 10.959,-4.9 14.185,-7.61 2.964,-2.84 4.125,-5.67 3.996,-9.03 -5.93,4.9 -11.089,9.03 -16.504,10.96 -5.803,1.81 -12.122,4 -15.472,1.68 -3.353,-2.83 -5.545,-11.09 -4.514,-16.24 0.646,-5.55 4.514,-11.1 8.639,-14.71 3.997,-3.6 8.51,-5.8 14.57,-6.57 8.38,9.28 12.635,13.28 13.28,12.51 0.129,-1.55 -7.479,-12.77 -10.444,-18.19 -2.836,-5.67 -5.415,-9.79 -7.222,-13.79 5.288,-4.26 9.156,-8.12 13.024,-12.64 3.353,-4.64 8.38,-10.57 8.124,-13.79 -1.162,-2.84 -7.479,-3.49 -11.476,-4.9 -3.74,-2.06 -7.092,-4.39 -10.574,-6.97 2.451,-2.32 6.449,-3.48 10.961,-3.99 4.514,-0.52 13.41,2.19 16.763,1.16 2.45,-1.55 1.545,-5.81 0.772,-9.8 -1.159,-4.39 -3.48,-9.93 -4.9,-14.57 -1.029,-4.52 -2.32,-8.9 -2.448,-12.64 3.352,-1.55 6.446,-2.45 9.798,-3.22 3.223,-1.03 6.189,-1.42 9.412,-1.68 z"
   inkscape:connector-curvature="0" />
	<path
   id="path51"
   style="fill:#ffffff;fill-rule:evenodd;stroke:#000000;stroke-width:0.036;stroke-miterlimit:10"
   d="m 287.62,324.42 c -0.9,15.22 -3.61,27.85 -7.61,37.91 -4.77,10.19 -11.6,15.34 -17.53,21.92 -5.8,6.06 -11.22,11.09 -16.76,15.09 16.11,6.06 27.72,11.6 36.23,17.14 8.12,5.42 10.96,10.58 13.41,15.48 2.06,4.12 0.9,7.09 0.51,10.96 -0.51,4 -1.93,7.73 -3.74,12.25 4.26,5.15 8.51,8.89 12.25,11.73 3.87,2.45 7.22,4.64 10.58,4.13 2.96,-0.9 5.67,-3.49 8.12,-8.26 -2.96,-2.32 -5.42,-4.64 -7.35,-7.99 -2.32,-3.48 -4,-6.96 -5.55,-11.48 3.48,5.81 7.61,10.45 12.9,12.51 5.29,2.19 14.7,2.84 18.31,0.9 3.09,-2.83 3.09,-9.54 2.06,-14.7 -1.54,-5.41 -3.74,-11.21 -9.02,-15.85 -5.55,-4.9 -12.64,-8.78 -22.7,-12.12 -0.12,-1.16 1.68,-3.36 4.39,-6.58 2.96,-3.23 6.83,-7.74 12.64,-13.02 -8,-4.26 -13.8,-7.87 -17.93,-11.35 -4.51,-3.35 -9.28,-5.81 -6.83,-9.41 2.58,-4.26 9.54,-8.9 21.92,-14.96 -11.48,3.87 -17.54,4.38 -19.73,2.06 -2.19,-2.83 5.93,-11.86 7.48,-17.15 1.42,-5.41 1.55,-10.31 0.9,-14.7 -6.19,-1.8 -10.83,-2.83 -15.47,-3.61 -4.52,-0.9 -8.51,-1.03 -11.48,-0.9 z"
   inkscape:connector-curvature="0" />
	<path
   id="path53"
   style="fill-rule:evenodd;stroke:#000000;stroke-width:0.036;stroke-miterlimit:10"
   d="m 221.86,61.769 c 0.65,-3.998 4,-8.898 9.54,-14.7 5.55,-6.447 14.96,-14.183 23.73,-20.244 8.25,-6.06 18.18,-11.733 26.3,-15.473 7.61,-4.125 14.44,-6.705 19.99,-8.253 5.03,-1.804 9.02,-4.255 12.5,-2.448 3.36,1.289 5.55,4.642 8.13,11.475 2.06,6.705 4.51,18.697 5.93,29.011 1.16,10.058 1.8,22.437 1.93,31.72 0,8.769 -0.9,16.763 -2.19,22.565 -1.55,5.678 -2.58,9.028 -6.06,11.608 -3.61,2.19 -9.02,2.96 -15.73,2.32 C 297.81,95.55 287.36,84.719 273.18,76.854 258.87,68.86 242.23,63.831 221.86,61.769 Z"
   inkscape:connector-curvature="0" />
	<path
   id="path55"
   style="fill:#ffffff;fill-rule:evenodd;stroke:#000000;stroke-width:0.036;stroke-miterlimit:10"
   d="m 225.34,59.705 c 1.55,-2.707 3.36,-5.673 5.93,-8.381 2.32,-3.095 5.16,-6.062 8.51,-8.898 1.03,0.129 3.23,0.516 6.06,1.162 2.84,0.386 6.32,1.418 10.96,2.58 -2.7,1.417 -5.67,2.964 -7.86,6.06 -2.32,2.964 -4.9,6.059 -6.71,10.701 -4.51,-0.902 -8.38,-1.548 -11.09,-1.935 -2.96,-0.643 -4.89,-0.902 -5.8,-1.289 z"
   inkscape:connector-curvature="0" />
	<path
   id="path57"
   style="fill:#ffffff;fill-rule:evenodd;stroke:#000000;stroke-width:0.036;stroke-miterlimit:10"
   d="m 261.45,24.634 c -4.77,3.353 -8.39,6.447 -11.87,9.283 -3.35,2.451 -6.06,4.771 -8.12,6.448 2.06,0.387 4.64,0.643 7.74,1.289 3.09,0.517 5.93,1.418 9.92,2.191 0.91,-0.773 1.68,-1.289 2.84,-2.062 0.9,-0.902 2.06,-1.547 3.48,-2.45 -1.16,-3.096 -2.06,-6.06 -2.7,-8.381 -0.91,-2.579 -1.17,-4.514 -1.29,-6.318 z"
   inkscape:connector-curvature="0" />
	<path
   id="path59"
   style="fill:#ffffff;fill-rule:evenodd;stroke:#000000;stroke-width:0.036;stroke-miterlimit:10"
   d="m 269.44,20.12 c -1.81,0.775 -2.97,1.291 -4,2.064 -1.03,0.646 -1.8,1.032 -2.32,1.675 0.26,1.677 0.78,3.612 1.55,5.804 0.77,2.192 1.29,4.641 2.58,7.351 2.06,-1.29 4.51,-2.709 6.32,-3.74 1.67,-1.161 3.22,-1.934 5.15,-2.836 1.81,-1.161 4.26,-2.193 6.84,-3.096 -2.2,-1.289 -4,-2.707 -6.84,-3.739 -2.83,-1.29 -5.93,-2.451 -9.28,-3.483 z"
   inkscape:connector-curvature="0" />
	<path
   id="path61"
   style="fill:#ffffff;fill-rule:evenodd;stroke:#000000;stroke-width:0.036;stroke-miterlimit:10"
   d="m 272.54,18.315 c 2.44,-2.192 5.93,-3.61 9.92,-5.673 4,-2.063 9.8,-4.383 13.93,-5.544 3.35,-1.547 5.8,-2.321 7.86,-2.837 2.45,-0.773 3.87,-1.418 5.68,-1.418 -2.58,2.321 -4.77,4.771 -7.09,7.349 -2.2,2.579 -5.16,4.514 -6.45,7.221 -1.81,2.321 -3.1,5.673 -3.87,7.091 -1.16,1.289 -1.55,1.162 -2.58,1.032 -1.8,-0.515 -3.74,-2.191 -5.8,-2.965 -2.06,-0.773 -4,-1.676 -5.8,-2.192 -2.07,-0.517 -4,-1.678 -5.8,-2.064 z"
   inkscape:connector-curvature="0" />
	<path
   id="path63"
   style="fill:#ffffff;fill-rule:evenodd;stroke:#000000;stroke-width:0.036;stroke-miterlimit:10"
   d="m 312.38,3.358 c -2.71,2.451 -5.16,4.771 -7.35,6.962 -2.19,2.064 -4.26,3.999 -5.68,6.319 -1.55,2.191 -2.96,4.771 -3.74,7.219 2.19,-1.029 4.13,-0.902 5.81,-1.029 1.54,-0.13 1.93,0.257 3.22,1.16 0.9,0.774 2.06,2.063 2.97,3.868 0.64,1.548 1.54,3.352 2.19,5.416 0.9,-2.966 1.93,-4.771 3.09,-6.834 1.16,-2.063 2.19,-3.609 3.61,-4.642 1.29,-1.418 2.97,-2.579 4.52,-3.481 -1.03,-4.899 -2.07,-8.51 -3.62,-10.831 -1.54,-2.451 -3.22,-3.997 -5.02,-4.127 z"
   inkscape:connector-curvature="0" />
	<path
   id="path65"
   style="fill:#ffffff;fill-rule:evenodd;stroke:#000000;stroke-width:0.036;stroke-miterlimit:10"
   d="m 321.53,20.249 c -2.45,1.805 -4.13,3.868 -6.06,6.705 -2.06,2.708 -3.35,5.673 -4.9,9.413 0,1.677 0.77,3.482 0.91,5.416 0,1.546 0.77,3.224 0.9,5.028 2.83,1.677 5.67,3.224 7.99,4.642 2.32,1.418 4.13,2.579 5.93,3.998 -0.51,-6.189 -0.9,-11.733 -1.16,-16.117 -0.26,-4.9 -1.16,-7.737 -1.29,-10.96 -0.64,-3.224 -1.42,-5.932 -2.32,-8.125 z"
   inkscape:connector-curvature="0" />
	<path
   id="path67"
   style="fill:#ffffff;fill-rule:evenodd;stroke:#000000;stroke-width:0.036;stroke-miterlimit:10"
   d="m 326.43,57.642 0.52,10.573 c -1.68,1.033 -4,2.192 -5.93,3.482 -2.2,1.03 -4.52,2.448 -6.97,3.739 0.39,-5.673 0.26,-10.187 0.13,-14.571 -0.26,-4.382 -0.52,-8.122 -1.29,-11.217 2.84,1.289 5.42,2.836 7.74,4.125 2.19,1.162 4.13,2.451 5.8,3.869 z"
   inkscape:connector-curvature="0" />
	<path
   id="path69"
   style="fill:#ffffff;fill-rule:evenodd;stroke:#000000;stroke-width:0.036;stroke-miterlimit:10"
   d="m 327.33,70.279 c -0.26,3.224 -0.26,6.833 -0.51,10.315 -0.52,3.094 -0.9,7.994 -1.16,10.701 -0.52,2.58 -0.78,3.612 -1.29,5.545 -0.78,2.063 -1.68,3.48 -2.71,5.67 L 311.48,92.07 c 0.51,-2.837 1.28,-4.901 1.8,-7.221 0.38,-2.451 0.51,-4.125 0.9,-6.06 1.55,-1.032 3.87,-2.193 5.94,-3.482 2.31,-1.548 4.38,-3.223 7.21,-5.028 z"
   inkscape:connector-curvature="0" />
	<path
   id="path71"
   style="fill:#ffffff;fill-rule:evenodd;stroke:#000000;stroke-width:0.036;stroke-miterlimit:10"
   d="m 309.92,93.745 c -0.38,0.903 -1.8,1.677 -3.22,2.321 -1.93,0.645 -3.86,1.031 -6.83,1.677 1.29,1.805 2.97,2.967 4,4.897 1.03,1.55 1.93,3.23 2.7,5.03 1.94,0.52 3.61,0.52 6.07,0 2.32,-0.51 4.38,-2.06 7.22,-3.61 -3.48,-3.1 -5.81,-6.061 -7.48,-7.48 -1.81,-1.546 -2.46,-2.964 -2.46,-2.835 z"
   inkscape:connector-curvature="0" />
	<path
   id="path73"
   style="fill:#ffffff;fill-rule:evenodd;stroke:#000000;stroke-width:0.036;stroke-miterlimit:10"
   d="m 297.94,95.293 c 3.35,-0.516 5.8,-1.677 7.86,-2.966 1.81,-1.548 2.58,-2.578 3.74,-6.059 0.9,-4.385 1.8,-10.188 2.19,-16.377 0,-6.446 -0.13,-13.022 -0.9,-19.727 -1.29,-6.705 -2.84,-15.472 -4.64,-19.34 -1.68,-3.998 -3.87,-4.901 -6.58,-4.642 -3.22,-0.388 -7.48,0.644 -12.25,3.094 -5.41,1.934 -11.99,5.803 -17.66,9.671 -5.8,3.353 -12.25,9.026 -15.35,11.99 -3.35,2.58 -3.22,3.611 -4.51,5.546 -1.8,1.804 -2.84,3.996 -4.51,6.06 6.19,1.934 12.12,3.61 17.79,6.06 5.42,1.935 10.57,4.126 15.47,7.092 4.77,2.966 10.06,7.221 13.41,10.703 3.23,3.222 5.03,6.187 5.94,8.895 z"
   inkscape:connector-curvature="0" />
	<path
   id="path75"
   style="fill-rule:evenodd;stroke:#000000;stroke-width:0.036;stroke-miterlimit:10"
   d="m 262.09,22.957 c -1.03,-1.676 -1.93,-2.964 -2.71,-4.382 -1.29,-1.677 -2.32,-3.74 -3.09,-4.128 -0.9,-0.772 -2.07,0 -2.07,0.775 -0.51,0.257 -0.13,0.516 1.16,2.708 1.29,1.934 3.87,8.252 5.68,9.928 1.29,1.418 2.06,-1.032 2.32,-1.418 0.13,-1.033 -0.78,-2.192 -1.29,-3.483 z"
   inkscape:connector-curvature="0" />
	<path
   id="path77"
   style="fill-rule:evenodd;stroke:#000000;stroke-width:0.036;stroke-miterlimit:10"
   d="m 255.77,24.504 c -1.29,-1.159 -2.84,-2.191 -4.12,-3.093 -1.94,-1.548 -3.23,-2.321 -4.39,-2.836 -1.42,-0.13 -1.8,0.516 -1.68,1.418 0,0.386 0,0.386 2.07,2.062 1.93,1.677 6.7,6.318 8.77,7.48 1.41,0.902 1.8,-1.677 1.67,-2.193 -0.51,-1.033 -1.29,-1.806 -2.32,-2.838 z"
   inkscape:connector-curvature="0" />
	<path
   id="path79"
   style="fill-rule:evenodd;stroke:#000000;stroke-width:0.036;stroke-miterlimit:10"
   d="m 319.47,8.516 c 1.03,-0.902 2.58,-1.677 4.64,-2.32 1.55,-1.161 5.93,-1.548 7.22,-2.58 1.42,-1.289 2.07,-2.32 0.91,-2.578 -1.94,-0.259 -6.45,0.516 -9.55,1.804 -3.09,1.16 -7.61,3.61 -8.64,5.288 -1.16,1.289 0.77,2.45 1.81,2.964 0.9,0 1.93,-2.192 3.61,-2.578 z"
   inkscape:connector-curvature="0" />
	<path
   id="path81"
   style="fill-rule:evenodd;stroke:#000000;stroke-width:0.036;stroke-miterlimit:10"
   d="m 321.15,15.737 c 1.15,-0.775 2.06,-1.418 4.12,-1.934 1.68,-0.902 4.77,-1.677 6.32,-2.321 1.16,-1.291 1.93,-2.064 0.9,-2.321 -1.8,-0.129 -5.8,0.257 -8.51,1.676 -2.96,0.646 -6.45,3.352 -7.48,4.642 -1.16,1.161 0.52,2.193 1.55,2.58 0.77,-0.26 1.81,-1.678 3.1,-2.322 z"
   inkscape:connector-curvature="0" />
	<path
   id="path83"
   style="fill-rule:evenodd;stroke:#000000;stroke-width:0.036;stroke-miterlimit:10"
   d="M 132.38,63.701 C 130.7,59.834 126.06,56.353 119.48,51.841 112.26,47.327 101.17,41.524 91.629,37.915 81.83,34.046 70.741,31.209 62.36,29.405 53.592,27.341 46.629,26.439 40.956,26.181 c -6.06,-0.388 -9.799,-1.934 -12.765,0.773 -3.094,1.935 -4.642,5.932 -5.157,13.022 -0.903,6.963 0.257,19.342 1.418,29.657 0.902,10.058 3.352,22.048 5.803,31.077 2.062,8.64 4.771,15.99 7.607,21.53 2.837,5.03 4.255,8.25 8.768,9.67 4.255,1.29 9.026,0.77 15.731,-1.55 4.255,-15.6 12.249,-28.1 23.982,-39.452 C 97.95,79.691 113.29,70.795 132.38,63.701 Z"
   inkscape:connector-curvature="0" />
	<path
   id="path85"
   style="fill:#ffffff;fill-rule:evenodd;stroke:#000000;stroke-width:0.036;stroke-miterlimit:10"
   d="m 128.38,62.542 c -2.32,-2.321 -4.9,-4.514 -7.74,-6.576 -3.22,-2.064 -6.7,-4.771 -10.44,-6.705 -0.9,0.386 -3.22,1.289 -5.54,2.708 -2.71,1.031 -6.066,3.223 -10.064,5.157 3.223,0.259 5.804,2.063 9.154,3.998 3.23,1.805 5.81,5.158 9.15,8.639 4.26,-1.804 7.48,-3.481 10.19,-4.514 2.45,-1.418 4.39,-2.32 5.29,-2.707 z"
   inkscape:connector-curvature="0" />
	<path
   id="path87"
   style="fill:#ffffff;fill-rule:evenodd;stroke:#000000;stroke-width:0.036;stroke-miterlimit:10"
   d="m 84.926,37.398 c 5.287,2.191 9.671,4.384 13.668,6.06 3.736,1.804 7.096,3.096 9.546,4.384 -2.07,0.516 -4.65,1.675 -7.22,2.966 -2.713,1.289 -5.937,2.836 -9.16,4.641 -1.161,-0.773 -2.064,-0.773 -3.224,-1.418 -1.418,-0.645 -2.579,-1.161 -3.998,-1.548 0.129,-3.093 0.516,-6.446 0.646,-8.639 0.001,-2.836 -0.258,-4.511 -0.258,-6.446 z"
   inkscape:connector-curvature="0" />
	<path
   id="path89"
   style="fill:#ffffff;fill-rule:evenodd;stroke:#000000;stroke-width:0.036;stroke-miterlimit:10"
   d="m 76.029,34.949 c 1.805,0.515 3.096,0.386 4.385,1.031 1.031,0.516 1.934,0.387 2.707,1.033 0.129,1.547 0.129,3.739 0,6.059 -0.128,2.321 -0.387,4.901 -0.773,7.737 -2.836,-0.903 -5.028,-1.418 -7.091,-2.064 -1.935,-0.646 -3.999,-1.161 -5.673,-1.548 -2.321,-0.643 -4.771,-0.902 -7.351,-1.289 1.677,-1.676 3.095,-3.61 5.673,-5.287 2.193,-1.804 4.9,-3.868 8.123,-5.672 z"
   inkscape:connector-curvature="0" />
	<path
   id="path91"
   style="fill:#ffffff;fill-rule:evenodd;stroke:#000000;stroke-width:0.036;stroke-miterlimit:10"
   d="M 72.549,33.917 C 69.454,32.887 65.971,31.726 61.589,30.953 56.818,29.922 50.886,29.019 46.76,28.76 c -3.739,-0.516 -6.319,-0.902 -8.253,-0.644 -2.191,-0.259 -4.641,-0.259 -5.93,0 2.837,1.934 5.93,3.224 8.767,5.285 2.58,1.677 5.546,3.481 7.867,5.416 1.935,1.677 4.255,4.642 5.544,5.931 1.032,0.774 1.289,0.904 2.708,0.388 1.161,-0.903 2.966,-2.966 4.9,-4.128 1.677,-1.418 3.223,-2.448 5.157,-3.609 1.547,-1.29 3.222,-2.45 5.029,-3.482 z"
   inkscape:connector-curvature="0" />
	<path
   id="path93"
   style="fill:#ffffff;fill-rule:evenodd;stroke:#000000;stroke-width:0.036;stroke-miterlimit:10"
   d="m 30.256,29.146 c 3.223,1.547 6.189,3.225 8.896,5.03 2.707,1.288 4.9,2.837 7.092,4.641 1.935,1.805 3.868,3.869 5.287,6.189 -2.58,-0.129 -4.384,0 -5.932,0.386 -1.546,0 -2.321,0.775 -2.837,1.805 -1.032,1.032 -1.288,2.58 -1.804,4.644 -0.516,1.805 -0.773,3.351 -0.773,5.673 C 38.38,55.321 36.962,52.87 35.414,51.582 33.866,50.164 32.19,48.488 30.9,47.973 29.224,46.94 27.42,46.168 25.485,45.652 c -0.259,-5.029 0.257,-8.639 1.031,-11.348 0.645,-2.965 2.063,-4.513 3.74,-5.158 z"
   inkscape:connector-curvature="0" />
	<path
   id="path95"
   style="fill:#ffffff;fill-rule:evenodd;stroke:#000000;stroke-width:0.036;stroke-miterlimit:10"
   d="m 25.485,47.843 c 2.45,1.032 5.157,2.837 7.607,4.9 2.45,2.063 4.641,4.899 7.092,7.995 0,1.934 0.129,3.609 0.386,5.544 0,1.548 0.129,3.223 0.387,5.028 -2.708,2.45 -4.771,4.255 -6.705,6.448 -2.063,1.934 -3.48,3.739 -4.771,5.415 -1.418,-6.317 -2.191,-11.475 -2.837,-15.988 -0.902,-4.771 -1.159,-7.994 -1.289,-11.089 -0.256,-3.353 -0.386,-5.932 0.13,-8.253 z"
   inkscape:connector-curvature="0" />
	<path
   id="path97"
   style="fill:#ffffff;fill-rule:evenodd;stroke:#000000;stroke-width:0.036;stroke-miterlimit:10"
   d="m 29.87,85.235 2.062,10.445 c 2.193,0.772 4.255,0.902 6.706,1.805 2.321,0.516 5.028,1.161 7.607,1.934 -1.675,-5.287 -2.708,-9.799 -3.609,-14.054 -1.032,-4.641 -1.548,-7.736 -1.548,-11.219 -2.45,2.064 -4.771,3.869 -6.448,5.933 -2.063,1.804 -3.481,3.352 -4.77,5.156 z"
   inkscape:connector-curvature="0" />
	<path
   id="path99"
   style="fill:#ffffff;fill-rule:evenodd;stroke:#000000;stroke-width:0.036;stroke-miterlimit:10"
   d="m 32.19,97.743 c 0.773,3.227 1.935,6.317 2.965,9.797 1.161,3.22 2.193,7.22 3.611,10.06 1.032,2.45 1.289,3.35 2.708,5.16 0.902,1.67 2.579,3.09 3.998,4.77 l 7.349,-12.51 c -1.676,-2.32 -2.708,-4.9 -3.61,-6.7 -1.031,-2.32 -1.935,-3.87 -2.193,-5.68 -2.062,-0.51 -4.125,-1.16 -6.703,-1.93 -2.581,-1.033 -5.288,-1.678 -8.125,-2.967 z"
   inkscape:connector-curvature="0" />
	<path
   id="path101"
   style="fill:#ffffff;fill-rule:evenodd;stroke:#000000;stroke-width:0.036;stroke-miterlimit:10"
   d="m 54.754,116.18 c 0.387,0.65 1.935,1.29 3.609,1.42 1.549,0.13 4.255,0.13 7.092,0 -1.16,1.8 -2.062,3.74 -2.707,5.8 -0.902,1.68 -1.159,3.48 -1.289,5.42 -1.804,1.03 -3.611,1.55 -5.932,1.55 -2.321,-0.26 -5.157,-0.65 -7.994,-1.68 2.58,-4.26 4.255,-6.96 5.546,-9.15 1.288,-2.33 1.675,-3.1 1.675,-3.36 z"
   inkscape:connector-curvature="0" />
	<path
   id="path103"
   style="fill:#ffffff;fill-rule:evenodd;stroke:#000000;stroke-width:0.036;stroke-miterlimit:10"
   d="m 66.746,114.76 c -3.223,0.26 -6.189,0.13 -8.383,-0.9 -2.191,-1.16 -3.739,-1.81 -5.157,-4.9 -1.934,-3.87 -4.641,-9.671 -6.059,-15.472 -1.805,-6.319 -3.482,-12.765 -3.996,-19.343 -1.032,-7.091 -0.904,-15.213 -0.129,-19.856 0.772,-4.383 2.063,-5.415 5.287,-6.06 2.964,-1.032 6.962,-1.032 12.506,0 5.287,0.646 13.151,2.836 19.6,5.03 6.575,1.933 13.151,5.544 17.793,7.865 3.742,1.547 3.482,2.836 5.672,4.384 1.93,1.418 3.74,2.965 5.93,4.642 -5.93,3.224 -10.699,6.833 -15.729,10.315 -5.028,3.481 -9.283,6.188 -13.28,10.573 -4.126,4.255 -8.251,9.282 -10.445,13.672 -2.191,3.86 -3.869,7.22 -3.61,10.05 z"
   inkscape:connector-curvature="0" />
	<path
   id="path105"
   style="fill-rule:evenodd;stroke:#000000;stroke-width:0.036;stroke-miterlimit:10"
   d="m 95.758,41.524 c 0.643,-1.675 1.418,-2.964 2.836,-4.383 0.773,-1.807 2.326,-3.481 3.226,-3.998 0.38,-0.773 2.06,0 2.06,0.773 0.26,0.259 -0.52,0.516 -1.29,2.709 -1.42,2.062 -4.512,7.994 -5.802,9.799 -1.418,1.418 -2.192,-1.032 -2.322,-1.418 -0.385,-1.032 0.388,-2.192 1.292,-3.482 z"
   inkscape:connector-curvature="0" />
	<path
   id="path107"
   style="fill-rule:evenodd;stroke:#000000;stroke-width:0.036;stroke-miterlimit:10"
   d="m 102.07,43.329 c 0.78,-1.159 2.71,-2.192 4.26,-3.094 1.42,-1.161 3.23,-2.708 4.38,-2.708 1.04,-0.129 1.42,0.516 1.68,1.418 -0.26,0.387 -0.51,0.387 -2.19,2.062 -2.32,1.548 -6.96,5.932 -8.9,7.221 -1.804,0.516 -2.19,-1.548 -1.675,-2.191 0,-1.031 1.165,-1.933 2.445,-2.708 z"
   inkscape:connector-curvature="0" />
	<path
   id="path109"
   style="fill-rule:evenodd;stroke:#000000;stroke-width:0.036;stroke-miterlimit:10"
   d="m 26.387,70.922 c -1.289,0.387 -2.45,0.903 -3.481,2.064 -1.676,1.031 -3.61,2.836 -4.771,3.868 -1.418,0.516 -2.837,0.387 -2.191,-0.386 0.129,-1.291 3.223,-4.384 5.286,-5.803 1.935,-1.805 5.673,-3.482 7.221,-3.611 1.03,-0.257 1.418,1.547 1.16,2.45 -0.903,0.645 -1.805,0.645 -3.224,1.418 z"
   inkscape:connector-curvature="0" />
	<path
   id="path111"
   style="fill-rule:evenodd;stroke:#000000;stroke-width:0.036;stroke-miterlimit:10"
   d="m 30.643,75.05 c -1.161,0.386 -2.191,1.03 -3.096,1.932 -1.675,0.516 -3.093,2.966 -4.255,3.353 -1.418,0.389 -2.191,0.259 -1.805,-0.387 0.129,-1.418 2.837,-3.609 4.641,-5.027 2.064,-1.935 4.514,-2.837 6.319,-3.224 0.902,-0.129 1.418,1.418 1.032,2.191 -0.773,0.516 -1.548,0.258 -2.836,1.162 z"
   inkscape:connector-curvature="0" />
	<path
   id="path113"
   style="fill-rule:evenodd;stroke:#000000;stroke-width:0.036;stroke-miterlimit:10"
   d="m 41.216,121.86 c -1.291,0.9 -2.837,1.93 -4.128,3.09 -1.934,0.77 -3.223,2.32 -4.382,2.71 -1.418,-0.13 -1.806,-0.78 -1.677,-1.42 -0.387,-0.78 0.129,-0.65 2.063,-2.06 1.805,-1.94 6.962,-6.19 9.026,-7.22 1.159,-0.91 1.675,1.16 1.546,2.19 -0.257,0.77 -1.545,1.67 -2.448,2.71 z"
   inkscape:connector-curvature="0" />
	<path
   id="path115"
   style="fill-rule:evenodd;stroke:#000000;stroke-width:0.036;stroke-miterlimit:10"
   d="m 172.22,53.259 c -8,1.16 -13.54,1.805 -19.6,2.449 -6.19,0.129 -10.57,-0.516 -17.15,0 -7.48,0.129 -15.99,-0.387 -24.5,2.45 -8.51,2.708 -18.564,8.897 -24.753,14.054 -6.189,4.643 -9.285,7.737 -13.281,14.829 -4.771,7.092 -9.025,17.019 -12.764,27.339 -4.644,10.05 -7.737,20.63 -10.704,32.23 -3.094,10.96 -4.898,22.18 -4.898,33.65 -0.129,11.35 1.418,23.08 5.673,34.17 4.125,10.83 8.38,21.28 19.727,29.92 11.09,7.86 30.82,14.57 46.68,18.57 15.47,3.74 28.75,4.12 47.32,4.64 18.57,0.26 42.68,-0.26 62.92,-3.48 19.86,-4 41.65,-10.19 56.47,-18.57 14.58,-8.64 22.96,-21.02 30.69,-32.24 7.22,-11.73 11.35,-23.98 14.45,-36.75 2.83,-13.02 6.18,-26.17 4.51,-39.45 -1.94,-13.54 -6.71,-27.98 -14.31,-39.843 -8,-11.992 -18.32,-22.693 -31.47,-30.689 -13.41,-8.637 -32.88,-14.44 -47.45,-17.406 -14.7,-3.223 -29.27,-0.903 -40.22,0 -11.48,0.386 -19.6,3.096 -27.34,4.127 z"
   inkscape:connector-curvature="0" />
	<path
   id="path117"
   style="fill:#ffffff;fill-rule:evenodd"
   d="m 78.608,83.56 c -1.032,0.773 -1.677,1.804 -2.45,3.093 -0.772,1.032 -1.677,2.707 -2.193,4.514 1.548,2.449 3.741,6.06 7.094,9.413 3.223,3.22 10.314,8.77 12.378,11.6 1.676,2.58 -0.646,3.62 -2.966,5.16 -2.966,1.16 -7.737,2.58 -12.895,3.74 -5.287,1.03 -11.476,2.19 -18.568,3.48 -0.387,0.65 -0.902,2.07 -1.547,3.74 -0.644,1.81 -1.546,3.87 -2.191,6.71 2.578,2.19 5.287,4.77 8.64,6.7 2.836,2.19 6.833,3.74 10.444,5.68 3.739,1.41 9.026,2.06 10.831,3.87 1.289,1.41 0.129,2.96 -3.482,6.05 -4.383,3.36 -15.215,8.51 -21.016,12.51 -5.932,3.48 -9.928,6.58 -13.024,8.77 -0.387,0.65 -0.515,1.68 -0.387,2.58 -0.128,0.9 0.13,2.19 0.257,3.35 4.514,2.32 9.156,3.61 14.442,4.9 5.028,0.64 11.347,1.16 16.504,1.55 4.9,0.38 11.476,0.38 13.281,1.93 1.031,1.29 -2.191,4.13 -4.126,7.09 -1.805,2.58 -3.611,4.51 -6.963,10.32 -3.997,5.8 -9.284,13.67 -16.375,24.11 0.516,0.9 1.289,1.93 2.321,3.1 0.773,0.9 1.934,1.93 2.966,3.09 6.833,-0.9 13.151,-2.19 19.47,-4.38 6.317,-2.2 12.637,-6.07 17.407,-8.13 3.87,-2.32 6.32,-5.8 8.38,-5.41 1.55,0 2.45,2.06 4.13,6.7 1.8,4.39 4.25,13.8 6.83,19.73 2.06,5.55 3.87,9.8 5.93,13.28 1.55,0.52 2.84,0.9 5.29,1.16 1.8,0.26 4.77,0.26 7.48,0.52 3.48,-2.97 6.45,-6.58 9.41,-10.83 2.84,-4.52 5.16,-12.38 7.48,-15.22 1.93,-3.22 2.71,-3.09 4.77,-2.58 1.42,0.39 2.84,2.32 6.32,5.29 3.48,2.96 10.06,8.51 15.21,12.64 5.16,3.99 9.54,6.96 14.7,10.31 1.42,0.13 3.48,-0.39 6.71,-0.51 3.09,-0.39 6.83,-0.91 11.73,-1.55 1.29,-5.03 2.58,-9.8 3.35,-14.83 0.39,-5.29 0.52,-11.99 1.42,-15.22 0.65,-2.96 1.29,-4.51 3.87,-4.12 2.32,0 4.9,1.42 11.22,3.74 6.06,2.06 19.21,5.28 26.04,7.73 6.58,2.07 11.35,3.1 14.32,4.13 0.13,-0.13 0.77,-0.9 1.93,-1.29 1.03,-0.9 2.19,-1.42 4,-2.58 -1.29,-4.38 -3.61,-9.15 -5.55,-15.73 -2.71,-6.83 -6.44,-17.67 -7.73,-22.56 -1.16,-5.03 -1.29,-6.84 0.12,-7.48 1.04,-1.16 3.49,0 7.36,1.54 3.99,1.03 8.89,3.74 15.21,5.68 5.81,1.8 11.73,2.96 18.83,4.51 1.28,-2.07 2.58,-4.26 3.35,-6.58 0.77,-2.58 1.55,-5.28 1.8,-8.12 -6.57,-5.16 -12.37,-10.19 -17.92,-15.09 -5.93,-5.15 -13.28,-11.73 -15.09,-14.82 -1.8,-3.74 1.04,-3.61 4.52,-4.52 3.09,-0.77 9.15,0.26 14.18,0.13 4.52,-0.13 9.42,-1.81 13.67,-2.06 4,-0.78 7.35,-1.42 10.57,-1.94 0.52,-3.22 0.9,-6.7 0.65,-9.93 -0.39,-3.35 -1.42,-6.96 -2.58,-10.31 -7.22,-1.16 -13.15,-1.93 -17.79,-3.35 -5.03,-1.29 -9.29,-2.84 -10.7,-4.64 -1.55,-2.45 0.12,-4.65 2.57,-9.55 2.32,-5.15 5.55,-11.6 10.7,-19.852 -0.77,-1.548 -1.42,-2.323 -1.93,-3.353 -0.64,-1.161 -1.55,-1.547 -2.19,-2.192 -1.29,2.192 -4.51,3.998 -10.7,4.9 -6.45,0.646 -20.64,1.676 -25.66,1.16 -5.29,-1.03 -4.52,-1.934 -4.64,-5.157 -0.26,-3.224 2.57,-9.412 3.61,-13.667 0.9,-4.384 1.8,-9.413 2.19,-13.667 -0.78,-0.386 -1.16,-1.418 -2.19,-1.677 -0.78,-0.644 -2.2,-1.16 -3.23,-1.546 -6.57,3.61 -12.89,6.705 -18.44,9.799 -5.93,3.093 -11.22,6.705 -15.34,8.38 -4.26,1.291 -7.22,1.807 -8.9,0 -2.45,-2.708 -1.29,-7.865 -2.97,-12.506 -1.8,-4.642 -3.6,-9.542 -6.44,-14.699 l -5.68,0.644 c -2.57,2.966 -5.02,6.189 -7.34,9.671 -2.58,3.223 -5.03,6.834 -6.84,10.314 -2.32,3.353 -3.48,8.253 -5.03,10.187 -1.67,1.546 -3.09,1.289 -4.77,-0.774 -2.06,-2.707 -5.28,-10.831 -7.6,-14.44 -2.71,-3.998 -6.19,-7.737 -8,-8.252 -2.19,-0.903 -1.68,-0.257 -3.35,3.481 -1.81,3.353 -5.16,12.765 -7.09,17.279 -2.2,3.867 -4.13,6.962 -5.81,7.735 -1.93,0.386 -2.06,-1.418 -4.38,-4.384 -2.71,-3.48 -7.35,-10.444 -10.96,-14.44 -3.87,-4.125 -7.61,-6.705 -11.22,-8.769 -2.83,-0.257 -6.32,-0.257 -9.41,0.516 -3.22,0.516 -7.09,1.548 -10.57,3.096 0.38,4.255 0.51,8.639 1.8,13.151 0.52,4.384 4.52,10.187 4,13.411 -0.39,2.707 -2.97,3.996 -6.32,3.868 C 104.01,91.813 96.018,87.944 92.279,86.398 88.153,84.98 86.09,84.205 84.026,84.077 81.702,83.431 79.897,83.431 78.608,83.56 Z"
   inkscape:connector-curvature="0" />
	<path
   id="path119"
   style="fill-rule:evenodd;stroke:#000000;stroke-width:0.036;stroke-miterlimit:10"
   d="m 149.4,98.773 c -0.13,-2.063 2.45,-3.996 3.74,-5.801 1.29,-1.935 2.19,-3.223 4.64,-4.384 2.06,-1.289 6.06,-3.353 7.99,-3.224 1.55,-0.386 2.71,1.418 2.07,2.451 -1.03,0.773 -5.68,1.289 -7.48,2.964 -1.94,1.292 -4.13,3.741 -5.16,5.803 -1.81,1.935 -1.81,4.768 -2.97,5.548 -1.16,-0.01 -3.09,-1.94 -2.83,-3.357 z"
   inkscape:connector-curvature="0" />
	<path
   id="path121"
   style="fill-rule:evenodd;stroke:#000000;stroke-width:0.036;stroke-miterlimit:10"
   d="m 216.96,102.26 c -0.13,-1.94 -2.71,-4.517 -3.74,-6.323 -1.68,-2.063 -2.58,-3.481 -4.64,-4.77 -2.32,-1.418 -6.32,-3.611 -8,-3.611 -1.93,-0.387 -2.96,1.677 -2.06,2.708 0.65,1.031 5.29,1.29 7.48,3.225 2.06,1.675 3.61,3.996 5.16,6.446 1.29,1.935 1.8,5.415 3.09,5.935 1.03,-0.13 2.45,-1.68 2.71,-3.61 z"
   inkscape:connector-curvature="0" />
	<path
   id="path123"
   style="fill-rule:evenodd;stroke:#000000;stroke-width:0.036;stroke-miterlimit:10"
   d="m 145.27,105.48 c 0,1.29 1.16,2.19 2.71,2.19 1.42,0 2.71,-0.9 2.71,-2.19 0,-1.16 -1.29,-2.19 -2.71,-2.19 -1.55,0 -2.71,1.03 -2.71,2.19 z"
   inkscape:connector-curvature="0" />
	<path
   id="path125"
   style="fill-rule:evenodd;stroke:#000000;stroke-width:0.036;stroke-miterlimit:10"
   d="m 212.45,110.25 c 0,1.16 1.16,2.19 2.58,2.19 1.55,0 2.7,-1.03 2.7,-2.19 0,-1.29 -1.15,-2.19 -2.7,-2.19 -1.42,0 -2.58,0.9 -2.58,2.19 z"
   inkscape:connector-curvature="0" />
	<path
   id="path127"
   style="fill-rule:evenodd;stroke:#000000;stroke-width:0.036;stroke-miterlimit:10"
   d="m 185.24,106.77 c 0,4.51 4.26,8.12 9.54,8.12 5.29,0 9.67,-3.61 9.67,-8.12 0,-4.51 -4.38,-8.124 -9.67,-8.124 -5.28,0 -9.54,3.614 -9.54,8.124 z"
   inkscape:connector-curvature="0" />
	<path
   id="path129"
   style="fill:#ffffff;fill-rule:evenodd;stroke:#000000;stroke-width:0.036;stroke-miterlimit:10"
   d="m 191.3,103.93 c 0,1.16 1.16,2.19 2.71,2.19 1.42,0 2.58,-1.03 2.58,-2.19 0,-1.16 -1.16,-2.19 -2.58,-2.19 -1.55,0 -2.71,1.03 -2.71,2.19 z"
   inkscape:connector-curvature="0" />
	<path
   id="path131"
   style="fill-rule:evenodd;stroke:#000000;stroke-width:0.036;stroke-miterlimit:10"
   d="m 159.07,101.87 c 0,4.51 4.25,8.12 9.54,8.12 5.29,0 9.54,-3.61 9.54,-8.12 0,-4.514 -4.25,-8.125 -9.54,-8.125 -5.29,0 -9.54,3.611 -9.54,8.125 z"
   inkscape:connector-curvature="0" />
	<path
   id="path133"
   style="fill:#ffffff;fill-rule:evenodd;stroke:#000000;stroke-width:0.036;stroke-miterlimit:10"
   d="m 165.39,99.032 c 0,1.288 1.15,2.188 2.57,2.188 1.42,0 2.58,-0.9 2.58,-2.188 0,-1.162 -1.16,-2.192 -2.58,-2.192 -1.42,0 -2.57,1.031 -2.57,2.192 z"
   inkscape:connector-curvature="0" />
	<path
   id="path135"
   style="fill-rule:evenodd;stroke:#000000;stroke-width:0.036;stroke-miterlimit:10"
   d="m 77.19,85.235 c -0.645,-1.547 -1.032,-4.641 -1.161,-6.318 -0.387,-2.321 -1.031,-5.029 -0.516,-6.189 0.387,-1.289 1.548,-1.676 2.451,-1.16 0.129,0.257 0.516,0.257 1.161,3.482 0.516,2.707 2.836,11.217 2.964,13.667 -0.387,2.32 -2.448,0.902 -3.223,0.643 -1.032,-0.902 -1.419,-2.448 -1.676,-4.125 z"
   inkscape:connector-curvature="0" />
	<path
   id="path137"
   style="fill-rule:evenodd;stroke:#000000;stroke-width:0.036;stroke-miterlimit:10"
   d="m 72.29,89.62 c -0.903,-1.677 -1.935,-4.126 -2.578,-5.803 -1.032,-2.063 -1.807,-4.9 -1.807,-6.06 -0.128,-1.418 1.418,-1.935 2.193,-1.548 0.386,0 0.515,0.386 1.804,3.096 1.418,2.836 5.287,9.928 6.06,12.765 0.386,2.062 -2.321,1.804 -3.094,1.289 -0.903,-0.774 -1.933,-2.192 -2.578,-3.739 z"
   inkscape:connector-curvature="0" />
	<path
   id="path139"
   style="fill:#ffffff;fill-rule:evenodd;stroke:#000000;stroke-width:0.036;stroke-miterlimit:10"
   d="m 106.46,62.799 c -2.58,0.775 -5.29,2.323 -8.125,4.127 -3.481,1.418 -6.705,4.512 -9.669,6.833 -2.966,2.193 -5.416,4.771 -7.351,7.221 3.61,0.903 6.962,2.064 11.09,3.482 4.125,1.289 8.635,3.48 12.115,4.512 2.58,0.902 4.52,0.902 5.81,0.516 1.03,-0.257 1.42,-1.548 1.16,-3.353 -0.65,-2.707 -2.45,-7.607 -3.35,-10.702 -1.16,-3.352 -1.81,-6.705 -1.94,-8.51 -0.13,-2.062 -0.51,-3.61 0.26,-4.126 z"
   inkscape:connector-curvature="0" />
	<path
   id="path141"
   style="fill:#ffffff;fill-rule:evenodd;stroke:#000000;stroke-width:0.036;stroke-miterlimit:10"
   d="m 72.549,92.327 c 1.545,3.096 2.964,5.544 4.771,7.863 1.676,1.94 3.094,3.1 5.285,5.03 1.805,1.55 4.9,3.22 6.319,5.03 1.16,1.42 1.935,2.71 1.289,3.87 -1.418,0.77 -3.48,1.68 -6.189,2.71 -2.964,1.03 -5.415,1.41 -9.412,2.57 -4.255,0.78 -8.897,1.68 -14.956,2.71 1.804,-5.67 3.996,-10.7 6.059,-15.6 2.063,-5.16 4.511,-9.542 6.834,-14.183 z"
   inkscape:connector-curvature="0" />
	<path
   id="path143"
   style="fill:#ffffff;fill-rule:evenodd;stroke:#000000;stroke-width:0.036;stroke-miterlimit:10"
   d="m 54.625,137.46 c 1.548,1.8 3.224,2.96 5.546,4.9 2.191,1.8 4.511,2.96 7.478,4.9 2.707,1.16 5.673,2.7 8.38,3.61 2.45,0.38 4.255,0.9 5.416,1.54 0.773,0.52 0.773,0.65 -1.031,2.45 -2.58,1.68 -8.64,5.03 -12.249,7.61 -3.612,1.93 -6.448,3.1 -9.542,5.42 -3.481,2.06 -7.091,4.64 -10.831,7.73 -0.516,-4.38 -0.386,-9.54 0.902,-15.99 1.16,-6.44 2.967,-13.66 5.931,-22.17 z"
   inkscape:connector-curvature="0" />
	<path
   id="path145"
   style="fill:#ffffff;fill-rule:evenodd;stroke:#000000;stroke-width:0.036;stroke-miterlimit:10"
   d="m 47.406,187.23 c 1.288,0.64 4.125,2.06 7.092,2.83 2.836,0.65 7.735,2.07 11.732,2.71 3.609,0.39 7.479,0 11.089,0.39 3.74,0 8.38,-0.26 10.443,0.64 1.291,0.39 0.904,0.78 -0.644,3.1 -1.548,2.45 -5.029,6.44 -7.478,10.57 -2.709,3.1 -4.643,6.71 -7.221,10.83 -3.095,4.13 -5.803,8.77 -9.542,14.44 -2.45,-3.61 -5.157,-7.22 -7.092,-11.86 -2.063,-4.77 -5.028,-9.67 -5.932,-15.21 -1.288,-5.81 -2.447,-11.61 -2.447,-18.44 z"
   inkscape:connector-curvature="0" />
	<path
   id="path147"
   style="fill:#ffffff;fill-rule:evenodd;stroke:#000000;stroke-width:0.036;stroke-miterlimit:10"
   d="m 72.29,242.67 c 2.45,-0.39 5.544,-0.39 9.283,-1.42 3.225,-1.16 8.51,-2.45 12.379,-3.87 3.612,-1.8 7.218,-3.73 10.318,-5.28 2.83,-1.94 5.03,-3.36 7.09,-4.26 1.16,-1.03 2.32,-1.93 2.96,-1.67 0.65,0 1.42,-0.39 2.33,1.8 0.77,1.94 1.67,6.96 2.7,10.57 0.65,3.1 2.07,6.58 2.84,9.42 0.77,2.19 0.77,4.64 2.06,6.83 1.03,2.19 2.2,4.77 4,7.22 -7.09,-1.41 -13.54,-2.45 -19.34,-4.13 -6.19,-1.41 -10.057,-2.96 -16.117,-5.15 -6.19,-2.71 -13.025,-6.06 -20.503,-10.06 z"
   inkscape:connector-curvature="0" />
	<path
   id="path149"
   style="fill:#ffffff;fill-rule:evenodd;stroke:#000000;stroke-width:0.036;stroke-miterlimit:10"
   d="m 148.24,264.46 c 1.67,-1.93 4.12,-3.86 5.93,-6.83 1.67,-2.83 4.13,-7.22 5.8,-10.19 1.42,-3.48 2.19,-6.96 3.74,-8.51 0.9,-1.41 2.06,-1.55 4,0.13 1.93,0.9 4.51,5.8 7.73,8.25 2.97,2.33 6.32,5.03 9.54,7.1 2.71,1.93 5.16,3.87 7.36,5.29 1.93,1.41 3.6,2.7 5.02,3.86 -3.22,0.39 -6.83,0.13 -11.86,0.65 -5.42,0.38 -11.35,0.13 -17.79,0.64 -6.32,0 -12.64,-0.13 -19.47,-0.39 z"
   inkscape:connector-curvature="0" />
	<path
   id="path151"
   style="fill:#ffffff;fill-rule:evenodd;stroke:#000000;stroke-width:0.036;stroke-miterlimit:10"
   d="m 224.31,261.24 c 1.03,-4.13 2.45,-8.51 2.84,-13.15 0,-5.16 -0.39,-12.38 0.38,-15.22 0.78,-2.71 1.94,-2.71 5.03,-1.93 2.84,0.12 6.58,2.32 11.74,4.12 5.28,1.55 12.25,3.48 18.44,5.29 5.54,1.55 10.57,2.84 15.08,4.39 -5.28,2.83 -10.7,5.41 -16.25,7.73 -5.93,1.94 -11.47,4.26 -17.66,5.55 -6.19,1.16 -12.89,2.7 -19.6,3.22 z"
   inkscape:connector-curvature="0" />
	<path
   id="path153"
   style="fill:#ffffff;fill-rule:evenodd;stroke:#000000;stroke-width:0.036;stroke-miterlimit:10"
   d="m 313.66,207.47 c -1.41,-0.39 -3.73,-0.39 -6.96,-1.42 -3.22,-1.16 -8.5,-2.58 -12.37,-3.74 -4.65,-1.54 -9.67,-3.48 -12.64,-4.25 -3.22,-1.68 -4.51,-2.32 -5.29,-2.45 -1.03,-0.26 -1.16,0.26 -0.39,3.09 0.65,2.71 2.46,7.87 4.39,13.02 1.68,4.52 3.48,11.87 5.42,16.12 1.54,4.26 2.57,7.48 3.6,9.67 3.48,-3.22 7.36,-6.57 10.19,-9.54 2.84,-3.35 5.67,-5.93 8,-9.15 2.19,-3.23 4.38,-7.48 6.05,-11.35 z"
   inkscape:connector-curvature="0" />
	<path
   id="path155"
   style="fill:#ffffff;fill-rule:evenodd;stroke:#000000;stroke-width:0.036;stroke-miterlimit:10"
   d="m 329.91,154.73 c -2.45,0.52 -5.41,1.16 -9.41,1.94 -4.25,0.64 -10.19,1.03 -14.31,1.67 -4.52,-0.12 -8.51,-0.12 -10.96,0 -2.84,-0.25 -4.39,-0.25 -4.64,0.52 -0.52,0.77 0.38,1.55 2.7,4.26 1.94,2.32 6.32,5.67 11.09,10.05 4.9,4.26 10.19,8.64 17.41,14.57 2.06,-6.57 3.87,-11.99 5.41,-17.66 1.17,-5.8 2.07,-10.45 2.71,-15.35 z"
   inkscape:connector-curvature="0" />
	<path
   id="path157"
   style="fill:#ffffff;fill-rule:evenodd;stroke:#000000;stroke-width:0.036;stroke-miterlimit:10"
   d="m 315.34,95.937 c -2.32,3.868 -4.38,7.093 -6.19,11.093 -2.06,3.35 -3.87,8.12 -4.9,10.83 -1.41,2.32 -2.32,3.74 -1.67,4.77 0.64,0.9 2.83,1.55 6.06,2.45 2.84,0.64 8.9,2.06 12.25,2.83 3.09,0.78 5.67,0.52 7.22,0.65 -1.16,-6.32 -3.35,-12.12 -5.16,-17.41 -2.45,-5.54 -4.51,-10.44 -7.61,-15.213 z"
   inkscape:connector-curvature="0" />
	<path
   id="path159"
   style="fill:#ffffff;fill-rule:evenodd;stroke:#000000;stroke-width:0.036;stroke-miterlimit:10"
   d="m 277.05,63.574 c -0.65,3.352 -1.55,6.833 -2.2,10.443 -1.15,3.481 -2.06,6.962 -2.7,9.929 -0.91,2.45 -2.19,4.899 -1.42,6.317 0.26,1.418 1.29,2.322 4.64,2.708 3.35,0 10.45,-0.646 14.83,-0.902 3.61,-0.389 6.58,-0.389 9.41,-1.033 2.71,-0.902 5.29,-2.45 7.74,-4.125 -4.26,-4.384 -8.64,-8.51 -13.67,-12.378 -5.42,-4.126 -10.44,-7.607 -16.63,-10.959 z"
   inkscape:connector-curvature="0" />
	<path
   id="path161"
   style="fill:#ffffff;fill-rule:evenodd;stroke:#000000;stroke-width:0.036;stroke-miterlimit:10"
   d="m 219.15,49.906 c 1.68,1.676 2.84,4.125 4,6.317 0.9,2.063 1.03,4.771 1.93,7.607 0.52,2.837 0.78,7.092 1.81,9.285 0.51,2.062 1.55,2.836 3.61,2.836 2.06,-0.388 4.77,-2.193 8.64,-3.998 3.61,-2.064 8.77,-5.673 13.54,-7.865 4.25,-2.579 8.77,-3.998 13.02,-5.673 -9.54,-3.095 -17.41,-5.287 -23.6,-6.575 -6.31,-1.161 -10.31,-1.677 -13.92,-1.548 -4,-0.386 -6.83,-0.515 -9.03,-0.386 z"
   inkscape:connector-curvature="0" />
	<path
   id="path163"
   style="fill:#ffffff;fill-rule:evenodd;stroke:#000000;stroke-width:0.036;stroke-miterlimit:10"
   d="m 207.68,51.195 c -1.29,-0.386 -4.13,0 -10.06,0.646 -5.93,0.643 -13.93,2.062 -24.5,3.739 3.22,2.707 5.54,5.158 7.48,7.865 1.42,2.191 2.06,4.641 3.48,7.35 1.16,2.321 2.71,7.478 4.13,8.51 0.77,0.643 1.67,-0.388 3.22,-3.096 1.42,-3.094 4.64,-10.315 6.71,-13.667 1.67,-3.223 3.09,-4.385 4.77,-5.933 1.29,-1.932 3.35,-3.738 4.77,-5.414 z"
   inkscape:connector-curvature="0" />
	<path
   id="path165"
   style="fill:#ffffff;fill-rule:evenodd;stroke:#000000;stroke-width:0.036;stroke-miterlimit:10"
   d="m 132.89,58.287 c 1.81,-0.129 4.13,-0.129 6.97,0 2.44,-0.129 5.41,0.129 8.89,0.257 2.97,-0.387 6.32,-0.516 9.54,-0.902 3.1,-0.516 6.32,-0.903 9.67,-1.16 -1.8,2.707 -3.35,6.575 -5.16,10.185 -1.93,3.869 -4.25,9.155 -5.41,12.379 -1.16,2.579 -2.06,3.868 -2.71,3.868 -1.16,-0.387 -1.93,-1.805 -3.74,-4.255 -2.19,-3.224 -5.93,-8.253 -8.76,-11.605 -3.23,-3.353 -6.32,-6.446 -9.29,-8.767 z"
   inkscape:connector-curvature="0" />
	<path
   id="path167"
   style="fill-rule:evenodd;stroke:#000000;stroke-width:0.036;stroke-miterlimit:10"
   d="m 48.179,152.67 c -1.935,-1.16 -5.028,-2.97 -6.835,-4.38 -2.32,-1.68 -5.543,-3.61 -6.188,-4.77 -0.773,-1.42 0,-2.84 1.291,-2.71 0.516,-0.26 0.903,0 4.125,2.19 3.094,1.8 12.894,6.96 15.472,9.02 1.805,1.81 -1.16,2.58 -2.449,2.84 -1.291,-0.26 -3.741,-1.16 -5.416,-2.19 z"
   inkscape:connector-curvature="0" />
	<path
   id="path169"
   style="fill-rule:evenodd;stroke:#000000;stroke-width:0.036;stroke-miterlimit:10"
   d="m 50.37,145.06 c -1.804,-1.16 -3.223,-2.19 -4.771,-3.09 -1.675,-1.03 -3.739,-2.84 -4.255,-3.35 -0.772,-0.91 0,-2.2 0.775,-1.94 0.516,-0.39 0.516,0.13 2.966,1.55 2.321,1.29 8.897,4.77 10.831,6.45 1.289,1.16 -0.775,1.8 -1.677,1.93 -1.16,0 -2.451,-1.16 -3.869,-1.55 z"
   inkscape:connector-curvature="0" />
	<path
   id="path171"
   style="fill-rule:evenodd;stroke:#000000;stroke-width:0.036;stroke-miterlimit:10"
   d="m 108.78,259.56 c -1.8,1.42 -3.87,4 -5.67,5.81 -2.19,1.54 -4.644,4.38 -5.934,5.02 -1.677,0.26 -2.449,-1.03 -2.322,-1.8 -0.257,-1.03 0.516,-0.9 2.837,-3.61 2.449,-3.1 9.669,-11.61 12.249,-13.15 2.06,-1.55 2.32,1.29 2.19,2.96 -0.64,1.29 -1.93,2.71 -3.35,4.77 z"
   inkscape:connector-curvature="0" />
	<path
   id="path173"
   style="fill-rule:evenodd;stroke:#000000;stroke-width:0.036;stroke-miterlimit:10"
   d="m 101.82,255.83 c -1.16,1.28 -2.969,2.45 -4.001,3.99 -1.674,1.03 -3.223,2.84 -4.125,3.48 -1.032,0.13 -1.934,-0.77 -1.677,-1.29 0,-0.64 0,-0.77 2.063,-2.45 1.804,-2.19 6.32,-8.25 8.51,-9.28 1.16,-0.9 1.68,0.65 1.55,2.19 -0.26,1.03 -1.68,1.81 -2.32,3.36 z"
   inkscape:connector-curvature="0" />
	<path
   id="path175"
   style="fill-rule:evenodd;stroke:#000000;stroke-width:0.036;stroke-miterlimit:10"
   d="m 207.42,259.56 c 0.52,1.42 1.29,4 1.8,6.19 0.39,1.94 1.16,4.77 1.29,6.07 -0.64,1.03 -1.54,1.16 -2.19,0.9 -0.38,-0.65 -1.03,-0.78 -1.42,-3.36 -1.41,-2.83 -4.25,-11.47 -4.51,-13.53 -0.39,-2.33 1.94,-1.29 2.97,-0.39 0.77,0.51 1.29,2.06 2.06,4.12 z"
   inkscape:connector-curvature="0" />
	<path
   id="path177"
   style="fill-rule:evenodd;stroke:#000000;stroke-width:0.036;stroke-miterlimit:10"
   d="m 200.07,260.21 c 0.39,1.42 0.51,3.61 0.9,5.54 -0.13,1.55 0.52,4.39 0.39,5.55 -0.77,0.9 -1.42,0.9 -1.93,0.52 -0.52,-0.52 -0.65,-0.91 -0.91,-3.23 -1.03,-2.97 -2.32,-10.19 -2.45,-12.25 -0.13,-2.45 1.94,-0.64 2.71,0 0.52,0.39 0.78,2.32 1.29,3.87 z"
   inkscape:connector-curvature="0" />
	<path
   id="path179"
   style="fill-rule:evenodd;stroke:#000000;stroke-width:0.036;stroke-miterlimit:10"
   d="m 302.71,225.52 c 1.16,0.39 2.57,1.29 4.25,2.71 1.68,1.42 4.13,3.74 5.93,4.9 1.16,0.77 3.23,0.65 2.71,-0.39 -0.9,-1.42 -3.74,-5.54 -6.45,-7.35 -3.09,-2.45 -7.09,-4.38 -9.02,-4.77 -1.93,-0.64 -1.93,2.19 -1.42,3.1 0.51,0.77 2.19,0.9 4,1.8 z"
   inkscape:connector-curvature="0" />
	<path
   id="path181"
   style="fill-rule:evenodd;stroke:#000000;stroke-width:0.036;stroke-miterlimit:10"
   d="m 297.29,230.68 c 0.77,0.52 2.19,1.16 3.74,2.45 1.29,1.16 3.87,3.09 5.29,4.25 1.29,0.52 2.57,0.39 2.32,-0.38 -0.78,-1.29 -3.49,-4.77 -5.68,-6.45 -2.32,-2.19 -6.44,-3.74 -7.86,-4.13 -1.68,-0.38 -1.94,1.68 -1.29,2.71 0.26,0.65 2.06,0.52 3.48,1.55 z"
   inkscape:connector-curvature="0" />
	<path
   id="path183"
   style="fill-rule:evenodd;stroke:#000000;stroke-width:0.036;stroke-miterlimit:10"
   d="m 322.69,108.7 c 1.42,-0.77 4,-1.29 6.19,-1.54 1.81,-0.52 5.03,-1.42 6.19,-0.78 0.77,0.26 1.55,1.16 0.9,2.19 -0.52,0.13 -0.9,0.52 -3.61,1.16 -3.48,0.39 -11.21,3.62 -13.8,3.75 -2.57,-0.26 -0.77,-2.07 -0.12,-2.97 0.38,-1.03 2.32,-1.29 4.25,-1.81 z"
   inkscape:connector-curvature="0" />
	<path
   id="path185"
   style="fill-rule:evenodd;stroke:#000000;stroke-width:0.036;stroke-miterlimit:10"
   d="m 322.82,116.05 c 1.42,-0.38 3.48,-0.38 5.68,-0.51 1.54,-0.26 4.38,-0.78 5.54,-0.13 0.64,0.26 0.77,1.29 0.39,2.06 -0.52,0.39 -0.91,0.13 -3.23,0.65 -2.83,0.12 -10.44,1.67 -12.38,1.67 -1.93,-0.13 -0.9,-2.32 0.13,-2.58 0.65,-0.64 1.94,-1.03 3.87,-1.16 z"
   inkscape:connector-curvature="0" />
	<path
   id="path187"
   style="fill-rule:evenodd;stroke:#000000;stroke-width:0.036;stroke-miterlimit:10"
   d="m 124,165.44 c -7.48,-1.16 -24.889,-1.94 -38.3,-3.36 -13.796,-1.93 -31.075,-6.06 -41.906,-7.48 -10.574,-1.93 -17.407,-2.7 -21.018,-2.83 -3.996,-0.39 -3.996,1.8 -2.964,2.58 0.128,0.25 1.805,0.64 6.962,1.67 5.544,1.16 14.184,2.07 24.887,4.13 10.185,1.55 24.627,4.9 35.844,6.57 10.445,1.42 21.795,1.81 28.495,2.58 6.45,0.13 10.58,0.65 11.86,0.13 1.29,-1.03 2.97,-2.7 -3.86,-3.99 z"
   inkscape:connector-curvature="0" />
	<path
   id="path189"
   style="fill-rule:evenodd;stroke:#000000;stroke-width:0.036;stroke-miterlimit:10"
   d="m 28.063,193.55 c 8.253,-1.04 16.506,-2.58 27.207,-4.13 10.314,-1.94 23.982,-5.54 34.556,-7.35 10.444,-2.45 20.894,-4.38 27.334,-5.29 5.67,-1.03 8.25,-0.9 9.28,-0.13 1.16,0.26 3.1,1.68 -2.19,3.23 -5.93,1.29 -20.37,3.09 -30.941,5.41 -10.704,2.07 -21.405,4.9 -32.623,7.1 -11.605,1.67 -25.402,3.73 -34.428,4.77 -9.542,0.9 -16.504,2.19 -20.888,2.32 -4.384,-0.39 -5.673,-1.42 -5.287,-2.07 0,-0.64 1.161,-1.41 5.932,-1.8 4.771,-0.77 13.281,-1.29 22.048,-2.06 z"
   inkscape:connector-curvature="0" />
	<path
   id="path191"
   style="fill-rule:evenodd;stroke:#000000;stroke-width:0.036;stroke-miterlimit:10"
   d="m 33.866,235.84 c 7.608,-4.13 24.628,-12.77 35.072,-17.92 9.928,-5.42 16.762,-8.26 25.529,-12.51 8.253,-4.77 20.113,-10.7 25.663,-12.77 5.29,-1.93 6.83,-1.03 6.06,0.65 -0.91,0.77 -4.51,2.83 -11.87,6.7 -8.38,3.87 -22.946,10.32 -34.679,16.38 -11.349,5.8 -23.082,11.73 -33.267,17.79 -10.703,5.68 -23.725,12.51 -30.173,15.99 -7.092,2.84 -9.153,2.58 -10.185,2.19 -1.162,-0.51 0.902,-3.09 4.126,-4.77 2.836,-2.45 9.284,-4.51 13.41,-6.7 3.351,-1.81 2.965,-1.68 10.314,-5.03 z"
   inkscape:connector-curvature="0" />
	<path
   id="path193"
   style="fill-rule:evenodd;stroke:#000000;stroke-width:0.036;stroke-miterlimit:10"
   d="m 249.71,149.96 c 6.71,-2.84 23.86,-6.32 37.01,-10.44 12.76,-4.77 27.98,-10.7 39.71,-15.34 11.61,-4.9 23.47,-10.96 29.14,-12.64 5.16,-1.81 4,0.64 3.48,1.94 -0.64,0.51 -0.13,0 -6.45,2.96 -6.96,2.71 -21.53,9.93 -32.74,14.7 -11.61,4.64 -23.6,9.02 -33.91,13.15 -10.45,3.35 -21.15,6.19 -27.6,7.99 -6.7,1.55 -10.57,2.71 -11.6,2.45 -1.55,-0.51 -3.87,-2.45 2.96,-4.77 z"
   inkscape:connector-curvature="0" />
	<path
   id="path195"
   style="fill-rule:evenodd;stroke:#000000;stroke-width:0.036;stroke-miterlimit:10"
   d="m 341.26,159.89 c -8.51,0.65 -17.02,1.16 -27.47,1.55 -10.7,0.13 -25.01,-0.39 -35.45,-0.13 -10.84,-0.13 -21.41,0 -27.73,0.39 -6.19,0.13 -8.25,1.03 -9.15,1.67 -1.03,0.65 -3.22,2.07 2.84,2.71 5.67,0.26 20.24,-1.03 31.33,-0.9 10.83,0 21.79,0.26 33.39,0.26 11.48,-0.52 25.02,-1.81 34.69,-2.32 9.41,-0.91 16.25,-1.04 21.02,-1.81 4.12,-1.16 4.51,-2.58 4.64,-3.22 -0.13,-0.78 -1.81,-0.78 -6.06,-0.52 -5.16,0.52 -13.67,1.29 -22.05,2.32 z"
   inkscape:connector-curvature="0" />
	<path
   id="path197"
   style="fill-rule:evenodd;stroke:#000000;stroke-width:0.036;stroke-miterlimit:10"
   d="m 333.52,191.61 c -8.25,-2.58 -27.33,-7.35 -37.91,-10.31 -11.21,-2.97 -20.76,-5.29 -27.59,-6.97 -6.96,-1.8 -10.7,-3.61 -13.67,-3.48 -3.73,-0.25 -6.83,0.52 -5.8,1.81 0.77,1.16 7.09,2.06 13.02,4.12 5.55,1.29 13.41,2.71 23.08,5.29 9.93,2.58 24.5,6.71 36.24,10.45 11.34,3.09 25.65,7.73 33,9.41 6.71,1.41 9.67,0.25 10.32,0 0.77,-0.91 -2.07,-2.32 -5.03,-3.74 -3.35,-1.55 -10.32,-2.84 -14.44,-3.87 -4.64,-1.42 -3.09,-0.52 -11.22,-2.71 z"
   inkscape:connector-curvature="0" />
	<path
   id="path199"
   style="fill-rule:evenodd;stroke:#000000;stroke-width:0.036;stroke-miterlimit:10"
   d="m 184.21,58.544 c 1.03,-1.418 2.19,-3.48 4.9,-5.673 2.32,-2.191 7.87,-6.06 10.19,-7.608 1.67,-1.934 2.45,-3.223 2.32,-3.867 -0.39,-0.902 -0.91,-1.29 -2.07,-0.645 -1.54,0.516 -3.22,2.191 -5.03,3.996 -1.93,1.548 -3.6,2.966 -5.54,4.771 -2.06,1.291 -5.03,3.741 -5.93,5.417 -1.03,1.418 -1.94,3.223 -1.29,3.998 0,0.513 1.16,0.386 2.45,-0.389 z"
   inkscape:connector-curvature="0" />
	<path
   id="path201"
   style="fill-rule:evenodd;stroke:#000000;stroke-width:0.036;stroke-miterlimit:10"
   d="m 179.7,56.868 c 0.51,-1.031 1.29,-3.609 2.83,-5.673 1.42,-2.708 5.16,-6.189 6.71,-8.381 1.29,-1.807 1.03,-3.481 1.29,-3.611 -0.13,-1.16 -1.42,-0.773 -1.94,-0.257 -1.03,0.644 -2.32,2.45 -3.35,4.383 -1.29,1.677 -2.45,3.225 -3.48,5.159 -1.55,1.805 -2.97,3.867 -3.74,5.673 -0.77,1.289 -0.9,2.965 -0.39,3.481 0.01,0.386 1.16,0.129 2.07,-0.774 z"
   inkscape:connector-curvature="0" />
	<path
   id="path203"
   style="fill-rule:evenodd;stroke:#000000;stroke-width:0.036;stroke-miterlimit:10"
   d="m 158.16,61.381 c -1.16,-1.16 -1.93,-3.867 -3.35,-5.673 -1.55,-1.805 -2.71,-3.48 -4.51,-4.512 -2.32,-1.289 -5.03,-1.934 -6.19,-2.45 -1.55,-0.772 -1.03,-1.805 -0.9,-2.064 -0.26,-0.772 0.51,-1.289 1.8,-1.03 1.03,0 3.23,0 5.55,1.933 1.93,1.548 5.28,4.771 7.09,7.221 1.55,1.804 2.45,3.998 2.71,5.157 -0.26,1.161 -1.16,1.806 -2.2,1.418 z"
   inkscape:connector-curvature="0" />
	<path
   id="path205"
   style="fill-rule:evenodd;stroke:#000000;stroke-width:0.036;stroke-miterlimit:10"
   d="m 164.1,58.287 c -1.3,-1.289 -2.45,-5.157 -3.48,-7.607 -1.42,-3.224 -2.2,-6.447 -2.32,-8.124 -0.26,-1.548 1.02,-2.191 1.93,-1.418 0.39,0.387 0.51,2.321 1.42,4.384 0.64,1.548 1.67,5.288 2.57,7.221 0.39,1.418 1.55,3.224 1.55,3.997 -0.38,1.031 -0.77,2.063 -1.67,1.547 z"
   inkscape:connector-curvature="0" />
	<path
   id="path207"
   style="fill-rule:evenodd;stroke:#000000;stroke-width:0.036;stroke-miterlimit:10"
   d="m 171.7,55.708 c -0.51,-0.516 -0.9,-1.546 -0.64,-3.094 0,-1.677 0.64,-4.9 1.42,-6.705 0.64,-2.064 1.67,-3.869 2.58,-5.415 0.38,-2.063 0,-4.385 0.77,-5.932 0.51,-1.805 1.81,-4.385 2.83,-4.771 0.39,-0.902 1.55,0.13 1.55,1.162 -0.39,0.773 -1.55,2.708 -1.93,4.382 -0.9,1.807 -0.65,3.353 -1.16,5.673 -1.16,2.193 -2.07,4.644 -2.71,6.835 -0.77,1.548 -0.9,3.094 -0.9,4.126 -0.13,0.774 -0.13,1.29 0,2.063 -0.65,0.645 -1.42,1.676 -1.81,1.676 z"
   inkscape:connector-curvature="0" />
	<path
   id="path209"
   style="fill-rule:evenodd;stroke:#000000;stroke-width:0.036;stroke-miterlimit:10"
   d="m 185.37,169.05 c -4.38,0.25 -8.25,0.25 -11.6,0 -3.36,-0.65 -6.32,-1.42 -9.42,-2.84 -3.61,-1.81 -7.22,-5.41 -11.34,-7.35 -4.77,-2.19 -10.83,-4.13 -14.7,-5.8 -3.87,-1.68 -6.32,-3.1 -7.87,-4.77 -2.19,-2.45 -3.35,-5.03 -3.48,-7.74 -0.52,-2.45 -0.13,-5.67 2.19,-7.22 2.45,-2.19 6.32,-3.74 11.61,-4.13 4.51,-0.9 11.47,0.65 17.4,1.68 5.81,0.77 12.51,4.26 17.67,5.03 4.64,0.51 5.54,0.26 11.09,-1.29 5.28,-2.06 14.18,-6.83 20.76,-8.38 6.7,-1.42 12.63,-1.42 17.28,-0.52 3.86,0.39 5.93,1.16 6.7,3.87 0.52,2.45 -0.77,7.09 -2.84,10.96 -2.96,3.23 -7.99,7.22 -11.09,10.06 -2.57,2.58 -3.48,4.38 -5.15,6.96 -2.07,2.32 -3.61,5.55 -7.1,7.61 -4.25,1.68 -9.28,2.96 -16.5,3.35 0,5.8 0.52,11.35 1.55,16.63 0.9,5.16 1.8,10.06 4.25,14.7 2.19,4.39 5.93,8.64 9.29,12.25 2.83,2.97 5.41,5.42 9.15,6.84 3.48,1.41 8.64,1.93 12.51,1.55 3.48,-0.78 6.32,-1.94 9.93,-4.52 3.61,-2.96 8.76,-8.77 11.47,-10.44 2.19,-1.94 2.45,-0.39 2.32,0.64 -0.51,0.9 -2.45,3.36 -4.77,5.8 -2.58,2.2 -5.67,5.81 -9.79,7.87 -4.77,1.93 -10.07,3.48 -15.35,3.61 -5.16,-0.39 -10.19,-2.58 -14.06,-5.16 -3.86,-2.84 -7.6,-8.38 -9.8,-11.6 -2.57,-3.36 -4.25,-6.96 -5.02,-9.42 -0.65,5.16 -1.94,9.8 -3.87,14.45 -2.19,4.38 -4.9,9.15 -8.13,12.37 -3.6,2.71 -7.22,4.13 -11.34,4.78 -4.38,0.38 -9.03,-0.78 -13.41,-1.55 -4.64,-1.42 -9.03,-3.1 -12.64,-5.03 -3.74,-2.06 -7.86,-5.54 -9.41,-6.96 -1.68,-1.94 -0.9,-3.36 -0.13,-3.23 0.52,-0.25 1.55,1.03 3.61,2.45 1.55,1.16 4.26,2.97 7.09,4.9 2.84,1.29 5.81,3.36 9.93,4.64 3.87,1.04 9.54,1.94 13.54,2.2 3.61,-0.39 6.19,-1.29 9.16,-3.23 2.57,-1.67 4.51,-4.64 6.83,-8.38 1.93,-4.64 4.9,-11.99 5.93,-17.02 0.64,-4.9 0.13,-8.25 0,-11.99 -0.39,-4 -1.42,-8.77 -1.68,-11.35 -0.51,-2.83 -0.77,-4.77 -0.77,-5.28 z"
   inkscape:connector-curvature="0" />
	<path
   id="path211"
   style="fill:#ffffff;fill-rule:evenodd;stroke:#000000;stroke-width:0.036;stroke-miterlimit:10"
   d="m 133.15,137.84 c 0,0.52 0.52,1.04 1.16,1.04 0.77,0 1.29,-0.52 1.29,-1.04 0,-0.51 -0.52,-1.03 -1.29,-1.03 -0.64,0 -1.16,0.52 -1.16,1.03 z"
   inkscape:connector-curvature="0" />
	<path
   id="path213"
   style="fill:#ffffff;fill-rule:evenodd;stroke:#000000;stroke-width:0.036;stroke-miterlimit:10"
   d="m 135.47,135.65 c 0,0.52 0.52,1.03 1.29,1.03 0.65,0 1.16,-0.51 1.16,-1.03 0,-0.51 -0.51,-1.03 -1.16,-1.03 -0.77,0 -1.29,0.52 -1.29,1.03 z"
   inkscape:connector-curvature="0" />
	<path
   id="path215"
   style="fill:#ffffff;fill-rule:evenodd;stroke:#000000;stroke-width:0.036;stroke-miterlimit:10"
   d="m 159.97,136.81 c 0,0.52 0.65,1.03 1.29,1.03 0.64,0 1.29,-0.51 1.29,-1.03 0,-0.64 -0.65,-1.03 -1.29,-1.03 -0.64,0 -1.29,0.39 -1.29,1.03 z"
   inkscape:connector-curvature="0" />
	<path
   id="path217"
   style="fill:#ffffff;fill-rule:evenodd;stroke:#000000;stroke-width:0.036;stroke-miterlimit:10"
   d="m 163.71,138.49 c 0,0.51 0.64,1.03 1.29,1.03 0.64,0 1.29,-0.52 1.29,-1.03 0,-0.65 -0.65,-1.03 -1.29,-1.03 -0.65,0 -1.29,0.38 -1.29,1.03 z"
   inkscape:connector-curvature="0" />
	<path
   id="path219"
   style="fill:#ffffff;fill-rule:evenodd;stroke:#000000;stroke-width:0.036;stroke-miterlimit:10"
   d="m 219.8,140.55 c 0,0.52 0.51,1.03 1.16,1.03 0.77,0 1.29,-0.51 1.29,-1.03 0,-0.64 -0.52,-1.03 -1.29,-1.03 -0.65,0 -1.16,0.39 -1.16,1.03 z"
   inkscape:connector-curvature="0" />
	<path
   id="path221"
   style="fill:#ffffff;fill-rule:evenodd;stroke:#000000;stroke-width:0.036;stroke-miterlimit:10"
   d="m 202.91,160.41 c 0,0.51 0.51,1.03 1.16,1.03 0.77,0 1.29,-0.52 1.29,-1.03 0,-0.65 -0.52,-1.03 -1.29,-1.03 -0.65,0 -1.16,0.38 -1.16,1.03 z"
   inkscape:connector-curvature="0" />
	<path
   id="path223"
   style="fill:#ffffff;fill-rule:evenodd;stroke:#000000;stroke-width:0.036;stroke-miterlimit:10"
   d="m 152.23,132.82 c -1.29,-0.26 -2.45,-0.39 -3.48,-0.39 -1.29,0 -2.45,-0.13 -3.48,0.13 -1.29,0.12 -3.35,0.12 -4.13,0.51 -1.41,0.26 -1.67,0.39 -2.19,0.9 -0.13,0.52 -0.51,0.39 0.26,1.03 0.26,0.13 0.26,0.13 1.42,0 1.03,-0.38 2.58,-1.03 4.64,-0.9 1.55,-0.38 2.84,0 4.39,0.13 1.41,0 2.19,0.26 3.74,0.77 1.16,0.26 2.7,0.78 3.6,1.04 0.65,-0.13 1.17,-1.04 1.04,-1.17 -0.39,-0.51 -1.29,-0.9 -2.2,-1.15 -1.03,-0.52 -2.7,-0.65 -3.61,-0.9 z"
   inkscape:connector-curvature="0" />
	<path
   id="path225"
   style="fill:#ffffff;fill-rule:evenodd;stroke:#000000;stroke-width:0.036;stroke-miterlimit:10"
   d="m 210.26,150.61 c 0.38,-1.03 0.64,-1.29 1.28,-1.81 0.39,-0.9 1.55,-1.42 2.46,-2.06 0.38,-0.9 1.54,-0.64 2.06,-1.16 0.9,-0.9 1.16,-2.06 2.19,-2.45 0.39,-0.52 1.55,-0.26 1.55,0.26 -0.13,0.51 -0.78,1.8 -1.42,2.83 -0.65,0.26 -1.94,1.29 -2.45,1.68 -1.03,0.39 -1.81,0.9 -2.32,1.55 -1.03,0.39 -0.9,0.9 -1.55,2.06 -1.03,1.29 -1.93,2.45 -2.71,4 -1.29,0.9 -1.93,1.8 -2.45,2.19 -1.03,0 -0.9,-0.52 -1.03,-1.03 -0.26,-0.77 0.65,-1.16 1.29,-2.19 0.52,-1.55 2.19,-2.84 3.1,-3.87 z"
   inkscape:connector-curvature="0" />
	<path
   id="path227"
   style="fill-rule:evenodd;stroke:#000000;stroke-width:0.036;stroke-miterlimit:10"
   d="m 44.053,341.31 c -1.934,-1.29 -5.03,-2.71 -6.834,-4.25 -2.321,-1.94 -5.544,-3.74 -6.189,-4.9 -0.773,-1.55 0,-2.58 1.289,-2.58 0.516,-0.39 0.902,0.13 4.127,2.06 3.094,1.81 12.893,6.84 15.472,9.16 1.805,1.8 -1.16,2.57 -2.45,2.83 -1.289,-0.13 -3.739,-1.42 -5.415,-2.32 z"
   inkscape:connector-curvature="0" />
	<path
   id="path229"
   style="fill-rule:evenodd;stroke:#000000;stroke-width:0.036;stroke-miterlimit:10"
   d="m 46.374,333.7 c -1.418,-0.9 -3.481,-2.06 -4.771,-2.96 -1.935,-1.42 -3.74,-2.58 -4.384,-3.48 -0.387,-1.04 -0.257,-1.81 0.902,-1.81 0.259,-0.38 0.516,0.13 2.837,1.55 2.32,1.03 8.896,4.77 10.831,6.32 0.902,1.16 -0.644,1.8 -1.676,1.93 -1.289,0 -2.192,-1.16 -3.739,-1.55 z"
   inkscape:connector-curvature="0" />
	<path
   id="path231"
   style="fill-rule:evenodd;stroke:#000000;stroke-width:0.036;stroke-miterlimit:10"
   d="m 335.97,346.98 c 1.68,-1.15 4.65,-2.96 6.84,-4.38 1.93,-1.68 5.15,-3.61 6.19,-4.77 0.51,-1.42 -0.39,-2.84 -1.29,-2.71 -0.91,-0.38 -1.29,0.13 -4.13,2.07 -3.48,1.8 -13.28,6.83 -15.47,9.15 -2.19,1.8 0.77,2.58 2.45,2.84 0.9,-0.26 3.35,-1.16 5.41,-2.2 z"
   inkscape:connector-curvature="0" />
	<path
   id="path233"
   style="fill-rule:evenodd;stroke:#000000;stroke-width:0.036;stroke-miterlimit:10"
   d="m 333.65,339.38 c 1.16,-1.16 3.1,-2.19 4.77,-3.1 1.55,-1.03 3.48,-2.83 4.39,-3.35 0,-0.9 -0.13,-2.19 -0.9,-1.93 -0.91,-0.39 -0.91,0.12 -2.97,1.54 -2.71,1.04 -9.28,4.78 -10.83,6.32 -1.42,1.03 0.51,2.06 1.8,2.06 0.78,0.01 2.19,-1.16 3.74,-1.54 z"
   inkscape:connector-curvature="0" />
	<path
   id="path235"
   style="fill-rule:evenodd;stroke:#000000;stroke-width:0.036;stroke-miterlimit:10"
   d="m 289.17,300.18 c 1.67,-1.16 4.64,-2.96 6.83,-4.38 1.94,-1.68 5.16,-3.62 6.19,-4.78 0.52,-1.41 -0.39,-2.83 -1.29,-2.7 -0.9,-0.26 -1.29,0 -4.12,2.19 -3.49,1.8 -13.29,6.96 -15.48,9.02 -2.19,1.81 0.78,2.58 2.45,2.84 0.91,-0.25 3.35,-1.16 5.42,-2.19 z"
   inkscape:connector-curvature="0" />
	<path
   id="path237"
   style="fill-rule:evenodd;stroke:#000000;stroke-width:0.036;stroke-miterlimit:10"
   d="m 286.85,292.57 c 1.41,-1.16 3.22,-2.19 4.9,-3.09 1.67,-1.03 3.09,-2.84 4.25,-3.35 0,-0.91 -0.13,-2.2 -0.9,-1.94 -0.64,-0.39 -0.77,0.13 -2.84,1.55 -2.71,1.29 -9.28,4.77 -10.83,6.44 -1.29,1.16 0.26,1.81 1.68,1.94 0.77,0 2.19,-1.16 3.74,-1.55 z"
   inkscape:connector-curvature="0" />
	<path
   id="path239"
   style="fill-rule:evenodd;stroke:#000000;stroke-width:0.036;stroke-miterlimit:10"
   d="m 93.05,300.18 c -1.936,-1.16 -5.029,-2.96 -6.833,-4.38 -2.321,-1.68 -5.545,-3.62 -6.189,-4.78 -0.774,-1.41 0,-2.83 1.289,-2.7 0.516,-0.26 0.903,0 4.125,2.19 3.096,1.8 12.895,6.96 15.478,9.02 1.8,1.81 -1.165,2.58 -2.453,2.84 -1.291,-0.25 -3.74,-1.16 -5.417,-2.19 z"
   inkscape:connector-curvature="0" />
	<path
   id="path241"
   style="fill-rule:evenodd;stroke:#000000;stroke-width:0.036;stroke-miterlimit:10"
   d="m 95.37,292.57 c -1.418,-1.16 -3.48,-2.19 -4.771,-3.09 -1.933,-1.03 -3.74,-2.84 -4.383,-3.35 -0.387,-0.91 -0.259,-2.2 0.902,-1.94 0.257,-0.39 0.516,0.13 2.837,1.55 2.321,1.29 8.896,4.77 10.835,6.44 0.9,1.16 -0.65,1.81 -1.68,1.94 -1.291,0 -2.193,-1.16 -3.74,-1.55 z"
   inkscape:connector-curvature="0" />
</g>
<metadata
   id="metadata121"><rdf:RDF><cc:Work><dc:format>image/svg+xml</dc:format><dc:type
         rdf:resource="http://purl.org/dc/dcmitype/StillImage" /><cc:license
         rdf:resource="http://creativecommons.org/publicdomain/zero/1.0/" /><dc:publisher><cc:Agent
           rdf:about="http://openclipart.org/"><dc:title>Openclipart</dc:title></cc:Agent></dc:publisher><dc:title></dc:title><dc:date>2006-12-26T00:00:00</dc:date><dc:description /><dc:source>https://openclipart.org/detail/7738/-by--7738</dc:source><dc:creator><cc:Agent><dc:title>Gerald_G</dc:title></cc:Agent></dc:creator></cc:Work><cc:License
       rdf:about="http://creativecommons.org/publicdomain/zero/1.0/"><cc:permits
         rdf:resource="http://creativecommons.org/ns#Reproduction" /><cc:permits
         rdf:resource="http://creativecommons.org/ns#Distribution" /><cc:permits
         rdf:resource="http://creativecommons.org/ns#DerivativeWorks" /></cc:License></rdf:RDF></metadata></svg>