<?xml version="1.0" encoding="UTF-8" standalone="no"?>
<!-- Created with Inkscape (http://www.inkscape.org/) -->
<svg xmlns:rdf="http://www.w3.org/1999/02/22-rdf-syntax-ns#" xmlns="http://www.w3.org/2000/svg" xmlns:cc="http://web.resource.org/cc/" xmlns:dc="http://purl.org/dc/elements/1.1/" xmlns:svg="http://www.w3.org/2000/svg" xmlns:inkscape="http://www.inkscape.org/namespaces/inkscape" xmlns:sodipodi="http://sodipodi.sourceforge.net/DTD/sodipodi-0.dtd" xmlns:ns1="http://sozi.baierouge.fr" xmlns:xlink="http://www.w3.org/1999/xlink" id="svg2" viewBox="0 0 477.63 231.89" version="1.0" inkscape:version="0.91 r13725">
  <path id="path3183" style="stroke-linejoin:round;stroke:#000000;stroke-linecap:round;stroke-width:4;fill:#698000" d="m374.99 81.022c-12.6 17.314-35.14 25.708-50.35 18.743-15.2-6.963-17.31-26.644-4.71-43.958 12.6-17.315 35.15-25.706 50.35-18.743 15.21 6.963 17.32 26.644 4.71 43.958z"/>
  <path id="path3294" style="fill:#000000;fill-opacity:.31373" d="m379.66 45.109c0.56 7.739-2.1 16.592-8.15 24.906-12.6 17.305-35.18 25.709-50.38 18.75-4.07-1.866-7.18-4.657-9.34-8.063 0.59 8.383 4.93 15.443 12.84 19.063 15.2 6.955 37.78-1.445 50.38-18.75 9.21-12.663 10.55-26.611 4.65-35.906z"/>
  <path id="path3181" style="stroke-linejoin:round;stroke:#000000;stroke-linecap:round;stroke-width:4;fill:#698000" d="m95.192 81.022c12.608 17.314 35.148 25.708 50.348 18.743 15.21-6.963 17.32-26.644 4.72-43.958-12.61-17.315-35.15-25.706-50.356-18.743s-17.315 26.644-4.712 43.958z"/>
  <path id="path3299" style="fill:#000000;fill-opacity:.31373" d="m87.005 56.952c-0.312 7.536 2.355 16.05 8.188 24.063 12.597 17.305 35.147 25.705 50.347 18.75 12.58-5.762 16.18-20.239 9.9-34.875-0.36 8.739-4.74 16.138-12.9 19.875-15.2 6.959-37.75-1.445-50.347-18.75-2.168-2.979-3.883-6.019-5.188-9.063z"/>
  <path id="path2383" style="stroke-linejoin:round;stroke:#000000;stroke-linecap:round;stroke-width:4;fill:#004000" d="m364.77 97.373c0 52.677-57.07 95.377-127.47 95.377-70.41 0-127.48-42.7-127.48-95.377 0-52.673 57.07-95.373 127.48-95.373 70.4 0 127.47 42.7 127.47 95.373z"/>
  <path id="path2432" style="stroke-linejoin:round;stroke:#000000;stroke-linecap:round;stroke-width:4;fill:#808000" d="m110.16 90.625c-0.21 2.229-0.35 4.481-0.35 6.75 0 52.675 57.07 95.375 127.47 95.375 70.41 0 127.5-42.7 127.5-95.375 0-2.269-0.13-4.521-0.34-6.75-4.63 49.525-59.79 88.625-127.16 88.625s-122.5-39.1-127.12-88.625z"/>
  <path id="path3234" style="fill:#000000;fill-opacity:.31373" d="m354.38 59.64c1.89 6.523 2.91 13.275 2.91 20.219 0 52.641-57.14 95.371-127.5 95.371-52.45 0-97.51-23.73-117.07-57.62 12.43 42.93 63.49 75.12 124.57 75.12 70.36 0 127.5-42.73 127.5-95.371 0-13.405-3.73-26.142-10.41-37.719z"/>
  <path id="path3175" style="fill-rule:evenodd;stroke:#000000;stroke-width:4;fill:#698000" d="m336.22 147.63c20.5 15.5 95.5-28.5 131.5-14s-59.5 82.5-113.5 74.5-37-50.5-37-50.5c7.56-17 19-10 19-10z"/>
  <path id="path3157" style="stroke-linejoin:round;stroke:#000000;stroke-linecap:round;stroke-width:4;fill:#698000" d="m298.68 164.73c0 33.19-50.2 65.16-60.12 65.16-10.56 0-60.12-31.97-60.12-65.16 0-33.18 26.93-60.12 60.12-60.12 33.18 0 60.12 26.94 60.12 60.12z"/>
  <path id="path3159" style="stroke-linejoin:round;stroke:#000000;stroke-linecap:round;stroke-width:4;fill:#ffffff" d="m233.8 157.48c0 9.74-7.89 17.63-17.63 17.63-9.73 0-17.62-7.89-17.62-17.63 0-9.73 7.89-17.62 17.62-17.62 9.74 0 17.63 7.89 17.63 17.62z"/>
  <path id="path3163" style="fill:#000000" d="m226.88 163.12c0 3.13-2.54 5.66-5.67 5.66s-5.67-2.53-5.67-5.66 2.54-5.67 5.67-5.67 5.67 2.54 5.67 5.67z"/>
  <path id="path3289" style="fill:#000000;fill-opacity:.31373" d="m297.1 151.14c0.04 0.86 0.06 1.72 0.06 2.59 0 33.19-50.16 65.16-60.09 65.16-9.46 0-50.23-25.64-58.63-54.84v0.68c0 33.19 49.57 65.16 60.13 65.16 9.93 0 60.09-31.97 60.09-65.16 0-4.67-0.55-9.22-1.56-13.59z"/>
  <path id="path3168" style="stroke-linejoin:round;stroke:#000000;stroke-linecap:round;stroke-width:4;fill:#808000" d="m239.07 188.61c-12.71 0.01-28.86 8.78-34.41 21.28 13.68 12.07 28.65 20 33.91 20 5.05 0 20.52-8.28 34.5-20.78-5.76-12.08-21.3-20.51-34-20.5z"/>
  <path id="path3229" style="fill:#000000;fill-opacity:.31373" d="m259.1 194.61c-2.66 15.53-12.48 28.29-25.59 34.03 2.1 0.8 3.85 1.25 5.06 1.25 5.05 0 20.52-8.28 34.5-20.78-2.81-5.89-7.97-10.9-13.97-14.5z"/>
  <path id="path3239" style="fill-rule:evenodd;fill:#000000;fill-opacity:.31373" d="m473.69 137.76c-12.08 24.85-78 63.52-119.47 57.38-14.58-2.16-23.97-6.85-29.93-12.53-5.86-14.24 0.48-23.75 0.48-23.75 5.21-11.72 14.04-7.44 17.92-6.5v-1.97c-2.52-0.52-4.7-1.41-6.47-2.75 0 0-2.18-1.35-5.28-1.44-0.25 0-0.49-0.01-0.75 0-3.9 0.17-8.98 2.48-12.97 11.44 0 0-1.25 3.18-2 7.94-0.05 0.37-0.1 0.76-0.15 1.15-0.06 0.45-0.11 0.88-0.16 1.35-0.09 0.88-0.15 1.8-0.19 2.75-0.01 0.46-0.03 0.93-0.03 1.4 0 0.5 0.01 1 0.03 1.5 0.02 0.41 0.04 0.81 0.07 1.22 0.07 1.11 0.21 2.23 0.4 3.38 0.07 0.37 0.11 0.75 0.19 1.12 0.04 0.22 0.11 0.44 0.16 0.66 0.08 0.37 0.18 0.75 0.28 1.12 0.05 0.22 0.12 0.44 0.19 0.66l0.18 0.66c0.06 0.17 0.1 0.35 0.16 0.53 0.13 0.39 0.26 0.76 0.41 1.15 0.23 0.63 0.47 1.26 0.75 1.88 0.28 0.63 0.59 1.24 0.93 1.87 0.33 0.61 0.69 1.22 1.07 1.82 0.03 0.05 0.05 0.13 0.09 0.18 0.29 0.46 0.61 0.9 0.94 1.35 0.12 0.17 0.25 0.33 0.37 0.5 0.41 0.53 0.83 1.07 1.28 1.59 0.51 0.59 1.05 1.15 1.63 1.72 1.14 1.14 2.42 2.23 3.84 3.28 1.38 1.02 2.92 1.99 4.6 2.91 0.11 0.06 0.22 0.12 0.34 0.18 0.8 0.43 1.63 0.85 2.5 1.25 5.09 2.35 11.36 4.23 19.12 5.38 49.94 7.4 135.37-50.2 119.47-70.38z"/>
  <path id="path3244" style="fill-rule:evenodd;stroke:#000000;stroke-width:4;fill:#698000" d="m141.41 147.63c-20.5 15.5-95.501-28.5-131.5-14-36.001 14.5 59.499 82.5 113.5 74.5 54-8 37-50.5 37-50.5-7.56-17-19-10-19-10z"/>
  <path id="path3246" style="fill-rule:evenodd;fill:#000000;fill-opacity:.31373" d="m3.9403 137.76c12.081 24.85 78.006 63.52 119.47 57.38 28.01-4.15 36.91-17.59 39-29.56 1.98 12.69 0.27 36.74-39 42.56-49.937 7.4-135.36-50.2-119.47-70.38z"/>
  <path id="path3274" style="fill-rule:evenodd;fill-opacity:.15686;stroke:#000000;stroke-width:4;fill:#ffffff" d="m221.22 86.627l65-2 14-31.5-41.5-28-44 32 6.5 29.5z"/>
  <path id="path3278" style="fill-rule:evenodd;fill-opacity:.19608;stroke:#000000;stroke-width:4;fill:#ffffff" d="m153.07 25.827c-14.94 9.855-26.8 22.269-34.28 36.344l10.97 20 30.75-13.906-4.32-42.281-3.12-0.157z"/>
  <path id="path3285" style="fill-rule:evenodd;fill-opacity:.078431;stroke:#000000;stroke-width:4;fill:#ffffff" d="m273.22 35.127l26.5 17.5 14-6.5-8-20-25-8-7.5 17z"/>
  <path id="path3287" style="fill-rule:evenodd;fill-opacity:.078431;stroke:#000000;stroke-width:4;fill:#ffffff" d="m129.22 83.625l-14.5 16.995 4.4 19.04c1.47 2.71 3.1 5.35 4.88 7.93l28.72 8.53-1-27.5-22.5-24.995z"/>
  <path id="path3304" style="stroke-linejoin:round;stroke:#000000;stroke-linecap:round;stroke-width:4;fill:#ffffff" d="m278.7 157.48c0 9.74-7.89 17.63-17.63 17.63-9.73 0-17.62-7.89-17.62-17.63 0-9.73 7.89-17.62 17.62-17.62 9.74 0 17.63 7.89 17.63 17.62z"/>
  <path id="path3306" style="fill:#000000" d="m261.88 163.12c0 3.13-2.54 5.66-5.67 5.66s-5.66-2.53-5.66-5.66 2.53-5.67 5.66-5.67 5.67 2.54 5.67 5.67z"/>
  <path id="path3222" style="fill-rule:evenodd;fill-opacity:.078431;stroke:#000000;stroke-width:4;fill:#ffffff" d="m318 127.89l28-7-11.5-37-24.5-1.5-16.5 20 24.5 25.5z"/>
  <path id="path3224" style="fill-rule:evenodd;fill-opacity:.078431;stroke:#000000;stroke-width:4;fill:#ffffff" d="m220 86.39l-27 19-16-12.5 13-31.5 24.5-4.5 5.5 29.5z"/>
  <path id="path3228" style="fill-rule:evenodd;fill-opacity:.11765;stroke:#000000;stroke-width:4;fill:#ffffff" d="m234 2.0312c-17.05 0.3232-33.25 3.1722-48 8.0308l-4 14.813 33.5 8 27-23-8.22-7.8438c-0.09 0.0017-0.19-0.0017-0.28 0z"/>
  <metadata>
    <rdf:RDF>
      <cc:Work>
        <dc:format>image/svg+xml</dc:format>
        <dc:type rdf:resource="http://purl.org/dc/dcmitype/StillImage"/>
        <cc:license rdf:resource="http://creativecommons.org/licenses/publicdomain/"/>
        <dc:publisher>
          <cc:Agent rdf:about="http://openclipart.org/">
            <dc:title>Openclipart</dc:title>
          </cc:Agent>
        </dc:publisher>
        <dc:title>Cartoon turtle</dc:title>
        <dc:date>2008-07-06T09:42:29</dc:date>
        <dc:description/>
        <dc:source>https://openclipart.org/detail/17592/cartoon-turtle-by-lemmling</dc:source>
        <dc:creator>
          <cc:Agent>
            <dc:title>lemmling</dc:title>
          </cc:Agent>
        </dc:creator>
        <dc:subject>
          <rdf:Bag>
            <rdf:li>animal</rdf:li>
            <rdf:li>cartoon</rdf:li>
            <rdf:li>colour</rdf:li>
            <rdf:li>funny</rdf:li>
            <rdf:li>how i did it</rdf:li>
            <rdf:li>tortoise</rdf:li>
            <rdf:li>turtle</rdf:li>
          </rdf:Bag>
        </dc:subject>
      </cc:Work>
      <cc:License rdf:about="http://creativecommons.org/licenses/publicdomain/">
        <cc:permits rdf:resource="http://creativecommons.org/ns#Reproduction"/>
        <cc:permits rdf:resource="http://creativecommons.org/ns#Distribution"/>
        <cc:permits rdf:resource="http://creativecommons.org/ns#DerivativeWorks"/>
      </cc:License>
    </rdf:RDF>
  </metadata>
</svg>