<?xml version="1.0" encoding="UTF-8" standalone="no"?>
<!-- Generator: Adobe Illustrator 13.0.2, SVG Export Plug-In . SVG Version: 6.00 Build 14948)  -->

<svg
   xmlns:dc="http://purl.org/dc/elements/1.1/"
   xmlns:cc="http://creativecommons.org/ns#"
   xmlns:rdf="http://www.w3.org/1999/02/22-rdf-syntax-ns#"
   xmlns:svg="http://www.w3.org/2000/svg"
   xmlns="http://www.w3.org/2000/svg"
   xmlns:sodipodi="http://sodipodi.sourceforge.net/DTD/sodipodi-0.dtd"
   xmlns:inkscape="http://www.inkscape.org/namespaces/inkscape"
   id="Layer_1"
   enable-background="new 0 0 246.996 333.724"
   sodipodi:docname="lemmling-Cartoon-polarbear.adapted.svg"
   xml:space="preserve"
   viewBox="0 0 593.99999 767.448"
   version="1.0"
   y="0px"
   x="0px"
   inkscape:version="0.92.3 (2405546, 2018-03-11)"
   width="594"
   height="767.448"><defs
   id="defs57" /><sodipodi:namedview
   id="namedview304"
   bordercolor="#666666"
   inkscape:pageshadow="2"
   guidetolerance="10"
   pagecolor="#ffffff"
   gridtolerance="10"
   inkscape:window-maximized="1"
   inkscape:zoom="1.5375635"
   objecttolerance="10"
   borderopacity="1"
   inkscape:current-layer="g248"
   inkscape:cx="181.8828"
   inkscape:cy="383.724"
   inkscape:window-y="-9"
   inkscape:window-x="-9"
   inkscape:window-width="2560"
   showgrid="false"
   inkscape:pageopacity="0"
   inkscape:window-height="1373"
   fit-margin-top="50"
   fit-margin-left="50"
   fit-margin-right="50"
   fit-margin-bottom="50" />
<g
   id="layer1"
   transform="matrix(2,0,0,2,-433.91998,-664.272)">
	<path
   id="path2385"
   d="M 486.96,561.96 C 486.983,629.062 432.606,683.48 365.5,683.5 298.398,683.523 243.98,629.146 243.96,562.04 v -0.086 c -0.024,-67.102 54.354,-121.52 121.46,-121.54 67.102,-0.023 121.52,54.354 121.54,121.46 v 0.09 z"
   inkscape:connector-curvature="0"
   style="fill:#ffffff;stroke:#010101;stroke-width:2;stroke-linecap:round;stroke-linejoin:round;fill-opacity:1;stroke-miterlimit:4;stroke-dasharray:none" />
	
	
	<g
   id="g240"
   style="fill:#ffffff;fill-opacity:1;stroke:#010101;stroke-width:2;stroke-linecap:round;stroke-linejoin:round;stroke-miterlimit:4;stroke-dasharray:none"
   transform="translate(0,2)">
		<path
   id="path3165"
   d="m 314.14,614.22 c -30.406,0 -55.063,24.688 -55.063,55.094 0,6.286 1.058,12.309 3,17.938 h 104.16 c 1.942,-5.629 3,-11.651 3,-17.938 0,-30.4 -24.69,-55.09 -55.1,-55.09 z"
   inkscape:connector-curvature="0"
   style="fill:#ffffff;fill-opacity:1;stroke-width:2;stroke-miterlimit:4;stroke-dasharray:none" />
		<g
   id="g243"
   style="fill:#ffffff;fill-opacity:1;stroke-width:2;stroke-miterlimit:4;stroke-dasharray:none"
   transform="translate(0,1)">
			<path
   id="path3220"
   d="m 309.27,671.36 c 0,9.666 -6.604,17.5 -14.75,17.5 -8.146,0 -14.75,-7.834 -14.75,-17.5 0,-9.664 6.604,-17.5 14.75,-17.5 8.15,0 14.75,7.84 14.75,17.5 z"
   inkscape:connector-curvature="0"
   style="fill:#ffffff;fill-opacity:1;stroke-width:2;stroke-miterlimit:4;stroke-dasharray:none" />
			<path
   id="path3224"
   d="m 346.27,671.36 c 0,9.666 -6.604,17.5 -14.75,17.5 -8.146,0 -14.75,-7.834 -14.75,-17.5 0,-9.664 6.604,-17.5 14.75,-17.5 8.15,0 14.75,7.84 14.75,17.5 z"
   inkscape:connector-curvature="0"
   style="fill:#ffffff;fill-opacity:1;stroke-width:2;stroke-miterlimit:4;stroke-dasharray:none" />
			<path
   id="path3222"
   d="m 328.77,671.36 c 0,9.666 -6.604,17.5 -14.75,17.5 -8.146,0 -14.75,-7.834 -14.75,-17.5 0,-9.664 6.604,-17.5 14.75,-17.5 8.15,0 14.75,7.84 14.75,17.5 z"
   inkscape:connector-curvature="0"
   style="fill:#ffffff;fill-opacity:1;stroke-width:2;stroke-miterlimit:4;stroke-dasharray:none" />
		</g>
	</g>
	<g
   id="g248"
   style="fill:#ffffff;fill-opacity:1;stroke:#010101;stroke-width:2;stroke-linecap:round;stroke-linejoin:round;stroke-miterlimit:4;stroke-dasharray:none"
   transform="translate(0,2)">
		<path
   id="path3163"
   d="m 424.33,614.22 c -30.405,0 -55.094,24.688 -55.094,55.094 0,6.286 1.058,12.309 3,17.938 h 104.16 c 1.942,-5.629 3,-11.651 3,-17.938 0,-30.4 -24.66,-55.09 -55.07,-55.09 z"
   inkscape:connector-curvature="0"
   style="fill:#ffffff;fill-opacity:1;stroke-width:2;stroke-miterlimit:4;stroke-dasharray:none" />
		<g
   id="g251"
   style="fill:#ffffff;fill-opacity:1;stroke-width:2;stroke-miterlimit:4;stroke-dasharray:none"
   transform="translate(0,1)">
			<path
   id="path3226"
   d="m 422.77,671.36 c 0,9.666 -6.604,17.5 -14.75,17.5 -8.146,0 -14.75,-7.834 -14.75,-17.5 0,-9.664 6.604,-17.5 14.75,-17.5 8.15,0 14.75,7.84 14.75,17.5 z"
   inkscape:connector-curvature="0"
   style="fill:#ffffff;fill-opacity:1;stroke-width:2;stroke-miterlimit:4;stroke-dasharray:none" />
			<path
   id="path3228"
   d="m 459.77,671.36 c 0,9.666 -6.604,17.5 -14.75,17.5 -8.146,0 -14.75,-7.834 -14.75,-17.5 0,-9.664 6.604,-17.5 14.75,-17.5 8.15,0 14.75,7.84 14.75,17.5 z"
   inkscape:connector-curvature="0"
   style="fill:#ffffff;fill-opacity:1;stroke-width:2;stroke-miterlimit:4;stroke-dasharray:none" />
			<path
   id="path3230"
   d="m 442.27,671.36 c 0,9.666 -6.604,17.5 -14.75,17.5 -8.146,0 -14.75,-7.834 -14.75,-17.5 0,-9.664 6.604,-17.5 14.75,-17.5 8.15,0 14.75,7.84 14.75,17.5 z"
   inkscape:connector-curvature="0"
   style="fill:#ffffff;fill-opacity:1;stroke-width:2;stroke-miterlimit:4;stroke-dasharray:none" />
		</g>
	</g>
	
	<g
   id="g260"
   style="stroke-width:2;stroke-miterlimit:4;stroke-dasharray:none"
   transform="translate(5)">
		<path
   id="path3310"
   d="m 379.99,531.79 c -9.676,-16.757 -27.332,-24.671 -31.643,-22.182 -4.698,2.712 -6.259,21.722 3.415,38.479 7.497,12.984 17.689,21.896 25.526,23.15 -3.896,5.563 -4.027,14.088 0.271,21.531 1.652,2.861 3.751,5.23 6.12,7.039 -0.908,-6.978 1.611,-13.561 7.09,-16.723 5.477,-3.162 12.438,-2.052 18.025,2.223 -0.381,-2.957 -1.355,-5.973 -3.008,-8.836 -4.298,-7.443 -11.766,-11.581 -18.539,-10.984 2.83,-7.41 0.24,-20.71 -7.26,-33.7 z"
   inkscape:connector-curvature="0"
   style="fill:#ffffff;fill-opacity:1;stroke:#010101;stroke-width:2;stroke-linejoin:round;stroke-miterlimit:4;stroke-dasharray:none" />
		<path
   id="path3348"
   d="m 364.81,515.26 c 3.069,3.456 6.102,7.586 8.813,12.281 9.212,15.954 11.454,31.931 5,35.656 -6.453,3.726 -19.163,-6.202 -28.375,-22.156 -1.807,-3.13 -3.336,-6.242 -4.594,-9.281 1.053,5.264 2.996,10.893 6.125,16.313 7.496,12.983 17.695,21.901 25.531,23.156 -3.896,5.563 -4.047,14.088 0.25,21.531 1.652,2.862 3.756,5.223 6.125,7.031 -0.908,-6.978 1.617,-13.556 7.094,-16.719 5.478,-3.162 12.444,-2.056 18.031,2.219 -0.381,-2.957 -1.378,-5.95 -3.031,-8.813 -4.297,-7.443 -11.758,-11.597 -18.531,-11 2.832,-7.415 0.246,-20.704 -7.25,-33.688 -4.15,-7.19 -9.78,-12.72 -15.18,-16.53 z"
   inkscape:connector-curvature="0"
   style="fill:#ffffff;fill-opacity:1;stroke:#010101;stroke-width:2;stroke-miterlimit:4;stroke-dasharray:none;stroke-opacity:1" />
		<path
   id="path3346"
   d="m 362.45,522.72 c 0,1.933 -1.566,3.5 -3.5,3.5 -1.934,0 -3.5,-1.567 -3.5,-3.5 0,-1.933 1.566,-3.5 3.5,-3.5 1.934,0 3.5,1.56 3.5,3.5 z"
   inkscape:connector-curvature="0"
   style="fill:#010101;stroke-width:2;stroke-miterlimit:4;stroke-dasharray:none" />
	</g>
	<g
   id="g265"
   style="fill:#ffffff;fill-opacity:1;stroke:#010101;stroke-width:2;stroke-linecap:round;stroke-linejoin:round;stroke-miterlimit:4;stroke-dasharray:none"
   transform="translate(5)">
		<g
   id="g267"
   style="fill:#ffffff;fill-opacity:1;stroke-width:2;stroke-miterlimit:4;stroke-dasharray:none"
   transform="translate(-1,-2)">
			<path
   id="path3159"
   d="m 350.44,526.5 c 6.345,10.99 2.579,25.043 -8.41,31.388 -10.991,6.345 -25.043,2.58 -31.388,-8.41 -6.345,-10.989 -2.58,-25.043 8.41,-31.388 10.99,-6.35 25.04,-2.58 31.39,8.41 z"
   inkscape:connector-curvature="0"
   style="fill:#ffffff;fill-opacity:1;stroke-width:2;stroke-miterlimit:4;stroke-dasharray:none" />
			<g
   id="g270"
   style="fill:#ffffff;fill-opacity:1;stroke-width:2;stroke-miterlimit:4;stroke-dasharray:none">
				<path
   id="path3264"
   d="m 339.77,544.49 c 4.305,2.486 6.023,7.566 3.84,11.35 -2.184,3.781 -7.443,4.834 -11.748,2.348 -4.305,-2.484 -6.024,-7.566 -3.84,-11.348 2.18,-3.79 7.44,-4.84 11.75,-2.35 z"
   inkscape:connector-curvature="0"
   style="fill:#ffffff;fill-opacity:1;stroke-width:2;stroke-miterlimit:4;stroke-dasharray:none" />
				<path
   id="path3266"
   d="m 349.69,527.31 c 4.305,2.484 6.024,7.565 3.841,11.348 -2.184,3.783 -7.444,4.834 -11.748,2.349 -4.305,-2.485 -6.024,-7.565 -3.84,-11.349 2.18,-3.79 7.44,-4.84 11.75,-2.35 z"
   inkscape:connector-curvature="0"
   style="fill:#ffffff;fill-opacity:1;stroke-width:2;stroke-miterlimit:4;stroke-dasharray:none" />
				<path
   id="path3268"
   d="m 348.98,538.33 c 4.305,2.485 6.024,7.565 3.841,11.349 -2.185,3.782 -7.444,4.834 -11.749,2.348 -4.305,-2.484 -6.024,-7.565 -3.84,-11.348 2.18,-3.78 7.44,-4.83 11.75,-2.35 z"
   inkscape:connector-curvature="0"
   style="fill:#ffffff;fill-opacity:1;stroke-width:2;stroke-miterlimit:4;stroke-dasharray:none" />
			</g>
		</g>
		<g
   id="g275"
   style="fill:#ffffff;fill-opacity:1;stroke-width:2;stroke-miterlimit:4;stroke-dasharray:none"
   transform="translate(-4,-8)">
			<path
   id="path3161"
   d="m 418.57,549.48 c -6.345,10.989 -20.397,14.755 -31.388,8.41 -10.99,-6.346 -14.756,-20.398 -8.41,-31.389 6.345,-10.99 20.397,-14.755 31.387,-8.41 10.99,6.34 14.76,20.4 8.41,31.39 z"
   inkscape:connector-curvature="0"
   style="fill:#ffffff;fill-opacity:1;stroke-width:2;stroke-miterlimit:4;stroke-dasharray:none" />
			<g
   id="g278"
   style="fill:#ffffff;fill-opacity:1;stroke-width:2;stroke-miterlimit:4;stroke-dasharray:none">
				<path
   id="path3270"
   d="m 390.2,544.92 c -4.305,2.485 -6.023,7.566 -3.84,11.349 2.183,3.783 7.443,4.834 11.748,2.349 4.305,-2.485 6.023,-7.566 3.84,-11.349 -2.183,-3.783 -7.45,-4.83 -11.75,-2.35 z"
   inkscape:connector-curvature="0"
   style="fill:#ffffff;fill-opacity:1;stroke-width:2;stroke-miterlimit:4;stroke-dasharray:none" />
				<path
   id="path3272"
   d="m 380.28,527.75 c -4.305,2.485 -6.024,7.566 -3.841,11.349 2.183,3.783 7.443,4.833 11.748,2.349 4.305,-2.486 6.024,-7.566 3.841,-11.349 -2.183,-3.783 -7.45,-4.84 -11.75,-2.35 z"
   inkscape:connector-curvature="0"
   style="fill:#ffffff;fill-opacity:1;stroke-width:2;stroke-miterlimit:4;stroke-dasharray:none" />
				<path
   id="path3274"
   d="m 380.99,538.77 c -4.305,2.486 -6.024,7.566 -3.841,11.35 2.184,3.781 7.443,4.833 11.748,2.348 4.305,-2.485 6.024,-7.566 3.841,-11.348 -2.19,-3.79 -7.45,-4.84 -11.75,-2.35 z"
   inkscape:connector-curvature="0"
   style="fill:#ffffff;fill-opacity:1;stroke-width:2;stroke-miterlimit:4;stroke-dasharray:none" />
			</g>
		</g>
	</g>
	<g
   id="g283"
   style="stroke-width:2;stroke-miterlimit:4;stroke-dasharray:none">
		<path
   id="path2479"
   d="m 312.8,359.14 c -11.055,0 -20.031,8.976 -20.031,20.031 0,7.155 3.758,13.426 9.406,16.969 -5.971,10.554 -9.406,22.735 -9.406,35.719 0,40.134 32.553,72.719 72.688,72.719 40.135,0 72.719,-32.584 72.719,-72.719 0,-12.984 -3.436,-25.165 -9.406,-35.719 5.636,-3.545 9.406,-9.824 9.406,-16.969 0,-11.056 -8.977,-20.031 -20.031,-20.031 -7.145,0 -13.393,3.771 -16.938,9.406 -10.56,-5.979 -22.757,-9.406 -35.75,-9.406 -12.99,0 -25.161,3.43 -35.719,9.406 -3.55,-5.64 -9.8,-9.41 -16.94,-9.41 z"
   inkscape:connector-curvature="0"
   style="fill:#ffffff;stroke:#010101;stroke-width:2;stroke-linecap:round;stroke-linejoin:round;fill-opacity:1;stroke-miterlimit:4;stroke-dasharray:none" />
		<g
   id="g286"
   style="stroke-width:2;stroke-miterlimit:4;stroke-dasharray:none">
			<path
   id="path3192"
   d="m 349.51,461.23 c 5.216,-5.563 27.111,-5.588 31.987,0.695 4.63,5.966 -6.954,22.947 -15.993,22.251 -9.02,-0.69 -20.88,-17.74 -16,-22.94 z"
   inkscape:connector-curvature="0"
   style="fill:#010101;stroke-width:2;stroke-miterlimit:4;stroke-dasharray:none" />
			<g
   id="g289"
   style="stroke-width:2;stroke-miterlimit:4;stroke-dasharray:none">
				<g
   id="g291"
   style="stroke-width:2;stroke-miterlimit:4;stroke-dasharray:none">
						<path
   id="path3179"
   d="m 408.9,417.49 c 0,11.3 -9.16,20.459 -20.459,20.459 -11.299,0 -20.459,-9.16 -20.459,-20.459 0,-11.299 9.16,-20.459 20.459,-20.459 11.299,0 20.46,9.16 20.46,20.46 z"
   inkscape:connector-curvature="0"
   style="fill:#ffffff;stroke:#010101;stroke-width:2;stroke-linecap:round;stroke-linejoin:round;stroke-miterlimit:4;stroke-dasharray:none" />
					<path
   id="path3183"
   d="m 390.09,421.42 c 0,3.65 -2.959,6.61 -6.609,6.61 -3.65,0 -6.61,-2.959 -6.61,-6.61 0,-3.651 2.96,-6.61 6.61,-6.61 3.65,0 6.61,2.96 6.61,6.61 z"
   inkscape:connector-curvature="0"
   style="fill:#010101;stroke-width:2;stroke-miterlimit:4;stroke-dasharray:none" />
				</g>
				<g
   id="g295"
   style="stroke-width:2;stroke-miterlimit:4;stroke-dasharray:none">
						<path
   id="path3177"
   d="m 363.57,417.49 c 0,11.3 -9.16,20.459 -20.459,20.459 -11.3,0 -20.459,-9.16 -20.459,-20.459 0,-11.299 9.16,-20.459 20.459,-20.459 11.3,0 20.46,9.16 20.46,20.46 z"
   inkscape:connector-curvature="0"
   style="fill:#ffffff;stroke:#010101;stroke-width:2;stroke-linecap:round;stroke-linejoin:round;stroke-miterlimit:4;stroke-dasharray:none" />
					<path
   id="path2515"
   d="m 355.68,421.42 c 0,3.65 -2.959,6.61 -6.609,6.61 -3.65,0 -6.61,-2.959 -6.61,-6.61 0,-3.651 2.96,-6.61 6.61,-6.61 3.65,0 6.61,2.96 6.61,6.61 z"
   inkscape:connector-curvature="0"
   style="fill:#010101;stroke-width:2;stroke-miterlimit:4;stroke-dasharray:none" />
				</g>
			</g>
		</g>
		
		<g
   id="g300"
   style="fill:#ffffff;stroke:#010101;stroke-width:2;stroke-linecap:round;stroke-linejoin:round;fill-opacity:1;stroke-miterlimit:4;stroke-dasharray:none">
			<path
   id="path2483"
   d="m 418.38,367.64 c -4.018,0 -7.525,2.116 -9.526,5.279 6.144,4.138 11.433,9.422 15.567,15.568 3.153,-2.003 5.255,-5.542 5.255,-9.552 0,-6.24 -5.07,-11.3 -11.3,-11.3 z"
   inkscape:connector-curvature="0"
   style="fill:#ffffff;fill-opacity:1;stroke-width:2;stroke-miterlimit:4;stroke-dasharray:none" />
			<path
   id="path2523"
   d="m 312.75,367.64 c 4.018,0 7.526,2.116 9.527,5.279 -6.144,4.138 -11.433,9.422 -15.567,15.568 -3.153,-2.003 -5.255,-5.542 -5.255,-9.552 -0.01,-6.24 5.05,-11.3 11.29,-11.3 z"
   inkscape:connector-curvature="0"
   style="fill:#ffffff;fill-opacity:1;stroke-width:2;stroke-miterlimit:4;stroke-dasharray:none" />
		</g>
	</g>
</g>
<metadata
   id="metadata54"><rdf:RDF><cc:Work><dc:format>image/svg+xml</dc:format><dc:type
         rdf:resource="http://purl.org/dc/dcmitype/StillImage" /><cc:license
         rdf:resource="http://creativecommons.org/publicdomain/zero/1.0/" /><dc:publisher><cc:Agent
           rdf:about="http://openclipart.org/"><dc:title>Openclipart</dc:title></cc:Agent></dc:publisher><dc:title /><dc:date>2012-05-10T11:34:44</dc:date><dc:description>Cartoon Polar Bear in the style of lemmling.</dc:description><dc:source>https://openclipart.org/detail/169961/cartoon-polar-bear-by-studiofibonacci</dc:source><dc:creator><cc:Agent><dc:title>StudioFibonacci</dc:title></cc:Agent></dc:creator><dc:subject><rdf:Bag><rdf:li>arctic</rdf:li><rdf:li>bear</rdf:li><rdf:li>fish</rdf:li><rdf:li>mammal</rdf:li><rdf:li>polar</rdf:li></rdf:Bag></dc:subject></cc:Work><cc:License
       rdf:about="http://creativecommons.org/publicdomain/zero/1.0/"><cc:permits
         rdf:resource="http://creativecommons.org/ns#Reproduction" /><cc:permits
         rdf:resource="http://creativecommons.org/ns#Distribution" /><cc:permits
         rdf:resource="http://creativecommons.org/ns#DerivativeWorks" /></cc:License></rdf:RDF></metadata></svg>