<?xml version="1.0" encoding="UTF-8" standalone="no"?>
<!-- Created with Inkscape (http://www.inkscape.org/) -->

<svg
   xmlns:dc="http://purl.org/dc/elements/1.1/"
   xmlns:cc="http://creativecommons.org/ns#"
   xmlns:rdf="http://www.w3.org/1999/02/22-rdf-syntax-ns#"
   xmlns:svg="http://www.w3.org/2000/svg"
   xmlns="http://www.w3.org/2000/svg"
   xmlns:sodipodi="http://sodipodi.sourceforge.net/DTD/sodipodi-0.dtd"
   xmlns:inkscape="http://www.inkscape.org/namespaces/inkscape"
   id="svg2"
   viewBox="0 0 1055.2757 563.78003"
   version="1.0"
   inkscape:version="0.92.3 (2405546, 2018-03-11)"
   sodipodi:docname="lemmling-Cartoon-turtle.adapted.svg"
   width="1055.2758"
   height="563.78003">
  <defs
     id="defs33" />
  <sodipodi:namedview
     pagecolor="#ffffff"
     bordercolor="#666666"
     borderopacity="1"
     objecttolerance="10"
     gridtolerance="10"
     guidetolerance="10"
     inkscape:pageopacity="0"
     inkscape:pageshadow="2"
     inkscape:window-width="2560"
     inkscape:window-height="1373"
     id="namedview31"
     showgrid="false"
     fit-margin-top="50"
     fit-margin-left="50"
     fit-margin-right="50"
     fit-margin-bottom="50"
     inkscape:zoom="1.9388297"
     inkscape:cx="527.63788"
     inkscape:cy="281.89001"
     inkscape:window-x="-9"
     inkscape:window-y="-9"
     inkscape:window-maximized="1"
     inkscape:current-layer="svg2" />
  <path
     id="path3183"
     style="fill:#ffffff;stroke:#000000;stroke-width:4;stroke-linecap:round;stroke-linejoin:round;fill-opacity:1;stroke-miterlimit:4;stroke-dasharray:none"
     d="m 799.98827,212.044 c -25.2,34.628 -70.28,51.416 -100.7,37.486 -30.4,-13.926 -34.62,-53.288 -9.42,-87.916 25.2,-34.63 70.3,-51.412 100.7,-37.486 30.42,13.926 34.64,53.288 9.42,87.916 z"
     inkscape:connector-curvature="0" />
  <path
     id="path3181"
     style="fill:#ffffff;stroke:#000000;stroke-width:4;stroke-linecap:round;stroke-linejoin:round;fill-opacity:1;stroke-miterlimit:4;stroke-dasharray:none"
     d="m 240.39228,212.044 c 25.216,34.628 70.296,51.416 100.696,37.486 30.42,-13.926 34.64,-53.288 9.44,-87.916 -25.22,-34.63 -70.3,-51.412 -100.712,-37.486 -30.412,13.926 -34.63,53.288 -9.424,87.916 z"
     inkscape:connector-curvature="0" />
  <path
     id="path2383"
     style="fill:#ffffff;stroke:#000000;stroke-width:4;stroke-linecap:round;stroke-linejoin:round;fill-opacity:1;stroke-miterlimit:4;stroke-dasharray:none"
     d="m 779.54827,244.746 c 0,105.354 -114.14,190.754 -254.94,190.754 -140.81999,0 -254.95999,-85.4 -254.95999,-190.754 0,-105.346 114.14,-190.746 254.95999,-190.746 140.8,0 254.94,85.4 254.94,190.746 z"
     inkscape:connector-curvature="0" />
  <path
     id="path2432"
     style="fill:#ffffff;stroke:#000000;stroke-width:4;stroke-linecap:round;stroke-linejoin:round;fill-opacity:1;stroke-miterlimit:4;stroke-dasharray:none"
     d="m 270.32828,231.25 c -0.42,4.458 -0.7,8.962 -0.7,13.5 0,105.35 114.14,190.75 254.93999,190.75 140.82,0 255,-85.4 255,-190.75 0,-4.538 -0.26,-9.042 -0.68,-13.5 -9.26,99.05 -119.58,177.25 -254.32,177.25 -134.74,0 -244.99999,-78.2 -254.23999,-177.25 z"
     inkscape:connector-curvature="0" />
  <path
     id="path3175"
     style="fill:#ffffff;fill-rule:evenodd;stroke:#000000;stroke-width:4;fill-opacity:1;stroke-miterlimit:4;stroke-dasharray:none"
     d="m 722.44827,345.26 c 41,31 191,-57 263,-28 72.00003,29 -119,165 -227,149 -108,-16 -74,-101 -74,-101 15.12,-34 38,-20 38,-20 z"
     inkscape:connector-curvature="0" />
  <path
     id="path3157"
     style="fill:#ffffff;stroke:#000000;stroke-width:4;stroke-linecap:round;stroke-linejoin:round;fill-opacity:1;stroke-miterlimit:4;stroke-dasharray:none"
     d="m 647.36827,379.46 c 0,66.38 -100.4,130.32 -120.24,130.32 -21.12,0 -120.24,-63.94 -120.24,-130.32 0,-66.36 53.86,-120.24 120.24,-120.24 66.36,0 120.24,53.88 120.24,120.24 z"
     inkscape:connector-curvature="0" />
  <path
     id="path3159"
     style="fill:#ffffff;stroke:#000000;stroke-width:4;stroke-linecap:round;stroke-linejoin:round;stroke-miterlimit:4;stroke-dasharray:none"
     d="m 517.60827,364.96 c 0,19.48 -15.78,35.26 -35.26,35.26 -19.46,0 -35.24,-15.78 -35.24,-35.26 0,-19.46 15.78,-35.24 35.24,-35.24 19.48,0 35.26,15.78 35.26,35.24 z"
     inkscape:connector-curvature="0" />
  <path
     id="path3163"
     style="fill:#000000;stroke-width:4;stroke-miterlimit:4;stroke-dasharray:none"
     d="m 503.76827,376.24 c 0,6.26 -5.08,11.32 -11.34,11.32 -6.26,0 -11.34,-5.06 -11.34,-11.32 0,-6.26 5.08,-11.34 11.34,-11.34 6.26,0 11.34,5.08 11.34,11.34 z"
     inkscape:connector-curvature="0" />
  <path
     id="path3168"
     style="fill:#ffffff;stroke:#000000;stroke-width:4;stroke-linecap:round;stroke-linejoin:round;fill-opacity:1;stroke-miterlimit:4;stroke-dasharray:none"
     d="m 528.14827,427.22 c -25.42,0.02 -57.72,17.56 -68.82,42.56 27.36,24.14 57.3,40 67.82,40 10.1,0 41.04,-16.56 69,-41.56 -11.52,-24.16 -42.6,-41.02 -68,-41 z"
     inkscape:connector-curvature="0" />
  <path
     id="path3239"
     style="fill:#ffffff;fill-opacity:1;fill-rule:evenodd;stroke-width:4;stroke:#000000;stroke-opacity:1;stroke-miterlimit:4;stroke-dasharray:none"
     d="m 997.38827,325.52 c -24.16,49.7 -156,127.04 -238.94,114.76 -29.16,-4.32 -47.94,-13.7 -59.86,-25.06 -11.72,-28.48 0.96,-47.5 0.96,-47.5 10.42,-23.44 28.08,-14.88 35.84,-13 v -3.94 c -5.04,-1.04 -9.4,-2.82 -12.94,-5.5 0,0 -4.36,-2.7 -10.56,-2.88 -0.5,0 -0.98,-0.02 -1.5,0 -7.8,0.34 -17.96,4.96 -25.94,22.88 0,0 -2.5,6.36 -4,15.88 -0.1,0.74 -0.2,1.52 -0.3,2.3 -0.12,0.9 -0.22,1.76 -0.32,2.7 -0.18,1.76 -0.3,3.6 -0.38,5.5 -0.02,0.92 -0.06,1.86 -0.06,2.8 0,1 0.02,2 0.06,3 0.04,0.82 0.08,1.62 0.14,2.44 0.14,2.22 0.42,4.46 0.8,6.76 0.14,0.74 0.22,1.5 0.38,2.24 0.08,0.44 0.22,0.88 0.32,1.32 0.16,0.74 0.36,1.5 0.56,2.24 0.1,0.44 0.24,0.88 0.38,1.32 l 0.36,1.32 c 0.12,0.34 0.2,0.7 0.32,1.06 0.26,0.78 0.52,1.52 0.82,2.3 0.46,1.26 0.94,2.52 1.5,3.76 0.56,1.26 1.18,2.48 1.86,3.74 0.66,1.22 1.38,2.44 2.14,3.64 0.06,0.1 0.1,0.26 0.18,0.36 0.58,0.92 1.22,1.8 1.88,2.7 0.24,0.34 0.5,0.66 0.74,1 0.82,1.06 1.66,2.14 2.56,3.18 1.02,1.18 2.1,2.3 3.26,3.44 2.28,2.28 4.84,4.46 7.68,6.56 2.76,2.04 5.84,3.98 9.2,5.82 0.22,0.12 0.44,0.24 0.68,0.36 1.6,0.86 3.26,1.7 5,2.5 10.18,4.7 22.72,8.46 38.24,10.76 99.88,14.8 270.74003,-100.4 238.94,-140.76 z"
     inkscape:connector-curvature="0" />
  <path
     id="path3244"
     style="fill:#ffffff;fill-rule:evenodd;stroke:#000000;stroke-width:4;fill-opacity:1;stroke-miterlimit:4;stroke-dasharray:none"
     d="m 332.82828,345.26 c -41,31 -191.00201,-57 -263.000007,-28 -72.0020004,29 118.998007,165 227.000007,149 107.99999,-16 74,-101 74,-101 -15.12,-34 -38,-20 -38,-20 z"
     inkscape:connector-curvature="0" />
  <path
     id="path3246"
     style="fill:#ffffff;fill-opacity:1;fill-rule:evenodd;stroke-width:4;stroke:#000000;stroke-opacity:1;stroke-miterlimit:4;stroke-dasharray:none"
     d="m 57.888873,325.52 c 24.162,49.7 156.012007,127.04 238.940007,114.76 56.02,-8.3 73.82,-35.18 78,-59.12 3.96,25.38 0.54,73.48 -78,85.12 -99.874,14.8 -270.720007,-100.4 -238.940007,-140.76 z"
     inkscape:connector-curvature="0" />
  <path
     id="path3274"
     style="fill:#ffffff;fill-opacity:0.15685999;fill-rule:evenodd;stroke:#000000;stroke-width:4;stroke-miterlimit:4;stroke-dasharray:none"
     d="m 492.44827,223.254 130,-4 28,-63 -83,-56 -88,64 z"
     inkscape:connector-curvature="0" />
  <path
     id="path3278"
     style="fill:#ffffff;fill-opacity:0.19607999;fill-rule:evenodd;stroke:#000000;stroke-width:4;stroke-miterlimit:4;stroke-dasharray:none"
     d="m 356.14828,101.654 c -29.88,19.71 -53.6,44.538 -68.56,72.688 l 21.94,40 61.5,-27.812 -8.64,-84.562 z"
     inkscape:connector-curvature="0" />
  <path
     id="path3285"
     style="fill:#ffffff;fill-opacity:0.07843101;fill-rule:evenodd;stroke:#000000;stroke-width:4;stroke-miterlimit:4;stroke-dasharray:none"
     d="m 596.44827,120.254 53,35 28,-13 -16,-40 -50,-16 z"
     inkscape:connector-curvature="0" />
  <path
     id="path3287"
     style="fill:#ffffff;fill-opacity:0.07843101;fill-rule:evenodd;stroke:#000000;stroke-width:4;stroke-miterlimit:4;stroke-dasharray:none"
     d="m 308.44828,217.25 -29,33.99 8.8,38.08 c 2.94,5.42 6.2,10.7 9.76,15.86 l 57.44,17.06 -2,-55 z"
     inkscape:connector-curvature="0" />
  <path
     id="path3304"
     style="fill:#ffffff;stroke:#000000;stroke-width:4;stroke-linecap:round;stroke-linejoin:round;stroke-miterlimit:4;stroke-dasharray:none"
     d="m 607.40827,364.96 c 0,19.48 -15.78,35.26 -35.26,35.26 -19.46,0 -35.24,-15.78 -35.24,-35.26 0,-19.46 15.78,-35.24 35.24,-35.24 19.48,0 35.26,15.78 35.26,35.24 z"
     inkscape:connector-curvature="0" />
  <path
     id="path3306"
     style="fill:#000000;stroke-width:4;stroke-miterlimit:4;stroke-dasharray:none"
     d="m 573.76827,376.24 c 0,6.26 -5.08,11.32 -11.34,11.32 -6.26,0 -11.32,-5.06 -11.32,-11.32 0,-6.26 5.06,-11.34 11.32,-11.34 6.26,0 11.34,5.08 11.34,11.34 z"
     inkscape:connector-curvature="0" />
  <path
     id="path3222"
     style="fill:#ffffff;fill-opacity:0.07843101;fill-rule:evenodd;stroke:#000000;stroke-width:4;stroke-miterlimit:4;stroke-dasharray:none"
     d="m 686.00827,305.78 56,-14 -23,-74 -49,-3 -33,40 z"
     inkscape:connector-curvature="0" />
  <path
     id="path3224"
     style="fill:#ffffff;fill-opacity:0.07843101;fill-rule:evenodd;stroke:#000000;stroke-width:4;stroke-miterlimit:4;stroke-dasharray:none"
     d="m 490.00827,222.78 -54,38 -32,-25 26,-63 49,-9 z"
     inkscape:connector-curvature="0" />
  <path
     id="path3228"
     style="fill:#ffffff;fill-opacity:0.11764999;fill-rule:evenodd;stroke:#000000;stroke-width:4;stroke-miterlimit:4;stroke-dasharray:none"
     d="m 518.00827,54.0624 c -34.1,0.6464 -66.5,6.3444 -96,16.0616 l -8,29.626 67,16 54,-46 -16.44,-15.6876 c -0.18,0.003 -0.38,-0.003 -0.56,0 z"
     inkscape:connector-curvature="0" />
  <metadata
     id="metadata28">
    <rdf:RDF>
      <cc:Work>
        <dc:format>image/svg+xml</dc:format>
        <dc:type
           rdf:resource="http://purl.org/dc/dcmitype/StillImage" />
        <cc:license
           rdf:resource="http://creativecommons.org/publicdomain/zero/1.0/" />
        <dc:publisher>
          <cc:Agent
             rdf:about="http://openclipart.org/">
            <dc:title>Openclipart</dc:title>
          </cc:Agent>
        </dc:publisher>
        <dc:title></dc:title>
        <dc:date>2008-07-06T09:42:29</dc:date>
        <dc:description />
        <dc:source>https://openclipart.org/detail/17592/cartoon-turtle-by-lemmling</dc:source>
        <dc:creator>
          <cc:Agent>
            <dc:title>lemmling</dc:title>
          </cc:Agent>
        </dc:creator>
        <dc:subject>
          <rdf:Bag>
            <rdf:li>animal</rdf:li>
            <rdf:li>cartoon</rdf:li>
            <rdf:li>colour</rdf:li>
            <rdf:li>funny</rdf:li>
            <rdf:li>how i did it</rdf:li>
            <rdf:li>tortoise</rdf:li>
            <rdf:li>turtle</rdf:li>
          </rdf:Bag>
        </dc:subject>
      </cc:Work>
      <cc:License
         rdf:about="http://creativecommons.org/publicdomain/zero/1.0/">
        <cc:permits
           rdf:resource="http://creativecommons.org/ns#Reproduction" />
        <cc:permits
           rdf:resource="http://creativecommons.org/ns#Distribution" />
        <cc:permits
           rdf:resource="http://creativecommons.org/ns#DerivativeWorks" />
      </cc:License>
    </rdf:RDF>
  </metadata>
</svg>
