<?xml version="1.0" encoding="UTF-8" standalone="no"?>
<!-- Created with Inkscape (http://www.inkscape.org/) -->

<svg
   xmlns:dc="http://purl.org/dc/elements/1.1/"
   xmlns:cc="http://creativecommons.org/ns#"
   xmlns:rdf="http://www.w3.org/1999/02/22-rdf-syntax-ns#"
   xmlns:svg="http://www.w3.org/2000/svg"
   xmlns="http://www.w3.org/2000/svg"
   xmlns:sodipodi="http://sodipodi.sourceforge.net/DTD/sodipodi-0.dtd"
   xmlns:inkscape="http://www.inkscape.org/namespaces/inkscape"
   id="svg2"
   viewBox="0 0 710.17503 735.11048"
   version="1.0"
   inkscape:version="0.92.3 (2405546, 2018-03-11)"
   sodipodi:docname="lemmling-Cartoon-sheep.adapted.svg"
   width="710.17505"
   height="735.11047">
  <defs
     id="defs24" />
  <sodipodi:namedview
     pagecolor="#ffffff"
     bordercolor="#666666"
     borderopacity="1"
     objecttolerance="10"
     gridtolerance="10"
     guidetolerance="10"
     inkscape:pageopacity="0"
     inkscape:pageshadow="2"
     inkscape:window-width="2560"
     inkscape:window-height="1373"
     id="namedview22"
     showgrid="false"
     fit-margin-top="50"
     fit-margin-left="50"
     fit-margin-right="50"
     fit-margin-bottom="50"
     inkscape:zoom="1.6052009"
     inkscape:cx="355.08752"
     inkscape:cy="367.55524"
     inkscape:window-x="-9"
     inkscape:window-y="-9"
     inkscape:window-maximized="1"
     inkscape:current-layer="layer1" />
  <g
     id="layer1"
     transform="matrix(2.5,0,0,2.5,-523.09999,-1021.575)">
    <path
       id="path2383"
       style="fill:#ffffff;stroke:#000000;stroke-width:1.6;stroke-linecap:round;stroke-linejoin:round;stroke-miterlimit:4;stroke-dasharray:none"
       d="m 471.31,550.71 c 0.02,66.3 -53.73,120.07 -120.04,120.07 -66.31,0 -120.05,-53.77 -120.03,-120.07 -0.02,-66.31 53.72,-120.08 120.03,-120.08 66.31,0 120.06,53.77 120.04,120.08 z"
       inkscape:connector-curvature="0" />
    <path
       id="path3221"
       style="fill:#ffffff;fill-opacity:1;stroke:#000000;stroke-opacity:1;stroke-width:1.6;stroke-miterlimit:4;stroke-dasharray:none"
       d="m 111.69,107.53 c -55.321,1.12 -79.19,37.35 -79.19,81.81 0,19.85 10.825,38.08 25.156,52.25 -30.524,-12.93 -54.598,-38.14 -66.031,-69.4 2.9079,63.68 55.509,114.5 119.9,114.5 66.27,0 120.04,-53.77 120.04,-120.03 0,-14.47 -2.55,-28.34 -7.25,-41.19 0.09,1.84 0.16,3.7 0.16,5.56 0,32.54 -12.99,62.06 -34.03,83.69 3.6,-7.99 5.75,-16.52 5.75,-25.38 0,-45.17 -24.62,-81.81 -81.85,-81.81 -0.89,0 -1.77,-0.02 -2.65,0 z"
       transform="translate(239.74,384.07)"
       inkscape:connector-curvature="0" />
    <path
       id="path3172"
       style="fill:#ffffff;stroke:#000000;stroke-width:1.6;stroke-linecap:round;stroke-linejoin:round;fill-opacity:1;stroke-miterlimit:4;stroke-dasharray:none"
       d="m 359.45,671.28 c 0,9.09 14.67,9.38 32.74,9.38 18.07,0 32.73,0.69 32.73,-9.38 0,-17.72 -14.66,-32.1 -32.73,-32.1 -18.07,0 -32.74,14.38 -32.74,32.1 z"
       inkscape:connector-curvature="0" />
    <path
       id="path3329"
       style="fill:#ffffff;stroke:#000000;stroke-width:1.6;stroke-linecap:round;stroke-linejoin:round;fill-opacity:1;stroke-miterlimit:4;stroke-dasharray:none"
       d="m 344.46,671.28 c 0,9.09 -14.67,9.38 -32.74,9.38 -18.07,0 -32.73,0.69 -32.73,-9.38 0,-17.72 14.66,-32.1 32.73,-32.1 18.07,0 32.74,14.38 32.74,32.1 z"
       inkscape:connector-curvature="0" />
    <path
       id="path3331"
       style="fill:#ffffff;fill-opacity:1;fill-rule:evenodd;stroke:#000000;stroke-width:1.6;stroke-linejoin:round;stroke-miterlimit:4;stroke-dasharray:none"
       d="m 299.13,680.06 c 0,-16.37 9.44,-26.44 9.44,-26.44 0,0 -3.77,13.85 -3.14,26.44 z"
       inkscape:connector-curvature="0" />
    <path
       id="path2399"
       style="fill:#ffffff;fill-rule:evenodd;stroke:#000000;stroke-width:1.6;stroke-linejoin:round;fill-opacity:1;stroke-miterlimit:4;stroke-dasharray:none"
       d="m 353.05,623.66 c -46.4,-3.35 -78.5,11.44 -78.5,11.44 0,0 10.24,-0.25 16.02,0.67 -10.83,7.42 -14.38,22.13 -14.38,22.13 0,0 12.07,-12.95 24.46,-17.55 -10.52,13.98 -11.92,36.96 -11.92,36.96 0,0 12.09,-35.73 34.68,-43.13 17.22,-5.64 35.44,-2.32 35.44,-2.32 0,0 36.11,-2.49 48.49,19.08 1.63,0.77 1.47,-13.1 -8.79,-18.05 l 27.63,-1.43 c -20.15,-8.49 -73.13,-7.8 -73.13,-7.8 z"
       inkscape:connector-curvature="0" />
    <path
       id="path3155"
       style="fill:#ffffff;stroke:#000000;stroke-width:1.6;stroke-linecap:round;stroke-linejoin:round;fill-opacity:1;stroke-miterlimit:4;stroke-dasharray:none"
       d="m 348.61,478.41 c -30.13,0.61 -50.93,11.65 -63.62,28.75 -24.07,-2.59 -44.07,23.62 -44.07,23.62 0,0 18.89,9.45 32.07,1.54 -2.4,8.71 -3.57,18.1 -3.57,27.9 0,45.18 56.13,81.85 81.85,81.85 26.71,0 81.84,-36.67 81.84,-81.85 0,-9.8 -1.16,-19.19 -3.56,-27.9 13.17,7.91 32.03,-1.54 32.03,-1.54 0,0 -19.97,-26.2 -44.03,-23.62 -13.06,-17.6 -34.71,-28.75 -66.28,-28.75 -0.9,0 -1.78,-0.02 -2.66,0 z"
       inkscape:connector-curvature="0" />
    <path
       id="path3174"
       style="fill:#ffffff;fill-opacity:1;fill-rule:evenodd;stroke:#000000;stroke-width:1.6;stroke-linejoin:round;stroke-miterlimit:4;stroke-dasharray:none"
       d="m 404.78,680.06 c 0,-16.37 -9.44,-26.44 -9.44,-26.44 0,0 3.77,13.85 3.14,26.44 z"
       inkscape:connector-curvature="0" />
    <path
       id="path3157"
       style="fill:#ffffff;stroke:#000000;stroke-width:1.6;stroke-linecap:round;stroke-linejoin:round;stroke-miterlimit:4;stroke-dasharray:none"
       d="m 347.64,548.24 c 0.01,12.51 -10.14,22.67 -22.66,22.67 -12.52,0 -22.67,-10.16 -22.66,-22.67 -0.01,-12.52 10.14,-22.67 22.66,-22.67 12.52,0 22.67,10.15 22.66,22.67 z"
       inkscape:connector-curvature="0" />
    <path
       id="path3159"
       style="fill:#ffffff;stroke:#000000;stroke-width:1.6;stroke-linecap:round;stroke-linejoin:round;stroke-miterlimit:4;stroke-dasharray:none"
       d="m 400.38,548.24 c 0,12.51 -10.15,22.67 -22.67,22.67 -12.52,0 -22.66,-10.16 -22.66,-22.67 0,-12.52 10.14,-22.67 22.66,-22.67 12.52,0 22.67,10.15 22.67,22.67 z"
       inkscape:connector-curvature="0" />
    <path
       id="path3161"
       style="fill:#000000;stroke-width:1.6;stroke-miterlimit:4;stroke-dasharray:none"
       d="m 380.23,552.24 c 0,4.17 -3.38,7.55 -7.55,7.55 -4.18,0 -7.56,-3.38 -7.56,-7.55 0,-4.18 3.38,-7.56 7.56,-7.56 4.17,0 7.55,3.38 7.55,7.56 z"
       inkscape:connector-curvature="0" />
    <path
       id="path3163"
       style="fill:#000000;stroke-width:1.6;stroke-miterlimit:4;stroke-dasharray:none"
       d="m 338.2,552.24 c 0,4.17 -3.38,7.55 -7.55,7.55 -4.18,0 -7.56,-3.38 -7.56,-7.55 0,-4.18 3.38,-7.56 7.56,-7.56 4.17,0 7.55,3.38 7.55,7.56 z"
       inkscape:connector-curvature="0" />
    <path
       id="path2398"
       style="fill:#000000;stroke-width:1.6;stroke-miterlimit:4;stroke-dasharray:none"
       d="m 367.87,612.87 c -2.29,3.97 -6.5,5.84 -9.4,4.16 -2.89,-1.67 -3.38,-6.25 -1.09,-10.22 2.29,-3.97 6.5,-5.84 9.4,-4.16 2.89,1.67 3.38,6.24 1.09,10.22 z"
       inkscape:connector-curvature="0" />
    <path
       id="path2412"
       style="fill:#000000;stroke-width:1.6;stroke-miterlimit:4;stroke-dasharray:none"
       d="m 335.13,612.87 c 2.29,3.97 6.5,5.84 9.4,4.16 2.89,-1.67 3.38,-6.25 1.09,-10.22 -2.29,-3.97 -6.5,-5.84 -9.4,-4.16 -2.89,1.67 -3.38,6.24 -1.09,10.22 z"
       inkscape:connector-curvature="0" />
    <path
       id="path3181"
       style="fill:#ffffff;stroke:#000000;stroke-width:1.6;stroke-linecap:round;stroke-linejoin:round;fill-opacity:1;stroke-miterlimit:4;stroke-dasharray:none"
       d="m 276.14,641.02 c -3.3,-0.35 -6.28,2.04 -6.63,5.34 -0.05,0.52 -0.01,1.04 0.06,1.54 -2.78,0.27 -5.1,2.49 -5.4,5.38 -0.34,3.29 2.08,6.24 5.38,6.59 0.75,0.08 1.46,0 2.15,-0.18 -0.17,3.17 2.18,5.98 5.37,6.31 3.3,0.35 6.25,-2.07 6.6,-5.37 0.08,-0.83 0,-1.64 -0.22,-2.38 2.57,-0.46 4.66,-2.57 4.95,-5.3 0.34,-3.3 -2.07,-6.25 -5.37,-6.59 -0.53,-0.06 -1.05,-0.05 -1.55,0.02 -0.27,-2.78 -2.45,-5.06 -5.34,-5.36 z m 0.29,11.9 c 0.04,0.41 0.1,0.81 0.22,1.19 -0.17,0.03 -0.34,0.06 -0.51,0.1 0.02,-0.42 0.01,-0.85 -0.06,-1.26 0.12,-0.01 0.24,-0.01 0.35,-0.03 z"
       inkscape:connector-curvature="0" />
  </g>
  <metadata
     id="metadata19">
    <rdf:RDF>
      <cc:Work>
        <dc:format>image/svg+xml</dc:format>
        <dc:type
           rdf:resource="http://purl.org/dc/dcmitype/StillImage" />
        <cc:license
           rdf:resource="http://creativecommons.org/publicdomain/zero/1.0/" />
        <dc:publisher>
          <cc:Agent
             rdf:about="http://openclipart.org/">
            <dc:title>Openclipart</dc:title>
          </cc:Agent>
        </dc:publisher>
        <dc:title></dc:title>
        <dc:date>2008-07-07T20:04:15</dc:date>
        <dc:description>A very round sheep :)</dc:description>
        <dc:source>https://openclipart.org/detail/17637/cartoon-sheep-by-lemmling</dc:source>
        <dc:creator>
          <cc:Agent>
            <dc:title>lemmling</dc:title>
          </cc:Agent>
        </dc:creator>
        <dc:subject>
          <rdf:Bag>
            <rdf:li>animal</rdf:li>
            <rdf:li>cartoon</rdf:li>
            <rdf:li>colour</rdf:li>
            <rdf:li>funny</rdf:li>
            <rdf:li>how i did it</rdf:li>
            <rdf:li>mammal</rdf:li>
            <rdf:li>sheep</rdf:li>
          </rdf:Bag>
        </dc:subject>
      </cc:Work>
      <cc:License
         rdf:about="http://creativecommons.org/publicdomain/zero/1.0/">
        <cc:permits
           rdf:resource="http://creativecommons.org/ns#Reproduction" />
        <cc:permits
           rdf:resource="http://creativecommons.org/ns#Distribution" />
        <cc:permits
           rdf:resource="http://creativecommons.org/ns#DerivativeWorks" />
      </cc:License>
    </rdf:RDF>
  </metadata>
</svg>
