<?xml version="1.0" encoding="UTF-8" standalone="no"?>
<!-- Created with Inkscape (http://www.inkscape.org/) -->
<svg xmlns:rdf="http://www.w3.org/1999/02/22-rdf-syntax-ns#" xmlns="http://www.w3.org/2000/svg" xmlns:cc="http://web.resource.org/cc/" xmlns:dc="http://purl.org/dc/elements/1.1/" xmlns:svg="http://www.w3.org/2000/svg" xmlns:inkscape="http://www.inkscape.org/namespaces/inkscape" xmlns:sodipodi="http://sodipodi.sourceforge.net/DTD/sodipodi-0.dtd" xmlns:ns1="http://sozi.baierouge.fr" xmlns:xlink="http://www.w3.org/1999/xlink" id="svg2" viewBox="0 0 250.77 393.49" version="1.0" inkscape:version="0.91 r13725">
  <g id="layer1" transform="translate(-200.08 -237.53)">
    <path id="path3229" style="fill-rule:evenodd;stroke:#000000;stroke-width:4;fill:#a05a2c" d="m305.95 383.81c-9.45-63.58 54.4-67.86 47.21-93.17-7.47-26.32-36.51-18.88-51.62-22.66s-12.88-17.74-3.78-25.18c6.93-5.67 63.55-8.73 76.81 32.73 18.43 57.68-45.33 52.88-45.33 107.02 0 46.03-22.03 1.26-23.29 1.26z"/>
    <path id="path2383" style="stroke-linejoin:round;stroke:#000000;stroke-linecap:round;stroke-width:2.2041;fill:#a05a2c" d="m403.52 522.31a67.988 67.988 0 1 1 -135.97 0 67.988 67.988 0 1 1 135.97 0z" transform="matrix(1.8148 0 0 1.8148 -283.47 -459.58)"/>
    <path id="path3334" style="fill-rule:evenodd;fill:#000000;fill-opacity:.31373" d="m359.16 253.06c3.32 4.19 6.04 9.14 7.9 14.97 18.44 57.68-45.31 52.89-45.31 107.03 0 18.7-3.66 22.4-8.06 20.22 6.79 9.21 15.56 16.33 15.56-12.72 0-54.14 63.75-49.35 45.31-107.03-3.13-9.79-8.66-17.09-15.4-22.47zm-68.16 6.41c1.12 3.77 4.39 6.96 10.53 8.5 10.77 2.69 28.62-0.3 40.69 7.28-10.62-16.85-34.84-11.44-48.19-14.78-1.11-0.28-2.1-0.62-3.03-1z"/>
    <path id="path3306" style="fill:#000000;fill-opacity:.31373" d="m279.31 373.88c-14.36 5.8-27.38 14.22-38.47 24.68 3.25 5.52 7.45 10.59 12.78 14.41-12.29 16.1-19.59 36.19-19.59 58 0 52.82 42.87 95.69 95.69 95.69s95.69-42.87 95.69-95.69c0-21.6-7.2-41.51-19.29-57.53 3.73-2.55 6.89-5.7 9.6-9.19-10.57-11.34-23.22-20.71-37.38-27.44-0.3 0.36-0.59 0.73-0.87 1.1-2.16 2.77-3.55 5.36-4.35 7.78-13.03-6.66-27.77-10.41-43.4-10.41-15.29 0-29.74 3.59-42.56 9.97-0.82-2.29-2.17-4.73-4.19-7.34-1.09-1.4-2.32-2.74-3.66-4.03z"/>
    <path id="path2385" style="stroke-linejoin:round;stroke:#000000;stroke-linecap:round;stroke-width:4;fill:#a05a2c" d="m233.72 341.74c-2.57 0.05-4.46 0.58-5.41 1.65-3.48 3.94-0.59 39.94 21.07 55.44-12.3 16.1-19.6 36.19-19.6 58 0 52.82 42.87 95.69 95.69 95.69s95.69-42.87 95.69-95.69c0-21.6-7.2-41.51-19.28-57.53 22.26-15.23 25.27-51.93 21.74-55.91-5.04-5.7-37.51 3.77-50.4 20.38-2.16 2.78-3.55 5.36-4.34 7.78-13.04-6.66-27.78-10.41-43.41-10.41-15.29 0-29.74 3.59-42.56 9.97-0.82-2.29-2.17-4.73-4.19-7.34-10.48-13.5-33.89-22.28-45-22.03z"/>
    <path id="path3293" style="fill:#000000;fill-opacity:.31373" d="m413.66 419.75c1.2 6.05 1.84 12.29 1.84 18.69 0 52.82-42.87 95.69-95.69 95.68-39.61 0-73.62-24.09-88.15-58.43 8.77 43.79 47.45 76.84 93.81 76.84 52.82 0 95.69-42.87 95.69-95.69 0-13.15-2.69-25.69-7.5-37.09z"/>
    <path id="path2387" style="stroke-linejoin:round;stroke:#000000;stroke-linecap:round;stroke-width:9.931;fill:#ffffff" d="m403.52 522.31a67.988 67.988 0 1 1 -135.97 0 67.988 67.988 0 1 1 135.97 0z" transform="matrix(.40278 0 0 .40278 157.9 232.93)"/>
    <path id="path2391" style="stroke-linejoin:round;stroke:#000000;stroke-linecap:round;stroke-width:9.931;fill:#ffffff" d="m403.52 522.31a67.988 67.988 0 1 1 -135.97 0 67.988 67.988 0 1 1 135.97 0z" transform="matrix(.40278 0 0 .40278 221.48 232.93)"/>
    <path id="path2393" style="fill:#000000" d="m403.52 522.31a67.988 67.988 0 1 1 -135.97 0 67.988 67.988 0 1 1 135.97 0z" transform="matrix(.125 0 0 .125 259.28 381.16)"/>
    <path id="path2395" style="fill:#000000" d="m403.52 522.31a67.988 67.988 0 1 1 -135.97 0 67.988 67.988 0 1 1 135.97 0z" transform="matrix(.125 0 0 .125 305.87 381.16)"/>
    <path id="path2397" style="fill:#000000" d="m341.53 498.13c0 8.83-9.67 15.99-16.07 15.99-6.89 0-16.06-7.16-16.06-15.99s7.19-11.08 16.06-11.08 16.07 2.25 16.07 11.08z"/>
    <g id="g3178" transform="translate(-2.5219 -5.0362)">
      <path id="path2400" style="stroke-linejoin:round;stroke:#000000;stroke-linecap:round;stroke-width:4.2713;fill:none" d="m392.75 487.02a39.03 39.03 0 0 1 -57.21 43.91" transform="matrix(.93748 0 0 .93548 13.993 33.332)"/>
      <path id="path3176" style="stroke-linejoin:round;stroke:#000000;stroke-linecap:round;stroke-width:4.2713;fill:none" d="m392.75 487.02a39.03 39.03 0 0 1 -57.21 43.91" transform="matrix(-.93748 0 0 .93548 641.98 33.332)"/>
    </g>
    <path id="path3339" style="fill:#000000;fill-opacity:.31373" d="m434.03 429.69c3.2 10.97 4.91 22.59 4.91 34.59 0 68.11-55.27 123.38-123.38 123.38-46.82 0-87.6-26.14-108.5-64.6 15.03 51.2 62.37 88.63 118.41 88.63 68.11 0 123.37-55.27 123.37-123.38 0-21.21-5.37-41.18-14.81-58.62z"/>
    <g id="g3188" transform="translate(0 -10.702)">
      <path id="path3182" style="stroke:#000000;stroke-linecap:round;stroke-width:4;fill:none" d="m365.35 505.67c44.67-16.61 66.5 3.89 66.5 3.89"/>
      <path id="path3184" style="stroke:#000000;stroke-linecap:round;stroke-width:4;fill:none" d="m358.94 516.8c31.63-8.96 52.35 13.89 52.35 13.89"/>
      <path id="path3186" style="stroke:#000000;stroke-linecap:round;stroke-width:4;fill:none" d="m356.31 528.71c24.34-2.57 33.66 19.13 33.66 19.13"/>
    </g>
    <g id="g3193" transform="matrix(-1 0 0 1 651.55 -10.702)">
      <path id="path3195" style="stroke:#000000;stroke-linecap:round;stroke-width:4;fill:none" d="m365.35 505.67c44.67-16.61 66.5 3.89 66.5 3.89"/>
      <path id="path3197" style="stroke:#000000;stroke-linecap:round;stroke-width:4;fill:none" d="m358.94 516.8c31.63-8.96 52.35 13.89 52.35 13.89"/>
      <path id="path3199" style="stroke:#000000;stroke-linecap:round;stroke-width:4;fill:none" d="m356.31 528.71c24.34-2.57 33.66 19.13 33.66 19.13"/>
    </g>
    <path id="path3231" style="stroke-linejoin:round;fill-rule:evenodd;stroke:#000000;stroke-width:4;fill:#784421" d="m381.49 380.03c2.52-19.51 31.48-32.73 35.25-29.58 3.78 3.14-4.67 33.4-20.77 40.91-9.44 4.41-14.48-6.29-14.48-11.33z"/>
    <path id="path3233" style="stroke-linejoin:round;fill-rule:evenodd;stroke:#000000;stroke-width:4;fill:#784421" d="m269.7 380.03c-2.52-19.51-31.48-32.73-35.25-29.58-3.78 3.14 4.66 33.4 20.77 40.91 9.44 4.41 14.48-6.29 14.48-11.33z"/>
    <path id="path3235" style="stroke-linejoin:round;stroke:#000000;stroke-linecap:round;stroke-width:4;fill:#a05a2c" d="m409.5 608.24c0 21.54-17.48 20.77-39.03 20.77-21.54 0-39.03 0.77-39.03-20.77 0-21.55 17.49-39.03 39.03-39.03 21.55 0 39.03 17.48 39.03 39.03z"/>
    <path id="path3238" style="stroke-linejoin:round;stroke:#000000;stroke-linecap:round;stroke-width:4;fill:#a05a2c" d="m319.48 608.24c0 21.54-17.48 20.77-39.03 20.77-11.98 0-22.7 0.24-29.86-3.25-5.72-2.79-9.17-7.96-9.17-17.52 0-21.55 17.49-39.03 39.03-39.03 21.55 0 39.03 17.48 39.03 39.03z"/>
    <path id="path3327" style="fill:#000000;fill-opacity:.31373" d="m390.97 575.03c4.72 6.48 7.53 14.47 7.53 23.09 0 12.47-5.84 23.56-14.91 30.76 15.09-0.58 25.91-3.7 25.91-20.63 0-14.03-7.41-26.34-18.53-33.22z"/>
    <path id="path3332" style="fill:#000000;fill-opacity:.31373" d="m300.47 575.03c4.72 6.48 7.53 14.47 7.53 23.09 0 12.47-5.84 23.56-14.91 30.76 15.09-0.58 25.91-3.7 25.91-20.63 0-14.03-7.41-26.34-18.53-33.22z"/>
    <path id="path3349" style="fill:#000000;fill-opacity:.31373" d="m336.66 588.75c-3.32 5.73-5.22 12.41-5.22 19.5 0 17.51 11.55 20.26 27.44 20.69-15.78-6.58-23.81-22.21-22.22-40.19z"/>
    <g id="g2469" transform="matrix(-1 0 0 1 652.48 -1.8279)">
      <path id="path2471" style="stroke:#000000;stroke-linecap:round;stroke-width:4;fill:none" d="m357.34 628.69c-3.5-11.33 0.5-24.55 0.5-24.55"/>
      <path id="path2473" style="stroke:#000000;stroke-linecap:round;stroke-width:4;fill:none" d="m375.37 631.21c4.29-18.25-0.62-32.73-0.62-32.73"/>
      <path id="path2475" style="stroke:#000000;stroke-linecap:round;stroke-width:4;fill:none" d="m393.62 629.32c8.81-13.85 1.26-25.18 1.26-25.18"/>
    </g>
    <g id="g2508" transform="translate(-.82294 -1.8279)">
      <path id="path2510" style="stroke:#000000;stroke-linecap:round;stroke-width:4;fill:none" d="m357.34 628.69c-3.5-11.33 0.5-24.55 0.5-24.55"/>
      <path id="path2512" style="stroke:#000000;stroke-linecap:round;stroke-width:4;fill:none" d="m375.37 631.21c4.29-18.25-0.62-32.73-0.62-32.73"/>
      <path id="path2514" style="stroke:#000000;stroke-linecap:round;stroke-width:4;fill:none" d="m393.62 629.32c8.81-13.85 1.26-25.18 1.26-25.18"/>
    </g>
  </g>
  <metadata>
    <rdf:RDF>
      <cc:Work>
        <dc:format>image/svg+xml</dc:format>
        <dc:type rdf:resource="http://purl.org/dc/dcmitype/StillImage"/>
        <cc:license rdf:resource="http://creativecommons.org/licenses/publicdomain/"/>
        <dc:publisher>
          <cc:Agent rdf:about="http://openclipart.org/">
            <dc:title>Openclipart</dc:title>
          </cc:Agent>
        </dc:publisher>
        <dc:title>Cartoon cat</dc:title>
        <dc:date>2008-07-10T07:24:31</dc:date>
        <dc:description/>
        <dc:source>https://openclipart.org/detail/17683/cartoon-cat-by-lemmling</dc:source>
        <dc:creator>
          <cc:Agent>
            <dc:title>lemmling</dc:title>
          </cc:Agent>
        </dc:creator>
        <dc:subject>
          <rdf:Bag>
            <rdf:li>animal</rdf:li>
            <rdf:li>brown</rdf:li>
            <rdf:li>cartoon</rdf:li>
            <rdf:li>cat</rdf:li>
            <rdf:li>colour</rdf:li>
            <rdf:li>funny</rdf:li>
            <rdf:li>how i did it</rdf:li>
            <rdf:li>mammal</rdf:li>
          </rdf:Bag>
        </dc:subject>
      </cc:Work>
      <cc:License rdf:about="http://creativecommons.org/licenses/publicdomain/">
        <cc:permits rdf:resource="http://creativecommons.org/ns#Reproduction"/>
        <cc:permits rdf:resource="http://creativecommons.org/ns#Distribution"/>
        <cc:permits rdf:resource="http://creativecommons.org/ns#DerivativeWorks"/>
      </cc:License>
    </rdf:RDF>
  </metadata>
</svg>