<?xml version="1.0" encoding="UTF-8" standalone="no"?>
<!-- Created with Inkscape (http://www.inkscape.org/) -->

<svg
   xmlns:dc="http://purl.org/dc/elements/1.1/"
   xmlns:cc="http://creativecommons.org/ns#"
   xmlns:rdf="http://www.w3.org/1999/02/22-rdf-syntax-ns#"
   xmlns:svg="http://www.w3.org/2000/svg"
   xmlns="http://www.w3.org/2000/svg"
   xmlns:sodipodi="http://sodipodi.sourceforge.net/DTD/sodipodi-0.dtd"
   xmlns:inkscape="http://www.inkscape.org/namespaces/inkscape"
   id="svg2"
   viewBox="0 0 548.484 608.5368"
   version="1.0"
   inkscape:version="0.92.3 (2405546, 2018-03-11)"
   sodipodi:docname="lemmling-Cartoon-cow.svg"
   width="548.48401"
   height="608.5368">
  <defs
     id="defs28" />
  <sodipodi:namedview
     pagecolor="#ffffff"
     bordercolor="#666666"
     borderopacity="1"
     objecttolerance="10"
     gridtolerance="10"
     guidetolerance="10"
     inkscape:pageopacity="0"
     inkscape:pageshadow="2"
     inkscape:window-width="2560"
     inkscape:window-height="1373"
     id="namedview26"
     showgrid="false"
     fit-margin-top="50"
     fit-margin-left="50"
     fit-margin-right="50"
     fit-margin-bottom="50"
     inkscape:zoom="1.9390775"
     inkscape:cx="274.242"
     inkscape:cy="304.2684"
     inkscape:window-x="-9"
     inkscape:window-y="-9"
     inkscape:window-maximized="1"
     inkscape:current-layer="layer1" />
  <g
     id="layer1"
     transform="matrix(2,0,0,2,-428.67581,-806.81161)">
    <path
       id="path2383"
       style="fill:#ffffff;stroke:#000000;stroke-width:1.64365549;stroke-linecap:round;stroke-linejoin:round;stroke-miterlimit:4;stroke-dasharray:none"
       d="m 441.29,560.71 c 0.02,49.72 -40.29,90.04 -90.02,90.04 -49.72,0 -90.03,-40.32 -90.02,-90.04 -0.01,-49.73 40.3,-90.05 90.02,-90.05 49.73,0 90.04,40.32 90.02,90.05 z"
       transform="matrix(1.2168,0,0,1.2168,-76.15,-121.55)"
       inkscape:connector-curvature="0" />
    <path
       id="path3173"
       style="fill:#ffffff;fill-opacity:1;fill-rule:evenodd;stroke:#000000;stroke-width:2.01896739;stroke-miterlimit:4;stroke-dasharray:none;stroke-opacity:1"
       d="m 442.1548,500.3191 c -5.46402,6.59662 -6.31397,17.13108 -4.61406,21.18976 1.2547,3.00122 9.58227,4.47161 17.55568,5.21688 -3.12663,-9.4367 -7.49784,-18.30941 -12.94162,-26.40664 z m -195.71296,29.5992 c -2.8939,9.78919 -4.46228,20.12222 -4.45216,30.84803 0,5.59958 0.42498,11.10852 1.24458,16.47646 8.27697,4.78381 19.02287,20.53514 28.18016,21.72354 11.47443,1.49053 8.98527,-21.8444 2.00347,-23.33493 -6.99192,-1.49054 -9.97689,-12.41777 -10.48281,-24.33198 -0.33392,-7.99652 -4.73549,-15.78154 -16.49324,-21.38112 z m 214.04777,27.92739 c -2.95462,1.36968 -5.69674,3.41413 -7.98354,6.36499 -11.97024,15.38876 -21.94713,4.96509 -33.92749,10.42367 -11.97024,5.46865 -3.98671,19.36688 0.50593,32.77163 3.24805,9.70862 -2.64094,29.02514 4.45216,35.00742 22.70602,-19.94094 37.02377,-49.13729 37.01365,-81.64707 0,-0.9769 -0.0101,-1.94374 -0.0304,-2.92064 -0.0101,0.0101 -0.0303,0 -0.0303,0 z m -148.66171,9.34606 c 4.98844,15.38876 -5.99018,9.93018 -7.98353,20.35385 -1.99336,10.43375 33.42156,13.40475 39.41174,34.75565 5.98006,21.35091 32.92576,9.93019 32.41983,-1.98402 -0.49581,-11.91421 -17.95031,-17.37279 -13.46779,-24.33197 4.49264,-6.94912 13.46779,-21.35091 13.46779,-21.35091 z"
       inkscape:connector-curvature="0" />
    <path
       id="path3172"
       style="fill:#ffffff;stroke:#000000;stroke-width:2;stroke-linecap:round;stroke-linejoin:round;fill-opacity:1;stroke-miterlimit:4;stroke-dasharray:none"
       d="m 359.45,671.28 c 0,9.09 14.67,9.38 32.74,9.38 18.07,0 32.73,0.69 32.73,-9.38 0,-17.72 -14.66,-32.1 -32.73,-32.1 -18.07,0 -32.74,14.38 -32.74,32.1 z"
       inkscape:connector-curvature="0" />
    <path
       id="path3174"
       style="fill:#ffffff;fill-opacity:1;fill-rule:evenodd;stroke:#000000;stroke-width:2;stroke-linejoin:round;stroke-miterlimit:4;stroke-dasharray:none"
       d="m 404.78,680.06 c 0,-16.37 -9.44,-26.44 -9.44,-26.44 0,0 3.77,13.85 3.14,26.44 z"
       inkscape:connector-curvature="0" />
    <path
       id="path3155"
       style="fill:#ffffff;stroke:#000000;stroke-width:2;stroke-linecap:round;stroke-linejoin:round;stroke-miterlimit:4;stroke-dasharray:none"
       d="M 108.88,46.344 C 78.746,46.954 57.943,57.997 45.25,75.094 21.186,72.506 1.188,98.719 1.188,98.719 c -5e-4,0 18.891,9.451 32.062,1.531 -2.399,8.71 -3.562,18.11 -3.562,27.91 0,45.17 56.125,81.84 81.842,81.84 26.72,0 81.85,-36.67 81.85,-81.84 0,-9.8 -1.17,-19.2 -3.57,-27.91 13.17,7.92 32.03,-1.531 32.03,-1.531 0,0 -19.97,-26.205 -44.03,-23.625 -13.06,-17.595 -34.71,-28.75 -66.28,-28.75 -0.89,0 -1.78,-0.018 -2.65,0 z"
       transform="translate(239.74,384.07)"
       inkscape:connector-curvature="0" />
    <path
       id="path3185"
       style="fill:none;fill-rule:evenodd;stroke:#000000;stroke-width:2;stroke-miterlimit:4;stroke-dasharray:none;stroke-opacity:1"
       d="m 365.49,431.38 c 25.72,17.92 -3.05,17.14 -8.75,23.28 -6.5,7 -9,17 -1.5,23.5 7.5,6.5 46,17.5 51.5,-0.5 2.83,-9.28 -0.57,-20.8 -2.35,-30.97 -10.02,-7.86 -22.9,-13.24 -38.9,-15.31 z"
       inkscape:connector-curvature="0" />
    <path
       id="path3157"
       style="fill:#ffffff;stroke:#000000;stroke-width:7.94438928;stroke-linecap:round;stroke-linejoin:round;stroke-miterlimit:4;stroke-dasharray:none"
       d="m 441.29,560.71 c 0.02,49.72 -40.29,90.04 -90.02,90.04 -49.72,0 -90.03,-40.32 -90.02,-90.04 -0.01,-49.73 40.3,-90.05 90.02,-90.05 49.73,0 90.04,40.32 90.02,90.05 z"
       transform="matrix(0.25175,0,0,0.25175,236.55,359.08)"
       inkscape:connector-curvature="0" />
    <path
       id="path3159"
       style="fill:#ffffff;stroke:#000000;stroke-width:7.94438928;stroke-linecap:round;stroke-linejoin:round;stroke-miterlimit:4;stroke-dasharray:none"
       d="m 441.29,560.71 c 0.02,49.72 -40.29,90.04 -90.02,90.04 -49.72,0 -90.03,-40.32 -90.02,-90.04 -0.01,-49.73 40.3,-90.05 90.02,-90.05 49.73,0 90.04,40.32 90.02,90.05 z"
       transform="matrix(0.25175,0,0,0.25175,289.28,359.08)"
       inkscape:connector-curvature="0" />
    <path
       id="path3161"
       style="fill:#000000;stroke-width:23.83335717;stroke-miterlimit:4;stroke-dasharray:none"
       d="m 441.29,560.71 c 0.02,49.72 -40.29,90.04 -90.02,90.04 -49.72,0 -90.03,-40.32 -90.02,-90.04 -0.01,-49.73 40.3,-90.05 90.02,-90.05 49.73,0 90.04,40.32 90.02,90.05 z"
       transform="matrix(0.083916,0,0,0.083916,343.2,457.18)"
       inkscape:connector-curvature="0" />
    <path
       id="path3163"
       style="fill:#000000;stroke-width:23.83335717;stroke-miterlimit:4;stroke-dasharray:none"
       d="m 441.29,560.71 c 0.02,49.72 -40.29,90.04 -90.02,90.04 -49.72,0 -90.03,-40.32 -90.02,-90.04 -0.01,-49.73 40.3,-90.05 90.02,-90.05 49.73,0 90.04,40.32 90.02,90.05 z"
       transform="matrix(0.083916,0,0,0.083916,301.17,457.18)"
       inkscape:connector-curvature="0" />
    <path
       id="path3210"
       style="fill:#ffffff;stroke:#000000;stroke-width:2;stroke-linecap:round;stroke-linejoin:round;fill-opacity:1;stroke-miterlimit:4;stroke-dasharray:none"
       d="m 111.53,159.59 c -19.861,0 -35.968,13.22 -35.968,29.5 0,3.02 0.565,5.95 1.594,8.69 12.712,7.74 25.394,12.22 34.374,12.22 9.2,0 21.76,-4.33 34.28,-11.88 1.12,-2.84 1.72,-5.88 1.72,-9.03 0,-16.28 -16.14,-29.5 -36,-29.5 z"
       transform="translate(239.74,384.07)"
       inkscape:connector-curvature="0" />
    <path
       id="path3329"
       style="fill:#ffffff;stroke:#000000;stroke-width:2;stroke-linecap:round;stroke-linejoin:round;fill-opacity:1;stroke-miterlimit:4;stroke-dasharray:none"
       d="m 344.46,671.28 c 0,9.09 -14.67,9.38 -32.74,9.38 -18.07,0 -32.73,0.69 -32.73,-9.38 0,-17.72 14.66,-32.1 32.73,-32.1 18.07,0 32.74,14.38 32.74,32.1 z"
       inkscape:connector-curvature="0" />
    <path
       id="path3331"
       style="fill:#ffffff;fill-opacity:1;fill-rule:evenodd;stroke:#000000;stroke-width:2;stroke-linejoin:round;stroke-miterlimit:4;stroke-dasharray:none"
       d="m 299.13,680.06 c 0,-16.37 9.44,-26.44 9.44,-26.44 0,0 -3.77,13.85 -3.14,26.44 z"
       inkscape:connector-curvature="0" />
    <path
       id="path2398"
       style="fill:#000000;stroke-width:2;stroke-miterlimit:4;stroke-dasharray:none"
       d="m 367.87,568.87 c -2.29,3.97 -6.5,5.84 -9.4,4.16 -2.89,-1.67 -3.38,-6.25 -1.09,-10.22 2.29,-3.97 6.5,-5.84 9.4,-4.16 2.89,1.67 3.38,6.24 1.09,10.22 z"
       inkscape:connector-curvature="0" />
    <path
       id="path2412"
       style="fill:#000000;stroke-width:2;stroke-miterlimit:4;stroke-dasharray:none"
       d="m 335.13,568.87 c 2.29,3.97 6.5,5.84 9.4,4.16 2.89,-1.67 3.38,-6.25 1.09,-10.22 -2.29,-3.97 -6.5,-5.84 -9.4,-4.16 -2.89,1.67 -3.38,6.24 -1.09,10.22 z"
       inkscape:connector-curvature="0" />
    <path
       id="path2399"
       style="fill:#ffffff;fill-rule:evenodd;stroke:#000000;stroke-width:2;fill-opacity:1;stroke-miterlimit:4;stroke-dasharray:none"
       d="m 292.24,460.67 c -7.34,-1.33 -15.5,-21.5 -12.5,-25.5 3,-4 26.37,4.46 27,13.5 0.55,7.97 -5.39,13.65 -14.5,12 z"
       inkscape:connector-curvature="0" />
    <path
       id="path3171"
       style="fill:#ffffff;fill-rule:evenodd;stroke:#000000;stroke-width:2;fill-opacity:1;stroke-miterlimit:4;stroke-dasharray:none"
       d="m 409.13,460.67 c 7.34,-1.33 15.5,-21.5 12.5,-25.5 -3,-4 -26.37,4.46 -27,13.5 -0.55,7.97 5.39,13.65 14.5,12 z"
       inkscape:connector-curvature="0" />
  </g>
  <metadata
     id="metadata23">
    <rdf:RDF>
      <cc:Work>
        <dc:format>image/svg+xml</dc:format>
        <dc:type
           rdf:resource="http://purl.org/dc/dcmitype/StillImage" />
        <cc:license
           rdf:resource="http://creativecommons.org/publicdomain/zero/1.0/" />
        <dc:publisher>
          <cc:Agent
             rdf:about="http://openclipart.org/">
            <dc:title>Openclipart</dc:title>
          </cc:Agent>
        </dc:publisher>
        <dc:title>Cartoon cow</dc:title>
        <dc:date>2008-07-09T15:54:00</dc:date>
        <dc:description>moo</dc:description>
        <dc:source>https://openclipart.org/detail/17676/cartoon-cow-by-lemmling</dc:source>
        <dc:creator>
          <cc:Agent>
            <dc:title>lemmling</dc:title>
          </cc:Agent>
        </dc:creator>
        <dc:subject>
          <rdf:Bag>
            <rdf:li>animal</rdf:li>
            <rdf:li>cartoon</rdf:li>
            <rdf:li>colour</rdf:li>
            <rdf:li>cow</rdf:li>
            <rdf:li>funny</rdf:li>
            <rdf:li>how i did it</rdf:li>
            <rdf:li>mammal</rdf:li>
          </rdf:Bag>
        </dc:subject>
      </cc:Work>
      <cc:License
         rdf:about="http://creativecommons.org/publicdomain/zero/1.0/">
        <cc:permits
           rdf:resource="http://creativecommons.org/ns#Reproduction" />
        <cc:permits
           rdf:resource="http://creativecommons.org/ns#Distribution" />
        <cc:permits
           rdf:resource="http://creativecommons.org/ns#DerivativeWorks" />
      </cc:License>
    </rdf:RDF>
  </metadata>
</svg>
