<?xml version="1.0" encoding="UTF-8" standalone="no"?>
<!-- Created with Inkscape (http://www.inkscape.org/) -->

<svg
   xmlns:dc="http://purl.org/dc/elements/1.1/"
   xmlns:cc="http://creativecommons.org/ns#"
   xmlns:rdf="http://www.w3.org/1999/02/22-rdf-syntax-ns#"
   xmlns:svg="http://www.w3.org/2000/svg"
   xmlns="http://www.w3.org/2000/svg"
   xmlns:sodipodi="http://sodipodi.sourceforge.net/DTD/sodipodi-0.dtd"
   xmlns:inkscape="http://www.inkscape.org/namespaces/inkscape"
   id="svg2"
   viewBox="0 0 686.78823 886.58503"
   version="1.0"
   inkscape:version="0.92.3 (2405546, 2018-03-11)"
   sodipodi:docname="lemmling-Cartoon-dog.adapted.svg"
   width="686.78821"
   height="886.58502">
  <defs
     id="defs38" />
  <sodipodi:namedview
     pagecolor="#ffffff"
     bordercolor="#666666"
     borderopacity="1"
     objecttolerance="10"
     gridtolerance="10"
     guidetolerance="10"
     inkscape:pageopacity="0"
     inkscape:pageshadow="2"
     inkscape:window-width="2560"
     inkscape:window-height="1373"
     id="namedview36"
     showgrid="false"
     fit-margin-top="50"
     fit-margin-left="50"
     fit-margin-right="50"
     fit-margin-bottom="50"
     inkscape:zoom="1.3309496"
     inkscape:cx="343.3941"
     inkscape:cy="443.29251"
     inkscape:window-x="-9"
     inkscape:window-y="-9"
     inkscape:window-maximized="1"
     inkscape:current-layer="layer1" />
  <g
     id="layer1"
     transform="matrix(2,0,0,2,-308.09589,-547.03828)">
    <path
       id="path3205"
       style="fill:#ffffff;fill-rule:evenodd;stroke:#000000;stroke-width:2;stroke-linejoin:round;fill-opacity:1;stroke-miterlimit:4;stroke-dasharray:none"
       d="m 322.08,376.02 c 1.5,-30.5 39,-75 45.5,-75.5 6.5,-0.5 -14,70.5 -19.5,75.5 -5.5,5 -25.5,1.5 -26,0 z"
       inkscape:connector-curvature="0" />
    <path
       id="path2383"
       style="fill:#ffffff;stroke:#000000;stroke-width:1.10204981;stroke-linecap:round;stroke-linejoin:round;fill-opacity:1;stroke-miterlimit:4;stroke-dasharray:none"
       d="m 403.52,522.31 a 67.988,67.988 0 1 1 -135.97,0 67.988,67.988 0 1 1 135.97,0 z"
       transform="matrix(1.8148,0,0,1.8148,-283.47,-459.58)"
       inkscape:connector-curvature="0" />
    <path
       id="path3339"
       style="fill:#ffffff;fill-opacity:1;stroke:#000000;stroke-width:2;stroke-miterlimit:4;stroke-dasharray:none;stroke-opacity:1"
       d="m 434.03,430.69 c 3.2,10.97 4.91,22.59 4.91,34.59 0,68.11 -55.27,123.38 -123.38,123.38 -46.82,0 -87.6,-26.14 -108.5,-64.6 15.03,51.2 62.37,88.63 118.41,88.63 68.11,0 123.37,-55.27 123.37,-123.38 0,-21.21 -5.37,-41.18 -14.81,-58.62 z"
       inkscape:connector-curvature="0" />
    <path
       id="path3235"
       style="fill:#ffffff;stroke:#000000;stroke-width:2;stroke-linecap:round;stroke-linejoin:round;fill-opacity:1;stroke-miterlimit:4;stroke-dasharray:none"
       d="m 409.5,608.24 c 0,21.54 -17.48,20.77 -39.03,20.77 -21.54,0 -39.03,0.77 -39.03,-20.77 0,-21.55 17.49,-39.03 39.03,-39.03 21.55,0 39.03,17.48 39.03,39.03 z"
       inkscape:connector-curvature="0" />
    <path
       id="path3238"
       style="fill:#ffffff;stroke:#000000;stroke-width:2;stroke-linecap:round;stroke-linejoin:round;fill-opacity:1;stroke-miterlimit:4;stroke-dasharray:none"
       d="m 319.48,608.24 c 0,21.54 -17.48,20.77 -39.03,20.77 -11.98,0 -22.7,0.24 -29.86,-3.25 -5.72,-2.79 -9.17,-7.96 -9.17,-17.52 0,-21.55 17.49,-39.03 39.03,-39.03 21.55,0 39.03,17.48 39.03,39.03 z"
       inkscape:connector-curvature="0" />
    <g
       id="g3263"
       transform="matrix(-1,0,0,1,652.15,-1.8284)"
       style="stroke-width:2;stroke-miterlimit:4;stroke-dasharray:none">
      <path
         id="path3265"
         style="fill:none;stroke:#000000;stroke-width:2;stroke-linecap:round;stroke-miterlimit:4;stroke-dasharray:none"
         d="m 357.34,628.69 c -3.5,-11.33 0.5,-24.55 0.5,-24.55"
         inkscape:connector-curvature="0" />
      <path
         id="path3267"
         style="fill:none;stroke:#000000;stroke-width:2;stroke-linecap:round;stroke-miterlimit:4;stroke-dasharray:none"
         d="m 375.37,631.21 c 4.29,-18.25 -0.62,-32.73 -0.62,-32.73"
         inkscape:connector-curvature="0" />
      <path
         id="path3269"
         style="fill:none;stroke:#000000;stroke-width:2;stroke-linecap:round;stroke-miterlimit:4;stroke-dasharray:none"
         d="m 393.62,629.32 c 8.81,-13.85 1.26,-25.18 1.26,-25.18"
         inkscape:connector-curvature="0" />
    </g>
    <path
       id="path2418"
       style="fill:#ffffff;stroke:#000000;stroke-width:1.42551675;stroke-linecap:round;stroke-linejoin:round;fill-opacity:1;stroke-miterlimit:4;stroke-dasharray:none"
       d="m 403.52,522.31 a 67.988,67.988 0 1 1 -135.97,0 67.988,67.988 0 1 1 135.97,0 z"
       transform="matrix(1.403,0,0,1.403,-145.29,-277.47)"
       inkscape:connector-curvature="0" />
    <path
       id="path2387"
       style="fill:#ffffff;stroke:#000000;stroke-width:4.96548985;stroke-linecap:round;stroke-linejoin:round;stroke-miterlimit:4;stroke-dasharray:none"
       d="m 403.52,522.31 a 67.988,67.988 0 1 1 -135.97,0 67.988,67.988 0 1 1 135.97,0 z"
       transform="matrix(0.40278,0,0,0.40278,158.81,226.93)"
       inkscape:connector-curvature="0" />
    <path
       id="path2391"
       style="fill:#ffffff;stroke:#000000;stroke-width:4.96548985;stroke-linecap:round;stroke-linejoin:round;stroke-miterlimit:4;stroke-dasharray:none"
       d="m 403.52,522.31 a 67.988,67.988 0 1 1 -135.97,0 67.988,67.988 0 1 1 135.97,0 z"
       transform="matrix(0.40278,0,0,0.40278,222.39,226.93)"
       inkscape:connector-curvature="0" />
    <path
       id="path2393"
       style="fill:#000000;stroke-width:16;stroke-miterlimit:4;stroke-dasharray:none"
       d="m 403.52,522.31 a 67.988,67.988 0 1 1 -135.97,0 67.988,67.988 0 1 1 135.97,0 z"
       transform="matrix(0.125,0,0,0.125,260.2,375.16)"
       inkscape:connector-curvature="0" />
    <path
       id="path2395"
       style="fill:#000000;stroke-width:16;stroke-miterlimit:4;stroke-dasharray:none"
       d="m 403.52,522.31 a 67.988,67.988 0 1 1 -135.97,0 67.988,67.988 0 1 1 135.97,0 z"
       transform="matrix(0.125,0,0,0.125,306.78,375.16)"
       inkscape:connector-curvature="0" />
    <path
       id="path2397"
       style="fill:#000000;stroke-width:2;stroke-miterlimit:4;stroke-dasharray:none"
       d="m 350.81,501.75 c 0,13.77 -15.08,24.95 -25.07,24.95 -10.75,0 -25.06,-11.18 -25.06,-24.95 0,-13.78 11.23,-17.28 25.06,-17.28 13.84,0 25.07,3.5 25.07,17.28 z"
       inkscape:connector-curvature="0" />
    <g
       id="g2410"
       transform="translate(-0.14728,-1.8284)"
       style="stroke-width:2;stroke-miterlimit:4;stroke-dasharray:none">
      <path
         id="path2412"
         style="fill:none;stroke:#000000;stroke-width:2;stroke-linecap:round;stroke-miterlimit:4;stroke-dasharray:none"
         d="m 357.34,628.69 c -3.5,-11.33 0.5,-24.55 0.5,-24.55"
         inkscape:connector-curvature="0" />
      <path
         id="path2414"
         style="fill:none;stroke:#000000;stroke-width:2;stroke-linecap:round;stroke-miterlimit:4;stroke-dasharray:none"
         d="m 375.37,631.21 c 4.29,-18.25 -0.62,-32.73 -0.62,-32.73"
         inkscape:connector-curvature="0" />
      <path
         id="path2416"
         style="fill:none;stroke:#000000;stroke-width:2;stroke-linecap:round;stroke-miterlimit:4;stroke-dasharray:none"
         d="m 393.62,629.32 c 8.81,-13.85 1.26,-25.18 1.26,-25.18"
         inkscape:connector-curvature="0" />
    </g>
    <path
       id="path3201"
       style="fill:#ffffff;fill-rule:evenodd;stroke:#000000;stroke-width:2;stroke-linejoin:round;fill-opacity:1;stroke-miterlimit:4;stroke-dasharray:none"
       d="m 258.29,386.52 c -54.92,-3.88 -83.53,62.3 -76.03,81.8 6.1,15.85 39.79,31.84 38.43,17.3 -4.41,-47.18 54.73,-97.89 37.6,-99.1 z"
       inkscape:connector-curvature="0" />
    <path
       id="path3203"
       style="fill:#ffffff;fill-rule:evenodd;stroke:#000000;stroke-width:2;stroke-linejoin:round;fill-opacity:1;stroke-miterlimit:4;stroke-dasharray:none"
       d="m 393.2,386.52 c 54.92,-3.88 83.53,62.3 76.03,81.8 -6.1,15.85 -39.79,31.84 -38.43,17.3 4.41,-47.18 -54.73,-97.89 -37.6,-99.1 z"
       inkscape:connector-curvature="0" />
    <path
       id="path3288"
       style="fill:#ffffff;fill-rule:evenodd;stroke:#000000;stroke-width:2;stroke-linejoin:round;fill-opacity:1;stroke-miterlimit:4;stroke-dasharray:none"
       d="m 290.79,670.83 72.77,-15.76 c 0,0 12.42,19.95 26.82,8.58 14.39,-11.37 -5.74,-22.66 -5.74,-22.66 0,0 20.21,-11.03 0.34,-20.94 -19.87,-9.9 -26.5,15.83 -26.5,15.83 l -70.52,12.45 c 0,0 -18.34,-24.58 -31.82,-8.35 -13.47,16.23 5.02,26.4 5.02,26.4 0,0 -14.83,12.89 4.08,21.53 18.92,8.65 24.56,-14.73 25.55,-17.08 z"
       inkscape:connector-curvature="0" />
  </g>
  <metadata
     id="metadata33">
    <rdf:RDF>
      <cc:Work>
        <dc:format>image/svg+xml</dc:format>
        <dc:type
           rdf:resource="http://purl.org/dc/dcmitype/StillImage" />
        <cc:license
           rdf:resource="http://creativecommons.org/publicdomain/zero/1.0/" />
        <dc:publisher>
          <cc:Agent
             rdf:about="http://openclipart.org/">
            <dc:title>Openclipart</dc:title>
          </cc:Agent>
        </dc:publisher>
        <dc:title></dc:title>
        <dc:date>2008-07-10T18:21:08</dc:date>
        <dc:description />
        <dc:source>https://openclipart.org/detail/17692/cartoon-dog-by-lemmling</dc:source>
        <dc:creator>
          <cc:Agent>
            <dc:title>lemmling</dc:title>
          </cc:Agent>
        </dc:creator>
        <dc:subject>
          <rdf:Bag>
            <rdf:li>animal</rdf:li>
            <rdf:li>brown</rdf:li>
            <rdf:li>cartoon</rdf:li>
            <rdf:li>colour</rdf:li>
            <rdf:li>dog</rdf:li>
            <rdf:li>how i did it</rdf:li>
            <rdf:li>mammal</rdf:li>
          </rdf:Bag>
        </dc:subject>
      </cc:Work>
      <cc:License
         rdf:about="http://creativecommons.org/publicdomain/zero/1.0/">
        <cc:permits
           rdf:resource="http://creativecommons.org/ns#Reproduction" />
        <cc:permits
           rdf:resource="http://creativecommons.org/ns#Distribution" />
        <cc:permits
           rdf:resource="http://creativecommons.org/ns#DerivativeWorks" />
      </cc:License>
    </rdf:RDF>
  </metadata>
</svg>
