<?xml version="1.0" encoding="UTF-8" standalone="no"?>
<!-- Created with Inkscape (http://www.inkscape.org/) -->
<svg xmlns:rdf="http://www.w3.org/1999/02/22-rdf-syntax-ns#" xmlns="http://www.w3.org/2000/svg" xmlns:cc="http://web.resource.org/cc/" xmlns:dc="http://purl.org/dc/elements/1.1/" xmlns:svg="http://www.w3.org/2000/svg" xmlns:inkscape="http://www.inkscape.org/namespaces/inkscape" xmlns:sodipodi="http://sodipodi.sourceforge.net/DTD/sodipodi-0.dtd" xmlns:ns1="http://sozi.baierouge.fr" xmlns:xlink="http://www.w3.org/1999/xlink" id="svg2" viewBox="0 0 268.96 504.61" version="1.0" inkscape:version="0.91 r13725">
  <g id="layer1" transform="translate(-216.73 -178.06)">
    <path id="path2383" style="stroke-linejoin:round;stroke:#000000;stroke-linecap:round;stroke-width:3.2874;fill:#ffcc00" d="m441.29 560.71c0.02 49.72-40.29 90.04-90.02 90.04-49.72 0-90.03-40.32-90.02-90.04-0.01-49.73 40.3-90.05 90.02-90.05 49.73 0 90.04 40.32 90.02 90.05z" transform="matrix(1.2168 0 0 1.2168 -76.15 -121.55)"/>
    <path id="path3242" style="fill:#784421" d="m93.338 349.05a18.031 15.556 0 1 1 -36.062 0 18.031 15.556 0 1 1 36.062 0z" transform="matrix(.42473 -.24473 .48790 .84676 78.434 337.3)"/>
    <path id="path3221" style="fill:#000000;fill-opacity:.31373" d="m454.19 523.12c0.07 1.69 0.12 3.4 0.12 5.1 0 60.46-49.06 109.53-109.53 109.53-47.26 0-87.59-30-102.94-71.97 2.66 58.11 50.68 104.47 109.44 104.47 60.47 0 109.53-49.07 109.53-109.53 0-13.2-2.34-25.87-6.62-37.6z"/>
    <path id="path3172" style="stroke-linejoin:round;stroke:#000000;stroke-linecap:round;stroke-width:4;fill:#784421" d="m359.45 671.28c0 9.09 14.67 9.38 32.74 9.38s32.73 0.69 32.73-9.38c0-17.72-14.66-32.1-32.73-32.1s-32.74 14.38-32.74 32.1z"/>
    <path id="path3174" style="stroke-linejoin:round;fill-rule:evenodd;fill-opacity:.31373;stroke:#000000;stroke-width:4;fill:#000000" d="m404.78 680.06c0-16.37-9.44-26.44-9.44-26.44s3.77 13.85 3.14 26.44h6.3z"/>
    <path id="path2399" style="stroke-linejoin:round;fill-rule:evenodd;stroke:#000000;stroke-linecap:round;stroke-width:4;fill:#ffcc00" d="m298.74 487.34c24.5-37.9 20-128.73 20-128.73l60-3.27s-1.5 91.49 23.5 130.04"/>
    <path id="path3244" style="fill:#784421" d="m93.338 349.05a18.031 15.556 0 1 1 -36.062 0 18.031 15.556 0 1 1 36.062 0z" transform="matrix(.58348 0 0 .95455 319.84 61.25)"/>
    <path id="path3214" style="fill-rule:evenodd;fill:#000000;fill-opacity:.31373" d="m162 177.28l-17.16 0.94-42.84 2.34s0.24 4.86 0.31 12.56c13.16 8.26 26.42 13.07 35.72 13.07 3.33 0 7.11-0.57 11.16-1.66 6.18 33.34 17.67 80.34 36.03 102.5l-1 0.35 1.28-0.04c-17.21-26.53-21.83-78.15-23.06-107.75-0.14-3.35-0.25-6.43-0.32-9.15-0.05-2.18-0.07-4.1-0.09-5.78-0.02-1.36-0.03-2.38-0.03-3.38 0-1.55-0.01-1.75 0-2.4v-1.6z" transform="translate(216.73 178.06)"/>
    <path id="path3155" style="stroke-linejoin:round;stroke:#000000;stroke-linecap:round;stroke-width:4;fill:#ffcc00" d="m351.27 208.57c-22.79 0-41.28 6.96-54.88 18.59-0.57-0.43-1.34-0.81-2.34-1.25-55.51-10.61-74.61 25.09-75.31 30.75-0.71 5.66 38.51 14.48 59.37-6.38 0.27-0.27 0.46-0.45 0.72-0.71-6.17 12.02-9.41 25.97-9.41 40.84 0 45.17 56.13 81.84 81.85 81.84 26.71 0 81.84-36.67 81.84-81.84 0-15.04-3.46-29.14-9.94-41.25 0.41 0.41 0.71 0.7 1.13 1.12 20.86 20.86 60.08 12.04 59.37 6.38-0.7-5.66-19.77-41.36-75.28-30.75-1.17 0.52-2.08 0.95-2.65 1.47-13.74-11.75-32.21-18.81-54.47-18.81z"/>
    <path id="path3157" style="stroke-linejoin:round;stroke:#000000;stroke-linecap:round;stroke-width:4;fill:#ffffff" d="m347.64 278.41c0.01 12.52-10.14 22.67-22.66 22.67s-22.67-10.15-22.66-22.67c-0.01-12.52 10.14-22.67 22.66-22.67s22.67 10.15 22.66 22.67z"/>
    <path id="path3159" style="stroke-linejoin:round;stroke:#000000;stroke-linecap:round;stroke-width:4;fill:#ffffff" d="m400.38 278.41c0 12.52-10.15 22.67-22.67 22.67s-22.66-10.15-22.66-22.67 10.14-22.67 22.66-22.67 22.67 10.15 22.67 22.67z"/>
    <path id="path3161" style="fill:#000000" d="m380.23 282.41c0 4.18-3.38 7.56-7.55 7.56-4.18 0-7.56-3.38-7.56-7.56 0-4.17 3.38-7.55 7.56-7.55 4.17 0 7.55 3.38 7.55 7.55z"/>
    <path id="path3163" style="fill:#000000" d="m338.2 282.41c0 4.18-3.38 7.56-7.55 7.56-4.18 0-7.56-3.38-7.56-7.56 0-4.17 3.38-7.55 7.56-7.55 4.17 0 7.55 3.38 7.55 7.55z"/>
    <path id="path3231" style="fill:#000000;fill-opacity:.31373" d="m425.69 251.49c1.75 7.63 2.62 15.72 2.62 24.13 0 45.17-55.12 81.84-81.84 81.84-20.71 0-61.1-23.76-76.06-56.59 7.61 40.24 57.17 71.37 80.87 71.37 26.72 0 81.84-36.67 81.84-81.84 0-14.08-2.41-27.34-7.43-38.91z"/>
    <path id="path3329" style="stroke-linejoin:round;stroke:#000000;stroke-linecap:round;stroke-width:4;fill:#784421" d="m344.46 671.28c0 9.09-14.67 9.38-32.74 9.38s-32.73 0.69-32.73-9.38c0-17.72 14.66-32.1 32.73-32.1s32.74 14.38 32.74 32.1z"/>
    <path id="path3331" style="stroke-linejoin:round;fill-rule:evenodd;fill-opacity:.31373;stroke:#000000;stroke-width:4;fill:#000000" d="m299.13 680.06c0-16.37 9.44-26.44 9.44-26.44s-3.77 13.85-3.14 26.44h-6.3z"/>
    <path id="path2398" style="fill:#000000" d="m367.87 343.04c-2.29 3.98-6.5 5.84-9.4 4.17-2.89-1.67-3.38-6.25-1.09-10.22s6.5-5.84 9.4-4.17c2.89 1.68 3.38 6.25 1.09 10.22z"/>
    <path id="path2412" style="fill:#000000" d="m335.13 343.04c2.29 3.98 6.5 5.84 9.4 4.17 2.89-1.67 3.38-6.25 1.09-10.22s-6.5-5.84-9.4-4.17c-2.89 1.68-3.38 6.25-1.09 10.22z"/>
    <path id="path3224" style="fill-rule:evenodd;stroke:#000000;stroke-linecap:round;stroke-width:4;fill:#ffcc00" d="m317.52 224.48c5.65-10.25-6.01-22.62-6.01-22.62l17.32-4.25s-2.47 15.56 6.72 21.22"/>
    <path id="path3186" style="stroke-linejoin:round;stroke:#000000;stroke-linecap:round;stroke-width:4;fill:#784421" d="m82.378-127.96a15.38 15.38 0 1 1 -30.759 0 15.38 15.38 0 1 1 30.759 0z" transform="translate(251.74 323.4)"/>
    <path id="path3190" style="stroke-linejoin:round;fill-rule:evenodd;stroke:#000000;stroke-width:4;fill:#d4aa00" d="m418.59 232.5c35.78-4.57 52.52 16.97 53.83 20.23 1.32 3.26-35.12 10.11-53.83-20.23z"/>
    <path id="path3228" style="fill-rule:evenodd;stroke:#000000;stroke-linecap:round;stroke-width:4;fill:#ffcc00" d="m384.69 224.48c-5.65-10.25 6.01-22.62 6.01-22.62l-17.32-4.25s2.47 15.56-6.72 21.22"/>
    <path id="path3222" style="stroke-linejoin:round;stroke:#000000;stroke-linecap:round;stroke-width:4;fill:#784421" d="m82.378-127.96a15.38 15.38 0 1 1 -30.759 0 15.38 15.38 0 1 1 30.759 0z" transform="translate(315.74 323.4)"/>
    <path id="path3230" style="fill:#784421" d="m93.338 349.05a18.031 15.556 0 1 1 -36.062 0 18.031 15.556 0 1 1 36.062 0z" transform="matrix(.72367 .17743 -.32471 1.3244 330.72 54.998)"/>
    <path id="path3232" style="fill:#784421" d="m93.338 349.05a18.031 15.556 0 1 1 -36.062 0 18.031 15.556 0 1 1 36.062 0z" transform="matrix(1.3529 0 0 1.6591 231.87 -11.336)"/>
    <path id="path3234" style="fill:#784421" d="m93.338 349.05a18.031 15.556 0 1 1 -36.062 0 18.031 15.556 0 1 1 36.062 0z" transform="matrix(.44644 -.14881 .30185 .90556 288.46 217.28)"/>
    <path id="path3236" style="fill:#784421" d="m93.338 349.05a18.031 15.556 0 1 1 -36.062 0 18.031 15.556 0 1 1 36.062 0z" transform="matrix(.66667 0 0 .95455 359.08 257.25)"/>
    <path id="path3238" style="fill:#784421" d="m93.338 349.05a18.031 15.556 0 1 1 -36.062 0 18.031 15.556 0 1 1 36.062 0z" transform="matrix(1.0588 0 0 1.3636 296.8 35.576)"/>
    <path id="path3240" style="fill:#784421" d="m93.338 349.05a18.031 15.556 0 1 1 -36.062 0 18.031 15.556 0 1 1 36.062 0z" transform="matrix(.72549 0 0 1.3636 279.12 -35.448)"/>
    <path id="path3246" style="stroke-linejoin:round;fill-rule:evenodd;stroke:#000000;stroke-width:4;fill:#d4aa00" d="m283.46 232.5c-35.78-4.57-52.52 16.97-53.84 20.23-1.31 3.26 35.13 10.11 53.84-20.23z"/>
  </g>
  <metadata>
    <rdf:RDF>
      <cc:Work>
        <dc:format>image/svg+xml</dc:format>
        <dc:type rdf:resource="http://purl.org/dc/dcmitype/StillImage"/>
        <cc:license rdf:resource="http://creativecommons.org/licenses/publicdomain/"/>
        <dc:publisher>
          <cc:Agent rdf:about="http://openclipart.org/">
            <dc:title>Openclipart</dc:title>
          </cc:Agent>
        </dc:publisher>
        <dc:title>Cartoon giraffe</dc:title>
        <dc:date>2008-07-07T11:40:13</dc:date>
        <dc:description>Cartoon giraffe sitting, front view. Nice 20 minute tutorial video for drawing the giraffe in Inkscape &lt;a target="_blank" href="https://www.youtube.com/watch?v=qZt9J_AUYZI"&gt;https://www.youtube.com/watch?v=qZt9J_AUYZI&lt;/a&gt;</dc:description>
        <dc:source>https://openclipart.org/detail/17628/cartoon-giraffe-by-lemmling</dc:source>
        <dc:creator>
          <cc:Agent>
            <dc:title>lemmling</dc:title>
          </cc:Agent>
        </dc:creator>
        <dc:subject>
          <rdf:Bag>
            <rdf:li>animal</rdf:li>
            <rdf:li>cartoon</rdf:li>
            <rdf:li>colour</rdf:li>
            <rdf:li>funny</rdf:li>
            <rdf:li>giraffe</rdf:li>
            <rdf:li>mammal</rdf:li>
          </rdf:Bag>
        </dc:subject>
      </cc:Work>
      <cc:License rdf:about="http://creativecommons.org/licenses/publicdomain/">
        <cc:permits rdf:resource="http://creativecommons.org/ns#Reproduction"/>
        <cc:permits rdf:resource="http://creativecommons.org/ns#Distribution"/>
        <cc:permits rdf:resource="http://creativecommons.org/ns#DerivativeWorks"/>
      </cc:License>
    </rdf:RDF>
  </metadata>
</svg>