<?xml version="1.0" encoding="UTF-8" standalone="no"?>
<!-- Created with Inkscape (http://www.inkscape.org/) -->
<svg xmlns:rdf="http://www.w3.org/1999/02/22-rdf-syntax-ns#" xmlns="http://www.w3.org/2000/svg" xmlns:cc="http://web.resource.org/cc/" xmlns:xlink="http://www.w3.org/1999/xlink" xmlns:dc="http://purl.org/dc/elements/1.1/" xmlns:svg="http://www.w3.org/2000/svg" xmlns:inkscape="http://www.inkscape.org/namespaces/inkscape" xmlns:sodipodi="http://sodipodi.sourceforge.net/DTD/sodipodi-0.dtd" xmlns:ns1="http://sozi.baierouge.fr" id="svg2" viewBox="0 0 377.92 369.68" version="1.0" inkscape:version="0.91 r13725">
  <defs id="defs4">
    <linearGradient id="linearGradient4098">
      <stop id="stop4100" style="stop-color:#ffb142" offset="0"/>
      <stop id="stop4104" style="stop-color:#c87600" offset="1"/>
    </linearGradient>
    <linearGradient id="linearGradient3211" y2="537.41" xlink:href="#linearGradient4098" gradientUnits="userSpaceOnUse" x2="359.47" gradientTransform="matrix(.64148 0 0 .77805 125.37 117.53)" y1="537.41" x1="346.24"/>
    <linearGradient id="linearGradient3327" y2="362.28" xlink:href="#linearGradient4098" gradientUnits="userSpaceOnUse" x2="186.21" y1="354.02" x1="186.21"/>
    <linearGradient id="linearGradient3329" y2="362.28" xlink:href="#linearGradient4098" gradientUnits="userSpaceOnUse" x2="195.75" y1="354.02" x1="195.75"/>
    <linearGradient id="linearGradient3331" y2="362.28" xlink:href="#linearGradient4098" gradientUnits="userSpaceOnUse" x2="176.39" y1="354.02" x1="176.39"/>
    <linearGradient id="linearGradient3333" y2="362.28" xlink:href="#linearGradient4098" gradientUnits="userSpaceOnUse" x2="229.44" y1="354.02" x1="229.44"/>
    <linearGradient id="linearGradient3335" y2="362.28" xlink:href="#linearGradient4098" gradientUnits="userSpaceOnUse" x2="238.98" y1="354.02" x1="238.98"/>
    <linearGradient id="linearGradient3337" y2="362.28" xlink:href="#linearGradient4098" gradientUnits="userSpaceOnUse" x2="219.61" y1="354.02" x1="219.61"/>
  </defs>
  <g id="layer1" transform="translate(-162.18 -366.2)">
    <path id="path3226" style="stroke-linejoin:round;stroke:#000000;stroke-linecap:round;stroke-width:2.8687;fill:url(#linearGradient3337)" d="m214 353.13a8 13.5 0 1 1 -16 0 8 13.5 0 1 1 16 0z" transform="matrix(1.7812 0 0 1.7055 -35.009 108.11)"/>
    <path id="path3228" style="stroke-linejoin:round;stroke:#000000;stroke-linecap:round;stroke-width:2.8687;fill:url(#linearGradient3335)" d="m214 353.13a8 13.5 0 1 1 -16 0 8 13.5 0 1 1 16 0z" transform="matrix(1.7812 0 0 1.7055 -69.509 108.11)"/>
    <path id="path3230" style="stroke-linejoin:round;stroke:#000000;stroke-linecap:round;stroke-width:2.8687;fill:url(#linearGradient3333)" d="m214 353.13a8 13.5 0 1 1 -16 0 8 13.5 0 1 1 16 0z" transform="matrix(1.7812 0 0 1.7055 -52.509 108.11)"/>
    <path id="path3224" style="stroke-linejoin:round;stroke:#000000;stroke-linecap:round;stroke-width:2.8687;fill:url(#linearGradient3331)" d="m214 353.13a8 13.5 0 1 1 -16 0 8 13.5 0 1 1 16 0z" transform="matrix(1.7812 0 0 1.7055 41.991 108.11)"/>
    <path id="path3220" style="stroke-linejoin:round;stroke:#000000;stroke-linecap:round;stroke-width:2.8687;fill:url(#linearGradient3329)" d="m214 353.13a8 13.5 0 1 1 -16 0 8 13.5 0 1 1 16 0z" transform="matrix(1.7812 0 0 1.7055 7.4913 108.11)"/>
    <path id="path3222" style="stroke-linejoin:round;stroke:#000000;stroke-linecap:round;stroke-width:2.8687;fill:url(#linearGradient3327)" d="m214 353.13a8 13.5 0 1 1 -16 0 8 13.5 0 1 1 16 0z" transform="matrix(1.7812 0 0 1.7055 24.491 108.11)"/>
    <path id="path3250" style="fill:#000000;fill-opacity:.31373" d="m135.25 321.12c-5.81 0-10.78 5.64-13 13.69 18.97 5.08 39.81 8.04 61.72 8.44-0.3-12.28-6.54-22.12-14.22-22.13-3.3 0-6.33 1.83-8.75 4.88-2.42-3.05-5.45-4.87-8.75-4.88-3.19 0-6.13 1.71-8.5 4.57-2.37-2.86-5.31-4.56-8.5-4.57zm77 0c-7.66 0-13.89 9.8-14.22 22.04 21.88-0.71 42.62-3.99 61.44-9.35-2.35-7.51-7.16-12.68-12.72-12.69-3.3 0-6.33 1.83-8.75 4.88-2.42-3.05-5.45-4.87-8.75-4.88-3.19 0-6.13 1.71-8.5 4.57-2.37-2.86-5.31-4.56-8.5-4.57z" transform="translate(162.18 366.2)"/>
    <path id="path2385" style="stroke:#000000;stroke-linecap:round;stroke-width:5;fill:#784421" d="m516.84 534.27a165.56 165.56 0 1 1 -331.13 0 165.56 165.56 0 1 1 331.13 0z"/>
    <path id="path3167" style="stroke-linejoin:round;stroke:#000000;stroke-linecap:round;stroke-width:4.4118;fill:#ffffff" d="m418.63 583.05c-23.38-4.34-1.98 19.09-5.57 27.56-14.17-6.97-8.77 16.11-15.18 22.51-12.14-0.65-14.04 11.6-22.51 15.19-10.24-5.68-17.79 5.57-27.56 5.57s-15.56-10.81-27.56-5.57c-8.47-3.59-10.37-15.39-22.51-15.19-6.41-6.4-5.42-30.8-15.18-22.51-3.59-8.47 12.96-33.67-5.57-27.56 0-9.77 19.63-27.91 5.57-27.55 3.58-8.48 21.56-14.78 15.18-22.52 12.82-12.82 30.52-20.75 50.07-20.75s37.25 7.93 50.07 20.75c-9.47 4.65 11.6 14.04 15.18 22.52-15.82-0.8 5.57 17.78 5.57 27.55z" transform="matrix(1.1333 0 0 1.1333 -41.339 -43.746)"/>
    <path id="path3211" style="fill-rule:evenodd;fill:#000000;fill-opacity:.31373" d="m335.38 90.5c1.98 10.23 3.03 20.79 3.03 31.59 0 3.73-0.14 7.43-0.38 11.1-3.67-0.19-7.58 0.02-11.75 0.62-35.21 7.5-20.17 51.67-29.34 97.88-30.34 34.33-74.71 55.97-124.1 55.97-30.37 0-58.83-8.21-83.309-22.5-23.679-55.45 8.076-115.67-33.656-126.07-46.11-8.32-63.97 34.46-34.156 98.57 16.461 35.39 43.723 52.78 63.781 59.53 28.36 22.8 64.39 36.43 103.59 36.43 45.95 0 87.56-18.73 117.57-49 17.45-8.71 36.86-24.59 50.34-51.15 25.21-49.67 20.38-87.08-5.47-97.44-3.17-16.13-8.66-31.44-16.15-45.53z" transform="translate(162.18 366.2)"/>
    <path id="path3169" style="fill-rule:evenodd;stroke:#000000;stroke-width:5;fill:#784421" d="m217.92 497.25c48.11 17.3-14.17 94.14 37.81 161.19 9.61 12.39-57.86 2.09-81.72-66.59-23.2-66.78-1.13-107.54 43.91-94.6z"/>
    <path id="path3800" style="fill-rule:evenodd;stroke:#000000;stroke-width:5;fill:#784421" d="m484.36 497.25c-48.11 17.3 14.16 94.14-37.82 161.19-9.61 12.39 57.87 2.09 81.72-66.59 23.2-66.78 1.13-107.54-43.9-94.6z"/>
    <path id="path2413" style="stroke-linejoin:round;fill-rule:evenodd;stroke:#000000;stroke-linecap:round;stroke-width:5;fill:#784421" d="m466.68 488.2c13.39-4.61 27.22 7.58 29.87 14.18-13.51-3.45-19.72-4.43-23.22-1.38 1.51 3.37 17.41 6.74 22.34 28.87-12.43-8.62-22.31-18.58-26.28-14.48 2.89 5.03 6.2 14.49 3.97 23.88-7.14-9.43-14.44-19.38-21.14-19.65"/>
    <path id="path2387" style="stroke:#000000;stroke-linecap:round;stroke-width:5;fill:#ffffff" d="m305.32 406.47c-31.23 0-56.6 29.33-56.6 65.47s25.37 65.47 56.6 65.47c18.36 0 34.65-10.14 44.99-25.83 10.34 15.7 26.66 25.83 45.02 25.83 31.24 0 56.61-29.33 56.61-65.47s-25.37-65.47-56.61-65.47c-18.36 0-34.68 10.13-45.02 25.83-10.34-15.69-26.63-25.83-44.99-25.83z"/>
    <path id="path3407" style="fill-rule:evenodd;fill:#000000;fill-opacity:.31373" d="m352.02 517.37c-9.29 0-19.38 10.33-18.98 16.85 0.41 6.53 16.56 33.7 20.19 33.7 3.64 0 17.77-26.63 17.37-34.24-0.41-7.61-12.52-16.85-18.58-16.31z"/>
    <path id="path2391" style="fill-rule:evenodd;stroke:#000000;stroke-width:5;fill:url(#linearGradient3211)" d="m349.9 506.77c-9.29 0-19.38 9.3-18.98 15.18s16.56 30.37 20.19 30.37c3.64 0 17.77-24 17.37-30.86-0.41-6.86-12.52-15.18-18.58-14.69z"/>
    <path id="path2411" style="stroke:#000000;stroke-linecap:round;stroke-width:3.1693;fill:#000000" d="m340.57 487.37a10.387 10.387 0 1 1 -20.77 0 10.387 10.387 0 1 1 20.77 0z" transform="matrix(1.5776 0 0 1.5776 -190.57 -292.52)"/>
    <path id="path3193" style="stroke-linejoin:round;fill-rule:evenodd;stroke:#000000;stroke-linecap:round;stroke-width:5;fill:#784421" d="m235.32 488.2c-13.39-4.61-27.22 7.58-29.86 14.18 13.51-3.45 19.72-4.43 23.22-1.38-1.51 3.37-17.41 6.74-22.34 28.87 12.43-8.62 22.3-18.58 26.27-14.48-2.88 5.03-6.2 14.49-3.96 23.88 7.14-9.43 14.44-19.38 21.14-19.65"/>
    <path id="path3283" style="stroke-linejoin:round;fill-rule:evenodd;stroke:#000000;stroke-width:5;fill:#ffffff" d="m364.15 417.48c13.28-32.16 35.66-36.51 35.66-36.51s-12.45 16.78-1.17 12.11c17.47-7.23 73 15.42 73 15.42s-73.58-17.13-107.49 8.98z"/>
    <path id="path3285" style="stroke-linejoin:round;fill-rule:evenodd;stroke:#000000;stroke-width:5;fill:#ffffff" d="m333.71 414.48c-13.28-32.16-35.67-36.51-35.67-36.51s12.46 16.78 1.18 12.11c-17.47-7.23-73 15.42-73 15.42s73.57-17.13 107.49 8.98z"/>
    <path id="path3301" style="stroke:#000000;stroke-linecap:round;stroke-width:3.1693;fill:#000000" d="m340.57 487.37a10.387 10.387 0 1 1 -20.77 0 10.387 10.387 0 1 1 20.77 0z" transform="matrix(1.5776 0 0 1.5776 -149.07 -292.52)"/>
    <path id="path3341" style="fill:#ffffff" d="m209.5 105.43a5.25 5.25 0 1 1 -10.5 0 5.25 5.25 0 1 1 10.5 0z" transform="matrix(.80952 0 0 .80952 159.08 385.28)"/>
    <path id="path3343" style="fill:#ffffff" d="m209.5 105.43a5.25 5.25 0 1 1 -10.5 0 5.25 5.25 0 1 1 10.5 0z" transform="matrix(.80952 0 0 .80952 200.58 385.28)"/>
    <path id="path3200" style="fill-rule:evenodd;fill:#000000;fill-opacity:.31373" d="m337.94 128.66c-0.42 0-0.83 0.02-1.25 0.03 16.21 13.06 23.07 43.29 14.78 85.34-11.02 55.9-53.58 80.01-67.72 81.28 4.59 6.53 60.97-8.12 82.34-69.65 20.3-58.44 5.92-96.95-28.15-97z" transform="translate(162.18 366.2)"/>
    <path id="path3205" style="fill-rule:evenodd;fill:#000000;fill-opacity:.31373" d="m4.0625 160.84c-3.4518 16.51-1.2985 38.68 7.7815 64.82 23.855 68.67 91.326 78.98 81.718 66.59-4.108-5.3-7.52-10.67-10.312-16.06-18.952-4.54-54.048-24.38-69.906-70.03-5.8798-16.93-8.8541-32.18-9.2815-45.32zm71.282 6.35c-0.883 8.53-1.856 17.61-2.282 27.12 0.994-9.79 2.08-18.94 2.282-27.12z" transform="translate(162.18 366.2)"/>
  </g>
  <metadata>
    <rdf:RDF>
      <cc:Work>
        <dc:format>image/svg+xml</dc:format>
        <dc:type rdf:resource="http://purl.org/dc/dcmitype/StillImage"/>
        <cc:license rdf:resource="http://creativecommons.org/licenses/publicdomain/"/>
        <dc:publisher>
          <cc:Agent rdf:about="http://openclipart.org/">
            <dc:title>Openclipart</dc:title>
          </cc:Agent>
        </dc:publisher>
        <dc:title>Cartoon owl</dc:title>
        <dc:date>2008-07-05T08:34:51</dc:date>
        <dc:description>Based upon my penguin http://openclipart.org/media/files/lemmling/9022</dc:description>
        <dc:source>https://openclipart.org/detail/17566/cartoon-owl-by-lemmling</dc:source>
        <dc:creator>
          <cc:Agent>
            <dc:title>lemmling</dc:title>
          </cc:Agent>
        </dc:creator>
        <dc:subject>
          <rdf:Bag>
            <rdf:li>animal</rdf:li>
            <rdf:li>bird</rdf:li>
            <rdf:li>cartoon</rdf:li>
            <rdf:li>colour</rdf:li>
            <rdf:li>funny</rdf:li>
            <rdf:li>how i did it</rdf:li>
            <rdf:li>owl</rdf:li>
          </rdf:Bag>
        </dc:subject>
      </cc:Work>
      <cc:License rdf:about="http://creativecommons.org/licenses/publicdomain/">
        <cc:permits rdf:resource="http://creativecommons.org/ns#Reproduction"/>
        <cc:permits rdf:resource="http://creativecommons.org/ns#Distribution"/>
        <cc:permits rdf:resource="http://creativecommons.org/ns#DerivativeWorks"/>
      </cc:License>
    </rdf:RDF>
  </metadata>
</svg>