<?xml version="1.0" encoding="UTF-8" standalone="no"?>
<!-- Created with Inkscape (http://www.inkscape.org/) -->

<svg
   xmlns:dc="http://purl.org/dc/elements/1.1/"
   xmlns:cc="http://creativecommons.org/ns#"
   xmlns:rdf="http://www.w3.org/1999/02/22-rdf-syntax-ns#"
   xmlns:svg="http://www.w3.org/2000/svg"
   xmlns="http://www.w3.org/2000/svg"
   xmlns:sodipodi="http://sodipodi.sourceforge.net/DTD/sodipodi-0.dtd"
   xmlns:inkscape="http://www.inkscape.org/namespaces/inkscape"
   id="svg2"
   viewBox="0 0 596.39973 682.61444"
   version="1.0"
   inkscape:version="0.92.3 (2405546, 2018-03-11)"
   sodipodi:docname="lemmling-Cartoon-goat.adapted.svg"
   width="596.39972"
   height="682.61444">
  <defs
     id="defs26" />
  <sodipodi:namedview
     pagecolor="#ffffff"
     bordercolor="#666666"
     borderopacity="1"
     objecttolerance="10"
     gridtolerance="10"
     guidetolerance="10"
     inkscape:pageopacity="0"
     inkscape:pageshadow="2"
     inkscape:window-width="2560"
     inkscape:window-height="1373"
     id="namedview24"
     showgrid="false"
     fit-margin-top="50"
     fit-margin-left="50"
     fit-margin-right="50"
     fit-margin-bottom="50"
     inkscape:zoom="1.7286479"
     inkscape:cx="298.19986"
     inkscape:cy="341.30722"
     inkscape:window-x="-9"
     inkscape:window-y="-9"
     inkscape:window-maximized="1"
     inkscape:current-layer="layer1" />
  <g
     id="layer1"
     transform="matrix(2,0,0,2,-407.16015,-732.73395)">
    <path
       id="path2383"
       style="fill:#ffffff;stroke:#000000;stroke-width:1.64365549;stroke-linecap:round;stroke-linejoin:round;fill-opacity:1;stroke-miterlimit:4;stroke-dasharray:none"
       d="m 441.29,560.71 c 0.02,49.72 -40.29,90.04 -90.02,90.04 -49.72,0 -90.03,-40.32 -90.02,-90.04 -0.01,-49.73 40.3,-90.05 90.02,-90.05 49.73,0 90.04,40.32 90.02,90.05 z"
       transform="matrix(1.2168,0,0,1.2168,-76.15,-121.55)"
       inkscape:connector-curvature="0" />
    <path
       id="path3172"
       style="fill:#ffffff;stroke:#000000;stroke-width:2;stroke-linecap:round;stroke-linejoin:round;fill-opacity:1;stroke-miterlimit:4;stroke-dasharray:none"
       d="m 359.45,671.28 c 0,9.09 14.67,9.38 32.74,9.38 18.07,0 32.73,0.69 32.73,-9.38 0,-17.72 -14.66,-32.1 -32.73,-32.1 -18.07,0 -32.74,14.38 -32.74,32.1 z"
       inkscape:connector-curvature="0" />
    <path
       id="path3203"
       style="fill:#ffffff;fill-rule:evenodd;stroke:#000000;stroke-width:2;stroke-linejoin:round;fill-opacity:1;stroke-miterlimit:4;stroke-dasharray:none"
       d="m 318.63,579.05 c 7.75,17.93 11.36,23.33 11.13,33.59 -0.1,4.67 9.19,-7.64 9.83,-13.79 -0.47,8.88 1.2,11.31 2.18,20.51 0.99,9.19 4.25,25.14 5.2,21.56 1.96,-7.42 2.88,-22.82 8.27,-27.57 2.44,9.19 14.92,24.62 12.86,18.73 -5,-14.29 -6.84,-21.15 -2.46,-30.05 7.84,9.52 12.32,13.45 10.81,8.13 -2.54,-8.98 1.08,-21.31 7.66,-26.51 8.36,-6.61 -65.48,-4.95 -65.48,-4.6 z"
       inkscape:connector-curvature="0" />
    <path
       id="path3174"
       style="fill:#ffffff;fill-opacity:1;fill-rule:evenodd;stroke:#000000;stroke-width:2;stroke-linejoin:round;stroke-miterlimit:4;stroke-dasharray:none"
       d="m 404.78,680.06 c 0,-16.37 -9.44,-26.44 -9.44,-26.44 0,0 3.77,13.85 3.14,26.44 z"
       inkscape:connector-curvature="0" />
    <path
       id="path3155"
       style="fill:#ffffff;stroke:#000000;stroke-width:2;stroke-linecap:round;stroke-linejoin:round;fill-opacity:1;stroke-miterlimit:4;stroke-dasharray:none"
       d="M 108.88,46.344 C 78.746,46.954 57.943,57.997 45.25,75.094 21.186,72.506 1.188,98.719 1.188,98.719 c -5e-4,0 18.891,9.451 32.062,1.531 -2.399,8.71 -3.562,18.11 -3.562,27.91 0,45.17 56.125,81.84 81.842,81.84 26.72,0 81.85,-36.67 81.85,-81.84 0,-9.8 -1.17,-19.2 -3.57,-27.91 13.17,7.92 32.03,-1.531 32.03,-1.531 0,0 -19.97,-26.205 -44.03,-23.625 -13.06,-17.595 -34.71,-28.75 -66.28,-28.75 -0.89,0 -1.78,-0.018 -2.65,0 z"
       transform="translate(239.74,384.07)"
       inkscape:connector-curvature="0" />
    <path
       id="path3157"
       style="fill:#ffffff;stroke:#000000;stroke-width:7.94438928;stroke-linecap:round;stroke-linejoin:round;stroke-miterlimit:4;stroke-dasharray:none"
       d="m 441.29,560.71 c 0.02,49.72 -40.29,90.04 -90.02,90.04 -49.72,0 -90.03,-40.32 -90.02,-90.04 -0.01,-49.73 40.3,-90.05 90.02,-90.05 49.73,0 90.04,40.32 90.02,90.05 z"
       transform="matrix(0.25175,0,0,0.25175,236.55,359.08)"
       inkscape:connector-curvature="0" />
    <path
       id="path3159"
       style="fill:#ffffff;stroke:#000000;stroke-width:7.94438928;stroke-linecap:round;stroke-linejoin:round;stroke-miterlimit:4;stroke-dasharray:none"
       d="m 441.29,560.71 c 0.02,49.72 -40.29,90.04 -90.02,90.04 -49.72,0 -90.03,-40.32 -90.02,-90.04 -0.01,-49.73 40.3,-90.05 90.02,-90.05 49.73,0 90.04,40.32 90.02,90.05 z"
       transform="matrix(0.25175,0,0,0.25175,289.28,359.08)"
       inkscape:connector-curvature="0" />
    <path
       id="path3161"
       style="fill:#000000;stroke-width:23.83335717;stroke-miterlimit:4;stroke-dasharray:none"
       d="m 441.29,560.71 c 0.02,49.72 -40.29,90.04 -90.02,90.04 -49.72,0 -90.03,-40.32 -90.02,-90.04 -0.01,-49.73 40.3,-90.05 90.02,-90.05 49.73,0 90.04,40.32 90.02,90.05 z"
       transform="matrix(0.083916,0,0,0.083916,343.2,457.18)"
       inkscape:connector-curvature="0" />
    <path
       id="path3163"
       style="fill:#000000;stroke-width:23.83335717;stroke-miterlimit:4;stroke-dasharray:none"
       d="m 441.29,560.71 c 0.02,49.72 -40.29,90.04 -90.02,90.04 -49.72,0 -90.03,-40.32 -90.02,-90.04 -0.01,-49.73 40.3,-90.05 90.02,-90.05 49.73,0 90.04,40.32 90.02,90.05 z"
       transform="matrix(0.083916,0,0,0.083916,301.17,457.18)"
       inkscape:connector-curvature="0" />
    <path
       id="path3179"
       style="fill:#ffffff;fill-rule:evenodd;stroke:#000000;stroke-width:2;stroke-linejoin:round;fill-opacity:1;stroke-miterlimit:4;stroke-dasharray:none"
       d="m 372.76,441.62 c -1.99,-10.39 12.58,-36.41 42.7,-46.12 20.71,-6.68 55.97,1.23 59.32,41.23 -13.48,-23.04 -37.38,-28.54 -48.7,-23.05 -22.74,11.01 -12.48,34.47 -23.37,40.65 -10.13,5.76 -27.88,-1.94 -29.95,-12.71 z"
       inkscape:connector-curvature="0" />
    <path
       id="path3329"
       style="fill:#ffffff;stroke:#000000;stroke-width:2;stroke-linecap:round;stroke-linejoin:round;fill-opacity:1;stroke-miterlimit:4;stroke-dasharray:none"
       d="m 344.46,671.28 c 0,9.09 -14.67,9.38 -32.74,9.38 -18.07,0 -32.73,0.69 -32.73,-9.38 0,-17.72 14.66,-32.1 32.73,-32.1 18.07,0 32.74,14.38 32.74,32.1 z"
       inkscape:connector-curvature="0" />
    <path
       id="path3331"
       style="fill:#ffffff;fill-opacity:1;fill-rule:evenodd;stroke:#000000;stroke-width:2;stroke-linejoin:round;stroke-miterlimit:4;stroke-dasharray:none"
       d="m 299.13,680.06 c 0,-16.37 9.44,-26.44 9.44,-26.44 0,0 -3.77,13.85 -3.14,26.44 z"
       inkscape:connector-curvature="0" />
    <path
       id="path2398"
       style="fill:#000000;stroke-width:2;stroke-miterlimit:4;stroke-dasharray:none"
       d="m 367.87,564.87 c -2.29,3.97 -6.5,5.84 -9.4,4.16 -2.89,-1.67 -3.38,-6.25 -1.09,-10.22 2.29,-3.97 6.5,-5.84 9.4,-4.16 2.89,1.67 3.38,6.24 1.09,10.22 z"
       inkscape:connector-curvature="0" />
    <path
       id="path2412"
       style="fill:#000000;stroke-width:2;stroke-miterlimit:4;stroke-dasharray:none"
       d="m 335.13,564.87 c 2.29,3.97 6.5,5.84 9.4,4.16 2.89,-1.67 3.38,-6.25 1.09,-10.22 -2.29,-3.97 -6.5,-5.84 -9.4,-4.16 -2.89,1.67 -3.38,6.24 -1.09,10.22 z"
       inkscape:connector-curvature="0" />
    <path
       id="path3173"
       style="fill:#ffffff;fill-rule:evenodd;stroke:#000000;stroke-width:2;stroke-linejoin:round;fill-opacity:1;stroke-miterlimit:4;stroke-dasharray:none"
       d="m 332.6,441.62 c 2,-10.39 -12.58,-36.41 -42.69,-46.12 -20.72,-6.68 -55.98,1.23 -59.33,41.23 13.48,-23.04 37.38,-28.54 48.71,-23.05 22.73,11.01 12.48,34.47 23.36,40.65 10.13,5.76 27.89,-1.94 29.95,-12.71 z"
       inkscape:connector-curvature="0" />
  </g>
  <metadata
     id="metadata21">
    <rdf:RDF>
      <cc:Work>
        <dc:format>image/svg+xml</dc:format>
        <dc:type
           rdf:resource="http://purl.org/dc/dcmitype/StillImage" />
        <cc:license
           rdf:resource="http://creativecommons.org/publicdomain/zero/1.0/" />
        <dc:publisher>
          <cc:Agent
             rdf:about="http://openclipart.org/">
            <dc:title>Openclipart</dc:title>
          </cc:Agent>
        </dc:publisher>
        <dc:title></dc:title>
        <dc:date>2008-07-14T08:59:26</dc:date>
        <dc:description>Cartoon goat, part of round cartoon animals set.</dc:description>
        <dc:source>https://openclipart.org/detail/17824/cartoon-goat-by-lemmling</dc:source>
        <dc:creator>
          <cc:Agent>
            <dc:title>lemmling</dc:title>
          </cc:Agent>
        </dc:creator>
        <dc:subject>
          <rdf:Bag>
            <rdf:li>animal</rdf:li>
            <rdf:li>cartoon</rdf:li>
            <rdf:li>colour</rdf:li>
            <rdf:li>goat</rdf:li>
            <rdf:li>gray</rdf:li>
            <rdf:li>mammal</rdf:li>
          </rdf:Bag>
        </dc:subject>
      </cc:Work>
      <cc:License
         rdf:about="http://creativecommons.org/publicdomain/zero/1.0/">
        <cc:permits
           rdf:resource="http://creativecommons.org/ns#Reproduction" />
        <cc:permits
           rdf:resource="http://creativecommons.org/ns#Distribution" />
        <cc:permits
           rdf:resource="http://creativecommons.org/ns#DerivativeWorks" />
      </cc:License>
    </rdf:RDF>
  </metadata>
</svg>
