<?xml version="1.0" encoding="UTF-8" standalone="no"?>
<!-- Created with Inkscape (http://www.inkscape.org/) -->

<svg
   xmlns:dc="http://purl.org/dc/elements/1.1/"
   xmlns:cc="http://creativecommons.org/ns#"
   xmlns:rdf="http://www.w3.org/1999/02/22-rdf-syntax-ns#"
   xmlns:svg="http://www.w3.org/2000/svg"
   xmlns="http://www.w3.org/2000/svg"
   xmlns:sodipodi="http://sodipodi.sourceforge.net/DTD/sodipodi-0.dtd"
   xmlns:inkscape="http://www.inkscape.org/namespaces/inkscape"
   id="svg2"
   viewBox="0 0 639.46921 615.27999"
   version="1.0"
   inkscape:version="0.92.3 (2405546, 2018-03-11)"
   sodipodi:docname="lemmling-Cartoon-elephant.svg"
   width="639.46918"
   height="615.28003">
  <defs
     id="defs41" />
  <sodipodi:namedview
     pagecolor="#ffffff"
     bordercolor="#666666"
     borderopacity="1"
     objecttolerance="10"
     gridtolerance="10"
     guidetolerance="10"
     inkscape:pageopacity="0"
     inkscape:pageshadow="2"
     inkscape:window-width="2560"
     inkscape:window-height="1373"
     id="namedview39"
     showgrid="false"
     fit-margin-top="50"
     fit-margin-left="50"
     fit-margin-right="50"
     fit-margin-bottom="50"
     inkscape:zoom="1.9178259"
     inkscape:cx="319.73459"
     inkscape:cy="307.64001"
     inkscape:window-x="-9"
     inkscape:window-y="-9"
     inkscape:window-maximized="1"
     inkscape:current-layer="svg2" />
  <path
     id="path2383"
     style="fill:#939dac;stroke:#000000;stroke-width:4;stroke-linecap:round;stroke-linejoin:round;stroke-miterlimit:4;stroke-dasharray:none"
     d="m 428.60573,308.39 c 0.01,60.51 -49.03,109.57 -109.54,109.57 -60.509,0 -109.56,-49.06 -109.54,-109.57 -0.016,-60.509 49.031,-109.57 109.54,-109.57 60.51,0 109.55,49.061 109.54,109.57 z"
     inkscape:connector-curvature="0" />
  <path
     id="path3353"
     style="fill:#000000;fill-opacity:0.31373004;stroke-width:4;stroke-miterlimit:4;stroke-dasharray:none"
     d="m 428.17573,317.98 c -20.83,45.69 -66.93,77.46 -120.43,77.46 -30.331,0 -58.255,-10.21 -80.566,-27.37 19.534,30.03 53.378,49.87 91.876,49.87 57.28,0 104.28,-43.94 109.12,-99.96 z"
     inkscape:connector-curvature="0" />
  <path
     id="path3245"
     style="fill:#939dac;stroke:#000000;stroke-width:4;stroke-linecap:round;stroke-linejoin:round;stroke-miterlimit:4;stroke-dasharray:none"
     d="m 235.00773,408.89 c -0.006,22.68 18.377,25.57 41.057,25.57 22.681,0 41.061,-2.89 41.061,-25.57 0,-22.68 -19.15,-35.2 -41.061,-41.07 -34.081,-9.13 -41.063,18.39 -41.057,41.07 z"
     inkscape:connector-curvature="0" />
  <path
     id="path3239"
     style="fill:#ffffff;stroke:#000000;stroke-width:4;stroke-linecap:round;stroke-linejoin:round;stroke-miterlimit:4;stroke-dasharray:none"
     d="m 308.02573,421.68 c 1.64,6.13 -3.25,8.27 -9.55,9.96 -6.29,1.69 -11.61,2.27 -13.25,-3.85 -1.641,-6.13 2.13,-12.47 8.43,-14.15 6.29,-1.69 12.73,1.91 14.37,8.04 z"
     inkscape:connector-curvature="0" />
  <path
     id="path3307"
     style="fill:#000000;fill-opacity:0.31373004;stroke-width:4;stroke-miterlimit:4;stroke-dasharray:none"
     d="m 410.10573,283.39 c 0.02,47.81 -38.73,86.57 -86.54,86.57 -47.808,0 -86.559,-38.76 -86.544,-86.57 -0.015,-47.807 38.736,-86.57 86.544,-86.57 47.81,0 86.56,38.763 86.54,86.57 z"
     inkscape:connector-curvature="0" />
  <path
     id="path2400"
     style="fill:#939dac;stroke:#000000;stroke-width:4;stroke-linecap:round;stroke-linejoin:round;stroke-miterlimit:4;stroke-dasharray:none"
     d="m 450.34573,268.923 c -8.95,33.437 -36.06,55.237 -60.55,48.677 -24.48,-6.56 -37.06,-38.991 -28.09,-72.429 8.95,-33.441 29.98,-32.537 54.46,-25.977 24.49,6.56 43.15,16.292 34.18,49.729 z"
     inkscape:connector-curvature="0" />
  <path
     id="path3218"
     style="fill:#939dac;stroke:#000000;stroke-width:4;stroke-linecap:round;stroke-linejoin:round;stroke-miterlimit:4;stroke-dasharray:none"
     d="m 189.12193,268.923 c 8.9528,33.437 36.063,55.237 60.547,48.677 24.483,-6.56 37.067,-38.991 28.096,-72.429 -8.953,-33.441 -29.981,-32.537 -54.464,-25.977 -24.483,6.56 -43.146,16.292 -34.179,49.729 z"
     inkscape:connector-curvature="0" />
  <path
     id="path3309"
     style="fill:#000000;fill-opacity:0.31373004;stroke-width:4;stroke-miterlimit:4;stroke-dasharray:none"
     d="m 383.77573,216.999 c -9.74,2.974 -17.48,11.084 -22.06,28.188 -8.97,33.437 3.61,65.843 28.09,72.403 2.67,0.72 5.36,1.06 8.07,1.13 6.68,-12.28 10.47,-26.38 10.46,-41.346 0.01,-23.492 -9.37,-44.777 -24.56,-60.375 z"
     inkscape:connector-curvature="0" />
  <path
     id="path3314"
     style="fill:#000000;fill-opacity:0.31373004;stroke-width:4;stroke-miterlimit:4;stroke-dasharray:none"
     d="m 389.99573,222.062 c -14.77,-0.154 -26.63,6.634 -32.78,29.625 -4.97,18.526 -3.34,36.723 3.28,50.403 4.97,-23.475 27.2,-52.561 60.06,-53.997 13.33,-0.582 28.81,8.047 24.32,-2.469 -4.5,-10.515 -18.42,-15.97 -33.22,-19.937 -7.65,-2.05 -14.95,-3.555 -21.66,-3.625 z"
     inkscape:connector-curvature="0" />
  <path
     id="path3321"
     style="fill:#000000;fill-opacity:0.31373004;stroke-width:4;stroke-miterlimit:4;stroke-dasharray:none"
     d="m 249.98573,222.062 c 14.769,-0.154 26.627,6.634 32.782,29.625 4.968,18.526 3.338,36.723 -3.282,50.403 -4.964,-23.475 -27.197,-52.561 -60.062,-53.997 -13.328,-0.582 -28.809,8.047 -24.313,-2.469 4.496,-10.515 18.412,-15.97 33.219,-19.937 7.651,-2.05 14.943,-3.555 21.656,-3.625 z"
     inkscape:connector-curvature="0" />
  <path
     id="path2398"
     style="fill:#939dac;stroke:#000000;stroke-width:4;stroke-linecap:round;stroke-linejoin:round;stroke-miterlimit:4;stroke-dasharray:none"
     d="m 405.60573,267.389 c 0.02,47.811 -38.73,86.571 -86.54,86.571 -47.808,0 -86.559,-38.76 -86.544,-86.571 -0.015,-47.806 16.077,-86.569 86.544,-86.569 71.88,0 86.56,38.763 86.54,86.569 z"
     inkscape:connector-curvature="0" />
  <path
     id="path3157"
     style="fill:#ffffff;stroke:#000000;stroke-width:4;stroke-linecap:round;stroke-linejoin:round;stroke-miterlimit:4;stroke-dasharray:none"
     d="m 315.43573,250.919 c 0,12.519 -10.14,22.67 -22.66,22.67 -12.522,0 -22.67,-10.151 -22.666,-22.67 -0.004,-12.519 10.144,-22.669 22.666,-22.669 12.52,0 22.66,10.15 22.66,22.669 z"
     inkscape:connector-curvature="0" />
  <path
     id="path3159"
     style="fill:#ffffff;stroke:#000000;stroke-width:4;stroke-linecap:round;stroke-linejoin:round;stroke-miterlimit:4;stroke-dasharray:none"
     d="m 368.16573,250.919 c 0.01,12.519 -10.14,22.67 -22.66,22.67 -12.52,0 -22.67,-10.151 -22.66,-22.67 -0.01,-12.519 10.14,-22.669 22.66,-22.669 12.52,0 22.67,10.15 22.66,22.669 z"
     inkscape:connector-curvature="0" />
  <path
     id="path3161"
     style="fill:#000000;stroke-width:4;stroke-miterlimit:4;stroke-dasharray:none"
     d="m 348.02573,254.919 c 0,4.173 -3.38,7.557 -7.56,7.557 -4.17,0 -7.55,-3.384 -7.55,-7.557 0,-4.173 3.38,-7.556 7.55,-7.556 4.18,0 7.56,3.383 7.56,7.556 z"
     inkscape:connector-curvature="0" />
  <path
     id="path3163"
     style="fill:#000000;stroke-width:4;stroke-miterlimit:4;stroke-dasharray:none"
     d="m 305.99573,254.919 c 0,4.173 -3.38,7.557 -7.56,7.557 -4.17,0 -7.55,-3.384 -7.55,-7.557 0,-4.173 3.38,-7.556 7.55,-7.556 4.18,0 7.56,3.383 7.56,7.556 z"
     inkscape:connector-curvature="0" />
  <path
     id="path3220"
     style="fill:#939dac;stroke:#000000;stroke-width:4;stroke-linecap:round;stroke-linejoin:round;stroke-miterlimit:4;stroke-dasharray:none"
     d="m 409.12573,408.89 c 0,22.68 -18.38,25.57 -41.06,25.57 -22.68,0 -41.06,-2.89 -41.06,-25.57 0,-22.68 19.15,-35.2 41.06,-41.07 34.08,-9.13 41.06,18.39 41.06,41.07 z"
     inkscape:connector-curvature="0" />
  <path
     id="path3297"
     style="fill:#000000;fill-opacity:0.31373004;stroke-width:4;stroke-miterlimit:4;stroke-dasharray:none"
     d="m 289.05573,372.31 c 5.62,7.36 9.07,16.56 9.07,27.91 0,26.82 -18.387,30.25 -41.066,30.25 -3.51,0 -6.905,-0.11 -10.157,-0.35 7.44,3.61 17.752,4.35 29.157,4.35 22.676,0 41.066,-2.92 41.066,-25.6 0,-18.02 -12.1,-29.61 -28.07,-36.56 z"
     inkscape:connector-curvature="0" />
  <path
     id="path2404"
     style="fill:#939dac;stroke:#000000;stroke-width:4;stroke-linecap:round;stroke-linejoin:round;stroke-miterlimit:4;stroke-dasharray:none"
     d="m 342.29573,399.32 c 0,15.78 -12.8,28.58 -28.58,28.58 -15.79,0 -28.59,-12.8 -28.58,-28.58 -0.01,-15.79 12.79,-28.59 28.58,-28.59 15.78,0 28.58,12.8 28.58,28.59 z"
     inkscape:connector-curvature="0" />
  <path
     id="path3241"
     style="fill:#ffffff;stroke:#000000;stroke-width:4;stroke-linecap:round;stroke-linejoin:round;stroke-miterlimit:4;stroke-dasharray:none"
     d="m 266.58173,428.32 c -1.64,6.13 -6.952,5.54 -13.248,3.85 -6.296,-1.69 -11.19,-3.83 -9.546,-9.96 1.64,-6.13 8.074,-9.73 14.37,-8.04 6.296,1.69 10.068,8.02 8.424,14.15 z"
     inkscape:connector-curvature="0" />
  <path
     id="path3302"
     style="fill:#000000;fill-opacity:0.31373004;stroke-width:4;stroke-miterlimit:4;stroke-dasharray:none"
     d="m 404.08573,251.281 c -4.93,47.579 -45.14,84.689 -94.03,84.689 -26.647,0 -50.717,-11.04 -67.903,-28.78 14.4,27.79 43.443,46.78 76.903,46.78 47.81,0 86.58,-38.79 86.57,-86.596 0,-5.504 -0.55,-10.875 -1.54,-16.093 z"
     inkscape:connector-curvature="0" />
  <path
     id="path3188"
     style="fill:#939dac;fill-rule:evenodd;stroke-width:4;stroke-miterlimit:4;stroke-dasharray:none"
     d="m 342.22573,397.81 h -45.68 c 7.66,-63.28 -7.36,-94.75 -7.36,-94.75 h 60.4 c 0,0 -15.02,32.17 -7.36,94.75 z"
     inkscape:connector-curvature="0" />
  <path
     id="path3183"
     style="fill:none;stroke:#000000;stroke-width:4;stroke-linecap:round;stroke-miterlimit:4;stroke-dasharray:none"
     d="m 349.58573,303.06 c 0,0 -15.02,32.17 -7.36,94.75 m -45.68,0 c 7.66,-63.28 -7.36,-94.75 -7.36,-94.75"
     inkscape:connector-curvature="0" />
  <path
     id="path3190"
     style="fill:#ffffff;fill-rule:evenodd;stroke:#000000;stroke-width:4;stroke-linejoin:round;stroke-miterlimit:4;stroke-dasharray:none"
     d="m 372.27573,310.6 c 6.52,5.2 6.05,33.51 2.19,38.21 -3.87,4.69 -26.86,-23.58 -22.93,-32.29 4.13,-9.16 14.61,-10.82 20.74,-5.92 z"
     inkscape:connector-curvature="0" />
  <path
     id="path3192"
     style="fill:none;stroke:#000000;stroke-width:4;stroke-linecap:round;stroke-miterlimit:4;stroke-dasharray:none"
     d="m 303.52573,291.85 c 14.5,-14.499 31,-0.5 31,-0.5"
     inkscape:connector-curvature="0" />
  <path
     id="path3194"
     style="fill:none;stroke:#000000;stroke-width:4;stroke-linecap:round;stroke-miterlimit:4;stroke-dasharray:none"
     d="m 308.49573,314.35 c 9.85,-7.89 21.07,-0.27 21.07,-0.27"
     inkscape:connector-curvature="0" />
  <path
     id="path3196"
     style="fill:none;stroke:#000000;stroke-width:4;stroke-linecap:round;stroke-miterlimit:4;stroke-dasharray:none"
     d="m 310.14573,336.85 c 8.31,-5.68 17.76,-0.2 17.76,-0.2"
     inkscape:connector-curvature="0" />
  <path
     id="path3214"
     style="fill:#ffffff;fill-rule:evenodd;stroke:#000000;stroke-width:4;stroke-linejoin:round;stroke-miterlimit:4;stroke-dasharray:none"
     d="m 265.60073,310.6 c -6.52,5.2 -6.053,33.51 -2.187,38.21 3.866,4.69 26.852,-23.58 22.922,-32.29 -4.129,-9.16 -14.602,-10.82 -20.735,-5.92 z"
     inkscape:connector-curvature="0" />
  <path
     id="path3235"
     style="fill:#ffffff;stroke:#000000;stroke-width:4;stroke-linecap:round;stroke-linejoin:round;stroke-miterlimit:4;stroke-dasharray:none"
     d="m 401.02573,421.68 c 1.64,6.13 -3.25,8.27 -9.55,9.96 -6.29,1.69 -11.61,2.27 -13.25,-3.85 -1.64,-6.13 2.13,-12.47 8.43,-14.15 6.29,-1.69 12.73,1.91 14.37,8.04 z"
     inkscape:connector-curvature="0" />
  <path
     id="path3237"
     style="fill:#ffffff;stroke:#000000;stroke-width:4;stroke-linecap:round;stroke-linejoin:round;stroke-miterlimit:4;stroke-dasharray:none"
     d="m 359.58573,428.32 c -1.64,6.13 -6.96,5.54 -13.25,3.85 -6.3,-1.69 -11.19,-3.83 -9.55,-9.96 1.64,-6.13 8.08,-9.73 14.37,-8.04 6.3,1.69 10.07,8.02 8.43,14.15 z"
     inkscape:connector-curvature="0" />
  <path
     id="path3224"
     style="fill:#ffffff;stroke:#000000;stroke-width:4;stroke-linecap:round;stroke-linejoin:round;stroke-miterlimit:4;stroke-dasharray:none"
     d="m 379.86573,427.31 c 0,6.34 -5.28,7.15 -11.8,7.15 -6.52,0 -11.8,-0.81 -11.8,-7.15 0,-6.35 5.28,-11.49 11.8,-11.49 6.52,0 11.8,5.14 11.8,11.49 z"
     inkscape:connector-curvature="0" />
  <path
     id="path3243"
     style="fill:#ffffff;stroke:#000000;stroke-width:4;stroke-linecap:round;stroke-linejoin:round;stroke-miterlimit:4;stroke-dasharray:none"
     d="m 286.86573,427.31 c 0,6.34 -5.283,7.15 -11.801,7.15 -6.518,0 -11.801,-0.81 -11.799,-7.15 -0.002,-6.35 5.281,-11.49 11.799,-11.49 6.518,0 11.801,5.14 11.801,11.49 z"
     inkscape:connector-curvature="0" />
  <path
     id="path3287"
     style="fill:#000000;fill-opacity:0.31373004;stroke-width:4;stroke-miterlimit:4;stroke-dasharray:none"
     d="m 340.15573,388.44 c -0.41,15.42 -13.04,27.81 -28.57,27.81 -11.94,0 -22.16,-7.35 -26.43,-17.75 -0.01,0.27 -0.03,0.54 -0.03,0.81 -0.01,15.79 12.8,28.6 28.59,28.6 15.79,0 28.57,-12.81 28.56,-28.6 0,-3.85 -0.74,-7.52 -2.12,-10.87 z"
     inkscape:connector-curvature="0" />
  <path
     id="path3358"
     style="fill:#000000;fill-opacity:0.31373004;stroke-width:4;stroke-miterlimit:4;stroke-dasharray:none"
     d="m 386.58573,366.63 c 10.56,8.16 13.35,24.67 13.34,39.25 0.01,23.47 -19,26.47 -42.47,26.47 -5.09,0 -9.94,-0.16 -14.46,-0.62 6.93,2.22 15.62,2.71 25.06,2.71 22.68,0 41.07,-2.88 41.06,-25.56 0.01,-17.77 -4.28,-38.49 -22.53,-42.25 z"
     inkscape:connector-curvature="0" />
  <path
     id="path3363"
     style="fill:#000000;fill-opacity:0.31373004;fill-rule:evenodd;stroke-width:4;stroke-miterlimit:4;stroke-dasharray:none"
     d="m 279.49173,309.29 c 0.777,0.84 1.503,1.81 2.125,2.91 4.549,7.97 -13.959,36.28 -19.219,34.65 0.306,0.85 0.629,1.52 1,1.97 3.867,4.7 26.868,-23.61 22.938,-32.31 -1.567,-3.47 -4.037,-5.85 -6.844,-7.22 z"
     inkscape:connector-curvature="0" />
  <metadata
     id="metadata36">
    <rdf:RDF>
      <cc:Work>
        <dc:format>image/svg+xml</dc:format>
        <dc:type
           rdf:resource="http://purl.org/dc/dcmitype/StillImage" />
        <cc:license
           rdf:resource="http://creativecommons.org/publicdomain/zero/1.0/" />
        <dc:publisher>
          <cc:Agent
             rdf:about="http://openclipart.org/">
            <dc:title>Openclipart</dc:title>
          </cc:Agent>
        </dc:publisher>
        <dc:title>Cartoon elephant</dc:title>
        <dc:date>2006-12-26T00:00:00</dc:date>
        <dc:description />
        <dc:source>https://openclipart.org/detail/17810/-by--17810</dc:source>
        <dc:creator>
          <cc:Agent>
            <dc:title>lemmling</dc:title>
          </cc:Agent>
        </dc:creator>
      </cc:Work>
      <cc:License
         rdf:about="http://creativecommons.org/publicdomain/zero/1.0/">
        <cc:permits
           rdf:resource="http://creativecommons.org/ns#Reproduction" />
        <cc:permits
           rdf:resource="http://creativecommons.org/ns#Distribution" />
        <cc:permits
           rdf:resource="http://creativecommons.org/ns#DerivativeWorks" />
      </cc:License>
    </rdf:RDF>
  </metadata>
  <path
     d="m 537.47688,309.14 c 0.02,121.02 -98.06,219.14 -219.08,219.14 -121.018,0 -219.12,-98.12 -219.08,-219.14 -0.032,-121.018 98.062,-219.14 219.08,-219.14 121.02,0 219.1,98.122 219.08,219.14 z"
     style="fill:#ffffff;stroke:#000000;stroke-width:4;stroke-linecap:round;stroke-linejoin:round;fill-opacity:1;stroke-miterlimit:4;stroke-dasharray:none"
     id="path848"
     inkscape:connector-curvature="0" />
  <path
     d="m 150.28088,510.14 c -0.012,45.36 36.754,51.14 82.114,51.14 45.362,0 82.122,-5.78 82.122,-51.14 0,-45.36 -38.3,-70.4 -82.122,-82.14 -68.162,-18.26 -82.126,36.78 -82.114,82.14 z"
     style="fill:#ffffff;stroke:#000000;stroke-width:4;stroke-linecap:round;stroke-linejoin:round;fill-opacity:1;stroke-miterlimit:4;stroke-dasharray:none"
     id="path852"
     inkscape:connector-curvature="0" />
  <path
     d="m 296.31688,537.72 c 3.28,12.26 -6.5,16.54 -19.1,19.92 -12.58,3.38 -23.22,4.54 -26.5,-7.7 -3.282,-12.26 4.26,-24.94 16.86,-28.3 12.58,-3.38 25.46,3.82 28.74,16.08 z"
     style="fill:#ffffff;stroke:#000000;stroke-width:4;stroke-linecap:round;stroke-linejoin:round;stroke-miterlimit:4;stroke-dasharray:none"
     id="path854"
     inkscape:connector-curvature="0" />
  <path
     d="m 580.95688,230.206 c -17.9,66.874 -72.12,110.474 -121.1,97.354 -48.96,-13.12 -74.12,-77.982 -56.18,-144.858 17.9,-66.882 59.96,-65.074 108.92,-51.954 48.98,13.12 86.3,32.584 68.36,99.458 z"
     style="fill:#ffffff;stroke:#000000;stroke-width:4;stroke-linecap:round;stroke-linejoin:round;fill-opacity:1;stroke-miterlimit:4;stroke-dasharray:none"
     id="path858"
     inkscape:connector-curvature="0" />
  <path
     d="m 58.509282,230.206 c 17.9056,66.874 72.125998,110.474 121.093998,97.354 48.966,-13.12 74.134,-77.982 56.192,-144.858 -17.906,-66.882 -59.962,-65.074 -108.928,-51.954 -48.965998,13.12 -86.291998,32.584 -68.357998,99.458 z"
     style="fill:#ffffff;stroke:#000000;stroke-width:4;stroke-linecap:round;stroke-linejoin:round;fill-opacity:1;stroke-miterlimit:4;stroke-dasharray:none"
     id="path860"
     inkscape:connector-curvature="0" />
  <path
     d="m 460.25688,136.484 c -29.54,-0.308 -53.26,13.268 -65.56,59.25 -9.94,37.052 -6.68,73.446 6.56,100.806 9.94,-46.95 54.4,-105.122 120.12,-107.994 26.66,-1.164 57.62,16.094 48.64,-4.938 -9,-21.03 -36.84,-31.94 -66.44,-39.874 -15.3,-4.1 -29.9,-7.11 -43.32,-7.25 z"
     style="fill:#ffffff;fill-opacity:1;stroke-width:4;stroke:#000000;stroke-opacity:1;stroke-miterlimit:4;stroke-dasharray:none"
     id="path864"
     inkscape:connector-curvature="0" />
  <path
     d="m 180.23688,136.484 c 29.538,-0.308 53.254,13.268 65.564,59.25 9.936,37.052 6.676,73.446 -6.564,100.806 -9.928,-46.95 -54.394,-105.122 -120.124,-107.994 -26.656,-1.164 -57.617998,16.094 -48.625998,-4.938 8.992,-21.03 36.823998,-31.94 66.437998,-39.874 15.302,-4.1 29.886,-7.11 43.312,-7.25 z"
     style="fill:#ffffff;fill-opacity:1;stroke-width:4;stroke:#000000;stroke-opacity:1;stroke-miterlimit:4;stroke-dasharray:none"
     id="path866"
     inkscape:connector-curvature="0" />
  <path
     d="m 491.47688,227.138 c 0.04,95.622 -77.46,173.142 -173.08,173.142 -95.616,0 -173.118,-77.52 -173.088,-173.142 -0.03,-95.612 32.154,-173.138 173.088,-173.138 143.76,0 173.12,77.526 173.08,173.138 z"
     style="fill:#ffffff;stroke:#000000;stroke-width:4;stroke-linecap:round;stroke-linejoin:round;fill-opacity:1;stroke-miterlimit:4;stroke-dasharray:none"
     id="path868"
     inkscape:connector-curvature="0" />
  <path
     d="m 311.13688,194.198 c 0,25.038 -20.28,45.34 -45.32,45.34 -25.044,0 -45.34,-20.302 -45.332,-45.34 -0.008,-25.038 20.288,-45.338 45.332,-45.338 25.04,0 45.32,20.3 45.32,45.338 z"
     style="fill:#ffffff;stroke:#000000;stroke-width:4;stroke-linecap:round;stroke-linejoin:round;stroke-miterlimit:4;stroke-dasharray:none"
     id="path870"
     inkscape:connector-curvature="0" />
  <path
     d="m 416.59688,194.198 c 0.02,25.038 -20.28,45.34 -45.32,45.34 -25.04,0 -45.34,-20.302 -45.32,-45.34 -0.02,-25.038 20.28,-45.338 45.32,-45.338 25.04,0 45.34,20.3 45.32,45.338 z"
     style="fill:#ffffff;stroke:#000000;stroke-width:4;stroke-linecap:round;stroke-linejoin:round;stroke-miterlimit:4;stroke-dasharray:none"
     id="path872"
     inkscape:connector-curvature="0" />
  <path
     d="m 376.31688,202.198 c 0,8.346 -6.76,15.114 -15.12,15.114 -8.34,0 -15.1,-6.768 -15.1,-15.114 0,-8.346 6.76,-15.112 15.1,-15.112 8.36,0 15.12,6.766 15.12,15.112 z"
     style="fill:#000000;stroke-width:4;stroke-miterlimit:4;stroke-dasharray:none"
     id="path874"
     inkscape:connector-curvature="0" />
  <path
     d="m 292.25688,202.198 c 0,8.346 -6.76,15.114 -15.12,15.114 -8.34,0 -15.1,-6.768 -15.1,-15.114 0,-8.346 6.76,-15.112 15.1,-15.112 8.36,0 15.12,6.766 15.12,15.112 z"
     style="fill:#000000;stroke-width:4;stroke-miterlimit:4;stroke-dasharray:none"
     id="path876"
     inkscape:connector-curvature="0" />
  <path
     d="m 498.51688,510.14 c 0,45.36 -36.76,51.14 -82.12,51.14 -45.36,0 -82.12,-5.78 -82.12,-51.14 0,-45.36 38.3,-70.4 82.12,-82.14 68.16,-18.26 82.12,36.78 82.12,82.14 z"
     style="fill:#ffffff;stroke:#000000;stroke-width:4;stroke-linecap:round;stroke-linejoin:round;fill-opacity:1;stroke-miterlimit:4;stroke-dasharray:none"
     id="path878"
     inkscape:connector-curvature="0" />
  <path
     d="m 364.85688,491 c 0,31.56 -25.6,57.16 -57.16,57.16 -31.58,0 -57.18,-25.6 -57.16,-57.16 -0.02,-31.58 25.58,-57.18 57.16,-57.18 31.56,0 57.16,25.6 57.16,57.18 z"
     style="fill:#ffffff;stroke:#000000;stroke-width:4;stroke-linecap:round;stroke-linejoin:round;fill-opacity:1;stroke-miterlimit:4;stroke-dasharray:none"
     id="path882"
     inkscape:connector-curvature="0" />
  <path
     d="m 213.42888,549 c -3.28,12.26 -13.904,11.08 -26.496,7.7 -12.592,-3.38 -22.38,-7.66 -19.092,-19.92 3.28,-12.26 16.148,-19.46 28.74,-16.08 12.592,3.38 20.136,16.04 16.848,28.3 z"
     style="fill:#ffffff;stroke:#000000;stroke-width:4;stroke-linecap:round;stroke-linejoin:round;stroke-miterlimit:4;stroke-dasharray:none"
     id="path884"
     inkscape:connector-curvature="0" />
  <path
     d="m 364.71688,487.98 h -91.36 c 15.32,-126.56 -14.72,-189.5 -14.72,-189.5 h 120.8 c 0,0 -30.04,64.34 -14.72,189.5 z"
     style="fill:#ffffff;fill-rule:evenodd;stroke-width:4;fill-opacity:1;stroke-miterlimit:4;stroke-dasharray:none"
     id="path888"
     inkscape:connector-curvature="0" />
  <path
     d="m 379.43688,298.48 c 0,0 -30.04,64.34 -14.72,189.5 m -91.36,0 c 15.32,-126.56 -14.72,-189.5 -14.72,-189.5"
     style="fill:none;stroke:#000000;stroke-width:4;stroke-linecap:round;stroke-miterlimit:4;stroke-dasharray:none"
     id="path890"
     inkscape:connector-curvature="0" />
  <path
     d="m 424.81688,313.56 c 13.04,10.4 12.1,67.02 4.38,76.42 -7.74,9.38 -53.72,-47.16 -45.86,-64.58 8.26,-18.32 29.22,-21.64 41.48,-11.84 z"
     style="fill:#ffffff;fill-rule:evenodd;stroke:#000000;stroke-width:4;stroke-linejoin:round;stroke-miterlimit:4;stroke-dasharray:none"
     id="path892"
     inkscape:connector-curvature="0" />
  <path
     d="m 287.31688,276.06 c 29,-28.998 62,-1 62,-1"
     style="fill:none;stroke:#000000;stroke-width:4;stroke-linecap:round;stroke-miterlimit:4;stroke-dasharray:none"
     id="path894"
     inkscape:connector-curvature="0" />
  <path
     d="m 297.25688,321.06 c 19.7,-15.78 42.14,-0.54 42.14,-0.54"
     style="fill:none;stroke:#000000;stroke-width:4;stroke-linecap:round;stroke-miterlimit:4;stroke-dasharray:none"
     id="path896"
     inkscape:connector-curvature="0" />
  <path
     d="m 300.55688,366.06 c 16.62,-11.36 35.52,-0.4 35.52,-0.4"
     style="fill:none;stroke:#000000;stroke-width:4;stroke-linecap:round;stroke-miterlimit:4;stroke-dasharray:none"
     id="path898"
     inkscape:connector-curvature="0" />
  <path
     d="m 211.46688,313.56 c -13.04,10.4 -12.106,67.02 -4.374,76.42 7.732,9.38 53.704,-47.16 45.844,-64.58 -8.258,-18.32 -29.204,-21.64 -41.47,-11.84 z"
     style="fill:#ffffff;fill-rule:evenodd;stroke:#000000;stroke-width:4;stroke-linejoin:round;stroke-miterlimit:4;stroke-dasharray:none"
     id="path900"
     inkscape:connector-curvature="0" />
  <path
     d="m 482.31688,535.72 c 3.28,12.26 -6.5,16.54 -19.1,19.92 -12.58,3.38 -23.22,4.54 -26.5,-7.7 -3.28,-12.26 4.26,-24.94 16.86,-28.3 12.58,-3.38 25.46,3.82 28.74,16.08 z"
     style="fill:#ffffff;stroke:#000000;stroke-width:4;stroke-linecap:round;stroke-linejoin:round;stroke-miterlimit:4;stroke-dasharray:none"
     id="path902"
     inkscape:connector-curvature="0" />
  <path
     d="m 399.43688,549 c -3.28,12.26 -13.92,11.08 -26.5,7.7 -12.6,-3.38 -22.38,-7.66 -19.1,-19.92 3.28,-12.26 16.16,-19.46 28.74,-16.08 12.6,3.38 20.14,16.04 16.86,28.3 z"
     style="fill:#ffffff;stroke:#000000;stroke-width:4;stroke-linecap:round;stroke-linejoin:round;stroke-miterlimit:4;stroke-dasharray:none"
     id="path904"
     inkscape:connector-curvature="0" />
  <path
     d="m 441.99688,548.98 c 0,12.68 -10.56,14.3 -23.6,14.3 -13.04,0 -23.6,-1.62 -23.6,-14.3 0,-12.7 10.56,-22.98 23.6,-22.98 13.04,0 23.6,10.28 23.6,22.98 z"
     style="fill:#ffffff;stroke:#000000;stroke-width:4;stroke-linecap:round;stroke-linejoin:round;stroke-miterlimit:4;stroke-dasharray:none"
     id="path906"
     inkscape:connector-curvature="0" />
  <path
     d="m 253.99688,548.98 c 0,12.68 -10.566,14.3 -23.602,14.3 -13.036,0 -23.602,-1.62 -23.598,-14.3 -0.004,-12.7 10.562,-22.98 23.598,-22.98 13.036,0 23.602,10.28 23.602,22.98 z"
     style="fill:#ffffff;stroke:#000000;stroke-width:4;stroke-linecap:round;stroke-linejoin:round;stroke-miterlimit:4;stroke-dasharray:none"
     id="path908"
     inkscape:connector-curvature="0" />
</svg>
