<?xml version="1.0" encoding="UTF-8" standalone="no"?>
<!-- Created with Inkscape (http://www.inkscape.org/) -->

<svg
   xmlns:dc="http://purl.org/dc/elements/1.1/"
   xmlns:cc="http://creativecommons.org/ns#"
   xmlns:rdf="http://www.w3.org/1999/02/22-rdf-syntax-ns#"
   xmlns:svg="http://www.w3.org/2000/svg"
   xmlns="http://www.w3.org/2000/svg"
   xmlns:sodipodi="http://sodipodi.sourceforge.net/DTD/sodipodi-0.dtd"
   xmlns:inkscape="http://www.inkscape.org/namespaces/inkscape"
   id="svg2"
   viewBox="0 0 601.53893 887.76546"
   version="1.0"
   inkscape:version="0.92.3 (2405546, 2018-03-11)"
   sodipodi:docname="lemmling-Cartoon-cat.adapted.svg"
   width="601.53894"
   height="887.76544">
  <defs
     id="defs46" />
  <sodipodi:namedview
     pagecolor="#ffffff"
     bordercolor="#666666"
     borderopacity="1"
     objecttolerance="10"
     gridtolerance="10"
     guidetolerance="10"
     inkscape:pageopacity="0"
     inkscape:pageshadow="2"
     inkscape:window-width="2560"
     inkscape:window-height="1373"
     id="namedview44"
     showgrid="false"
     fit-margin-top="50"
     fit-margin-left="50"
     fit-margin-right="50"
     fit-margin-bottom="50"
     inkscape:zoom="1.3291799"
     inkscape:cx="167.60465"
     inkscape:cy="443.88272"
     inkscape:window-x="-9"
     inkscape:window-y="-9"
     inkscape:window-maximized="1"
     inkscape:current-layer="g2508" />
  <g
     id="layer1"
     transform="matrix(2,0,0,2,-350.14836,-425.05426)">
    <path
       id="path3229"
       style="fill:#ffffff;fill-rule:evenodd;stroke:#000000;stroke-width:1;fill-opacity:1;stroke-miterlimit:4;stroke-dasharray:none"
       d="m 305.95,383.81 c -9.45,-63.58 54.4,-67.86 47.21,-93.17 -7.47,-26.32 -36.51,-18.88 -51.62,-22.66 -15.11,-3.78 -12.88,-17.74 -3.78,-25.18 6.93,-5.67 63.55,-8.73 76.81,32.73 18.43,57.68 -45.33,52.88 -45.33,107.02 0,46.03 -22.03,1.26 -23.29,1.26 z"
       inkscape:connector-curvature="0" />
    <path
       id="path2383"
       style="fill:#ffffff;stroke:#000000;stroke-width:0.55102491;stroke-linecap:round;stroke-linejoin:round;fill-opacity:1;stroke-miterlimit:4;stroke-dasharray:none"
       d="m 403.52,522.31 a 67.988,67.988 0 1 1 -135.97,0 67.988,67.988 0 1 1 135.97,0 z"
       transform="matrix(1.8148,0,0,1.8148,-283.47,-459.58)"
       inkscape:connector-curvature="0" />
    <path
       id="path2385"
       style="fill:#ffffff;stroke:#000000;stroke-width:1;stroke-linecap:round;stroke-linejoin:round;fill-opacity:1;stroke-miterlimit:4;stroke-dasharray:none"
       d="m 233.72,341.74 c -2.57,0.05 -4.46,0.58 -5.41,1.65 -3.48,3.94 -0.59,39.94 21.07,55.44 -12.3,16.1 -19.6,36.19 -19.6,58 0,52.82 42.87,95.69 95.69,95.69 52.82,0 95.69,-42.87 95.69,-95.69 0,-21.6 -7.2,-41.51 -19.28,-57.53 22.26,-15.23 25.27,-51.93 21.74,-55.91 -5.04,-5.7 -37.51,3.77 -50.4,20.38 -2.16,2.78 -3.55,5.36 -4.34,7.78 -13.04,-6.66 -27.78,-10.41 -43.41,-10.41 -15.29,0 -29.74,3.59 -42.56,9.97 -0.82,-2.29 -2.17,-4.73 -4.19,-7.34 -10.48,-13.5 -33.89,-22.28 -45,-22.03 z"
       inkscape:connector-curvature="0" />
    <path
       id="path2387"
       style="fill:#ffffff;stroke:#000000;stroke-width:2.48274492;stroke-linecap:round;stroke-linejoin:round;stroke-miterlimit:4;stroke-dasharray:none"
       d="m 403.52,522.31 a 67.988,67.988 0 1 1 -135.97,0 67.988,67.988 0 1 1 135.97,0 z"
       transform="matrix(0.40278,0,0,0.40278,157.9,232.93)"
       inkscape:connector-curvature="0" />
    <path
       id="path2391"
       style="fill:#ffffff;stroke:#000000;stroke-width:2.48274492;stroke-linecap:round;stroke-linejoin:round;stroke-miterlimit:4;stroke-dasharray:none"
       d="m 403.52,522.31 a 67.988,67.988 0 1 1 -135.97,0 67.988,67.988 0 1 1 135.97,0 z"
       transform="matrix(0.40278,0,0,0.40278,221.48,232.93)"
       inkscape:connector-curvature="0" />
    <path
       id="path2393"
       style="fill:#000000;stroke-width:8;stroke-miterlimit:4;stroke-dasharray:none"
       d="m 403.52,522.31 a 67.988,67.988 0 1 1 -135.97,0 67.988,67.988 0 1 1 135.97,0 z"
       transform="matrix(0.125,0,0,0.125,259.28,381.16)"
       inkscape:connector-curvature="0" />
    <path
       id="path2395"
       style="fill:#000000;stroke-width:8;stroke-miterlimit:4;stroke-dasharray:none"
       d="m 403.52,522.31 a 67.988,67.988 0 1 1 -135.97,0 67.988,67.988 0 1 1 135.97,0 z"
       transform="matrix(0.125,0,0,0.125,305.87,381.16)"
       inkscape:connector-curvature="0" />
    <path
       id="path2397"
       style="fill:#000000;stroke-width:1;stroke-miterlimit:4;stroke-dasharray:none"
       d="m 341.53,498.13 c 0,8.83 -9.67,15.99 -16.07,15.99 -6.89,0 -16.06,-7.16 -16.06,-15.99 0,-8.83 7.19,-11.08 16.06,-11.08 8.87,0 16.07,2.25 16.07,11.08 z"
       inkscape:connector-curvature="0" />
    <g
       id="g3178"
       transform="translate(-2.5219,-5.0362)"
       style="stroke-width:1;stroke-miterlimit:4;stroke-dasharray:none">
      <path
         id="path2400"
         style="fill:none;stroke:#000000;stroke-width:1.06782907;stroke-linecap:round;stroke-linejoin:round;stroke-miterlimit:4;stroke-dasharray:none"
         d="m 392.75,487.02 a 39.03,39.03 0 0 1 -57.21,43.91"
         transform="matrix(0.93748,0,0,0.93548,13.993,33.332)"
         inkscape:connector-curvature="0" />
      <path
         id="path3176"
         style="fill:none;stroke:#000000;stroke-width:1.06782907;stroke-linecap:round;stroke-linejoin:round;stroke-miterlimit:4;stroke-dasharray:none"
         d="m 392.75,487.02 a 39.03,39.03 0 0 1 -57.21,43.91"
         transform="matrix(-0.93748,0,0,0.93548,641.98,33.332)"
         inkscape:connector-curvature="0" />
    </g>
    <g
       id="g3188"
       transform="translate(0,-10.702)"
       style="stroke-width:1;stroke-miterlimit:4;stroke-dasharray:none">
      <path
         id="path3182"
         style="fill:none;stroke:#000000;stroke-width:1;stroke-linecap:round;stroke-miterlimit:4;stroke-dasharray:none"
         d="m 365.35,505.67 c 44.67,-16.61 66.5,3.89 66.5,3.89"
         inkscape:connector-curvature="0" />
      <path
         id="path3184"
         style="fill:none;stroke:#000000;stroke-width:1;stroke-linecap:round;stroke-miterlimit:4;stroke-dasharray:none"
         d="m 358.94,516.8 c 31.63,-8.96 52.35,13.89 52.35,13.89"
         inkscape:connector-curvature="0" />
      <path
         id="path3186"
         style="fill:none;stroke:#000000;stroke-width:1;stroke-linecap:round;stroke-miterlimit:4;stroke-dasharray:none"
         d="m 356.31,528.71 c 24.34,-2.57 33.66,19.13 33.66,19.13"
         inkscape:connector-curvature="0" />
    </g>
    <g
       id="g3193"
       transform="matrix(-1,0,0,1,651.55,-10.702)"
       style="stroke-width:1;stroke-miterlimit:4;stroke-dasharray:none">
      <path
         id="path3195"
         style="fill:none;stroke:#000000;stroke-width:1;stroke-linecap:round;stroke-miterlimit:4;stroke-dasharray:none"
         d="m 365.35,505.67 c 44.67,-16.61 66.5,3.89 66.5,3.89"
         inkscape:connector-curvature="0" />
      <path
         id="path3197"
         style="fill:none;stroke:#000000;stroke-width:1;stroke-linecap:round;stroke-miterlimit:4;stroke-dasharray:none"
         d="m 358.94,516.8 c 31.63,-8.96 52.35,13.89 52.35,13.89"
         inkscape:connector-curvature="0" />
      <path
         id="path3199"
         style="fill:none;stroke:#000000;stroke-width:1;stroke-linecap:round;stroke-miterlimit:4;stroke-dasharray:none"
         d="m 356.31,528.71 c 24.34,-2.57 33.66,19.13 33.66,19.13"
         inkscape:connector-curvature="0" />
    </g>
    <path
       id="path3231"
       style="fill:#ffffff;fill-rule:evenodd;stroke:#000000;stroke-width:1;stroke-linejoin:round;fill-opacity:1;stroke-miterlimit:4;stroke-dasharray:none"
       d="m 381.49,380.03 c 2.52,-19.51 31.48,-32.73 35.25,-29.58 3.78,3.14 -4.67,33.4 -20.77,40.91 -9.44,4.41 -14.48,-6.29 -14.48,-11.33 z"
       inkscape:connector-curvature="0" />
    <path
       id="path3233"
       style="fill:#ffffff;fill-rule:evenodd;stroke:#000000;stroke-width:1;stroke-linejoin:round;fill-opacity:1;stroke-miterlimit:4;stroke-dasharray:none"
       d="m 269.7,380.03 c -2.52,-19.51 -31.48,-32.73 -35.25,-29.58 -3.78,3.14 4.66,33.4 20.77,40.91 9.44,4.41 14.48,-6.29 14.48,-11.33 z"
       inkscape:connector-curvature="0" />
    <path
       id="path3235"
       style="fill:#ffffff;stroke:#000000;stroke-width:1;stroke-linecap:round;stroke-linejoin:round;fill-opacity:1;stroke-miterlimit:4;stroke-dasharray:none"
       d="m 409.5,608.24 c 0,21.54 -17.48,20.77 -39.03,20.77 -21.54,0 -39.03,0.77 -39.03,-20.77 0,-21.55 17.49,-39.03 39.03,-39.03 21.55,0 39.03,17.48 39.03,39.03 z"
       inkscape:connector-curvature="0" />
    <path
       id="path3238"
       style="fill:#ffffff;stroke:#000000;stroke-width:1;stroke-linecap:round;stroke-linejoin:round;fill-opacity:1;stroke-miterlimit:4;stroke-dasharray:none"
       d="m 319.48,608.24 c 0,21.54 -17.48,20.77 -39.03,20.77 -11.98,0 -22.7,0.24 -29.86,-3.25 -5.72,-2.79 -9.17,-7.96 -9.17,-17.52 0,-21.55 17.49,-39.03 39.03,-39.03 21.55,0 39.03,17.48 39.03,39.03 z"
       inkscape:connector-curvature="0" />
    <g
       id="g2469"
       transform="matrix(-1,0,0,1,652.48,-1.8279)"
       style="stroke-width:1;stroke-miterlimit:4;stroke-dasharray:none">
      <path
         id="path2471"
         style="fill:none;stroke:#000000;stroke-width:1;stroke-linecap:round;stroke-miterlimit:4;stroke-dasharray:none"
         d="m 357.34,629.69 c -3.5,-11.33 0.5,-24.55 0.5,-24.55"
         inkscape:connector-curvature="0" />
      <path
         id="path2473"
         style="fill:none;stroke:#000000;stroke-width:1;stroke-linecap:round;stroke-miterlimit:4;stroke-dasharray:none"
         d="m 375.37,631.21 c 4.29,-18.25 -0.62,-32.73 -0.62,-32.73"
         inkscape:connector-curvature="0" />
      <path
         id="path2475"
         style="fill:none;stroke:#000000;stroke-width:1;stroke-linecap:round;stroke-miterlimit:4;stroke-dasharray:none"
         d="m 393.62,629.32 c 8.81,-13.85 1.26,-25.18 1.26,-25.18"
         inkscape:connector-curvature="0" />
    </g>
    <g
       id="g2508"
       transform="translate(-0.82294,-1.8279)"
       style="fill:#ffffff;fill-opacity:1;stroke-width:1;stroke-miterlimit:4;stroke-dasharray:none">
      <path
         id="path2510"
         style="fill:#ffffff;fill-opacity:1;stroke:#000000;stroke-width:1;stroke-linecap:round;stroke-miterlimit:4;stroke-dasharray:none"
         d="m 357.34,629.69 c -3.5,-11.33 0.5,-24.55 0.5,-24.55"
         inkscape:connector-curvature="0" />
      <path
         id="path2512"
         style="fill:#ffffff;stroke:#000000;stroke-width:1;stroke-linecap:round;fill-opacity:1;stroke-miterlimit:4;stroke-dasharray:none"
         d="m 375.37,631.21 c 4.29,-18.25 -0.62,-32.73 -0.62,-32.73"
         inkscape:connector-curvature="0" />
      <path
         id="path2514"
         style="fill:#ffffff;stroke:#000000;stroke-width:1;stroke-linecap:round;fill-opacity:1;stroke-miterlimit:4;stroke-dasharray:none"
         d="m 393.62,629.32 c 8.81,-13.85 1.26,-25.18 1.26,-25.18"
         inkscape:connector-curvature="0" />
    </g>
  </g>
  <metadata
     id="metadata41">
    <rdf:RDF>
      <cc:Work>
        <dc:format>image/svg+xml</dc:format>
        <dc:type
           rdf:resource="http://purl.org/dc/dcmitype/StillImage" />
        <cc:license
           rdf:resource="http://creativecommons.org/publicdomain/zero/1.0/" />
        <dc:publisher>
          <cc:Agent
             rdf:about="http://openclipart.org/">
            <dc:title>Openclipart</dc:title>
          </cc:Agent>
        </dc:publisher>
        <dc:title />
        <dc:date>2008-07-10T07:24:31</dc:date>
        <dc:description />
        <dc:source>https://openclipart.org/detail/17683/cartoon-cat-by-lemmling</dc:source>
        <dc:creator>
          <cc:Agent>
            <dc:title>lemmling</dc:title>
          </cc:Agent>
        </dc:creator>
        <dc:subject>
          <rdf:Bag>
            <rdf:li>animal</rdf:li>
            <rdf:li>brown</rdf:li>
            <rdf:li>cartoon</rdf:li>
            <rdf:li>cat</rdf:li>
            <rdf:li>colour</rdf:li>
            <rdf:li>funny</rdf:li>
            <rdf:li>how i did it</rdf:li>
            <rdf:li>mammal</rdf:li>
          </rdf:Bag>
        </dc:subject>
      </cc:Work>
      <cc:License
         rdf:about="http://creativecommons.org/publicdomain/zero/1.0/">
        <cc:permits
           rdf:resource="http://creativecommons.org/ns#Reproduction" />
        <cc:permits
           rdf:resource="http://creativecommons.org/ns#Distribution" />
        <cc:permits
           rdf:resource="http://creativecommons.org/ns#DerivativeWorks" />
      </cc:License>
    </rdf:RDF>
  </metadata>
</svg>
