<?xml version="1.0" encoding="UTF-8" standalone="no"?>
<!-- Created with Inkscape (http://www.inkscape.org/) -->

<svg
   xmlns:dc="http://purl.org/dc/elements/1.1/"
   xmlns:cc="http://creativecommons.org/ns#"
   xmlns:rdf="http://www.w3.org/1999/02/22-rdf-syntax-ns#"
   xmlns:svg="http://www.w3.org/2000/svg"
   xmlns="http://www.w3.org/2000/svg"
   xmlns:sodipodi="http://sodipodi.sourceforge.net/DTD/sodipodi-0.dtd"
   xmlns:inkscape="http://www.inkscape.org/namespaces/inkscape"
   id="svg2"
   viewBox="0 0 548.48399 697.21471"
   version="1.0"
   inkscape:version="0.92.3 (2405546, 2018-03-11)"
   sodipodi:docname="lemmling-Cartoon-gnu.addapted.svg"
   width="548.48401"
   height="697.21472">
  <defs
     id="defs26" />
  <sodipodi:namedview
     pagecolor="#ffffff"
     bordercolor="#666666"
     borderopacity="1"
     objecttolerance="10"
     gridtolerance="10"
     guidetolerance="10"
     inkscape:pageopacity="0"
     inkscape:pageshadow="2"
     inkscape:window-width="2560"
     inkscape:window-height="1373"
     id="namedview24"
     showgrid="false"
     inkscape:zoom="1.6924485"
     inkscape:cx="274.242"
     inkscape:cy="348.60736"
     inkscape:window-x="-9"
     inkscape:window-y="-9"
     inkscape:window-maximized="1"
     inkscape:current-layer="layer1"
     fit-margin-top="50"
     fit-margin-left="50"
     fit-margin-right="50"
     fit-margin-bottom="50" />
  <g
     id="layer1"
     transform="matrix(2,0,0,2,-428.67581,-718.13364)">
    <path
       id="path2383"
       style="fill:#ffffff;stroke:#000000;stroke-width:1.64365549;stroke-linecap:round;stroke-linejoin:round;fill-opacity:1;stroke-miterlimit:4;stroke-dasharray:none"
       d="m 441.29,560.71 c 0.02,49.72 -40.29,90.04 -90.02,90.04 -49.72,0 -90.03,-40.32 -90.02,-90.04 -0.01,-49.73 40.3,-90.05 90.02,-90.05 49.73,0 90.04,40.32 90.02,90.05 z"
       transform="matrix(1.2168,0,0,1.2168,-76.15,-121.55)"
       inkscape:connector-curvature="0" />
    <path
       id="path3172"
       style="fill:#ffffff;stroke:#000000;stroke-width:2;stroke-linecap:round;stroke-linejoin:round;fill-opacity:1;stroke-miterlimit:4;stroke-dasharray:none"
       d="m 359.45,671.28 c 0,9.09 14.67,9.38 32.74,9.38 18.07,0 32.73,0.69 32.73,-9.38 0,-17.72 -14.66,-32.1 -32.73,-32.1 -18.07,0 -32.74,14.38 -32.74,32.1 z"
       inkscape:connector-curvature="0" />
    <path
       id="path3203"
       style="fill:#ffffff;fill-rule:evenodd;stroke:#000000;stroke-width:2;fill-opacity:1;stroke-miterlimit:4;stroke-dasharray:none"
       d="m 332.69,584.91 c -9.34,18.39 -5.9,24.75 -4.43,27.23 1.48,2.47 7.01,-17.38 9.83,-13.79 3.35,4.25 0.49,16.62 1.48,25.81 0.98,9.19 4.95,19.84 5.9,16.26 1.96,-7.42 4.42,-32.88 9.33,-25.81 4.92,7.07 9.62,22.82 11.8,16.97 1.85,-4.97 -5.9,-25.81 -2.46,-30.05 3.44,-4.24 8.85,13.08 10.81,8.13 1.97,-4.95 3.94,-16.26 -2.95,-24.39 -6.88,-8.13 -39.31,-0.71 -39.31,-0.36 z"
       inkscape:connector-curvature="0" />
    <path
       id="path3174"
       style="fill:#ffffff;fill-opacity:1;fill-rule:evenodd;stroke:#000000;stroke-width:2;stroke-linejoin:round;stroke-miterlimit:4;stroke-dasharray:none"
       d="m 404.78,680.06 c 0,-16.37 -9.44,-26.44 -9.44,-26.44 0,0 3.77,13.85 3.14,26.44 z"
       inkscape:connector-curvature="0" />
    <path
       id="path3155"
       style="fill:#ffffff;stroke:#000000;stroke-width:2;stroke-linecap:round;stroke-linejoin:round;fill-opacity:1;stroke-miterlimit:4;stroke-dasharray:none"
       d="M 108.88,46.344 C 78.746,46.954 57.943,57.997 45.25,75.094 21.186,72.506 1.188,98.719 1.188,98.719 c -5e-4,0 18.891,9.451 32.062,1.531 -2.399,8.71 -3.562,18.11 -3.562,27.91 0,45.17 56.125,81.84 81.842,81.84 26.72,0 81.85,-36.67 81.85,-81.84 0,-9.8 -1.17,-19.2 -3.57,-27.91 13.17,7.92 32.03,-1.531 32.03,-1.531 0,0 -19.97,-26.205 -44.03,-23.625 -13.06,-17.595 -34.71,-28.75 -66.28,-28.75 -0.89,0 -1.78,-0.018 -2.65,0 z"
       transform="translate(239.74,384.07)"
       inkscape:connector-curvature="0" />
    <path
       id="path3157"
       style="fill:#ffffff;stroke:#000000;stroke-width:7.94438928;stroke-linecap:round;stroke-linejoin:round;stroke-miterlimit:4;stroke-dasharray:none"
       d="m 441.29,560.71 c 0.02,49.72 -40.29,90.04 -90.02,90.04 -49.72,0 -90.03,-40.32 -90.02,-90.04 -0.01,-49.73 40.3,-90.05 90.02,-90.05 49.73,0 90.04,40.32 90.02,90.05 z"
       transform="matrix(0.25175,0,0,0.25175,236.55,359.08)"
       inkscape:connector-curvature="0" />
    <path
       id="path3159"
       style="fill:#ffffff;stroke:#000000;stroke-width:7.94438928;stroke-linecap:round;stroke-linejoin:round;stroke-miterlimit:4;stroke-dasharray:none"
       d="m 441.29,560.71 c 0.02,49.72 -40.29,90.04 -90.02,90.04 -49.72,0 -90.03,-40.32 -90.02,-90.04 -0.01,-49.73 40.3,-90.05 90.02,-90.05 49.73,0 90.04,40.32 90.02,90.05 z"
       transform="matrix(0.25175,0,0,0.25175,289.28,359.08)"
       inkscape:connector-curvature="0" />
    <path
       id="path3161"
       style="fill:#000000;stroke-width:23.83335717;stroke-miterlimit:4;stroke-dasharray:none"
       d="m 441.29,560.71 c 0.02,49.72 -40.29,90.04 -90.02,90.04 -49.72,0 -90.03,-40.32 -90.02,-90.04 -0.01,-49.73 40.3,-90.05 90.02,-90.05 49.73,0 90.04,40.32 90.02,90.05 z"
       transform="matrix(0.083916,0,0,0.083916,343.2,457.18)"
       inkscape:connector-curvature="0" />
    <path
       id="path3163"
       style="fill:#000000;stroke-width:23.83335717;stroke-miterlimit:4;stroke-dasharray:none"
       d="m 441.29,560.71 c 0.02,49.72 -40.29,90.04 -90.02,90.04 -49.72,0 -90.03,-40.32 -90.02,-90.04 -0.01,-49.73 40.3,-90.05 90.02,-90.05 49.73,0 90.04,40.32 90.02,90.05 z"
       transform="matrix(0.083916,0,0,0.083916,301.17,457.18)"
       inkscape:connector-curvature="0" />
    <path
       id="path3179"
       style="fill:#ffffff;fill-rule:evenodd;stroke:#000000;stroke-width:2;fill-opacity:1;stroke-miterlimit:4;stroke-dasharray:none"
       d="m 357.25,429.21 c 16.21,-43.6 54.91,3.09 66.01,-5.11 11.5,-8.5 2,-32 6,-37.5 4,-5.5 22.61,33.06 15,47.5 -7.45,14.14 -39.02,12.93 -59.7,12.79 -11.67,-0.07 -29.78,-10.11 -27.31,-17.68 z"
       inkscape:connector-curvature="0" />
    <path
       id="path3329"
       style="fill:#ffffff;stroke:#000000;stroke-width:2;stroke-linecap:round;stroke-linejoin:round;fill-opacity:1;stroke-miterlimit:4;stroke-dasharray:none"
       d="m 344.46,671.28 c 0,9.09 -14.67,9.38 -32.74,9.38 -18.07,0 -32.73,0.69 -32.73,-9.38 0,-17.72 14.66,-32.1 32.73,-32.1 18.07,0 32.74,14.38 32.74,32.1 z"
       inkscape:connector-curvature="0" />
    <path
       id="path3331"
       style="fill:#ffffff;fill-opacity:1;fill-rule:evenodd;stroke:#000000;stroke-width:2;stroke-linejoin:round;stroke-miterlimit:4;stroke-dasharray:none"
       d="m 299.13,680.06 c 0,-16.37 9.44,-26.44 9.44,-26.44 0,0 -3.77,13.85 -3.14,26.44 z"
       inkscape:connector-curvature="0" />
    <path
       id="path2398"
       style="fill:#000000;stroke-width:2;stroke-miterlimit:4;stroke-dasharray:none"
       d="m 367.87,564.87 c -2.29,3.97 -6.5,5.84 -9.4,4.16 -2.89,-1.67 -3.38,-6.25 -1.09,-10.22 2.29,-3.97 6.5,-5.84 9.4,-4.16 2.89,1.67 3.38,6.24 1.09,10.22 z"
       inkscape:connector-curvature="0" />
    <path
       id="path2412"
       style="fill:#000000;stroke-width:2;stroke-miterlimit:4;stroke-dasharray:none"
       d="m 335.13,564.87 c 2.29,3.97 6.5,5.84 9.4,4.16 2.89,-1.67 3.38,-6.25 1.09,-10.22 -2.29,-3.97 -6.5,-5.84 -9.4,-4.16 -2.89,1.67 -3.38,6.24 -1.09,10.22 z"
       inkscape:connector-curvature="0" />
    <path
       id="path2399"
       style="fill:#ffffff;fill-rule:evenodd;stroke:#000000;stroke-width:2;fill-opacity:1;stroke-miterlimit:4;stroke-dasharray:none"
       d="m 344.84,429.21 c -16.21,-43.6 -54.91,3.09 -66.01,-5.11 -11.5,-8.5 -2,-32 -6,-37.5 -4,-5.5 -22.61,33.06 -15,47.5 7.45,14.14 39.02,12.93 59.69,12.79 11.68,-0.07 29.79,-10.11 27.32,-17.68 z"
       inkscape:connector-curvature="0" />
  </g>
  <metadata
     id="metadata21">
    <rdf:RDF>
      <cc:Work>
        <dc:format>image/svg+xml</dc:format>
        <dc:type
           rdf:resource="http://purl.org/dc/dcmitype/StillImage" />
        <cc:license
           rdf:resource="http://creativecommons.org/publicdomain/zero/1.0/" />
        <dc:publisher>
          <cc:Agent
             rdf:about="http://openclipart.org/">
            <dc:title>Openclipart</dc:title>
          </cc:Agent>
        </dc:publisher>
        <dc:title></dc:title>
        <dc:date>2008-07-07T09:31:00</dc:date>
        <dc:description />
        <dc:source>https://openclipart.org/detail/17624/cartoon-gnu-by-lemmling</dc:source>
        <dc:creator>
          <cc:Agent>
            <dc:title>lemmling</dc:title>
          </cc:Agent>
        </dc:creator>
        <dc:subject>
          <rdf:Bag>
            <rdf:li>animal</rdf:li>
            <rdf:li>cartoon</rdf:li>
            <rdf:li>colour</rdf:li>
            <rdf:li>funny</rdf:li>
            <rdf:li>gnu</rdf:li>
            <rdf:li>how i did it</rdf:li>
            <rdf:li>mammal</rdf:li>
            <rdf:li>wildebeest</rdf:li>
          </rdf:Bag>
        </dc:subject>
      </cc:Work>
      <cc:License
         rdf:about="http://creativecommons.org/publicdomain/zero/1.0/">
        <cc:permits
           rdf:resource="http://creativecommons.org/ns#Reproduction" />
        <cc:permits
           rdf:resource="http://creativecommons.org/ns#Distribution" />
        <cc:permits
           rdf:resource="http://creativecommons.org/ns#DerivativeWorks" />
      </cc:License>
    </rdf:RDF>
  </metadata>
</svg>
