<?xml version="1.0" encoding="UTF-8" standalone="no"?>
<!-- Created with Inkscape (http://www.inkscape.org/) -->

<svg
   xmlns:dc="http://purl.org/dc/elements/1.1/"
   xmlns:cc="http://creativecommons.org/ns#"
   xmlns:rdf="http://www.w3.org/1999/02/22-rdf-syntax-ns#"
   xmlns:svg="http://www.w3.org/2000/svg"
   xmlns="http://www.w3.org/2000/svg"
   xmlns:sodipodi="http://sodipodi.sourceforge.net/DTD/sodipodi-0.dtd"
   xmlns:inkscape="http://www.inkscape.org/namespaces/inkscape"
   id="svg2"
   sodipodi:docname="lemmling-Little-penguin-5.adapted.svg"
   viewBox="0 0 624.03854 675.78554"
   sodipodi:version="0.32"
   version="1.0"
   inkscape:output_extension="org.inkscape.output.svg.inkscape"
   inkscape:version="0.92.3 (2405546, 2018-03-11)"
   width="624.03851"
   height="675.78552">
  <defs
     id="defs22" />
  <sodipodi:namedview
     id="base"
     inkscape:zoom="1.7461161"
     borderopacity="1.0"
     inkscape:current-layer="g3249"
     inkscape:cx="312.01926"
     inkscape:window-y="-9"
     inkscape:object-paths="false"
     showgrid="false"
     inkscape:guide-bbox="true"
     showguides="true"
     bordercolor="#666666"
     inkscape:window-x="-9"
     guidetolerance="10"
     objecttolerance="10"
     inkscape:object-nodes="true"
     inkscape:window-width="2560"
     inkscape:pageopacity="0.0"
     inkscape:pageshadow="2"
     pagecolor="#ffffff"
     gridtolerance="10000"
     inkscape:cy="337.89276"
     inkscape:document-units="px"
     inkscape:window-height="1373"
     fit-margin-top="50"
     fit-margin-left="50"
     fit-margin-right="50"
     fit-margin-bottom="50"
     inkscape:window-maximized="1" />
  <g
     id="layer1"
     inkscape:label="Layer 1"
     inkscape:groupmode="layer"
     transform="translate(-29.74575,-154.73406)">
    <g
       id="g3249">
      <path
         id="path3176"
         sodipodi:nodetypes="csssssc"
         style="fill:#ffffff;stroke:#000000;stroke-width:8;stroke-linecap:round;stroke-linejoin:round;fill-opacity:1;stroke-miterlimit:4;stroke-dasharray:none"
         d="m 498.34498,737.83956 c 0,16.32 -25.2,34.68 -98.96,34.68 -33.16,0 -40.04,-21 -60.12,-20.96 -19.16,0.04 -22.56,20.92 -58.08,20.92 -73.08,0 -101.04,-18.4 -101.04,-34.64 0,-18.48 71.28,-33.44 159.12,-33.44 87.8,0 159.08,14.96 159.08,33.44 z"
         inkscape:connector-curvature="0" />
      <path
         id="path2387"
         style="fill:#000000;fill-rule:evenodd;stroke:#000000;stroke-width:4;stroke-miterlimit:4;stroke-dasharray:none"
         d="m 339.94498,212.75956 v 0.12 c -122.08,2.92 -110.76,119.04 -154.6,184.36 -45.48,67.68 -109.679997,135.8 -95.639997,216.64 15.879997,91.48 35.159997,-5.08 98.119997,55.36 38.72,37.16 39.36,68.24 149.12,68 3.2,0 6.12,0.08 9.52,0 109.84,0.24 110.4,-30.84 149.12,-68 62.96,-60.44 82.36,36.12 98.24,-55.36 14.04,-80.84 -50.16,-148.96 -95.6,-216.64 -43.88,-65.32 -32.64,-181.44 -154.76,-184.36 v -0.12 c -0.6,0 -1.16,-0.04 -1.76,0 -0.6,-0.04 -1.16,0 -1.76,0 z"
         inkscape:connector-curvature="0" />
      <path
         id="path3230"
         style="fill:#ffffff;stroke-width:4;fill-opacity:1;stroke-miterlimit:4;stroke-dasharray:none"
         d="m 196.82498,397.11956 c -1.44,2.44 -2.92,4.8 -4.48,7.12 -35.52,52.84 -82.44,105.92 -94.639997,165.12 66.679997,-21.88 112.759997,-68.56 112.759997,-122.6 0,-17.52 -4.84,-34.28 -13.64,-49.64 z"
         inkscape:connector-curvature="0" />
      <ellipse
         id="path3228"
         style="fill:#ffffff;stroke-width:4;fill-opacity:1;stroke-miterlimit:4;stroke-dasharray:none"
         cx="342.20499"
         cy="264.78912"
         rx="81.5"
         ry="44.22184" />
      <path
         id="path2392"
         style="fill:#ffffff;stroke-width:4;fill-opacity:1;stroke-miterlimit:4;stroke-dasharray:none"
         d="m 339.46498,434.79956 c -83.4,0 -151.04,76.08 -151.04,169.88 0,21 3.4,41.16 9.64,59.76 35.56,34.48 36.84,63.24 139.04,63 3,0 5.76,0.08 8.92,0 95.68,0.24 102.92,-24.92 132.6,-56.44 0.04,-0.04 0,-0.12 0,-0.12 7.68,-20.36 11.96,-42.76 11.96,-66.2 0,-93.8 -67.76,-169.88 -151.12,-169.88 z"
         inkscape:connector-curvature="0" />
      <path
         id="path3239"
         style="fill:#ffffff;stroke-width:4;stroke:#000000;stroke-opacity:1;fill-opacity:1;stroke-miterlimit:4;stroke-dasharray:none"
         d="m 296.74498,453.13556 c -48.492,16.94 -83.124,61.728 -83.124,114.248 0,67.056 56.484,121.496 126.124,121.496 69.64,0 126.124,-54.44 126.124,-121.496 0,-51.196 -32.92,-95.004 -79.5,-112.872 -6.4,21.096 -27.336,50.748 -44.624,50.748 -15.688,0 -38.932,-29.916 -45,-52.124 z"
         inkscape:connector-curvature="0" />
      <path
         id="path3167"
         style="fill:#ffffff;stroke:#000000;stroke-width:4;stroke-linecap:round;stroke-linejoin:round;stroke-miterlimit:4;stroke-dasharray:none"
         d="m 304.94498,276.87956 c -25.6,0 -46.4,26.2 -46.4,58.6 0,32.4 20.8,58.76 46.4,58.76 15.04,0 28.36,-9.12 36.84,-23.2 8.44,14.04 21.8,23.2 36.8,23.2 25.6,0 46.4,-26.36 46.4,-58.76 0,-32.4 -20.8,-58.6 -46.4,-58.6 -15,0 -28.36,9 -36.8,23.08 -8.48,-14.08 -21.8,-23.08 -36.84,-23.08 z"
         inkscape:connector-curvature="0" />
      <circle
         id="path3175"
         style="fill:#000000;stroke-width:4;stroke-miterlimit:4;stroke-dasharray:none"
         cx="319.97974"
         cy="340.86813"
         r="20.14469" />
      <path
         id="path3177"
         sodipodi:nodetypes="czssc"
         style="fill:#ffffff;stroke:#000000;stroke-width:4;stroke-linecap:round;stroke-linejoin:round;fill-opacity:1;stroke-miterlimit:4;stroke-dasharray:none"
         d="m 388.34498,400.91956 c 0,19.44 -25.88,61.84 -46.56,61.84 -18.16,0 -46.6,-40.04 -46.6,-61.84 0,-22 20.88,-31.32 46.6,-31.32 25.68,0 46.56,14.52 46.56,31.32 z"
         inkscape:connector-curvature="0" />
      <circle
         id="path3198"
         style="fill:#000000;stroke-width:4;stroke-miterlimit:4;stroke-dasharray:none"
         cx="362.25732"
         cy="340.86813"
         r="20.14469" />
      <ellipse
         id="path3202"
         style="fill:#ffffff;stroke-width:4.06994278;stroke:#000000;stroke-opacity:1;fill-opacity:1;stroke-miterlimit:4;stroke-dasharray:none"
         transform="matrix(1,0,0.25882241,0.96592493,0,0)"
         cx="214.83774"
         cy="426.77176"
         rx="12.727922"
         ry="23.425501" />
      <path
         id="path3235"
         style="fill:#ffffff;stroke-width:4;fill-opacity:1;stroke-miterlimit:4;stroke-dasharray:none"
         d="m 481.86498,397.11956 c 1.4,2.44 2.92,4.8 4.48,7.12 35.48,52.84 82.44,105.92 94.64,165.12 -66.68,-21.88 -112.76,-68.56 -112.76,-122.6 0,-17.52 4.84,-34.28 13.64,-49.64 z"
         inkscape:connector-curvature="0" />
    </g>
  </g>
  <metadata
     id="metadata19">
    <rdf:RDF>
      <cc:Work>
        <dc:format>image/svg+xml</dc:format>
        <dc:type
           rdf:resource="http://purl.org/dc/dcmitype/StillImage" />
        <cc:license
           rdf:resource="http://creativecommons.org/publicdomain/zero/1.0/" />
        <dc:publisher>
          <cc:Agent
             rdf:about="http://openclipart.org/">
            <dc:title>Openclipart</dc:title>
          </cc:Agent>
        </dc:publisher>
        <dc:title></dc:title>
        <dc:date>2009-09-25T06:59:58</dc:date>
        <dc:description />
        <dc:source>https://openclipart.org/detail/27563/little-penguin-by-lemmling</dc:source>
        <dc:creator>
          <cc:Agent>
            <dc:title>lemmling</dc:title>
          </cc:Agent>
        </dc:creator>
        <dc:subject>
          <rdf:Bag>
            <rdf:li>animal</rdf:li>
            <rdf:li>bird</rdf:li>
            <rdf:li>cartoon</rdf:li>
            <rdf:li>colour</rdf:li>
            <rdf:li>penguin</rdf:li>
            <rdf:li>tux</rdf:li>
          </rdf:Bag>
        </dc:subject>
      </cc:Work>
      <cc:License
         rdf:about="http://creativecommons.org/publicdomain/zero/1.0/">
        <cc:permits
           rdf:resource="http://creativecommons.org/ns#Reproduction" />
        <cc:permits
           rdf:resource="http://creativecommons.org/ns#Distribution" />
        <cc:permits
           rdf:resource="http://creativecommons.org/ns#DerivativeWorks" />
      </cc:License>
    </rdf:RDF>
  </metadata>
</svg>
