<?xml version="1.0" encoding="UTF-8" standalone="no"?>
<!-- Generator: Adobe Illustrator 13.0.2, SVG Export Plug-In . SVG Version: 6.00 Build 14948)  -->
<svg xmlns:inkscape="http://www.inkscape.org/namespaces/inkscape" xmlns:rdf="http://www.w3.org/1999/02/22-rdf-syntax-ns#" xmlns="http://www.w3.org/2000/svg" xmlns:cc="http://creativecommons.org/ns#" xmlns:dc="http://purl.org/dc/elements/1.1/" xmlns:sodipodi="http://sodipodi.sourceforge.net/DTD/sodipodi-0.dtd" xmlns:svg="http://www.w3.org/2000/svg" xmlns:ns1="http://sozi.baierouge.fr" xmlns:xlink="http://www.w3.org/1999/xlink" id="Layer_1" enable-background="new 0 0 246.996 333.724" sodipodi:docname="lemmling_Cartoon_polarbear.svg" xml:space="preserve" viewBox="0 0 246.996 333.724" version="1.0" y="0px" x="0px" inkscape:version="0.48.2 r9819"><sodipodi:namedview id="namedview304" bordercolor="#666666" inkscape:pageshadow="2" guidetolerance="10" pagecolor="#ffffff" gridtolerance="10" inkscape:window-maximized="0" inkscape:zoom="0.7071712" objecttolerance="10" borderopacity="1" inkscape:current-layer="Layer_1" inkscape:cx="123.498" inkscape:cy="166.862" inkscape:window-y="0" inkscape:window-x="0" inkscape:window-width="646" showgrid="false" inkscape:pageopacity="0" inkscape:window-height="480"/>
<g id="layer1" transform="translate(-241.96 -357.14)">
	<path id="path2385" stroke-linejoin="round" d="m486.96 561.96c0.023 67.102-54.354 121.52-121.46 121.54-67.102 0.023-121.52-54.354-121.54-121.46v-0.086c-0.024-67.102 54.354-121.52 121.46-121.54 67.102-0.023 121.52 54.354 121.54 121.46v0.09z" stroke="#010101" stroke-linecap="round" stroke-width="4" fill="#E6E6E6"/>
	<path id="path3302" d="m365.45 440.48c-24.505 0-47.314 7.255-66.406 19.75 8.651 30.482 36.665 52.844 69.906 52.844 31.773 0 58.799-20.421 68.688-48.844-20.19-14.94-45.16-23.75-72.19-23.75z" fill-opacity=".3137" fill="#010101"/>
	<path id="path3276" d="m365.46 440.47c-12.925 0-25.375 2.037-37.063 5.781 10.514-2.456 21.603-3.781 33.063-3.781 31.438 0 60.108 9.878 81.688 26.094-21.07-17.54-48.16-28.09-77.69-28.09zm115.06 82.37c1.595 6.488 2.438 13.188 2.438 20.063 0 55.443-54.433 100.44-121.5 100.44-56.084 0-103.31-31.459-117.28-74.188 3.724 63.725 56.628 114.31 121.28 114.31 67.067 0 121.5-54.434 121.5-121.5 0-13.67-2.26-26.84-6.44-39.12z" fill-opacity=".3137" fill="#010101"/>
	<g id="g240" stroke-linejoin="round" stroke="#010101" stroke-linecap="round" stroke-width="4" fill="#E6E6E6">
		<path id="path3165" d="m314.14 614.22c-30.406 0-55.063 24.688-55.063 55.094 0 6.286 1.058 12.309 3 17.938h104.16c1.942-5.629 3-11.651 3-17.938 0-30.4-24.69-55.09-55.1-55.09z"/>
		<g id="g243">
			<path id="path3220" d="m309.27 671.36c0 9.666-6.604 17.5-14.75 17.5s-14.75-7.834-14.75-17.5c0-9.664 6.604-17.5 14.75-17.5 8.15 0 14.75 7.84 14.75 17.5z"/>
			<path id="path3224" d="m346.27 671.36c0 9.666-6.604 17.5-14.75 17.5s-14.75-7.834-14.75-17.5c0-9.664 6.604-17.5 14.75-17.5 8.15 0 14.75 7.84 14.75 17.5z"/>
			<path id="path3222" d="m328.77 671.36c0 9.666-6.604 17.5-14.75 17.5s-14.75-7.834-14.75-17.5c0-9.664 6.604-17.5 14.75-17.5 8.15 0 14.75 7.84 14.75 17.5z"/>
		</g>
	</g>
	<g id="g248" stroke-linejoin="round" stroke="#010101" stroke-linecap="round" stroke-width="4" fill="#E6E6E6">
		<path id="path3163" d="m424.33 614.22c-30.405 0-55.094 24.688-55.094 55.094 0 6.286 1.058 12.309 3 17.938h104.16c1.942-5.629 3-11.651 3-17.938 0-30.4-24.66-55.09-55.07-55.09z"/>
		<g id="g251">
			<path id="path3226" d="m422.77 671.36c0 9.666-6.604 17.5-14.75 17.5s-14.75-7.834-14.75-17.5c0-9.664 6.604-17.5 14.75-17.5 8.15 0 14.75 7.84 14.75 17.5z"/>
			<path id="path3228" d="m459.77 671.36c0 9.666-6.604 17.5-14.75 17.5s-14.75-7.834-14.75-17.5c0-9.664 6.604-17.5 14.75-17.5 8.15 0 14.75 7.84 14.75 17.5z"/>
			<path id="path3230" d="m442.27 671.36c0 9.666-6.604 17.5-14.75 17.5s-14.75-7.834-14.75-17.5c0-9.664 6.604-17.5 14.75-17.5 8.15 0 14.75 7.84 14.75 17.5z"/>
		</g>
	</g>
	<g id="g256" fill-opacity=".3137" fill="#010101">
		<path id="path3242" d="m359.31 543.66c0 12.69-10.287 22.979-22.978 22.979s-22.978-10.288-22.978-22.979c0-12.689 10.287-22.977 22.978-22.977s22.98 10.29 22.98 22.98z"/>
		<path id="path3244" d="m423.37 544.01c0 12.69-10.287 22.978-22.977 22.978-12.691 0-22.979-10.287-22.979-22.978s10.287-22.978 22.979-22.978c12.69 0.01 22.98 10.29 22.98 22.98z"/>
	</g>
	<g id="g260">
		<path id="path3310" stroke-linejoin="round" d="m379.99 531.79c-9.676-16.757-27.332-24.671-31.643-22.182-4.698 2.712-6.259 21.722 3.415 38.479 7.497 12.984 17.689 21.896 25.526 23.15-3.896 5.563-4.027 14.088 0.271 21.531 1.652 2.861 3.751 5.23 6.12 7.039-0.908-6.978 1.611-13.561 7.09-16.723 5.477-3.162 12.438-2.052 18.025 2.223-0.381-2.957-1.355-5.973-3.008-8.836-4.298-7.443-11.766-11.581-18.539-10.984 2.83-7.41 0.24-20.71-7.26-33.7z" stroke="#010101" stroke-width="4" fill="#C49A6B"/>
		<path id="path3348" d="m364.81 515.26c3.069 3.456 6.102 7.586 8.813 12.281 9.212 15.954 11.454 31.931 5 35.656-6.453 3.726-19.163-6.202-28.375-22.156-1.807-3.13-3.336-6.242-4.594-9.281 1.053 5.264 2.996 10.893 6.125 16.313 7.496 12.983 17.695 21.901 25.531 23.156-3.896 5.563-4.047 14.088 0.25 21.531 1.652 2.862 3.756 5.223 6.125 7.031-0.908-6.978 1.617-13.556 7.094-16.719 5.478-3.162 12.444-2.056 18.031 2.219-0.381-2.957-1.378-5.95-3.031-8.813-4.297-7.443-11.758-11.597-18.531-11 2.832-7.415 0.246-20.704-7.25-33.688-4.15-7.19-9.78-12.72-15.18-16.53z" fill-opacity=".3137" fill="#010101"/>
		<path id="path3346" d="m362.45 522.72c0 1.933-1.566 3.5-3.5 3.5s-3.5-1.567-3.5-3.5 1.566-3.5 3.5-3.5 3.5 1.56 3.5 3.5z" fill="#010101"/>
	</g>
	<g id="g265" stroke-linejoin="round" stroke="#010101" stroke-linecap="round" stroke-width="4" fill="#E6E6E6">
		<g id="g267">
			<path id="path3159" d="m352.44 527.5c6.345 10.99 2.579 25.043-8.41 31.388-10.991 6.345-25.043 2.58-31.388-8.41-6.345-10.989-2.58-25.043 8.41-31.388 10.99-6.35 25.04-2.58 31.39 8.41z"/>
			<g id="g270">
				<path id="path3264" d="m339.77 544.49c4.305 2.486 6.023 7.566 3.84 11.35-2.184 3.781-7.443 4.834-11.748 2.348-4.305-2.484-6.024-7.566-3.84-11.348 2.18-3.79 7.44-4.84 11.75-2.35z"/>
				<path id="path3266" d="m349.69 527.31c4.305 2.484 6.024 7.565 3.841 11.348-2.184 3.783-7.444 4.834-11.748 2.349-4.305-2.485-6.024-7.565-3.84-11.349 2.18-3.79 7.44-4.84 11.75-2.35z"/>
				<path id="path3268" d="m348.98 538.33c4.305 2.485 6.024 7.565 3.841 11.349-2.185 3.782-7.444 4.834-11.749 2.348-4.305-2.484-6.024-7.565-3.84-11.348 2.18-3.78 7.44-4.83 11.75-2.35z"/>
			</g>
		</g>
		<g id="g275">
			<path id="path3161" d="m416.57 550.48c-6.345 10.989-20.397 14.755-31.388 8.41-10.99-6.346-14.756-20.398-8.41-31.389 6.345-10.99 20.397-14.755 31.387-8.41 10.99 6.34 14.76 20.4 8.41 31.39z"/>
			<g id="g278">
				<path id="path3270" d="m390.2 544.92c-4.305 2.485-6.023 7.566-3.84 11.349s7.443 4.834 11.748 2.349 6.023-7.566 3.84-11.349-7.45-4.83-11.75-2.35z"/>
				<path id="path3272" d="m380.28 527.75c-4.305 2.485-6.024 7.566-3.841 11.349s7.443 4.833 11.748 2.349c4.305-2.486 6.024-7.566 3.841-11.349s-7.45-4.84-11.75-2.35z"/>
				<path id="path3274" d="m380.99 538.77c-4.305 2.486-6.024 7.566-3.841 11.35 2.184 3.781 7.443 4.833 11.748 2.348s6.024-7.566 3.841-11.348c-2.19-3.79-7.45-4.84-11.75-2.35z"/>
			</g>
		</g>
	</g>
	<g id="g283">
		<path id="path2479" stroke-linejoin="round" d="m312.8 359.14c-11.055 0-20.031 8.976-20.031 20.031 0 7.155 3.758 13.426 9.406 16.969-5.971 10.554-9.406 22.735-9.406 35.719 0 40.134 32.553 72.719 72.688 72.719s72.719-32.584 72.719-72.719c0-12.984-3.436-25.165-9.406-35.719 5.636-3.545 9.406-9.824 9.406-16.969 0-11.056-8.977-20.031-20.031-20.031-7.145 0-13.393 3.771-16.938 9.406-10.56-5.979-22.757-9.406-35.75-9.406-12.99 0-25.161 3.43-35.719 9.406-3.55-5.64-9.8-9.41-16.94-9.41z" stroke="#010101" stroke-linecap="round" stroke-width="4" fill="#E6E6E6"/>
		<g id="g286">
			<path id="path3192" d="m349.51 461.23c5.216-5.563 27.111-5.588 31.987 0.695 4.63 5.966-6.954 22.947-15.993 22.251-9.02-0.69-20.88-17.74-16-22.94z" fill="#010101"/>
			<g id="g289">
				<g id="g291">
						<path id="path3179" stroke-linejoin="round" d="m408.9 417.49c0 11.3-9.16 20.459-20.459 20.459s-20.459-9.16-20.459-20.459c0-11.299 9.16-20.459 20.459-20.459s20.46 9.16 20.46 20.46z" stroke="#010101" stroke-linecap="round" stroke-width="1.8461" fill="#FFFFFF"/>
					<path id="path3183" d="m390.09 421.42c0 3.65-2.959 6.61-6.609 6.61s-6.61-2.959-6.61-6.61c0-3.651 2.96-6.61 6.61-6.61s6.61 2.96 6.61 6.61z" fill="#010101"/>
				</g>
				<g id="g295">
						<path id="path3177" stroke-linejoin="round" d="m363.57 417.49c0 11.3-9.16 20.459-20.459 20.459-11.3 0-20.459-9.16-20.459-20.459s9.16-20.459 20.459-20.459c11.3 0 20.46 9.16 20.46 20.46z" stroke="#010101" stroke-linecap="round" stroke-width="1.8461" fill="#FFFFFF"/>
					<path id="path2515" d="m355.68 421.42c0 3.65-2.959 6.61-6.609 6.61s-6.61-2.959-6.61-6.61c0-3.651 2.96-6.61 6.61-6.61s6.61 2.96 6.61 6.61z" fill="#010101"/>
				</g>
			</g>
		</g>
		<path id="path2525" d="m433.05 405.08c0.742 4.151 1.125 8.417 1.125 12.781 0 40.134-32.584 72.719-72.719 72.719-30.638 0-56.839-19.003-67.531-45.844 6.082 34 35.792 59.844 71.531 59.844 40.135 0 72.719-32.584 72.719-72.719-0.01-9.47-1.83-18.49-5.13-26.78z" fill-opacity=".3137" fill="#010101"/>
		<g id="g300" stroke-linejoin="round" stroke="#010101" stroke-linecap="round" stroke-width="4" fill="#666666">
			<path id="path2483" d="m418.38 367.64c-4.018 0-7.525 2.116-9.526 5.279 6.144 4.138 11.433 9.422 15.567 15.568 3.153-2.003 5.255-5.542 5.255-9.552 0-6.24-5.07-11.3-11.3-11.3z"/>
			<path id="path2523" d="m312.75 367.64c4.018 0 7.526 2.116 9.527 5.279-6.144 4.138-11.433 9.422-15.567 15.568-3.153-2.003-5.255-5.542-5.255-9.552-0.01-6.24 5.05-11.3 11.29-11.3z"/>
		</g>
	</g>
</g>
<metadata><rdf:RDF><cc:Work><dc:format>image/svg+xml</dc:format><dc:type rdf:resource="http://purl.org/dc/dcmitype/StillImage"/><cc:license rdf:resource="http://creativecommons.org/licenses/publicdomain/"/><dc:publisher><cc:Agent rdf:about="http://openclipart.org/"><dc:title>Openclipart</dc:title></cc:Agent></dc:publisher><dc:title>Cartoon Polar Bear</dc:title><dc:date>2012-05-10T11:34:44</dc:date><dc:description>Cartoon Polar Bear in the style of lemmling.</dc:description><dc:source>https://openclipart.org/detail/169961/cartoon-polar-bear-by-studiofibonacci</dc:source><dc:creator><cc:Agent><dc:title>StudioFibonacci</dc:title></cc:Agent></dc:creator><dc:subject><rdf:Bag><rdf:li>arctic</rdf:li><rdf:li>bear</rdf:li><rdf:li>fish</rdf:li><rdf:li>mammal</rdf:li><rdf:li>polar</rdf:li></rdf:Bag></dc:subject></cc:Work><cc:License rdf:about="http://creativecommons.org/licenses/publicdomain/"><cc:permits rdf:resource="http://creativecommons.org/ns#Reproduction"/><cc:permits rdf:resource="http://creativecommons.org/ns#Distribution"/><cc:permits rdf:resource="http://creativecommons.org/ns#DerivativeWorks"/></cc:License></rdf:RDF></metadata></svg>