<?xml version="1.0" encoding="UTF-8" standalone="no"?>
<!-- Created with Inkscape (http://www.inkscape.org/) -->

<svg
   xmlns:dc="http://purl.org/dc/elements/1.1/"
   xmlns:cc="http://creativecommons.org/ns#"
   xmlns:rdf="http://www.w3.org/1999/02/22-rdf-syntax-ns#"
   xmlns:svg="http://www.w3.org/2000/svg"
   xmlns="http://www.w3.org/2000/svg"
   xmlns:sodipodi="http://sodipodi.sourceforge.net/DTD/sodipodi-0.dtd"
   xmlns:inkscape="http://www.inkscape.org/namespaces/inkscape"
   id="svg2"
   viewBox="0 0 522.93602 661.97062"
   version="1.0"
   inkscape:version="0.92.3 (2405546, 2018-03-11)"
   sodipodi:docname="lemmling-Cartoon-squirrel.adapted.svg"
   width="522.93604"
   height="661.97064">
  <defs
     id="defs47" />
  <sodipodi:namedview
     pagecolor="#ffffff"
     bordercolor="#666666"
     borderopacity="1"
     objecttolerance="10"
     gridtolerance="10"
     guidetolerance="10"
     inkscape:pageopacity="0"
     inkscape:pageshadow="2"
     inkscape:window-width="2560"
     inkscape:window-height="1373"
     id="namedview45"
     showgrid="false"
     fit-margin-top="50"
     fit-margin-left="50"
     fit-margin-right="50"
     fit-margin-bottom="50"
     inkscape:zoom="1.7825564"
     inkscape:cx="261.46802"
     inkscape:cy="330.98532"
     inkscape:window-x="-9"
     inkscape:window-y="-9"
     inkscape:window-maximized="1"
     inkscape:current-layer="layer1" />
  <g
     id="layer1"
     transform="translate(-91.243506,-169.8)">
    <path
       id="path3584"
       style="fill:#ffffff;stroke:#000000;stroke-width:4;stroke-linecap:round;stroke-linejoin:round;fill-opacity:1;stroke-miterlimit:4;stroke-dasharray:none"
       d="m 562.13,467.85 c -1.39,78.87 -54.33,113.15 -55.2,79.85 -1.08,-42.12 -19.22,-151.36 -90.42,-117.86 -85.15,40.06 -8.39,284.07 -33.04,284.07 -98.62,0 -178.66,-110.23 -178.66,-246.06 0,-135.82 80.04,-246.05 178.66,-246.05 98.62,0 181.02,111.96 178.66,246.05 z"
       inkscape:connector-curvature="0" />
    <path
       id="path2385"
       style="fill:#ffffff;stroke:#000000;stroke-width:2.97752002;stroke-linecap:round;stroke-linejoin:round;fill-opacity:1;stroke-miterlimit:4;stroke-dasharray:none"
       d="m 513.69,561.96 a 121.5,121.5 0 1 1 -243,0 121.5,121.5 0 1 1 243,0 z"
       transform="matrix(1.3428,0,0,1.344,-220.24,-146.06)"
       inkscape:connector-curvature="0" />
    <path
       id="path3573"
       style="fill:#ffffff;fill-rule:evenodd;stroke:#000000;stroke-width:4;stroke-linejoin:round;fill-opacity:1;stroke-miterlimit:4;stroke-dasharray:none"
       d="m 418.19,309.92 c -19.81,0 -60.05,10.54 -67.09,37.87 -0.11,0.21 -0.32,0.97 -0.55,2.14 -12.74,-7.79 -27.72,-12.32 -43.73,-12.32 -16.72,0 -32.26,4.94 -45.35,13.36 -0.27,-1.71 -0.6,-2.91 -0.73,-3.18 -7.04,-27.33 -47.28,-37.84 -67.1,-37.85 -3.15,0 -5.76,0.27 -7.67,0.77 -10.63,1.48 -22.27,5.73 -21.42,8.05 7.8,-1.33 11.74,0.19 11.62,1.45 -0.24,2.36 -4.94,2.99 -3.43,11.5 2.85,-4.13 6.82,-5.55 9.94,-6.21 3.2,20.09 17.2,55.16 43.4,56.98 2.25,0.16 4.35,0.15 6.33,0.11 -6.18,11.72 -9.69,25.07 -9.69,39.24 0,46.47 37.67,100.32 84.1,100.32 46.42,0 84.14,-53.85 84.14,-100.32 0,-14.16 -3.52,-27.48 -9.7,-39.19 1.43,-0.01 2.94,-0.05 4.5,-0.16 26.11,-1.81 40.11,-36.68 43.37,-56.79 2.98,0.73 6.54,2.23 9.15,6.02 1.51,-8.51 -3.19,-9.14 -3.43,-11.5 -0.12,-1.26 3.82,-2.78 11.62,-1.45 0.81,-2.2 -9.58,-6.13 -19.72,-7.8 -1.93,-0.68 -4.89,-1.04 -8.56,-1.04 z"
       inkscape:connector-curvature="0" />
    <path
       id="path2383"
       style="fill:#ffffff;stroke:#000000;stroke-width:4;stroke-linecap:round;stroke-linejoin:round;fill-opacity:1;stroke-miterlimit:4;stroke-dasharray:none"
       d="m 333.89,549.29 c -13.94,-13.95 -38.75,-14.66 -53.51,-1.55 -10.39,9.11 -14.53,23.1 -15.89,36.35 -0.96,9.55 -0.39,19.8 4.51,28.31 4.92,6.32 13.49,7.65 21.01,8.03 14.99,0.67 30.83,-2.95 42.81,-12.44 14.44,-12.39 17.81,-35.46 7.21,-51.27 -1.73,-2.7 -3.82,-5.19 -6.14,-7.43 z"
       inkscape:connector-curvature="0" />
    <path
       id="path3239"
       style="fill:#ffffff;fill-rule:evenodd;stroke:#000000;stroke-width:4;fill-opacity:1;stroke-miterlimit:4;stroke-dasharray:none"
       d="m 334.26,545.78 c 2.75,-8.54 16.62,-16.43 20.73,-13.46 4.11,2.98 4.43,10.06 3.7,11.11 -0.72,1.04 -8.14,-2.17 -12.82,1.7 -4.67,3.86 -7.02,7.16 -7.02,7.16 z"
       inkscape:connector-curvature="0" />
    <path
       id="path3201"
       style="fill:#ffffff;stroke:#000000;stroke-width:4;stroke-linecap:round;stroke-linejoin:round;fill-opacity:1;stroke-miterlimit:4;stroke-dasharray:none"
       d="m 337.46,545.83 c -13.69,-13.56 -36.38,-17.06 -52.34,-6.89 -3.61,1.99 -2.52,6.98 -2.48,6.9 6.03,-4.77 12.28,0.48 20.49,6.37 10.05,7.21 21.1,18.27 29.21,29.02 5.68,7.52 9.74,14.91 6.49,20.08 0.17,0.05 4.89,1.38 7.05,-3.02 10.88,-20.51 4.73,-40.21 -8.42,-52.46 z"
       inkscape:connector-curvature="0" />
    <path
       id="path3159"
       style="fill:#ffffff;fill-opacity:1;stroke:#000000;stroke-width:4;stroke-linecap:round;stroke-linejoin:round;stroke-miterlimit:4;stroke-dasharray:none"
       d="m 278.16586,565.8321 a 30.883758,30.85647 59.871655 1 1 -53.4449,30.8566 30.883758,30.85647 59.871655 1 1 53.4449,-30.8566 z"
       inkscape:connector-curvature="0" />
    <path
       id="path3161"
       style="fill:#ffffff;fill-opacity:1;stroke:#000000;stroke-width:4;stroke-linecap:round;stroke-linejoin:round;stroke-miterlimit:4;stroke-dasharray:none"
       d="m 393.12757,605.07838 a 30.856478,30.883561 45 1 1 -43.63765,-43.63765 30.856478,30.883561 45 1 1 43.63765,43.63765 z"
       inkscape:connector-curvature="0" />
    <path
       id="path3163"
       style="fill:#ffffff;stroke:#000000;stroke-width:4;stroke-linecap:round;stroke-linejoin:round;fill-opacity:1;stroke-miterlimit:4;stroke-dasharray:none"
       d="m 385.46,679.47 c -40.83,0 -73.98,33.18 -73.98,74.04 0,8.45 1.42,16.55 4.03,24.11 h 139.86 c 2.61,-7.56 4.03,-15.66 4.03,-24.11 0,-40.86 -33.11,-74.04 -73.94,-74.04 z"
       inkscape:connector-curvature="0" />
    <path
       id="path3165"
       style="fill:#ffffff;stroke:#000000;stroke-width:4;stroke-linecap:round;stroke-linejoin:round;fill-opacity:1;stroke-miterlimit:4;stroke-dasharray:none"
       d="m 237.5,679.47 c -40.83,0 -73.94,33.18 -73.94,74.04 0,8.45 1.42,16.55 4.03,24.11 h 139.86 c 2.61,-7.56 4.03,-15.66 4.03,-24.11 0,-40.86 -33.15,-74.04 -73.98,-74.04 z"
       inkscape:connector-curvature="0" />
    <path
       id="path3177"
       style="fill:#ffffff;stroke:#000000;stroke-width:1.3741928;stroke-linecap:round;stroke-linejoin:round;stroke-miterlimit:4;stroke-dasharray:none"
       d="m 371.42,413.4 a 9.445,9.445 0 1 1 -18.89,0 9.445,9.445 0 1 1 18.89,0 z"
       transform="matrix(2.9095,0,0,2.9121,-776.76,-788.78)"
       inkscape:connector-curvature="0" />
    <path
       id="path3179"
       style="fill:#ffffff;stroke:#000000;stroke-width:1.3741928;stroke-linecap:round;stroke-linejoin:round;stroke-miterlimit:4;stroke-dasharray:none"
       d="m 371.42,413.4 a 9.445,9.445 0 1 1 -18.89,0 9.445,9.445 0 1 1 18.89,0 z"
       transform="matrix(2.9095,0,0,2.9121,-715.9,-788.78)"
       inkscape:connector-curvature="0" />
    <path
       id="path3181"
       style="fill:#000000;stroke-width:2.97752002;stroke-miterlimit:4;stroke-dasharray:none"
       d="m 377.08,426.93 a 6.61,6.61 0 1 1 -13.22,0 6.61,6.61 0 1 1 13.22,0 z"
       transform="matrix(1.3428,0,0,1.344,-210.97,-155.37)"
       inkscape:connector-curvature="0" />
    <path
       id="path3183"
       style="fill:#000000;stroke-width:2.97752002;stroke-miterlimit:4;stroke-dasharray:none"
       d="m 377.08,426.93 a 6.61,6.61 0 1 1 -13.22,0 6.61,6.61 0 1 1 13.22,0 z"
       transform="matrix(1.3428,0,0,1.344,-170.37,-155.37)"
       inkscape:connector-curvature="0" />
    <path
       id="path3192"
       style="fill:#000000;fill-rule:evenodd;stroke-width:4;stroke-miterlimit:4;stroke-dasharray:none"
       d="m 292.63,467.85 c 4.48,-4.79 23.51,-5.83 27.49,0.59 3.98,6.43 -5.97,19.75 -13.75,19.15 -7.74,-0.6 -17.94,-15.27 -13.74,-19.74 z"
       inkscape:connector-curvature="0" />
    <path
       id="path3216"
       style="fill:#ffffff;fill-rule:evenodd;stroke:#000000;stroke-width:4;stroke-linejoin:round;fill-opacity:1;stroke-miterlimit:4;stroke-dasharray:none"
       d="m 242.58,370.21 c -2.95,-42.72 -46.91,-52.45 -49.03,-47.38 -2.11,5.08 8.03,62.19 49.03,47.38 z"
       inkscape:connector-curvature="0" />
    <path
       id="path3218"
       style="fill:#ffffff;fill-rule:evenodd;stroke:#000000;stroke-width:4;stroke-linejoin:round;fill-opacity:1;stroke-miterlimit:4;stroke-dasharray:none"
       d="m 367.86,370.21 c 2.95,-42.72 46.91,-52.45 49.03,-47.38 2.11,5.08 -8.04,62.19 -49.03,47.38 z"
       inkscape:connector-curvature="0" />
    <path
       id="path3220"
       style="fill:#ffffff;stroke:#000000;stroke-width:3.2432133;stroke-linecap:round;stroke-linejoin:round;fill-opacity:1;stroke-miterlimit:4;stroke-dasharray:none"
       d="m 354,671.86 a 17.5,17.5 0 1 1 -35,0 17.5,17.5 0 1 1 35,0 z"
       transform="matrix(1.1318,0,0,1.344,-169.71,-146.73)"
       inkscape:connector-curvature="0" />
    <path
       id="path3224"
       style="fill:#ffffff;stroke:#000000;stroke-width:3.2432133;stroke-linecap:round;stroke-linejoin:round;fill-opacity:1;stroke-miterlimit:4;stroke-dasharray:none"
       d="m 354,671.86 a 17.5,17.5 0 1 1 -35,0 17.5,17.5 0 1 1 35,0 z"
       transform="matrix(1.1318,0,0,1.344,-120.03,-146.73)"
       inkscape:connector-curvature="0" />
    <path
       id="path3222"
       style="fill:#ffffff;stroke:#000000;stroke-width:3.2432133;stroke-linecap:round;stroke-linejoin:round;fill-opacity:1;stroke-miterlimit:4;stroke-dasharray:none"
       d="m 354,671.86 a 17.5,17.5 0 1 1 -35,0 17.5,17.5 0 1 1 35,0 z"
       transform="matrix(1.1318,0,0,1.344,-143.53,-146.73)"
       inkscape:connector-curvature="0" />
    <path
       id="path3226"
       style="fill:#ffffff;stroke:#000000;stroke-width:3.2432133;stroke-linecap:round;stroke-linejoin:round;fill-opacity:1;stroke-miterlimit:4;stroke-dasharray:none"
       d="m 354,671.86 a 17.5,17.5 0 1 1 -35,0 17.5,17.5 0 1 1 35,0 z"
       transform="matrix(1.1318,0,0,1.344,-17.301,-146.73)"
       inkscape:connector-curvature="0" />
    <path
       id="path3228"
       style="fill:#ffffff;stroke:#000000;stroke-width:3.2432133;stroke-linecap:round;stroke-linejoin:round;fill-opacity:1;stroke-miterlimit:4;stroke-dasharray:none"
       d="m 354,671.86 a 17.5,17.5 0 1 1 -35,0 17.5,17.5 0 1 1 35,0 z"
       transform="matrix(1.1318,0,0,1.344,32.384,-146.73)"
       inkscape:connector-curvature="0" />
    <path
       id="path3230"
       style="fill:#ffffff;stroke:#000000;stroke-width:3.2432133;stroke-linecap:round;stroke-linejoin:round;fill-opacity:1;stroke-miterlimit:4;stroke-dasharray:none"
       d="m 354,671.86 a 17.5,17.5 0 1 1 -35,0 17.5,17.5 0 1 1 35,0 z"
       transform="matrix(1.1318,0,0,1.344,8.884,-146.73)"
       inkscape:connector-curvature="0" />
    <path
       id="path3264"
       style="fill:#ffffff;stroke:#000000;stroke-width:6.17632719;stroke-linecap:round;stroke-linejoin:round;fill-opacity:1;stroke-miterlimit:4;stroke-dasharray:none"
       d="m 354,671.86 a 17.5,17.5 0 1 1 -35,0 17.5,17.5 0 1 1 35,0 z"
       transform="matrix(0.30327,-0.52574,0.59834,0.34576,-246.2,542.47)"
       inkscape:connector-curvature="0" />
    <path
       id="path3266"
       style="fill:#ffffff;stroke:#000000;stroke-width:6.17632719;stroke-linecap:round;stroke-linejoin:round;fill-opacity:1;stroke-miterlimit:4;stroke-dasharray:none"
       d="m 354,671.86 a 17.5,17.5 0 1 1 -35,0 17.5,17.5 0 1 1 35,0 z"
       transform="matrix(0.30327,-0.52574,0.59834,0.34576,-232.89,519.39)"
       inkscape:connector-curvature="0" />
    <path
       id="path3268"
       style="fill:#ffffff;stroke:#000000;stroke-width:6.17632719;stroke-linecap:round;stroke-linejoin:round;fill-opacity:1;stroke-miterlimit:4;stroke-dasharray:none"
       d="m 354,671.86 a 17.5,17.5 0 1 1 -35,0 17.5,17.5 0 1 1 35,0 z"
       transform="matrix(0.30327,-0.52574,0.59834,0.34576,-233.83,534.2)"
       inkscape:connector-curvature="0" />
    <path
       id="path3270"
       style="fill:#ffffff;fill-opacity:1;stroke:#000000;stroke-width:4;stroke-linecap:round;stroke-linejoin:round;stroke-miterlimit:4;stroke-dasharray:none"
       d="m 358.83532,588.72628 a 10.621436,12.093514 74.826868 1 0 5.4901,20.5212 10.621436,12.093514 74.826868 1 0 -5.4901,-20.5212 z"
       inkscape:connector-curvature="0" />
    <path
       id="path3272"
       style="fill:#ffffff;fill-opacity:1;stroke:#000000;stroke-width:4;stroke-linecap:round;stroke-linejoin:round;stroke-miterlimit:4;stroke-dasharray:none"
       d="m 351.95532,562.98628 a 10.621436,12.093514 74.826868 1 0 5.4901,20.5212 10.621436,12.093514 74.826868 1 0 -5.4901,-20.5212 z"
       inkscape:connector-curvature="0" />
    <path
       id="path3274"
       style="fill:#ffffff;fill-opacity:1;stroke:#000000;stroke-width:4;stroke-linecap:round;stroke-linejoin:round;stroke-miterlimit:4;stroke-dasharray:none"
       d="m 349.03532,577.53628 a 10.621436,12.093514 74.826868 1 0 5.4901,20.5212 10.621436,12.093514 74.826868 1 0 -5.4901,-20.5212 z"
       inkscape:connector-curvature="0" />
  </g>
  <metadata
     id="metadata42">
    <rdf:RDF>
      <cc:Work>
        <dc:format>image/svg+xml</dc:format>
        <dc:type
           rdf:resource="http://purl.org/dc/dcmitype/StillImage" />
        <cc:license
           rdf:resource="http://creativecommons.org/publicdomain/zero/1.0/" />
        <dc:publisher>
          <cc:Agent
             rdf:about="http://openclipart.org/">
            <dc:title>Openclipart</dc:title>
          </cc:Agent>
        </dc:publisher>
        <dc:title></dc:title>
        <dc:date>2008-07-06T13:44:34</dc:date>
        <dc:description />
        <dc:source>https://openclipart.org/detail/17595/cartoon-squirrel-by-lemmling</dc:source>
        <dc:creator>
          <cc:Agent>
            <dc:title>lemmling</dc:title>
          </cc:Agent>
        </dc:creator>
        <dc:subject>
          <rdf:Bag>
            <rdf:li>animal</rdf:li>
            <rdf:li>cartoon</rdf:li>
            <rdf:li>colour</rdf:li>
            <rdf:li>funny</rdf:li>
            <rdf:li>how i did it</rdf:li>
            <rdf:li>mammal</rdf:li>
            <rdf:li>squirrel</rdf:li>
          </rdf:Bag>
        </dc:subject>
      </cc:Work>
      <cc:License
         rdf:about="http://creativecommons.org/publicdomain/zero/1.0/">
        <cc:permits
           rdf:resource="http://creativecommons.org/ns#Reproduction" />
        <cc:permits
           rdf:resource="http://creativecommons.org/ns#Distribution" />
        <cc:permits
           rdf:resource="http://creativecommons.org/ns#DerivativeWorks" />
      </cc:License>
    </rdf:RDF>
  </metadata>
</svg>
