<?xml version="1.0" encoding="UTF-8" standalone="no"?>
<!-- Created with Inkscape (http://www.inkscape.org/) -->
<svg xmlns:rdf="http://www.w3.org/1999/02/22-rdf-syntax-ns#" xmlns="http://www.w3.org/2000/svg" xmlns:cc="http://web.resource.org/cc/" xmlns:dc="http://purl.org/dc/elements/1.1/" xmlns:svg="http://www.w3.org/2000/svg" xmlns:inkscape="http://www.inkscape.org/namespaces/inkscape" xmlns:sodipodi="http://sodipodi.sourceforge.net/DTD/sodipodi-0.dtd" xmlns:ns1="http://sozi.baierouge.fr" xmlns:xlink="http://www.w3.org/1999/xlink" id="svg2" viewBox="0 0 300.73 363.38" version="1.0" inkscape:version="0.91 r13725">
  <g id="layer1" transform="translate(-188.23 -327.31)">
    <path id="path3223" style="stroke-linejoin:round;fill-rule:evenodd;stroke:#000000;stroke-width:4;fill:#502d16" d="m305.14 553.93s-212.64-169.77-59.4-218.49c153.44-48.79 93.34 210.01 93.34 210.01l-33.94 8.48z"/>
    <path id="path2385" style="stroke-linejoin:round;stroke:#000000;stroke-linecap:round;stroke-width:4;fill:#784421" d="m513.69 561.96a121.5 121.5 0 1 1 -243 0 121.5 121.5 0 1 1 243 0z" transform="translate(-26.731)"/>
    <path id="path3302" style="fill:#000000;fill-opacity:.31373" d="m177.22 113.16c-24.51 0-47.32 7.25-66.41 19.75 8.54 30.08 35.95 52.24 68.63 52.81 1.08 1.85 2.11 3.32 2.75 3.78 2.01 1.45 12.86 2.01 14.87 0.34 0.99-0.81 2.79-3.71 4.25-7.03 22.48-6.64 40.43-23.88 48.1-45.9-20.19-14.94-45.17-23.75-72.19-23.75z" transform="translate(188.23 327.31)"/>
    <path id="path3242" style="fill:#000000;fill-opacity:.31373" d="m440.04 422.84a49.103 49.103 0 1 1 -98.21 0 49.103 49.103 0 1 1 98.21 0z" transform="matrix(.46795 -6.2367e-8 6.2367e-8 .46795 153.19 346.49)"/>
    <path id="path3276" style="fill:#000000;fill-opacity:.31373" d="m365.46 440.47c-12.93 0-25.38 2.04-37.07 5.78 10.52-2.46 21.61-3.78 33.07-3.78 31.43 0 60.1 9.88 81.68 26.09-21.06-17.54-48.15-28.09-77.68-28.09zm115.06 82.37c1.59 6.49 2.44 13.19 2.44 20.07 0 55.44-54.44 100.43-121.5 100.43-56.09 0-103.31-31.46-117.28-74.18 3.72 63.72 56.62 114.31 121.28 114.31 67.06 0 121.5-54.43 121.5-121.5 0-13.68-2.26-26.85-6.44-39.13z"/>
    <path id="path2479" style="stroke-linejoin:round;stroke:#000000;stroke-linecap:round;stroke-width:4;fill:#784421" d="m97.562 21.875c-11.055 0-20.031 8.976-20.031 20.031 0 7.155 3.758 13.426 9.407 16.969-5.972 10.554-9.407 22.735-9.407 35.719 0 40.136 32.549 72.716 72.689 72.716 40.13 0 72.72-32.58 72.72-72.716 0-12.984-3.44-25.165-9.41-35.719 5.64-3.545 9.41-9.824 9.41-16.969 0-11.055-8.98-20.031-20.03-20.031-7.15 0-13.4 3.771-16.94 9.406-10.56-5.979-22.76-9.406-35.75-9.406s-25.16 3.43-35.72 9.406c-3.55-5.635-9.79-9.406-16.938-9.406z" transform="translate(215.23 337.26)"/>
    <path id="path3163" style="stroke-linejoin:round;stroke:#000000;stroke-linecap:round;stroke-width:4;fill:#784421" d="m424.33 614.22c-30.4 0-55.09 24.69-55.09 55.09 0 6.29 1.06 12.31 3 17.94h104.15c1.95-5.63 3-11.65 3-17.94 0-30.4-24.65-55.09-55.06-55.09z"/>
    <path id="path3165" style="stroke-linejoin:round;stroke:#000000;stroke-linecap:round;stroke-width:4;fill:#784421" d="m314.14 614.22c-30.4 0-55.06 24.69-55.06 55.09 0 6.29 1.06 12.31 3 17.94h104.16c1.94-5.63 3-11.65 3-17.94 0-30.4-24.69-55.09-55.1-55.09z"/>
    <path id="path3177" style="stroke-linejoin:round;stroke:#000000;stroke-linecap:round;stroke-width:1.8462;fill:#ffffff" d="m371.42 413.4a9.4428 9.4428 0 1 1 -18.89 0 9.4428 9.4428 0 1 1 18.89 0z" transform="matrix(2.1667 0 0 2.1667 -441.17 -478.21)"/>
    <path id="path3179" style="stroke-linejoin:round;stroke:#000000;stroke-linecap:round;stroke-width:1.8462;fill:#ffffff" d="m371.42 413.4a9.4428 9.4428 0 1 1 -18.89 0 9.4428 9.4428 0 1 1 18.89 0z" transform="matrix(2.1667 0 0 2.1667 -395.84 -478.21)"/>
    <path id="path3183" style="fill:#000000" d="m377.08 426.93a6.61 6.61 0 1 1 -13.22 0 6.61 6.61 0 1 1 13.22 0z" transform="translate(13.006 -5.5105)"/>
    <path id="path3192" style="fill-rule:evenodd;fill:#000000" d="m347.04 459.51c4.14-6.99 29.55-7.32 34.87-0.48 5.04 6.51-7.58 25.02-17.44 24.26-9.82-0.75-21.66-16.65-17.43-23.78z"/>
    <path id="path3220" style="stroke-linejoin:round;stroke:#000000;stroke-linecap:round;stroke-width:4;fill:#502d16" d="m354 671.86a17.5 17.5 0 1 1 -35 0 17.5 17.5 0 1 1 35 0z" transform="matrix(.84286 0 0 1 10.898 -.5)"/>
    <path id="path3224" style="stroke-linejoin:round;stroke:#000000;stroke-linecap:round;stroke-width:4;fill:#502d16" d="m354 671.86a17.5 17.5 0 1 1 -35 0 17.5 17.5 0 1 1 35 0z" transform="matrix(.84286 0 0 1 47.898 -.5)"/>
    <path id="path3222" style="stroke-linejoin:round;stroke:#000000;stroke-linecap:round;stroke-width:4;fill:#502d16" d="m354 671.86a17.5 17.5 0 1 1 -35 0 17.5 17.5 0 1 1 35 0z" transform="matrix(.84286 0 0 1 30.398 -.5)"/>
    <path id="path3226" style="stroke-linejoin:round;stroke:#000000;stroke-linecap:round;stroke-width:4;fill:#502d16" d="m354 671.86a17.5 17.5 0 1 1 -35 0 17.5 17.5 0 1 1 35 0z" transform="matrix(.84286 0 0 1 124.4 -.5)"/>
    <path id="path3228" style="stroke-linejoin:round;stroke:#000000;stroke-linecap:round;stroke-width:4;fill:#502d16" d="m354 671.86a17.5 17.5 0 1 1 -35 0 17.5 17.5 0 1 1 35 0z" transform="matrix(.84286 0 0 1 161.4 -.5)"/>
    <path id="path3230" style="stroke-linejoin:round;stroke:#000000;stroke-linecap:round;stroke-width:4;fill:#502d16" d="m354 671.86a17.5 17.5 0 1 1 -35 0 17.5 17.5 0 1 1 35 0z" transform="matrix(.84286 0 0 1 143.9 -.5)"/>
    <path id="path3244" style="fill:#000000;fill-opacity:.31373" d="m440.04 422.84a49.103 49.103 0 1 1 -98.21 0 49.103 49.103 0 1 1 98.21 0z" transform="matrix(0.452 .12111 -.12111 0.452 275.32 305.01)"/>
    <path id="path3159" style="stroke-linejoin:round;stroke:#000000;stroke-linecap:round;stroke-width:8.5479;fill:#784421" d="m440.04 422.84a49.103 49.103 0 1 1 -98.21 0 49.103 49.103 0 1 1 98.21 0z" transform="matrix(.40526 -.23397 .23397 .40526 74.975 459.09)"/>
    <path id="path3161" style="stroke-linejoin:round;stroke:#000000;stroke-linecap:round;stroke-width:8.5479;fill:#784421" d="m440.04 422.84a49.103 49.103 0 1 1 -98.21 0 49.103 49.103 0 1 1 98.21 0z" transform="matrix(.33089 .33089 -.33089 .33089 407.31 269.1)"/>
    <path id="path3264" style="stroke-linejoin:round;stroke:#000000;stroke-linecap:round;stroke-width:7.6177;fill:#502d16" d="m354 671.86a17.5 17.5 0 1 1 -35 0 17.5 17.5 0 1 1 35 0z" transform="matrix(.39134 -.22594 .25714 .44538 25.537 327.84)"/>
    <path id="path3266" style="stroke-linejoin:round;stroke:#000000;stroke-linecap:round;stroke-width:7.6177;fill:#502d16" d="m354 671.86a17.5 17.5 0 1 1 -35 0 17.5 17.5 0 1 1 35 0z" transform="matrix(.39134 -.22594 .25714 .44538 42.716 317.93)"/>
    <path id="path3268" style="stroke-linejoin:round;stroke:#000000;stroke-linecap:round;stroke-width:7.6177;fill:#502d16" d="m354 671.86a17.5 17.5 0 1 1 -35 0 17.5 17.5 0 1 1 35 0z" transform="matrix(.39134 -.22594 .25714 .44538 36.591 327.12)"/>
    <path id="path3270" style="stroke-linejoin:round;stroke:#000000;stroke-linecap:round;stroke-width:7.6177;fill:#502d16" d="m354 671.86a17.5 17.5 0 1 1 -35 0 17.5 17.5 0 1 1 35 0z" transform="matrix(-.39134 -.22594 -.25714 .44538 704.69 328.75)"/>
    <path id="path3272" style="stroke-linejoin:round;stroke:#000000;stroke-linecap:round;stroke-width:7.6177;fill:#502d16" d="m354 671.86a17.5 17.5 0 1 1 -35 0 17.5 17.5 0 1 1 35 0z" transform="matrix(-.39134 -.22594 -.25714 .44538 687.51 318.83)"/>
    <path id="path3274" style="stroke-linejoin:round;stroke:#000000;stroke-linecap:round;stroke-width:7.6177;fill:#502d16" d="m354 671.86a17.5 17.5 0 1 1 -35 0 17.5 17.5 0 1 1 35 0z" transform="matrix(-.39134 -.22594 -.25714 .44538 693.64 328.02)"/>
    <path id="path2483" style="stroke-linejoin:round;stroke:#000000;stroke-linecap:round;stroke-width:4;fill:#502d16" d="m418.38 367.64c-4.02 0-7.53 2.11-9.53 5.28 6.15 4.13 11.44 9.42 15.57 15.56 3.15-2 5.26-5.54 5.26-9.55 0-6.23-5.07-11.29-11.3-11.29z"/>
    <path id="path2515" style="fill:#000000" d="m377.08 426.93a6.61 6.61 0 1 1 -13.22 0 6.61 6.61 0 1 1 13.22 0z" transform="translate(-21.409 -5.5105)"/>
    <path id="path2523" style="stroke-linejoin:round;stroke:#000000;stroke-linecap:round;stroke-width:4;fill:#502d16" d="m312.75 367.64c4.01 0 7.52 2.11 9.52 5.28-6.14 4.13-11.43 9.42-15.57 15.56-3.15-2-5.25-5.54-5.25-9.55 0-6.23 5.06-11.29 11.3-11.29z"/>
    <path id="path2525" style="fill:#000000;fill-opacity:.31373" d="m217.81 67.812c0.74 4.152 1.13 8.418 1.13 12.782 0 40.136-32.59 72.716-72.72 72.716-30.64 0-56.84-19-67.532-45.84 6.082 34 35.792 59.84 71.532 59.84 40.13 0 72.72-32.58 72.72-72.716 0-9.463-1.83-18.491-5.13-26.782z" transform="translate(215.23 337.26)"/>
    <path id="path2413" style="stroke-linejoin:round;fill-rule:evenodd;stroke:#000000;stroke-linecap:round;stroke-width:4;fill:#784421" d="m426.92 430.24c10.87-5 37.02 12.72 35.95 17.96-15.52-5.5-23.21-5.51-31.69-2.08 9.29 3.86 19.46 12.9 20.05 22.22-6.45-5.43-18.31-10.54-30.42-8.29 6.08 7.18 14.31 13.78 12.09 23.19-7.52-7.97-14.93-9.06-22.35-11.04"/>
    <path id="path3197" style="stroke-linejoin:round;fill-rule:evenodd;stroke:#000000;stroke-linecap:round;stroke-width:4;fill:#784421" d="m304.3 430.24c-10.87-5-37.02 12.72-35.95 17.96 15.52-5.5 23.21-5.51 31.69-2.08-9.29 3.86-19.46 12.9-20.05 22.22 6.45-5.43 18.31-10.54 30.42-8.29-6.08 7.18-14.31 13.78-12.09 23.19 7.52-7.97 14.92-9.06 22.34-11.04"/>
    <path id="path3225" style="stroke-linejoin:round;fill-rule:evenodd;stroke:#000000;stroke-width:4;fill:#ffffff" d="m354.39 490.56c6.53 2.23 16.23 2 21.22 0.01 5.12-2.05-2.05 15.86-4.25 17.67-2.01 1.66-11.42 1.45-13.43 0-2.17-1.56-9.64-19.76-3.54-17.68z"/>
  </g>
  <metadata>
    <rdf:RDF>
      <cc:Work>
        <dc:format>image/svg+xml</dc:format>
        <dc:type rdf:resource="http://purl.org/dc/dcmitype/StillImage"/>
        <cc:license rdf:resource="http://creativecommons.org/licenses/publicdomain/"/>
        <dc:publisher>
          <cc:Agent rdf:about="http://openclipart.org/">
            <dc:title>Openclipart</dc:title>
          </cc:Agent>
        </dc:publisher>
        <dc:title>Cartoon beaver</dc:title>
        <dc:date>2006-12-26T00:00:00</dc:date>
        <dc:description/>
        <dc:source>https://openclipart.org/detail/17814/-by--17814</dc:source>
        <dc:creator>
          <cc:Agent>
            <dc:title>lemmling</dc:title>
          </cc:Agent>
        </dc:creator>
      </cc:Work>
      <cc:License rdf:about="http://creativecommons.org/licenses/publicdomain/">
        <cc:permits rdf:resource="http://creativecommons.org/ns#Reproduction"/>
        <cc:permits rdf:resource="http://creativecommons.org/ns#Distribution"/>
        <cc:permits rdf:resource="http://creativecommons.org/ns#DerivativeWorks"/>
      </cc:License>
    </rdf:RDF>
  </metadata>
</svg>