<?xml version="1.0" encoding="UTF-8" standalone="no"?>
<!-- Created with Inkscape (http://www.inkscape.org/) -->
<svg xmlns:rdf="http://www.w3.org/1999/02/22-rdf-syntax-ns#" xmlns="http://www.w3.org/2000/svg" xmlns:cc="http://web.resource.org/cc/" xmlns:dc="http://purl.org/dc/elements/1.1/" xmlns:svg="http://www.w3.org/2000/svg" xmlns:inkscape="http://www.inkscape.org/namespaces/inkscape" xmlns:sodipodi="http://sodipodi.sourceforge.net/DTD/sodipodi-0.dtd" xmlns:ns1="http://sozi.baierouge.fr" xmlns:xlink="http://www.w3.org/1999/xlink" id="svg2" viewBox="0 0 224.66 254.27" version="1.0" inkscape:version="0.91 r13725">
  <g id="layer1" transform="translate(-238.92 -428.4)">
    <path id="path2383" style="stroke-linejoin:round;stroke:#000000;stroke-linecap:round;stroke-width:3.2874;fill:#ffffff" d="m441.29 560.71c0.02 49.72-40.29 90.04-90.02 90.04-49.72 0-90.03-40.32-90.02-90.04-0.01-49.73 40.3-90.05 90.02-90.05 49.73 0 90.04 40.32 90.02 90.05z" transform="matrix(1.2168 0 0 1.2168 -76.15 -121.55)"/>
    <path id="path3173" style="fill-rule:evenodd;fill:#4d4d4d" d="m441.09 500.82c-5.4 6.55-6.24 17.01-4.56 21.04 1.24 2.98 9.47 4.44 17.35 5.18-3.09-9.37-7.41-18.18-12.79-26.22zm-193.42 29.39c-2.86 9.72-4.41 19.98-4.4 30.63 0 5.56 0.42 11.03 1.23 16.36 8.18 4.75 18.8 20.39 27.85 21.57 11.34 1.48 8.88-21.69 1.98-23.17-6.91-1.48-9.86-12.33-10.36-24.16-0.33-7.94-4.68-15.67-16.3-21.23zm211.54 27.73c-2.92 1.36-5.63 3.39-7.89 6.32-11.83 15.28-21.69 4.93-33.53 10.35-11.83 5.43-3.94 19.23 0.5 32.54 3.21 9.64-2.61 28.82 4.4 34.76 22.44-19.8 36.59-48.79 36.58-81.07 0-0.97-0.01-1.93-0.03-2.9-0.01 0.01-0.03 0-0.03 0zm-146.92 9.28c4.93 15.28-5.92 9.86-7.89 20.21-1.97 10.36 33.03 13.31 38.95 34.51 5.91 21.2 32.54 9.86 32.04-1.97-0.49-11.83-17.74-17.25-13.31-24.16 4.44-6.9 13.31-21.2 13.31-21.2l-63.1-7.39z"/>
    <path id="path3221" style="fill:#000000;fill-opacity:.31373" d="m454.19 523.12c0.07 1.69 0.12 3.4 0.12 5.1 0 60.46-49.06 109.53-109.53 109.53-47.26 0-87.59-30-102.94-71.97 2.66 58.11 50.68 104.47 109.44 104.47 60.47 0 109.53-49.07 109.53-109.53 0-13.2-2.34-25.87-6.62-37.6z"/>
    <path id="path3172" style="stroke-linejoin:round;stroke:#000000;stroke-linecap:round;stroke-width:4;fill:#333333" d="m359.45 671.28c0 9.09 14.67 9.38 32.74 9.38s32.73 0.69 32.73-9.38c0-17.72-14.66-32.1-32.73-32.1s-32.74 14.38-32.74 32.1z"/>
    <path id="path3236" style="fill:#000000;fill-opacity:.31373" d="m435.91 525.42c0 45.17-55.12 81.84-81.84 81.84-25.72 0-81.84-36.67-81.84-81.84s24.63-81.84 81.84-81.84c57.22 0 81.84 36.67 81.84 81.84z"/>
    <path id="path3174" style="stroke-linejoin:round;fill-rule:evenodd;fill-opacity:.31373;stroke:#000000;stroke-width:4;fill:#000000" d="m404.78 680.06c0-16.37-9.44-26.44-9.44-26.44s3.77 13.85 3.14 26.44h6.3z"/>
    <path id="path3155" style="stroke-linejoin:round;stroke:#000000;stroke-linecap:round;stroke-width:4;fill:#ffffff" d="m108.88 46.344c-30.134 0.61-50.937 11.653-63.63 28.75-24.064-2.588-44.062 23.625-44.062 23.625-0.0005 0 18.891 9.451 32.062 1.531-2.399 8.71-3.562 18.11-3.562 27.91 0 45.17 56.125 81.84 81.842 81.84 26.72 0 81.85-36.67 81.85-81.84 0-9.8-1.17-19.2-3.57-27.91 13.17 7.92 32.03-1.531 32.03-1.531s-19.97-26.205-44.03-23.625c-13.06-17.595-34.71-28.75-66.28-28.75-0.89 0-1.78-0.018-2.65 0z" transform="translate(239.74 384.07)"/>
    <path id="path3185" style="fill-rule:evenodd;fill:#4d4d4d" d="m365.49 432.38c25.72 17.92-3.05 17.14-8.75 23.28-6.5 7-9 17-1.5 23.5s46 17.5 51.5-0.5c2.83-9.28-0.57-20.8-2.35-30.97-10.02-7.86-22.9-13.24-38.9-15.31z"/>
    <path id="path3157" style="stroke-linejoin:round;stroke:#000000;stroke-linecap:round;stroke-width:15.889;fill:#ffffff" d="m441.29 560.71c0.02 49.72-40.29 90.04-90.02 90.04-49.72 0-90.03-40.32-90.02-90.04-0.01-49.73 40.3-90.05 90.02-90.05 49.73 0 90.04 40.32 90.02 90.05z" transform="matrix(.25175 0 0 .25175 236.55 359.08)"/>
    <path id="path3159" style="stroke-linejoin:round;stroke:#000000;stroke-linecap:round;stroke-width:15.889;fill:#ffffff" d="m441.29 560.71c0.02 49.72-40.29 90.04-90.02 90.04-49.72 0-90.03-40.32-90.02-90.04-0.01-49.73 40.3-90.05 90.02-90.05 49.73 0 90.04 40.32 90.02 90.05z" transform="matrix(.25175 0 0 .25175 289.28 359.08)"/>
    <path id="path3161" style="fill:#000000" d="m441.29 560.71c0.02 49.72-40.29 90.04-90.02 90.04-49.72 0-90.03-40.32-90.02-90.04-0.01-49.73 40.3-90.05 90.02-90.05 49.73 0 90.04 40.32 90.02 90.05z" transform="matrix(.083916 0 0 .083916 343.2 457.18)"/>
    <path id="path3163" style="fill:#000000" d="m441.29 560.71c0.02 49.72-40.29 90.04-90.02 90.04-49.72 0-90.03-40.32-90.02-90.04-0.01-49.73 40.3-90.05 90.02-90.05 49.73 0 90.04 40.32 90.02 90.05z" transform="matrix(.083916 0 0 .083916 301.17 457.18)"/>
    <path id="path3210" style="stroke-linejoin:round;stroke:#000000;stroke-linecap:round;stroke-width:4;fill:#ffd5e5" d="m111.53 159.59c-19.861 0-35.968 13.22-35.968 29.5 0 3.02 0.565 5.95 1.594 8.69 12.712 7.74 25.394 12.22 34.374 12.22 9.2 0 21.76-4.33 34.28-11.88 1.12-2.84 1.72-5.88 1.72-9.03 0-16.28-16.14-29.5-36-29.5z" transform="translate(239.74 384.07)"/>
    <path id="path3231" style="fill:#000000;fill-opacity:.31373" d="m190.09 101.34l-1.87 2.66c0.25 3.08 0.34 6.2 0.34 9.38 0 45.17-55.12 81.84-81.84 81.84-20.707 0-61.098-23.76-76.064-56.6 7.616 40.25 57.172 71.38 80.874 71.38 26.72 0 81.85-36.67 81.85-81.84 0-9.4-1.08-18.41-3.29-26.82z" transform="translate(239.74 384.07)"/>
    <path id="path3329" style="stroke-linejoin:round;stroke:#000000;stroke-linecap:round;stroke-width:4;fill:#333333" d="m344.46 671.28c0 9.09-14.67 9.38-32.74 9.38s-32.73 0.69-32.73-9.38c0-17.72 14.66-32.1 32.73-32.1s32.74 14.38 32.74 32.1z"/>
    <path id="path3331" style="stroke-linejoin:round;fill-rule:evenodd;fill-opacity:.31373;stroke:#000000;stroke-width:4;fill:#000000" d="m299.13 680.06c0-16.37 9.44-26.44 9.44-26.44s-3.77 13.85-3.14 26.44h-6.3z"/>
    <path id="path2398" style="fill:#000000" d="m367.87 568.87c-2.29 3.97-6.5 5.84-9.4 4.16-2.89-1.67-3.38-6.25-1.09-10.22s6.5-5.84 9.4-4.16c2.89 1.67 3.38 6.24 1.09 10.22z"/>
    <path id="path2412" style="fill:#000000" d="m335.13 568.87c2.29 3.97 6.5 5.84 9.4 4.16 2.89-1.67 3.38-6.25 1.09-10.22s-6.5-5.84-9.4-4.16c-2.89 1.67-3.38 6.24-1.09 10.22z"/>
    <path id="path2399" style="fill-rule:evenodd;stroke:#000000;stroke-width:4;fill:#333333" d="m292.24 460.67c-7.34-1.33-15.5-21.5-12.5-25.5s26.37 4.46 27 13.5c0.55 7.97-5.39 13.65-14.5 12z"/>
    <path id="path3171" style="fill-rule:evenodd;stroke:#000000;stroke-width:4;fill:#333333" d="m409.13 460.67c7.34-1.33 15.5-21.5 12.5-25.5s-26.37 4.46-27 13.5c-0.55 7.97 5.39 13.65 14.5 12z"/>
  </g>
  <metadata>
    <rdf:RDF>
      <cc:Work>
        <dc:format>image/svg+xml</dc:format>
        <dc:type rdf:resource="http://purl.org/dc/dcmitype/StillImage"/>
        <cc:license rdf:resource="http://creativecommons.org/licenses/publicdomain/"/>
        <dc:publisher>
          <cc:Agent rdf:about="http://openclipart.org/">
            <dc:title>Openclipart</dc:title>
          </cc:Agent>
        </dc:publisher>
        <dc:title>Cartoon cow</dc:title>
        <dc:date>2008-07-09T15:54:00</dc:date>
        <dc:description>moo</dc:description>
        <dc:source>https://openclipart.org/detail/17676/cartoon-cow-by-lemmling</dc:source>
        <dc:creator>
          <cc:Agent>
            <dc:title>lemmling</dc:title>
          </cc:Agent>
        </dc:creator>
        <dc:subject>
          <rdf:Bag>
            <rdf:li>animal</rdf:li>
            <rdf:li>cartoon</rdf:li>
            <rdf:li>colour</rdf:li>
            <rdf:li>cow</rdf:li>
            <rdf:li>funny</rdf:li>
            <rdf:li>how i did it</rdf:li>
            <rdf:li>mammal</rdf:li>
          </rdf:Bag>
        </dc:subject>
      </cc:Work>
      <cc:License rdf:about="http://creativecommons.org/licenses/publicdomain/">
        <cc:permits rdf:resource="http://creativecommons.org/ns#Reproduction"/>
        <cc:permits rdf:resource="http://creativecommons.org/ns#Distribution"/>
        <cc:permits rdf:resource="http://creativecommons.org/ns#DerivativeWorks"/>
      </cc:License>
    </rdf:RDF>
  </metadata>
</svg>