<?xml version="1.0" encoding="UTF-8" standalone="no"?>
<!-- Created with Inkscape (http://www.inkscape.org/) -->

<svg
   xmlns:dc="http://purl.org/dc/elements/1.1/"
   xmlns:cc="http://creativecommons.org/ns#"
   xmlns:rdf="http://www.w3.org/1999/02/22-rdf-syntax-ns#"
   xmlns:svg="http://www.w3.org/2000/svg"
   xmlns="http://www.w3.org/2000/svg"
   xmlns:xlink="http://www.w3.org/1999/xlink"
   xmlns:sodipodi="http://sodipodi.sourceforge.net/DTD/sodipodi-0.dtd"
   xmlns:inkscape="http://www.inkscape.org/namespaces/inkscape"
   id="svg2"
   viewBox="0 0 838.97969 840.19573"
   version="1.0"
   inkscape:version="0.92.3 (2405546, 2018-03-11)"
   sodipodi:docname="lemmling-Cartoon-penguin.adapted.svg"
   width="838.97968"
   height="840.19574">
  <sodipodi:namedview
     pagecolor="#ffffff"
     bordercolor="#666666"
     borderopacity="1"
     objecttolerance="10"
     gridtolerance="10"
     guidetolerance="10"
     inkscape:pageopacity="0"
     inkscape:pageshadow="2"
     inkscape:window-width="2560"
     inkscape:window-height="1373"
     id="namedview34"
     showgrid="false"
     inkscape:zoom="1.4044346"
     inkscape:cx="419.48984"
     inkscape:cy="420.09787"
     inkscape:window-x="-9"
     inkscape:window-y="-9"
     inkscape:window-maximized="1"
     inkscape:current-layer="layer1"
     fit-margin-top="50"
     fit-margin-left="50"
     fit-margin-right="50"
     fit-margin-bottom="50" />
  <defs
     id="defs4">
    <linearGradient
       id="linearGradient3173">
      <stop
         id="stop3175"
         style="stop-color:#a5a5a5"
         offset="0" />
      <stop
         id="stop3177"
         style="stop-color:#000000"
         offset="1" />
    </linearGradient>
    <linearGradient
       id="linearGradient3211"
       y2="537.40997"
       gradientUnits="userSpaceOnUse"
       x2="359.47"
       gradientTransform="translate(0,-2)"
       y1="537.40997"
       x1="346.23999">
      <stop
         id="stop4100"
         style="stop-color:#ffb142"
         offset="0" />
      <stop
         id="stop4104"
         style="stop-color:#c87600"
         offset="1" />
    </linearGradient>
    <radialGradient
       id="radialGradient3475"
       xlink:href="#linearGradient3173"
       gradientUnits="userSpaceOnUse"
       cy="582.84998"
       cx="488.95001"
       gradientTransform="matrix(0,-1.4798,1.3255,-3.8491e-6,-461.83,1155.7)"
       r="167.56" />
    <radialGradient
       id="radialGradient3483"
       xlink:href="#linearGradient3173"
       gradientUnits="userSpaceOnUse"
       cy="615.59998"
       cx="355.12"
       gradientTransform="matrix(-2.8422e-8,-2.2818,2.0268,0,-1051.3,1276.7)"
       r="59.255001" />
    <radialGradient
       id="radialGradient4090"
       gradientUnits="userSpaceOnUse"
       cy="-8.8804998"
       cx="414.67999"
       gradientTransform="matrix(-5.8291e-6,0.89419,-1.9479,1.1251e-8,336.39,255.17)"
       r="123.55">
      <stop
         id="stop3205"
         style="stop-color:#ffb142"
         offset="0" />
      <stop
         id="stop4092"
         style="stop-color:#ffb141"
         offset=".88679" />
      <stop
         id="stop3207"
         style="stop-color:#c87600"
         offset="1" />
    </radialGradient>
    <radialGradient
       id="radialGradient4126"
       xlink:href="#linearGradient3173"
       gradientUnits="userSpaceOnUse"
       cy="652.28003"
       cx="347.67999"
       gradientTransform="matrix(2.8422e-8,-2.2818,-2.0268,0,1762.1,1276.7)"
       r="59.255001" />
  </defs>
  <g
     id="layer1"
     transform="matrix(2,0,0,2,-291.2685,-682.41014)">
    <path
       id="path3806"
       style="fill:#ffffff;fill-rule:evenodd;stroke:#000000;stroke-width:2;fill-opacity:1;stroke-miterlimit:4;stroke-dasharray:none"
       d="m 318.91,673.34 c -48.09,4.95 -103.24,43.86 -81.32,52.35 21.92,8.48 85.55,12.02 97.57,2.12 6.17,-5.08 17.23,-17.82 18.53,-29.78 1.3,11.95 12.32,24.7 18.5,29.78 12.02,9.9 75.67,6.36 97.59,-2.12 21.92,-8.49 -33.23,-47.4 -81.31,-52.35 -24.76,2.39 -33.67,10.71 -34.78,20.25 -1.12,-9.54 -10.02,-17.86 -34.78,-20.25 z"
       inkscape:connector-curvature="0" />
    <path
       id="path2385"
       style="fill:#ffffff;stroke:#000000;stroke-width:2;stroke-linecap:round;fill-opacity:1;stroke-miterlimit:4;stroke-dasharray:none"
       d="m 516.84,534.27 a 165.565,165.565 0 1 1 -331.13,0 165.565,165.565 0 1 1 331.13,0 z"
       inkscape:connector-curvature="0" />
    <path
       id="path2387"
       style="fill:#ffffff;stroke:#000000;stroke-width:2;stroke-linecap:round;stroke-miterlimit:4;stroke-dasharray:none"
       d="m 317.28,424.09 c -22.93,0 -41.56,21.44 -41.56,47.85 0,26.41 18.63,47.84 41.56,47.84 13.48,0 25.44,-7.41 33.03,-18.87 7.59,11.47 19.58,18.87 33.07,18.87 22.93,0 41.56,-21.43 41.56,-47.84 0,-26.41 -18.63,-47.85 -41.56,-47.85 -13.49,0 -25.48,7.41 -33.07,18.88 -7.59,-11.46 -19.55,-18.88 -33.03,-18.88 z"
       inkscape:connector-curvature="0" />
    <path
       id="path3167"
       style="fill:#ffffff;stroke:#000000;stroke-width:1.76475779;stroke-linecap:round;stroke-miterlimit:4;stroke-dasharray:none"
       d="m 418.63,583.05 a 70.821,70.821 0 1 1 -141.64,0 70.821,70.821 0 1 1 141.64,0 z"
       transform="matrix(1.1333,0,0,1.1333,-41.339,-43.746)"
       inkscape:connector-curvature="0" />
    <path
       id="path2391"
       style="fill:#ffffff;fill-rule:evenodd;stroke:#000000;stroke-width:2;fill-opacity:1;stroke-miterlimit:4;stroke-dasharray:none"
       d="m 350.01,498.27 c -14.48,0 -30.21,11.96 -29.58,19.52 0.63,7.55 25.81,39.03 31.47,39.03 5.67,0 27.7,-30.85 27.07,-39.66 -0.63,-8.82 -19.51,-19.52 -28.96,-18.89 z"
       inkscape:connector-curvature="0" />
    <path
       id="path3163"
       style="fill:#000000;stroke:#000000;stroke-width:2;stroke-linecap:round;stroke-miterlimit:4;stroke-dasharray:none"
       d="m 340.57,487.37 a 10.387,10.387 0 1 1 -20.77,0 10.387,10.387 0 1 1 20.77,0 z"
       transform="translate(2.4773,-7)"
       inkscape:connector-curvature="0" />
    <path
       id="path3165"
       style="fill:#000000;stroke:#000000;stroke-width:2;stroke-linecap:round;stroke-miterlimit:4;stroke-dasharray:none"
       d="m 340.57,487.37 a 10.387,10.387 0 1 1 -20.77,0 10.387,10.387 0 1 1 20.77,0 z"
       transform="translate(39.66,-7)"
       inkscape:connector-curvature="0" />
    <path
       id="path3169"
       style="fill:#ffffff;fill-rule:evenodd;stroke:#000000;stroke-width:2;stroke-miterlimit:4;stroke-dasharray:none"
       d="m 226.4,497.25 c 48.11,17.3 -14.16,94.14 37.82,161.19 9.61,12.39 -57.87,2.09 -81.72,-66.59 -23.2,-66.78 -1.14,-107.54 43.9,-94.6 z"
       inkscape:connector-curvature="0" />
    <path
       id="path3793"
       style="fill:#ffffff;fill-rule:evenodd;stroke:#000000;stroke-width:2;fill-opacity:1;stroke-miterlimit:4;stroke-dasharray:none"
       d="m 226.4,497.25 c 48.11,17.3 -42.59,102.12 37.82,161.19 22.63,16.62 -57.87,2.09 -81.72,-66.59 -23.2,-66.78 -1.14,-107.54 43.9,-94.6 z"
       inkscape:connector-curvature="0" />
    <path
       id="path3800"
       style="fill:#ffffff;fill-rule:evenodd;stroke:#000000;stroke-width:2;stroke-miterlimit:4;stroke-dasharray:none"
       d="m 484.36,497.25 c -48.11,17.3 14.16,94.14 -37.82,161.19 -9.61,12.39 57.87,2.09 81.72,-66.59 23.2,-66.78 1.13,-107.54 -43.9,-94.6 z"
       inkscape:connector-curvature="0" />
    <path
       id="path3802"
       style="fill:#ffffff;fill-rule:evenodd;stroke:#000000;stroke-width:2;fill-opacity:1;stroke-miterlimit:4;stroke-dasharray:none"
       d="m 484.36,497.25 c -48.11,17.3 42.59,102.12 -37.82,161.19 -22.63,16.62 57.87,2.09 81.72,-66.59 23.2,-66.78 1.13,-107.54 -43.9,-94.6 z"
       inkscape:connector-curvature="0" />
  </g>
  <metadata
     id="metadata31">
    <rdf:RDF>
      <cc:Work>
        <dc:format>image/svg+xml</dc:format>
        <dc:type
           rdf:resource="http://purl.org/dc/dcmitype/StillImage" />
        <cc:license
           rdf:resource="http://creativecommons.org/publicdomain/zero/1.0/" />
        <dc:publisher>
          <cc:Agent
             rdf:about="http://openclipart.org/">
            <dc:title>Openclipart</dc:title>
          </cc:Agent>
        </dc:publisher>
        <dc:title></dc:title>
        <dc:date>2008-07-02T16:39:36</dc:date>
        <dc:description>Yet another penguin</dc:description>
        <dc:source>https://openclipart.org/detail/17535/cartoon-penguin-by-lemmling-17535</dc:source>
        <dc:creator>
          <cc:Agent>
            <dc:title>lemmling</dc:title>
          </cc:Agent>
        </dc:creator>
        <dc:subject>
          <rdf:Bag>
            <rdf:li>animal</rdf:li>
            <rdf:li>bird</rdf:li>
            <rdf:li>cartoon</rdf:li>
            <rdf:li>colour</rdf:li>
            <rdf:li>funny</rdf:li>
            <rdf:li>glossy</rdf:li>
            <rdf:li>how i did it</rdf:li>
            <rdf:li>penguin</rdf:li>
            <rdf:li>tux</rdf:li>
          </rdf:Bag>
        </dc:subject>
      </cc:Work>
      <cc:License
         rdf:about="http://creativecommons.org/publicdomain/zero/1.0/">
        <cc:permits
           rdf:resource="http://creativecommons.org/ns#Reproduction" />
        <cc:permits
           rdf:resource="http://creativecommons.org/ns#Distribution" />
        <cc:permits
           rdf:resource="http://creativecommons.org/ns#DerivativeWorks" />
      </cc:License>
    </rdf:RDF>
  </metadata>
</svg>
