<?xml version="1.0" encoding="UTF-8" standalone="no"?>
<!-- Created with Inkscape (http://www.inkscape.org/) -->
<svg xmlns:rdf="http://www.w3.org/1999/02/22-rdf-syntax-ns#" xmlns="http://www.w3.org/2000/svg" xmlns:cc="http://web.resource.org/cc/" xmlns:dc="http://purl.org/dc/elements/1.1/" xmlns:svg="http://www.w3.org/2000/svg" xmlns:inkscape="http://www.inkscape.org/namespaces/inkscape" xmlns:sodipodi="http://sodipodi.sourceforge.net/DTD/sodipodi-0.dtd" xmlns:ns1="http://sozi.baierouge.fr" xmlns:xlink="http://www.w3.org/1999/xlink" id="svg2" viewBox="0 0 244.07 254.03" version="1.0" inkscape:version="0.91 r13725">
  <g id="layer1" transform="translate(-229.24 -428.63)">
    <path id="path2383" style="stroke-linejoin:round;stroke:#000000;stroke-linecap:round;stroke-width:4;fill:#ffffff" d="m471.31 550.71c0.02 66.3-53.73 120.07-120.04 120.07s-120.05-53.77-120.03-120.07c-0.02-66.31 53.72-120.08 120.03-120.08s120.06 53.77 120.04 120.08z"/>
    <path id="path3221" style="fill:#000000;fill-opacity:.31373" d="m111.69 107.53c-55.321 1.12-79.19 37.35-79.19 81.81 0 19.85 10.825 38.08 25.156 52.25-30.524-12.93-54.598-38.14-66.031-69.4 2.9079 63.68 55.509 114.5 119.9 114.5 66.27 0 120.04-53.77 120.04-120.03 0-14.47-2.55-28.34-7.25-41.19 0.09 1.84 0.16 3.7 0.16 5.56 0 32.54-12.99 62.06-34.03 83.69 3.6-7.99 5.75-16.52 5.75-25.38 0-45.17-24.62-81.81-81.85-81.81-0.89 0-1.77-0.02-2.65 0z" transform="translate(239.74 384.07)"/>
    <path id="path3172" style="stroke-linejoin:round;stroke:#000000;stroke-linecap:round;stroke-width:4;fill:#333333" d="m359.45 671.28c0 9.09 14.67 9.38 32.74 9.38s32.73 0.69 32.73-9.38c0-17.72-14.66-32.1-32.73-32.1s-32.74 14.38-32.74 32.1z"/>
    <path id="path3329" style="stroke-linejoin:round;stroke:#000000;stroke-linecap:round;stroke-width:4;fill:#333333" d="m344.46 671.28c0 9.09-14.67 9.38-32.74 9.38s-32.73 0.69-32.73-9.38c0-17.72 14.66-32.1 32.73-32.1s32.74 14.38 32.74 32.1z"/>
    <path id="path3331" style="stroke-linejoin:round;fill-rule:evenodd;fill-opacity:.31373;stroke:#000000;stroke-width:4;fill:#000000" d="m299.13 680.06c0-16.37 9.44-26.44 9.44-26.44s-3.77 13.85-3.14 26.44h-6.3z"/>
    <path id="path2399" style="stroke-linejoin:round;fill-rule:evenodd;stroke:#000000;stroke-width:4;fill:#44aa00" d="m353.05 623.66c-46.4-3.35-78.5 11.44-78.5 11.44s10.24-0.25 16.02 0.67c-10.83 7.42-14.38 22.13-14.38 22.13s12.07-12.95 24.46-17.55c-10.52 13.98-11.92 36.96-11.92 36.96s12.09-35.73 34.68-43.13c17.22-5.64 35.44-2.32 35.44-2.32s36.11-2.49 48.49 19.08c1.63 0.77 1.47-13.1-8.79-18.05l27.63-1.43c-20.15-8.49-73.13-7.8-73.13-7.8z"/>
    <path id="path3155" style="stroke-linejoin:round;stroke:#000000;stroke-linecap:round;stroke-width:4;fill:#333333" d="m348.61 478.41c-30.13 0.61-50.93 11.65-63.62 28.75-24.07-2.59-44.07 23.62-44.07 23.62s18.89 9.45 32.07 1.54c-2.4 8.71-3.57 18.1-3.57 27.9 0 45.18 56.13 81.85 81.85 81.85 26.71 0 81.84-36.67 81.84-81.85 0-9.8-1.16-19.19-3.56-27.9 13.17 7.91 32.03-1.54 32.03-1.54s-19.97-26.2-44.03-23.62c-13.06-17.6-34.71-28.75-66.28-28.75-0.9 0-1.78-0.02-2.66 0z"/>
    <path id="path3174" style="stroke-linejoin:round;fill-rule:evenodd;fill-opacity:.31373;stroke:#000000;stroke-width:4;fill:#000000" d="m404.78 680.06c0-16.37-9.44-26.44-9.44-26.44s3.77 13.85 3.14 26.44h6.3z"/>
    <path id="path3157" style="stroke-linejoin:round;stroke:#000000;stroke-linecap:round;stroke-width:4;fill:#ffffff" d="m347.64 548.24c0.01 12.51-10.14 22.67-22.66 22.67s-22.67-10.16-22.66-22.67c-0.01-12.52 10.14-22.67 22.66-22.67s22.67 10.15 22.66 22.67z"/>
    <path id="path3159" style="stroke-linejoin:round;stroke:#000000;stroke-linecap:round;stroke-width:4;fill:#ffffff" d="m400.38 548.24c0 12.51-10.15 22.67-22.67 22.67s-22.66-10.16-22.66-22.67c0-12.52 10.14-22.67 22.66-22.67s22.67 10.15 22.67 22.67z"/>
    <path id="path3161" style="fill:#000000" d="m380.23 552.24c0 4.17-3.38 7.55-7.55 7.55-4.18 0-7.56-3.38-7.56-7.55 0-4.18 3.38-7.56 7.56-7.56 4.17 0 7.55 3.38 7.55 7.56z"/>
    <path id="path3163" style="fill:#000000" d="m338.2 552.24c0 4.17-3.38 7.55-7.55 7.55-4.18 0-7.56-3.38-7.56-7.55 0-4.18 3.38-7.56 7.56-7.56 4.17 0 7.55 3.38 7.55 7.56z"/>
    <path id="path3231" style="fill:#000000;fill-opacity:.31373" d="m429.83 533.41l-1.87 2.66c0.24 3.07 0.34 6.2 0.34 9.37 0 45.18-55.13 81.84-81.84 81.84-20.71 0-61.1-23.75-76.07-56.59 7.62 40.25 57.17 71.38 80.88 71.38 26.71 0 81.84-36.67 81.84-81.85 0-9.39-1.07-18.41-3.28-26.81z"/>
    <path id="path2398" style="fill:#000000" d="m367.87 612.87c-2.29 3.97-6.5 5.84-9.4 4.16-2.89-1.67-3.38-6.25-1.09-10.22s6.5-5.84 9.4-4.16c2.89 1.67 3.38 6.24 1.09 10.22z"/>
    <path id="path2412" style="fill:#000000" d="m335.13 612.87c2.29 3.97 6.5 5.84 9.4 4.16 2.89-1.67 3.38-6.25 1.09-10.22s-6.5-5.84-9.4-4.16c-2.89 1.67-3.38 6.24-1.09 10.22z"/>
    <path id="path3181" style="stroke-linejoin:round;stroke:#000000;stroke-linecap:round;stroke-width:4;fill:#ffff00" d="m276.14 641.02c-3.3-0.35-6.28 2.04-6.63 5.34-0.05 0.52-0.01 1.04 0.06 1.54-2.78 0.27-5.1 2.49-5.4 5.38-0.34 3.29 2.08 6.24 5.38 6.59 0.75 0.08 1.46 0 2.15-0.18-0.17 3.17 2.18 5.98 5.37 6.31 3.3 0.35 6.25-2.07 6.6-5.37 0.08-0.83 0-1.64-0.22-2.38 2.57-0.46 4.66-2.57 4.95-5.3 0.34-3.3-2.07-6.25-5.37-6.59-0.53-0.06-1.05-0.05-1.55 0.02-0.27-2.78-2.45-5.06-5.34-5.36zm0.29 11.9c0.04 0.41 0.1 0.81 0.22 1.19-0.17 0.03-0.34 0.06-0.51 0.1 0.02-0.42 0.01-0.85-0.06-1.26 0.12-0.01 0.24-0.01 0.35-0.03z"/>
  </g>
  <metadata>
    <rdf:RDF>
      <cc:Work>
        <dc:format>image/svg+xml</dc:format>
        <dc:type rdf:resource="http://purl.org/dc/dcmitype/StillImage"/>
        <cc:license rdf:resource="http://creativecommons.org/licenses/publicdomain/"/>
        <dc:publisher>
          <cc:Agent rdf:about="http://openclipart.org/">
            <dc:title>Openclipart</dc:title>
          </cc:Agent>
        </dc:publisher>
        <dc:title>Cartoon sheep</dc:title>
        <dc:date>2008-07-07T20:04:15</dc:date>
        <dc:description>A very round sheep :)</dc:description>
        <dc:source>https://openclipart.org/detail/17637/cartoon-sheep-by-lemmling</dc:source>
        <dc:creator>
          <cc:Agent>
            <dc:title>lemmling</dc:title>
          </cc:Agent>
        </dc:creator>
        <dc:subject>
          <rdf:Bag>
            <rdf:li>animal</rdf:li>
            <rdf:li>cartoon</rdf:li>
            <rdf:li>colour</rdf:li>
            <rdf:li>funny</rdf:li>
            <rdf:li>how i did it</rdf:li>
            <rdf:li>mammal</rdf:li>
            <rdf:li>sheep</rdf:li>
          </rdf:Bag>
        </dc:subject>
      </cc:Work>
      <cc:License rdf:about="http://creativecommons.org/licenses/publicdomain/">
        <cc:permits rdf:resource="http://creativecommons.org/ns#Reproduction"/>
        <cc:permits rdf:resource="http://creativecommons.org/ns#Distribution"/>
        <cc:permits rdf:resource="http://creativecommons.org/ns#DerivativeWorks"/>
      </cc:License>
    </rdf:RDF>
  </metadata>
</svg>