<?xml version="1.0" encoding="UTF-8" standalone="no"?>
<!-- Created with Inkscape (http://www.inkscape.org/) -->

<svg
   xmlns:dc="http://purl.org/dc/elements/1.1/"
   xmlns:cc="http://creativecommons.org/ns#"
   xmlns:rdf="http://www.w3.org/1999/02/22-rdf-syntax-ns#"
   xmlns:svg="http://www.w3.org/2000/svg"
   xmlns="http://www.w3.org/2000/svg"
   xmlns:sodipodi="http://sodipodi.sourceforge.net/DTD/sodipodi-0.dtd"
   xmlns:inkscape="http://www.inkscape.org/namespaces/inkscape"
   id="svg2"
   xml:space="preserve"
   version="1.1"
   viewBox="0 0 353.89767 476.99692"
   inkscape:version="0.92.3 (2405546, 2018-03-11)"
   sodipodi:docname="SAILING-BW.adapted.svg"><defs
   id="defs69" /><sodipodi:namedview
   pagecolor="#ffffff"
   bordercolor="#666666"
   borderopacity="1"
   objecttolerance="10"
   gridtolerance="10"
   guidetolerance="10"
   inkscape:pageopacity="0"
   inkscape:pageshadow="2"
   inkscape:window-width="2560"
   inkscape:window-height="1373"
   id="namedview67"
   showgrid="false"
   inkscape:zoom="1.9790484"
   inkscape:cx="132.35224"
   inkscape:cy="208.22716"
   inkscape:window-x="-9"
   inkscape:window-y="-9"
   inkscape:window-maximized="1"
   inkscape:current-layer="svg2" /><title
   id="title3005">Sailing</title>
		<g
   id="g3103"
   transform="translate(.71459 13.577)"><path
     id="path73"
     style="stroke:#000000;stroke-width:.066356;stroke-miterlimit:10;fill-rule:evenodd"
     d="m261.54 358.69c3.6828 4.9454 8.63 10.143 15.037 15.595 6.4126 5.4504 13.78 11.002 22.863 16.856-8.8327-6.8125-16.15-12.921-22.511-18.32-6.4586-5.502-11.404-10.145-15.389-14.132z" /><path
     id="path75"
     style="stroke:#000000;stroke-width:.066356;stroke-miterlimit:10;fill-rule:evenodd"
     d="m75.303 373.94c11.961 3.1796 26.799 6.3093 45.675 9.3875 18.825 3.08 42.748 7.0153 66.317 9.0852 23.319 1.869 53.547 2.3206 72.98 2.5234 19.228 0.15115 33.06-0.45343 42.044-1.8174-2.927 0.3539-11.61 0.3539-26.448 0.20091-15.192-0.20091-43.557-0.55481-62.483-1.2608-18.926-0.80733-32.048-1.5667-49.662-3.4321-17.864-2.0202-40.678-6.1582-55.617-8.5304-14.84-2.5215-25.589-4.4403-32.806-6.1563z" /><path
     id="path77"
     style="stroke:#000000;stroke-width:.066356;stroke-miterlimit:10;fill-rule:evenodd"
     d="m134.4 382.41c0.45528-0.35205 0.85894-1.0082 1.4138-2.1695 0.45343-1.1115 1.0082-2.6745 1.6663-4.6947 0.5032 2.4754 0.5032 4.291 0 5.4504-0.60642 1.0598-1.5649 1.6644-3.08 1.4137z" /><path
     id="path79"
     style="stroke:#000000;stroke-width:.066356;stroke-miterlimit:10;fill-rule:evenodd"
     d="m298.68 391.7c-3.7878 0.20091-11.811 0.20091-24.078 0-12.362-0.30413-34.824-0.60642-49.459-1.3142-14.838-0.75572-26.799-1.4635-38.608-2.8773-11.962-1.5649-23.368-4.0883-31.495-6.0052-8.0751-1.869-13.273-3.6864-16.15-5.2495 14.335 3.9353 27.657 6.7112 40.578 8.8825 12.718 2.0699 16.554 2.3224 36.44 3.4837 20.135 1.0101 47.14 2.1695 82.772 3.08z" /><path
     id="path81"
     style="stroke:#000000;stroke-width:.066356;stroke-miterlimit:10;fill-rule:evenodd"
     d="m181.29 347.29c-1.0598-0.95847-1.6681-1.6146-1.8174-2.3704-0.15299-0.80733 0.60457-1.0119 0.9087-1.9686 0-0.95847 0.0498-2.6745 0.55481-3.786 0.60642-1.3124 1.5649-2.6247 3.0782-3.1279 1.4138-0.60642 3.6864-0.60642 5.2495 0 1.364 0.45343 2.5252 1.6128 3.2809 3.4818 0.70595 1.9188 0.15115 5.3509 1.0598 7.5719 0.65803 2.0165 2.7777 3.2809 3.6348 4.7426 0.70595 1.4138 1.0598 0.60642 1.2626 3.786 0.20275 3.1796 0.20275 7.924 0 14.838-0.40182-4.9472-0.70595-8.7313-0.90871-11.557-0.25252-2.8773 0.30413-3.5832-0.5032-5.6034-1.0598-2.1695-3.9869-4.796-4.8956-6.9139-0.91055-2.2211 0-4.3905-0.55665-5.9554-0.75572-1.8156-2.2211-3.2791-3.633-3.8357-1.5649-0.40366-3.8376 0.15115-4.8956 0.90871-1.1612 0.5032-1.3124 1.4137-1.6147 2.5234-0.30228 1.0598-0.55296 3.0302-0.55296 3.9869-0.40551 0.75756-0.90871 0.3539-0.90871 0.91055 0.0977 0.45159 0.44975 1.3087 1.2571 2.3685z" /><path
     id="path83"
     style="stroke:#000000;stroke-width:.066356;stroke-miterlimit:10;fill-rule:evenodd"
     d="m183.66 337.85c1.563 0.60458 2.4718 1.2626 2.7243 2.1695 0.15299 0.85894-1.563 1.7658-1.2608 2.927 0.0498 1.1096 2.3188 3.4818 2.5215 3.633 0.15115-0.0498-1.5133-2.3704-1.4617-3.4321-0.10137-1.1594 1.1096-2.0699 1.1096-2.927-0.15114-0.95847-0.70595-2.0681-1.4617-2.3722-0.90871-0.25252-1.8174-0.30229-3.2828 0.40366l1.1115-0.40182z" /><path
     id="path85"
     style="stroke:#000000;stroke-width:.066356;stroke-miterlimit:10;fill-rule:evenodd"
     d="m182.2 347.64c1.8672 0.8571 3.08 2.3224 3.8357 4.1878 0.7594 1.869 0.86078 4.997 0.50688 7.0669-0.50688 1.9188-2.8293 3.2293-3.4339 4.8956-0.75572 1.5649-1.0598 2.6764-0.90871 4.6928 0.15299 1.9686 0.75756 4.3905 1.8174 7.2678 1.917-1.9686 4.0883-3.1814 6.5121-3.8357 2.4718-0.65618 4.997-0.70595 7.9738-0.15299-1.9686-0.9087-3.9371-1.211-6.3075-0.9087-2.4238 0.35389-4.8956 1.3105-7.6199 2.8773-1.364-3.0284-1.6644-5.5002-1.4654-7.419 0.15299-2.0202 2.2727-2.8256 3.08-4.3389 0.80732-1.7179 1.4137-3.2809 1.6128-5.2495-0.0995-2.1197-0.70779-5.1979-1.6128-6.713-0.96216-1.5133-2.2211-2.3704-3.9906-2.3704z" /><path
     id="path87"
     style="stroke:#000000;stroke-width:.066356;stroke-miterlimit:10;fill-rule:evenodd"
     d="m185.83 348.19c0.55296-0.60458 1.1612-1.1612 2.3722-1.1096 0.95847-0.0516 2.5215 0.20091 4.138 0.75757-1.3603 0.15114-2.5731 0.20091-3.633 0.35205-1.1115 0.0516-2.0718 0.0516-2.8773 0z" /><path
     id="path89"
     style="stroke:#000000;stroke-width:.066356;stroke-miterlimit:10;fill-rule:evenodd"
     d="m182.4 348.75c-2.1197 1.4156-3.7344 3.0284-5.4504 5.2495-1.7658 2.0718-3.2809 4.796-4.3408 7.419-1.1115 2.5234-1.917 5.9057-1.6147 7.6217 0.30413 1.5133 1.716 2.6229 3.4321 2.1695 1.6147-0.60642 3.786-2.1197 6.5121-5.0983-2.2708 1.8174-4.1399 3.0284-5.6034 3.6348-1.716 0.60458-2.6764 0.80733-3.2809 0-0.60642-1.0101-0.55665-3.0284 0.35389-5.4522 1.0598-2.5234 3.3307-6.5102 5.2476-9.0336 1.716-2.7243 3.2293-4.6431 4.7444-6.5102z" /><path
     id="path91"
     style="stroke:#000000;stroke-width:.066356;stroke-miterlimit:10;fill-rule:evenodd"
     d="m200.32 373.03c0.85709 2.7777 1.1594 4.9988 1.4617 7.065 0.15114 1.869 0.55665 3.6367-0.35206 4.6947-1.0598 1.0598-3.1298 1.4137-6.0052 1.4635 2.3704 0.45527 4.2376 0.75756 5.6015 0.35205 1.211-0.35205 2.0681-1.0101 2.3722-2.3704 0.10138-1.4138-0.20275-4.4422-0.70595-6.1582-0.50504-1.917-1.364-3.5334-2.3722-5.0467z" /><path
     id="path93"
     style="stroke:#000000;stroke-width:.066356;stroke-miterlimit:10;fill-rule:evenodd"
     d="m182.2 377.17c-2.9768 0.5548-5.5002 0.9087-7.5682 1.2608-2.2708 0.25436-3.8376-0.20091-4.8956 0.55665-1.0598 0.60457-1.3621 1.8156-1.1115 3.4302 0.15114-1.1594 0.75756-2.0699 1.8174-2.5234 0.95847-0.45343 2.2708-0.0479 4.3408-0.35205 1.9169-0.45528 4.3905-1.3142 7.4171-2.3722z" /><path
     id="path95"
     style="stroke:#000000;stroke-width:.066356;stroke-miterlimit:10;fill-rule:evenodd"
     d="m218.64 357.79c1.1594-1.7658 2.7261-2.9786 4.4938-3.4321 1.7658-0.60458 4.7426-1.0082 6.0052 0.35205 1.0101 1.4156 0.10137 5.4522 0.55665 7.419 0.30413 1.8174 0.9087 2.7759 1.6147 3.2809-1.364-0.30413-2.2708-1.4635-2.7261-2.9289-0.40182-1.563 0.50504-5.349 0-6.5102-0.90502-1.2128-2.6229-1.3124-3.9869-1.0598-1.2608 0.0498-2.9768 1.1115-3.7841 1.8156-0.91055 0.65619-1.2092 2.0699-1.4654 2.3225-0.3539 0.25436-0.65619-0.35022-0.7078-1.2589z" /><path
     id="path97"
     style="stroke:#000000;stroke-width:.066356;stroke-miterlimit:10;fill-rule:evenodd"
     d="m150.35 354.71c1.0101 0.25437 3.5334 0.50504 7.5701 0.55665 4.0366 0.0498 9.5386 0.0498 16.705 0-3.9371-0.70595-7.924-1.0082-11.962-1.1115-4.1362-0.15114-8.1747 0.10138-12.313 0.55481z" /><path
     id="path99"
     style="stroke:#000000;stroke-width:.066356;stroke-miterlimit:10;fill-rule:evenodd"
     d="m200.52 355.26h8.8825 9.0354c-0.10137-0.40366-1.0082-0.55665-2.5234-0.65618-1.7179-0.10138-4.7942-0.10138-6.9139 0-2.2211-0.10138-4.5933-0.10138-5.9554 0-1.4138 0.0995-2.3225 0.25252-2.5252 0.65618z" /><path
     id="path101"
     style="stroke:#000000;stroke-width:.066356;stroke-miterlimit:10;fill-rule:evenodd"
     d="m231.1 355.97h15.796 16.099c-0.30044-0.20276-1.6626-0.50505-4.4919-0.50505-2.9786-0.10137-8.4272-0.10137-12.263 0-3.9869-0.10137-7.9774-0.10137-10.6 0-2.5215 0-4.0366 0.30229-4.5398 0.50505z" /><path
     id="path103"
     style="stroke:#000000;stroke-width:.066356;stroke-miterlimit:10;fill-rule:evenodd"
     d="m199.97 351.98c10.398 0.55481 20.692 0.85709 31.491 1.1115 10.851 0.15114 21.348 0.15114 32.656 0-0.55666-0.25437-3.5353-0.35206-9.1368-0.50504-5.7527-0.15299-16.552-0.15299-24.227-0.20091-7.7194-0.15299-16.202-0.60642-21.35-0.55666-5.196-0.10137-8.276-0.0516-9.4336 0.15115z" /><path
     id="path105"
     style="stroke:#000000;stroke-width:.066356;stroke-miterlimit:10;fill-rule:evenodd"
     d="m150.86 351.27h13.476 13.728c-0.55481-0.30414-2.0699-0.55481-4.5417-0.55481-2.5731-0.10138-7.3176-0.10138-10.346 0-3.2809-0.10138-6.3591-0.10138-8.4788 0-2.1234-0.002-3.3325 0.25067-3.8376 0.55481z" /><path
     id="path107"
     style="stroke:#000000;stroke-width:.066356;stroke-miterlimit:10;fill-rule:evenodd"
     d="m79.642 403.66c6.208-3.9353 11.861-6.4586 17.16-8.3277 5.1463-1.9686 9.135-3.2791 14.08-2.1713 4.8458 1.3142 10.598 6.7148 15.494 9.3894 4.8458 2.5731 8.8825 4.5417 13.275 5.5002 4.0883 0.60458 7.924-1.0598 11.911-1.1096 3.8357-0.20275 7.7728-0.30413 11.609 0.8571 3.7344 1.2626 7.5701 3.0284 11.304 6.055-4.9454-3.3307-9.9423-5.1979-15.192-5.8024-5.2992-0.55481-11.052 2.3722-16.301 1.9686-5.5002-0.65619-10.799-3.1279-15.494-5.2513-4.6928-2.3704-8.2779-5.8024-11.911-7.7728-3.7344-2.1179-6.1582-3.4818-10.195-3.2791-4.2892 0.30229-9.9921 3.4837-14.384 5.2495-4.3389 1.6165-8.1267 3.1832-11.356 4.6947z" /><path
     id="path109"
     style="stroke:#000000;stroke-width:.066356;stroke-miterlimit:10;fill-rule:evenodd"
     d="m84.941 407.8c2.422-2.7759 6.007-3.7878 10.751-3.0302 4.8956 0.80732 12.163 6.1582 17.715 7.4706 5.2495 1.1115 9.7912 0.60642 13.83-1.1115-2.1197 1.5151-4.3906 2.422-7.218 2.7261-2.7759 0.30229-5.4522 0-9.3875-1.1096-4.3408-1.3621-11.205-5.2992-14.939-6.361-3.5832-1.058-4.9454-0.0498-6.6116 0.30413-1.869 0.25437-3.1795 0.55666-4.1399 1.1115z" /><path
     id="path111"
     style="stroke:#000000;stroke-width:.066356;stroke-miterlimit:10;fill-rule:evenodd"
     d="m196.33 413.3c7.218-3.0782 14.687-4.8458 22.41-5.5002 7.7728-0.65619 16.604 0.35205 23.772 1.6644 6.8623 1.3124 11.809 4.9951 17.968 5.8043 6.2577 0.60458 12.414-0.20091 19.079-2.2211-1.0617 1.3603-3.1814 2.3722-6.9158 3.0284-3.8873 0.65434-9.5405 1.6644-15.19 0.86078-5.6532-1.0617-12.115-4.9988-18.019-6.3609-6.208-1.211-11.758-1.3142-17.413-1.1115-5.7029 0-11.052 1.0101-15.442 1.6644-4.2928 0.55665-7.7728 1.4119-10.248 2.1713z" /><path
     id="path113"
     style="stroke:#000000;stroke-width:.066356;stroke-miterlimit:10;fill-rule:evenodd"
     d="m91.553 382.92c30.183 5.8061 58.142 9.6916 85.446 12.416 27.151 2.422 55.263 2.7261 76.562 3.08 21.149 0.30229 37.25 0.30229 49.465-0.55665-6.4126 1.0101-15.396 1.5667-27.355 1.6663-12.012 0-27.659-0.35206-44.213-0.85894-16.755-0.60642-40.022-1.211-55.013-2.2211-14.989-1.0101-19.835-1.7658-34.017-3.8357-14.384-2.269-30.887-5.4983-50.875-9.6898z" /><path
     id="path115"
     style="stroke:#000000;stroke-width:.066356;stroke-miterlimit:10;fill-rule:evenodd"
     d="m142.98 396.75c23.571 2.8773 43.911 4.7408 62.179 5.8024 18.017 0.96032 30.485 0.45343 46.18 0.25252 15.85-0.35205 44.766-1.8156 47.846-1.6663 2.5731-0.0498-18.723 1.6663-30.988 2.2211-12.519 0.65434-26.448 1.1631-41.992 1.1115-15.594-0.40366-36.136-1.5133-50.318-2.774-14.184-1.364-25.488-2.881-34.321-4.9472h1.4138z" /><path
     id="path117"
     style="stroke:#000000;stroke-width:.066356;stroke-miterlimit:10;fill-rule:evenodd"
     d="m75.504 375.2c-0.30413 3.3823-0.70595 7.065-0.80733 10.497-0.20275 3.3823-0.50504 7.9719-0.30413 10.499-0.04977 2.4201 0.10138 3.2293 0.8571 4.3887 0.80733 1.211 2.0183 1.869 3.8376 2.5234-1.4137-0.45343-2.422-1.7142-3.0284-3.5814-0.60642-2.0202-1.0101-4.5435-0.80733-7.7728 0.10138-3.233 0.85894-8.9838 1.1115-11.61 0.04977-2.7243-0.30413-4.4403-0.85894-4.9435z" /><path
     id="path119"
     style="stroke:#000000;stroke-width:.066356;stroke-miterlimit:10;fill-rule:evenodd"
     d="m77.572 373.33c14.989 0.85894 27.152 1.6663 37.248 2.6247 9.8926 0.85709 17.463 1.8156 22.509 2.8754l-0.15114 1.0598c-5.6532-0.90687-11.609-1.917-18.27-2.6229-6.713-0.75756-14.585-1.6147-21.501-2.1713-7.0134-0.75756-13.374-1.2092-19.835-1.7658z" /><path
     id="path121"
     style="stroke:#000000;stroke-width:.066356;stroke-miterlimit:10;fill-rule:evenodd"
     d="m303.13 391.5c1.1575 2.7759 1.6128 5.4504 1.7658 8.2263 0.0479 2.7261-0.40551 5.349-1.3621 8.0751 0.45343-2.5234 0.65619-4.7444 0.80733-6.6632 0-1.9169-0.20091-3.3307-0.40366-4.8458-0.15115-1.7142-0.55481-3.1279-0.80733-4.7924z" /><path
     id="path123"
     style="stroke:#000000;stroke-width:.066356;stroke-miterlimit:10;fill-rule:evenodd"
     d="m306.56 393.57c3.6827 2.7759 6.3572 5.0983 8.5783 6.9637 1.9686 1.869 3.08 2.7261 3.9371 4.3408 0.90871 1.4617 1.3621 3.0284 1.3621 4.6947-1.1594-2.2229-2.5731-4.1896-3.8339-5.9075-1.5667-1.7658-2.6284-2.8773-4.3408-4.4901-1.764-1.8156-3.5353-3.4302-5.7029-5.6015z" /><path
     id="path125"
     style="stroke:#000000;stroke-width:.066356;stroke-miterlimit:10;fill-rule:evenodd"
     d="m252.5 407.5c5.5002 2.3224 11.509 3.5316 18.572 3.4302 6.9655-0.20091 17.363-3.3307 23.217-3.9371 5.7048-0.65618 7.3692-0.20091 11.205 0.20276 3.8357 0.35205 8.0254 1.058 11.406 1.5114 3.2312 0.40551 4.6965 0.65619 7.6733 0.3539 2.7759-0.50504 5.7527-1.7179 9.1331-3.4321-1.9686 1.9686-3.9353 3.2791-6.4586 4.1399-2.5731 0.80733-4.1896 0.75572-8.3793 0.60457-4.2892-0.35205-11.911-1.7676-16.606-2.0699-4.7961-0.25252-7.3692-0.15114-11.607 0.50504-4.291 0.45159-9.135 2.6229-13.78 3.0284-4.9454 0.45527-9.8409 0.25436-14.082-0.40551-4.033-0.70227-7.4687-2.0146-10.294-3.9316z" /><path
     id="path127"
     style="stroke:#000000;stroke-width:.066356;stroke-miterlimit:10;fill-rule:evenodd"
     d="m218.64 357.94c-0.45527-0.3539-1.6128-1.2626-1.7142-1.1612-0.25252-0.10138 0.10138 0.45527 0.5032 0.85709 0.30229 0.35206 0.75387 0.80733 1.1594 1.1612 0.20276 0.15298 0.60458 0.25252 0.60458 0.10137 0.002-0.20091-0.25068-0.65618-0.55297-0.95847z" /><path
     id="path129"
     style="stroke:#000000;stroke-width:.066356;stroke-miterlimit:10;fill-rule:evenodd"
     d="m219.29 359.7c-0.25068 1.5133-0.30229 2.7261 0.0498 3.4321 0.25621 0.70596 1.2128 0.65619 1.7179 1.0101 0.45343 0.15114 0.65619 0.20091 1.0101 0.70595 0.1493 0.45527 0.45527 1.3124 0.50319 2.3741 0.10322-1.2626 0.0479-2.2211-0.35389-2.8791-0.55481-0.60458-1.3621-0.90687-1.8653-1.1115-0.3539-0.45159-0.55849-0.20091-0.60642-0.80549-0.1493-0.60642-0.30413-1.5133-0.45527-2.7261z" /><path
     id="path131"
     style="stroke:#000000;stroke-width:.066356;stroke-miterlimit:10;fill-rule:evenodd"
     d="m220.05 359.2c1.316 0.85894 2.5252 1.7179 4.0385 2.3722 1.4137 0.7078 2.927 1.2626 4.5435 1.6644-2.2708-1.2608-3.939-2.2192-5.4006-2.8773-1.4654-0.65435-2.5234-1.1096-3.1814-1.1594z" /><path
     id="path133"
     style="stroke:#000000;stroke-width:.066356;stroke-miterlimit:10;fill-rule:evenodd"
     d="m232.37 365.66c1.211 0.25252 2.7777 0.95847 4.8956 2.1197 2.1695 1.2128 5.5002 3.0284 7.4687 5.0467 1.7676 1.8672 4.4938 3.5334 3.3307 6.3591-1.3105 2.8256-4.7942 6.0052-10.648 10.095 3.0782-2.4736 5.3509-4.6947 7.0171-6.6632 1.7179-2.0681 2.8256-3.4818 2.7759-5.1979-0.35205-1.7658-1.6644-3.3805-4.1399-5.2495-2.4754-1.9667-6.1066-4.138-10.7-6.5102z" /><path
     id="path135"
     style="stroke:#000000;stroke-width:.066356;stroke-miterlimit:10;fill-rule:evenodd"
     d="m230.55 366.52c-0.85525-0.25252-1.4119-0.15299-1.8653 0.5032-0.45712 0.50504-0.85894 1.8672-0.60457 2.927 0.14745 0.96032-0.45712 1.211 1.8653 2.8773 2.1732 1.6146 6.1066 3.8357 11.609 6.6614-2.0681 1.8672-3.5334 3.5334-4.796 4.997-1.2589 1.3621-2.1178 2.7261-2.5731 3.6846 2.0202-2.0183 3.4818-3.786 4.9472-5.3011 1.3603-1.6128 2.3722-2.7759 3.2293-3.8837-6.055-3.0284-9.9921-5.2992-12.362-6.8144-2.422-1.5649-1.3142-1.716-1.5151-2.4201-0.25621-0.91055 0.0995-1.9188 0.5032-2.4736 0.3539-0.55481 0.80917-0.80733 1.563-0.75756z" /><path
     id="path137"
     style="stroke:#000000;stroke-width:.066356;stroke-miterlimit:10;fill-rule:evenodd"
     d="m229.54 365.46c-1.0598-0.0995-2.2727 0.0498-3.6348 0.65618-1.4156 0.55481-1.5667 0.95848-4.3408 2.5731-2.927 1.6147-9.334 4.7444-12.416 6.6614-3.0763 1.716-4.997 2.9786-5.7527 3.786 1.8156-0.85894 4.138-2.0699 7.5185-3.8357 3.2312-1.8156 9.135-5.2992 12.064-6.7628 2.6727-1.5133 3.5814-2.0681 4.6947-2.422 1.1096-0.45527 1.6644-0.85894 1.8672-0.65618z" /><path
     id="path139"
     style="stroke:#000000;stroke-width:.066356;stroke-miterlimit:10;fill-rule:evenodd"
     d="m204.66 381.56c3.1261-0.60458 6.2559-1.0598 8.9838-1.9188 2.6727-0.80733 5.3472-1.7658 7.6199-2.8773-3.1796 0.95847-6.3075 1.9188-8.9838 2.6745-2.7243 0.75756-5.3988 1.4654-7.6199 2.1215z" /><path
     id="path141"
     style="stroke:#000000;stroke-width:.066356;stroke-miterlimit:10;fill-rule:evenodd"
     d="m220.3 370.7c-0.86078 1.0598-1.058 2.6745-0.40735 4.6449 0.55849 1.9188 1.8193 4.1878 3.7896 7.0153-1.4672-2.422-2.3741-4.5933-2.9289-6.5102-0.55296-1.9686-0.70779-3.6864-0.45343-5.15z" /><path
     id="path143"
     style="stroke:#000000;stroke-width:.066356;stroke-miterlimit:10;fill-rule:evenodd"
     d="m224.09 382.36c2.6247-0.15114 5.2495-0.60457 7.3194-1.5649 2.0202-0.9087 4.0366-2.269 5.5002-4.0882l0.75572 0.35205c-0.8571 1.1115-2.1179 2.3722-3.5814 3.2293-1.6663 0.91055-3.9887 1.8174-5.6015 2.3224-1.7179 0.3539-3.1832 0.2046-4.3924-0.25068z" /><path
     id="path145"
     style="stroke:#000000;stroke-width:.066356;stroke-miterlimit:10;fill-rule:evenodd"
     d="m224.29 383.17c-2.1732 0.60458-3.7344 1.3603-4.8956 2.269-1.1612 0.96032-1.7179 2.0183-1.8672 3.3805 1.0101-1.3621 2.1676-2.6727 3.2791-3.5316 1.1612-0.95848 2.3225-1.6663 3.4837-2.1179z" /><path
     id="path147"
     style="stroke:#000000;stroke-width:.066356;stroke-miterlimit:10;fill-rule:evenodd"
     d="m187.95 27.103c10.949 71.264 20.64 128.14 29.272 173.37 8.6816 44.969 15.699 69.851 22.207 95.287 6.4089 25.235 11.507 43.557 15.848 55.567-8.53-28.67-16.55-60.32-24.68-96.91-8.28-36.64-17.11-86.25-23.57-120.83-6.56-34.77-11.36-67.372-14.59-85.342-3.18-17.763-4.74-24.88-4.49-21.145z" /><path
     id="path149"
     style="stroke:#000000;stroke-width:.066356;stroke-miterlimit:10;fill-rule:evenodd"
     d="m201.78 112.6-15.796 7.0153c3.5334-1.1612 6.5121-2.2211 9.3377-3.1796 2.7243-1.0598 5.0965-1.869 7.1167-2.6247-0.2046-0.40366-0.40735-0.80549-0.65803-1.211z" /><path
     id="path151"
     style="stroke:#000000;stroke-width:.066356;stroke-miterlimit:10;fill-rule:evenodd"
     d="m216.11 189.97-28.97 15.243c7.7212-3.3805 13.979-6.208 18.976-8.4788 4.949-2.3722 8.5286-3.9869 10.75-5.2495-0.25252-0.50504-0.5032-1.0082-0.75572-1.5151z" /><path
     id="path153"
     style="stroke:#000000;stroke-width:.066356;stroke-miterlimit:10;fill-rule:evenodd"
     d="m233.53 272.79-30.988 13.879c9.6382-3.2791 16.904-5.9536 22.356-8.0254 5.3509-2.1178 8.5304-3.4818 9.7396-4.2892-0.35205-0.50505-0.7041-1.0082-1.1078-1.5649z" /><path
     id="path155"
     style="stroke:#000000;stroke-width:.066356;stroke-miterlimit:10;fill-rule:evenodd"
     d="m142.43 376.91c-0.3539-3.4818 0-13.02 1.2626-29.173 1.211-16.353 3.5334-43.81 6.1564-67.377 2.5252-23.72 5.854-48.099 9.0336-73.131 2.927-25.186 4.3906-44.868 9.0336-76.009 4.6928-31.191 10.801-67.075 18.876-109.42-5.7029 33.613-10.145 61.927-13.931 86.305-3.786 24.275-5.4006 35.884-8.1765 58.596-2.927 22.812-5.9057 50.37-8.7313 76.462-3.0782 25.941-6.5618 58.445-8.4788 77.623-1.8174 18.674-1.9188 25.588-2.6247 34.975-0.80548 9.2861-1.6128 16.403-2.4201 21.147z" /><path
     id="path157"
     style="stroke:#000000;stroke-width:.066356;stroke-miterlimit:10;fill-rule:evenodd"
     d="m145.91 378.12c-0.35206-3.4818 0-13.02 1.2626-29.173 1.211-16.504 3.5334-43.706 6.1563-67.429 2.5252-23.722 5.8559-48.099 9.0354-73.133 3.0782-25.134 4.5417-44.766 9.0336-76.007 4.2394-31.342 9.793-67.53 16.657-110.33-4.2412 29.222-8.2281 57.637-11.962 86.607-3.8855 29.02-7.5701 62.078-10.499 85.748-2.9768 23.215-4.8956 32.402-7.3176 53.649-2.7759 21.298-5.7545 54.659-7.5701 73.032-1.6147 18.22-1.6644 26.142-2.3225 35.832-0.85709 9.6419-1.6147 16.454-2.4736 21.201z" /><path
     id="path159"
     style="stroke:#000000;stroke-width:.066356;stroke-miterlimit:10;fill-rule:evenodd"
     d="m245.79 383.27c8.982 0.40551 17.711 1.0119 26.596 2.2211 8.7848 1.1631 17.361 2.5252 25.943 4.4938-5.9536-0.70595-12.165-1.5151-19.232-2.2211-7.218-0.80732-17.057-1.8672-22.708-2.5731-5.6015-0.7594-9.1368-1.4635-10.598-1.9206z" /><path
     id="path161"
     style="stroke:#000000;stroke-width:.066356;stroke-miterlimit:10;fill-rule:evenodd"
     d="m146.26 323.36c-11.961-13.83-22.661-25.941-32.704-37.095-10.095-11.255-18.978-20.592-27.204-29.173 2.2211 1.0617 5.7527 3.8874 10.598 8.6816 4.8956 4.9472 11.609 12.466 18.22 19.837 6.5102 7.1148 15.09 16.25 20.491 22.71 5.1979 6.254 8.7313 11.203 10.598 15.039z" /><path
     id="path163"
     style="stroke:#000000;stroke-width:.066356;stroke-miterlimit:10;fill-rule:evenodd"
     d="m80.904 371.11c9.8925-1.4138 19.835-3.5832 30.433-6.713 10.549-3.1279 21.147-7.0153 32.352-11.861-8.9838 3.3805-17.413 6.0568-25.285 8.63-7.924 2.3224-15.948 4.4919-22.106 6.1066-6.3609 1.5667-11.358 2.9805-15.395 3.8376z" /><path
     id="path165"
     style="stroke:#000000;stroke-width:.066356;stroke-miterlimit:10;fill-rule:evenodd"
     d="m80.904 371.11c-1.9686-1.7658 0.30413-12.062 6.4107-32.048 6.0568-20.239 21.4-61.624 30.433-86.758 9.0852-25.134 17.111-45.776 23.671-62.129 6.2577-16.353 10.195-24.176 14.737-35.178 4.5933-11.155 8.6318-21.249 12.517-30.837-5.0965 10.296-10.549 22.004-16.353 35.532-6.0052 13.424-11.809 27.759-18.572 45.17-6.8144 17.413-15.949 42.597-21.754 58.596-5.9057 15.697-8.9838 23.873-13.122 35.834-4.291 11.911-8.8327 25.385-11.861 35.379-3.1298 9.7912-4.8458 17.765-6.1066 23.366-1.3621 5.4522-1.2608 7.371-1.2608 9.64-0.0018 2.1234 0.35205 3.3325 1.2608 3.4339z" /><path
     id="path167"
     style="stroke:#000000;stroke-width:.066356;stroke-miterlimit:10;fill-rule:evenodd"
     d="m89.888 326.34c2.3225-15.697 4.997-30.183 8.6318-44.818 3.4818-14.587 6.56-25.741 12.515-41.638 5.8559-16.152 14.233-38.055 22.41-53.851 8.0751-15.697 16.655-28.97 25.941-40.024-5.0983 8.0254-10.398 16.705-15.697 26.246-5.4504 9.4391-10.7 18.017-16.353 30.433-5.9057 12.466-12.82 29.526-17.614 43.203-4.6928 13.373-8.0254 26.295-10.549 36.842-2.6247 10.497-3.6846 18.119-5.1463 25.588-1.6165 7.3692-2.9289 13.124-4.1399 18.019z" /><path
     id="path169"
     style="stroke:#000000;stroke-width:.066356;stroke-miterlimit:10;fill-rule:evenodd"
     d="m130.87 213.59c-0.0498 19.632 0.65619 35.884 1.9188 49.916 1.3621 13.879 3.2809 23.519 5.7545 33.006 2.2708 9.4391 4.9472 17.16 8.0254 23.368-4.1896-13.223-7.218-24.679-9.2861-35.53-2.0699-10.751-2.422-18.825-3.1796-28.516-0.90871-10.044-1.5649-22.863-1.9686-30.079-0.60826-7.1167-0.96032-11.104-1.2644-12.165z" /><path
     id="path171"
     style="stroke:#000000;stroke-width:.066356;stroke-miterlimit:10;fill-rule:evenodd"
     d="m85.748 258.06c-7.7728 0.10138-14.991 1.0082-21.451 2.927-6.56 1.8156-13.273 4.6431-17.614 8.2779-4.4422 3.3805-7.2678 7.6199-8.6816 12.515 2.1713-3.9869 5.2992-7.3692 9.9423-10.549 4.5933-3.3307 10.751-6.1066 17.311-8.3276 6.4126-2.2192 12.973-3.8357 20.493-4.844z" /><path
     id="path173"
     style="stroke:#000000;stroke-width:.066356;stroke-miterlimit:10;fill-rule:evenodd"
     d="m39.62 282.38c13.476-5.9038 23.973-9.8409 32.048-11.809 7.9756-1.9686 13.122-1.9686 15.645 0-4.2394-0.10138-9.0852 0.30413-14.737 1.6165-5.8043 1.3105-13.629 3.8855-19.179 5.7527-5.502 1.6147-10.095 3.2312-13.778 4.4403z" /><path
     id="path175"
     style="stroke:#000000;stroke-width:.066356;stroke-miterlimit:10;fill-rule:evenodd"
     d="m35.784 281.07c-4.0883-9.2861-6.6116-21.853-8.3277-38.459-1.716-16.806-5.0467-42.495-1.2626-60.515 3.786-18.119 11.809-33.512 23.671-46.735 11.76-13.374 31.746-24.579 46.735-31.696 15.041-7.0651 29.071-8.6318 42.294-9.9442 12.871-1.2626 24.428-0.80733 34.876 1.9188-11.406-1.9188-22.762-2.1695-34.876-0.95847-12.163 1.2626-24.73 3.3307-37.146 8.3277-12.567 5.0467-26.446 12.416-37.146 21.147-10.799 8.5286-20.543 18.069-26.9 29.777-6.5102 11.557-9.8925 25.285-11.507 39.063-1.5649 13.78 0.70595 29.727 1.9188 42.597 1.1115 12.617 3.1298 24.931 4.4919 32.653 1.2608 7.6752 2.3206 11.763 3.1796 12.823z" /><path
     id="path177"
     style="stroke:#000000;stroke-width:.066356;stroke-miterlimit:10;fill-rule:evenodd"
     d="m165.8 95.995c-4.4919-0.8571-9.1368-0.8571-14.132 0-4.997 0.70595-10.145 2.2211-15.645 5.0983-5.5518 2.8773-11.71 6.7628-17.313 11.861-5.8043 4.796-11.356 10.497-16.655 17.918-5.349 7.5203-11.406 17.21-15.041 26.9-3.8376 9.3875-6.2596 18.825-7.0651 30.079-0.80733 11.356 0.55481 23.468 1.9188 37.5 1.211 13.931 3.0284 28.819 5.4504 45.424-0.95847-7.4189-1.7658-17.866-2.8257-31.545-1.1115-13.778-3.9371-36.944-3.2293-50.419 0.70595-13.627 3.4321-21.35 7.0153-30.384 3.2312-9.0852 7.8742-16.353 13.124-23.722 5.2992-7.6199 11.255-14.937 18.27-20.793 6.8641-5.9057 14.89-10.7 22.71-13.778 7.7212-3.08 15.343-4.3924 23.418-4.1399z" /><path
     id="path179"
     style="stroke:#000000;stroke-width:.066356;stroke-miterlimit:10;fill-rule:evenodd"
     d="m84.79 173.77c7.218-13.931 14.637-25.741 23.014-35.834 8.1249-10.195 15.595-17.463 26.295-24.327 10.801-6.8641 23.116-12.416 37.753-16.655-10.499 2.9768-20.845 7.5203-31.04 14.383-10.296 6.6632-20.793 15.444-30.131 25.941-9.4889 10.501-17.866 22.412-25.892 36.492z" /><path
     id="path181"
     style="stroke:#000000;stroke-width:.066356;stroke-miterlimit:10;fill-rule:evenodd"
     d="m55.315 133.75c6.4605 1.1115 12.364 3.1796 17.916 6.4107 5.502 3.0782 10.447 7.3194 15.041 12.517-7.0651-5.7545-13.424-9.9442-18.875-13.173-5.6034-3.1316-10.095-5.0486-14.082-5.7545z" /><path
     id="path183"
     style="stroke:#000000;stroke-width:.066356;stroke-miterlimit:10;fill-rule:evenodd"
     d="m94.682 106.24c3.4321 2.1179 6.1066 4.4422 8.0254 7.3692 1.8156 2.8773 3.1796 6.0052 3.5334 9.5903-2.2211-4.9472-4.1878-8.7313-6.1066-11.559-2.0718-2.8275-3.6348-4.6947-5.4522-5.4006z" /><path
     id="path185"
     style="stroke:#000000;stroke-width:.066356;stroke-miterlimit:10;fill-rule:evenodd"
     d="m101.75 146.87c-0.60458-1.2626-1.3621-2.422-2.2708-3.4818-0.90871-1.1612-1.9686-2.0699-3.1796-2.927 0.30229 1.3124 1.0082 2.422 1.9188 3.5334 0.90871 1.0064 2.0183 1.9667 3.5316 2.8754z" /><path
     id="path187"
     style="stroke:#000000;stroke-width:.066356;stroke-miterlimit:10;fill-rule:evenodd"
     d="m79.946 188.51c-13.879-4.4919-24.832-7.0153-33.613-7.9738-8.6797-0.8571-14.687-0.15114-18.22 2.5234 3.6348-1.5649 8.0751-1.9188 14.082-1.6147 5.8541 0.3539 14.635 2.6248 21.097 3.8874 6.3056 1.2092 11.857 2.269 16.653 3.1777z" /><path
     id="path189"
     style="stroke:#000000;stroke-width:.066356;stroke-miterlimit:10;fill-rule:evenodd"
     d="m236.2 378.22c0.25252 0.3539 0.60457 0.96032 0.85709 2.0202 0.15115 1.0101 0.40736 2.269 0.55666 3.9869 0.50319-0.55665 0.60641-1.0119 0.85709-1.1612 0.15115-0.25252 0.15115 0.45343 0 0-0.10137-0.50504-0.60457-2.1695-0.75387-3.0302-0.25252-0.90686-0.60827-1.7658-0.86079-2.3722-0.19906 0.15299-0.40366 0.35759-0.65618 0.55665z" /><path
     id="path191"
     style="stroke:#000000;stroke-width:.066356;stroke-miterlimit:10;fill-rule:evenodd"
     d="m306.66 396.44c1.0598 1.4138 1.4156 2.7759 1.6165 4.0883-0.10137 1.2128-1.2644 2.422-1.1612 3.6348 0.10137 1.211 0.80733 2.4202 1.9169 3.6348-1.0119-1.5151-1.4635-2.8256-1.364-3.7344 0.10138-0.96032 1.6663-1.4138 1.9686-2.1713 0.10137-0.90686-0.35206-2.5215-0.80733-3.2809-0.45528-0.96031-1.3124-1.6165-2.1695-2.1713z" /></g>
	<metadata
   id="metadata64"><rdf:RDF><cc:Work><dc:format>image/svg+xml</dc:format><dc:type
         rdf:resource="http://purl.org/dc/dcmitype/StillImage" /><cc:license
         rdf:resource="http://creativecommons.org/publicdomain/zero/1.0/" /><dc:publisher><cc:Agent
           rdf:about="http://openclipart.org/"><dc:title>Openclipart</dc:title></cc:Agent></dc:publisher><dc:title>Sailing</dc:title><dc:date>2010-04-27T15:36:10</dc:date><dc:description>Adapted from http://en.wikipedia.org/wiki/File:125LEYC.jpg\nI, the copyright holder of this work, hereby release it into the public domain. This applies worldwide.\nUser:Aljhenry</dc:description><dc:source>https://openclipart.org/detail/57385/sailing-dinghy-by-gerald_g-57385</dc:source><dc:creator><cc:Agent><dc:title>Gerald_G</dc:title></cc:Agent></dc:creator><dc:subject><rdf:Bag><rdf:li>dinghy</rdf:li><rdf:li>externalsource</rdf:li><rdf:li>people</rdf:li><rdf:li>remix</rdf:li><rdf:li>sail</rdf:li><rdf:li>sailing</rdf:li><rdf:li>spinnaker</rdf:li><rdf:li>sports</rdf:li></rdf:Bag></dc:subject></cc:Work><cc:License
       rdf:about="http://creativecommons.org/publicdomain/zero/1.0/"><cc:permits
         rdf:resource="http://creativecommons.org/ns#Reproduction" /><cc:permits
         rdf:resource="http://creativecommons.org/ns#Distribution" /><cc:permits
         rdf:resource="http://creativecommons.org/ns#DerivativeWorks" /></cc:License></rdf:RDF></metadata></svg>