<?xml version="1.0" encoding="UTF-8" standalone="no"?>
<!-- Created with Inkscape (http://www.inkscape.org/) -->
<svg xmlns:rdf="http://www.w3.org/1999/02/22-rdf-syntax-ns#" xmlns="http://www.w3.org/2000/svg" xmlns:cc="http://web.resource.org/cc/" xmlns:dc="http://purl.org/dc/elements/1.1/" xmlns:svg="http://www.w3.org/2000/svg" xmlns:inkscape="http://www.inkscape.org/namespaces/inkscape" xmlns:sodipodi="http://sodipodi.sourceforge.net/DTD/sodipodi-0.dtd" xmlns:ns1="http://sozi.baierouge.fr" xmlns:xlink="http://www.w3.org/1999/xlink" id="Layer_1" xml:space="preserve" version="1.0" viewBox="0 0 248.976 393.857" inkscape:version="0.91 r13725">
<g id="g236">
	<g id="tail">
		<path id="path3229" style="stroke:#010101;stroke-width:4;fill:#ffcd05" d="m96.198 146.28c-9.442-63.579 54.402-67.857 47.212-93.166-7.47-26.324-36.51-18.886-51.618-22.663s-12.88-17.733-3.777-25.181c6.925-5.666 63.545-8.729 76.805 32.735 18.43 57.679-45.33 52.88-45.33 107.02 0 46.03-22.033 1.26-23.292 1.26z"/>
		<g id="g240">
			<circle id="circle242" cy="34.865" cx="146.49" r="5"/>
			<circle id="circle244" cy="15.865" cx="112.49" r="7.5"/>
			<circle id="circle246" cy="56.865" cx="157.49" r="5"/>
			<path id="path248" d="m156.49 85.378c-1.37-1.826-3.55-3.013-6-3.013-4.15 0-7.5 3.358-7.5 7.5 0 2.409 1.14 4.547 2.9 5.919 3.72-3.423 7.36-6.796 10.6-10.406z"/>
			<circle id="circle250" cy="93.865" cx="127.49" r="7.5"/>
			<circle id="circle252" cy="28.865" cx="124.49" r="5"/>
		</g>
		<path id="path3334" style="fill-opacity:.3137;fill:#010101" d="m149.41 15.535c3.32 4.186 6.04 9.138 7.9 14.969 18.44 57.679-45.31 52.892-45.31 107.04 0 18.69-3.66 22.4-8.06 20.21 6.79 9.21 15.56 16.34 15.56-12.71 0-54.144 63.75-49.358 45.31-107.04-3.13-9.789-8.66-17.087-15.4-22.465z"/>
	</g>
	<g id="body">
		<path id="path2383" style="stroke-linejoin:round;stroke:#010101;stroke-width:2.2041;stroke-linecap:round;fill:#ffcd05" d="m247.87 250.78c0.05 68.15-55.15 123.42-123.3 123.47-68.144 0.05-123.42-55.16-123.47-123.3 0.002-0.06 0.002-0.11 0.002-0.17-0.046-68.14 55.159-123.42 123.31-123.47 68.14-0.04 123.42 55.16 123.46 123.31v0.16z"/>
		<g id="g257">
			<circle id="circle259" cy="216.87" cx="15.488" r="5"/>
			<circle id="circle261" cy="323.86" cx="87.488" r="5"/>
			<circle id="circle263" cy="303.86" cx="32.488" r="5"/>
			<circle id="circle265" cy="265.86" cx="231.49" r="5"/>
			<circle id="circle267" cy="315.86" cx="56.488" r="7.5"/>
			<circle id="circle269" cy="261.86" cx="13.488" r="7.5"/>
			<circle id="circle271" cy="317.86" cx="186.49" r="7.5"/>
			<circle id="circle273" cy="279.86" cx="28.488" r="10"/>
			<circle id="circle275" cy="331.86" cx="130.49" r="10"/>
			<circle id="circle277" cy="295.86" cx="221.49" r="10"/>
			<circle id="circle279" cy="329.86" cx="203.49" r="5"/>
			<circle id="circle281" cy="227.87" cx="234.49" r="5"/>
			<path id="path283" d="m225.99 194.86c0 4.15 3.35 7.5 7.5 7.5 1.49 0 2.87-0.43 4.03-1.18-2-4.58-4.28-9.01-6.81-13.28-2.77 1.11-4.72 3.8-4.72 6.96z"/>
			<path id="path285" d="m214.99 324.86c0 2.58 1.29 4.84 3.27 6.2 3.24-3.8 6.26-7.78 9.03-11.95-1.3-1.09-2.97-1.75-4.8-1.75-4.15 0-7.5 3.36-7.5 7.5z"/>
			<path id="path287" d="m33.988 323.86c0-4.14-3.357-7.5-7.5-7.5-2.028 0-3.865 0.81-5.215 2.12 2.727 4.16 5.697 8.13 8.891 11.92 2.281-1.29 3.824-3.73 3.824-6.54z"/>
		</g>
		<path id="path3339" style="fill-opacity:.3137;fill:#010101" d="m232.66 192.16c3.2 10.98 4.9 22.59 4.9 34.6 0 68.1-55.26 123.37-123.37 123.37-46.825 0-87.599-26.13-108.5-64.59 15.022 51.2 62.366 88.62 118.41 88.62 68.1 0 123.37-55.27 123.37-123.37 0-21.21-5.37-41.19-14.81-58.63z"/>
	</g>
	<g id="paws">
		<g id="g291">
			<path id="path3238" style="stroke-linejoin:round;stroke:#010101;stroke-width:4;stroke-linecap:round;fill:#ffcd05" d="m118.51 370.71c0 21.55-17.49 20.77-39.033 20.77-11.979 0-22.705 0.24-29.866-3.25-5.718-2.79-9.164-7.95-9.164-17.52 0-21.54 17.485-39.03 39.03-39.03 21.543 0 39.033 17.49 39.033 39.03z"/>
			<g id="g294">
				<circle id="circle296" cy="354.86" cx="53.488" r="5"/>
				<circle id="circle298" cy="374.86" cx="84.488" r="7.5"/>
				<circle id="circle300" cy="343.86" cx="91.488" r="5"/>
				<path id="path302" d="m117.37 378.94c-0.89-0.37-1.86-0.58-2.88-0.58-4.15 0-7.5 3.36-7.5 7.5 0 1.11 0.24 2.15 0.67 3.09 4.65-1.79 8.06-4.83 9.71-10.01z"/>
			</g>
			<path id="path3332" style="fill-opacity:.3137;fill:#010101" d="m99.494 337.5c4.726 6.48 7.526 14.47 7.526 23.1 0 12.46-5.83 23.56-14.901 30.75 15.081-0.57 25.901-3.7 25.901-20.63 0-14.03-7.4-26.34-18.526-33.22z"/>
			<g id="g2469" transform="matrix(-1 0 0 1 652.48 -1.8279)">
				<path id="path2471" style="stroke:#010101;stroke-width:4;stroke-linecap:round;fill:none" d="m558.32 391.17c-3.51-11.33 0.5-24.55 0.5-24.55"/>
				<path id="path2473" style="stroke:#010101;stroke-width:4;stroke-linecap:round;fill:none" d="m576.34 393.68c4.3-18.25-0.61-32.73-0.61-32.73"/>
				<path id="path2475" style="stroke:#010101;stroke-width:4;stroke-linecap:round;fill:none" d="m594.6 391.8c8.81-13.85 1.26-25.18 1.26-25.18"/>
			</g>
		</g>
		<g id="g309">
			<path id="path3235" style="stroke-linejoin:round;stroke:#010101;stroke-width:4;stroke-linecap:round;fill:#ffcd05" d="m208.53 370.71c0 21.55-17.49 20.77-39.03 20.77s-39.03 0.78-39.03-20.77c0-21.54 17.49-39.03 39.03-39.03s39.03 17.49 39.03 39.03z"/>
			<g id="g312">
				<circle id="circle314" cy="348.86" cx="185.49" r="5"/>
				<circle id="circle316" cy="365.86" cx="144.49" r="7.5"/>
			</g>
			<path id="path3327" style="fill-opacity:.3137;fill:#010101" d="m189.99 337.5c4.73 6.48 7.53 14.47 7.53 23.1 0 12.46-5.83 23.56-14.9 30.75 15.08-0.57 25.9-3.7 25.9-20.63 0-14.03-7.4-26.34-18.53-33.22z"/>
			<path id="path3349" style="fill-opacity:.3137;fill:#010101" d="m135.68 351.22c-3.31 5.74-5.22 12.41-5.22 19.5 0 17.51 11.56 20.27 27.44 20.69-15.78-6.58-23.8-22.21-22.22-40.19z"/>
			<g id="g2508" transform="translate(-.82294 -1.8279)">
				<path id="path2510" style="stroke:#010101;stroke-width:4;stroke-linecap:round;fill:none" d="m156.37 391.17c-3.51-11.33 0.5-24.55 0.5-24.55"/>
				<path id="path2512" style="stroke:#010101;stroke-width:4;stroke-linecap:round;fill:none" d="m174.39 393.68c4.3-18.25-0.61-32.73-0.61-32.73"/>
				<path id="path2514" style="stroke:#010101;stroke-width:4;stroke-linecap:round;fill:none" d="m192.65 391.8c8.81-13.85 1.26-25.18 1.26-25.18"/>
			</g>
		</g>
	</g>
	<g id="face">
		<g id="g325">
			<path id="path3306_2_" style="fill-opacity:.3137;fill:#010101" d="m57.15 172.06c-12.297 16.1-19.594 36.19-19.594 58 0 52.82 42.869 95.69 95.684 95.69 52.82 0 95.69-42.87 95.69-95.69 0-21.6-7.19-34.51-19.28-50.53 3.73-2.55 6.89-5.69 9.59-9.19-10.56-11.34-70.36-35.97-86-35.97-15.28 0-81.421 33.87-76.09 37.69z"/>
			<path id="path2479" style="stroke-linejoin:round;stroke:#010101;stroke-width:4;stroke-linecap:round;fill:#ffcd05" d="m53.258 117.84c-14.965 0-27.116 12.15-27.116 27.12 0 9.68 5.088 18.18 12.733 22.97-8.083 14.29-12.733 30.78-12.733 48.35 0 54.33 44.067 98.44 98.398 98.44 54.33 0 98.44-44.11 98.44-98.44 0-17.57-4.65-34.06-12.74-48.35 7.63-4.8 12.74-13.3 12.74-22.97 0-14.97-12.15-27.12-27.12-27.12-9.67 0-18.13 5.11-22.93 12.74-14.29-8.1-30.8-12.74-48.39-12.74s-34.064 4.65-48.355 12.74c-4.797-7.63-13.254-12.74-22.927-12.74z"/>
			<path id="path3293_2_" style="fill-opacity:.3137;fill:#010101" d="m215.98 181.84c1.24 6.05 1.9 12.29 1.9 18.69 0 52.82-44 95.69-98.22 95.69-40.655 0-75.562-24.1-90.478-58.44 9.003 43.79 48.706 76.84 96.288 76.84 54.21 0 98.21-42.86 98.21-95.68 0-13.16-2.75-25.69-7.7-37.1z"/>
			<path id="path2483" style="stroke-linejoin:round;stroke:#010101;stroke-width:4;stroke-linecap:round;fill:#d3ab2a" d="m196.19 129.35c-5.44 0-10.19 2.86-12.9 7.14 8.32 5.61 15.48 12.76 21.08 21.08 4.26-2.71 7.11-7.5 7.11-12.93 0-8.44-6.85-15.29-15.29-15.29z"/>
			<path id="path2523" style="stroke-linejoin:round;stroke:#010101;stroke-width:4;stroke-linecap:round;fill:#d3ab2a" d="m53.191 129.35c5.438 0 10.188 2.86 12.897 7.14-8.317 5.61-15.478 12.76-21.074 21.08-4.269-2.71-7.113-7.5-7.113-12.93 0-8.44 6.852-15.29 15.29-15.29z"/>
		</g>
		<g id="g332">
			<circle id="circle334" cy="133.87" cx="109.49" r="5"/>
			<circle id="circle336" cy="221.87" cx="188.49" r="5"/>
			<circle id="circle338" cy="164.87" cx="166.49" r="5"/>
			<circle id="circle340" cy="150.87" cx="75.488" r="7.5"/>
			<circle id="circle342" cy="151.87" cx="130.49" r="7.5"/>
			<circle id="circle344" cy="220.87" cx="50.488" r="7.5"/>
			<circle id="circle346" cy="185.87" cx="58.488" r="7.5"/>
			<circle id="circle348" cy="208.87" cx="207.49" r="7.5"/>
			<circle id="circle350" cy="291.86" cx="161.49" r="7.5"/>
			<circle id="circle352" cy="142.87" cx="173.49" r="7.5"/>
			<circle id="circle354" cy="179.87" cx="194.49" r="10"/>
			<circle id="circle356" cy="164.87" cx="96.488" r="10"/>
			<circle id="circle358" cy="258.86" cx="151.49" r="5"/>
			<circle id="circle360" cy="251.87" cx="53.488" r="5"/>
			<circle id="circle362" cy="245.87" cx="98.488" r="5"/>
			<circle id="circle364" cy="294.86" cx="107.49" r="5"/>
			<circle id="circle366" cy="300.86" cx="133.49" r="5"/>
			<circle id="circle368" cy="250.87" cx="205.49" r="5"/>
			<circle id="circle370" cy="282.86" cx="80.488" r="5"/>
			<circle id="circle372" cy="171.87" cx="129.49" r="5"/>
			<circle id="circle374" cy="132.87" cx="148.49" r="5"/>
			<circle id="circle376" cy="200.87" cx="39.488" r="5"/>
			<path id="path378" style="fill:#010101" d="m198.49 123.86c2.73 0 4.95-2.2 4.99-4.92-2.42-0.71-4.97-1.1-7.62-1.1-0.77 0-1.53 0.05-2.28 0.11-0.06 0.3-0.09 0.6-0.09 0.92 0 2.76 2.24 4.99 5 4.99z"/>
			<path id="path380" style="fill:#010101" d="m32.488 149.86c0-2.76-2.238-5-5-5-0.468 0-0.912 0.09-1.342 0.21 0.014 3.44 0.675 6.72 1.858 9.74 2.515-0.26 4.484-2.36 4.484-4.95z"/>
			<path id="path382" style="fill:#010101" d="m61.488 123.86c0 2.77 2.238 5 5 5 2.417 0 4.434-1.71 4.899-3.99-2.303-2.09-4.957-3.8-7.875-5-1.222 0.91-2.024 2.35-2.024 3.99z"/>
		</g>
		<g id="g384">
			<g id="g3178" transform="translate(-2.5218 -5.0362)">
				<path id="path2400" style="stroke-linejoin:round;stroke:#010101;stroke-width:4.2713;stroke-linecap:round;fill:none" d="m181.22 240.41c5.22 19.47-6.36 39.49-25.88 44.71-9.37 2.51-19.36 1.2-27.76-3.64"/>
				<path id="path3176" style="stroke-linejoin:round;stroke:#010101;stroke-width:4.2713;stroke-linecap:round;fill:none" d="m72.804 240.41c-5.23 19.47 6.354 39.49 25.873 44.71 9.373 2.51 19.363 1.2 27.763-3.64"/>
			</g>
			<path id="path2397" style="fill:#010101" d="m141.18 251.6c0 8.83-9.67 15.99-16.06 15.99-6.89 0-16.07-7.16-16.07-15.99s7.2-11.08 16.07-11.08 16.06 2.25 16.06 11.08z"/>
			<g id="g390">
				<path id="path2387" style="stroke-linejoin:round;stroke:#010101;stroke-width:4;stroke-linecap:round;fill:#ffffff" d="m120.76 205.77c0.01 12.78-10.34 23.15-23.119 23.16-12.778 0.01-23.146-10.35-23.153-23.13v-0.03c-0.009-12.78 10.344-23.14 23.123-23.15s23.149 10.34 23.149 23.12v0.03z"/>
				<path id="path2393" style="fill:#010101" d="m111.72 208.43c0 3.97-3.21 7.19-7.18 7.19-3.96 0-7.178-3.21-7.181-7.18v-0.01c-0.003-3.96 3.211-7.18 7.181-7.18 3.96-0.01 7.18 3.21 7.18 7.17v0.01z"/>
			</g>
			<g id="g394">
				<path id="path2391" style="stroke-linejoin:round;stroke:#010101;stroke-width:4;stroke-linecap:round;fill:#ffffff" d="m174.49 205.77c0.01 12.78-10.35 23.15-23.13 23.16-12.77 0.01-23.14-10.35-23.15-23.13v-0.03c-0.01-12.78 10.35-23.14 23.13-23.15 12.77-0.01 23.14 10.34 23.15 23.12v0.03z"/>
				<path id="path2395" style="fill:#010101" d="m151.08 208.43c0 3.97-3.21 7.19-7.17 7.19-3.97 0-7.19-3.21-7.19-7.18v-0.01c0-3.96 3.21-7.18 7.18-7.18 3.96-0.01 7.18 3.21 7.18 7.17v0.01z"/>
			</g>
		</g>
		<g id="g398">
			<g id="g3188" transform="translate(0 -10.702)">
				<path id="path3182" style="stroke:#010101;stroke-width:4;stroke-linecap:round;fill:none" d="m167.12 255.6c44.68-16.6 66.51 3.9 66.51 3.9"/>
				<path id="path3184" style="stroke:#010101;stroke-width:4;stroke-linecap:round;fill:none" d="m160.72 266.74c31.63-8.96 52.35 13.89 52.35 13.89"/>
				<path id="path3186" style="stroke:#010101;stroke-width:4;stroke-linecap:round;fill:none" d="m158.09 278.65c24.33-2.57 33.65 19.13 33.65 19.13"/>
			</g>
			<g id="g3193" transform="matrix(-1 0 0 1 651.56 -10.702)">
				<path id="path3195" style="stroke:#010101;stroke-width:4;stroke-linecap:round;fill:none" d="m563.57 255.6c44.67-16.6 66.5 3.9 66.5 3.9"/>
				<path id="path3197_4_" style="stroke:#010101;stroke-width:4;stroke-linecap:round;fill:none" d="m557.16 266.74c31.64-8.96 52.35 13.89 52.35 13.89"/>
				<path id="path3199" style="stroke:#010101;stroke-width:4;stroke-linecap:round;fill:none" d="m554.53 278.65c24.34-2.57 33.66 19.13 33.66 19.13"/>
			</g>
		</g>
	</g>
</g>
<metadata><rdf:RDF><cc:Work><dc:format>image/svg+xml</dc:format><dc:type rdf:resource="http://purl.org/dc/dcmitype/StillImage"/><cc:license rdf:resource="http://creativecommons.org/licenses/publicdomain/"/><dc:publisher><cc:Agent rdf:about="http://openclipart.org/"><dc:title>Openclipart</dc:title></cc:Agent></dc:publisher><dc:title>Cartoon leopard</dc:title><dc:date>2009-03-16T16:52:23</dc:date><dc:description>Cartoon leopard. Remixed from Lemmling's Cartoon Giraffe (color) and Cartoon Cat.</dc:description><dc:source>https://openclipart.org/detail/22343/cartoon-leopard-by-studiofibonacci</dc:source><dc:creator><cc:Agent><dc:title>StudioFibonacci</dc:title></cc:Agent></dc:creator><dc:subject><rdf:Bag><rdf:li>animal</rdf:li><rdf:li>cartoon</rdf:li><rdf:li>cat</rdf:li><rdf:li>leopard</rdf:li><rdf:li>mammal</rdf:li><rdf:li>remix</rdf:li></rdf:Bag></dc:subject></cc:Work><cc:License rdf:about="http://creativecommons.org/licenses/publicdomain/"><cc:permits rdf:resource="http://creativecommons.org/ns#Reproduction"/><cc:permits rdf:resource="http://creativecommons.org/ns#Distribution"/><cc:permits rdf:resource="http://creativecommons.org/ns#DerivativeWorks"/></cc:License></rdf:RDF></metadata></svg>