<?xml version="1.0" encoding="UTF-8" standalone="no"?>
<!-- Created with Inkscape (http://www.inkscape.org/) -->

<svg
   xmlns:dc="http://purl.org/dc/elements/1.1/"
   xmlns:cc="http://creativecommons.org/ns#"
   xmlns:rdf="http://www.w3.org/1999/02/22-rdf-syntax-ns#"
   xmlns:svg="http://www.w3.org/2000/svg"
   xmlns="http://www.w3.org/2000/svg"
   xmlns:sodipodi="http://sodipodi.sourceforge.net/DTD/sodipodi-0.dtd"
   xmlns:inkscape="http://www.inkscape.org/namespaces/inkscape"
   id="Layer_1"
   xml:space="preserve"
   version="1.0"
   viewBox="0 0 842.57572 708.25493"
   inkscape:version="0.92.3 (2405546, 2018-03-11)"
   sodipodi:docname="StudioFibonacci-Cartoon-monkey.adapted.svg"
   width="842.57574"
   height="708.25494"><sodipodi:namedview
   pagecolor="#ffffff"
   bordercolor="#666666"
   borderopacity="1"
   objecttolerance="10"
   gridtolerance="10"
   guidetolerance="10"
   inkscape:pageopacity="0"
   inkscape:pageshadow="2"
   inkscape:window-width="2560"
   inkscape:window-height="1373"
   id="namedview68"
   showgrid="false"
   fit-margin-top="50"
   fit-margin-left="50"
   fit-margin-right="50"
   fit-margin-bottom="50"
   inkscape:zoom="1.6660667"
   inkscape:cx="421.28787"
   inkscape:cy="354.12747"
   inkscape:window-x="-9"
   inkscape:window-y="-9"
   inkscape:window-maximized="1"
   inkscape:current-layer="Layer_1" /><defs
   id="defs70" />
<g
   id="g236"
   transform="matrix(2,0,0,2,49.950885,49.999504)"
   style="stroke-width:0.5;stroke-miterlimit:4;stroke-dasharray:none">
	<g
   id="tail"
   style="stroke-width:0.5;stroke-miterlimit:4;stroke-dasharray:none">
		<path
   id="path3229"
   style="fill:#ffffff;stroke:#010101;stroke-width:0.5;opacity:1;stroke-miterlimit:4;stroke-dasharray:none"
   d="M 139.72,220.17 C 93.054,175.97 62.902,226.92 32.28,209.5 6.445,189.33 25.778,158.83 40.362,146.12 68.033,122.01 31.764,131.78 28.901,132.59 c -8.613,2.42 -43.598,47.05 -17.232,81.69 36.677,48.18 69.314,-6.8 113.66,24.25 37.71,26.39 13.67,-17.33 14.39,-18.36 z"
   inkscape:connector-curvature="0" />
		
	</g>
	<g
   id="body"
   style="stroke-width:0.5;stroke-miterlimit:4;stroke-dasharray:none">
		<path
   id="path2383"
   style="fill:#ffffff;stroke:#010101;stroke-width:0.5;stroke-linecap:round;stroke-linejoin:round;opacity:1;stroke-miterlimit:4;stroke-dasharray:none"
   d="m 342,160.92 c 0.04,68.14 -55.16,123.42 -123.31,123.46 -68.14,0.05 -123.42,-55.15 -123.46,-123.3 -0.005,-0.05 -0.005,-0.11 -0.005,-0.16 -0.046,-68.149 55.155,-123.43 123.3,-123.47 68.15,-0.049 123.43,55.157 123.48,123.3 v 0.17 z"
   inkscape:connector-curvature="0" />
		
	</g>
	<g
   id="g244"
   style="stroke-width:0.5;stroke-miterlimit:4;stroke-dasharray:none">
		<g
   id="g246"
   style="stroke-width:0.5;stroke-miterlimit:4;stroke-dasharray:none">
			<g
   id="g248"
   style="stroke-width:0.5;stroke-miterlimit:4;stroke-dasharray:none">
				<path
   id="path250"
   style="fill:#ffffff;stroke:#010101;stroke-width:0.5;stroke-linecap:round;opacity:1;stroke-miterlimit:4;stroke-dasharray:none"
   d="m 319.26,89.999 c -11.73,-12.387 74.9,82.721 42.94,116.58 -24.94,26.42 -47,39 -56,30 l 6,-25 c 0,0 28,-20 19,-29 -9,-9 -19,-19 -19,-28"
   inkscape:connector-curvature="0" />
				
			</g>
			<g
   id="g253"
   style="stroke-width:0.5;stroke-miterlimit:4;stroke-dasharray:none">
				<path
   id="path255"
   style="fill:#ffffff;stroke:#010101;stroke-width:0.5;stroke-linecap:round;stroke-linejoin:round;opacity:1;stroke-miterlimit:4;stroke-dasharray:none"
   d="m 300.87,209.18 c 12.36,-3.44 23.36,5.03 29.44,16.89 6.96,13.57 1.59,30.23 -11.98,37.18 -13.57,6.96 -18.73,-4.3 -25.68,-17.87 -2.31,-4.52 -9.2,-17.37 -10.84,-20.58 -3.47,-6.76 -6.52,-12.12 0.24,-15.59 5.59,-2.87 14.72,-4.4 18.82,-0.03 z"
   inkscape:connector-curvature="0" />
				<path
   id="path2510_6_"
   style="fill:#ffffff;stroke:#010101;stroke-width:0.5;stroke-linecap:round;opacity:1;stroke-miterlimit:4;stroke-dasharray:none"
   d="m 298.51,253.47 c 8.26,-1.45 15.3,-8.24 15.3,-8.24"
   inkscape:connector-curvature="0" />
				<path
   id="path2512_6_"
   style="fill:#ffffff;stroke:#010101;stroke-width:0.5;stroke-linecap:round;opacity:1;stroke-miterlimit:4;stroke-dasharray:none"
   d="m 291.67,244.05 c 10.12,-8.59 20.82,-10.18 20.82,-10.18"
   inkscape:connector-curvature="0" />
				<path
   id="path2514_12_"
   style="fill:#ffffff;stroke:#010101;stroke-width:0.5;stroke-linecap:round;opacity:1;stroke-miterlimit:4;stroke-dasharray:none"
   d="m 287.78,233.54 c 5.88,-10.03 15.46,-8.93 15.46,-8.93"
   inkscape:connector-curvature="0" />
				<path
   id="path2514_11_"
   style="fill:#ffffff;stroke:#010101;stroke-width:0.5;stroke-linecap:round;opacity:1;stroke-miterlimit:4;stroke-dasharray:none"
   d="m 282.2,222.64 c 4.81,-9.47 13.51,-7.92 13.51,-7.92"
   inkscape:connector-curvature="0" />
				
			</g>
		</g>
		<g
   id="g262"
   style="stroke-width:0.5;stroke-miterlimit:4;stroke-dasharray:none">
			<g
   id="g264"
   style="stroke-width:0.5;stroke-miterlimit:4;stroke-dasharray:none">
				<path
   id="path266"
   style="fill:#ffffff;stroke:#010101;stroke-width:0.5;stroke-linecap:round;opacity:1;stroke-miterlimit:4;stroke-dasharray:none"
   d="m 117.52,89.999 c 11.74,-12.386 -74.899,82.721 -42.939,116.58 24.941,26.42 46.999,39 55.999,30 l -6,-25 c 0,0 -27.999,-20 -19,-29 9,-9 19,-19 19,-28"
   inkscape:connector-curvature="0" />
			</g>
			<g
   id="g268"
   style="stroke-width:0.5;stroke-miterlimit:4;stroke-dasharray:none">
				<path
   id="path270"
   style="fill:#ffffff;stroke:#010101;stroke-width:0.5;stroke-linecap:round;stroke-linejoin:round;opacity:1;stroke-miterlimit:4;stroke-dasharray:none"
   d="m 135.92,209.18 c -12.37,-3.44 -23.36,5.03 -29.45,16.89 -6.95,13.57 -1.58,30.23 11.98,37.18 13.57,6.96 18.73,-4.3 25.69,-17.87 2.31,-4.52 9.19,-17.37 10.84,-20.58 3.46,-6.76 6.52,-12.12 -0.24,-15.59 -5.59,-2.87 -14.73,-4.4 -18.82,-0.03 z"
   inkscape:connector-curvature="0" />
				<path
   id="path2510_1_"
   style="fill:#ffffff;stroke:#010101;stroke-width:0.5;stroke-linecap:round;opacity:1;stroke-miterlimit:4;stroke-dasharray:none"
   d="m 138.28,253.47 c -8.27,-1.45 -15.3,-8.24 -15.3,-8.24"
   inkscape:connector-curvature="0" />
				<path
   id="path2512_1_"
   style="fill:#ffffff;stroke:#010101;stroke-width:0.5;stroke-linecap:round;opacity:1;stroke-miterlimit:4;stroke-dasharray:none"
   d="M 145.11,244.05 C 135,235.46 124.3,233.87 124.3,233.87"
   inkscape:connector-curvature="0" />
				<path
   id="path2514_2_"
   style="fill:#ffffff;stroke:#010101;stroke-width:0.5;stroke-linecap:round;opacity:1;stroke-miterlimit:4;stroke-dasharray:none"
   d="m 149,233.54 c -5.88,-10.03 -15.45,-8.93 -15.45,-8.93"
   inkscape:connector-curvature="0" />
				<path
   id="path2514_1_"
   style="fill:#ffffff;stroke:#010101;stroke-width:0.5;stroke-linecap:round;opacity:1;stroke-miterlimit:4;stroke-dasharray:none"
   d="m 154.58,222.64 c -4.81,-9.47 -13.51,-7.92 -13.51,-7.92"
   inkscape:connector-curvature="0" />
				
			</g>
		</g>
	</g>
	<g
   id="g277"
   style="stroke-width:0.5;stroke-miterlimit:4;stroke-dasharray:none">
		<g
   id="g279"
   style="stroke-width:0.5;stroke-miterlimit:4;stroke-dasharray:none">
			<path
   id="path2479"
   style="fill:#ffffff;stroke:#010101;stroke-width:0.5;stroke-linecap:round;stroke-linejoin:round;opacity:1;stroke-miterlimit:4;stroke-dasharray:none"
   d="m 147.31,27.978 c -14.97,0 -27.12,12.15 -27.12,27.117 0,9.685 5.09,18.175 12.73,22.971 -8.08,14.287 -12.73,30.774 -12.73,48.354 0,54.33 44.07,98.44 98.4,98.44 54.33,0 98.44,-44.11 98.44,-98.44 0,-17.58 -4.65,-34.067 -12.73,-48.354 7.62,-4.8 12.73,-13.299 12.73,-22.971 0,-14.967 -12.15,-27.117 -27.12,-27.117 -9.67,0 -18.13,5.104 -22.93,12.733 -14.29,-8.094 -30.8,-12.733 -48.39,-12.733 -17.59,0 -34.06,4.643 -48.35,12.733 -4.8,-7.629 -13.26,-12.733 -22.93,-12.733 z"
   inkscape:connector-curvature="0" />
			<path
   id="path2483"
   style="fill:#ffffff;stroke:#010101;stroke-width:0.5;stroke-linecap:round;stroke-linejoin:round;opacity:1;stroke-miterlimit:4;stroke-dasharray:none"
   d="m 290.24,39.481 c -5.44,0 -10.19,2.865 -12.9,7.147 8.32,5.602 15.48,12.755 21.08,21.075 4.26,-2.712 7.11,-7.503 7.11,-12.931 0,-8.438 -6.85,-15.291 -15.29,-15.291 z"
   inkscape:connector-curvature="0" />
			<path
   id="path2523"
   style="fill:#ffffff;stroke:#010101;stroke-width:0.5;stroke-linecap:round;stroke-linejoin:round;opacity:1;stroke-miterlimit:4;stroke-dasharray:none"
   d="m 147.24,39.481 c 5.44,0 10.19,2.865 12.9,7.147 -8.32,5.602 -15.48,12.755 -21.08,21.075 -4.26,-2.712 -7.11,-7.503 -7.11,-12.931 0,-8.438 6.85,-15.291 15.29,-15.291 z"
   inkscape:connector-curvature="0" />
			<path
   id="path3197"
   style="fill:#ffffff;stroke:#010101;stroke-width:0.5;stroke-linecap:round;stroke-linejoin:round;opacity:1;stroke-miterlimit:4;stroke-dasharray:none"
   d="M 242.86,41.785 C 253.19,35.759 249.71,6.172 244.8,4.04 240.39,19.907 235.98,26.201 228.3,31.178 230.48,21.35 228.92,7.836 221.62,2 c 0.74,8.4 -1.88,21.043 -10.68,29.662 -2.39,-9.097 -3.06,-19.628 -12.04,-23.207 2.21,10.73 -0.15,17.419 -2.79,24.631"
   inkscape:connector-curvature="0" />
		</g>
		<path
   id="path285"
   style="fill:#ffffff;stroke:#010101;stroke-width:0.5;stroke-linecap:round;stroke-linejoin:round;opacity:1;stroke-miterlimit:4;stroke-dasharray:none"
   d="m 275,126.97 c 0.22,-2.91 0.34,-5.88 0.34,-8.89 v -0.09 C 275.33,80.051 257.49,49.319 235.5,49.345 c -6.04,0.006 -11.76,2.345 -16.89,6.5 -5.14,-4.169 -10.88,-6.507 -16.94,-6.5 -21.99,0.025 -39.81,30.797 -39.79,68.735 v 0.09 c 0,2.98 0.12,5.92 0.34,8.8 -11.9,8.92 -19.12,20.67 -19.11,33.56 v 0.06 c 0.03,27.86 33.85,47.43 75.55,47.41 41.7,-0.02 75.48,-19.62 75.45,-47.47 v -0.07 C 294.1,147.6 286.88,135.87 275,126.97 Z"
   inkscape:connector-curvature="0" />
		<path
   id="path287"
   style="fill:none;stroke:#010101;stroke-width:0.5;stroke-linecap:round;stroke-linejoin:round;opacity:1;stroke-miterlimit:4;stroke-dasharray:none"
   d="m 163.61,148 c 0,0 20.63,27.5 55,27.5 34.38,0 55,-27.5 55,-27.5"
   inkscape:connector-curvature="0" />
		<g
   id="g289"
   style="stroke-width:0.5;stroke-miterlimit:4;stroke-dasharray:none">
			<path
   id="path2398"
   style="fill:#010101;opacity:1;stroke-width:0.5;stroke-miterlimit:4;stroke-dasharray:none"
   d="m 234.98,122.83 c -2.29,3.98 -6.5,5.84 -9.4,4.17 -2.89,-1.67 -3.38,-6.25 -1.09,-10.22 2.29,-3.98 6.5,-5.84 9.4,-4.17 2.9,1.67 3.38,6.25 1.09,10.22 z"
   inkscape:connector-curvature="0" />
			<path
   id="path2412"
   style="fill:#010101;opacity:1;stroke-width:0.5;stroke-miterlimit:4;stroke-dasharray:none"
   d="m 202.24,122.83 c 2.3,3.98 6.5,5.84 9.4,4.17 2.9,-1.67 3.38,-6.25 1.09,-10.22 -2.29,-3.98 -6.5,-5.84 -9.4,-4.17 -2.89,1.67 -3.38,6.25 -1.09,10.22 z"
   inkscape:connector-curvature="0" />
		</g>
		<g
   id="g293"
   style="stroke-width:0.5;stroke-miterlimit:4;stroke-dasharray:none">
			<g
   id="g295"
   style="stroke-width:0.5;stroke-miterlimit:4;stroke-dasharray:none">
				<path
   id="path2387"
   style="fill:#ffffff;stroke:#010101;stroke-width:0.5;stroke-linecap:round;stroke-linejoin:round;opacity:1;stroke-miterlimit:4;stroke-dasharray:none"
   d="m 215.26,87.838 c 0.01,11.501 -9.31,20.832 -20.81,20.842 -11.5,0 -20.83,-9.314 -20.84,-20.814 v -0.028 c -0.01,-11.501 9.31,-20.831 20.81,-20.839 11.5,-0.007 20.83,9.31 20.84,20.811 z"
   inkscape:connector-curvature="0" />
				<path
   id="path2393"
   style="fill:#010101;opacity:1;stroke-width:0.5;stroke-miterlimit:4;stroke-dasharray:none"
   d="m 207.12,90.232 c 0,3.569 -2.89,6.464 -6.46,6.467 -3.57,0.001 -6.46,-2.889 -6.46,-6.458 v -0.009 c -0.01,-3.569 2.88,-6.465 6.45,-6.467 3.57,-0.003 6.47,2.889 6.47,6.458 z"
   inkscape:connector-curvature="0" />
			</g>
			<g
   id="g299"
   style="stroke-width:0.5;stroke-miterlimit:4;stroke-dasharray:none">
				<path
   id="path2391"
   style="fill:#ffffff;stroke:#010101;stroke-width:0.5;stroke-linecap:round;stroke-linejoin:round;opacity:1;stroke-miterlimit:4;stroke-dasharray:none"
   d="m 263.61,87.838 c 0.01,11.501 -9.31,20.832 -20.81,20.842 -11.5,0 -20.83,-9.314 -20.84,-20.814 v -0.028 c -0.01,-11.501 9.31,-20.831 20.81,-20.839 11.5,-0.007 20.83,9.31 20.84,20.811 z"
   inkscape:connector-curvature="0" />
				<path
   id="path2395"
   style="fill:#010101;opacity:1;stroke-width:0.5;stroke-miterlimit:4;stroke-dasharray:none"
   d="m 242.55,90.232 c 0,3.569 -2.89,6.464 -6.46,6.467 -3.57,0.001 -6.47,-2.889 -6.47,-6.458 v -0.009 c 0,-3.569 2.89,-6.465 6.46,-6.467 3.57,-0.003 6.46,2.889 6.47,6.458 z"
   inkscape:connector-curvature="0" />
			</g>
		</g>
	</g>
	<g
   id="g303"
   style="stroke-width:0.5;stroke-miterlimit:4;stroke-dasharray:none">
		<g
   id="g305"
   style="stroke-width:0.5;stroke-miterlimit:4;stroke-dasharray:none">
			<path
   id="path307"
   style="fill:#ffffff;stroke:#010101;stroke-width:0.5;stroke-linecap:round;stroke-linejoin:round;opacity:1;stroke-miterlimit:4;stroke-dasharray:none"
   d="m 247.58,276 c 2.8,-13.64 16.41,-20.06 30.87,-20.06 16.53,0 29.95,13.42 29.95,29.95 0,16.53 -13.42,15.94 -29.95,15.94 -5.51,0 -21.31,0.29 -25.22,0.29 -8.24,0 -14.93,0.29 -14.93,-7.95 0,-6.81 3.04,-16.38 9.28,-18.17 z"
   inkscape:connector-curvature="0" />
			
			<path
   id="path2510_4_"
   style="fill:none;stroke:#010101;stroke-width:0.5;stroke-linecap:round;opacity:1;stroke-miterlimit:4;stroke-dasharray:none"
   d="m 289.16,300.19 c 2.69,-8.7 -0.39,-18.84 -0.39,-18.84"
   inkscape:connector-curvature="0" />
			<path
   id="path2512_4_"
   style="fill:none;stroke:#010101;stroke-width:0.5;stroke-linecap:round;opacity:1;stroke-miterlimit:4;stroke-dasharray:none"
   d="M 276.69,301.12 C 273.39,287.11 277.16,276 277.16,276"
   inkscape:connector-curvature="0" />
			<path
   id="path2514_8_"
   style="fill:none;stroke:#010101;stroke-width:0.5;stroke-linecap:round;opacity:1;stroke-miterlimit:4;stroke-dasharray:none"
   d="m 264.62,300.67 c -6.77,-10.63 -0.97,-19.32 -0.97,-19.32"
   inkscape:connector-curvature="0" />
			<path
   id="path2514_7_"
   style="fill:none;stroke:#010101;stroke-width:0.5;stroke-linecap:round;opacity:1;stroke-miterlimit:4;stroke-dasharray:none"
   d="m 251.34,300.67 c -6.76,-9.33 -0.96,-16.96 -0.96,-16.96"
   inkscape:connector-curvature="0" />
			
		</g>
		<g
   id="g315"
   style="stroke-width:0.5;stroke-miterlimit:4;stroke-dasharray:none">
			<path
   id="path317"
   style="fill:#ffffff;stroke:#010101;stroke-width:0.5;stroke-linecap:round;stroke-linejoin:round;opacity:1;stroke-miterlimit:4;stroke-dasharray:none"
   d="m 189.13,276 c -2.81,-13.64 -16.41,-20.06 -30.87,-20.06 -16.53,0 -29.95,13.42 -29.95,29.95 0,16.53 13.42,15.94 29.95,15.94 5.5,0 21.31,0.29 25.22,0.29 8.24,0 14.92,0.29 14.92,-7.95 0,-6.81 -3.03,-16.38 -9.27,-18.17 z"
   inkscape:connector-curvature="0" />
			<path
   id="path2510_5_"
   style="fill:none;stroke:#010101;stroke-width:0.5;stroke-linecap:round;opacity:1;stroke-miterlimit:4;stroke-dasharray:none"
   d="m 147.55,300.19 c -2.69,-8.7 0.39,-18.84 0.39,-18.84"
   inkscape:connector-curvature="0" />
			<path
   id="path2512_5_"
   style="fill:none;stroke:#010101;stroke-width:0.5;stroke-linecap:round;opacity:1;stroke-miterlimit:4;stroke-dasharray:none"
   d="M 160.02,301.12 C 163.32,287.11 159.55,276 159.55,276"
   inkscape:connector-curvature="0" />
			<path
   id="path2514_10_"
   style="fill:none;stroke:#010101;stroke-width:0.5;stroke-linecap:round;opacity:1;stroke-miterlimit:4;stroke-dasharray:none"
   d="m 172.1,300.67 c 6.76,-10.63 0.96,-19.32 0.96,-19.32"
   inkscape:connector-curvature="0" />
			<path
   id="path2514_9_"
   style="fill:none;stroke:#010101;stroke-width:0.5;stroke-linecap:round;opacity:1;stroke-miterlimit:4;stroke-dasharray:none"
   d="m 185.37,300.67 c 6.76,-9.33 0.96,-16.96 0.96,-16.96"
   inkscape:connector-curvature="0" />
			
		</g>
	</g>
</g>
<metadata
   id="metadata65"><rdf:RDF><cc:Work><dc:format>image/svg+xml</dc:format><dc:type
         rdf:resource="http://purl.org/dc/dcmitype/StillImage" /><cc:license
         rdf:resource="http://creativecommons.org/publicdomain/zero/1.0/" /><dc:publisher><cc:Agent
           rdf:about="http://openclipart.org/"><dc:title>Openclipart</dc:title></cc:Agent></dc:publisher><dc:title></dc:title><dc:date>2009-03-13T21:06:45</dc:date><dc:description>Cartoon monkey. Remixed from Lemmling's Cartoon Cat and Cartoon Beaver.</dc:description><dc:source>https://openclipart.org/detail/22291/cartoon-monkey-by-studiofibonacci</dc:source><dc:creator><cc:Agent><dc:title>StudioFibonacci</dc:title></cc:Agent></dc:creator><dc:subject><rdf:Bag><rdf:li>cartoon</rdf:li><rdf:li>mammal</rdf:li><rdf:li>monkey</rdf:li><rdf:li>remix</rdf:li></rdf:Bag></dc:subject></cc:Work><cc:License
       rdf:about="http://creativecommons.org/publicdomain/zero/1.0/"><cc:permits
         rdf:resource="http://creativecommons.org/ns#Reproduction" /><cc:permits
         rdf:resource="http://creativecommons.org/ns#Distribution" /><cc:permits
         rdf:resource="http://creativecommons.org/ns#DerivativeWorks" /></cc:License></rdf:RDF></metadata></svg>