<?xml version="1.0" encoding="UTF-8" standalone="no"?>
<!-- Created with Inkscape (http://www.inkscape.org/) -->
<svg xmlns:rdf="http://www.w3.org/1999/02/22-rdf-syntax-ns#" xmlns="http://www.w3.org/2000/svg" xmlns:cc="http://web.resource.org/cc/" xmlns:dc="http://purl.org/dc/elements/1.1/" xmlns:svg="http://www.w3.org/2000/svg" xmlns:inkscape="http://www.inkscape.org/namespaces/inkscape" xmlns:sodipodi="http://sodipodi.sourceforge.net/DTD/sodipodi-0.dtd" xmlns:ns1="http://sozi.baierouge.fr" xmlns:xlink="http://www.w3.org/1999/xlink" id="Layer_1" xml:space="preserve" version="1.0" viewBox="0 0 371.329 304.117" inkscape:version="0.91 r13725">
<g id="g236">
	<g id="tail">
		<path id="path3229" style="stroke:#010101;stroke-width:4;fill:#794522" d="m139.72 220.17c-46.666-44.2-76.818 6.75-107.44-10.67-25.835-20.17-6.502-50.67 8.082-63.38 27.671-24.11-8.598-14.34-11.461-13.53-8.613 2.42-43.598 47.05-17.232 81.69 36.677 48.18 69.314-6.8 113.66 24.25 37.71 26.39 13.67-17.33 14.39-18.36z"/>
		<path id="path3334" style="fill-opacity:.3137;fill:#010101" d="m11.669 214.27c36.675 48.19 69.316-6.78 113.67 24.27 23.79 16.66 22.98 5.39 19.34-5.45-0.74 4.85-5.87 5.73-21.19-4.99-44.347-31.06-76.988 23.91-113.66-24.27-3.711-4.87-6.205-9.94-7.731-15.06 0.539 8.6 3.343 17.32 9.57 25.5z"/>
	</g>
	<g id="body">
		<path id="path2383" style="stroke-linejoin:round;stroke:#010101;stroke-width:4;stroke-linecap:round;fill:#794522" d="m342 160.92c0.04 68.14-55.16 123.42-123.31 123.46-68.14 0.05-123.42-55.15-123.46-123.3-0.005-0.05-0.005-0.11-0.005-0.16-0.046-68.149 55.155-123.43 123.3-123.47 68.15-0.049 123.43 55.157 123.48 123.3v0.17z"/>
		<path id="path3339" style="fill-opacity:.3137;fill:#010101" d="m326.78 102.3c3.2 10.97 4.91 22.58 4.91 34.59 0 68.11-55.27 123.37-123.38 123.37-46.82 0-87.6-26.13-108.5-64.59 15.03 51.2 62.37 88.63 118.41 88.63 68.11 0 123.37-55.27 123.37-123.38 0-21.21-5.37-41.19-14.81-58.62z"/>
	</g>
	<g id="g244">
		<g id="g246">
			<g id="g248">
				<path id="path250" style="stroke:#010101;stroke-width:4;stroke-linecap:round;fill:#794522" d="m319.26 89.999c-11.73-12.387 74.9 82.721 42.94 116.58-24.94 26.42-47 39-56 30l6-25s28-20 19-29-19-19-19-28"/>
				<path id="path3349_2_" style="fill-opacity:.3137;fill:#010101" d="m359.76 156.75c1.75-1 10 8.25 10 36 0 13.43-45.06 47.42-57.25 47.75 6.03-2.52 62.75-40 47.25-83.75z"/>
			</g>
			<g id="g253">
				<path id="path255" style="stroke-linejoin:round;stroke:#010101;stroke-width:4;stroke-linecap:round;fill:#a05b2c" d="m300.87 209.18c12.36-3.44 23.36 5.03 29.44 16.89 6.96 13.57 1.59 30.23-11.98 37.18-13.57 6.96-18.73-4.3-25.68-17.87-2.31-4.52-9.2-17.37-10.84-20.58-3.47-6.76-6.52-12.12 0.24-15.59 5.59-2.87 14.72-4.4 18.82-0.03z"/>
				<path id="path2510_6_" style="stroke:#010101;stroke-width:4;stroke-linecap:round;fill:#a05b2c" d="m298.51 253.47c8.26-1.45 15.3-8.24 15.3-8.24"/>
				<path id="path2512_6_" style="stroke:#010101;stroke-width:4;stroke-linecap:round;fill:#a05b2c" d="m291.67 244.05c10.12-8.59 20.82-10.18 20.82-10.18"/>
				<path id="path2514_12_" style="stroke:#010101;stroke-width:4;stroke-linecap:round;fill:#a05b2c" d="m287.78 233.54c5.88-10.03 15.46-8.93 15.46-8.93"/>
				<path id="path2514_11_" style="stroke:#010101;stroke-width:4;stroke-linecap:round;fill:#a05b2c" d="m282.2 222.64c4.81-9.47 13.51-7.92 13.51-7.92"/>
				<path id="path3349_1_" style="fill-opacity:.3137;fill:#010101" d="m333.16 235.12c-0.74 5.14-2.82 15.49-5.84 20.62-7.44 12.67-14.53 11.19-22.84 6.71 10.88-0.01 22.22-19.39 28.68-27.33z"/>
			</g>
		</g>
		<g id="g262">
			<g id="g264">
				<path id="path266" style="stroke:#010101;stroke-width:4;stroke-linecap:round;fill:#794522" d="m117.52 89.999c11.74-12.386-74.899 82.721-42.939 116.58 24.941 26.42 46.999 39 55.999 30l-6-25s-27.999-20-19-29c9-9 19-19 19-28"/>
			</g>
			<g id="g268">
				<path id="path270" style="stroke-linejoin:round;stroke:#010101;stroke-width:4;stroke-linecap:round;fill:#a05b2c" d="m135.92 209.18c-12.37-3.44-23.36 5.03-29.45 16.89-6.95 13.57-1.58 30.23 11.98 37.18 13.57 6.96 18.73-4.3 25.69-17.87 2.31-4.52 9.19-17.37 10.84-20.58 3.46-6.76 6.52-12.12-0.24-15.59-5.59-2.87-14.73-4.4-18.82-0.03z"/>
				<path id="path2510_1_" style="stroke:#010101;stroke-width:4;stroke-linecap:round;fill:#a05b2c" d="m138.28 253.47c-8.27-1.45-15.3-8.24-15.3-8.24"/>
				<path id="path2512_1_" style="stroke:#010101;stroke-width:4;stroke-linecap:round;fill:#a05b2c" d="m145.11 244.05c-10.11-8.59-20.81-10.18-20.81-10.18"/>
				<path id="path2514_2_" style="stroke:#010101;stroke-width:4;stroke-linecap:round;fill:#a05b2c" d="m149 233.54c-5.88-10.03-15.45-8.93-15.45-8.93"/>
				<path id="path2514_1_" style="stroke:#010101;stroke-width:4;stroke-linecap:round;fill:#a05b2c" d="m154.58 222.64c-4.81-9.47-13.51-7.92-13.51-7.92"/>
				<path id="path3349_3_" style="fill-opacity:.3137;fill:#010101" d="m103.63 235.12c0.74 5.14 2.81 15.49 5.83 20.62 7.44 12.67 14.53 11.19 22.85 6.71-10.88-0.01-22.22-19.39-28.68-27.33z"/>
			</g>
		</g>
	</g>
	<g id="g277">
		<g id="g279">
			<path id="path2479" style="stroke-linejoin:round;stroke:#010101;stroke-width:4;stroke-linecap:round;fill:#794522" d="m147.31 27.978c-14.97 0-27.12 12.15-27.12 27.117 0 9.685 5.09 18.175 12.73 22.971-8.08 14.287-12.73 30.774-12.73 48.354 0 54.33 44.07 98.44 98.4 98.44s98.44-44.11 98.44-98.44c0-17.58-4.65-34.067-12.73-48.354 7.62-4.8 12.73-13.299 12.73-22.971 0-14.967-12.15-27.117-27.12-27.117-9.67 0-18.13 5.104-22.93 12.733-14.29-8.094-30.8-12.733-48.39-12.733s-34.06 4.643-48.35 12.733c-4.8-7.629-13.26-12.733-22.93-12.733z"/>
			<path id="path2483" style="stroke-linejoin:round;stroke:#010101;stroke-width:4;stroke-linecap:round;fill:#a05b2c" d="m290.24 39.481c-5.44 0-10.19 2.865-12.9 7.147 8.32 5.602 15.48 12.755 21.08 21.075 4.26-2.712 7.11-7.503 7.11-12.931 0-8.438-6.85-15.291-15.29-15.291z"/>
			<path id="path2523" style="stroke-linejoin:round;stroke:#010101;stroke-width:4;stroke-linecap:round;fill:#a05b2c" d="m147.24 39.481c5.44 0 10.19 2.865 12.9 7.147-8.32 5.602-15.48 12.755-21.08 21.075-4.26-2.712-7.11-7.503-7.11-12.931 0-8.438 6.85-15.291 15.29-15.291z"/>
			<path id="path3197" style="stroke-linejoin:round;stroke:#010101;stroke-width:4;stroke-linecap:round;fill:#794522" d="m242.86 41.785c10.33-6.026 6.85-35.613 1.94-37.745-4.41 15.867-8.82 22.161-16.5 27.138 2.18-9.828 0.62-23.342-6.68-29.178 0.74 8.4-1.88 21.043-10.68 29.662-2.39-9.097-3.06-19.628-12.04-23.207 2.21 10.73-0.15 17.419-2.79 24.631"/>
		</g>
		<path id="path285" style="stroke-linejoin:round;stroke:#010101;stroke-width:4;stroke-linecap:round;fill:#a05b2c" d="m275 126.97c0.22-2.91 0.34-5.88 0.34-8.89v-0.09c-0.01-37.939-17.85-68.671-39.84-68.645-6.04 0.006-11.76 2.345-16.89 6.5-5.14-4.169-10.88-6.507-16.94-6.5-21.99 0.025-39.81 30.797-39.79 68.735v0.09c0 2.98 0.12 5.92 0.34 8.8-11.9 8.92-19.12 20.67-19.11 33.56v0.06c0.03 27.86 33.85 47.43 75.55 47.41s75.48-19.62 75.45-47.47v-0.07c-0.01-12.86-7.23-24.59-19.11-33.49z"/>
		<path id="path287" style="stroke-linejoin:round;stroke:#010101;stroke-width:4;stroke-linecap:round;fill:none" d="m163.61 148s20.63 27.5 55 27.5c34.38 0 55-27.5 55-27.5"/>
		<g id="g289">
			<path id="path2398" style="fill:#010101" d="m234.98 122.83c-2.29 3.98-6.5 5.84-9.4 4.17-2.89-1.67-3.38-6.25-1.09-10.22 2.29-3.98 6.5-5.84 9.4-4.17s3.38 6.25 1.09 10.22z"/>
			<path id="path2412" style="fill:#010101" d="m202.24 122.83c2.3 3.98 6.5 5.84 9.4 4.17s3.38-6.25 1.09-10.22c-2.29-3.98-6.5-5.84-9.4-4.17-2.89 1.67-3.38 6.25-1.09 10.22z"/>
		</g>
		<g id="g293">
			<g id="g295">
				<path id="path2387" style="stroke-linejoin:round;stroke:#010101;stroke-width:4;stroke-linecap:round;fill:#ffffff" d="m215.26 87.838c0.01 11.501-9.31 20.832-20.81 20.842-11.5 0-20.83-9.314-20.84-20.814v-0.028c-0.01-11.501 9.31-20.831 20.81-20.839 11.5-0.007 20.83 9.31 20.84 20.811v0.028z"/>
				<path id="path2393" style="fill:#010101" d="m207.12 90.232c0 3.569-2.89 6.464-6.46 6.467-3.57 0.001-6.46-2.889-6.46-6.458v-0.009c-0.01-3.569 2.88-6.465 6.45-6.467 3.57-0.003 6.47 2.889 6.47 6.458v0.009z"/>
			</g>
			<g id="g299">
				<path id="path2391" style="stroke-linejoin:round;stroke:#010101;stroke-width:4;stroke-linecap:round;fill:#ffffff" d="m263.61 87.838c0.01 11.501-9.31 20.832-20.81 20.842-11.5 0-20.83-9.314-20.84-20.814v-0.028c-0.01-11.501 9.31-20.831 20.81-20.839 11.5-0.007 20.83 9.31 20.84 20.811v0.028z"/>
				<path id="path2395" style="fill:#010101" d="m242.55 90.232c0 3.569-2.89 6.464-6.46 6.467-3.57 0.001-6.47-2.889-6.47-6.458v-0.009c0-3.569 2.89-6.465 6.46-6.467 3.57-0.003 6.46 2.889 6.47 6.458v0.009z"/>
			</g>
		</g>
	</g>
	<g id="g303">
		<g id="g305">
			<path id="path307" style="stroke-linejoin:round;stroke:#010101;stroke-width:4;stroke-linecap:round;fill:#a05b2c" d="m247.58 276c2.8-13.64 16.41-20.06 30.87-20.06 16.53 0 29.95 13.42 29.95 29.95s-13.42 15.94-29.95 15.94c-5.51 0-21.31 0.29-25.22 0.29-8.24 0-14.93 0.29-14.93-7.95 0-6.81 3.04-16.38 9.28-18.17z"/>
			<path id="path3349_4_" style="fill-opacity:.3137;fill:#010101" d="m301.91 266.75c2.54 4.4 7 13.52 7 18.96 0 13.43-8.86 15.55-21.05 15.88 12.11-5.05 12.05-25.59 14.05-34.84z"/>
			<path id="path2510_4_" style="stroke:#010101;stroke-width:4;stroke-linecap:round;fill:none" d="m289.16 300.19c2.69-8.7-0.39-18.84-0.39-18.84"/>
			<path id="path2512_4_" style="stroke:#010101;stroke-width:4;stroke-linecap:round;fill:none" d="m276.69 301.12c-3.3-14.01 0.47-25.12 0.47-25.12"/>
			<path id="path2514_8_" style="stroke:#010101;stroke-width:4;stroke-linecap:round;fill:none" d="m264.62 300.67c-6.77-10.63-0.97-19.32-0.97-19.32"/>
			<path id="path2514_7_" style="stroke:#010101;stroke-width:4;stroke-linecap:round;fill:none" d="m251.34 300.67c-6.76-9.33-0.96-16.96-0.96-16.96"/>
			<path id="path3327_4_" style="fill-opacity:.3137;fill:#010101" d="m248.08 277.72c-2.49 2.93-3.98 6.54-3.98 10.44 0 5.64 3.08 10.65 7.86 13.9-7.95-0.26-13.65-1.67-13.65-9.32 0-6.34 3.9-11.91 9.77-15.02z"/>
		</g>
		<g id="g315">
			<path id="path317" style="stroke-linejoin:round;stroke:#010101;stroke-width:4;stroke-linecap:round;fill:#a05b2c" d="m189.13 276c-2.81-13.64-16.41-20.06-30.87-20.06-16.53 0-29.95 13.42-29.95 29.95s13.42 15.94 29.95 15.94c5.5 0 21.31 0.29 25.22 0.29 8.24 0 14.92 0.29 14.92-7.95 0-6.81-3.03-16.38-9.27-18.17z"/>
			<path id="path2510_5_" style="stroke:#010101;stroke-width:4;stroke-linecap:round;fill:none" d="m147.55 300.19c-2.69-8.7 0.39-18.84 0.39-18.84"/>
			<path id="path2512_5_" style="stroke:#010101;stroke-width:4;stroke-linecap:round;fill:none" d="m160.02 301.12c3.3-14.01-0.47-25.12-0.47-25.12"/>
			<path id="path2514_10_" style="stroke:#010101;stroke-width:4;stroke-linecap:round;fill:none" d="m172.1 300.67c6.76-10.63 0.96-19.32 0.96-19.32"/>
			<path id="path2514_9_" style="stroke:#010101;stroke-width:4;stroke-linecap:round;fill:none" d="m185.37 300.67c6.76-9.33 0.96-16.96 0.96-16.96"/>
			<path id="path3327_5_" style="fill-opacity:.3137;fill:#010101" d="m188.28 277.47c2.58 2.96 4.11 6.61 4.11 10.55 0 5.69-3.19 10.76-8.15 14.04 8.25-0.26 14.16-1.68 14.16-9.42 0-6.4-4.04-12.03-10.12-15.17z"/>
		</g>
	</g>
</g>
<metadata><rdf:RDF><cc:Work><dc:format>image/svg+xml</dc:format><dc:type rdf:resource="http://purl.org/dc/dcmitype/StillImage"/><cc:license rdf:resource="http://creativecommons.org/licenses/publicdomain/"/><dc:publisher><cc:Agent rdf:about="http://openclipart.org/"><dc:title>Openclipart</dc:title></cc:Agent></dc:publisher><dc:title>Cartoon monkey</dc:title><dc:date>2009-03-13T21:06:45</dc:date><dc:description>Cartoon monkey. Remixed from Lemmling's Cartoon Cat and Cartoon Beaver.</dc:description><dc:source>https://openclipart.org/detail/22291/cartoon-monkey-by-studiofibonacci</dc:source><dc:creator><cc:Agent><dc:title>StudioFibonacci</dc:title></cc:Agent></dc:creator><dc:subject><rdf:Bag><rdf:li>cartoon</rdf:li><rdf:li>mammal</rdf:li><rdf:li>monkey</rdf:li><rdf:li>remix</rdf:li></rdf:Bag></dc:subject></cc:Work><cc:License rdf:about="http://creativecommons.org/licenses/publicdomain/"><cc:permits rdf:resource="http://creativecommons.org/ns#Reproduction"/><cc:permits rdf:resource="http://creativecommons.org/ns#Distribution"/><cc:permits rdf:resource="http://creativecommons.org/ns#DerivativeWorks"/></cc:License></rdf:RDF></metadata></svg>