<?xml version="1.0" encoding="UTF-8" standalone="no"?>
<!-- Created with Inkscape (http://www.inkscape.org/) -->
<svg xmlns:rdf="http://www.w3.org/1999/02/22-rdf-syntax-ns#" xmlns="http://www.w3.org/2000/svg" xmlns:cc="http://web.resource.org/cc/" xmlns:dc="http://purl.org/dc/elements/1.1/" xmlns:svg="http://www.w3.org/2000/svg" xmlns:inkscape="http://www.inkscape.org/namespaces/inkscape" xmlns:sodipodi="http://sodipodi.sourceforge.net/DTD/sodipodi-0.dtd" xmlns:ns1="http://sozi.baierouge.fr" xmlns:xlink="http://www.w3.org/1999/xlink" id="Layer_1" xml:space="preserve" version="1.0" viewBox="0 0 261.052 282.556" inkscape:version="0.91 r13725">
<g id="g236">
	<g id="layer1_1_" transform="translate(-200.08 -237.53)">
		<path id="path3229" style="stroke:#000000;stroke-width:4;fill:#698000" d="m296.06 467.13c63.81-53.38 67.86-6.63 121.64-37.49 28.88-20.41 21.98-40.49 15.74-52.12-8.7-16.22-17.15-22.82-4.97-22.26 9.27 0.42 53.64 37.93 15.29 77.47-53.34 55.01-77.58 8.92-135.62 49.01-49.34 34.08-11.5-13.77-12.08-14.61z"/>
		<path id="path3334" style="fill-opacity:.3137" d="m461.01 400.67c-2.96 5.32-6.53 15-11.92 20.56-53.35 55.01-86.9 19.31-130.49 49.29-20.07 13.8-25.7 14.14-25.39 9.59-6.74 11.35-10.34 22.48 20.81 0.96 58.04-40.08 82.25 6.35 135.04-54.06 9.06-9.34 9.29-17.85 11.95-26.34zm-36.5-45.24c-3.53 3.54 3.23 11.21 6.41 16.29 4.16 10.25 14.66 18.58-0.07 46.94 23.23-15.36 15.56-49.52-6.34-63.23z"/>
	</g>
	<g id="g241">
		<path id="path2383" style="stroke-linejoin:round;stroke:#000000;stroke-width:3.2874;stroke-linecap:round;fill:#698000" d="m199.58 175.99c0.01 51.19-41.48 92.69-92.67 92.69-51.191 0-92.683-41.51-92.664-92.7-0.014-51.19 41.482-92.689 92.674-92.687 51.19 0.003 92.68 41.507 92.66 92.697z"/>
		<path id="path3221" style="fill-opacity:.3137" d="m193.98 144.2c0.06 1.42 0.1 2.87 0.1 4.31 0 51.15-41.51 92.66-92.66 92.66-39.986 0-74.103-25.39-87.084-60.89 2.243 49.16 42.866 88.38 92.584 88.38 51.15 0.01 92.66-41.5 92.66-92.66 0-11.16-1.97-21.88-5.6-31.8z"/>
	</g>
	<g id="g245">
		<g id="g247">
			<path id="path3245" style="stroke-linejoin:round;stroke:#000000;stroke-width:4;stroke-linecap:round;fill:#698000" d="m33.266 258.92c-0.007 19.19 15.546 21.63 34.732 21.63 19.188 0 34.742-2.44 34.732-21.63 0.01-19.18-16.196-29.78-34.729-34.74-28.831-7.73-34.74 15.55-34.735 34.74z"/>
			<g id="g250">
				<path id="path3239" style="stroke-linejoin:round;stroke:#000000;stroke-width:4;stroke-linecap:round;fill:#ffffff" d="m95.035 269.74c1.391 5.19-2.75 7-8.076 8.43-5.327 1.43-9.82 1.92-11.208-3.26-1.391-5.19 1.802-10.54 7.127-11.97 5.326-1.43 10.77 1.62 12.157 6.8z"/>
				<path id="path3241" style="stroke-linejoin:round;stroke:#000000;stroke-width:4;stroke-linecap:round;fill:#ffffff" d="m59.977 275.36c-1.389 5.18-5.882 4.68-11.208 3.26-5.326-1.43-9.467-3.25-8.076-8.43 1.388-5.19 6.832-8.23 12.158-6.81 5.325 1.43 8.516 6.79 7.126 11.98z"/>
				<path id="path3243" style="stroke-linejoin:round;stroke:#000000;stroke-width:4;stroke-linecap:round;fill:#ffffff" d="m77.135 274.5c0.002 5.37-4.468 6.05-9.982 6.05s-9.983-0.68-9.981-6.05c-0.002-5.36 4.469-9.72 9.982-9.72 5.514 0 9.983 4.36 9.981 9.72z"/>
			</g>
			<path id="path3297" style="fill-opacity:.3137" d="m78.995 227.98c4.751 6.23 7.668 14 7.665 23.6 0.005 22.7-15.553 25.6-34.739 25.6-2.97 0-5.842-0.1-8.593-0.3 6.294 3.06 15.017 3.68 24.666 3.68 19.187 0 34.746-2.46 34.736-21.65 0.01-15.25-10.231-25.05-23.735-30.93z"/>
		</g>
		<g id="g256">
			<path id="path3220" style="stroke-linejoin:round;stroke:#000000;stroke-width:4;stroke-linecap:round;fill:#698000" d="m180.56 258.93c0.01 19.18-15.54 21.63-34.73 21.63s-34.74-2.45-34.73-21.64c-0.01-19.18 16.2-29.78 34.73-34.74 28.83-7.72 34.74 15.56 34.73 34.75z"/>
			<g id="g259">
				<path id="path3235_1_" style="stroke-linejoin:round;stroke:#000000;stroke-width:4;stroke-linecap:round;fill:#ffffff" d="m173.71 269.74c1.39 5.19-2.75 7.01-8.07 8.43-5.33 1.43-9.82 1.93-11.21-3.26-1.39-5.18 1.8-10.54 7.13-11.97 5.32-1.43 10.76 1.62 12.15 6.8z"/>
				<path id="path3237" style="stroke-linejoin:round;stroke:#000000;stroke-width:4;stroke-linecap:round;fill:#ffffff" d="m138.65 275.36c-1.39 5.18-5.88 4.69-11.2 3.26-5.33-1.43-9.47-3.24-8.08-8.43 1.39-5.18 6.83-8.23 12.16-6.8 5.32 1.43 8.51 6.79 7.12 11.97z"/>
				<path id="path3224" style="stroke-linejoin:round;stroke:#000000;stroke-width:4;stroke-linecap:round;fill:#ffffff" d="m155.81 274.51c0.01 5.36-4.47 6.05-9.98 6.05s-9.98-0.69-9.98-6.05c0-5.37 4.47-9.72 9.98-9.72s9.98 4.35 9.98 9.72z"/>
			</g>
			<path id="path3358" style="fill-opacity:.3137" d="m161.5 223.18c8.94 6.89 11.29 20.87 11.29 33.2 0 19.86-16.08 22.39-35.93 22.39-4.31 0-8.41-0.14-12.24-0.53 5.86 1.88 13.21 2.3 21.2 2.3 19.19 0.01 34.75-2.43 34.74-21.62 0-15.03-3.62-32.56-19.06-35.74z"/>
		</g>
	</g>
	<g id="g265">
		<path id="path3231_3_" style="fill-opacity:.3137" d="m163.23 107.68c1.35 5.9 2.8 12.15 2.8 18.64 0 34.88-42.58 63.2-63.21 63.2-15.989 0-47.181-18.35-58.735-43.71 5.878 31.08 44.147 55.12 62.455 55.12 20.63 0 63.2-28.31 63.2-63.2 0-10.87-2.63-21.11-6.51-30.05z"/>
		<g id="g268">
			<path id="path270" style="stroke-linejoin:round;stroke:#000000;stroke-width:4;stroke-linecap:round;fill:#698000" d="m210.93 103.8c0-11.193-13.56-20.776-15.41-30.798-2.03-11.044 6.47-25.727 1.1-34.585-5.38-8.883-21.58-7.54-31.46-13.423-8.18-4.865-13.55-20.498-25.52-22.808-9.34-1.804-21.17 10.083-33.18 10.083-11.95 0-23.784-11.85-33.119-9.993-11.857 2.358-17.103 18.024-25.27 22.965-9.757 5.902-25.973 4.553-31.398 13.413-5.402 8.823 2.979 23.527 0.864 34.502-1.926 9.992-15.54 19.489-15.537 30.644-0.003 10.36 14.17 17.39 17.144 25.58 3.36 9.25-2.229 23.91 4.293 30.51 6.467 6.55 21.622 1.37 30.533 5.44 1.089 0.5 3.605 0.93 7.153 1.29 14.603 13.76 32.168 22.42 43.627 22.42 11.89 0 30.65-8.58 45.65-22.28 4.29-0.4 7.33-0.87 8.55-1.43 8.91-4.07 24.07 1.11 30.54-5.44 6.52-6.6 0.93-21.26 4.29-30.51 2.97-8.19 17.15-15.22 17.15-25.58z"/>
			<path id="path272" style="fill-opacity:.3137" d="m207.41 92.928c-1.46 14.012-10.15 14.462-16.81 25.112-3.83 6.12 0.5 27.45-4.72 32.41-4.84 4.61-15.94 2.85-24.4 3.74-2.52 0.27-4.81 0.76-6.62 1.73-3.29 1.76-26.38 16.05-31.44 18.51-8.06 3.91-16.74 5.09-22.73 5.09-6.29 0-16.118-4.93-24.558-10.22-13.365-8.36-15.032-9.36-27.271-13.79-9.849-3.56-17.854 2.07-27.838-3.7 2.109 19.89 17.143 8.25 33.359 13.14 1.247 0.38 3.611 2.75 6.81 3.11 14.755 12.92 32.495 20.97 43.568 20.97 11.09 0 27.96-7.47 42.27-19.58 5.24-2.51 9.69-2.37 11.6-3.5 8.63-5.07 26.07 3.38 31.76-4.47 4.5-6.2 2.76-23.76 4.99-31.78 1.91-6.85 16.45-16.09 16.45-24.31 0-6.23-3.31-6.553-4.42-12.462z"/>
		</g>
		<g id="g274">
			<g id="g276">
				<g id="g278">
					<path id="path3159_1_" style="stroke-linejoin:round;stroke:#000000;stroke-width:4;stroke-linecap:round;fill:#ffffff" d="m165.31 109.66c0.01 10.58-8.58 19.17-19.17 19.17s-19.18-8.59-19.17-19.18c-0.01-10.589 8.58-19.176 19.17-19.175 10.59 0.002 19.18 8.588 19.17 19.185z"/>
					<path id="path3161_1_" d="m148.27 113.04c0 3.53-2.86 6.39-6.39 6.39s-6.39-2.86-6.39-6.39 2.86-6.4 6.39-6.4 6.39 2.87 6.39 6.4z"/>
				</g>
				<g id="g282">
					<path id="path3157_1_" style="stroke-linejoin:round;stroke:#000000;stroke-width:4;stroke-linecap:round;fill:#ffffff" d="m86.863 109.65c0.003 10.59-8.583 19.18-19.174 19.18s-19.175-8.59-19.172-19.18c-0.002-10.592 8.583-19.179 19.174-19.178s19.176 8.588 19.172 19.178z"/>
					<path id="path3163_1_" d="m78.874 113.04c0.002 3.52-2.86 6.39-6.391 6.39s-6.393-2.87-6.391-6.4c-0.001-3.53 2.861-6.39 6.391-6.39 3.531 0 6.392 2.86 6.391 6.4z"/>
				</g>
			</g>
			<g id="g286">
				<path id="path2398_2_" d="m120.76 169.33c-1.94 3.36-5.5 4.94-7.95 3.52-2.45-1.41-2.86-5.28-0.92-8.64s5.5-4.94 7.95-3.53c2.45 1.42 2.86 5.29 0.92 8.65z"/>
				<path id="path2412_1_" d="m93.067 169.33c1.939 3.36 5.5 4.94 7.953 3.52 2.45-1.41 2.86-5.28 0.92-8.64s-5.5-4.94-7.95-3.53c-2.45 1.42-2.864 5.29-0.923 8.65z"/>
			</g>
			<g id="g290">
				<path id="path3214_4_" style="stroke-linejoin:round;stroke:#000000;stroke-width:4;fill:#ffffff" d="m113.87 154.62c4.37-4.64-3.99-27.48-7.45-25.36-3.46 2.13-9.907 19.89-6.925 24.59 2.805 4.42 9.775 5.65 14.375 0.77z"/>
				<path id="path3363_3_" style="fill-opacity:.3137" d="m113.86 154.62c4.37-4.64-3.99-27.49-7.45-25.36-0.33 0.2-0.68 0.55-1.06 1.02 3.67 0.11 9.2 21.99 4.6 26.04-0.63 0.55-1.3 1.01-1.97 1.37 2.06-0.25 4.14-1.22 5.88-3.07z"/>
			</g>
			<g id="g294">
				<path id="path3190_1_" style="stroke-linejoin:round;stroke:#000000;stroke-width:4;fill:#ffffff" d="m125.61 68.875c-4.3-9.52 20.84-40.438 25.07-35.303 4.22 5.133 4.74 36.085-2.39 41.779-6.71 5.356-18.16 3.54-22.68-6.476z"/>
				<g id="g297">
					<path id="path3214_3_" style="stroke-linejoin:round;stroke:#000000;stroke-width:4;fill:#ffffff" d="m88.222 68.875c4.296-9.52-20.841-40.438-25.067-35.303-4.227 5.133-4.738 36.085 2.391 41.779 6.706 5.356 18.156 3.54 22.676-6.476z"/>
					<path id="path3363_2_" style="fill-opacity:.3137" d="m88.217 68.887c4.295-9.52-20.852-40.463-25.079-35.328-0.407 0.492-0.759 1.228-1.093 2.152 5.749-1.78 25.98 29.171 21.012 37.891-0.68 1.193-1.475 2.257-2.323 3.178 3.069-1.497 5.768-4.097 7.483-7.893z"/>
				</g>
			</g>
		</g>
	</g>
</g>
<metadata><rdf:RDF><cc:Work><dc:format>image/svg+xml</dc:format><dc:type rdf:resource="http://purl.org/dc/dcmitype/StillImage"/><cc:license rdf:resource="http://creativecommons.org/licenses/publicdomain/"/><dc:publisher><cc:Agent rdf:about="http://openclipart.org/"><dc:title>Openclipart</dc:title></cc:Agent></dc:publisher><dc:title>Cartoon triceratops</dc:title><dc:date>2009-03-30T17:01:10</dc:date><dc:description>Cartoon triceratops remixed from  Lemmling's Cartoon Elephant (most of body), Cartoon Cat (tail) and Cartoon Turtle (color).</dc:description><dc:source>https://openclipart.org/detail/23511/cartoon-triceratops-by-studiofibonacci</dc:source><dc:creator><cc:Agent><dc:title>StudioFibonacci</dc:title></cc:Agent></dc:creator><dc:subject><rdf:Bag><rdf:li>cartoon</rdf:li><rdf:li>dinosaur</rdf:li><rdf:li>lizard</rdf:li><rdf:li>remix</rdf:li><rdf:li>triceratops</rdf:li></rdf:Bag></dc:subject></cc:Work><cc:License rdf:about="http://creativecommons.org/licenses/publicdomain/"><cc:permits rdf:resource="http://creativecommons.org/ns#Reproduction"/><cc:permits rdf:resource="http://creativecommons.org/ns#Distribution"/><cc:permits rdf:resource="http://creativecommons.org/ns#DerivativeWorks"/></cc:License></rdf:RDF></metadata></svg>
