<?xml version="1.0" encoding="UTF-8" standalone="no"?>
<!-- Created with Inkscape (http://www.inkscape.org/) -->

<svg
   xmlns:dc="http://purl.org/dc/elements/1.1/"
   xmlns:cc="http://creativecommons.org/ns#"
   xmlns:rdf="http://www.w3.org/1999/02/22-rdf-syntax-ns#"
   xmlns:svg="http://www.w3.org/2000/svg"
   xmlns="http://www.w3.org/2000/svg"
   xmlns:sodipodi="http://sodipodi.sourceforge.net/DTD/sodipodi-0.dtd"
   xmlns:inkscape="http://www.inkscape.org/namespaces/inkscape"
   id="Layer_1"
   xml:space="preserve"
   version="1.0"
   viewBox="0 0 458.7491 659.03093"
   inkscape:version="0.92.3 (2405546, 2018-03-11)"
   sodipodi:docname="StudioFibonacci-Cartoon-lion.adapted.svg"
   width="458.74908"
   height="659.03094"><sodipodi:namedview
   pagecolor="#ffffff"
   bordercolor="#666666"
   borderopacity="1"
   objecttolerance="10"
   gridtolerance="10"
   guidetolerance="10"
   inkscape:pageopacity="0"
   inkscape:pageshadow="2"
   inkscape:window-width="2560"
   inkscape:window-height="1373"
   id="namedview57"
   showgrid="false"
   inkscape:zoom="1.7905077"
   inkscape:cx="229.37454"
   inkscape:cy="329.51547"
   inkscape:window-x="-9"
   inkscape:window-y="-9"
   inkscape:window-maximized="1"
   inkscape:current-layer="g272"
   fit-margin-top="50"
   fit-margin-left="50"
   fit-margin-right="50"
   fit-margin-bottom="50" /><defs
   id="defs59" />
<g
   transform="matrix(1.3,0,0,1.3,50.012595,50.018163)"
   id="g236">
	<g
   id="tail"
   style="stroke-width:0.76923077;stroke-miterlimit:4;stroke-dasharray:none">
		<path
   inkscape:connector-curvature="0"
   d="M 109.68,182.41 C 100.24,118.83 164.08,114.55 156.9,89.241 149.42,62.917 120.38,70.355 105.28,66.578 90.167,62.801 92.395,48.845 101.5,41.397 c 6.92,-5.666 63.55,-8.729 76.8,32.735 18.44,57.678 -45.33,52.878 -45.33,107.02 0,46.03 -22.03,1.26 -23.29,1.26 z"
   style="fill:#ffffff;stroke:#010101;stroke-width:0.76923077;opacity:1;stroke-miterlimit:4;stroke-dasharray:none"
   id="path3229" />
		
		<path
   inkscape:connector-curvature="0"
   d="M 81.221,28.314 C 70.592,29.821 55.991,39.707 56.587,43.346 70.192,39.119 76.835,39.377 84.053,42.634 75.885,45.653 66.788,53.12 65.96,61.157 70.009,58.014 76.359,55.097 83.382,54.46 86.355,54.19 74.924,77.319 78.725,79.964 85.17,67.26 89.983,62.674 97.349,59.766 c -3.526,7.962 -4.505,19.691 0.684,25.885 0.546,-4.907 2.727,-11.199 6.847,-16.555 1.98,-2.558 17.66,20.835 21.79,18.738 -8.14,-11.688 -9.91,-18.098 -8.98,-25.963 5.35,6.873 15.21,13.284 23.13,11.642 -3.51,-2.415 -9.11,-7.515 -11.88,-12.512 -1.98,-3.572 26.26,-4.187 26.43,-8.814 -14.18,1.467 -20.64,-0.093 -27.07,-4.707 8.6,-1.353 18.99,-6.884 21.38,-14.601 -5.26,2.618 -13.42,4.35 -21.47,2.65 -1.95,-0.412 -3.9,-1.024 -5.79,-1.875 0,0 14.26,-22.523 10.38,-25.054 -6.07,12.89 -11.43,14.815 -18.71,17.94 3.29,-8.063 4.61,-17.015 -0.76,-23.053 -0.4,4.978 -2.44,11.421 -6.49,16.938 C 104.97,22.967 88.707,-0.068 84.643,2.151 93.129,13.594 95.081,19.948 94.393,27.838 88.844,21.127 78.789,15.009 70.93,16.884 c 6.124,3.961 13.009,11.045 10.291,11.43 z"
   style="fill:#ffffff;stroke:#010101;stroke-width:0.76923077;stroke-linecap:round;stroke-linejoin:round;opacity:1;stroke-miterlimit:4;stroke-dasharray:none"
   id="path3197_3_" />
	</g>
	<g
   id="body"
   style="stroke-width:0.76923077;stroke-miterlimit:4;stroke-dasharray:none">
		<path
   inkscape:connector-curvature="0"
   d="M 261.36,286.91 C 261.4,355.05 206.2,410.33 138.05,410.38 69.91,410.42 14.63,355.22 14.59,287.07 c -0.005,-0.05 -0.005,-0.11 -0.005,-0.16 -0.045,-68.15 55.16,-123.43 123.3,-123.47 68.15,-0.05 123.43,55.16 123.48,123.3 v 0.17 z"
   style="fill:#ffffff;stroke:#010101;stroke-width:0.76923077;stroke-linecap:round;stroke-linejoin:round;opacity:1;stroke-miterlimit:4;stroke-dasharray:none"
   id="path2383" />
		
	</g>
	<g
   id="paws"
   style="stroke-width:0.76923077;stroke-miterlimit:4;stroke-dasharray:none">
		<g
   id="g246"
   style="stroke-width:0.76923077;stroke-miterlimit:4;stroke-dasharray:none">
			<path
   inkscape:connector-curvature="0"
   d="m 131.99,406.84 c 0,21.54 -17.48,20.77 -39.029,20.77 -11.979,0 -22.705,0.24 -29.866,-3.25 -5.718,-2.79 -9.164,-7.96 -9.164,-17.52 0,-21.55 17.485,-39.03 39.03,-39.03 21.549,0 39.029,17.49 39.029,39.03 z"
   style="fill:#ffffff;stroke:#010101;stroke-width:0.76923077;stroke-linecap:round;stroke-linejoin:round;opacity:1;stroke-miterlimit:4;stroke-dasharray:none"
   id="path3238" />
			
			<g
   transform="matrix(-1,0,0,1,652.48,-1.8279)"
   id="g2469"
   style="stroke-width:0.76923077;stroke-miterlimit:4;stroke-dasharray:none">
				<path
   inkscape:connector-curvature="0"
   d="m 544.83,427.3 c -3.5,-11.34 0.5,-24.56 0.5,-24.56"
   style="fill:none;stroke:#010101;stroke-width:0.76923077;stroke-linecap:round;opacity:1;stroke-miterlimit:4;stroke-dasharray:none"
   id="path2471" />
				<path
   inkscape:connector-curvature="0"
   d="m 562.86,429.81 c 4.29,-18.25 -0.62,-32.73 -0.62,-32.73"
   style="fill:none;stroke:#010101;stroke-width:0.76923077;stroke-linecap:round;opacity:1;stroke-miterlimit:4;stroke-dasharray:none"
   id="path2473" />
				<path
   inkscape:connector-curvature="0"
   d="m 581.11,427.92 c 8.81,-13.85 1.26,-25.18 1.26,-25.18"
   style="fill:none;stroke:#010101;stroke-width:0.76923077;stroke-linecap:round;opacity:1;stroke-miterlimit:4;stroke-dasharray:none"
   id="path2475" />
			</g>
		</g>
		<g
   id="g254"
   style="stroke-width:0.76923077;stroke-miterlimit:4;stroke-dasharray:none">
			<path
   inkscape:connector-curvature="0"
   d="m 222.01,406.84 c 0,21.54 -17.48,20.77 -39.03,20.77 -21.54,0 -39.03,0.77 -39.03,-20.77 0,-21.54 17.49,-39.03 39.03,-39.03 21.55,0 39.03,17.49 39.03,39.03 z"
   style="fill:#ffffff;stroke:#010101;stroke-width:0.76923077;stroke-linecap:round;stroke-linejoin:round;opacity:1;stroke-miterlimit:4;stroke-dasharray:none"
   id="path3235" />
			
			
			<g
   transform="translate(-0.82294,-1.8279)"
   id="g2508"
   style="stroke-width:0.76923077;stroke-miterlimit:4;stroke-dasharray:none">
				<path
   inkscape:connector-curvature="0"
   d="m 169.85,427.3 c -3.5,-11.34 0.5,-24.56 0.5,-24.56"
   style="fill:none;stroke:#010101;stroke-width:0.76923077;stroke-linecap:round;opacity:1;stroke-miterlimit:4;stroke-dasharray:none"
   id="path2510" />
				<path
   inkscape:connector-curvature="0"
   d="m 187.88,429.81 c 4.29,-18.25 -0.62,-32.73 -0.62,-32.73"
   style="fill:none;stroke:#010101;stroke-width:0.76923077;stroke-linecap:round;opacity:1;stroke-miterlimit:4;stroke-dasharray:none"
   id="path2512" />
				<path
   inkscape:connector-curvature="0"
   d="m 206.13,427.92 c 8.81,-13.85 1.26,-25.18 1.26,-25.18"
   style="fill:none;stroke:#010101;stroke-width:0.76923077;stroke-linecap:round;opacity:1;stroke-miterlimit:4;stroke-dasharray:none"
   id="path2514" />
			</g>
		</g>
	</g>
	<g
   id="face"
   style="stroke-width:0.76923077;stroke-miterlimit:4;stroke-dasharray:none">
		<g
   id="g264"
   style="stroke-width:0.76923077;stroke-miterlimit:4;stroke-dasharray:none">
			<path
   inkscape:connector-curvature="0"
   d="m 66.742,153.97 c -14.965,0 -27.116,12.15 -27.116,27.12 0,9.68 5.088,18.17 12.733,22.97 -8.083,14.29 -12.733,30.78 -12.733,48.35 0,54.33 44.067,98.44 98.394,98.44 54.33,0 98.44,-44.11 98.44,-98.44 0,-17.57 -4.65,-34.06 -12.73,-48.35 7.63,-4.8 12.73,-13.3 12.73,-22.97 0,-14.97 -12.15,-27.12 -27.11,-27.12 -9.68,0 -18.13,5.11 -22.93,12.73 -14.3,-8.09 -30.81,-12.73 -48.4,-12.73 -17.58,0 -34.06,4.64 -48.351,12.73 -4.797,-7.62 -13.254,-12.73 -22.927,-12.73 z"
   style="fill:#ffffff;stroke:#010101;stroke-width:0.76923077;stroke-linecap:round;stroke-linejoin:round;opacity:1;stroke-miterlimit:4;stroke-dasharray:none"
   id="path2479" />
			<path
   inkscape:connector-curvature="0"
   d="m 209.67,165.47 c -5.44,0 -10.19,2.87 -12.9,7.15 8.32,5.6 15.48,12.76 21.08,21.08 4.27,-2.72 7.11,-7.51 7.11,-12.94 0,-8.43 -6.85,-15.29 -15.29,-15.29 z"
   style="fill:#ffffff;stroke:#010101;stroke-width:0.76923077;stroke-linecap:round;stroke-linejoin:round;opacity:1;stroke-miterlimit:4;stroke-dasharray:none"
   id="path2483" />
			<path
   inkscape:connector-curvature="0"
   d="m 66.674,165.47 c 5.438,0 10.188,2.87 12.897,7.15 -8.317,5.6 -15.478,12.76 -21.074,21.08 -4.269,-2.72 -7.113,-7.51 -7.113,-12.94 0,-8.43 6.853,-15.29 15.29,-15.29 z"
   style="fill:#ffffff;stroke:#010101;stroke-width:0.76923077;stroke-linecap:round;stroke-linejoin:round;opacity:1;stroke-miterlimit:4;stroke-dasharray:none"
   id="path2523" />
				<path
   inkscape:connector-curvature="0"
   d="m 210.79,190.94 c 8.12,-14 50.87,-14.82 53.78,-8.18 -21.46,6.02 -29.97,12.01 -36.67,22.43 13.29,-2.98 31.59,-0.92 39.52,8.93 -11.38,-0.97 -28.48,2.63 -40.11,14.57 12.32,3.2 26.58,4.07 31.46,16.21 -14.54,-2.94 -28.54,5.31 -28.54,5.31 14.71,-6.76 45.12,17.22 43.66,24.32 -21.01,-7.45 -31.41,-7.46 -42.9,-2.81 12.59,5.22 26.35,17.46 27.15,30.08 -8.74,-7.35 -24.78,-14.27 -41.18,-11.22 8.23,9.72 19.37,18.65 16.36,31.38 -10.18,-10.78 -27.23,-7.72 -27.23,-7.72 16.05,2.1 28.29,33.23 23.28,38.47 -13.83,-17.48 -22.64,-23.02 -34.84,-25.19 7.88,11.12 13.03,28.8 7,39.91 -3.49,-10.87 -13.4,-25.27 -28.91,-31.4 1.8,12.61 6.49,26.1 -2.83,35.28 -2.89,-14.55 -12.31,-26.94 -12.31,-26.94 -4.44,11.93 -4.77,35.02 -17.34,38.64 4.42,-14.16 -0.21,-22.62 -2.8,-32.69 0,0 -7.24,18.53 -2.83,32.69 -12.57,-3.62 -14.89,-26.71 -19.33,-38.64 0,0 -9.61,13.06 -12.71,27.56 -9.178,-9.32 -4.286,-22.74 -2.3,-35.31 -15.593,5.89 -25.721,20.14 -29.375,30.96 -5.866,-11.21 -0.45,-28.81 7.595,-39.81 -12.23,1.99 -21.119,7.4 -35.212,24.67 -4.927,-5.32 7.965,-40.19 24.046,-42.04 0,0 -14.425,0.78 -24.604,11.56 -3.009,-12.73 8.137,-21.66 16.361,-31.38 -16.392,-3.05 -32.441,3.87 -41.177,11.22 0.798,-12.62 14.562,-24.85 27.145,-30.08 -11.486,-4.65 -21.89,-4.64 -42.898,2.81 -1.454,-7.1 28.953,-31.08 43.661,-24.31 0,0 -13.398,-11.3 -28.168,-9.95 6.167,-11.53 20.436,-10.85 33.033,-12.7 -10.271,-13.13 -26.885,-18.56 -38.298,-18.83 8.948,-8.94 27.365,-9 40.259,-4.59 -5.539,-11.09 -13.344,-17.97 -34.025,-26.28 3.607,-6.29 46.022,-0.84 52.575,13.97"
   style="opacity:0.98999999;fill:#ffffff;stroke:#010101;stroke-width:0.76923077;stroke-linecap:round;stroke-linejoin:round;stroke-miterlimit:4;stroke-dasharray:none"
   id="path2413_2_" />
				<path
   inkscape:connector-curvature="0"
   d="m 82.857,176.92 c -1.354,-10.3 -1.514,-20.43 -10.884,-31.93 13.012,-1.33 20.422,10.88 28.987,20.3 5.16,-15.85 0.38,-32.66 -5.77,-42.28 12.41,2.43 22.75,17.67 26.3,30.83 6.1,-10.79 7.44,-21.1 2.79,-42.9 4.14,-0.3 12.21,12.14 16.72,25.39 3.35,9.86 9.2,-25.91 16.43,-25.39 -4.65,21.8 -3.31,32.11 2.79,42.9 3.55,-13.16 13.89,-28.4 26.3,-30.83 -6.15,9.62 -10.93,26.43 -5.77,42.28 8.56,-9.42 15.97,-21.63 28.99,-20.3 -9.37,11.5 -9.53,21.63 -10.89,31.93"
   style="opacity:0.98999999;fill:#ffffff;stroke:#010101;stroke-width:0.76923077;stroke-linecap:round;stroke-linejoin:round;stroke-miterlimit:4;stroke-dasharray:none"
   id="path2413_5_" />
		</g>
			<path
   inkscape:connector-curvature="0"
   d="m 212.69,262.89 c 0.03,41.26 -33.4,74.74 -74.67,74.76 -41.264,0.03 -74.738,-33.4 -74.765,-74.66 v -0.1 c -0.028,-41.27 33.401,-74.74 74.665,-74.77 41.26,-0.03 74.74,33.4 74.77,74.67 z"
   style="fill:#ffffff;stroke:#010101;stroke-width:0.76923077;stroke-linecap:round;stroke-linejoin:round;opacity:1;stroke-miterlimit:4;stroke-dasharray:none"
   id="path2383_1_" />
		<g
   id="g272"
   style="stroke-width:0.76923077;stroke-miterlimit:4;stroke-dasharray:none">
			<g
   transform="translate(-2.5218,-5.0362)"
   id="g3178"
   style="stroke-width:0.76923077;stroke-miterlimit:4;stroke-dasharray:none">
				<path
   inkscape:connector-curvature="0"
   d="m 194.7,276.53 c 5.23,19.48 -6.36,39.5 -25.88,44.72 -9.37,2.51 -19.36,1.2 -27.76,-3.65"
   style="fill:none;stroke:#010101;stroke-width:0.76923077;stroke-linecap:round;stroke-linejoin:round;opacity:1;stroke-miterlimit:4;stroke-dasharray:none"
   id="path2400" />
				<path
   inkscape:connector-curvature="0"
   d="m 86.287,276.53 c -5.23,19.48 6.354,39.5 25.873,44.72 9.37,2.51 19.36,1.2 27.77,-3.65"
   style="fill:none;stroke:#010101;stroke-width:0.76923077;stroke-linecap:round;stroke-linejoin:round;opacity:1;stroke-miterlimit:4;stroke-dasharray:none"
   id="path3176" />
			</g>
			<path
   inkscape:connector-curvature="0"
   d="m 154.67,287.73 c 0,8.83 -9.67,15.99 -16.07,15.99 -6.89,0 -16.06,-7.16 -16.06,-15.99 0,-8.83 7.19,-11.08 16.06,-11.08 8.87,0 16.07,2.25 16.07,11.08 z"
   style="fill:#010101;opacity:1;stroke-width:0.76923077;stroke-miterlimit:4;stroke-dasharray:none"
   id="path2397" />
			<g
   id="g278"
   style="stroke-width:1.53846154;stroke-miterlimit:4;stroke-dasharray:none">
				<path
   inkscape:connector-curvature="0"
   d="m 134.25,241.9 c 0.01,12.78 -10.35,23.15 -23.13,23.15 -12.773,0.01 -23.141,-10.34 -23.148,-23.12 v -0.03 c -0.009,-12.78 10.344,-23.15 23.128,-23.15 12.77,-0.01 23.14,10.34 23.15,23.12 z"
   style="fill:#ffffff;stroke:#010101;stroke-width:1.53846154;stroke-linecap:round;stroke-linejoin:round;opacity:1;stroke-miterlimit:4;stroke-dasharray:none"
   id="path2387" />
				<path
   inkscape:connector-curvature="0"
   d="m 125.21,244.56 c 0,3.97 -3.21,7.18 -7.18,7.19 -3.97,0 -7.18,-3.21 -7.19,-7.18 v -0.01 c 0,-3.96 3.21,-7.18 7.18,-7.18 3.97,-0.01 7.18,3.2 7.19,7.17 z"
   style="fill:#010101;opacity:1;stroke-width:1.53846154;stroke-miterlimit:4;stroke-dasharray:none"
   id="path2393" />
			</g>
			<g
   id="g282"
   style="stroke-width:1.53846154;stroke-miterlimit:4;stroke-dasharray:none">
				<path
   inkscape:connector-curvature="0"
   d="m 187.97,241.9 c 0.01,12.78 -10.34,23.15 -23.12,23.15 -12.78,0.01 -23.15,-10.34 -23.15,-23.12 v -0.03 c -0.01,-12.78 10.34,-23.15 23.12,-23.15 12.78,-0.01 23.14,10.34 23.15,23.12 z"
   style="fill:#ffffff;stroke:#010101;stroke-width:1.53846154;stroke-linecap:round;stroke-linejoin:round;opacity:1;stroke-miterlimit:4;stroke-dasharray:none"
   id="path2391" />
				<path
   inkscape:connector-curvature="0"
   d="m 164.57,244.56 c 0,3.97 -3.21,7.18 -7.18,7.19 -3.97,0 -7.18,-3.21 -7.19,-7.18 v -0.01 c 0,-3.96 3.22,-7.18 7.18,-7.18 3.97,-0.01 7.18,3.2 7.19,7.17 z"
   style="fill:#010101;opacity:1;stroke-width:1.53846154;stroke-miterlimit:4;stroke-dasharray:none"
   id="path2395" />
			</g>
		</g>
		<g
   id="g286"
   style="stroke-width:0.76923077;stroke-miterlimit:4;stroke-dasharray:none">
			<g
   transform="translate(0,-10.702)"
   id="g3188"
   style="stroke-width:0.76923077;stroke-miterlimit:4;stroke-dasharray:none">
				<path
   inkscape:connector-curvature="0"
   d="m 180.61,291.73 c 44.67,-16.61 66.5,3.89 66.5,3.89"
   style="fill:none;stroke:#010101;stroke-width:0.76923077;stroke-linecap:round;opacity:1;stroke-miterlimit:4;stroke-dasharray:none"
   id="path3182" />
				<path
   inkscape:connector-curvature="0"
   d="m 174.2,302.87 c 31.64,-8.96 52.35,13.89 52.35,13.89"
   style="fill:none;stroke:#010101;stroke-width:0.76923077;stroke-linecap:round;opacity:1;stroke-miterlimit:4;stroke-dasharray:none"
   id="path3184" />
				<path
   inkscape:connector-curvature="0"
   d="m 171.57,314.78 c 24.34,-2.58 33.66,19.12 33.66,19.12"
   style="fill:none;stroke:#010101;stroke-width:0.76923077;stroke-linecap:round;opacity:1;stroke-miterlimit:4;stroke-dasharray:none"
   id="path3186" />
			</g>
			<g
   transform="matrix(-1,0,0,1,651.56,-10.702)"
   id="g3193"
   style="stroke-width:0.76923077;stroke-miterlimit:4;stroke-dasharray:none">
				<path
   inkscape:connector-curvature="0"
   d="m 550.09,291.73 c 44.67,-16.61 66.5,3.89 66.5,3.89"
   style="fill:none;stroke:#010101;stroke-width:0.76923077;stroke-linecap:round;opacity:1;stroke-miterlimit:4;stroke-dasharray:none"
   id="path3195" />
				<path
   inkscape:connector-curvature="0"
   d="m 543.68,302.87 c 31.63,-8.96 52.35,13.89 52.35,13.89"
   style="fill:none;stroke:#010101;stroke-width:0.76923077;stroke-linecap:round;opacity:1;stroke-miterlimit:4;stroke-dasharray:none"
   id="path3197_4_" />
				<path
   inkscape:connector-curvature="0"
   d="m 541.05,314.78 c 24.34,-2.58 33.65,19.12 33.65,19.12"
   style="fill:none;stroke:#010101;stroke-width:0.76923077;stroke-linecap:round;opacity:1;stroke-miterlimit:4;stroke-dasharray:none"
   id="path3199" />
			</g>
		</g>
	</g>
</g>
<metadata
   id="metadata54"><rdf:RDF><cc:Work><dc:format>image/svg+xml</dc:format><dc:type
         rdf:resource="http://purl.org/dc/dcmitype/StillImage" /><cc:license
         rdf:resource="http://creativecommons.org/publicdomain/zero/1.0/" /><dc:publisher><cc:Agent
           rdf:about="http://openclipart.org/"><dc:title>Openclipart</dc:title></cc:Agent></dc:publisher><dc:title></dc:title><dc:date>2009-03-13T15:51:09</dc:date><dc:description>Cartoon lion. Remixed from Lemmling's Cartoon Cat and Cartoon Beaver.</dc:description><dc:source>https://openclipart.org/detail/22284/cartoon-lion-by-studiofibonacci</dc:source><dc:creator><cc:Agent><dc:title>StudioFibonacci</dc:title></cc:Agent></dc:creator><dc:subject><rdf:Bag><rdf:li>animal</rdf:li><rdf:li>cartoon</rdf:li><rdf:li>cat</rdf:li><rdf:li>lion</rdf:li><rdf:li>remix</rdf:li></rdf:Bag></dc:subject></cc:Work><cc:License
       rdf:about="http://creativecommons.org/publicdomain/zero/1.0/"><cc:permits
         rdf:resource="http://creativecommons.org/ns#Reproduction" /><cc:permits
         rdf:resource="http://creativecommons.org/ns#Distribution" /><cc:permits
         rdf:resource="http://creativecommons.org/ns#DerivativeWorks" /></cc:License></rdf:RDF></metadata></svg>