<?xml version="1.0" encoding="UTF-8" standalone="no"?>
<!-- Created with Inkscape (http://www.inkscape.org/) -->
<svg xmlns:rdf="http://www.w3.org/1999/02/22-rdf-syntax-ns#" xmlns="http://www.w3.org/2000/svg" xmlns:cc="http://web.resource.org/cc/" xmlns:dc="http://purl.org/dc/elements/1.1/" xmlns:svg="http://www.w3.org/2000/svg" xmlns:inkscape="http://www.inkscape.org/namespaces/inkscape" xmlns:sodipodi="http://sodipodi.sourceforge.net/DTD/sodipodi-0.dtd" xmlns:ns1="http://sozi.baierouge.fr" xmlns:xlink="http://www.w3.org/1999/xlink" id="Layer_1" xml:space="preserve" version="1.0" viewBox="0 0 504 424.426" inkscape:version="0.91 r13725">
<path id="path4721_1_" style="fill-opacity:.3137;fill:#010101" d="m334.13 393.51c0 13.64-36.77 24.7-82.13 24.7s-82.13-11.06-82.13-24.7c0-13.65 36.77-24.71 82.13-24.71s82.13 11.06 82.13 24.71z"/>
<g id="g237">
	<g id="g239">
		<path id="path3800_1_" style="stroke:#010101;stroke-width:4;fill:#54b948" d="m458.98 152.17c-78.08-28.77-80.83 132.19-215.79 161.41-24.94 5.4 69.96 63.14 171.55 2.47 98.8-59 113.92-132.89 44.24-163.88z"/>
		<circle id="circle242" cy="202.42" cx="464.44" r="21.463" style="stroke:#000000;stroke-width:4;fill:#fff200"/>
		<path id="path3200_2_" style="fill-opacity:.3137;fill:#010101" d="m481.13 165.67c-0.52-0.43-1.06-0.84-1.59-1.27 6.54 33.25-16.53 78.13-70.86 121.88-72.22 58.15-150.5 43.7-169.47 30.49-1.1 12.94 84.52 53.66 175.54-0.7 86.45-51.62 108.81-114.68 66.38-150.4z"/>
	</g>
	<g id="g245">
		<path id="path3800_3_" style="stroke:#010101;stroke-width:4;fill:#54b948" d="m398.74 106.69c-82.87-7.575-43.86 148.61-166.66 211.76-22.7 11.67 83.92 42.88 166.35-42.01 80.15-82.56 75.64-157.85 0.31-169.75z"/>
		<circle id="circle248" cy="154.91" cx="424.27" r="21.463" style="stroke:#000000;stroke-width:4;fill:#fff200"/>
		<path id="path3200_3_" style="fill-opacity:.3137;fill:#010101" d="m423.63 114c-0.61-0.28-1.25-0.54-1.87-0.81 14.93 30.42 4.26 79.74-36.9 136.06-54.71 74.86-134.06 81.16-155.8 73.31 2.29 12.79 95.53 29.96 169.38-46.1 70.14-72.24 75.42-138.94 25.19-162.46z"/>
	</g>
	<g id="g251">
		<path id="path3800_4_" style="stroke:#010101;stroke-width:4;fill:#54b948" d="m355.4 75.532c-83.22-0.322-30.75 151.87-147.58 225.48-21.59 13.61 87.34 35.41 162.06-56.34 72.66-89.23 61.6-163.85-14.48-169.14z"/>
		<circle id="circle254" cy="114.28" cx="382.18" r="21.463" style="stroke:#000000;stroke-width:4;fill:#fff200"/>
		<path id="path3200_4_" style="fill-opacity:.3137;fill:#010101" d="m380.83 80.651c-0.63-0.229-1.29-0.431-1.93-0.648 17.52 29.007 11.19 79.067-24.9 138.76-47.98 79.35-126.48 92.54-148.82 86.62 3.39 12.53 97.77 21.51 164.71-60.7 63.58-78.08 63.03-144.98 10.94-164.03z"/>
	</g>
	<g id="g257">
		<path id="path3800_5_" style="stroke:#010101;stroke-width:4;fill:#54b948" d="m300.66 43.352c-82 14.132-3.9 154.9-106.17 247.68-18.91 17.15 92.16 19.71 149.81-83.63 56.05-100.49 32.2-172.05-43.64-164.05z"/>
		<circle id="circle260" cy="78.715" cx="339.29" r="21.463" style="stroke:#000000;stroke-width:4;fill:#fff200"/>
		<path id="path3200_5_" style="fill-opacity:.3137;fill:#010101" d="m326.6 43.977c-0.66-0.117-1.34-0.202-2.02-0.304 22.3 25.522 24.75 75.917-0.43 140.97-33.46 86.48-108.48 113.1-131.51 111.15 5.52 11.76 100.02 4.21 151.67-88.38 49.05-87.93 36.89-153.72-17.71-163.43z"/>
	</g>
	<g id="g263">
		<g id="g265">
			<path id="path3169_1_" style="stroke:#010101;stroke-width:4;fill:#54b948" d="m55.013 138.76c81.897-14.77 56.647 144.22 184.49 196.42 23.62 9.66-79.87 50.05-169.38-27.34-87.049-75.26-89.111-150.66-15.107-169.08z"/>
			<path id="path3205_2_" style="fill-opacity:.3137;fill:#010101" d="m6.427 222.81c8.568 26.08 29.64 55.57 63.711 85.03 89.512 77.38 193 37.01 169.38 27.36-10.11-4.13-19.29-8.93-27.61-14.25-30.41 9.02-96.02 9.63-155.53-41.82-22.057-19.08-38.665-38.16-49.953-56.32zm105.63-49.06c5.7 12.75 11.72 26.33 18.86 40.09-6.57-14.61-12.48-28.4-18.86-40.09z"/>
		</g>
		<circle id="circle269" cy="202.42" cx="34.265" r="21.463" style="stroke:#000000;stroke-width:4;fill:#fff200"/>
	</g>
	<g id="g271">
		<g id="g273">
			<path id="path3169_3_" style="stroke:#010101;stroke-width:4;fill:#54b948" d="m97.979 106.69c82.871-7.571 43.861 148.61 166.66 211.76 22.7 11.67-83.92 42.89-166.35-42-80.156-82.56-75.639-157.86-0.311-169.76z"/>
			<path id="path3205_3_" style="fill-opacity:.3137;fill:#010101" d="m42.252 186.19c6.263 26.73 24.684 57.94 56.058 90.25 82.43 84.9 189.05 53.7 166.35 42.03-9.71-4.99-18.44-10.58-26.26-16.6-31.08 6.33-96.5 1.22-151.29-55.22-20.314-20.93-35.195-41.38-44.858-60.46zm109.51-39.67c4.57 13.2 9.38 27.26 15.3 41.58-5.28-15.12-9.96-29.37-15.3-41.58z"/>
		</g>
		<circle id="circle277" cy="166.86" cx="70.369" r="21.463" style="stroke:#000000;stroke-width:4;fill:#fff200"/>
	</g>
	<g id="g279">
		<g id="g281">
			<path id="path3169_4_" style="stroke:#010101;stroke-width:4;fill:#54b948" d="m141.32 75.536c83.22-0.323 30.75 151.86 147.57 225.48 21.6 13.6-87.34 35.4-162.05-56.35-72.658-89.23-61.596-163.84 14.48-169.13z"/>
			<path id="path3205_4_" style="fill-opacity:.3137;fill:#010101" d="m78.879 149.88c3.91 27.16 19.54 59.87 47.981 94.79 74.71 91.76 183.64 69.97 162.05 56.36-9.23-5.82-17.44-12.14-24.71-18.82-31.52 3.6-96.24-7.2-145.9-68.2-18.417-22.61-31.458-44.29-39.421-64.13zm112.55-29.98c3.4 13.55 6.96 27.97 11.61 42.76-3.93-15.53-7.36-30.13-11.61-42.76z"/>
		</g>
		<circle id="circle285" cy="126.23" cx="111.1" r="21.463" style="stroke:#000000;stroke-width:4;fill:#fff200"/>
	</g>
	<g id="g287">
		<g id="g289">
			<path id="path3169_5_" style="stroke:#010101;stroke-width:4;fill:#54b948" d="m196.06 43.354c82 14.132 3.9 154.9 106.17 247.68 18.91 17.15-92.16 19.71-149.81-83.63-56.054-100.49-32.2-172.05 43.64-164.05z"/>
			<path id="path3205_5_" style="fill-opacity:.3137;fill:#010101" d="m121.65 105.72c-0.86 27.43 8.85 62.36 30.79 101.69 57.65 103.33 168.71 100.79 149.81 83.64-8.09-7.33-15.07-14.98-21.07-22.83-31.66-1.92-93.52-23.79-131.84-92.49-14.21-25.47-23.29-49.08-27.69-70.01zm116.05-9.977c1 13.937 2 28.757 4.01 44.117-1.18-15.97-2.02-30.94-4.01-44.117z"/>
		</g>
		<circle id="circle293" cy="78.715" cx="159.41" r="21.463" style="stroke:#000000;stroke-width:4;fill:#fff200"/>
	</g>
	<g id="g295">
		<path id="path297" style="stroke:#010101;stroke-width:4;fill:#54b948" d="m247.63 284.43s132.48-282.07 3.64-282.43c-128.84-0.363-3.64 282.43-3.64 282.43z"/>
		<circle id="circle299" cy="45.713" cx="252" r="27.15" style="stroke:#000000;stroke-width:4;fill:#fff200"/>
		<path id="path3200_6_" style="fill-opacity:.3137;fill:#010101" d="m247 0.235c-0.67 0-1.35 0.033-2.03 0.05 26.38 21.264 37.55 70.469 24.05 138.9-17.94 90.98-8.65 90.71-23.94 136.2 3.28 21.48 12.96-17.12 47.75-117.27 33.04-95.111 9.64-157.79-45.83-157.88z"/>
	</g>
</g>
<g id="g302">
	<g id="layer1" transform="translate(-216.73 -178.06)">
		<path id="path2383" style="stroke-linejoin:round;stroke:#010101;stroke-width:4;stroke-linecap:round;fill:#50a5dc" d="m543.07 510.78c0.02 41.07-33.27 74.37-74.35 74.37-41.07 0-74.36-33.3-74.34-74.37-0.02-41.07 33.27-74.37 74.34-74.37 41.08 0 74.37 33.3 74.35 74.37z"/>
		<path id="path3221" style="fill-opacity:.3137;fill:#010101" d="m538.58 485.27c0.05 1.14 0.08 2.31 0.08 3.46 0 41.04-33.3 74.35-74.34 74.35-32.08 0-59.45-20.37-69.87-48.86 1.8 39.45 34.39 70.92 74.28 70.92 41.04 0 74.35-33.31 74.35-74.35 0-8.96-1.59-17.56-4.5-25.52z"/>
		<g id="g307">
			<g id="g309">
					<linearGradient id="path3224_2_" y2="277.87" gradientUnits="userSpaceOnUse" x2="398.81" gradientTransform="matrix(1.7813 0 0 -1.7055 -203.83 1063.5)" y1="283.48" x1="398.81">
					<stop id="stop312" style="stop-color:#fbb045" offset="0"/>
					<stop id="stop314" style="stop-color:#c77829" offset="1"/>
				</linearGradient>
					<path id="path3224_3_" style="stroke-linejoin:round;stroke:#010101;stroke-width:4;stroke-linecap:round;fill:url(#path3224_2_)" d="m516.24 578.98c0 8.63-4.33 15.62-9.67 15.62-5.35 0-9.67-6.99-9.67-15.62s4.32-15.63 9.67-15.63c5.34 0 9.67 7 9.67 15.63z"/>
					<linearGradient id="path3220_3_" y2="277.87" gradientUnits="userSpaceOnUse" x2="405.03" gradientTransform="matrix(1.7813 0 0 -1.7055 -238.33 1063.5)" y1="283.48" x1="405.03">
					<stop id="stop318" style="stop-color:#fbb045" offset="0"/>
					<stop id="stop320" style="stop-color:#c77829" offset="1"/>
				</linearGradient>
					<path id="path3220_2_" style="stroke-linejoin:round;stroke:#010101;stroke-width:4;stroke-linecap:round;fill:url(#path3220_3_)" d="m492.82 578.98c0 8.63-4.33 15.62-9.67 15.62s-9.67-6.99-9.67-15.62 4.33-15.63 9.67-15.63 9.67 7 9.67 15.63z"/>
					<linearGradient id="path3222_2_" y2="274.98" gradientUnits="userSpaceOnUse" x2="401.96" gradientTransform="matrix(1.7813 0 0 -1.7055 -221.33 1063.5)" y1="281.64" x1="401.96">
					<stop id="stop324" style="stop-color:#fbb045" offset="0"/>
					<stop id="stop326" style="stop-color:#c77829" offset="1"/>
				</linearGradient>
					<path id="path3222_3_" style="stroke-linejoin:round;stroke:#010101;stroke-width:4;stroke-linecap:round;fill:url(#path3222_2_)" d="m504.36 581.92c0 10.25-4.33 18.56-9.67 18.56s-9.67-8.31-9.67-18.56c0-10.26 4.33-18.57 9.67-18.57s9.67 8.31 9.67 18.57z"/>
			</g>
			<g id="g329">
					<linearGradient id="path3224_4_" y2="278.27" gradientUnits="userSpaceOnUse" x2="369.85" gradientTransform="matrix(1.7813 0 0 -1.7055 -203.83 1063.5)" y1="283.87" x1="369.85">
					<stop id="stop332" style="stop-color:#fbb045" offset="0"/>
					<stop id="stop334" style="stop-color:#c77829" offset="1"/>
				</linearGradient>
					<path id="path3224_1_" style="stroke-linejoin:round;stroke:#010101;stroke-width:4;stroke-linecap:round;fill:url(#path3224_4_)" d="m464.65 578.3c0 8.63-4.33 15.63-9.67 15.63s-9.67-7-9.67-15.63 4.33-15.63 9.67-15.63 9.67 7 9.67 15.63z"/>
					<linearGradient id="path3220_4_" y2="278.27" gradientUnits="userSpaceOnUse" x2="376.07" gradientTransform="matrix(1.7813 0 0 -1.7055 -238.33 1063.5)" y1="283.87" x1="376.07">
					<stop id="stop338" style="stop-color:#fbb045" offset="0"/>
					<stop id="stop340" style="stop-color:#c77829" offset="1"/>
				</linearGradient>
					<path id="path3220_1_" style="stroke-linejoin:round;stroke:#010101;stroke-width:4;stroke-linecap:round;fill:url(#path3220_4_)" d="m441.24 578.3c0 8.63-4.33 15.63-9.68 15.63-5.34 0-9.67-7-9.67-15.63s4.33-15.63 9.67-15.63 9.68 7 9.68 15.63z"/>
					<linearGradient id="path3222_6_" y2="275.38" gradientUnits="userSpaceOnUse" x2="373" gradientTransform="matrix(1.7813 0 0 -1.7055 -221.33 1063.5)" y1="282.04" x1="373">
					<stop id="stop344" style="stop-color:#fbb045" offset="0"/>
					<stop id="stop346" style="stop-color:#c77829" offset="1"/>
				</linearGradient>
					<path id="path3222_1_" style="stroke-linejoin:round;stroke:#010101;stroke-width:4;stroke-linecap:round;fill:url(#path3222_6_)" d="m452.78 581.24c0 10.25-4.34 18.56-9.68 18.56s-9.67-8.31-9.67-18.56c0-10.26 4.33-18.57 9.67-18.57s9.68 8.31 9.68 18.57z"/>
			</g>
			<path id="path3250_1_" style="fill-opacity:.3137;fill:#010101" d="m430.89 563.35c-3.95 0-7.32 3.82-8.83 9.29 12.88 3.44 27.03 5.45 41.9 5.73-0.21-8.34-4.45-15.02-9.66-15.02-2.24 0-4.3 1.24-5.93 3.31-1.65-2.07-3.7-3.31-5.94-3.31-2.17 0-4.16 1.15-5.77 3.09-1.62-1.94-3.61-3.09-5.77-3.09zm52.26 0c-5.2 0-9.43 6.64-9.65 14.95 14.85-0.48 28.92-2.7 41.7-6.34-1.59-5.1-4.86-8.61-8.63-8.61-2.24 0-4.3 1.24-5.94 3.31-1.64-2.07-3.7-3.31-5.94-3.31-2.16 0-4.16 1.15-5.77 3.09-1.61-1.94-3.61-3.09-5.77-3.09z"/>
		</g>
		<g id="g350">
			<path id="path3800_2_" style="stroke:#010101;stroke-width:4;fill:#50a5dc" d="m521.82 462.84c-32.66 11.74 9.61 63.9-25.67 109.41-6.52 8.41 39.28 1.42 55.47-45.2 15.74-45.33 0.77-72.99-29.8-64.21z"/>
			<path id="path3200_1_" style="fill-opacity:.3137;fill:#010101" d="m532.52 461.22c-0.28 0-0.57 0.01-0.85 0.02 11 8.86 15.66 29.38 10.03 57.92-7.48 37.94-36.37 54.31-45.97 55.18 3.12 4.42 41.39-5.52 55.9-47.28 13.77-39.67 4.01-65.81-19.11-65.84z"/>
		</g>
		<g id="g354">
			<path id="path3169_2_" style="stroke:#010101;stroke-width:4;fill:#50a5dc" d="m415.63 462.84c32.66 11.74-9.61 63.9 25.67 109.41 6.52 8.41-39.28 1.42-55.47-45.2-15.75-45.33-0.77-72.99 29.8-64.21z"/>
			<path id="path3205_6_" style="fill-opacity:.3137;fill:#010101" d="m380.9 483.74c-2.35 11.2-0.88 26.25 5.28 43.99 16.19 46.62 61.99 53.62 55.47 45.2-2.79-3.59-5.11-7.24-7-10.9-12.87-3.08-36.69-16.54-47.45-47.53-3.99-11.49-6.01-21.85-6.3-30.76z"/>
		</g>
		<path id="path2399" style="stroke-linejoin:round;stroke:#010101;stroke-width:4;stroke-linecap:round;fill:#50a5dc" d="m433.07 460.99c16.63-25.73 13.57-87.38 13.57-87.38l40.73-2.22s-1.02 62.1 15.95 88.27"/>
		<ellipse id="ellipse359" style="fill:#50a5dc" rx="34.108" ry="11.539" cy="462.7" cx="468.44"/>
		<path id="path3214" style="fill-opacity:.3137;fill:#010101" d="m487.36 371.39l-11.64 0.63-29.09 1.59s0.17 3.3 0.22 8.53c8.93 5.6 17.93 8.87 24.24 8.87 2.26 0 4.82-0.39 7.57-1.13 4.2 22.63 12 54.54 24.46 69.58l-0.68 0.23 0.87-0.02c-11.68-18.01-14.82-53.05-15.65-73.14-0.1-2.27-0.17-4.37-0.22-6.21-0.03-1.48-0.05-2.79-0.06-3.93-0.01-0.92-0.02-1.61-0.02-2.29v-1.63-1.08z"/>
		<path id="path362" style="stroke-linejoin:round;stroke:#010101;stroke-width:4;stroke-linecap:round;fill:#50a5dc" d="m501.47 281.63c-8.83-6.22-20.05-9.87-33.22-9.87-11.99 0-22.21 2.85-30.5 7.8-9.49 6.56-17.11 16.08-21.78 27.4-2.15 6.3-3.27 13.17-3.27 20.35 0 30.67 38.09 55.56 55.55 55.56 18.13 0 55.55-24.89 55.55-55.56 0-7.4-1.24-14.47-3.6-20.93-4.21-9.93-10.7-18.45-18.73-24.75z"/>
		<path id="path3231" style="fill-opacity:.3137;fill:#010101" d="m519.24 300.9c1.19 5.18 1.78 10.67 1.78 16.37 0 30.67-37.42 55.55-55.56 55.55-14.05 0-41.47-16.12-51.62-38.41 5.16 27.32 38.8 48.45 54.89 48.45 18.13 0 55.55-24.89 55.55-55.55 0-9.56-1.64-18.56-5.04-26.41z"/>
	</g>
	<g id="g365">
		<path id="path2387_1_" style="stroke:#010101;stroke-width:4;stroke-linecap:round" d="m233.96 109.67c-12.52 0-22.69 11.76-22.69 26.25 0 14.48 10.17 26.24 22.69 26.24 7.36 0 13.89-4.07 18.03-10.36 4.15 6.3 10.69 10.36 18.05 10.36 12.52 0 22.68-11.76 22.68-26.24 0-14.49-10.16-26.25-22.68-26.25-7.36 0-13.9 4.07-18.05 10.36-4.14-6.29-10.67-10.36-18.03-10.36z"/>
		<g id="g368">
			<path id="path3407_1_" style="fill-opacity:.3137;fill:#010101" d="m252.86 159.85c-6.35 0-13.26 7.07-12.98 11.53 0.27 4.46 11.33 23.06 13.81 23.06 2.49 0 12.16-18.23 11.88-23.43-0.27-5.21-8.56-11.53-12.71-11.16z"/>
				<linearGradient id="path2391_2_" y2="-128" gradientUnits="userSpaceOnUse" x2="443.74" gradientTransform="matrix(.6415 0 0 -.7781 -29.097 68.572)" y1="-128" x1="434.69">
				<stop id="stop372" style="stop-color:#fbb045" offset="0"/>
				<stop id="stop374" style="stop-color:#c77829" offset="1"/>
			</linearGradient>
			<path id="path2391_1_" style="stroke:#010101;stroke-width:4;fill:url(#path2391_2_)" d="m251.41 152.59c-6.35 0-13.26 6.37-12.98 10.39 0.27 4.02 11.33 20.78 13.81 20.78 2.49 0 12.16-16.42 11.88-21.11-0.27-4.69-8.56-10.39-12.71-10.06z"/>
		</g>
		<g id="g377">
			<path id="path2387_4_" style="stroke:#010101;stroke-width:4;stroke-linecap:round;fill:#ffffff" d="m236.6 113.51c-10.69 0-19.37 10.04-19.37 22.41 0 12.36 8.68 22.4 19.37 22.4 6.28 0 11.85-3.47 15.39-8.84 3.54 5.38 9.13 8.84 15.41 8.84 10.69 0 19.37-10.04 19.37-22.4 0-12.37-8.68-22.41-19.37-22.41-6.28 0-11.87 3.47-15.41 8.84-3.54-5.37-9.11-8.84-15.39-8.84z"/>
			<g id="g380">
				<path id="path2411_1_" style="stroke:#010101;stroke-width:4;stroke-linecap:round;fill:#010101" d="m250.77 137.43c0 3.1-2.51 5.61-5.61 5.61s-5.61-2.51-5.61-5.61c0-3.09 2.51-5.61 5.61-5.61s5.61 2.51 5.61 5.61z"/>
				<path id="path3341_1_" style="fill:#ffffff" d="m244.59 135.47c0 0.8-0.65 1.45-1.45 1.45-0.81 0-1.46-0.65-1.46-1.45 0-0.81 0.65-1.46 1.46-1.46 0.8 0 1.45 0.65 1.45 1.46z"/>
			</g>
			<g id="g384">
				<path id="path3301_1_" style="stroke:#010101;stroke-width:4;stroke-linecap:round;fill:#010101" d="m264.97 137.43c0 3.1-2.51 5.61-5.61 5.61s-5.6-2.51-5.6-5.61c0-3.09 2.51-5.61 5.6-5.61 3.1 0 5.61 2.51 5.61 5.61z"/>
				<path id="path3343_1_" style="fill:#ffffff" d="m258.79 135.47c0 0.8-0.65 1.45-1.45 1.45-0.81 0-1.46-0.65-1.46-1.45 0-0.81 0.65-1.46 1.46-1.46 0.8 0 1.45 0.65 1.45 1.46z"/>
			</g>
		</g>
	</g>
	<g id="g388">
		<g id="g390">
			<path id="path3228_2_" style="stroke:#010101;stroke-width:4;stroke-linecap:round;fill:#50a5dc" d="m271.72 106.45c-4.05-12.429 5.74-30.949 5.74-30.949l-13.58-2.292s1.31 20.02-6.23 29.221"/>
			<path id="path3222_4_" style="stroke-linejoin:round;stroke:#010101;stroke-width:4;stroke-linecap:round;fill:#d81921" d="m283.78 65.677c0.47 6.541-4.46 12.215-11 12.674-6.54 0.46-12.22-4.469-12.68-11.01v-0.009c-0.46-6.54 4.47-12.214 11.01-12.674 6.54-0.459 12.21 4.47 12.67 11.009v0.01z"/>
		</g>
		<g id="g394">
			<path id="path3228_3_" style="stroke:#010101;stroke-width:4;stroke-linecap:round;fill:#50a5dc" d="m245.52 104.12c-8.06-10.294-5.19-31.046-5.19-31.046l-13.55 2.49s8.07 18.367 4.14 29.596"/>
			<path id="path3222_5_" style="stroke-linejoin:round;stroke:#010101;stroke-width:4;stroke-linecap:round;fill:#d81921" d="m242.91 61.679c2.67 5.989-0.03 13.007-6.01 15.676-5.99 2.669-13.01-0.022-15.68-6.011v-0.007c-2.67-5.988 0.02-13.007 6.01-15.676 5.99-2.668 13.01 0.023 15.67 6.011 0 0.001 0.01 0.005 0.01 0.007z"/>
		</g>
	</g>
</g>
<metadata><rdf:RDF><cc:Work><dc:format>image/svg+xml</dc:format><dc:type rdf:resource="http://purl.org/dc/dcmitype/StillImage"/><cc:license rdf:resource="http://creativecommons.org/licenses/publicdomain/"/><dc:publisher><cc:Agent rdf:about="http://openclipart.org/"><dc:title>Openclipart</dc:title></cc:Agent></dc:publisher><dc:title>Cartoon peacock</dc:title><dc:date>2009-03-20T14:18:46</dc:date><dc:description>Cartoon Peacock remixed from Lemmling's Cartoon Giraffe (antennae)and Cartoon Owl.</dc:description><dc:source>https://openclipart.org/detail/22637/cartoon-peacock-by-studiofibonacci</dc:source><dc:creator><cc:Agent><dc:title>StudioFibonacci</dc:title></cc:Agent></dc:creator><dc:subject><rdf:Bag><rdf:li>bird</rdf:li><rdf:li>cartoon</rdf:li><rdf:li>color</rdf:li><rdf:li>peacock</rdf:li><rdf:li>remix</rdf:li></rdf:Bag></dc:subject></cc:Work><cc:License rdf:about="http://creativecommons.org/licenses/publicdomain/"><cc:permits rdf:resource="http://creativecommons.org/ns#Reproduction"/><cc:permits rdf:resource="http://creativecommons.org/ns#Distribution"/><cc:permits rdf:resource="http://creativecommons.org/ns#DerivativeWorks"/></cc:License></rdf:RDF></metadata></svg>
