<?xml version="1.0" encoding="UTF-8" standalone="no"?>
<!-- Created with Inkscape (http://www.inkscape.org/) -->

<svg
   xmlns:dc="http://purl.org/dc/elements/1.1/"
   xmlns:cc="http://creativecommons.org/ns#"
   xmlns:rdf="http://www.w3.org/1999/02/22-rdf-syntax-ns#"
   xmlns:svg="http://www.w3.org/2000/svg"
   xmlns="http://www.w3.org/2000/svg"
   xmlns:sodipodi="http://sodipodi.sourceforge.net/DTD/sodipodi-0.dtd"
   xmlns:inkscape="http://www.inkscape.org/namespaces/inkscape"
   id="Layer_1"
   xml:space="preserve"
   version="1.0"
   viewBox="0 0 473.46415 690.82087"
   inkscape:version="0.92.3 (2405546, 2018-03-11)"
   sodipodi:docname="StudioFibonacci-Cartoon-leopard.adapted.svg"
   width="473.46414"
   height="690.82086"><sodipodi:namedview
   pagecolor="#ffffff"
   bordercolor="#666666"
   borderopacity="1"
   objecttolerance="10"
   gridtolerance="10"
   guidetolerance="10"
   inkscape:pageopacity="0"
   inkscape:pageshadow="2"
   inkscape:window-width="1708"
   inkscape:window-height="894"
   id="namedview112"
   showgrid="false"
   inkscape:zoom="1.0147348"
   inkscape:cx="236.73207"
   inkscape:cy="345.41043"
   inkscape:window-x="-9"
   inkscape:window-y="-9"
   inkscape:window-maximized="1"
   inkscape:current-layer="Layer_1"
   fit-margin-top="50"
   fit-margin-left="50"
   fit-margin-bottom="50"
   fit-margin-right="50" /><defs
   id="defs114" />
<g
   transform="matrix(1.5,0,0,1.5,50.003075,50.001124)"
   id="g236"
   style="stroke-width:0.66666667;stroke-miterlimit:4;stroke-dasharray:none">
	<g
   id="tail"
   style="stroke-width:0.66666667;stroke-miterlimit:4;stroke-dasharray:none">
		<path
   inkscape:connector-curvature="0"
   d="M 96.198,146.28 C 86.756,82.701 150.6,78.423 143.41,53.114 135.94,26.79 106.9,34.228 91.792,30.451 76.684,26.674 78.912,12.718 88.015,5.27 c 6.925,-5.666 63.545,-8.729 76.805,32.735 18.43,57.679 -45.33,52.88 -45.33,107.02 0,46.03 -22.033,1.26 -23.292,1.26 z"
   style="fill:#ffffff;stroke:#010101;stroke-width:0.66666667;opacity:1;stroke-miterlimit:4;stroke-dasharray:none"
   id="path3229" />
		<g
   id="g240"
   style="stroke-width:0.66666667;stroke-miterlimit:4;stroke-dasharray:none">
			<circle
   r="5"
   cx="146.49001"
   cy="34.865002"
   id="circle242"
   style="stroke-width:0.66666667;stroke-miterlimit:4;stroke-dasharray:none" />
			<circle
   r="7.5"
   cx="112.49"
   cy="15.865"
   id="circle244"
   style="stroke-width:0.66666667;stroke-miterlimit:4;stroke-dasharray:none" />
			<circle
   r="5"
   cx="157.49001"
   cy="56.865002"
   id="circle246"
   style="stroke-width:0.66666667;stroke-miterlimit:4;stroke-dasharray:none" />
			<path
   inkscape:connector-curvature="0"
   d="m 156.49,85.378 c -1.37,-1.826 -3.55,-3.013 -6,-3.013 -4.15,0 -7.5,3.358 -7.5,7.5 0,2.409 1.14,4.547 2.9,5.919 3.72,-3.423 7.36,-6.796 10.6,-10.406 z"
   id="path248"
   style="stroke-width:0.66666667;stroke-miterlimit:4;stroke-dasharray:none" />
			<circle
   r="7.5"
   cx="127.49"
   cy="93.864998"
   id="circle250"
   style="stroke-width:0.66666667;stroke-miterlimit:4;stroke-dasharray:none" />
			<circle
   r="5"
   cx="124.49"
   cy="28.865"
   id="circle252"
   style="stroke-width:0.66666667;stroke-miterlimit:4;stroke-dasharray:none" />
		</g>
		
	</g>
	<g
   id="body"
   style="stroke-width:0.66666667;stroke-miterlimit:4;stroke-dasharray:none">
		<path
   inkscape:connector-curvature="0"
   d="M 247.87,250.78 C 247.92,318.93 192.72,374.2 124.57,374.25 56.426,374.3 1.15,319.09 1.1,250.95 c 0.002,-0.06 0.002,-0.11 0.002,-0.17 -0.046,-68.14 55.159,-123.42 123.31,-123.47 68.14,-0.04 123.42,55.16 123.46,123.31 v 0.16 z"
   style="fill:#ffffff;stroke:#010101;stroke-width:0.66666667;stroke-linecap:round;stroke-linejoin:round;opacity:1;stroke-miterlimit:4;stroke-dasharray:none"
   id="path2383" />
		<g
   id="g257"
   style="stroke-width:0.66666667;stroke-miterlimit:4;stroke-dasharray:none">
			<circle
   r="5"
   cx="15.488"
   cy="216.87"
   id="circle259"
   style="stroke-width:0.66666667;stroke-miterlimit:4;stroke-dasharray:none" />
			<circle
   r="5"
   cx="87.487999"
   cy="323.85999"
   id="circle261"
   style="stroke-width:0.66666667;stroke-miterlimit:4;stroke-dasharray:none" />
			<circle
   r="5"
   cx="32.487999"
   cy="303.85999"
   id="circle263"
   style="stroke-width:0.66666667;stroke-miterlimit:4;stroke-dasharray:none" />
			<circle
   r="5"
   cx="231.49001"
   cy="265.85999"
   id="circle265"
   style="stroke-width:0.66666667;stroke-miterlimit:4;stroke-dasharray:none" />
			<circle
   r="7.5"
   cx="56.487999"
   cy="315.85999"
   id="circle267"
   style="stroke-width:0.66666667;stroke-miterlimit:4;stroke-dasharray:none" />
			<circle
   r="7.5"
   cx="13.488"
   cy="261.85999"
   id="circle269"
   style="stroke-width:0.66666667;stroke-miterlimit:4;stroke-dasharray:none" />
			<circle
   r="7.5"
   cx="186.49001"
   cy="317.85999"
   id="circle271"
   style="stroke-width:0.66666667;stroke-miterlimit:4;stroke-dasharray:none" />
			<circle
   r="10"
   cx="28.488001"
   cy="279.85999"
   id="circle273"
   style="stroke-width:0.66666667;stroke-miterlimit:4;stroke-dasharray:none" />
			<circle
   r="10"
   cx="130.49001"
   cy="331.85999"
   id="circle275"
   style="stroke-width:0.66666667;stroke-miterlimit:4;stroke-dasharray:none" />
			<circle
   r="10"
   cx="221.49001"
   cy="295.85999"
   id="circle277"
   style="stroke-width:0.66666667;stroke-miterlimit:4;stroke-dasharray:none" />
			<circle
   r="5"
   cx="203.49001"
   cy="329.85999"
   id="circle279"
   style="stroke-width:0.66666667;stroke-miterlimit:4;stroke-dasharray:none" />
			<circle
   r="5"
   cx="234.49001"
   cy="227.87"
   id="circle281"
   style="stroke-width:0.66666667;stroke-miterlimit:4;stroke-dasharray:none" />
			<path
   inkscape:connector-curvature="0"
   d="m 225.99,194.86 c 0,4.15 3.35,7.5 7.5,7.5 1.49,0 2.87,-0.43 4.03,-1.18 -2,-4.58 -4.28,-9.01 -6.81,-13.28 -2.77,1.11 -4.72,3.8 -4.72,6.96 z"
   id="path283"
   style="stroke-width:0.66666667;stroke-miterlimit:4;stroke-dasharray:none" />
			<path
   inkscape:connector-curvature="0"
   d="m 214.99,324.86 c 0,2.58 1.29,4.84 3.27,6.2 3.24,-3.8 6.26,-7.78 9.03,-11.95 -1.3,-1.09 -2.97,-1.75 -4.8,-1.75 -4.15,0 -7.5,3.36 -7.5,7.5 z"
   id="path285"
   style="stroke-width:0.66666667;stroke-miterlimit:4;stroke-dasharray:none" />
			<path
   inkscape:connector-curvature="0"
   d="m 33.988,323.86 c 0,-4.14 -3.357,-7.5 -7.5,-7.5 -2.028,0 -3.865,0.81 -5.215,2.12 2.727,4.16 5.697,8.13 8.891,11.92 2.281,-1.29 3.824,-3.73 3.824,-6.54 z"
   id="path287"
   style="stroke-width:0.66666667;stroke-miterlimit:4;stroke-dasharray:none" />
		</g>
		
	</g>
	<g
   id="paws"
   style="stroke-width:0.66666667;stroke-miterlimit:4;stroke-dasharray:none">
		<g
   id="g291"
   style="stroke-width:0.66666667;stroke-miterlimit:4;stroke-dasharray:none">
			<path
   inkscape:connector-curvature="0"
   d="m 118.51,370.71 c 0,21.55 -17.49,20.77 -39.033,20.77 -11.979,0 -22.705,0.24 -29.866,-3.25 -5.718,-2.79 -9.164,-7.95 -9.164,-17.52 0,-21.54 17.485,-39.03 39.03,-39.03 21.543,0 39.033,17.49 39.033,39.03 z"
   style="fill:#ffffff;stroke:#010101;stroke-width:0.66666667;stroke-linecap:round;stroke-linejoin:round;opacity:1;stroke-miterlimit:4;stroke-dasharray:none"
   id="path3238" />
			<g
   id="g294"
   style="stroke-width:0.66666667;stroke-miterlimit:4;stroke-dasharray:none">
				<circle
   r="5"
   cx="53.487999"
   cy="354.85999"
   id="circle296"
   style="stroke-width:0.66666667;stroke-miterlimit:4;stroke-dasharray:none" />
				<circle
   r="7.5"
   cx="84.487999"
   cy="374.85999"
   id="circle298"
   style="stroke-width:0.66666667;stroke-miterlimit:4;stroke-dasharray:none" />
				<circle
   r="5"
   cx="91.487999"
   cy="343.85999"
   id="circle300"
   style="stroke-width:0.66666667;stroke-miterlimit:4;stroke-dasharray:none" />
				<path
   inkscape:connector-curvature="0"
   d="m 117.37,378.94 c -0.89,-0.37 -1.86,-0.58 -2.88,-0.58 -4.15,0 -7.5,3.36 -7.5,7.5 0,1.11 0.24,2.15 0.67,3.09 4.65,-1.79 8.06,-4.83 9.71,-10.01 z"
   id="path302"
   style="stroke-width:0.66666667;stroke-miterlimit:4;stroke-dasharray:none" />
			</g>
			
			<g
   transform="matrix(-1,0,0,1,652.48,-1.8279)"
   id="g2469"
   style="stroke-width:0.66666667;stroke-miterlimit:4;stroke-dasharray:none">
				<path
   inkscape:connector-curvature="0"
   d="m 558.32,391.17 c -3.51,-11.33 0.5,-24.55 0.5,-24.55"
   style="fill:none;stroke:#010101;stroke-width:0.66666667;stroke-linecap:round;opacity:1;stroke-miterlimit:4;stroke-dasharray:none"
   id="path2471" />
				<path
   inkscape:connector-curvature="0"
   d="m 576.34,393.68 c 4.3,-18.25 -0.61,-32.73 -0.61,-32.73"
   style="fill:none;stroke:#010101;stroke-width:0.66666667;stroke-linecap:round;opacity:1;stroke-miterlimit:4;stroke-dasharray:none"
   id="path2473" />
				<path
   inkscape:connector-curvature="0"
   d="m 594.6,391.8 c 8.81,-13.85 1.26,-25.18 1.26,-25.18"
   style="fill:none;stroke:#010101;stroke-width:0.66666667;stroke-linecap:round;opacity:1;stroke-miterlimit:4;stroke-dasharray:none"
   id="path2475" />
			</g>
		</g>
		<g
   id="g309"
   style="stroke-width:0.66666667;stroke-miterlimit:4;stroke-dasharray:none">
			<path
   inkscape:connector-curvature="0"
   d="m 208.53,370.71 c 0,21.55 -17.49,20.77 -39.03,20.77 -21.54,0 -39.03,0.78 -39.03,-20.77 0,-21.54 17.49,-39.03 39.03,-39.03 21.54,0 39.03,17.49 39.03,39.03 z"
   style="fill:#ffffff;stroke:#010101;stroke-width:0.66666667;stroke-linecap:round;stroke-linejoin:round;opacity:1;stroke-miterlimit:4;stroke-dasharray:none"
   id="path3235" />
			<g
   id="g312"
   style="stroke-width:0.66666667;stroke-miterlimit:4;stroke-dasharray:none">
				<circle
   r="5"
   cx="185.49001"
   cy="348.85999"
   id="circle314"
   style="stroke-width:0.66666667;stroke-miterlimit:4;stroke-dasharray:none" />
				<circle
   r="7.5"
   cx="144.49001"
   cy="365.85999"
   id="circle316"
   style="stroke-width:0.66666667;stroke-miterlimit:4;stroke-dasharray:none" />
			</g>
			
			
			<g
   transform="translate(-0.82294,-1.8279)"
   id="g2508"
   style="stroke-width:0.66666667;stroke-miterlimit:4;stroke-dasharray:none">
				<path
   inkscape:connector-curvature="0"
   d="m 156.37,391.17 c -3.51,-11.33 0.5,-24.55 0.5,-24.55"
   style="fill:none;stroke:#010101;stroke-width:0.66666667;stroke-linecap:round;opacity:1;stroke-miterlimit:4;stroke-dasharray:none"
   id="path2510" />
				<path
   inkscape:connector-curvature="0"
   d="m 174.39,393.68 c 4.3,-18.25 -0.61,-32.73 -0.61,-32.73"
   style="fill:none;stroke:#010101;stroke-width:0.66666667;stroke-linecap:round;opacity:1;stroke-miterlimit:4;stroke-dasharray:none"
   id="path2512" />
				<path
   inkscape:connector-curvature="0"
   d="m 192.65,391.8 c 8.81,-13.85 1.26,-25.18 1.26,-25.18"
   style="fill:none;stroke:#010101;stroke-width:0.66666667;stroke-linecap:round;opacity:1;stroke-miterlimit:4;stroke-dasharray:none"
   id="path2514" />
			</g>
		</g>
	</g>
	<g
   id="face"
   style="stroke-width:0.66666667;stroke-miterlimit:4;stroke-dasharray:none">
		<g
   id="g325"
   style="stroke-width:0.66666667;stroke-miterlimit:4;stroke-dasharray:none">
			
			<path
   inkscape:connector-curvature="0"
   d="m 53.258,117.84 c -14.965,0 -27.116,12.15 -27.116,27.12 0,9.68 5.088,18.18 12.733,22.97 -8.083,14.29 -12.733,30.78 -12.733,48.35 0,54.33 44.067,98.44 98.398,98.44 54.33,0 98.44,-44.11 98.44,-98.44 0,-17.57 -4.65,-34.06 -12.74,-48.35 7.63,-4.8 12.74,-13.3 12.74,-22.97 0,-14.97 -12.15,-27.12 -27.12,-27.12 -9.67,0 -18.13,5.11 -22.93,12.74 -14.29,-8.1 -30.8,-12.74 -48.39,-12.74 -17.59,0 -34.064,4.65 -48.355,12.74 -4.797,-7.63 -13.254,-12.74 -22.927,-12.74 z"
   style="fill:#ffffff;stroke:#010101;stroke-width:0.66666667;stroke-linecap:round;stroke-linejoin:round;opacity:1;stroke-miterlimit:4;stroke-dasharray:none"
   id="path2479" />
			
			<path
   inkscape:connector-curvature="0"
   d="m 196.19,129.35 c -5.44,0 -10.19,2.86 -12.9,7.14 8.32,5.61 15.48,12.76 21.08,21.08 4.26,-2.71 7.11,-7.5 7.11,-12.93 0,-8.44 -6.85,-15.29 -15.29,-15.29 z"
   style="fill:#ffffff;stroke:#010101;stroke-width:0.66666667;stroke-linecap:round;stroke-linejoin:round;opacity:1;fill-opacity:1;stroke-miterlimit:4;stroke-dasharray:none"
   id="path2483" />
			<path
   inkscape:connector-curvature="0"
   d="m 53.191,129.35 c 5.438,0 10.188,2.86 12.897,7.14 -8.317,5.61 -15.478,12.76 -21.074,21.08 -4.269,-2.71 -7.113,-7.5 -7.113,-12.93 0,-8.44 6.852,-15.29 15.29,-15.29 z"
   style="fill:#ffffff;stroke:#010101;stroke-width:0.66666667;stroke-linecap:round;stroke-linejoin:round;opacity:1;fill-opacity:1;stroke-miterlimit:4;stroke-dasharray:none"
   id="path2523" />
		</g>
		<g
   id="g332"
   style="stroke-width:0.66666667;stroke-miterlimit:4;stroke-dasharray:none">
			<circle
   r="5"
   cx="109.49"
   cy="133.87"
   id="circle334"
   style="stroke-width:0.66666667;stroke-miterlimit:4;stroke-dasharray:none" />
			<circle
   r="5"
   cx="188.49001"
   cy="221.87"
   id="circle336"
   style="stroke-width:0.66666667;stroke-miterlimit:4;stroke-dasharray:none" />
			<circle
   r="5"
   cx="166.49001"
   cy="164.87"
   id="circle338"
   style="stroke-width:0.66666667;stroke-miterlimit:4;stroke-dasharray:none" />
			<circle
   r="7.5"
   cx="75.487999"
   cy="150.87"
   id="circle340"
   style="stroke-width:0.66666667;stroke-miterlimit:4;stroke-dasharray:none" />
			<circle
   r="7.5"
   cx="130.49001"
   cy="151.87"
   id="circle342"
   style="stroke-width:0.66666667;stroke-miterlimit:4;stroke-dasharray:none" />
			<circle
   r="7.5"
   cx="50.487999"
   cy="220.87"
   id="circle344"
   style="stroke-width:0.66666667;stroke-miterlimit:4;stroke-dasharray:none" />
			<circle
   r="7.5"
   cx="58.487999"
   cy="185.87"
   id="circle346"
   style="stroke-width:0.66666667;stroke-miterlimit:4;stroke-dasharray:none" />
			<circle
   r="7.5"
   cx="207.49001"
   cy="208.87"
   id="circle348"
   style="stroke-width:0.66666667;stroke-miterlimit:4;stroke-dasharray:none" />
			<circle
   r="7.5"
   cx="161.49001"
   cy="291.85999"
   id="circle350"
   style="stroke-width:0.66666667;stroke-miterlimit:4;stroke-dasharray:none" />
			<circle
   r="7.5"
   cx="173.49001"
   cy="142.87"
   id="circle352"
   style="stroke-width:0.66666667;stroke-miterlimit:4;stroke-dasharray:none" />
			<circle
   r="10"
   cx="194.49001"
   cy="179.87"
   id="circle354"
   style="stroke-width:0.66666667;stroke-miterlimit:4;stroke-dasharray:none" />
			<circle
   r="10"
   cx="96.487999"
   cy="164.87"
   id="circle356"
   style="stroke-width:0.66666667;stroke-miterlimit:4;stroke-dasharray:none" />
			<circle
   r="5"
   cx="151.49001"
   cy="258.85999"
   id="circle358"
   style="stroke-width:0.66666667;stroke-miterlimit:4;stroke-dasharray:none" />
			<circle
   r="5"
   cx="53.487999"
   cy="251.87"
   id="circle360"
   style="stroke-width:0.66666667;stroke-miterlimit:4;stroke-dasharray:none" />
			<circle
   r="5"
   cx="98.487999"
   cy="245.87"
   id="circle362"
   style="stroke-width:0.66666667;stroke-miterlimit:4;stroke-dasharray:none" />
			<circle
   r="5"
   cx="107.49"
   cy="294.85999"
   id="circle364"
   style="stroke-width:0.66666667;stroke-miterlimit:4;stroke-dasharray:none" />
			<circle
   r="5"
   cx="133.49001"
   cy="300.85999"
   id="circle366"
   style="stroke-width:0.66666667;stroke-miterlimit:4;stroke-dasharray:none" />
			<circle
   r="5"
   cx="205.49001"
   cy="250.87"
   id="circle368"
   style="stroke-width:0.66666667;stroke-miterlimit:4;stroke-dasharray:none" />
			<circle
   r="5"
   cx="80.487999"
   cy="282.85999"
   id="circle370"
   style="stroke-width:0.66666667;stroke-miterlimit:4;stroke-dasharray:none" />
			<circle
   r="5"
   cx="129.49001"
   cy="171.87"
   id="circle372"
   style="stroke-width:0.66666667;stroke-miterlimit:4;stroke-dasharray:none" />
			<circle
   r="5"
   cx="148.49001"
   cy="132.87"
   id="circle374"
   style="stroke-width:0.66666667;stroke-miterlimit:4;stroke-dasharray:none" />
			<circle
   r="5"
   cx="39.487999"
   cy="200.87"
   id="circle376"
   style="stroke-width:0.66666667;stroke-miterlimit:4;stroke-dasharray:none" />
			<path
   inkscape:connector-curvature="0"
   d="m 198.49,123.86 c 2.73,0 4.95,-2.2 4.99,-4.92 -2.42,-0.71 -4.97,-1.1 -7.62,-1.1 -0.77,0 -1.53,0.05 -2.28,0.11 -0.06,0.3 -0.09,0.6 -0.09,0.92 0,2.76 2.24,4.99 5,4.99 z"
   style="fill:#010101;opacity:1;stroke-width:0.66666667;stroke-miterlimit:4;stroke-dasharray:none"
   id="path378" />
			<path
   inkscape:connector-curvature="0"
   d="m 32.488,149.86 c 0,-2.76 -2.238,-5 -5,-5 -0.468,0 -0.912,0.09 -1.342,0.21 0.014,3.44 0.675,6.72 1.858,9.74 2.515,-0.26 4.484,-2.36 4.484,-4.95 z"
   style="fill:#010101;opacity:1;stroke-width:0.66666667;stroke-miterlimit:4;stroke-dasharray:none"
   id="path380" />
			<path
   inkscape:connector-curvature="0"
   d="m 61.488,123.86 c 0,2.77 2.238,5 5,5 2.417,0 4.434,-1.71 4.899,-3.99 -2.303,-2.09 -4.957,-3.8 -7.875,-5 -1.222,0.91 -2.024,2.35 -2.024,3.99 z"
   style="fill:#010101;opacity:1;stroke-width:0.66666667;stroke-miterlimit:4;stroke-dasharray:none"
   id="path382" />
		</g>
		<g
   id="g384"
   style="stroke-width:0.66666667;stroke-miterlimit:4;stroke-dasharray:none">
			<g
   transform="translate(-2.5218,-5.0362)"
   id="g3178"
   style="stroke-width:0.66666667;stroke-miterlimit:4;stroke-dasharray:none">
				<path
   inkscape:connector-curvature="0"
   d="m 181.22,240.41 c 5.22,19.47 -6.36,39.49 -25.88,44.71 -9.37,2.51 -19.36,1.2 -27.76,-3.64"
   style="fill:none;stroke:#010101;stroke-width:0.66666667;stroke-linecap:round;stroke-linejoin:round;opacity:1;stroke-miterlimit:4;stroke-dasharray:none"
   id="path2400" />
				<path
   inkscape:connector-curvature="0"
   d="m 72.804,240.41 c -5.23,19.47 6.354,39.49 25.873,44.71 9.373,2.51 19.363,1.2 27.763,-3.64"
   style="fill:none;stroke:#010101;stroke-width:0.66666667;stroke-linecap:round;stroke-linejoin:round;opacity:1;stroke-miterlimit:4;stroke-dasharray:none"
   id="path3176" />
			</g>
			<path
   inkscape:connector-curvature="0"
   d="m 141.18,251.6 c 0,8.83 -9.67,15.99 -16.06,15.99 -6.89,0 -16.07,-7.16 -16.07,-15.99 0,-8.83 7.2,-11.08 16.07,-11.08 8.87,0 16.06,2.25 16.06,11.08 z"
   style="fill:#010101;opacity:1;stroke-width:0.66666667;stroke-miterlimit:4;stroke-dasharray:none"
   id="path2397" />
			<g
   id="g390"
   style="stroke-width:0.66666667;stroke-miterlimit:4;stroke-dasharray:none">
				<path
   inkscape:connector-curvature="0"
   d="m 120.76,205.77 c 0.01,12.78 -10.34,23.15 -23.119,23.16 -12.778,0.01 -23.146,-10.35 -23.153,-23.13 v -0.03 c -0.009,-12.78 10.344,-23.14 23.123,-23.15 12.779,-0.01 23.149,10.34 23.149,23.12 z"
   style="fill:#ffffff;stroke:#010101;stroke-width:0.66666667;stroke-linecap:round;stroke-linejoin:round;opacity:1;stroke-miterlimit:4;stroke-dasharray:none"
   id="path2387" />
				<path
   inkscape:connector-curvature="0"
   d="m 111.72,208.43 c 0,3.97 -3.21,7.19 -7.18,7.19 -3.96,0 -7.178,-3.21 -7.181,-7.18 v -0.01 c -0.003,-3.96 3.211,-7.18 7.181,-7.18 3.96,-0.01 7.18,3.21 7.18,7.17 z"
   style="fill:#010101;opacity:1;stroke-width:0.66666667;stroke-miterlimit:4;stroke-dasharray:none"
   id="path2393" />
			</g>
			<g
   id="g394"
   style="stroke-width:0.66666667;stroke-miterlimit:4;stroke-dasharray:none">
				<path
   inkscape:connector-curvature="0"
   d="m 174.49,205.77 c 0.01,12.78 -10.35,23.15 -23.13,23.16 -12.77,0.01 -23.14,-10.35 -23.15,-23.13 v -0.03 c -0.01,-12.78 10.35,-23.14 23.13,-23.15 12.77,-0.01 23.14,10.34 23.15,23.12 z"
   style="fill:#ffffff;stroke:#010101;stroke-width:0.66666667;stroke-linecap:round;stroke-linejoin:round;opacity:1;stroke-miterlimit:4;stroke-dasharray:none"
   id="path2391" />
				<path
   inkscape:connector-curvature="0"
   d="m 151.08,208.43 c 0,3.97 -3.21,7.19 -7.17,7.19 -3.97,0 -7.19,-3.21 -7.19,-7.18 v -0.01 c 0,-3.96 3.21,-7.18 7.18,-7.18 3.96,-0.01 7.18,3.21 7.18,7.17 z"
   style="fill:#010101;opacity:1;stroke-width:0.66666667;stroke-miterlimit:4;stroke-dasharray:none"
   id="path2395" />
			</g>
		</g>
		<g
   id="g398"
   style="stroke-width:0.66666667;stroke-miterlimit:4;stroke-dasharray:none">
			<g
   transform="translate(0,-10.702)"
   id="g3188"
   style="stroke-width:0.66666667;stroke-miterlimit:4;stroke-dasharray:none">
				<path
   inkscape:connector-curvature="0"
   d="m 167.12,255.6 c 44.68,-16.6 66.51,3.9 66.51,3.9"
   style="fill:none;stroke:#010101;stroke-width:0.66666667;stroke-linecap:round;opacity:1;stroke-miterlimit:4;stroke-dasharray:none"
   id="path3182" />
				<path
   inkscape:connector-curvature="0"
   d="m 160.72,266.74 c 31.63,-8.96 52.35,13.89 52.35,13.89"
   style="fill:none;stroke:#010101;stroke-width:0.66666667;stroke-linecap:round;opacity:1;stroke-miterlimit:4;stroke-dasharray:none"
   id="path3184" />
				<path
   inkscape:connector-curvature="0"
   d="m 158.09,278.65 c 24.33,-2.57 33.65,19.13 33.65,19.13"
   style="fill:none;stroke:#010101;stroke-width:0.66666667;stroke-linecap:round;opacity:1;stroke-miterlimit:4;stroke-dasharray:none"
   id="path3186" />
			</g>
			<g
   transform="matrix(-1,0,0,1,651.56,-10.702)"
   id="g3193"
   style="stroke-width:0.66666667;stroke-miterlimit:4;stroke-dasharray:none">
				<path
   inkscape:connector-curvature="0"
   d="m 563.57,255.6 c 44.67,-16.6 66.5,3.9 66.5,3.9"
   style="fill:none;stroke:#010101;stroke-width:0.66666667;stroke-linecap:round;opacity:1;stroke-miterlimit:4;stroke-dasharray:none"
   id="path3195" />
				<path
   inkscape:connector-curvature="0"
   d="m 557.16,266.74 c 31.64,-8.96 52.35,13.89 52.35,13.89"
   style="fill:none;stroke:#010101;stroke-width:0.66666667;stroke-linecap:round;opacity:1;stroke-miterlimit:4;stroke-dasharray:none"
   id="path3197_4_" />
				<path
   inkscape:connector-curvature="0"
   d="m 554.53,278.65 c 24.34,-2.57 33.66,19.13 33.66,19.13"
   style="fill:none;stroke:#010101;stroke-width:0.66666667;stroke-linecap:round;opacity:1;stroke-miterlimit:4;stroke-dasharray:none"
   id="path3199" />
			</g>
		</g>
	</g>
</g>
<metadata
   id="metadata109"><rdf:RDF><cc:Work><dc:format>image/svg+xml</dc:format><dc:type
         rdf:resource="http://purl.org/dc/dcmitype/StillImage" /><cc:license
         rdf:resource="http://creativecommons.org/publicdomain/zero/1.0/" /><dc:publisher><cc:Agent
           rdf:about="http://openclipart.org/"><dc:title>Openclipart</dc:title></cc:Agent></dc:publisher><dc:title></dc:title><dc:date>2009-03-16T16:52:23</dc:date><dc:description>Cartoon leopard. Remixed from Lemmling's Cartoon Giraffe (color) and Cartoon Cat.</dc:description><dc:source>https://openclipart.org/detail/22343/cartoon-leopard-by-studiofibonacci</dc:source><dc:creator><cc:Agent><dc:title>StudioFibonacci</dc:title></cc:Agent></dc:creator><dc:subject><rdf:Bag><rdf:li>animal</rdf:li><rdf:li>cartoon</rdf:li><rdf:li>cat</rdf:li><rdf:li>leopard</rdf:li><rdf:li>mammal</rdf:li><rdf:li>remix</rdf:li></rdf:Bag></dc:subject></cc:Work><cc:License
       rdf:about="http://creativecommons.org/publicdomain/zero/1.0/"><cc:permits
         rdf:resource="http://creativecommons.org/ns#Reproduction" /><cc:permits
         rdf:resource="http://creativecommons.org/ns#Distribution" /><cc:permits
         rdf:resource="http://creativecommons.org/ns#DerivativeWorks" /></cc:License></rdf:RDF></metadata></svg>