<?xml version="1.0" encoding="UTF-8" standalone="no"?>
<!-- Created with Inkscape (http://www.inkscape.org/) -->
<svg xmlns:rdf="http://www.w3.org/1999/02/22-rdf-syntax-ns#" xmlns="http://www.w3.org/2000/svg" xmlns:cc="http://web.resource.org/cc/" xmlns:dc="http://purl.org/dc/elements/1.1/" xmlns:svg="http://www.w3.org/2000/svg" xmlns:inkscape="http://www.inkscape.org/namespaces/inkscape" xmlns:sodipodi="http://sodipodi.sourceforge.net/DTD/sodipodi-0.dtd" xmlns:ns1="http://sozi.baierouge.fr" xmlns:xlink="http://www.w3.org/1999/xlink" id="Layer_1" xml:space="preserve" version="1.0" viewBox="0 0 238 283.167" inkscape:version="0.91 r13725">
<g id="g236">
	<path id="path2383_2_" style="stroke-linejoin:round;stroke:#010101;stroke-width:3.2874;stroke-linecap:round;fill:#ffffff" d="m229.84 161.2c0.02 60.51-49.03 109.57-109.54 109.57-60.504 0-109.55-49.06-109.53-109.57-0.02-60.5 49.027-109.56 109.53-109.56 60.51-0.005 109.56 49.06 109.54 109.56z"/>
	<path id="path3221" style="fill-opacity:.3137;fill:#010101" d="m223.22 123.63c0.08 1.68 0.13 3.39 0.13 5.09 0 60.46-49.07 109.53-109.54 109.53-47.258 0-87.588-30-102.93-71.97 2.649 58.11 50.67 104.47 109.43 104.47 60.47 0 109.54-49.07 109.54-109.53 0-13.2-2.34-25.87-6.63-37.59z"/>
	<g id="g240">
		<path id="path242" style="fill:#010101" d="m12.307 169.42c-0.001 2.65 0.1 5.28 0.286 7.89 4.025-55.98 50.708-100.15 107.72-100.15 57 0.002 103.69 44.17 107.71 100.15 0.19-2.61 0.29-5.24 0.29-7.89 0.01-59.66-48.35-108.03-108-108.03-59.662-0.001-108.02 48.37-108 108.03z"/>
		<path id="path244" style="fill:#010101" d="m119.31 104.72c53.09 0 96.89 39.79 103.21 91.18 0.27-0.77 0.53-1.53 0.79-2.3v-0.04c0.01-57.44-46.55-104.02-104-104.02-57.452-0.004-104.02 46.58-104 104.02-0.003 0.02-0.002 0.03-0.002 0.04 0.255 0.77 0.519 1.53 0.79 2.3 6.322-51.39 50.115-91.18 103.21-91.18z"/>
		<path id="path246" style="fill:#010101" d="m119.31 129.54c-47.287 0-87.194 31.56-99.828 74.75 0.959 2.12 1.988 4.19 3.074 6.24 15.227-38.54 52.801-65.81 96.754-65.81 43.95 0 81.52 27.27 96.75 65.81 1.08-2.05 2.11-4.12 3.07-6.24-12.63-43.2-52.54-74.75-99.82-74.75z"/>
		<path id="path248" style="fill:#010101" d="m119.31 169.54c-38.48 0-72.073 20.89-90.062 51.95 1.668 2.41 3.426 4.74 5.276 7 18.85-26.48 49.795-43.77 84.786-43.77 34.98 0 65.93 17.28 84.78 43.77 1.85-2.26 3.61-4.59 5.27-7-17.98-31.06-51.58-51.95-90.05-51.95z"/>
	</g>
</g>
<g id="g250">
	<g id="g252">
		<path id="path3329" style="stroke-linejoin:round;stroke:#010101;stroke-width:4;stroke-linecap:round;fill:#343434" d="m112.81 271.78c0 9.09-14.667 9.38-32.736 9.38-18.07 0-32.736 0.69-32.736-9.38 0-17.72 14.666-32.1 32.736-32.1 18.069 0 32.736 14.38 32.736 32.1z"/>
		<path id="path3331" style="stroke-linejoin:round;stroke:#010101;stroke-width:4;fill-opacity:.3137;fill:#010101" d="m67.483 280.56c0-16.37 9.442-26.44 9.442-26.44s-3.777 13.85-3.147 26.44h-6.295z"/>
	</g>
	<g id="g256">
		<path id="path3172" style="stroke-linejoin:round;stroke:#010101;stroke-width:4;stroke-linecap:round;fill:#343434" d="m127.81 271.78c0 9.09 14.66 9.38 32.73 9.38s32.74 0.69 32.74-9.38c0-17.72-14.67-32.1-32.74-32.1s-32.73 14.38-32.73 32.1z"/>
		<path id="path3174" style="stroke-linejoin:round;stroke:#010101;stroke-width:4;fill-opacity:.3137;fill:#010101" d="m173.13 280.56c0-16.37-9.44-26.44-9.44-26.44s3.78 13.85 3.15 26.44h6.29z"/>
	</g>
</g>
<g id="g260">
	<path id="path262" style="stroke-linejoin:round;stroke:#010101;stroke-width:4;stroke-linecap:round;fill:#ffffff" d="m113.92 34.501c0.73 0.092 1.46 0.22 2.2 0.33 19.91 2.985 34.1 11.633 43.39 23.958l12.05-16.931c-0.08-0.002-0.16-0.014-0.25-0.015-8.23-19.026-24.54-32.751-50.74-36.681-0.74-0.112-1.47-0.239-2.2-0.331-10.56-1.321-20.018-0.606-28.411 1.799l-4.448 29.667c8.391-2.404 17.849-3.119 28.409-1.796z"/>
	<g id="g264">
		<path id="path266" style="stroke-linejoin:round;stroke:#010101;stroke-width:4;stroke-linecap:round;fill:#ffffff" d="m114.85 5.472c-9.15-0.771-17.442 0.023-24.891 2.158l-4.448 29.667c4.182-1.198 8.628-1.976 13.344-2.292l4.105-27.375c3.75-1.073 7.72-1.789 11.89-2.158z"/>
		<path id="path268" style="stroke-linejoin:round;stroke:#010101;stroke-width:4;stroke-linecap:round" d="m115.96 7.63c1.81-0.521 3.69-0.945 5.6-1.304-0.33-0.054-0.66-0.113-0.99-0.163-0.74-0.112-1.48-0.239-2.21-0.331-1.18-0.149-2.35-0.263-3.51-0.361-4.17 0.369-8.15 1.084-11.89 2.158l-4.106 27.375c3.686-0.247 7.526-0.204 11.546 0.134 0.48-0.043 0.96-0.102 1.45-0.134l4.11-27.374z"/>
		<path id="path270" style="stroke-linejoin:round;stroke:#010101;stroke-width:4;stroke-linecap:round;fill:#ffffff" d="m128.93 7.835c-2.36-0.594-4.81-1.099-7.36-1.509-1.92 0.358-3.79 0.783-5.61 1.304l-4.1 27.375c3.68-0.247 7.53-0.204 11.54 0.134 0.49-0.043 0.96-0.102 1.46-0.134l4.07-27.17z"/>
		<path id="path272" style="stroke-linejoin:round;stroke:#010101;stroke-width:4;stroke-linecap:round" d="m141.29 12.122c-3.8-1.729-7.91-3.166-12.36-4.286l-4.07 27.17c3.68-0.247 7.53-0.204 11.54 0.134 0.49-0.043 0.96-0.102 1.46-0.134l3.43-22.884z"/>
		<path id="path274" style="stroke-linejoin:round;stroke:#010101;stroke-width:4;stroke-linecap:round;fill:#ffffff" d="m153.22 19.26c-3.56-2.741-7.53-5.134-11.94-7.139l-3.43 22.884c3.69-0.247 7.53-0.204 11.55 0.134 0.48-0.043 0.96-0.102 1.45-0.134l2.37-15.745z"/>
		<path id="path276" style="stroke-linejoin:round;stroke:#010101;stroke-width:4;stroke-linecap:round" d="m153.22 19.26l-2.36 15.746c3.68-0.247 7.53-0.204 11.54 0.134 1.56-0.139 3.15-0.239 4.78-0.273-3.65-5.965-8.28-11.227-13.96-15.607z"/>
	</g>
</g>
<g id="g278">
	<g id="g280">
		<path id="path3236" style="fill-opacity:.3137;fill:#010101" d="m204.72 125.92c0 45.18-55.12 81.84-81.84 81.84-25.719 0-81.838-36.66-81.838-81.84 0-45.173 24.625-81.837 81.838-81.837 57.22 0 81.84 36.665 81.84 81.837z"/>
		<path id="path3231" style="fill-opacity:.3137;fill:#010101" d="m198.64 85.911l-1.88 2.656c0.25 3.076 0.35 6.203 0.35 9.375 0 45.178-55.13 81.848-81.85 81.848-20.702 0-61.093-23.76-76.058-56.6 7.615 40.25 57.172 71.38 80.878 71.38 26.71 0 81.84-36.67 81.84-81.85 0-9.39-1.08-18.407-3.28-26.809z"/>
		<path id="path284" style="stroke-linejoin:round;stroke:#010101;stroke-width:4;stroke-linecap:round;fill:#ffffff" d="m235.03 4.202c-5.02-6.518-64.88 0.521-73.39 33.507-0.08 0.154-0.22 0.618-0.37 1.315-0.05 0.214-0.1 0.447-0.15 0.705-1.92-1.174-3.91-2.261-5.93-3.272-9.98-3.714-21.67-5.762-35.18-5.762-0.89 0-1.78-0.018-2.65 0-12.88 0.261-24.04 2.432-33.603 6.159-2.307 1.185-4.552 2.471-6.723 3.866-0.045-0.282-0.091-0.543-0.136-0.794-0.216-1.183-0.433-2.007-0.537-2.216-6.647-25.772-44.629-35.682-63.329-35.687-5.237-0.001-8.962 0.753-10.06 2.179-4.002 5.193 4.251 46.94 26.575 61.389 4.198 2.717 8.894 4.473 14.101 4.833 2.119 0.146 4.11 0.156 5.98 0.119-5.838 11.05-9.148 23.634-9.148 36.997 0 13.51 3.386 27.69 9.349 40.84 17.844 27.21 51.791 45.97 70.191 45.97 18.56 0 50.84-17.71 68.81-43.67 6.64-13.78 10.43-28.83 10.43-43.14 0-13.35-3.32-25.914-9.14-36.957 1.34-0.012 2.77-0.057 4.23-0.158 5.6-0.388 10.6-2.384 15.03-5.457 21.62-14.989 29.59-55.646 25.65-60.766z"/>
	</g>
	<g id="g286">
		<path id="path288" d="m119.63 28.536c-35.869 0-66.33 24.378-77.402 58.299-1.3 5.692-1.994 11.615-1.994 17.705 0 1.28 0.04 2.57 0.101 3.87 9.091-37.309 41.146-64.874 79.295-64.874 38.14 0 70.18 27.546 79.29 64.834 0.06-1.28 0.1-2.56 0.1-3.83 0-6.173-0.72-12.172-2.06-17.934-11.14-33.802-41.54-58.07-77.33-58.07z"/>
		<path id="path290" d="m119.63 58.536c-36.679 0-67.721 25.481-78.14 60.604 0.512 3.05 1.174 6.11 1.98 9.15 11.985-32.062 41.555-54.754 76.16-54.754 34.6 0 64.16 22.682 76.15 54.724 0.81-3.04 1.47-6.1 1.98-9.15-10.43-35.106-41.46-60.574-78.13-60.574z"/>
		<path id="path292" d="m119.63 88.536c-32.251 0-60.135 19.704-73.482 48.334 1.016 2.85 2.146 5.66 3.398 8.42 14.348-25.03 40.365-41.75 70.084-41.75 29.71 0 55.72 16.72 70.07 41.73 1.26-2.76 2.39-5.57 3.41-8.41-13.35-28.62-41.23-48.324-73.48-48.324z"/>
		<path id="path294" d="m119.8 118.54c-26.535 0-50.111 13.27-65.118 33.85 2.007 2.51 4.138 4.93 6.37 7.25 14.909-16.1 35.713-26.1 58.748-26.1 23.17 0 44.09 10.13 59.02 26.41 2.22-2.31 4.35-4.72 6.34-7.23-14.99-20.77-38.69-34.18-65.36-34.18z"/>
	</g>
	<g id="g296">
		<path id="path3210" style="stroke-linejoin:round;stroke:#010101;stroke-width:4;stroke-linecap:round;fill:#fad5e5" d="m118.98 144.16c-19.86 0-35.966 13.22-35.966 29.5 0 3.02 0.563 5.94 1.594 8.69 12.711 7.74 25.392 12.22 34.372 12.22 9.2 0 21.76-4.33 34.28-11.88 1.12-2.84 1.72-5.88 1.72-9.03 0-16.28-16.14-29.5-36-29.5z"/>
		<path id="path2412" style="fill:#010101" d="m102.85 169.37c2.29 3.97 6.5 5.84 9.39 4.17 2.9-1.68 3.39-6.25 1.09-10.23-2.29-3.97-6.5-5.83-9.39-4.16-2.9 1.67-3.39 6.25-1.09 10.22z"/>
		<path id="path2398" style="fill:#010101" d="m135.58 169.37c-2.29 3.97-6.5 5.84-9.39 4.17-2.9-1.68-3.39-6.25-1.09-10.23 2.29-3.97 6.5-5.83 9.39-4.16 2.9 1.67 3.39 6.25 1.09 10.22z"/>
	</g>
	<g id="g301">
		<g id="g303">
			<path id="path3159" style="stroke-linejoin:round;stroke:#010101;stroke-width:4;stroke-linecap:round;fill:#ffffff" d="m168.03 100.74c0 12.52-10.15 22.67-22.66 22.67-12.52 0-22.67-10.15-22.67-22.67 0-12.523 10.15-22.673 22.67-22.673 12.51 0 22.66 10.15 22.66 22.673z"/>
			<path id="path3161" style="fill:#010101" d="m147.88 104.74c0 4.17-3.38 7.55-7.55 7.55s-7.56-3.38-7.56-7.55c0-4.18 3.39-7.56 7.56-7.56s7.55 3.38 7.55 7.56z"/>
		</g>
		<g id="g307">
			<path id="path3157" style="stroke-linejoin:round;stroke:#010101;stroke-width:4;stroke-linecap:round;fill:#ffffff" d="m115.3 100.74c0 12.52-10.15 22.67-22.667 22.67-12.52 0-22.667-10.15-22.663-22.67-0.004-12.523 10.144-22.673 22.663-22.673 12.517 0 22.667 10.15 22.667 22.673z"/>
			<path id="path3163" style="fill:#010101" d="m105.85 104.74c0 4.17-3.38 7.55-7.551 7.55-4.174 0-7.556-3.38-7.555-7.55-0.001-4.18 3.381-7.56 7.555-7.56 4.171 0 7.551 3.38 7.551 7.56z"/>
		</g>
	</g>
	<g id="g311">
		<path id="path3216_1_" style="stroke-linejoin:round;stroke:#010101;stroke-width:4;fill:#010101" d="m65.837 59.58c-2.512-36.234-39.821-44.485-41.615-40.18s6.817 52.736 41.615 40.18z"/>
		<path id="path3218_1_" style="stroke-linejoin:round;stroke:#010101;stroke-width:4;fill:#010101" d="m172.16 59.58c2.51-36.234 39.82-44.485 41.62-40.18 1.79 4.305-6.82 52.736-41.62 40.18z"/>
	</g>
</g>
<metadata><rdf:RDF><cc:Work><dc:format>image/svg+xml</dc:format><dc:type rdf:resource="http://purl.org/dc/dcmitype/StillImage"/><cc:license rdf:resource="http://creativecommons.org/licenses/publicdomain/"/><dc:publisher><cc:Agent rdf:about="http://openclipart.org/"><dc:title>Openclipart</dc:title></cc:Agent></dc:publisher><dc:title>Cartoon zebra</dc:title><dc:date>2009-03-13T17:36:50</dc:date><dc:description>Cartoon zebra. Remixed from Lemmling's Cartoon Cow and Cartoon Kangaroo</dc:description><dc:source>https://openclipart.org/detail/22287/cartoon-zebra-by-studiofibonacci</dc:source><dc:creator><cc:Agent><dc:title>StudioFibonacci</dc:title></cc:Agent></dc:creator><dc:subject><rdf:Bag><rdf:li>africa</rdf:li><rdf:li>animal</rdf:li><rdf:li>cartoon</rdf:li><rdf:li>mammal</rdf:li><rdf:li>remix</rdf:li><rdf:li>zebra</rdf:li></rdf:Bag></dc:subject></cc:Work><cc:License rdf:about="http://creativecommons.org/licenses/publicdomain/"><cc:permits rdf:resource="http://creativecommons.org/ns#Reproduction"/><cc:permits rdf:resource="http://creativecommons.org/ns#Distribution"/><cc:permits rdf:resource="http://creativecommons.org/ns#DerivativeWorks"/></cc:License></rdf:RDF></metadata></svg>