<?xml version="1.0" encoding="UTF-8" standalone="no"?>
<!-- Created with Inkscape (http://www.inkscape.org/) -->
<svg xmlns:rdf="http://www.w3.org/1999/02/22-rdf-syntax-ns#" xmlns="http://www.w3.org/2000/svg" xmlns:cc="http://web.resource.org/cc/" xmlns:dc="http://purl.org/dc/elements/1.1/" xmlns:svg="http://www.w3.org/2000/svg" xmlns:inkscape="http://www.inkscape.org/namespaces/inkscape" xmlns:sodipodi="http://sodipodi.sourceforge.net/DTD/sodipodi-0.dtd" xmlns:ns1="http://sozi.baierouge.fr" xmlns:xlink="http://www.w3.org/1999/xlink" id="Layer_1" xml:space="preserve" version="1.0" viewBox="0 0 237.068 551.954" inkscape:version="0.91 r13725">
<g id="g236">
	<g id="g238">
		<g id="g240">
			<path id="path2383_3_" style="stroke-linejoin:round;stroke:#010101;stroke-width:4;stroke-linecap:round;fill:#808080" d="m235.07 426.04c0.02 64.37-52.16 116.57-116.54 116.57-64.371 0-116.55-52.2-116.53-116.57-0.02-64.37 52.159-116.57 116.53-116.57 64.38 0 116.56 52.2 116.54 116.57z"/>
			<path id="path3339" style="fill-opacity:.3137;fill:#010101" d="m219.27 371.2c2.99 10.25 4.58 21.1 4.58 32.32 0 63.61-51.62 115.24-115.24 115.24-43.734 0-81.819-24.41-101.34-60.34 14.03 47.82 58.252 82.78 110.6 82.78 63.61 0 115.24-51.62 115.24-115.24 0-19.81-5.02-38.47-13.84-54.76z"/>
		</g>
		<g id="g244">
			<g id="g246" style="display:none">
					<ellipse id="ellipse248" style="display:inline;fill:#ffffff" rx="41.999" ry="11.666" transform="matrix(.9986 .0523 -.0523 .9986 23.698 -8.4388)" cy="448.24" cx="172.97"/>
					<ellipse id="ellipse250" style="display:inline;fill:#ffffff" rx="41.999" ry="11.666" transform="matrix(-.9986 .0523 -.0523 -.9986 151.41 896.51)" cy="450.24" cx="63.968"/>
				<path id="path252" style="stroke-linejoin:round;stroke:#010101;stroke-linecap:round;stroke-width:4;display:inline;fill:#ffffff" d="m23.064 451.28s29.852 79.04 51.731 76.35c21.881-2.69 29.715-83.6 29.715-83.6"/>
				<path id="path254" style="stroke-linejoin:round;stroke:#010101;stroke-linecap:round;stroke-width:4;display:inline;fill:#ffffff" d="m132.12 444.03s7.83 80.91 29.71 83.6 53.29-78.6 53.29-78.6"/>
			</g>
			<g id="g256">
				<g id="g258">
					<path id="path3329" style="stroke-linejoin:round;stroke:#010101;stroke-width:4;stroke-linecap:round;fill:#343434" d="m110.4 539.86c0 9.77-15.756 10.08-35.175 10.08s-35.18 0.75-35.18-10.08c0-19.04 15.761-34.49 35.18-34.49s35.175 15.45 35.175 34.49z"/>
					<path id="path3331" style="stroke-linejoin:round;stroke:#010101;stroke-width:4;fill-opacity:.3137;fill:#010101" d="m61.696 549.3c0-17.59 10.146-28.42 10.146-28.42s-4.059 14.89-3.381 28.42h-6.765z"/>
				</g>
				<g id="g262">
					<path id="path3172" style="stroke-linejoin:round;stroke:#010101;stroke-width:4;stroke-linecap:round;fill:#343434" d="m127.78 539.86c0 9.77 15.76 10.08 35.18 10.08s35.18 0.75 35.18-10.08c0-19.04-15.76-34.49-35.18-34.49s-35.18 15.45-35.18 34.49z"/>
					<path id="path3174" style="stroke-linejoin:round;stroke:#010101;stroke-width:4;fill-opacity:.3137;fill:#010101" d="m176.49 549.3c0-17.59-10.15-28.42-10.15-28.42s4.06 14.89 3.39 28.42h6.76z"/>
				</g>
			</g>
		</g>
	</g>
	<g id="g266">
		<ellipse id="ellipse268" style="fill:#ffffff" rx="54.5" ry="17.5" cy="363.41" cx="119.09"/>
		<path id="path2399_1_" style="stroke-linejoin:round;stroke:#010101;stroke-width:4;stroke-linecap:round;fill:#ffffff" d="m65.041 363.9c29.988-36.9 14.48-125.33 14.48-125.33l73.439-3.18s-11.84 89.07 18.77 126.61"/>
		<path id="path3214_1_" style="fill-opacity:.3137;fill:#010101" d="m152.95 235.38l-21 0.92-52.44 2.28s0.295 4.72 0.382 12.23c16.107 8.04 32.338 12.71 43.718 12.71 4.08 0 8.7-0.55 13.66-1.61 7.57 32.46 11.62 78.22 34.1 99.8l0.35 0.3c-21.07-25.83-16.73-76.09-18.23-104.9-0.17-3.27-0.3-6.27-0.39-8.92-0.06-2.12-0.09-3.99-0.11-5.63-0.02-1.32-0.03-2.31-0.04-3.28-0.01-1.51-0.01-1.71 0-2.35v-1.55z"/>
	</g>
	<g id="g272">
		<g id="g274">
			<g id="g276">
				<path id="path278" style="stroke-linejoin:round;stroke:#010101;stroke-width:4;fill:#ffffff" d="m194.14 122.33c0.21 0-9.83-17.29-13.53-21.01 1.09-0.67 1.81-1.27 1.95-1.463 16.45-13.354 10.15-53.833 3.5-72.492-1.07-2.976-2.13-5.367-3.12-7.035-4.59-9.654-11.43-19.569-12.74-18.204 3.54 7.025 3.81 11.114 2.91 11.303-1.71 0.354-3.72-3.919-9.07-0.402 3.8 1.671 6.11 5.064 7.61 7.839-12.75 7.954-32.19 29.761-24.63 54.879 0.64 2.154 1.35 4.137 2.05 5.992-1.33-0.385-1.59-0.154-1.07 0.507-0.5-0.181-1.01-0.364-1.52-0.536-8.12-1.92-17.1-2.968-27-2.968-0.96 0-1.92-0.019-2.86 0-8.08 0.164-15.51 1.047-22.36 2.534-0.572 0.183-1.137 0.381-1.704 0.576 0.1-0.34-0.286-0.407-1.299-0.113 0.694-1.855 1.403-3.837 2.051-5.992 7.562-25.118-11.886-46.926-24.636-54.879 1.504-2.774 3.812-6.168 7.613-7.839-5.347-3.518-7.362 0.756-9.067 0.402-0.907-0.189-0.628-4.278 2.907-11.303-1.31-1.366-8.146 8.55-12.741 18.204-0.988 1.667-2.052 4.059-3.113 7.035-6.659 18.66-12.952 59.139 3.496 72.492 0.14 0.193 0.861 0.793 1.945 1.463-3.229 3.25-14.792 20.98-14.422 20.97-6.184 11.71-9.692 25.06-9.692 39.23 0 16.97 5.025 34.91 13.66 50.87 20.009 25.3 52.122 42.22 70.222 42.22 19.03 0 51.47-17.33 71.18-43.15 8.34-15.72 13.17-33.3 13.17-49.94 0-14.15-3.52-27.48-9.69-39.19z"/>
				<path id="path3231" style="fill-opacity:.3137;fill:#010101" d="m199.81 141.08c-1.96 20.58-10.21 92.83-86.52 102.88-21.308 2.8-63.407-27.53-78.937-62.82 7.903 43.25 59.33 76.7 83.927 76.7 27.73 0 84.93-39.4 84.93-87.95 0-10.09-3.06-32.42-3.4-28.81z"/>
			</g>
			<g id="g281">
				<path id="path3573_3_" style="stroke-linejoin:round;stroke:#010101;stroke-width:4;fill:#fad5e5" d="m176.74 94.657c9.11-8.012 5.62-43.299 1.94-54.495-0.59-1.786-1.18-2.22-1.73-3.221-2.54-5.792-22.07 30.179-17.89 45.25 0.36 1.292 17.6 12.582 17.68 12.466z"/>
				<path id="path3573_1_" style="stroke-linejoin:round;stroke:#010101;stroke-width:4;fill:#fad5e5" d="m80.986 82.19c4.185-15.071-15.347-51.042-17.892-45.25-0.547 1-1.135 1.435-1.723 3.221-3.688 11.196-7.171 46.483 1.936 54.495 0.077 0.117 17.32-11.173 17.679-12.466z"/>
			</g>
		</g>
		<path id="path2397_1_" style="stroke:#010101;stroke-width:4;fill:#fad5e5" d="m132.91 203.32c0 7.59-8.32 13.75-13.82 13.75-5.92 0-13.81-6.16-13.81-13.75s6.19-9.52 13.81-9.52c7.63 0 13.82 1.93 13.82 9.52z"/>
		<g id="g3178_1_" transform="translate(-2.5218 -5.0362)">
			<path id="path2400_1_" style="stroke-linejoin:round;stroke:#010101;stroke-width:4;stroke-linecap:round;fill:none" d="m136.36 229.94c1.42 5.3-1.73 10.74-7.04 12.16-2.55 0.68-5.26 0.33-7.55-0.99"/>
			<path id="path3176_1_" style="stroke-linejoin:round;stroke:#010101;stroke-width:4;stroke-linecap:round;fill:none" d="m106.87 229.94c-1.42 5.3 1.73 10.74 7.04 12.16 2.55 0.68 5.27 0.33 7.55-0.99"/>
		</g>
		<g id="g289">
			<g id="g291">
				<path id="path2387_2_" style="stroke-linejoin:round;stroke:#010101;stroke-width:4;stroke-linecap:round;fill:#ffffff" d="m79.787 153.88c0.009 13.73-11.116 24.87-24.849 24.88-13.732 0-24.873-11.12-24.882-24.85v-0.03c-0.009-13.74 11.116-24.88 24.849-24.89 13.732-0.01 24.872 11.12 24.882 24.85v0.04z"/>
				<path id="path2393_2_" style="fill:#010101" d="m70.07 156.73c0.002 4.27-3.451 7.72-7.713 7.73-4.262 0-7.719-3.45-7.722-7.72v-0.01c-0.003-4.26 3.449-7.72 7.711-7.72 4.264 0 7.72 3.45 7.724 7.71v0.01z"/>
			</g>
			<g id="g295">
				<path id="path2391_2_" style="stroke-linejoin:round;stroke:#010101;stroke-width:4;stroke-linecap:round;fill:#ffffff" d="m208.13 153.88c0.01 13.73-11.11 24.87-24.85 24.88-13.73 0-24.87-11.12-24.88-24.85v-0.03c-0.01-13.74 11.12-24.88 24.85-24.89s24.87 11.12 24.88 24.85v0.04z"/>
				<path id="path2395_2_" style="fill:#010101" d="m182.98 156.73c0 4.27-3.45 7.72-7.71 7.73-4.27 0-7.72-3.45-7.73-7.72v-0.01c0-4.26 3.45-7.72 7.72-7.72 4.26 0 7.72 3.45 7.72 7.71v0.01z"/>
			</g>
		</g>
	</g>
</g>
<metadata><rdf:RDF><cc:Work><dc:format>image/svg+xml</dc:format><dc:type rdf:resource="http://purl.org/dc/dcmitype/StillImage"/><cc:license rdf:resource="http://creativecommons.org/licenses/publicdomain/"/><dc:publisher><cc:Agent rdf:about="http://openclipart.org/"><dc:title>Openclipart</dc:title></cc:Agent></dc:publisher><dc:title>Cartoon llama</dc:title><dc:date>2009-03-23T20:09:16</dc:date><dc:description>Cartoon llama. Remixed from Lemmling's Cartoon Cat (face), Cartoon Beaver (ears), and Cartoon Giraffe (body).</dc:description><dc:source>https://openclipart.org/detail/23065/cartoon-llama-by-studiofibonacci</dc:source><dc:creator><cc:Agent><dc:title>StudioFibonacci</dc:title></cc:Agent></dc:creator><dc:subject><rdf:Bag><rdf:li>animal</rdf:li><rdf:li>camelid</rdf:li><rdf:li>cartoon</rdf:li><rdf:li>llama</rdf:li><rdf:li>mammal</rdf:li><rdf:li>remix</rdf:li></rdf:Bag></dc:subject></cc:Work><cc:License rdf:about="http://creativecommons.org/licenses/publicdomain/"><cc:permits rdf:resource="http://creativecommons.org/ns#Reproduction"/><cc:permits rdf:resource="http://creativecommons.org/ns#Distribution"/><cc:permits rdf:resource="http://creativecommons.org/ns#DerivativeWorks"/></cc:License></rdf:RDF></metadata></svg>