<?xml version="1.0" encoding="UTF-8" standalone="no"?>
<!-- Created with Inkscape (http://www.inkscape.org/) -->

<svg
   xmlns:dc="http://purl.org/dc/elements/1.1/"
   xmlns:cc="http://creativecommons.org/ns#"
   xmlns:rdf="http://www.w3.org/1999/02/22-rdf-syntax-ns#"
   xmlns:svg="http://www.w3.org/2000/svg"
   xmlns="http://www.w3.org/2000/svg"
   xmlns:sodipodi="http://sodipodi.sourceforge.net/DTD/sodipodi-0.dtd"
   xmlns:inkscape="http://www.inkscape.org/namespaces/inkscape"
   id="Layer_1"
   xml:space="preserve"
   version="1.0"
   viewBox="0 0 695.00464 807.93661"
   inkscape:version="0.92.3 (2405546, 2018-03-11)"
   sodipodi:docname="StudioFibonacci-Cartoon-zebra.adapted.svg"
   width="695.00464"
   height="807.93658"><defs
   id="defs55" /><sodipodi:namedview
   pagecolor="#ffffff"
   bordercolor="#666666"
   borderopacity="1"
   objecttolerance="10"
   gridtolerance="10"
   guidetolerance="10"
   inkscape:pageopacity="0"
   inkscape:pageshadow="2"
   inkscape:window-width="2560"
   inkscape:window-height="1373"
   id="namedview53"
   showgrid="false"
   fit-margin-top="50"
   fit-margin-left="50"
   fit-margin-right="50"
   fit-margin-bottom="50"
   inkscape:zoom="1.4605107"
   inkscape:cx="347.50232"
   inkscape:cy="403.96829"
   inkscape:window-x="-9"
   inkscape:window-y="-9"
   inkscape:window-maximized="1"
   inkscape:current-layer="g278" />
<g
   id="g236"
   transform="matrix(2.5,0,0,2.5,50.003001,50.001091)"
   style="stroke-width:0.4;stroke-miterlimit:4;stroke-dasharray:none">
	<path
   id="path2383_2_"
   style="fill:#ffffff;stroke:#010101;stroke-width:0.4;stroke-linecap:round;stroke-linejoin:round;stroke-miterlimit:4;stroke-dasharray:none"
   d="M 229.84,161.2 C 229.86,221.71 180.81,270.77 120.3,270.77 59.796,270.77 10.75,221.71 10.77,161.2 10.75,100.7 59.797,51.64 120.3,51.64 180.81,51.635 229.86,100.7 229.84,161.2 Z"
   inkscape:connector-curvature="0" />
	
	<g
   id="g240"
   style="stroke-width:0.4;stroke-miterlimit:4;stroke-dasharray:none">
		<path
   id="path242"
   style="fill:none;stroke-width:0.4;stroke-miterlimit:4;stroke-dasharray:none;stroke:#010101;stroke-opacity:1"
   d="m 12.307,169.42 c -0.001,2.65 0.1,5.28 0.286,7.89 4.025,-55.98 50.708,-100.15 107.72,-100.15 57,0.002 103.69,44.17 107.71,100.15 0.19,-2.61 0.29,-5.24 0.29,-7.89 0.01,-59.66 -48.35,-108.03 -108,-108.03 -59.662,-10e-4 -108.02,48.37 -108,108.03 z"
   inkscape:connector-curvature="0" />
		<path
   id="path244"
   style="fill:none;stroke-width:0.4;stroke-miterlimit:4;stroke-dasharray:none;stroke:#010101;stroke-opacity:1"
   d="m 119.31,104.72 c 53.09,0 96.89,39.79 103.21,91.18 0.27,-0.77 0.53,-1.53 0.79,-2.3 v -0.04 c 0.01,-57.44 -46.55,-104.02 -104,-104.02 -57.452,-0.004 -104.02,46.58 -104,104.02 -0.003,0.02 -0.002,0.03 -0.002,0.04 0.255,0.77 0.519,1.53 0.79,2.3 6.322,-51.39 50.115,-91.18 103.21,-91.18 z"
   inkscape:connector-curvature="0" />
		<path
   id="path246"
   style="fill:none;stroke-width:0.4;stroke-miterlimit:4;stroke-dasharray:none;stroke:#010101;stroke-opacity:1"
   d="m 119.31,129.54 c -47.287,0 -87.194,31.56 -99.828,74.75 0.959,2.12 1.988,4.19 3.074,6.24 15.227,-38.54 52.801,-65.81 96.754,-65.81 43.95,0 81.52,27.27 96.75,65.81 1.08,-2.05 2.11,-4.12 3.07,-6.24 -12.63,-43.2 -52.54,-74.75 -99.82,-74.75 z"
   inkscape:connector-curvature="0" />
		<path
   id="path248"
   style="fill:none;stroke-width:0.4;stroke-miterlimit:4;stroke-dasharray:none;stroke:#010101;stroke-opacity:1"
   d="m 119.31,169.54 c -38.48,0 -72.073,20.89 -90.062,51.95 1.668,2.41 3.426,4.74 5.276,7 18.85,-26.48 49.795,-43.77 84.786,-43.77 34.98,0 65.93,17.28 84.78,43.77 1.85,-2.26 3.61,-4.59 5.27,-7 -17.98,-31.06 -51.58,-51.95 -90.05,-51.95 z"
   inkscape:connector-curvature="0" />
	</g>
</g>
<g
   id="g250"
   transform="matrix(2.5,0,0,2.5,50.003001,50.001091)"
   style="stroke-width:0.4;stroke-miterlimit:4;stroke-dasharray:none">
	<g
   id="g252"
   style="stroke-width:0.4;stroke-miterlimit:4;stroke-dasharray:none">
		<path
   id="path3329"
   style="fill:#ffffff;stroke:#010101;stroke-width:0.4;stroke-linecap:round;stroke-linejoin:round;stroke-miterlimit:4;stroke-dasharray:none;fill-opacity:1"
   d="m 112.81,271.78 c 0,9.09 -14.667,9.38 -32.736,9.38 -18.07,0 -32.736,0.69 -32.736,-9.38 0,-17.72 14.666,-32.1 32.736,-32.1 18.069,0 32.736,14.38 32.736,32.1 z"
   inkscape:connector-curvature="0" />
		<path
   id="path3331"
   style="fill:#ffffff;fill-opacity:1;stroke:#010101;stroke-width:0.4;stroke-linejoin:round;stroke-miterlimit:4;stroke-dasharray:none"
   d="m 67.483,280.56 c 0,-16.37 9.442,-26.44 9.442,-26.44 0,0 -3.777,13.85 -3.147,26.44 z"
   inkscape:connector-curvature="0" />
	</g>
	<g
   id="g256"
   style="stroke-width:0.4;stroke-miterlimit:4;stroke-dasharray:none">
		<path
   id="path3172"
   style="fill:#ffffff;stroke:#010101;stroke-width:0.4;stroke-linecap:round;stroke-linejoin:round;stroke-miterlimit:4;stroke-dasharray:none;fill-opacity:1"
   d="m 127.81,271.78 c 0,9.09 14.66,9.38 32.73,9.38 18.07,0 32.74,0.69 32.74,-9.38 0,-17.72 -14.67,-32.1 -32.74,-32.1 -18.07,0 -32.73,14.38 -32.73,32.1 z"
   inkscape:connector-curvature="0" />
		<path
   id="path3174"
   style="fill:#ffffff;fill-opacity:1;stroke:#010101;stroke-width:0.4;stroke-linejoin:round;stroke-miterlimit:4;stroke-dasharray:none"
   d="m 173.13,280.56 c 0,-16.37 -9.44,-26.44 -9.44,-26.44 0,0 3.78,13.85 3.15,26.44 z"
   inkscape:connector-curvature="0" />
	</g>
</g>
<g
   id="g260"
   transform="matrix(2.5,0,0,2.5,50.003001,50.001091)"
   style="stroke-width:0.4;stroke-miterlimit:4;stroke-dasharray:none">
	<path
   id="path262"
   style="fill:#ffffff;stroke:#010101;stroke-width:0.4;stroke-linecap:round;stroke-linejoin:round;stroke-miterlimit:4;stroke-dasharray:none"
   d="m 113.92,34.501 c 0.73,0.092 1.46,0.22 2.2,0.33 19.91,2.985 34.1,11.633 43.39,23.958 L 171.56,41.858 C 171.48,41.856 171.4,41.844 171.31,41.843 163.08,22.817 146.77,9.092 120.57,5.162 119.83,5.05 119.1,4.923 118.37,4.831 107.81,3.51 98.352,4.225 89.959,6.63 l -4.448,29.667 c 8.391,-2.404 17.849,-3.119 28.409,-1.796 z"
   inkscape:connector-curvature="0" />
	<g
   id="g264"
   style="stroke-width:0.4;stroke-miterlimit:4;stroke-dasharray:none">
		<path
   id="path266"
   style="fill:#ffffff;stroke:#010101;stroke-width:0.4;stroke-linecap:round;stroke-linejoin:round;stroke-miterlimit:4;stroke-dasharray:none"
   d="M 114.85,5.472 C 105.7,4.701 97.408,5.495 89.959,7.63 l -4.448,29.667 c 4.182,-1.198 8.628,-1.976 13.344,-2.292 L 102.96,7.63 c 3.75,-1.073 7.72,-1.789 11.89,-2.158 z"
   inkscape:connector-curvature="0" />
		<path
   id="path268"
   style="stroke:#010101;stroke-width:0.4;stroke-linecap:round;stroke-linejoin:round;stroke-miterlimit:4;stroke-dasharray:none;fill:none"
   d="m 115.96,7.63 c 1.81,-0.521 3.69,-0.945 5.6,-1.304 -0.33,-0.054 -0.66,-0.113 -0.99,-0.163 -0.74,-0.112 -1.48,-0.239 -2.21,-0.331 -1.18,-0.149 -2.35,-0.263 -3.51,-0.361 -4.17,0.369 -8.15,1.084 -11.89,2.158 l -4.106,27.375 c 3.686,-0.247 7.526,-0.204 11.546,0.134 0.48,-0.043 0.96,-0.102 1.45,-0.134 z"
   inkscape:connector-curvature="0" />
		<path
   id="path270"
   style="fill:#ffffff;stroke:#010101;stroke-width:0.4;stroke-linecap:round;stroke-linejoin:round;stroke-miterlimit:4;stroke-dasharray:none"
   d="m 128.93,7.835 c -2.36,-0.594 -4.81,-1.099 -7.36,-1.509 -1.92,0.358 -3.79,0.783 -5.61,1.304 l -4.1,27.375 c 3.68,-0.247 7.53,-0.204 11.54,0.134 0.49,-0.043 0.96,-0.102 1.46,-0.134 z"
   inkscape:connector-curvature="0" />
		<path
   id="path272"
   style="stroke:#010101;stroke-width:0.4;stroke-linecap:round;stroke-linejoin:round;stroke-miterlimit:4;stroke-dasharray:none;fill:none"
   d="m 141.29,12.122 c -3.8,-1.729 -7.91,-3.166 -12.36,-4.286 l -4.07,27.17 c 3.68,-0.247 7.53,-0.204 11.54,0.134 0.49,-0.043 0.96,-0.102 1.46,-0.134 z"
   inkscape:connector-curvature="0" />
		<path
   id="path274"
   style="fill:#ffffff;stroke:#010101;stroke-width:0.4;stroke-linecap:round;stroke-linejoin:round;stroke-miterlimit:4;stroke-dasharray:none"
   d="m 153.22,19.26 c -3.56,-2.741 -7.53,-5.134 -11.94,-7.139 l -3.43,22.884 c 3.69,-0.247 7.53,-0.204 11.55,0.134 0.48,-0.043 0.96,-0.102 1.45,-0.134 z"
   inkscape:connector-curvature="0" />
		<path
   id="path276"
   style="stroke:#010101;stroke-width:0.4;stroke-linecap:round;stroke-linejoin:round;stroke-miterlimit:4;stroke-dasharray:none;fill:none;fill-opacity:1;stroke-opacity:1"
   d="m 153.22,19.26 -2.36,15.746 c 3.68,-0.247 7.53,-0.204 11.54,0.134 1.56,-0.139 3.15,-0.239 4.78,-0.273 C 163.53,28.902 158.9,23.64 153.22,19.26 Z"
   inkscape:connector-curvature="0" />
	</g>
</g>

<metadata
   id="metadata50"><rdf:RDF><cc:Work><dc:format>image/svg+xml</dc:format><dc:type
         rdf:resource="http://purl.org/dc/dcmitype/StillImage" /><cc:license
         rdf:resource="http://creativecommons.org/publicdomain/zero/1.0/" /><dc:publisher><cc:Agent
           rdf:about="http://openclipart.org/"><dc:title>Openclipart</dc:title></cc:Agent></dc:publisher><dc:title></dc:title><dc:date>2009-03-13T17:36:50</dc:date><dc:description>Cartoon zebra. Remixed from Lemmling's Cartoon Cow and Cartoon Kangaroo</dc:description><dc:source>https://openclipart.org/detail/22287/cartoon-zebra-by-studiofibonacci</dc:source><dc:creator><cc:Agent><dc:title>StudioFibonacci</dc:title></cc:Agent></dc:creator><dc:subject><rdf:Bag><rdf:li>africa</rdf:li><rdf:li>animal</rdf:li><rdf:li>cartoon</rdf:li><rdf:li>mammal</rdf:li><rdf:li>remix</rdf:li><rdf:li>zebra</rdf:li></rdf:Bag></dc:subject></cc:Work><cc:License
       rdf:about="http://creativecommons.org/publicdomain/zero/1.0/"><cc:permits
         rdf:resource="http://creativecommons.org/ns#Reproduction" /><cc:permits
         rdf:resource="http://creativecommons.org/ns#Distribution" /><cc:permits
         rdf:resource="http://creativecommons.org/ns#DerivativeWorks" /></cc:License></rdf:RDF></metadata><g
   id="g278"
   transform="matrix(2.5,0,0,2.5,50.003001,50.001091)"
   style="stroke-width:0.4;stroke-miterlimit:4;stroke-dasharray:none">
	<g
   id="g280"
   style="stroke-width:0.4;stroke-miterlimit:4;stroke-dasharray:none">
		
		
		<path
   id="path284"
   style="fill:#ffffff;stroke:#010101;stroke-width:0.4;stroke-linecap:round;stroke-linejoin:round;stroke-miterlimit:4;stroke-dasharray:none"
   d="m 235.03,4.202 c -5.02,-6.518 -64.88,0.521 -73.39,33.507 -0.08,0.154 -0.22,0.618 -0.37,1.315 -0.05,0.214 -0.1,0.447 -0.15,0.705 -1.92,-1.174 -3.91,-2.261 -5.93,-3.272 -9.98,-3.714 -21.67,-5.762 -35.18,-5.762 -0.89,0 -1.78,-0.018 -2.65,0 -12.88,0.261 -24.04,2.432 -33.603,6.159 -2.307,1.185 -4.552,2.471 -6.723,3.866 C 76.989,40.438 76.943,40.177 76.898,39.926 76.682,38.743 76.465,37.919 76.361,37.71 69.714,11.938 31.732,2.028 13.032,2.023 7.795,2.022 4.07,2.776 2.972,4.202 c -4.002,5.193 4.251,46.94 26.575,61.389 4.198,2.717 8.894,4.473 14.101,4.833 2.119,0.146 4.11,0.156 5.98,0.119 -5.838,11.05 -9.148,23.634 -9.148,36.997 0,13.51 3.386,27.69 9.349,40.84 17.844,27.21 51.791,45.97 70.191,45.97 18.56,0 50.84,-17.71 68.81,-43.67 6.64,-13.78 10.43,-28.83 10.43,-43.14 0,-13.35 -3.32,-25.914 -9.14,-36.957 1.34,-0.012 2.77,-0.057 4.23,-0.158 5.6,-0.388 10.6,-2.384 15.03,-5.457 C 231,49.979 238.97,9.322 235.03,4.202 Z"
   inkscape:connector-curvature="0" />
	</g>
	
	<g
   id="g296"
   style="stroke-width:0.4;stroke-miterlimit:4;stroke-dasharray:none">
		<path
   id="path3210"
   style="fill:#ffffff;stroke:#010101;stroke-width:0.4;stroke-linecap:round;stroke-linejoin:round;fill-opacity:1;stroke-miterlimit:4;stroke-dasharray:none"
   d="m 118.98,144.16 c -19.86,0 -35.966,13.22 -35.966,29.5 0,3.02 0.563,5.94 1.594,8.69 12.711,7.74 25.392,12.22 34.372,12.22 9.2,0 21.76,-4.33 34.28,-11.88 1.12,-2.84 1.72,-5.88 1.72,-9.03 0,-16.28 -16.14,-29.5 -36,-29.5 z"
   inkscape:connector-curvature="0" />
		<path
   id="path2412"
   style="fill:#010101;stroke-width:0.4;stroke-miterlimit:4;stroke-dasharray:none"
   d="m 102.85,169.37 c 2.29,3.97 6.5,5.84 9.39,4.17 2.9,-1.68 3.39,-6.25 1.09,-10.23 -2.29,-3.97 -6.5,-5.83 -9.39,-4.16 -2.9,1.67 -3.39,6.25 -1.09,10.22 z"
   inkscape:connector-curvature="0" />
		<path
   id="path2398"
   style="fill:#010101;stroke-width:0.4;stroke-miterlimit:4;stroke-dasharray:none"
   d="m 135.58,169.37 c -2.29,3.97 -6.5,5.84 -9.39,4.17 -2.9,-1.68 -3.39,-6.25 -1.09,-10.23 2.29,-3.97 6.5,-5.83 9.39,-4.16 2.9,1.67 3.39,6.25 1.09,10.22 z"
   inkscape:connector-curvature="0" />
	</g>
	
	<g
   id="g311"
   style="stroke-width:0.4;stroke-miterlimit:4;stroke-dasharray:none">
		<path
   id="path3216_1_"
   style="fill:none;stroke:#010101;stroke-width:0.4;stroke-linejoin:round;stroke-miterlimit:4;stroke-dasharray:none"
   d="M 65.837,59.58 C 63.325,23.346 26.016,15.095 24.222,19.4 c -1.794,4.305 6.817,52.736 41.615,40.18 z"
   inkscape:connector-curvature="0" />
		<path
   id="path3218_1_"
   style="fill:none;stroke:#010101;stroke-width:0.4;stroke-linejoin:round;stroke-miterlimit:4;stroke-dasharray:none"
   d="m 172.16,59.58 c 2.51,-36.234 39.82,-44.485 41.62,-40.18 1.79,4.305 -6.82,52.736 -41.62,40.18 z"
   inkscape:connector-curvature="0" />
	</g>
<g
   id="g286"
   style="stroke-width:0.4;stroke-miterlimit:4;stroke-dasharray:none">
		
		<path
   id="path290"
   d="m 119.63,58.536 c -36.679,0 -67.721,25.481 -78.14,60.604 0.512,3.05 1.174,6.11 1.98,9.15 11.985,-32.062 41.555,-54.754 76.16,-54.754 34.6,0 64.16,22.682 76.15,54.724 0.81,-3.04 1.47,-6.1 1.98,-9.15 C 187.33,84.004 156.3,58.536 119.63,58.536 Z"
   inkscape:connector-curvature="0"
   style="stroke-width:0.4;stroke-miterlimit:4;stroke-dasharray:none;stroke:#010101;stroke-opacity:1;fill:none" />
		<path
   id="path292"
   d="m 119.63,88.536 c -32.251,0 -60.135,19.704 -73.482,48.334 1.016,2.85 2.146,5.66 3.398,8.42 14.348,-25.03 40.365,-41.75 70.084,-41.75 29.71,0 55.72,16.72 70.07,41.73 1.26,-2.76 2.39,-5.57 3.41,-8.41 -13.35,-28.62 -41.23,-48.324 -73.48,-48.324 z"
   inkscape:connector-curvature="0"
   style="stroke-width:0.4;stroke-miterlimit:4;stroke-dasharray:none;stroke:#010101;stroke-opacity:1;fill:none" />
		<path
   id="path294"
   d="m 119.8,118.54 c -26.535,0 -50.111,13.27 -65.118,33.85 2.007,2.51 4.138,4.93 6.37,7.25 14.909,-16.1 35.713,-26.1 58.748,-26.1 23.17,0 44.09,10.13 59.02,26.41 2.22,-2.31 4.35,-4.72 6.34,-7.23 -14.99,-20.77 -38.69,-34.18 -65.36,-34.18 z"
   inkscape:connector-curvature="0"
   style="stroke-width:0.4;stroke-miterlimit:4;stroke-dasharray:none;stroke:#010101;stroke-opacity:1;fill:none" />
	<path
   id="path288"
   d="m 119.63,28.536 c -35.869,0 -66.33,24.378 -77.402,58.299 -1.3,5.692 -1.994,11.615 -1.994,17.705 0,1.28 0.04,2.57 0.101,3.87 9.091,-37.309 41.146,-64.874 79.295,-64.874 38.14,0 70.18,27.546 79.29,64.834 0.06,-1.28 0.1,-2.56 0.1,-3.83 0,-6.173 -0.72,-12.172 -2.06,-17.934 -11.14,-33.802 -41.54,-58.07 -77.33,-58.07 z"
   inkscape:connector-curvature="0"
   style="stroke-width:0.4;stroke-miterlimit:4;stroke-dasharray:none;stroke:#010101;stroke-opacity:1;fill:#ffffff;fill-opacity:1" /></g><g
   id="g301"
   style="stroke-width:0.4;stroke-miterlimit:4;stroke-dasharray:none">
		<g
   id="g303"
   style="stroke-width:0.4;stroke-miterlimit:4;stroke-dasharray:none">
			<path
   id="path3159"
   style="fill:#ffffff;stroke:#010101;stroke-width:0.4;stroke-linecap:round;stroke-linejoin:round;stroke-miterlimit:4;stroke-dasharray:none"
   d="m 168.03,100.74 c 0,12.52 -10.15,22.67 -22.66,22.67 -12.52,0 -22.67,-10.15 -22.67,-22.67 0,-12.523 10.15,-22.673 22.67,-22.673 12.51,0 22.66,10.15 22.66,22.673 z"
   inkscape:connector-curvature="0" />
			<path
   id="path3161"
   style="fill:#010101;stroke-width:0.4;stroke-miterlimit:4;stroke-dasharray:none"
   d="m 147.88,104.74 c 0,4.17 -3.38,7.55 -7.55,7.55 -4.17,0 -7.56,-3.38 -7.56,-7.55 0,-4.18 3.39,-7.56 7.56,-7.56 4.17,0 7.55,3.38 7.55,7.56 z"
   inkscape:connector-curvature="0" />
		</g>
		<g
   id="g307"
   style="stroke-width:0.4;stroke-miterlimit:4;stroke-dasharray:none">
			<path
   id="path3157"
   style="fill:#ffffff;stroke:#010101;stroke-width:0.4;stroke-linecap:round;stroke-linejoin:round;stroke-miterlimit:4;stroke-dasharray:none"
   d="m 115.3,100.74 c 0,12.52 -10.15,22.67 -22.667,22.67 -12.52,0 -22.667,-10.15 -22.663,-22.67 -0.004,-12.523 10.144,-22.673 22.663,-22.673 12.517,0 22.667,10.15 22.667,22.673 z"
   inkscape:connector-curvature="0" />
			<path
   id="path3163"
   style="fill:#010101;stroke-width:0.4;stroke-miterlimit:4;stroke-dasharray:none"
   d="m 105.85,104.74 c 0,4.17 -3.38,7.55 -7.551,7.55 -4.174,0 -7.556,-3.38 -7.555,-7.55 -0.001,-4.18 3.381,-7.56 7.555,-7.56 4.171,0 7.551,3.38 7.551,7.56 z"
   inkscape:connector-curvature="0" />
		</g>
	</g></g></svg>