<?xml version="1.0" encoding="UTF-8" standalone="no"?>
<!-- Created with Inkscape (http://www.inkscape.org/) -->

<svg
   xmlns:dc="http://purl.org/dc/elements/1.1/"
   xmlns:cc="http://creativecommons.org/ns#"
   xmlns:rdf="http://www.w3.org/1999/02/22-rdf-syntax-ns#"
   xmlns:svg="http://www.w3.org/2000/svg"
   xmlns="http://www.w3.org/2000/svg"
   xmlns:sodipodi="http://sodipodi.sourceforge.net/DTD/sodipodi-0.dtd"
   xmlns:inkscape="http://www.inkscape.org/namespaces/inkscape"
   id="Layer_1"
   xml:space="preserve"
   version="1.0"
   viewBox="0 0 533.49766 734.04164"
   inkscape:version="0.92.3 (2405546, 2018-03-11)"
   sodipodi:docname="StudioFibonacci-Cartoon-ostrich.adapted.svg"
   width="533.49768"
   height="734.04163"><defs
   id="defs80" /><sodipodi:namedview
   pagecolor="#ffffff"
   bordercolor="#666666"
   borderopacity="1"
   objecttolerance="10"
   gridtolerance="10"
   guidetolerance="10"
   inkscape:pageopacity="0"
   inkscape:pageshadow="2"
   inkscape:window-width="2560"
   inkscape:window-height="1373"
   id="namedview78"
   showgrid="false"
   fit-margin-top="50"
   fit-margin-left="50"
   fit-margin-right="50"
   fit-margin-bottom="50"
   inkscape:zoom="1.6075383"
   inkscape:cx="266.74884"
   inkscape:cy="367.02081"
   inkscape:window-x="-9"
   inkscape:window-y="-9"
   inkscape:window-maximized="1"
   inkscape:current-layer="Layer_1" />

<g
   id="g237"
   transform="matrix(1.3,0,0,1.3,49.999673,49.999997)"
   style="stroke-width:0.76923077;stroke-miterlimit:4;stroke-dasharray:none">
	<path
   id="path3193_9_"
   style="fill:#ffffff;stroke:#010101;stroke-width:0.76923077;stroke-linecap:round;stroke-linejoin:round;stroke-miterlimit:4;stroke-dasharray:none"
   d="m 82.245,293.18 c 11.103,-8.79 8.295,-27.02 4.166,-32.8 -4.379,13.24 -6.907,18.99 -11.358,20.3 -2.027,-3.09 3.71,-18.3 -12.266,-34.38 0.554,15.11 3.615,28.8 -1.973,29.93 -2.686,-5.14 -8.864,-13.04 -17.973,-16.22 4.086,11.1 8.532,22.61 5.143,28.4 0,0 -13.018,-11.26 -20.072,-10.39 9.547,10.17 13.394,15.14 12.416,19.67 C 36.651,298 26.02,285.7 4.262,292.06 c 13.545,6.73 27.033,10.57 25.367,16.02 -5.801,-0.09 -15.69,1.57 -22.828,8.06 11.701,1.7 23.939,3.29 27.412,9.03 0,0 -28.59,-3.57 -29.187,10.85 13.836,-1.75 20.116,-1.95 23.21,1.5 -1.912,3.16 -18.107,4.54 -25.736,25.89 17.064,-12.08 29.484,-9.07 29.484,-9.07 -13.431,4.49 -16.986,22.58 -15.069,29.43 8.622,-10.97 12.955,-15.52 17.583,-15.23 0,0 -14.425,22.17 -0.181,36.36 4.171,-13.31 6.607,-19.1 11.037,-20.47 2.075,3.05 -3.422,18.35 12.806,34.18 -0.792,-15.1 -4.068,-28.74 1.501,-29.96 2.766,5.1 9.069,12.9 18.226,15.93 -4.261,-11.03 -8.889,-22.47 -5.591,-28.31"
   inkscape:connector-curvature="0" />
		<ellipse
   id="ellipse240"
   style="fill:#ffffff;stroke-width:0.76921429;stroke-miterlimit:4;stroke-dasharray:none"
   rx="31.749001"
   ry="39.52"
   transform="matrix(0.9787,0.2054,-0.2054,0.9787,70.214,-7.7445)"
   cy="334.34"
   cx="72.411003" />
</g>
<g
   id="layer1"
   transform="matrix(1.3,0,0,1.3,-231.74933,-181.478)"
   style="stroke-width:0.76923077;stroke-miterlimit:4;stroke-dasharray:none">
	<path
   id="path2383"
   style="fill:#ffffff;stroke:#010101;stroke-width:0.76923077;stroke-linecap:round;stroke-linejoin:round;fill-opacity:1;stroke-miterlimit:4;stroke-dasharray:none"
   d="m 519.9,532.2 c 0.02,60.5 -49.03,109.56 -109.54,109.56 -60.51,0 -109.55,-49.06 -109.53,-109.56 -0.02,-60.51 49.02,-109.57 109.53,-109.57 60.51,0 109.56,49.06 109.54,109.57 z"
   inkscape:connector-curvature="0" />
	
	<g
   id="g245"
   style="stroke-width:0.76923077;stroke-miterlimit:4;stroke-dasharray:none">
		<g
   id="g247"
   style="fill:#ffffff;fill-opacity:1;stroke-width:0.76923077;stroke-miterlimit:4;stroke-dasharray:none">
				<linearGradient
   id="path3224_2_"
   y2="186.42999"
   gradientUnits="userSpaceOnUse"
   x2="373.98999"
   gradientTransform="matrix(1.7813,0,0,-1.7055,-200.05,966.22)"
   y1="194.67999"
   x1="373.98999">
				<stop
   id="stop250"
   style="stop-color:#fbb045"
   offset="0" />
				<stop
   id="stop252"
   style="stop-color:#c77829"
   offset="1" />
			</linearGradient>
				<path
   id="path3224_3_"
   style="fill:#ffffff;stroke:#010101;stroke-width:0.76923077;stroke-linecap:round;stroke-linejoin:round;fill-opacity:1;stroke-miterlimit:4;stroke-dasharray:none"
   d="m 480.36,632.67 c 0,12.71 -6.38,23.02 -14.24,23.02 -7.88,0 -14.26,-10.31 -14.26,-23.02 0,-12.72 6.38,-23.02 14.26,-23.02 7.86,0 14.24,10.3 14.24,23.02 z"
   inkscape:connector-curvature="0" />
				<linearGradient
   id="path3220_3_"
   y2="186.42999"
   gradientUnits="userSpaceOnUse"
   x2="373.98999"
   gradientTransform="matrix(1.7813,0,0,-1.7055,-234.55,966.22)"
   y1="194.67999"
   x1="373.98999">
				<stop
   id="stop256"
   style="stop-color:#fbb045"
   offset="0" />
				<stop
   id="stop258"
   style="stop-color:#c77829"
   offset="1" />
			</linearGradient>
				<path
   id="path3220_2_"
   style="fill:#ffffff;stroke:#010101;stroke-width:0.76923077;stroke-linecap:round;stroke-linejoin:round;fill-opacity:1;stroke-miterlimit:4;stroke-dasharray:none"
   d="m 445.86,632.67 c 0,12.71 -6.38,23.02 -14.24,23.02 -7.88,0 -14.26,-10.31 -14.26,-23.02 0,-12.72 6.38,-23.02 14.26,-23.02 7.86,0 14.24,10.3 14.24,23.02 z"
   inkscape:connector-curvature="0" />
				<linearGradient
   id="path3222_2_"
   y2="182.17"
   gradientUnits="userSpaceOnUse"
   x2="373.98999"
   gradientTransform="matrix(1.7813,0,0,-1.7055,-217.55,966.22)"
   y1="191.98"
   x1="373.98999">
				<stop
   id="stop262"
   style="stop-color:#fbb045"
   offset="0" />
				<stop
   id="stop264"
   style="stop-color:#c77829"
   offset="1" />
			</linearGradient>
				<path
   id="path3222_3_"
   style="fill:#ffffff;stroke:#010101;stroke-width:0.76923077;stroke-linecap:round;stroke-linejoin:round;fill-opacity:1;stroke-miterlimit:4;stroke-dasharray:none"
   d="m 462.86,637 c 0,15.11 -6.38,27.35 -14.24,27.35 -7.88,0 -14.26,-12.24 -14.26,-27.35 0,-15.11 6.38,-27.36 14.26,-27.36 7.86,0 14.24,12.25 14.24,27.36 z"
   inkscape:connector-curvature="0" />
		</g>
		<g
   id="g267"
   style="fill:#ffffff;fill-opacity:1;stroke-width:0.76923077;stroke-miterlimit:4;stroke-dasharray:none">
				<linearGradient
   id="path3224_4_"
   y2="187.00999"
   gradientUnits="userSpaceOnUse"
   x2="331.32001"
   gradientTransform="matrix(1.7813,0,0,-1.7055,-200.05,966.22)"
   y1="195.27"
   x1="331.32001">
				<stop
   id="stop270"
   style="stop-color:#fbb045"
   offset="0" />
				<stop
   id="stop272"
   style="stop-color:#c77829"
   offset="1" />
			</linearGradient>
				<path
   id="path3224_1_"
   style="fill:#ffffff;stroke:#010101;stroke-width:0.76923077;stroke-linecap:round;stroke-linejoin:round;fill-opacity:1;stroke-miterlimit:4;stroke-dasharray:none"
   d="m 404.36,631.67 c 0,12.71 -6.38,23.02 -14.24,23.02 -7.88,0 -14.26,-10.31 -14.26,-23.02 0,-12.72 6.38,-23.02 14.26,-23.02 7.86,0 14.24,10.3 14.24,23.02 z"
   inkscape:connector-curvature="0" />
				<linearGradient
   id="path3220_4_"
   y2="187.00999"
   gradientUnits="userSpaceOnUse"
   x2="331.32001"
   gradientTransform="matrix(1.7813,0,0,-1.7055,-234.55,966.22)"
   y1="195.27"
   x1="331.32001">
				<stop
   id="stop276"
   style="stop-color:#fbb045"
   offset="0" />
				<stop
   id="stop278"
   style="stop-color:#c77829"
   offset="1" />
			</linearGradient>
				<path
   id="path3220_1_"
   style="fill:#ffffff;stroke:#010101;stroke-width:0.76923077;stroke-linecap:round;stroke-linejoin:round;fill-opacity:1;stroke-miterlimit:4;stroke-dasharray:none"
   d="m 369.86,631.67 c 0,12.71 -6.38,23.02 -14.24,23.02 -7.88,0 -14.26,-10.31 -14.26,-23.02 0,-12.72 6.38,-23.02 14.26,-23.02 7.86,0 14.24,10.3 14.24,23.02 z"
   inkscape:connector-curvature="0" />
				<linearGradient
   id="path3222_4_"
   y2="182.75"
   gradientUnits="userSpaceOnUse"
   x2="331.32001"
   gradientTransform="matrix(1.7813,0,0,-1.7055,-217.55,966.22)"
   y1="192.56"
   x1="331.32001">
				<stop
   id="stop282"
   style="stop-color:#fbb045"
   offset="0" />
				<stop
   id="stop284"
   style="stop-color:#c77829"
   offset="1" />
			</linearGradient>
				<path
   id="path3222_1_"
   style="fill:#ffffff;stroke:#010101;stroke-width:0.76923077;stroke-linecap:round;stroke-linejoin:round;fill-opacity:1;stroke-miterlimit:4;stroke-dasharray:none"
   d="m 386.86,636 c 0,15.11 -6.38,27.35 -14.24,27.35 -7.88,0 -14.26,-12.24 -14.26,-27.35 0,-15.11 6.38,-27.36 14.26,-27.36 7.86,0 14.24,12.25 14.24,27.36 z"
   inkscape:connector-curvature="0" />
		</g>
		
		<g
   id="g288"
   style="stroke-width:0.76923077;stroke-miterlimit:4;stroke-dasharray:none">
			<g
   id="g290"
   style="stroke-width:0.76923077;stroke-miterlimit:4;stroke-dasharray:none">
				<path
   id="path3193_1_"
   style="fill:#ffffff;stroke:#010101;stroke-width:0.76923077;stroke-linecap:round;stroke-linejoin:round;stroke-miterlimit:4;stroke-dasharray:none"
   d="m 355.06,600.08 c -11.45,8.33 -8.94,26.77 -4.85,32.77 4.7,-13.11 7.38,-18.77 11.92,-19.88 2,3.19 -4.11,18.22 11.82,35.1 -0.28,-15.21 -3.13,-29.1 2.57,-29.99 2.63,5.29 8.76,13.5 17.96,17.11 -3.95,-11.33 -8.25,-23.11 -4.7,-28.77"
   inkscape:connector-curvature="0" />
					<ellipse
   id="ellipse293"
   style="fill:#ffffff;stroke-width:0.76924565;stroke-miterlimit:4;stroke-dasharray:none"
   rx="15.2"
   ry="6.0809999"
   transform="matrix(0.9783,0.2071,-0.2071,0.9783,133.03,-64.048)"
   cy="603.22998"
   cx="372.37" />
			</g>
			<g
   id="g295"
   style="stroke-width:0.76923077;stroke-miterlimit:4;stroke-dasharray:none">
				<path
   id="path3193_8_"
   style="fill:#ffffff;stroke:#010101;stroke-width:0.76923077;stroke-linecap:round;stroke-linejoin:round;stroke-miterlimit:4;stroke-dasharray:none"
   d="m 430.02,608.34 c 3.25,5.83 -1.42,17.56 -5.73,28.86 9.14,-3.32 15.46,-11.41 18.24,-16.65 5.54,1.09 2.2,15 1.33,30.34 16.25,-16.5 10.86,-31.86 12.94,-35.01 4.41,1.27 6.8,7.07 10.88,20.45 4.23,-5.91 7.42,-24.43 -3.45,-33.21"
   inkscape:connector-curvature="0" />
				<path
   id="path298"
   style="fill:#ffffff;stroke-width:0.76923077;stroke-miterlimit:4;stroke-dasharray:none"
   d="m 432.69,609.1 c 0,0 -13.25,-9.74 33.75,-18.74 4.92,-0.95 -7.25,15.74 -7.25,15.74 z"
   inkscape:connector-curvature="0" />
			</g>
		</g>
	</g>
	<g
   id="g300"
   style="fill:#ffffff;fill-opacity:1;stroke-width:0.76923077;stroke-miterlimit:4;stroke-dasharray:none">
		<path
   id="path3800_2_"
   style="fill:#ffffff;stroke:#010101;stroke-width:0.76923077;fill-opacity:1;stroke-miterlimit:4;stroke-dasharray:none"
   d="m 488.58,461.56 c -48.11,17.3 14.17,94.14 -37.82,161.19 -9.6,12.4 57.87,2.09 81.73,-66.58 23.19,-66.79 1.13,-107.54 -43.91,-94.61 z"
   inkscape:connector-curvature="0" />
		
	</g>
	<g
   id="g304"
   style="fill:#ffffff;fill-opacity:1;stroke-width:0.76923077;stroke-miterlimit:4;stroke-dasharray:none">
		<path
   id="path3169_2_"
   style="fill:#ffffff;stroke:#010101;stroke-width:0.76923077;fill-opacity:1;stroke-miterlimit:4;stroke-dasharray:none"
   d="m 332.14,461.56 c 48.11,17.3 -14.16,94.14 37.82,161.19 9.61,12.4 -57.87,2.09 -81.72,-66.58 -23.2,-66.79 -1.14,-107.54 43.9,-94.61 z"
   inkscape:connector-curvature="0" />
		
	</g>
	<path
   id="path3193_2_"
   style="fill:#ffffff;stroke:#010101;stroke-width:0.76923077;stroke-linecap:round;stroke-linejoin:round;stroke-miterlimit:4;stroke-dasharray:none"
   d="m 361.22,441.15 c -14.62,-5.03 -29.74,8.29 -32.63,15.49 14.77,-3.77 21.55,-4.83 25.37,-1.5 -1.64,3.68 -19.02,7.36 -24.4,31.54 13.58,-9.42 24.36,-20.3 28.7,-15.82 -3.14,5.5 -6.77,15.84 -4.33,26.09 7.8,-10.3 15.78,-21.17 23.1,-21.47"
   inkscape:connector-curvature="0" />
	<path
   id="path2413_2_"
   style="fill:#ffffff;stroke:#010101;stroke-width:0.76923077;stroke-linecap:round;stroke-linejoin:round;stroke-miterlimit:4;stroke-dasharray:none"
   d="m 459.23,443.24 c 14.63,-5.03 29.74,8.29 32.63,15.5 -14.76,-3.78 -21.54,-4.84 -25.37,-1.51 1.65,3.68 19.02,7.36 24.41,31.54 -13.58,-9.41 -24.37,-20.29 -28.71,-15.82 3.15,5.5 6.78,15.84 4.33,26.09 -7.8,-10.3 -15.77,-21.17 -23.1,-21.47"
   inkscape:connector-curvature="0" />
	<path
   id="path2399"
   style="fill:#ffffff;stroke:#010101;stroke-width:0.76923077;stroke-linecap:round;stroke-linejoin:round;stroke-miterlimit:4;stroke-dasharray:none"
   d="m 357.83,458.84 c 24.5,-37.9 20,-128.74 20,-128.74 l 60,-3.26 c 0,0 -1.5,91.48 23.5,130.04"
   inkscape:connector-curvature="0" />
	<ellipse
   id="ellipse311"
   style="fill:#ffffff;stroke-width:0.76923077;stroke-miterlimit:4;stroke-dasharray:none"
   rx="50.25"
   ry="17"
   cy="461.35999"
   cx="409.94" />
	
	<path
   id="path314"
   style="fill:#ffffff;stroke:#010101;stroke-width:0.76923077;stroke-linecap:round;stroke-linejoin:round;stroke-miterlimit:4;stroke-dasharray:none"
   d="m 458.61,194.59 c -13.02,-9.16 -29.54,-14.53 -48.95,-14.53 -17.66,0 -32.72,4.2 -44.94,11.49 -13.97,9.66 -25.2,23.69 -32.08,40.36 -3.17,9.29 -4.82,19.4 -4.82,29.99 0,45.18 56.12,81.85 81.84,81.85 26.72,0 81.85,-36.67 81.85,-81.85 0,-10.91 -1.83,-21.32 -5.31,-30.84 -6.2,-14.63 -15.76,-27.18 -27.59,-36.47 z"
   inkscape:connector-curvature="0" />
	
</g>
<g
   id="g317"
   transform="matrix(1.3,0,0,1.3,49.999673,49.999997)"
   style="stroke-width:0.76923077;stroke-miterlimit:4;stroke-dasharray:none">
	<g
   id="g319"
   style="stroke-width:0.76923077;stroke-miterlimit:4;stroke-dasharray:none">
		<path
   id="path3407_1_"
   style="fill:#010101;fill-opacity:0.3137;stroke-width:0.76923077;stroke-miterlimit:4;stroke-dasharray:none"
   d="m 196.83,99.453 c -9.36,0 -19.53,10.407 -19.13,16.987 0.41,6.57 16.69,33.97 20.36,33.97 3.66,0 17.9,-26.85 17.5,-34.52 -0.41,-7.67 -12.62,-16.985 -18.73,-16.437 z"
   inkscape:connector-curvature="0" />
			<linearGradient
   id="path2391_2_"
   y2="-137.28999"
   gradientUnits="userSpaceOnUse"
   x2="361.63"
   gradientTransform="matrix(0.6415,0,0,-0.7781,-31.166,4.888)"
   y1="-137.28999"
   x1="348.29001">
			<stop
   id="stop323"
   style="stop-color:#fbb045"
   offset="0" />
			<stop
   id="stop325"
   style="stop-color:#c77829"
   offset="1" />
		</linearGradient>
		<path
   id="path2391_1_"
   style="fill:#ffffff;stroke:#010101;stroke-width:0.76923077;fill-opacity:1;stroke-miterlimit:4;stroke-dasharray:none"
   d="m 194.69,88.759 c -9.36,0 -19.53,9.382 -19.13,15.301 0.41,5.93 16.69,30.62 20.36,30.62 3.66,0 17.91,-24.2 17.5,-31.11 -0.41,-6.911 -12.62,-15.304 -18.73,-14.811 z"
   inkscape:connector-curvature="0" />
	</g>
	<g
   id="g328"
   style="display:none;stroke-width:0.76923077;stroke-miterlimit:4;stroke-dasharray:none">
		<path
   id="path3283_1_"
   style="display:inline;fill:#ffffff;stroke:#010101;stroke-width:0.76923077;stroke-linejoin:round;stroke-miterlimit:4;stroke-dasharray:none"
   d="m 201.31,36.735 c 6.69,-16.214 17.98,-18.409 17.98,-18.409 0,0 -6.27,8.458 -0.59,6.105 8.81,-3.644 36.8,7.773 36.8,7.773 0,0 -37.09,-8.633 -54.19,4.531 z"
   inkscape:connector-curvature="0" />
		<path
   id="path3285_1_"
   style="display:inline;fill:#ffffff;stroke:#010101;stroke-width:0.76923077;stroke-linejoin:round;stroke-miterlimit:4;stroke-dasharray:none"
   d="m 185.96,35.223 c -6.69,-16.214 -17.98,-18.409 -17.98,-18.409 0,0 6.28,8.457 0.59,6.105 -8.8,-3.643 -36.8,7.773 -36.8,7.773 0,0 37.09,-8.634 54.19,4.531 z"
   inkscape:connector-curvature="0" />
	</g>
	<g
   id="g332"
   style="stroke-width:0.76923077;stroke-miterlimit:4;stroke-dasharray:none">
		<path
   id="path2387_1_"
   style="fill:#ffffff;stroke:#010101;stroke-width:0.76923077;stroke-linecap:round;stroke-miterlimit:4;stroke-dasharray:none"
   d="m 171.65,31.18 c -15.75,0 -28.54,14.788 -28.54,33.009 0,18.221 12.79,33.008 28.54,33.008 9.26,0 17.47,-5.112 22.68,-13.022 5.21,7.916 13.45,13.022 22.7,13.022 15.75,0 28.54,-14.788 28.54,-33.008 0,-18.222 -12.79,-33.009 -28.54,-33.009 -9.25,0 -17.49,5.108 -22.7,13.023 C 189.12,36.295 180.9,31.18 171.65,31.18 Z"
   inkscape:connector-curvature="0" />
		<g
   id="g335"
   style="stroke-width:0.76923077;stroke-miterlimit:4;stroke-dasharray:none">
			<path
   id="path2411_1_"
   style="fill:#010101;stroke:#010101;stroke-width:0.76923077;stroke-linecap:round;stroke-miterlimit:4;stroke-dasharray:none"
   d="m 192.53,66.423 c 0,4.563 -3.7,8.261 -8.26,8.261 -4.57,0 -8.26,-3.699 -8.26,-8.261 0,-4.563 3.69,-8.262 8.26,-8.262 4.56,0 8.26,3.699 8.26,8.262 z"
   inkscape:connector-curvature="0" />
			<path
   id="path3341_1_"
   style="fill:#ffffff;stroke-width:0.76923077;stroke-miterlimit:4;stroke-dasharray:none"
   d="m 183.43,63.529 c 0,1.184 -0.96,2.143 -2.14,2.143 -1.19,0 -2.15,-0.959 -2.15,-2.143 0,-1.184 0.96,-2.144 2.15,-2.144 1.18,0 2.14,0.961 2.14,2.144 z"
   inkscape:connector-curvature="0" />
		</g>
		<g
   id="g339"
   style="stroke-width:0.76923077;stroke-miterlimit:4;stroke-dasharray:none">
			<path
   id="path3301_1_"
   style="fill:#010101;stroke:#010101;stroke-width:0.76923077;stroke-linecap:round;stroke-miterlimit:4;stroke-dasharray:none"
   d="m 213.45,66.423 c 0,4.563 -3.7,8.261 -8.26,8.261 -4.56,0 -8.26,-3.699 -8.26,-8.261 0,-4.563 3.7,-8.262 8.26,-8.262 4.56,0 8.26,3.699 8.26,8.262 z"
   inkscape:connector-curvature="0" />
			<path
   id="path3343_1_"
   style="fill:#ffffff;stroke-width:0.76923077;stroke-miterlimit:4;stroke-dasharray:none"
   d="m 204.35,63.529 c 0,1.184 -0.96,2.143 -2.14,2.143 -1.19,0 -2.14,-0.959 -2.14,-2.143 0,-1.184 0.95,-2.144 2.14,-2.144 1.18,0.001 2.14,0.961 2.14,2.144 z"
   inkscape:connector-curvature="0" />
		</g>
	</g>
</g>
<metadata
   id="metadata75"><rdf:RDF><cc:Work><dc:format>image/svg+xml</dc:format><dc:type
         rdf:resource="http://purl.org/dc/dcmitype/StillImage" /><cc:license
         rdf:resource="http://creativecommons.org/publicdomain/zero/1.0/" /><dc:publisher><cc:Agent
           rdf:about="http://openclipart.org/"><dc:title>Openclipart</dc:title></cc:Agent></dc:publisher><dc:title></dc:title><dc:date>2009-03-13T18:28:36</dc:date><dc:description>Cartoon ostrich. Remixed from Lemmling's Cartoon Giraffe and Cartoon Owl.</dc:description><dc:source>https://openclipart.org/detail/22289/cartoon-ostrich-by-studiofibonacci</dc:source><dc:creator><cc:Agent><dc:title>StudioFibonacci</dc:title></cc:Agent></dc:creator><dc:subject><rdf:Bag><rdf:li>african</rdf:li><rdf:li>bird</rdf:li><rdf:li>cartoon</rdf:li><rdf:li>ostrich</rdf:li><rdf:li>remix</rdf:li></rdf:Bag></dc:subject></cc:Work><cc:License
       rdf:about="http://creativecommons.org/publicdomain/zero/1.0/"><cc:permits
         rdf:resource="http://creativecommons.org/ns#Reproduction" /><cc:permits
         rdf:resource="http://creativecommons.org/ns#Distribution" /><cc:permits
         rdf:resource="http://creativecommons.org/ns#DerivativeWorks" /></cc:License></rdf:RDF></metadata></svg>