<?xml version="1.0" encoding="UTF-8" standalone="no"?>
<!-- Created with Inkscape (http://www.inkscape.org/) -->

<svg
   xmlns:dc="http://purl.org/dc/elements/1.1/"
   xmlns:cc="http://creativecommons.org/ns#"
   xmlns:rdf="http://www.w3.org/1999/02/22-rdf-syntax-ns#"
   xmlns:svg="http://www.w3.org/2000/svg"
   xmlns="http://www.w3.org/2000/svg"
   xmlns:sodipodi="http://sodipodi.sourceforge.net/DTD/sodipodi-0.dtd"
   xmlns:inkscape="http://www.inkscape.org/namespaces/inkscape"
   id="Layer_1"
   xml:space="preserve"
   version="1.0"
   viewBox="0 0 360.77702 707.1517"
   inkscape:version="0.92.3 (2405546, 2018-03-11)"
   sodipodi:docname="StudioFibonacci-Cartoon-llama.adapted.svg"
   width="360.77701"
   height="707.15167"><defs
   id="defs48" /><sodipodi:namedview
   pagecolor="#ffffff"
   bordercolor="#666666"
   borderopacity="1"
   objecttolerance="10"
   gridtolerance="10"
   guidetolerance="10"
   inkscape:pageopacity="0"
   inkscape:pageshadow="2"
   inkscape:window-width="2560"
   inkscape:window-height="1373"
   id="namedview46"
   showgrid="false"
   fit-margin-top="50"
   fit-margin-left="50"
   fit-margin-right="50"
   fit-margin-bottom="50"
   inkscape:zoom="1.6686661"
   inkscape:cx="180.3885"
   inkscape:cy="353.57584"
   inkscape:window-x="-9"
   inkscape:window-y="-9"
   inkscape:window-maximized="1"
   inkscape:current-layer="Layer_1" />
<g
   id="g236"
   transform="matrix(1.1,0,0,1.1,50.000006,50.000806)"
   style="stroke-width:0.90909091;stroke-miterlimit:4;stroke-dasharray:none">
	<g
   id="g238"
   style="stroke-width:0.90909091;stroke-miterlimit:4;stroke-dasharray:none">
		<g
   id="g240"
   style="stroke-width:0.90909091;stroke-miterlimit:4;stroke-dasharray:none">
			<path
   id="path2383_3_"
   style="fill:#ffffff;stroke:#010101;stroke-width:0.90909091;stroke-linecap:round;stroke-linejoin:round;fill-opacity:1;stroke-miterlimit:4;stroke-dasharray:none"
   d="M 235.07,426.04 C 235.09,490.41 182.91,542.61 118.53,542.61 54.159,542.61 1.98,490.41 2,426.04 1.98,361.67 54.159,309.47 118.53,309.47 c 64.38,0 116.56,52.2 116.54,116.57 z"
   inkscape:connector-curvature="0" />
			
		</g>
		<g
   id="g244"
   style="stroke-width:0.90909091;stroke-miterlimit:4;stroke-dasharray:none">
			<g
   id="g246"
   style="display:none;stroke-width:0.90909091;stroke-miterlimit:4;stroke-dasharray:none">
					<ellipse
   id="ellipse248"
   style="display:inline;fill:#ffffff;stroke-width:0.90911943;stroke-miterlimit:4;stroke-dasharray:none"
   rx="41.999001"
   ry="11.666"
   transform="matrix(0.9986,0.0523,-0.0523,0.9986,23.698,-8.4388)"
   cy="448.23999"
   cx="172.97" />
					<ellipse
   id="ellipse250"
   style="display:inline;fill:#ffffff;stroke-width:0.90911943;stroke-miterlimit:4;stroke-dasharray:none"
   rx="41.999001"
   ry="11.666"
   transform="matrix(-0.9986,0.0523,-0.0523,-0.9986,151.41,896.51)"
   cy="450.23999"
   cx="63.967999" />
				<path
   id="path252"
   style="display:inline;fill:#ffffff;stroke:#010101;stroke-width:0.90909091;stroke-linecap:round;stroke-linejoin:round;stroke-miterlimit:4;stroke-dasharray:none"
   d="m 23.064,451.28 c 0,0 29.852,79.04 51.731,76.35 21.881,-2.69 29.715,-83.6 29.715,-83.6"
   inkscape:connector-curvature="0" />
				<path
   id="path254"
   style="display:inline;fill:#ffffff;stroke:#010101;stroke-width:0.90909091;stroke-linecap:round;stroke-linejoin:round;stroke-miterlimit:4;stroke-dasharray:none"
   d="m 132.12,444.03 c 0,0 7.83,80.91 29.71,83.6 21.88,2.69 53.29,-78.6 53.29,-78.6"
   inkscape:connector-curvature="0" />
			</g>
			<g
   id="g256"
   style="stroke-width:0.90909091;stroke-miterlimit:4;stroke-dasharray:none">
				<g
   id="g258"
   style="stroke-width:0.90909091;stroke-miterlimit:4;stroke-dasharray:none">
					<path
   id="path3329"
   style="fill:#ffffff;stroke:#010101;stroke-width:0.90909091;stroke-linecap:round;stroke-linejoin:round;fill-opacity:1;stroke-miterlimit:4;stroke-dasharray:none"
   d="m 110.4,539.86 c 0,9.77 -15.756,10.08 -35.175,10.08 -19.419,0 -35.18,0.75 -35.18,-10.08 0,-19.04 15.761,-34.49 35.18,-34.49 19.419,0 35.175,15.45 35.175,34.49 z"
   inkscape:connector-curvature="0" />
					<path
   id="path3331"
   style="fill:#ffffff;fill-opacity:1;stroke:#010101;stroke-width:0.90909091;stroke-linejoin:round;stroke-miterlimit:4;stroke-dasharray:none"
   d="m 61.696,549.3 c 0,-17.59 10.146,-28.42 10.146,-28.42 0,0 -4.059,14.89 -3.381,28.42 z"
   inkscape:connector-curvature="0" />
				</g>
				<g
   id="g262"
   style="stroke-width:0.90909091;stroke-miterlimit:4;stroke-dasharray:none">
					<path
   id="path3172"
   style="fill:#ffffff;stroke:#010101;stroke-width:0.90909091;stroke-linecap:round;stroke-linejoin:round;fill-opacity:1;stroke-miterlimit:4;stroke-dasharray:none"
   d="m 127.78,539.86 c 0,9.77 15.76,10.08 35.18,10.08 19.42,0 35.18,0.75 35.18,-10.08 0,-19.04 -15.76,-34.49 -35.18,-34.49 -19.42,0 -35.18,15.45 -35.18,34.49 z"
   inkscape:connector-curvature="0" />
					<path
   id="path3174"
   style="fill:#ffffff;fill-opacity:1;stroke:#010101;stroke-width:0.90909091;stroke-linejoin:round;stroke-miterlimit:4;stroke-dasharray:none"
   d="m 176.49,549.3 c 0,-17.59 -10.15,-28.42 -10.15,-28.42 0,0 4.06,14.89 3.39,28.42 z"
   inkscape:connector-curvature="0" />
				</g>
			</g>
		</g>
	</g>
	<g
   id="g266"
   style="stroke-width:0.90909091;stroke-miterlimit:4;stroke-dasharray:none">
		<ellipse
   id="ellipse268"
   style="fill:#ffffff;stroke-width:0.90909091;stroke-miterlimit:4;stroke-dasharray:none"
   rx="54.5"
   ry="17.5"
   cy="363.41"
   cx="119.09" />
		<path
   id="path2399_1_"
   style="fill:#ffffff;stroke:#010101;stroke-width:0.90909091;stroke-linecap:round;stroke-linejoin:round;stroke-miterlimit:4;stroke-dasharray:none"
   d="M 65.041,363.9 C 95.029,327 79.521,238.57 79.521,238.57 l 73.439,-3.18 c 0,0 -11.84,89.07 18.77,126.61"
   inkscape:connector-curvature="0" />
		
	</g>
	<g
   id="g272"
   style="stroke-width:0.90909091;stroke-miterlimit:4;stroke-dasharray:none">
		<g
   id="g274"
   style="stroke-width:0.90909091;stroke-miterlimit:4;stroke-dasharray:none">
			<g
   id="g276"
   style="stroke-width:0.90909091;stroke-miterlimit:4;stroke-dasharray:none">
				<path
   id="path278"
   style="fill:#ffffff;stroke:#010101;stroke-width:0.90909091;stroke-linejoin:round;stroke-miterlimit:4;stroke-dasharray:none"
   d="m 194.14,122.33 c 0.21,0 -9.83,-17.29 -13.53,-21.01 1.09,-0.67 1.81,-1.27 1.95,-1.463 16.45,-13.354 10.15,-53.833 3.5,-72.492 -1.07,-2.976 -2.13,-5.367 -3.12,-7.035 -4.59,-9.654 -11.43,-19.569 -12.74,-18.204 3.54,7.025 3.81,11.114 2.91,11.303 -1.71,0.354 -3.72,-3.919 -9.07,-0.402 3.8,1.671 6.11,5.064 7.61,7.839 -12.75,7.954 -32.19,29.761 -24.63,54.879 0.64,2.154 1.35,4.137 2.05,5.992 -1.33,-0.385 -1.59,-0.154 -1.07,0.507 -0.5,-0.181 -1.01,-0.364 -1.52,-0.536 -8.12,-1.92 -17.1,-2.968 -27,-2.968 -0.96,0 -1.92,-0.019 -2.86,0 -8.08,0.164 -15.51,1.047 -22.36,2.534 -0.572,0.183 -1.137,0.381 -1.704,0.576 0.1,-0.34 -0.286,-0.407 -1.299,-0.113 C 91.951,79.882 92.66,77.9 93.308,75.745 100.87,50.627 81.422,28.819 68.672,20.866 70.176,18.092 72.484,14.698 76.285,13.027 70.938,9.509 68.923,13.783 67.218,13.429 66.311,13.24 66.59,9.151 70.125,2.126 68.815,0.76 61.979,10.676 57.384,20.33 c -0.988,1.667 -2.052,4.059 -3.113,7.035 -6.659,18.66 -12.952,59.139 3.496,72.492 0.14,0.193 0.861,0.793 1.945,1.463 -3.229,3.25 -14.792,20.98 -14.422,20.97 -6.184,11.71 -9.692,25.06 -9.692,39.23 0,16.97 5.025,34.91 13.66,50.87 20.009,25.3 52.122,42.22 70.222,42.22 19.03,0 51.47,-17.33 71.18,-43.15 8.34,-15.72 13.17,-33.3 13.17,-49.94 0,-14.15 -3.52,-27.48 -9.69,-39.19 z"
   inkscape:connector-curvature="0" />
				
			</g>
			<g
   id="g281"
   style="stroke-width:0.90909091;stroke-miterlimit:4;stroke-dasharray:none">
				<path
   id="path3573_3_"
   style="fill:#ffffff;stroke:#010101;stroke-width:0.90909091;stroke-linejoin:round;fill-opacity:1;stroke-miterlimit:4;stroke-dasharray:none"
   d="m 176.74,94.657 c 9.11,-8.012 5.62,-43.299 1.94,-54.495 -0.59,-1.786 -1.18,-2.22 -1.73,-3.221 -2.54,-5.792 -22.07,30.179 -17.89,45.25 0.36,1.292 17.6,12.582 17.68,12.466 z"
   inkscape:connector-curvature="0" />
				<path
   id="path3573_1_"
   style="fill:#ffffff;stroke:#010101;stroke-width:0.90909091;stroke-linejoin:round;fill-opacity:1;stroke-miterlimit:4;stroke-dasharray:none"
   d="M 80.986,82.19 C 85.171,67.119 65.639,31.148 63.094,36.94 c -0.547,1 -1.135,1.435 -1.723,3.221 -3.688,11.196 -7.171,46.483 1.936,54.495 0.077,0.117 17.32,-11.173 17.679,-12.466 z"
   inkscape:connector-curvature="0" />
			</g>
		</g>
		<path
   id="path2397_1_"
   style="fill:#ffffff;stroke:#010101;stroke-width:0.90909091;fill-opacity:1;stroke-miterlimit:4;stroke-dasharray:none"
   d="m 132.91,203.32 c 0,7.59 -8.32,13.75 -13.82,13.75 -5.92,0 -13.81,-6.16 -13.81,-13.75 0,-7.59 6.19,-9.52 13.81,-9.52 7.63,0 13.82,1.93 13.82,9.52 z"
   inkscape:connector-curvature="0" />
		<g
   id="g3178_1_"
   transform="translate(-2.5218,-5.0362)"
   style="stroke-width:0.90909091;stroke-miterlimit:4;stroke-dasharray:none">
			<path
   id="path2400_1_"
   style="fill:none;stroke:#010101;stroke-width:0.90909091;stroke-linecap:round;stroke-linejoin:round;stroke-miterlimit:4;stroke-dasharray:none"
   d="m 136.36,229.94 c 1.42,5.3 -1.73,10.74 -7.04,12.16 -2.55,0.68 -5.26,0.33 -7.55,-0.99"
   inkscape:connector-curvature="0" />
			<path
   id="path3176_1_"
   style="fill:none;stroke:#010101;stroke-width:0.90909091;stroke-linecap:round;stroke-linejoin:round;stroke-miterlimit:4;stroke-dasharray:none"
   d="m 106.87,229.94 c -1.42,5.3 1.73,10.74 7.04,12.16 2.55,0.68 5.27,0.33 7.55,-0.99"
   inkscape:connector-curvature="0" />
		</g>
		<g
   id="g289"
   style="stroke-width:0.90909091;stroke-miterlimit:4;stroke-dasharray:none">
			<g
   id="g291"
   style="stroke-width:0.90909091;stroke-miterlimit:4;stroke-dasharray:none">
				<path
   id="path2387_2_"
   style="fill:#ffffff;stroke:#010101;stroke-width:0.90909091;stroke-linecap:round;stroke-linejoin:round;stroke-miterlimit:4;stroke-dasharray:none"
   d="m 79.787,153.88 c 0.009,13.73 -11.116,24.87 -24.849,24.88 -13.732,0 -24.873,-11.12 -24.882,-24.85 v -0.03 C 30.047,140.14 41.172,129 54.905,128.99 c 13.732,-0.01 24.872,11.12 24.882,24.85 z"
   inkscape:connector-curvature="0" />
				<path
   id="path2393_2_"
   style="fill:#010101;stroke-width:0.90909091;stroke-miterlimit:4;stroke-dasharray:none"
   d="m 70.07,156.73 c 0.002,4.27 -3.451,7.72 -7.713,7.73 -4.262,0 -7.719,-3.45 -7.722,-7.72 v -0.01 c -0.003,-4.26 3.449,-7.72 7.711,-7.72 4.264,0 7.72,3.45 7.724,7.71 z"
   inkscape:connector-curvature="0" />
			</g>
			<g
   id="g295"
   style="stroke-width:0.90909091;stroke-miterlimit:4;stroke-dasharray:none">
				<path
   id="path2391_2_"
   style="fill:#ffffff;stroke:#010101;stroke-width:0.90909091;stroke-linecap:round;stroke-linejoin:round;stroke-miterlimit:4;stroke-dasharray:none"
   d="m 208.13,153.88 c 0.01,13.73 -11.11,24.87 -24.85,24.88 -13.73,0 -24.87,-11.12 -24.88,-24.85 v -0.03 c -0.01,-13.74 11.12,-24.88 24.85,-24.89 13.73,-0.01 24.87,11.12 24.88,24.85 z"
   inkscape:connector-curvature="0" />
				<path
   id="path2395_2_"
   style="fill:#010101;stroke-width:0.90909091;stroke-miterlimit:4;stroke-dasharray:none"
   d="m 182.98,156.73 c 0,4.27 -3.45,7.72 -7.71,7.73 -4.27,0 -7.72,-3.45 -7.73,-7.72 v -0.01 c 0,-4.26 3.45,-7.72 7.72,-7.72 4.26,0 7.72,3.45 7.72,7.71 z"
   inkscape:connector-curvature="0" />
			</g>
		</g>
	</g>
</g>
<metadata
   id="metadata43"><rdf:RDF><cc:Work><dc:format>image/svg+xml</dc:format><dc:type
         rdf:resource="http://purl.org/dc/dcmitype/StillImage" /><cc:license
         rdf:resource="http://creativecommons.org/publicdomain/zero/1.0/" /><dc:publisher><cc:Agent
           rdf:about="http://openclipart.org/"><dc:title>Openclipart</dc:title></cc:Agent></dc:publisher><dc:title></dc:title><dc:date>2009-03-23T20:09:16</dc:date><dc:description>Cartoon llama. Remixed from Lemmling's Cartoon Cat (face), Cartoon Beaver (ears), and Cartoon Giraffe (body).</dc:description><dc:source>https://openclipart.org/detail/23065/cartoon-llama-by-studiofibonacci</dc:source><dc:creator><cc:Agent><dc:title>StudioFibonacci</dc:title></cc:Agent></dc:creator><dc:subject><rdf:Bag><rdf:li>animal</rdf:li><rdf:li>camelid</rdf:li><rdf:li>cartoon</rdf:li><rdf:li>llama</rdf:li><rdf:li>mammal</rdf:li><rdf:li>remix</rdf:li></rdf:Bag></dc:subject></cc:Work><cc:License
       rdf:about="http://creativecommons.org/publicdomain/zero/1.0/"><cc:permits
         rdf:resource="http://creativecommons.org/ns#Reproduction" /><cc:permits
         rdf:resource="http://creativecommons.org/ns#Distribution" /><cc:permits
         rdf:resource="http://creativecommons.org/ns#DerivativeWorks" /></cc:License></rdf:RDF></metadata></svg>