<?xml version="1.0" encoding="UTF-8" standalone="no"?>
<!-- Created with Inkscape (http://www.inkscape.org/) -->

<svg
   xmlns:dc="http://purl.org/dc/elements/1.1/"
   xmlns:cc="http://creativecommons.org/ns#"
   xmlns:rdf="http://www.w3.org/1999/02/22-rdf-syntax-ns#"
   xmlns:svg="http://www.w3.org/2000/svg"
   xmlns="http://www.w3.org/2000/svg"
   xmlns:sodipodi="http://sodipodi.sourceforge.net/DTD/sodipodi-0.dtd"
   xmlns:inkscape="http://www.inkscape.org/namespaces/inkscape"
   id="Layer_1"
   xml:space="preserve"
   version="1.0"
   viewBox="0 0 546.14 650.67998"
   inkscape:version="0.92.3 (2405546, 2018-03-11)"
   sodipodi:docname="StudioFibonacci-Cartoon-hippo.adapted.svg"
   width="546.14001"
   height="650.67999"><sodipodi:namedview
   pagecolor="#ffffff"
   bordercolor="#666666"
   borderopacity="1"
   objecttolerance="10"
   gridtolerance="10"
   guidetolerance="10"
   inkscape:pageopacity="0"
   inkscape:pageshadow="2"
   inkscape:window-width="1708"
   inkscape:window-height="894"
   id="namedview42"
   showgrid="false"
   inkscape:zoom="1.0773345"
   inkscape:cx="273.07001"
   inkscape:cy="325.34"
   inkscape:window-x="-9"
   inkscape:window-y="-9"
   inkscape:window-maximized="1"
   inkscape:current-layer="Layer_1"
   fit-margin-top="50"
   fit-margin-left="50"
   fit-margin-right="50"
   fit-margin-bottom="50" /><defs
   id="defs44"><filter
     style="color-interpolation-filters:sRGB;"
     inkscape:label="Fade to Black or White"
     id="filter853"><feColorMatrix
       values="1 0 0 0 0 0 1 0 0 0 0 0 1 0 0 0 0 0 1 0"
       id="feColorMatrix851" /></filter></defs>
<g
   id="g236"
   transform="matrix(2,0,0,2,50.000012,50)"
   style="filter:url(#filter853);opacity:1;stroke-width:0.5;stroke-miterlimit:4;stroke-dasharray:none">
	<g
   id="g238"
   style="stroke-width:0.5;stroke-miterlimit:4;stroke-dasharray:none">
		<path
   id="path2383_2_"
   style="fill:#ffffff;stroke:#010101;stroke-width:0.5;stroke-linecap:round;stroke-linejoin:round;opacity:1;stroke-miterlimit:4;stroke-dasharray:none"
   d="M 221.07,147.27 C 221.09,207.78 172.05,256.84 111.54,256.84 51.028,256.84 1.98,207.78 2,147.27 1.981,86.763 51.028,37.7 111.54,37.7 c 60.5,0.002 109.55,49.063 109.53,109.57 z"
   inkscape:connector-curvature="0" />
		
	</g>
	<g
   id="g242"
   style="stroke-width:0.5;stroke-miterlimit:4;stroke-dasharray:none">
		<g
   id="g244"
   style="stroke-width:0.5;stroke-miterlimit:4;stroke-dasharray:none">
			<path
   id="path3245"
   style="fill:#ffffff;stroke:#010101;stroke-width:0.5;stroke-linecap:round;stroke-linejoin:round;opacity:1;stroke-miterlimit:4;stroke-dasharray:none"
   d="m 14.479,247.77 c -0.007,22.68 18.377,25.57 41.057,25.57 22.681,0 41.063,-2.89 41.058,-25.57 0.006,-22.68 -19.15,-35.2 -41.058,-41.07 -34.08,-9.13 -41.063,18.39 -41.057,41.07 z"
   inkscape:connector-curvature="0" />
			
			<g
   id="g248"
   style="stroke-width:0.5;stroke-miterlimit:4;stroke-dasharray:none">
				<path
   id="path3239"
   style="fill:#ffffff;stroke:#010101;stroke-width:0.5;stroke-linecap:round;stroke-linejoin:round;opacity:1;stroke-miterlimit:4;stroke-dasharray:none"
   d="m 87.495,260.56 c 1.644,6.13 -3.251,8.28 -9.547,9.96 -6.296,1.69 -11.607,2.28 -13.248,-3.85 -1.644,-6.13 2.129,-12.46 8.424,-14.15 6.296,-1.69 12.73,1.91 14.371,8.04 z"
   inkscape:connector-curvature="0" />
				<path
   id="path3241"
   style="fill:#ffffff;stroke:#010101;stroke-width:0.5;stroke-linecap:round;stroke-linejoin:round;opacity:1;stroke-miterlimit:4;stroke-dasharray:none"
   d="m 46.054,267.2 c -1.641,6.13 -6.952,5.54 -13.248,3.85 -6.296,-1.68 -11.19,-3.83 -9.547,-9.96 1.641,-6.13 8.075,-9.73 14.371,-8.04 6.295,1.69 10.067,8.02 8.424,14.15 z"
   inkscape:connector-curvature="0" />
				<path
   id="path3243"
   style="fill:#ffffff;stroke:#010101;stroke-width:0.5;stroke-linecap:round;stroke-linejoin:round;opacity:1;stroke-miterlimit:4;stroke-dasharray:none"
   d="m 66.336,266.19 c 0.002,6.34 -5.281,7.15 -11.8,7.15 -6.518,0 -11.801,-0.81 -11.799,-7.15 -0.002,-6.35 5.281,-11.49 11.799,-11.49 6.519,0 11.802,5.15 11.8,11.49 z"
   inkscape:connector-curvature="0" />
			</g>
		</g>
		<g
   id="g253"
   style="stroke-width:0.5;stroke-miterlimit:4;stroke-dasharray:none">
			<path
   id="path3220"
   style="fill:#ffffff;stroke:#010101;stroke-width:0.5;stroke-linecap:round;stroke-linejoin:round;opacity:1;stroke-miterlimit:4;stroke-dasharray:none"
   d="m 208.59,247.77 c 0.01,22.68 -18.37,25.57 -41.05,25.57 -22.68,0 -41.07,-2.89 -41.06,-25.57 -0.01,-22.68 19.15,-35.2 41.06,-41.07 34.08,-9.13 41.06,18.39 41.05,41.07 z"
   inkscape:connector-curvature="0" />
			<g
   id="g256"
   style="stroke-width:0.5;stroke-miterlimit:4;stroke-dasharray:none">
				<path
   id="path3235_1_"
   style="fill:#ffffff;stroke:#010101;stroke-width:0.5;stroke-linecap:round;stroke-linejoin:round;opacity:1;stroke-miterlimit:4;stroke-dasharray:none"
   d="m 200.5,260.56 c 1.64,6.13 -3.26,8.28 -9.55,9.96 -6.3,1.69 -11.61,2.28 -13.25,-3.85 -1.64,-6.13 2.13,-12.46 8.42,-14.15 6.3,-1.69 12.74,1.91 14.38,8.04 z"
   inkscape:connector-curvature="0" />
				<path
   id="path3237"
   style="fill:#ffffff;stroke:#010101;stroke-width:0.5;stroke-linecap:round;stroke-linejoin:round;opacity:1;stroke-miterlimit:4;stroke-dasharray:none"
   d="m 159.05,267.2 c -1.64,6.13 -6.95,5.54 -13.24,3.85 -6.3,-1.68 -11.19,-3.83 -9.55,-9.96 1.64,-6.13 8.07,-9.73 14.37,-8.04 6.29,1.69 10.07,8.02 8.42,14.15 z"
   inkscape:connector-curvature="0" />
				<path
   id="path3224"
   style="fill:#ffffff;stroke:#010101;stroke-width:0.5;stroke-linecap:round;stroke-linejoin:round;opacity:1;stroke-miterlimit:4;stroke-dasharray:none"
   d="m 179.34,266.19 c 0,6.34 -5.28,7.15 -11.8,7.15 -6.52,0 -11.8,-0.81 -11.8,-7.15 0,-6.35 5.28,-11.49 11.8,-11.49 6.52,0 11.8,5.15 11.8,11.49 z"
   inkscape:connector-curvature="0" />
			</g>
			
		</g>
	</g>
	<g
   id="g262"
   style="stroke-width:0.5;stroke-miterlimit:4;stroke-dasharray:none">
		
		<path
   id="path265"
   style="fill:#ffffff;stroke:#010101;stroke-width:0.5;stroke-linecap:round;stroke-linejoin:round;opacity:1;stroke-miterlimit:4;stroke-dasharray:none"
   d="m 192.9,91.985 c -1.04,-14.407 -4.7,-27.927 -10.39,-39.897 6.41,-4.801 10.7,-13.3 10.7,-22.971 C 193.21,14.15 183,2 170.43,2 162.3,2 155.19,7.104 151.16,14.733 139.14,6.639 125.27,2 110.49,2 95.709,2 81.863,6.643 69.852,14.733 65.82,7.104 58.712,2 50.583,2 38.007,2 27.795,14.15 27.795,29.117 c 0,9.684 4.276,18.174 10.701,22.971 -5.691,11.97 -9.348,25.491 -10.387,39.899 -10.487,11.033 -16.604,24.283 -16.604,38.533 0,38.39 44.323,69.5 98.995,69.5 54.68,0 99,-31.11 99,-69.5 0,-14.25 -6.11,-27.5 -16.6,-38.535 z"
   inkscape:connector-curvature="0" />
		<g
   id="g267"
   style="stroke-width:0.5;stroke-miterlimit:4;stroke-dasharray:none">
			<path
   id="path2398_2_"
   style="fill:#010101;opacity:1;stroke-width:0.5;stroke-miterlimit:4;stroke-dasharray:none"
   d="m 163.07,138.89 c -3.86,7.97 -10.95,11.71 -15.82,8.35 -4.88,-3.35 -5.7,-12.52 -1.84,-20.48 3.86,-7.96 10.95,-11.7 15.82,-8.35 4.88,3.36 5.7,12.53 1.84,20.48 z"
   inkscape:connector-curvature="0" />
			<path
   id="path2412_1_"
   style="fill:#010101;opacity:1;stroke-width:0.5;stroke-miterlimit:4;stroke-dasharray:none"
   d="m 57.941,138.89 c 3.86,7.97 10.948,11.71 15.825,8.35 4.876,-3.35 5.7,-12.52 1.835,-20.48 -3.858,-7.96 -10.946,-11.7 -15.823,-8.35 -4.878,3.36 -5.7,12.53 -1.837,20.48 z"
   inkscape:connector-curvature="0" />
		</g>
		<g
   id="g271"
   style="fill:#ffffff;fill-opacity:1;stroke-width:0.5;stroke-miterlimit:4;stroke-dasharray:none">
			<path
   id="path2483_3_"
   style="fill:#ffffff;stroke:#010101;stroke-width:0.5;stroke-linecap:round;stroke-linejoin:round;opacity:1;fill-opacity:1;stroke-miterlimit:4;stroke-dasharray:none"
   d="m 169.67,14.799 c -4.57,0 -8.57,2.865 -10.84,7.147 6.99,5.602 13,12.755 17.71,21.075 3.58,-2.712 5.98,-7.503 5.98,-12.931 0,-8.438 -5.76,-15.291 -12.85,-15.291 z"
   inkscape:connector-curvature="0" />
			<path
   id="path2523_3_"
   style="fill:#ffffff;stroke:#010101;stroke-width:0.5;stroke-linecap:round;stroke-linejoin:round;opacity:1;fill-opacity:1;stroke-miterlimit:4;stroke-dasharray:none"
   d="m 49.493,14.799 c 4.57,0 8.562,2.865 10.839,7.147 -6.989,5.602 -13.007,12.755 -17.71,21.075 -3.588,-2.712 -5.979,-7.503 -5.979,-12.931 0,-8.438 5.759,-15.291 12.85,-15.291 z"
   inkscape:connector-curvature="0" />
		</g>
		<g
   id="g275"
   style="stroke-width:0.5;stroke-miterlimit:4;stroke-dasharray:none">
			<g
   id="g277"
   style="stroke-width:0.5;stroke-miterlimit:4;stroke-dasharray:none">
				<path
   id="path3159_1_"
   style="fill:#ffffff;stroke:#010101;stroke-width:0.5;stroke-linecap:round;stroke-linejoin:round;opacity:1;stroke-miterlimit:4;stroke-dasharray:none"
   d="m 156.54,73.801 c 0,12.519 -10.15,22.669 -22.66,22.669 -12.52,0 -22.67,-10.15 -22.67,-22.669 0,-12.519 10.15,-22.669 22.67,-22.669 12.51,0 22.66,10.15 22.66,22.669 z"
   inkscape:connector-curvature="0" />
				<path
   id="path3161_1_"
   style="fill:#010101;opacity:1;stroke-width:0.5;stroke-miterlimit:4;stroke-dasharray:none"
   d="m 136.39,77.801 c 0,4.173 -3.38,7.557 -7.55,7.557 -4.18,0 -7.56,-3.384 -7.56,-7.557 0,-4.173 3.38,-7.557 7.56,-7.557 4.17,0 7.55,3.384 7.55,7.557 z"
   inkscape:connector-curvature="0" />
			</g>
			<g
   id="g281"
   style="stroke-width:0.5;stroke-miterlimit:4;stroke-dasharray:none">
				<path
   id="path3157_1_"
   style="fill:#ffffff;stroke:#010101;stroke-width:0.5;stroke-linecap:round;stroke-linejoin:round;opacity:1;stroke-miterlimit:4;stroke-dasharray:none"
   d="M 103.8,73.801 C 103.81,86.32 93.66,96.47 81.142,96.47 68.624,96.47 58.476,86.32 58.479,73.801 58.476,61.282 68.624,51.132 81.142,51.132 c 12.518,0 22.668,10.15 22.658,22.669 z"
   inkscape:connector-curvature="0" />
				<path
   id="path3163_1_"
   style="fill:#010101;opacity:1;stroke-width:0.5;stroke-miterlimit:4;stroke-dasharray:none"
   d="m 94.362,77.801 c 0.002,4.173 -3.381,7.557 -7.554,7.557 -4.173,0 -7.556,-3.384 -7.555,-7.557 -0.001,-4.173 3.382,-7.557 7.555,-7.557 4.173,0 7.556,3.384 7.554,7.557 z"
   inkscape:connector-curvature="0" />
			</g>
		</g>
		
		<path
   id="path3225_1_"
   style="fill:#ffffff;stroke:#010101;stroke-width:0.5;stroke-linejoin:round;opacity:1;stroke-miterlimit:4;stroke-dasharray:none"
   d="m 127.42,177.26 c 6.81,-1.1 15.26,-5.86 18.73,-9.96 3.56,-4.21 5.64,14.97 4.55,17.6 -1,2.41 -9.4,6.64 -11.86,6.31 -2.64,-0.36 -17.79,-12.92 -11.42,-13.95 z"
   inkscape:connector-curvature="0" />
	</g>
</g>
<metadata
   id="metadata39"><rdf:RDF><cc:Work><dc:format>image/svg+xml</dc:format><dc:type
         rdf:resource="http://purl.org/dc/dcmitype/StillImage" /><cc:license
         rdf:resource="http://creativecommons.org/publicdomain/zero/1.0/" /><dc:publisher><cc:Agent
           rdf:about="http://openclipart.org/"><dc:title>Openclipart</dc:title></cc:Agent></dc:publisher><dc:title></dc:title><dc:date>2009-03-16T14:39:36</dc:date><dc:description>Cartoon hippo. Remixed from Lemmling's Cartoon Elephant and Cartoon Beaver.</dc:description><dc:source>https://openclipart.org/detail/22337/cartoon-hippo-by-studiofibonacci</dc:source><dc:creator><cc:Agent><dc:title>StudioFibonacci</dc:title></cc:Agent></dc:creator><dc:subject><rdf:Bag><rdf:li>africa</rdf:li><rdf:li>animal</rdf:li><rdf:li>cartoon</rdf:li><rdf:li>hippo</rdf:li><rdf:li>hippopotamus</rdf:li><rdf:li>mammal</rdf:li><rdf:li>remix</rdf:li></rdf:Bag></dc:subject></cc:Work><cc:License
       rdf:about="http://creativecommons.org/publicdomain/zero/1.0/"><cc:permits
         rdf:resource="http://creativecommons.org/ns#Reproduction" /><cc:permits
         rdf:resource="http://creativecommons.org/ns#Distribution" /><cc:permits
         rdf:resource="http://creativecommons.org/ns#DerivativeWorks" /></cc:License></rdf:RDF></metadata></svg>