<?xml version="1.0" encoding="UTF-8" standalone="no"?>
<!-- Created with Inkscape (http://www.inkscape.org/) -->

<svg
   xmlns:dc="http://purl.org/dc/elements/1.1/"
   xmlns:cc="http://creativecommons.org/ns#"
   xmlns:rdf="http://www.w3.org/1999/02/22-rdf-syntax-ns#"
   xmlns:svg="http://www.w3.org/2000/svg"
   xmlns="http://www.w3.org/2000/svg"
   xmlns:sodipodi="http://sodipodi.sourceforge.net/DTD/sodipodi-0.dtd"
   xmlns:inkscape="http://www.inkscape.org/namespaces/inkscape"
   id="layer1"
   xml:space="preserve"
   version="1.0"
   viewBox="0 0 591.99999 790.77001"
   inkscape:version="0.92.3 (2405546, 2018-03-11)"
   sodipodi:docname="StudioFibonacci-Cartoon-Panda.adapted.svg"
   width="592"
   height="790.77002"><defs
   id="defs63" /><sodipodi:namedview
   pagecolor="#ffffff"
   bordercolor="#666666"
   borderopacity="1"
   objecttolerance="10"
   gridtolerance="10"
   guidetolerance="10"
   inkscape:pageopacity="0"
   inkscape:pageshadow="2"
   inkscape:window-width="2560"
   inkscape:window-height="1373"
   id="namedview61"
   showgrid="false"
   fit-margin-top="50"
   fit-margin-left="50"
   fit-margin-right="50"
   fit-margin-bottom="50"
   inkscape:zoom="1.4922164"
   inkscape:cx="296"
   inkscape:cy="395.38501"
   inkscape:window-x="-9"
   inkscape:window-y="-9"
   inkscape:window-maximized="1"
   inkscape:current-layer="layer1" />
<g
   id="panda_1_"
   transform="matrix(2,0,0,2,49.000016,74.33)"
   style="stroke-width:0.5;stroke-miterlimit:4;stroke-dasharray:none">
	<g
   id="body"
   style="stroke-width:0.5;stroke-miterlimit:4;stroke-dasharray:none">
		<path
   id="path2385"
   style="fill:#ffffff;stroke:#000000;stroke-width:0.5;stroke-linecap:round;stroke-linejoin:round;stroke-miterlimit:4;stroke-dasharray:none"
   d="m 245,204.83 c 0.02,67.1 -54.36,121.51 -121.46,121.54 C 56.439,326.39 2.02,272.02 2,204.91 v -0.08 C 1.976,137.73 56.353,83.31 123.45,83.29 190.56,83.263 244.97,137.64 245,204.74 Z"
   inkscape:connector-curvature="0" />
		
	</g>
	<g
   id="rear_paws"
   style="stroke-width:0.5;stroke-miterlimit:4;stroke-dasharray:none">
		<g
   id="g8"
   style="fill:#ffffff;fill-opacity:1;stroke-width:0.5;stroke-miterlimit:4;stroke-dasharray:none">
			<path
   id="path3165"
   style="stroke:#000000;stroke-width:0.5;stroke-linecap:round;stroke-linejoin:round;fill:#ffffff;fill-opacity:1;stroke-miterlimit:4;stroke-dasharray:none"
   d="m 72.18,257.08 c -30.406,0 -55.063,24.69 -55.063,55.1 0,6.28 1.058,12.3 3,17.93 h 104.15 c 1.95,-5.63 3,-11.65 3,-17.93 0,-30.41 -24.68,-55.1 -55.09,-55.1 z"
   inkscape:connector-curvature="0" />
			<g
   id="g11"
   style="fill:#ffffff;fill-opacity:1;stroke-width:0.5;stroke-miterlimit:4;stroke-dasharray:none">
				<path
   id="path3220"
   style="fill:#ffffff;stroke:#000000;stroke-width:0.5;stroke-linecap:round;stroke-linejoin:round;fill-opacity:1;stroke-miterlimit:4;stroke-dasharray:none"
   d="m 67.305,314.22 c 0,9.67 -6.604,17.5 -14.75,17.5 -8.146,0 -14.75,-7.83 -14.75,-17.5 0,-9.66 6.604,-17.5 14.75,-17.5 8.147,0 14.75,7.84 14.75,17.5 z"
   inkscape:connector-curvature="0" />
				<path
   id="path3224"
   style="fill:#ffffff;stroke:#000000;stroke-width:0.5;stroke-linecap:round;stroke-linejoin:round;fill-opacity:1;stroke-miterlimit:4;stroke-dasharray:none"
   d="m 104.3,314.22 c 0,9.67 -6.599,17.5 -14.745,17.5 -8.146,0 -14.75,-7.83 -14.75,-17.5 0,-9.66 6.604,-17.5 14.75,-17.5 8.147,0 14.745,7.84 14.745,17.5 z"
   inkscape:connector-curvature="0" />
				<path
   id="path3222"
   style="fill:#ffffff;stroke:#000000;stroke-width:0.5;stroke-linecap:round;stroke-linejoin:round;fill-opacity:1;stroke-miterlimit:4;stroke-dasharray:none"
   d="m 86.805,314.22 c 0,9.67 -6.604,17.5 -14.75,17.5 -8.146,0 -14.75,-7.83 -14.75,-17.5 0,-9.66 6.604,-17.5 14.75,-17.5 8.147,0 14.75,7.84 14.75,17.5 z"
   inkscape:connector-curvature="0" />
			</g>
		</g>
		<g
   id="g16"
   style="fill:#ffffff;fill-opacity:1;stroke-width:0.5;stroke-miterlimit:4;stroke-dasharray:none">
			<path
   id="path3163"
   style="stroke:#000000;stroke-width:0.5;stroke-linecap:round;stroke-linejoin:round;fill:#ffffff;fill-opacity:1;stroke-miterlimit:4;stroke-dasharray:none"
   d="m 182.37,257.08 c -30.41,0 -55.1,24.69 -55.1,55.1 0,6.28 1.06,12.3 3,17.93 h 104.16 c 1.94,-5.63 3,-11.65 3,-17.93 0,-30.41 -24.66,-55.1 -55.06,-55.1 z"
   inkscape:connector-curvature="0" />
			<g
   id="g19"
   style="fill:#ffffff;fill-opacity:1;stroke-width:0.5;stroke-miterlimit:4;stroke-dasharray:none">
				<path
   id="path3226"
   style="fill:#ffffff;stroke:#000000;stroke-width:0.5;stroke-linecap:round;stroke-linejoin:round;fill-opacity:1;stroke-miterlimit:4;stroke-dasharray:none"
   d="m 180.8,314.22 c 0,9.67 -6.6,17.5 -14.74,17.5 -8.15,0 -14.76,-7.83 -14.76,-17.5 0,-9.66 6.61,-17.5 14.76,-17.5 8.14,0 14.74,7.84 14.74,17.5 z"
   inkscape:connector-curvature="0" />
				<path
   id="path3228"
   style="fill:#ffffff;stroke:#000000;stroke-width:0.5;stroke-linecap:round;stroke-linejoin:round;fill-opacity:1;stroke-miterlimit:4;stroke-dasharray:none"
   d="m 217.8,314.22 c 0,9.67 -6.6,17.5 -14.74,17.5 -8.15,0 -14.76,-7.83 -14.76,-17.5 0,-9.66 6.61,-17.5 14.76,-17.5 8.14,0 14.74,7.84 14.74,17.5 z"
   inkscape:connector-curvature="0" />
				<path
   id="path3230"
   style="fill:#ffffff;stroke:#000000;stroke-width:0.5;stroke-linecap:round;stroke-linejoin:round;fill-opacity:1;stroke-miterlimit:4;stroke-dasharray:none"
   d="m 200.3,314.22 c 0,9.67 -6.6,17.5 -14.74,17.5 -8.15,0 -14.76,-7.83 -14.76,-17.5 0,-9.66 6.61,-17.5 14.76,-17.5 8.14,0 14.74,7.84 14.74,17.5 z"
   inkscape:connector-curvature="0" />
			</g>
		</g>
	</g>
	<g
   id="shoulders_front_paws"
   style="stroke-width:0.5;stroke-miterlimit:4;stroke-dasharray:none">
		<path
   id="path25"
   d="m 11.881,156.73 c 0,0 105.62,60.55 223.24,0 0,0 -26.12,-72.95 -112.62,-70.45 -86.502,2.5 -110.62,70.45 -110.62,70.45 z"
   inkscape:connector-curvature="0"
   style="fill:#ffffff;fill-opacity:1;stroke:#000000;stroke-opacity:1;stroke-width:0.5;stroke-miterlimit:4;stroke-dasharray:none" />
		<g
   id="g27"
   style="stroke-width:0.5;stroke-miterlimit:4;stroke-dasharray:none">
			<g
   id="path3161_2_"
   style="stroke-width:0.5;stroke-miterlimit:4;stroke-dasharray:none">
				<path
   id="path30"
   style="fill:#ffffff;stroke-width:0.5;stroke-miterlimit:4;stroke-dasharray:none"
   d="m 90.728,161.87 c 3.898,0 7.849,0.99 11.472,3.08 10.98,6.35 14.75,20.4 8.41,31.39 -4.26,7.37 -11.983,11.49 -19.925,11.49 -3.898,0 -7.848,-0.99 -11.467,-3.08 -10.99,-6.35 -14.756,-20.4 -8.41,-31.39 4.256,-7.37 11.98,-11.49 19.92,-11.49 m 0,-5 c -9.976,0 -19.268,5.36 -24.25,13.99 -7.714,13.36 -3.12,30.5 10.24,38.22 4.252,2.45 9.081,3.75 13.967,3.75 9.975,0 19.265,-5.36 24.255,-13.99 7.71,-13.36 3.12,-30.51 -10.24,-38.22 -4.26,-2.45 -9.086,-3.75 -13.972,-3.75 z"
   inkscape:connector-curvature="0" />
			</g>
			
			<g
   id="g33"
   style="stroke:#000000;stroke-opacity:1;fill:#ffffff;fill-opacity:1;stroke-width:0.5;stroke-miterlimit:4;stroke-dasharray:none">
				<path
   id="path3159"
   style="stroke:#000000;stroke-width:0.5;stroke-linecap:round;stroke-linejoin:round;stroke-opacity:1;fill:#ffffff;fill-opacity:1;stroke-miterlimit:4;stroke-dasharray:none"
   d="m 110.47,173.36 c 6.35,10.99 2.58,25.04 -8.41,31.39 -10.99,6.34 -25.043,2.58 -31.388,-8.41 -6.345,-10.99 -2.58,-25.04 8.411,-31.39 10.989,-6.35 25.037,-2.58 31.387,8.41 z"
   inkscape:connector-curvature="0" />
				<g
   id="g36"
   style="stroke:#000000;stroke-opacity:1;fill:#ffffff;fill-opacity:1;stroke-width:0.5;stroke-miterlimit:4;stroke-dasharray:none">
					<path
   id="path3264"
   style="fill:#ffffff;stroke:#000000;stroke-width:0.5;stroke-linecap:round;stroke-linejoin:round;stroke-opacity:1;fill-opacity:1;stroke-miterlimit:4;stroke-dasharray:none"
   d="m 97.804,190.35 c 4.306,2.49 6.026,7.57 3.836,11.35 -2.18,3.78 -7.439,4.83 -11.744,2.35 -4.305,-2.49 -6.024,-7.57 -3.84,-11.35 2.184,-3.78 7.444,-4.84 11.748,-2.35 z"
   inkscape:connector-curvature="0" />
					<path
   id="path3266"
   style="fill:#ffffff;stroke:#000000;stroke-width:0.5;stroke-linecap:round;stroke-linejoin:round;stroke-opacity:1;fill-opacity:1;stroke-miterlimit:4;stroke-dasharray:none"
   d="m 107.72,173.17 c 4.31,2.49 6.03,7.57 3.84,11.35 -2.18,3.78 -7.44,4.83 -11.745,2.35 -4.305,-2.49 -6.024,-7.57 -3.84,-11.35 2.183,-3.78 7.445,-4.84 11.745,-2.35 z"
   inkscape:connector-curvature="0" />
					<path
   id="path3268"
   style="fill:#ffffff;stroke:#000000;stroke-width:0.5;stroke-linecap:round;stroke-linejoin:round;stroke-opacity:1;fill-opacity:1;stroke-miterlimit:4;stroke-dasharray:none"
   d="m 107.01,184.19 c 4.31,2.49 6.03,7.57 3.84,11.35 -2.18,3.78 -7.44,4.84 -11.745,2.35 -4.305,-2.48 -6.024,-7.57 -3.84,-11.35 2.184,-3.78 7.445,-4.83 11.745,-2.35 z"
   inkscape:connector-curvature="0" />
				</g>
			</g>
		</g>
		<g
   id="g41"
   style="stroke-width:0.5;stroke-miterlimit:4;stroke-dasharray:none">
			<g
   id="path3161_3_"
   style="stroke-width:0.5;stroke-miterlimit:4;stroke-dasharray:none">
				<path
   id="path44"
   style="fill:#ffffff;stroke-width:0.5;stroke-miterlimit:4;stroke-dasharray:none"
   d="m 154.73,161.87 c 3.9,0 7.85,0.99 11.47,3.08 10.98,6.35 14.75,20.4 8.41,31.39 -4.26,7.37 -11.98,11.49 -19.93,11.49 -3.89,0 -7.84,-0.99 -11.46,-3.08 -10.99,-6.35 -14.76,-20.4 -8.41,-31.39 4.25,-7.37 11.98,-11.49 19.92,-11.49 m 0,-5 c -9.98,0 -19.27,5.36 -24.25,13.99 -7.72,13.36 -3.12,30.5 10.24,38.22 4.25,2.45 9.08,3.75 13.96,3.75 9.98,0 19.27,-5.36 24.26,-13.99 7.71,-13.36 3.12,-30.51 -10.24,-38.22 -4.26,-2.45 -9.09,-3.75 -13.97,-3.75 z"
   inkscape:connector-curvature="0" />
			</g>
			
			<g
   id="g47"
   style="fill:#ffffff;fill-opacity:1;stroke-width:0.5;stroke-miterlimit:4;stroke-dasharray:none">
				<path
   id="path3161"
   style="stroke:#000000;stroke-width:0.5;stroke-linecap:round;stroke-linejoin:round;fill:#ffffff;fill-opacity:1;stroke-miterlimit:4;stroke-dasharray:none"
   d="m 174.61,196.34 c -6.35,10.99 -20.4,14.75 -31.39,8.41 -10.99,-6.35 -14.76,-20.4 -8.41,-31.39 6.34,-10.99 20.39,-14.76 31.39,-8.41 10.98,6.35 14.75,20.4 8.41,31.39 z"
   inkscape:connector-curvature="0" />
				<g
   id="g50"
   style="fill:#ffffff;fill-opacity:1;stroke-width:0.5;stroke-miterlimit:4;stroke-dasharray:none">
					<path
   id="path3270"
   style="fill:#ffffff;stroke:#000000;stroke-width:0.5;stroke-linecap:round;stroke-linejoin:round;fill-opacity:1;stroke-miterlimit:4;stroke-dasharray:none"
   d="m 148.23,190.79 c -4.3,2.48 -6.02,7.56 -3.84,11.35 2.19,3.78 7.45,4.83 11.75,2.34 4.3,-2.48 6.02,-7.56 3.84,-11.34 -2.18,-3.79 -7.44,-4.84 -11.75,-2.35 z"
   inkscape:connector-curvature="0" />
					<path
   id="path3272"
   style="fill:#ffffff;stroke:#000000;stroke-width:0.5;stroke-linecap:round;stroke-linejoin:round;fill-opacity:1;stroke-miterlimit:4;stroke-dasharray:none"
   d="m 138.31,173.61 c -4.3,2.48 -6.02,7.56 -3.84,11.35 2.19,3.78 7.45,4.83 11.75,2.35 4.3,-2.49 6.02,-7.57 3.84,-11.35 -2.18,-3.79 -7.44,-4.84 -11.75,-2.35 z"
   inkscape:connector-curvature="0" />
					<path
   id="path3274"
   style="fill:#ffffff;stroke:#000000;stroke-width:0.5;stroke-linecap:round;stroke-linejoin:round;fill-opacity:1;stroke-miterlimit:4;stroke-dasharray:none"
   d="m 139.02,184.63 c -4.3,2.49 -6.02,7.57 -3.84,11.35 2.18,3.78 7.44,4.83 11.75,2.35 4.3,-2.49 6.02,-7.57 3.84,-11.35 -2.18,-3.78 -7.44,-4.83 -11.75,-2.35 z"
   inkscape:connector-curvature="0" />
				</g>
			</g>
		</g>
	</g>
	<g
   id="face_shadows"
   style="stroke-width:0.5;stroke-miterlimit:4;stroke-dasharray:none">
		<path
   id="path3302"
   style="fill-opacity:0.3137;stroke-width:0.5;stroke-miterlimit:4;stroke-dasharray:none"
   d="m 124.51,83.344 c -24.5,0 -47.311,7.255 -66.404,19.746 8.651,30.49 36.665,52.85 69.904,52.85 31.77,0 58.8,-20.42 68.69,-48.85 C 176.51,92.155 151.54,83.344 124.51,83.344 Z"
   inkscape:connector-curvature="0" />
		<path
   id="path57"
   style="fill:#ffffff;stroke:#000000;stroke-width:0.5;stroke-miterlimit:4;stroke-dasharray:none"
   d="m 210.46,18.835 c 0,-16.292 -13.21,-29.5 -29.5,-29.5 -12.48,0 -23.15,7.753 -27.46,18.703 C 144.62,4.163 134.82,2 124.51,2 114.21,2 104.43,4.164 95.553,8.038 91.243,-2.912 80.581,-10.665 68.101,-10.665 c -16.292,0 -29.5,13.208 -29.5,29.5 0,12.588 7.888,23.329 18.988,27.564 -3.699,8.706 -5.764,18.27 -5.764,28.319 0,40.132 32.553,72.722 72.685,72.722 40.14,0 72.72,-32.59 72.72,-72.722 0,-10.049 -2.06,-19.613 -5.76,-28.319 11.1,-4.234 18.99,-14.975 18.99,-27.564 z"
   inkscape:connector-curvature="0" />
		
	</g>
	<g
   id="face"
   style="stroke-width:0.5;stroke-miterlimit:4;stroke-dasharray:none">
		<g
   id="g61"
   style="stroke-width:0.5;stroke-miterlimit:4;stroke-dasharray:none">
			<path
   id="path3179"
   style="fill:#ffffff;stroke:#000000;stroke-width:0.5;stroke-linecap:round;stroke-linejoin:round;stroke-miterlimit:4;stroke-dasharray:none"
   d="m 167.65,60.353 c 0,11.3 -9.16,20.459 -20.46,20.459 -11.3,0 -20.46,-9.16 -20.46,-20.459 0,-11.299 9.16,-20.459 20.46,-20.459 11.3,-10e-4 20.46,9.159 20.46,20.459 z"
   inkscape:connector-curvature="0" />
			<path
   id="path3183"
   d="m 148.84,64.284 c 0,3.65 -2.96,6.61 -6.61,6.61 -3.65,0 -6.61,-2.959 -6.61,-6.61 0,-3.651 2.96,-6.61 6.61,-6.61 3.65,0 6.61,2.959 6.61,6.61 z"
   inkscape:connector-curvature="0"
   style="stroke-width:0.5;stroke-miterlimit:4;stroke-dasharray:none" />
		</g>
		<g
   id="g65"
   style="stroke-width:0.5;stroke-miterlimit:4;stroke-dasharray:none">
			<path
   id="path3177"
   style="fill:#ffffff;stroke:#000000;stroke-width:0.5;stroke-linecap:round;stroke-linejoin:round;stroke-miterlimit:4;stroke-dasharray:none"
   d="m 122.32,60.353 c 0,11.3 -9.16,20.459 -20.45,20.459 -11.304,0 -20.463,-9.16 -20.463,-20.459 0,-11.299 9.16,-20.459 20.463,-20.459 11.29,-10e-4 20.45,9.159 20.45,20.459 z"
   inkscape:connector-curvature="0" />
			<path
   id="path2515"
   d="m 114.43,64.284 c 0,3.65 -2.96,6.61 -6.61,6.61 -3.65,0 -6.61,-2.959 -6.61,-6.61 0,-3.651 2.95,-6.61 6.61,-6.61 3.65,0 6.61,2.959 6.61,6.61 z"
   inkscape:connector-curvature="0"
   style="stroke-width:0.5;stroke-miterlimit:4;stroke-dasharray:none" />
		</g>
		<path
   id="path3192"
   d="m 108.26,104.09 c 5.22,-5.562 27.11,-5.587 31.99,0.7 4.63,5.96 -6.96,22.94 -16,22.25 -9.01,-0.7 -20.87,-17.74 -15.99,-22.95 z"
   inkscape:connector-curvature="0"
   style="stroke-width:0.5;stroke-miterlimit:4;stroke-dasharray:none" />
	</g>
	<g
   id="ears"
   style="fill:#000000;fill-opacity:1;stroke-width:0.5;stroke-miterlimit:4;stroke-dasharray:none">
		<g
   id="g71"
   style="fill:#ffffff;fill-opacity:1;stroke:#000000;stroke-opacity:1;stroke-width:0.5;stroke-miterlimit:4;stroke-dasharray:none">
			<path
   id="path73"
   d="m 202.66,-2.087 c -11.53,-11.86 -39.58,-13.257 -49.04,11.289 l 0.6,0.605 c 16.71,7.654 28.17,18.967 35.43,36.267 l 0.77,0.782 C 215.83,35.361 214.18,9.773 202.66,-2.087 Z"
   inkscape:connector-curvature="0"
   style="fill:#ffffff;fill-opacity:1;stroke:#000000;stroke-opacity:1;stroke-width:0.5;stroke-miterlimit:4;stroke-dasharray:none" />
		</g>
		<g
   id="g75"
   style="fill:#ffffff;fill-opacity:1;stroke:#000000;stroke-opacity:1;stroke-width:0.5;stroke-miterlimit:4;stroke-dasharray:none">
			<path
   id="path77"
   d="m 46.312,-2.114 c 11.521,-11.86 39.571,-13.257 49.032,11.289 l -0.599,1.022 C 78.04,17.851 66.58,28.747 59.314,46.047 l -0.771,0.782 C 33.138,35.334 34.792,9.747 46.312,-2.114 Z"
   inkscape:connector-curvature="0"
   style="fill:#ffffff;fill-opacity:1;stroke:#000000;stroke-opacity:1;stroke-width:0.5;stroke-miterlimit:4;stroke-dasharray:none" />
		</g>
	</g>
</g>
<metadata
   id="metadata58"><rdf:RDF><cc:Work><dc:format>image/svg+xml</dc:format><dc:type
         rdf:resource="http://purl.org/dc/dcmitype/StillImage" /><cc:license
         rdf:resource="http://creativecommons.org/publicdomain/zero/1.0/" /><dc:publisher><cc:Agent
           rdf:about="http://openclipart.org/"><dc:title>Openclipart</dc:title></cc:Agent></dc:publisher><dc:title></dc:title><dc:date>2009-11-24T16:57:49</dc:date><dc:description>Cartoon panda remixed from Lemmling's Cartoon Bear.</dc:description><dc:source>https://openclipart.org/detail/28473/cartoon-panda-by-studiofibonacci</dc:source><dc:creator><cc:Agent><dc:title>StudioFibonacci</dc:title></cc:Agent></dc:creator><dc:subject><rdf:Bag><rdf:li>bear</rdf:li><rdf:li>cartoon</rdf:li><rdf:li>china</rdf:li><rdf:li>panda</rdf:li><rdf:li>remix</rdf:li></rdf:Bag></dc:subject></cc:Work><cc:License
       rdf:about="http://creativecommons.org/publicdomain/zero/1.0/"><cc:permits
         rdf:resource="http://creativecommons.org/ns#Reproduction" /><cc:permits
         rdf:resource="http://creativecommons.org/ns#Distribution" /><cc:permits
         rdf:resource="http://creativecommons.org/ns#DerivativeWorks" /></cc:License></rdf:RDF></metadata></svg>