<?xml version="1.0" encoding="UTF-8" standalone="no"?>
<!-- Created with Inkscape (http://www.inkscape.org/) -->
<svg xmlns:rdf="http://www.w3.org/1999/02/22-rdf-syntax-ns#" xmlns="http://www.w3.org/2000/svg" xmlns:cc="http://web.resource.org/cc/" xmlns:dc="http://purl.org/dc/elements/1.1/" xmlns:svg="http://www.w3.org/2000/svg" xmlns:inkscape="http://www.inkscape.org/namespaces/inkscape" xmlns:sodipodi="http://sodipodi.sourceforge.net/DTD/sodipodi-0.dtd" xmlns:ns1="http://sozi.baierouge.fr" xmlns:xlink="http://www.w3.org/1999/xlink" id="Layer_1" xml:space="preserve" version="1.0" viewBox="0 0 223.074 275.341" inkscape:version="0.91 r13725">
<g id="g236">
	<g id="g238">
		<path id="path2383_2_" style="stroke-linejoin:round;stroke:#010101;stroke-width:4;stroke-linecap:round;fill:#939dac" d="m221.07 147.27c0.02 60.51-49.02 109.57-109.53 109.57-60.512 0-109.56-49.06-109.54-109.57-0.019-60.507 49.028-109.57 109.54-109.57 60.5 0.002 109.55 49.063 109.53 109.57z"/>
		<path id="path3353" style="fill-opacity:.3137;fill:#010101" d="m220.65 156.86c-20.83 45.69-66.93 77.47-120.44 77.47-30.323 0-58.247-10.21-80.559-27.38 19.534 30.03 53.378 49.88 91.879 49.88 57.27 0 104.28-43.95 109.12-99.97z"/>
	</g>
	<g id="g242">
		<g id="g244">
			<path id="path3245" style="stroke-linejoin:round;stroke:#010101;stroke-width:4;stroke-linecap:round;fill:#939dac" d="m14.479 247.77c-0.007 22.68 18.377 25.57 41.057 25.57 22.681 0 41.063-2.89 41.058-25.57 0.006-22.68-19.15-35.2-41.058-41.07-34.08-9.13-41.063 18.39-41.057 41.07z"/>
			<path id="path3297" style="fill-opacity:.3137;fill:#010101" d="m68.531 211.19c5.617 7.37 9.065 16.56 9.063 27.91 0.007 26.82-18.383 30.25-41.063 30.25-3.51 0-6.904-0.11-10.156-0.35 7.439 3.62 17.751 4.35 29.156 4.35 22.68 0 41.069-2.91 41.063-25.59 0.005-18.03-12.1-29.61-28.063-36.57z"/>
			<g id="g248">
				<path id="path3239" style="stroke-linejoin:round;stroke:#010101;stroke-width:4;stroke-linecap:round;fill:#ffffff" d="m87.495 260.56c1.644 6.13-3.251 8.28-9.547 9.96-6.296 1.69-11.607 2.28-13.248-3.85-1.644-6.13 2.129-12.46 8.424-14.15 6.296-1.69 12.73 1.91 14.371 8.04z"/>
				<path id="path3241" style="stroke-linejoin:round;stroke:#010101;stroke-width:4;stroke-linecap:round;fill:#ffffff" d="m46.054 267.2c-1.641 6.13-6.952 5.54-13.248 3.85-6.296-1.68-11.19-3.83-9.547-9.96 1.641-6.13 8.075-9.73 14.371-8.04 6.295 1.69 10.067 8.02 8.424 14.15z"/>
				<path id="path3243" style="stroke-linejoin:round;stroke:#010101;stroke-width:4;stroke-linecap:round;fill:#ffffff" d="m66.336 266.19c0.002 6.34-5.281 7.15-11.8 7.15-6.518 0-11.801-0.81-11.799-7.15-0.002-6.35 5.281-11.49 11.799-11.49 6.519 0 11.802 5.15 11.8 11.49z"/>
			</g>
		</g>
		<g id="g253">
			<path id="path3220" style="stroke-linejoin:round;stroke:#010101;stroke-width:4;stroke-linecap:round;fill:#939dac" d="m208.59 247.77c0.01 22.68-18.37 25.57-41.05 25.57s-41.07-2.89-41.06-25.57c-0.01-22.68 19.15-35.2 41.06-41.07 34.08-9.13 41.06 18.39 41.05 41.07z"/>
			<g id="g256">
				<path id="path3235_1_" style="stroke-linejoin:round;stroke:#010101;stroke-width:4;stroke-linecap:round;fill:#ffffff" d="m200.5 260.56c1.64 6.13-3.26 8.28-9.55 9.96-6.3 1.69-11.61 2.28-13.25-3.85s2.13-12.46 8.42-14.15c6.3-1.69 12.74 1.91 14.38 8.04z"/>
				<path id="path3237" style="stroke-linejoin:round;stroke:#010101;stroke-width:4;stroke-linecap:round;fill:#ffffff" d="m159.05 267.2c-1.64 6.13-6.95 5.54-13.24 3.85-6.3-1.68-11.19-3.83-9.55-9.96s8.07-9.73 14.37-8.04c6.29 1.69 10.07 8.02 8.42 14.15z"/>
				<path id="path3224" style="stroke-linejoin:round;stroke:#010101;stroke-width:4;stroke-linecap:round;fill:#ffffff" d="m179.34 266.19c0 6.34-5.28 7.15-11.8 7.15s-11.8-0.81-11.8-7.15c0-6.35 5.28-11.49 11.8-11.49s11.8 5.15 11.8 11.49z"/>
			</g>
			<path id="path3358" style="fill-opacity:.3137;fill:#010101" d="m186.06 205.52c10.56 8.15 13.35 24.67 13.34 39.24 0.01 23.47-19.01 26.47-42.47 26.47-5.09 0-9.94-0.16-14.47-0.62 6.94 2.22 15.63 2.72 25.07 2.72 22.68 0 41.07-2.88 41.06-25.57 0-17.76-4.29-38.49-22.53-42.24z"/>
		</g>
	</g>
	<g id="g262">
		<path id="path3307" style="fill-opacity:.3137;fill:#010101" d="m213.79 122.77c7 42-24.74 75.7-91.92 83.25-56.336 6.33-111.35-31.19-111.34-79 32.004-48.666 121.97-103.71 122.46-55.902 0.21 20.57 56.8-29.597 80.8 51.652z"/>
		<path id="path265" style="stroke-linejoin:round;stroke:#010101;stroke-width:4;stroke-linecap:round;fill:#939dac" d="m192.9 91.985c-1.04-14.407-4.7-27.927-10.39-39.897 6.41-4.801 10.7-13.3 10.7-22.971 0-14.967-10.21-27.117-22.78-27.117-8.13 0-15.24 5.104-19.27 12.733-12.02-8.094-25.89-12.733-40.67-12.733-14.781 0-28.627 4.643-40.638 12.733-4.032-7.629-11.14-12.733-19.269-12.733-12.576 0-22.788 12.15-22.788 27.117 0 9.684 4.276 18.174 10.701 22.971-5.691 11.97-9.348 25.491-10.387 39.899-10.487 11.033-16.604 24.283-16.604 38.533 0 38.39 44.323 69.5 98.995 69.5 54.68 0 99-31.11 99-69.5 0-14.25-6.11-27.5-16.6-38.535z"/>
		<g id="g267">
			<path id="path2398_2_" style="fill:#010101" d="m163.07 138.89c-3.86 7.97-10.95 11.71-15.82 8.35-4.88-3.35-5.7-12.52-1.84-20.48s10.95-11.7 15.82-8.35c4.88 3.36 5.7 12.53 1.84 20.48z"/>
			<path id="path2412_1_" style="fill:#010101" d="m57.941 138.89c3.86 7.97 10.948 11.71 15.825 8.35 4.876-3.35 5.7-12.52 1.835-20.48-3.858-7.96-10.946-11.7-15.823-8.35-4.878 3.36-5.7 12.53-1.837 20.48z"/>
		</g>
		<g id="g271">
			<path id="path2483_3_" style="stroke-linejoin:round;stroke:#010101;stroke-width:4;stroke-linecap:round;fill:#e6e6e6" d="m169.67 14.799c-4.57 0-8.57 2.865-10.84 7.147 6.99 5.602 13 12.755 17.71 21.075 3.58-2.712 5.98-7.503 5.98-12.931 0-8.438-5.76-15.291-12.85-15.291z"/>
			<path id="path2523_3_" style="stroke-linejoin:round;stroke:#010101;stroke-width:4;stroke-linecap:round;fill:#e6e6e6" d="m49.493 14.799c4.57 0 8.562 2.865 10.839 7.147-6.989 5.602-13.007 12.755-17.71 21.075-3.588-2.712-5.979-7.503-5.979-12.931 0-8.438 5.759-15.291 12.85-15.291z"/>
		</g>
		<g id="g275">
			<g id="g277">
				<path id="path3159_1_" style="stroke-linejoin:round;stroke:#010101;stroke-width:4;stroke-linecap:round;fill:#ffffff" d="m156.54 73.801c0 12.519-10.15 22.669-22.66 22.669-12.52 0-22.67-10.15-22.67-22.669s10.15-22.669 22.67-22.669c12.51 0 22.66 10.15 22.66 22.669z"/>
				<path id="path3161_1_" style="fill:#010101" d="m136.39 77.801c0 4.173-3.38 7.557-7.55 7.557-4.18 0-7.56-3.384-7.56-7.557s3.38-7.557 7.56-7.557c4.17 0 7.55 3.384 7.55 7.557z"/>
			</g>
			<g id="g281">
				<path id="path3157_1_" style="stroke-linejoin:round;stroke:#010101;stroke-width:4;stroke-linecap:round;fill:#ffffff" d="m103.8 73.801c0.01 12.519-10.14 22.669-22.658 22.669s-22.666-10.15-22.663-22.669c-0.003-12.519 10.145-22.669 22.663-22.669s22.668 10.15 22.658 22.669z"/>
				<path id="path3163_1_" style="fill:#010101" d="m94.362 77.801c0.002 4.173-3.381 7.557-7.554 7.557s-7.556-3.384-7.555-7.557c-0.001-4.173 3.382-7.557 7.555-7.557s7.556 3.384 7.554 7.557z"/>
			</g>
		</g>
		<path id="path3302" style="fill-opacity:.3137;fill:#010101" d="m207.54 117.02c-4.93 47.58-28.33 65.37-82 71.33-24 2.67-39.335 5.34-83.669-7 40.667 21.34 47 16.67 78.999 17.67 24.5 0.77 64-10.33 83.67-45.67 11-27 3.98-31.11 3-36.33z"/>
		<path id="path3225_1_" style="stroke-linejoin:round;stroke:#010101;stroke-width:4;fill:#ffffff" d="m127.42 177.26c6.81-1.1 15.26-5.86 18.73-9.96 3.56-4.21 5.64 14.97 4.55 17.6-1 2.41-9.4 6.64-11.86 6.31-2.64-0.36-17.79-12.92-11.42-13.95z"/>
	</g>
</g>
<metadata><rdf:RDF><cc:Work><dc:format>image/svg+xml</dc:format><dc:type rdf:resource="http://purl.org/dc/dcmitype/StillImage"/><cc:license rdf:resource="http://creativecommons.org/licenses/publicdomain/"/><dc:publisher><cc:Agent rdf:about="http://openclipart.org/"><dc:title>Openclipart</dc:title></cc:Agent></dc:publisher><dc:title>Cartoon hippo</dc:title><dc:date>2009-03-16T14:39:36</dc:date><dc:description>Cartoon hippo. Remixed from Lemmling's Cartoon Elephant and Cartoon Beaver.</dc:description><dc:source>https://openclipart.org/detail/22337/cartoon-hippo-by-studiofibonacci</dc:source><dc:creator><cc:Agent><dc:title>StudioFibonacci</dc:title></cc:Agent></dc:creator><dc:subject><rdf:Bag><rdf:li>africa</rdf:li><rdf:li>animal</rdf:li><rdf:li>cartoon</rdf:li><rdf:li>hippo</rdf:li><rdf:li>hippopotamus</rdf:li><rdf:li>mammal</rdf:li><rdf:li>remix</rdf:li></rdf:Bag></dc:subject></cc:Work><cc:License rdf:about="http://creativecommons.org/licenses/publicdomain/"><cc:permits rdf:resource="http://creativecommons.org/ns#Reproduction"/><cc:permits rdf:resource="http://creativecommons.org/ns#Distribution"/><cc:permits rdf:resource="http://creativecommons.org/ns#DerivativeWorks"/></cc:License></rdf:RDF></metadata></svg>