<?xml version="1.0" encoding="UTF-8" standalone="no"?>
<!-- Created with Inkscape (http://www.inkscape.org/) -->
<svg xmlns:rdf="http://www.w3.org/1999/02/22-rdf-syntax-ns#" xmlns="http://www.w3.org/2000/svg" xmlns:cc="http://web.resource.org/cc/" xmlns:dc="http://purl.org/dc/elements/1.1/" xmlns:svg="http://www.w3.org/2000/svg" xmlns:inkscape="http://www.inkscape.org/namespaces/inkscape" xmlns:sodipodi="http://sodipodi.sourceforge.net/DTD/sodipodi-0.dtd" xmlns:ns1="http://sozi.baierouge.fr" xmlns:xlink="http://www.w3.org/1999/xlink" id="Layer_1" xml:space="preserve" version="1.0" viewBox="0 0 373.334 585.548" inkscape:version="0.91 r13725">
<g id="g236">
	<g id="g238">
		<path id="path3161_1_" style="stroke-linejoin:round;stroke:#010101;stroke-width:4;stroke-linecap:round;fill:#ffffff" d="m65.645 505.98c-14.569 14.57-38.179 14.58-52.735 0.03-14.555-14.56-14.545-38.17 0.023-52.74 14.569-14.56 38.179-14.57 52.733-0.02 14.558 14.56 14.546 38.17-0.021 52.73z"/>
		<path id="path241" style="fill-opacity:.3137;fill:#010101" d="m72.284 459.87c1.805 4.39 2.806 9.18 2.806 14.21 0 20.61-16.688 36.31-37.273 36.31-13.633 0-25.55-6.33-32.048-17.26 5.584 13.55 18.908 23.09 34.464 23.09 20.585 0 37.273-16.7 37.273-37.3 0-6.96-1.909-13.47-5.222-19.05z"/>
	</g>
	<g id="layer1" transform="translate(-141.26 -219.8)">
		<path id="path2385" style="stroke-linejoin:round;stroke:#010101;stroke-width:4;stroke-linecap:round;fill:#ffffff" d="m492.19 628.82c0.04 90.19-72.98 163.32-163.09 163.36-90.11 0.03-163.18-73.06-163.21-163.24v-0.12c-0.03-90.18 72.99-163.32 163.09-163.35 90.11-0.03 163.18 73.05 163.21 163.24v0.11z"/>
		<path id="path3276" style="fill-opacity:.3137;fill:#010101" d="m329.04 465.53c-17.36 0-34.08 2.74-49.77 7.77 14.11-3.3 29.01-5.08 44.39-5.08 42.22 0 80.72 13.27 109.7 35.07-28.29-23.58-64.67-37.76-104.32-37.76zm154.51 110.71c2.14 8.72 3.27 17.73 3.27 26.97 0 74.51-73.1 134.99-163.16 134.99-75.31 0-138.73-42.28-157.49-99.71 5.01 85.65 76.05 153.64 162.87 153.64 90.06 0 163.15-73.16 163.15-163.3 0-18.39-3.04-36.09-8.64-52.59z"/>
		<g id="g246">
			<g id="g248">
				<path id="path3165" style="stroke-linejoin:round;stroke:#010101;stroke-width:4;stroke-linecap:round;fill:#ffffff" d="m271.93 722.09c-32.67 0-59.15 26.54-59.15 59.23 0 6.76 1.13 13.24 3.22 19.29h111.89c2.09-6.05 3.22-12.53 3.22-19.29 0-32.69-26.52-59.23-59.18-59.23z"/>
				<g id="g251">
					<path id="path3220" style="stroke-linejoin:round;stroke:#010101;stroke-width:4;stroke-linecap:round;fill:#f9d5e4" d="m266.69 784.53c0 10.39-7.09 18.81-15.85 18.81-8.75 0-15.84-8.42-15.84-18.81s7.09-18.82 15.84-18.82c8.76 0 15.85 8.43 15.85 18.82z"/>
					<path id="path3224" style="stroke-linejoin:round;stroke:#010101;stroke-width:4;stroke-linecap:round;fill:#f9d5e4" d="m306.44 784.53c0 10.39-7.1 18.81-15.85 18.81s-15.84-8.42-15.84-18.81 7.09-18.82 15.84-18.82 15.85 8.43 15.85 18.82z"/>
					<path id="path3222" style="stroke-linejoin:round;stroke:#010101;stroke-width:4;stroke-linecap:round;fill:#f9d5e4" d="m287.64 784.53c0 10.39-7.1 18.81-15.85 18.81s-15.84-8.42-15.84-18.81 7.09-18.82 15.84-18.82 15.85 8.43 15.85 18.82z"/>
				</g>
			</g>
			<g id="g256">
				<path id="path3163" style="stroke-linejoin:round;stroke:#010101;stroke-width:4;stroke-linecap:round;fill:#ffffff" d="m390.3 722.09c-32.66 0-59.19 26.54-59.19 59.23 0 6.76 1.14 13.24 3.23 19.29h111.89c2.09-6.05 3.22-12.53 3.22-19.29 0-32.69-26.49-59.23-59.15-59.23z"/>
				<g id="g259">
					<path id="path3226" style="stroke-linejoin:round;stroke:#010101;stroke-width:4;stroke-linecap:round;fill:#f9d5e4" d="m388.62 784.53c0 10.39-7.1 18.81-15.85 18.81s-15.84-8.42-15.84-18.81 7.09-18.82 15.84-18.82c8.76 0 15.85 8.43 15.85 18.82z"/>
					<path id="path3228" style="stroke-linejoin:round;stroke:#010101;stroke-width:4;stroke-linecap:round;fill:#f9d5e4" d="m428.37 784.53c0 10.39-7.1 18.81-15.85 18.81s-15.84-8.42-15.84-18.81 7.09-18.82 15.84-18.82c8.76 0 15.85 8.43 15.85 18.82z"/>
					<path id="path3230" style="stroke-linejoin:round;stroke:#010101;stroke-width:4;stroke-linecap:round;fill:#f9d5e4" d="m409.57 784.53c0 10.39-7.1 18.81-15.85 18.81s-15.84-8.42-15.84-18.81 7.09-18.82 15.84-18.82c8.76 0 15.85 8.43 15.85 18.82z"/>
				</g>
			</g>
		</g>
		<path id="path3242" style="fill-opacity:.3137;fill:#010101" d="m312.02 637.13c0 17.05-13.81 30.88-30.85 30.88s-30.85-13.83-30.85-30.88c0-17.06 13.81-30.89 30.85-30.89s30.85 13.83 30.85 30.89z"/>
		<g id="g265">
			<path id="path3242_1_" style="fill-opacity:.3137;fill:#010101" d="m361.67 665.56c-12.13 19.61-34.97 27.46-51.01 17.54s-19.22-33.86-7.09-53.47 34.97-27.47 51.01-17.55 19.22 33.86 7.09 53.48z"/>
			<path id="path268" style="stroke:#010101;stroke-width:4;fill:#6a3794" d="m363.91 649.71c-11.13 28.05-38.45 39.77-61.04 26.18-22.58-13.59-25.19-43.32-5.84-66.41 19.36-23.1 46.68-34.82 61.03-26.18 14.36 8.63 16.97 38.37 5.85 66.41z"/>
		</g>
		<path id="path3159" style="stroke-linejoin:round;stroke:#010101;stroke-width:4;stroke-linecap:round;fill:#ffffff" d="m302.8 615.42c8.53 14.77 3.48 33.65-11.28 42.17s-33.64 3.46-42.16-11.31c-8.53-14.78-3.48-33.66 11.28-42.18 14.75-8.52 33.63-3.45 42.16 11.32z"/>
		<g id="g271">
			<path id="path3244" style="fill-opacity:.3137;fill:#010101" d="m427.78 637.6c0 17.06-13.81 30.88-30.85 30.88s-30.85-13.82-30.85-30.88c0-17.05 13.81-30.88 30.85-30.88s30.85 13.83 30.85 30.88z"/>
			<path id="path3161" style="stroke-linejoin:round;stroke:#010101;stroke-width:4;stroke-linecap:round;fill:#ffffff" d="m413.76 652.66c-12.07 12.07-31.61 12.07-43.66 0.02-12.05-12.04-12.04-31.59 0.02-43.65s31.6-12.07 43.65-0.02 12.05 31.59-0.01 43.65z"/>
		</g>
		<path id="path3246" style="fill-opacity:.3137;fill:#010101" d="m406.96 408.83c1.53 6.33 2.35 12.97 2.35 19.78 0 46.47-37.71 100.3-84.13 100.3-33.84 0-63-28.61-76.34-62.12 10.33 38.69 42.52 74.97 80.62 74.97 46.43 0 84.13-53.87 84.13-100.34 0-11.56-2.36-22.56-6.59-32.59h-0.04z"/>
		<g id="g276">
			<path id="path3264" style="stroke-linejoin:round;stroke:#010101;stroke-width:4;stroke-linecap:round;fill:#f9d5e4" d="m289.8 638.24c5.78 3.34 8.09 10.17 5.16 15.25-2.93 5.09-10 6.49-15.78 3.15s-8.09-10.17-5.16-15.25 9.99-6.49 15.78-3.15z"/>
			<path id="path3266" style="stroke-linejoin:round;stroke:#010101;stroke-width:4;stroke-linecap:round;fill:#f9d5e4" d="m303.11 615.16c5.78 3.34 8.09 10.17 5.16 15.26-2.93 5.08-9.99 6.49-15.78 3.14-5.78-3.34-8.09-10.17-5.16-15.25s9.99-6.49 15.78-3.15z"/>
			<path id="path3268" style="stroke-linejoin:round;stroke:#010101;stroke-width:4;stroke-linecap:round;fill:#f9d5e4" d="m302.16 629.97c5.78 3.35 8.1 10.17 5.16 15.26-2.93 5.08-9.99 6.49-15.77 3.15-5.79-3.35-8.1-10.17-5.17-15.26 2.93-5.08 10-6.49 15.78-3.15z"/>
		</g>
		<g id="g281">
			<path id="path3270" style="stroke-linejoin:round;stroke:#010101;stroke-width:4;stroke-linecap:round;fill:#f9d5e4" d="m377.47 636.31c-6.45 1.73-10.45 7.73-8.94 13.39 1.52 5.67 7.98 8.86 14.43 7.13s10.45-7.73 8.93-13.4c-1.51-5.67-7.97-8.85-14.42-7.12z"/>
			<path id="path3272" style="stroke-linejoin:round;stroke:#010101;stroke-width:4;stroke-linecap:round;fill:#f9d5e4" d="m370.58 610.57c-6.45 1.73-10.45 7.73-8.93 13.39 1.51 5.67 7.97 8.86 14.42 7.13s10.45-7.73 8.94-13.39c-1.52-5.67-7.98-8.86-14.43-7.13z"/>
			<path id="path3274" style="stroke-linejoin:round;stroke:#010101;stroke-width:4;stroke-linecap:round;fill:#f9d5e4" d="m367.66 625.12c-6.45 1.73-10.45 7.73-8.93 13.39 1.51 5.67 7.97 8.86 14.42 7.13s10.45-7.73 8.94-13.4c-1.52-5.66-7.98-8.85-14.43-7.12z"/>
		</g>
		<path id="path3293_1_" style="fill-opacity:.3137;fill:#010101" d="m438.2 465.78c1.46 5.81 4.19 10.02 7 17.98 17.2 48.77-52.15 92.08-116.41 92.08-48.19 0-89.57-23.19-107.25-56.23 10.67 42.14 57.8 73.8 114.13 70.95 80.73-4.1 122.88-43.76 116.41-89.09-1.79-12.52-4.15-24.34-13.88-35.69z"/>
	</g>
	<g id="g287">
		<g id="g289">
			<g id="g291">
				<path id="path293" style="stroke-linejoin:round;stroke:#010101;stroke-width:4;stroke-linecap:round;fill:#ffffff" d="m371.33 2c-118.66 35.347-140 102.32-140.09 145.7-12.74-8.06-27.59-12.7-43.45-12.7-15.87 0-30.72 4.64-43.46 12.7-0.09-43.38-21.43-110.35-140.09-145.7-0.001 0-1.681 171.94 105.81 186.38-4.35 10.13-7.05 21.26-7.67 32.99-23.623 14.96-38.345 36.07-38.345 59.46 0 45.38 55.405 82.17 123.74 82.17 68.35 0 123.75-36.79 123.75-82.17 0-23.39-14.72-44.5-38.35-59.46-0.62-11.73-3.31-22.86-7.66-32.99 107.49-14.44 105.81-186.38 105.81-186.38z"/>
				<path id="path3293" style="fill-opacity:.3137;fill:#010101" d="m294.8 237.98c1.54 5.82 4.41 10.02 7.36 17.98 18.1 48.77-54.85 92.09-122.45 92.09-50.69 0-94.211-23.19-112.81-56.24 11.226 42.14 60.8 73.81 120.05 70.95 84.92-4.09 129.26-43.76 122.45-89.09-1.88-12.51-4.36-24.34-14.6-35.69z"/>
			</g>
			<g id="g296">
				<path id="path298" style="stroke-linejoin:round;stroke:#010101;stroke-width:4;stroke-linecap:round;fill:#f9d5e4" d="m125.59 166.27s19.16-104.02-104.33-140.8c-0.002-0.001 13.684 150 104.33 140.8z"/>
				<path id="path300" style="stroke-linejoin:round;stroke:#010101;stroke-width:4;stroke-linecap:round;fill:#f9d5e4" d="m249.98 166.27s-19.16-104.02 104.34-140.8c-0.01-0.001-13.69 150-104.34 140.8z"/>
			</g>
		</g>
		<g id="g302">
			<path id="path3192_1_" style="stroke:#010101;stroke-width:4;fill:#f9d5e4" d="m171.33 292.05c5.38-5.75 28.22-6.99 33 0.72 4.77 7.71-7.18 23.69-16.5 22.97-9.3-0.72-21.53-18.32-16.5-23.69z"/>
			<g id="g305">
				<g id="g307">
					<path id="path3177_1_" style="stroke-linejoin:round;stroke:#010101;stroke-width:4;stroke-linecap:round;fill:#ffffff" d="m184.83 222.85c0 15.18-12.3 27.49-27.48 27.49-15.17 0-27.47-12.31-27.47-27.49 0-15.19 12.3-27.5 27.47-27.5 15.18 0 27.48 12.31 27.48 27.5z"/>
					<path id="path3181_1_" style="fill:#010101" d="m176.35 226.23c0 4.91-3.97 8.89-8.87 8.89-4.91 0-8.88-3.98-8.88-8.89s3.97-8.88 8.88-8.88c4.9 0 8.87 3.97 8.87 8.88z"/>
				</g>
				<g id="g311">
					<path id="path3179_1_" style="stroke-linejoin:round;stroke:#010101;stroke-width:4;stroke-linecap:round;fill:#ffffff" d="m245.69 222.85c0 15.18-12.3 27.49-27.47 27.49-15.18 0-27.48-12.31-27.48-27.49 0-15.19 12.3-27.5 27.48-27.5 15.17 0 27.47 12.31 27.47 27.5z"/>
					<path id="path3183_1_" style="fill:#010101" d="m216.95 226.23c0 4.91-3.97 8.89-8.87 8.89s-8.88-3.98-8.88-8.89 3.98-8.88 8.88-8.88 8.87 3.97 8.87 8.88z"/>
				</g>
			</g>
			<g id="g315">
				<path id="path317" style="stroke-linejoin:round;stroke:#010101;stroke-width:4;fill:#ffffff" d="m210.61 332.03c-4.93 2.11-14.62-1.41-21.2-3.48-0.47-0.15-0.84-0.14-1.16-0.03-0.31-0.62-0.83-0.83-1.64-0.49-4.93 2.11-14.62 6.59-21.2 4.52-6.16-1.93 1.76 16.08 3.96 17.59 2.05 1.4 11.46 1.38 13.44-0.33 1.26-1.1 3.74-7.77 5.01-13.47 1.37 5.86 4.34 12.96 5.56 13.8 2.04 1.4 11.45 1.38 13.43-0.33 2.15-1.87 8.87-19.95 3.8-17.78z"/>
				<g id="g3178" transform="translate(-2.5218 -5.0362)">
					<path id="path2400" style="stroke-linejoin:round;stroke:#010101;stroke-width:4;stroke-linecap:round;fill:none" d="m250.14 286.4c5.77 21.5-7.02 43.6-28.56 49.36-10.35 2.76-21.37 1.31-30.65-4.03"/>
					<path id="path3176" style="stroke-linejoin:round;stroke:#010101;stroke-width:4;stroke-linecap:round;fill:none" d="m130.48 286.4c-5.77 21.5 7.01 43.6 28.56 49.36 10.34 2.76 21.37 1.31 30.64-4.03"/>
				</g>
			</g>
			<g id="g322">
				<g id="g3188" transform="translate(0 -10.702)">
					<path id="path3182" style="stroke:#010101;stroke-width:4;stroke-linecap:round;fill:none" d="m243.21 304.28c62.57-18.33 93.15 4.3 93.15 4.3"/>
					<path id="path3184" style="stroke:#010101;stroke-width:4;stroke-linecap:round;fill:none" d="m234.23 316.57c44.31-9.88 73.33 15.33 73.33 15.33"/>
					<path id="path3186" style="stroke:#010101;stroke-width:4;stroke-linecap:round;fill:none" d="m230.55 329.72c34.09-2.84 47.14 21.11 47.14 21.11"/>
				</g>
				<g id="g3193" transform="matrix(-1 0 0 1 651.56 -10.702)">
					<path id="path3195" style="stroke:#010101;stroke-width:4;stroke-linecap:round;fill:none" d="m519.19 304.28c62.57-18.33 93.15 4.3 93.15 4.3"/>
					<path id="path3197" style="stroke:#010101;stroke-width:4;stroke-linecap:round;fill:none" d="m510.22 316.57c44.31-9.88 73.32 15.33 73.32 15.33"/>
					<path id="path3199" style="stroke:#010101;stroke-width:4;stroke-linecap:round;fill:none" d="m506.53 329.72c34.09-2.84 47.15 21.11 47.15 21.11"/>
				</g>
			</g>
		</g>
	</g>
</g>
<metadata><rdf:RDF><cc:Work><dc:format>image/svg+xml</dc:format><dc:type rdf:resource="http://purl.org/dc/dcmitype/StillImage"/><cc:license rdf:resource="http://creativecommons.org/licenses/publicdomain/"/><dc:publisher><cc:Agent rdf:about="http://openclipart.org/"><dc:title>Openclipart</dc:title></cc:Agent></dc:publisher><dc:title>Cartoon bunny</dc:title><dc:date>2009-03-23T15:07:00</dc:date><dc:description>Cartoon bunny. Remixed from Lemmling's Cartton Cat (whiskers) and Cartoon Beaver (body)</dc:description><dc:source>https://openclipart.org/detail/23052/cartoon-bunny-by-studiofibonacci</dc:source><dc:creator><cc:Agent><dc:title>StudioFibonacci</dc:title></cc:Agent></dc:creator><dc:subject><rdf:Bag><rdf:li>animal</rdf:li><rdf:li>bunny</rdf:li><rdf:li>cartoon</rdf:li><rdf:li>easter</rdf:li><rdf:li>holiday</rdf:li><rdf:li>mammal</rdf:li><rdf:li>pink</rdf:li><rdf:li>rabbit</rdf:li><rdf:li>remix</rdf:li></rdf:Bag></dc:subject></cc:Work><cc:License rdf:about="http://creativecommons.org/licenses/publicdomain/"><cc:permits rdf:resource="http://creativecommons.org/ns#Reproduction"/><cc:permits rdf:resource="http://creativecommons.org/ns#Distribution"/><cc:permits rdf:resource="http://creativecommons.org/ns#DerivativeWorks"/></cc:License></rdf:RDF></metadata></svg>
