<?xml version="1.0" encoding="UTF-8" standalone="no"?>
<!-- Created with Inkscape (http://www.inkscape.org/) -->

<svg
   xmlns:dc="http://purl.org/dc/elements/1.1/"
   xmlns:cc="http://creativecommons.org/ns#"
   xmlns:rdf="http://www.w3.org/1999/02/22-rdf-syntax-ns#"
   xmlns:svg="http://www.w3.org/2000/svg"
   xmlns="http://www.w3.org/2000/svg"
   xmlns:sodipodi="http://sodipodi.sourceforge.net/DTD/sodipodi-0.dtd"
   xmlns:inkscape="http://www.inkscape.org/namespaces/inkscape"
   id="Layer_1"
   xml:space="preserve"
   version="1.0"
   viewBox="0 0 473.31587 685.54001"
   inkscape:version="0.92.3 (2405546, 2018-03-11)"
   sodipodi:docname="StudioFibonacci-Cartoon-bunny.adapted.svg"
   width="473.31589"
   height="685.53998"><defs
   id="defs76" /><sodipodi:namedview
   pagecolor="#ffffff"
   bordercolor="#666666"
   borderopacity="1"
   objecttolerance="10"
   gridtolerance="10"
   guidetolerance="10"
   inkscape:pageopacity="0"
   inkscape:pageshadow="2"
   inkscape:window-width="2560"
   inkscape:window-height="1373"
   id="namedview74"
   showgrid="false"
   inkscape:zoom="1.7212709"
   inkscape:cx="236.65794"
   inkscape:cy="342.76999"
   inkscape:window-x="-9"
   inkscape:window-y="-9"
   inkscape:window-maximized="1"
   inkscape:current-layer="Layer_1"
   fit-margin-top="50"
   fit-margin-left="50"
   fit-margin-right="50"
   fit-margin-bottom="50" />
<g
   id="g236"
   transform="translate(49.987045,50)"
   style="stroke-width:1;stroke-miterlimit:4;stroke-dasharray:none">
	<g
   id="g238"
   style="stroke-width:1;stroke-miterlimit:4;stroke-dasharray:none">
		<path
   id="path3161_1_"
   style="fill:#ffffff;stroke:#010101;stroke-width:1;stroke-linecap:round;stroke-linejoin:round;stroke-miterlimit:4;stroke-dasharray:none"
   d="m 65.645,505.98 c -14.569,14.57 -38.179,14.58 -52.735,0.03 -14.555,-14.56 -14.545,-38.17 0.023,-52.74 14.569,-14.56 38.179,-14.57 52.733,-0.02 14.558,14.56 14.546,38.17 -0.021,52.73 z"
   inkscape:connector-curvature="0" />
		
	</g>
	<g
   id="layer1"
   transform="translate(-141.26,-219.8)"
   style="stroke-width:1;stroke-miterlimit:4;stroke-dasharray:none">
		<path
   id="path2385"
   style="fill:#ffffff;stroke:#010101;stroke-width:1;stroke-linecap:round;stroke-linejoin:round;stroke-miterlimit:4;stroke-dasharray:none"
   d="m 492.19,628.82 c 0.04,90.19 -72.98,163.32 -163.09,163.36 -90.11,0.03 -163.18,-73.06 -163.21,-163.24 v -0.12 c -0.03,-90.18 72.99,-163.32 163.09,-163.35 90.11,-0.03 163.18,73.05 163.21,163.24 z"
   inkscape:connector-curvature="0" />
		<path
   id="path3276"
   style="fill:none;fill-opacity:0.3137;stroke:#010101;stroke-opacity:1;stroke-width:1;stroke-miterlimit:4;stroke-dasharray:none"
   d="m 329.04,465.53 c -17.36,0 -34.08,2.74 -49.77,7.77 14.11,-3.3 29.01,-5.08 44.39,-5.08 42.22,0 80.72,13.27 109.7,35.07 -28.29,-23.58 -64.67,-37.76 -104.32,-37.76 z m 154.51,110.71 c 2.14,8.72 3.27,17.73 3.27,26.97 0,74.51 -73.1,134.99 -163.16,134.99 -75.31,0 -138.73,-42.28 -157.49,-99.71 5.01,85.65 76.05,153.64 162.87,153.64 90.06,0 163.15,-73.16 163.15,-163.3 0,-18.39 -3.04,-36.09 -8.64,-52.59 z"
   inkscape:connector-curvature="0" />
		<g
   id="g246"
   style="fill:#ffffff;fill-opacity:1;stroke-width:1;stroke-miterlimit:4;stroke-dasharray:none">
			<g
   id="g248"
   style="fill:#ffffff;fill-opacity:1;stroke-width:1;stroke-miterlimit:4;stroke-dasharray:none">
				<path
   id="path3165"
   style="fill:#ffffff;stroke:#010101;stroke-width:1;stroke-linecap:round;stroke-linejoin:round;fill-opacity:1;stroke-miterlimit:4;stroke-dasharray:none"
   d="m 271.93,722.09 c -32.67,0 -59.15,26.54 -59.15,59.23 0,6.76 1.13,13.24 3.22,19.29 h 111.89 c 2.09,-6.05 3.22,-12.53 3.22,-19.29 0,-32.69 -26.52,-59.23 -59.18,-59.23 z"
   inkscape:connector-curvature="0" />
				<g
   id="g251"
   style="fill:#ffffff;fill-opacity:1;stroke-width:1;stroke-miterlimit:4;stroke-dasharray:none">
					<path
   id="path3220"
   style="fill:#ffffff;stroke:#010101;stroke-width:1;stroke-linecap:round;stroke-linejoin:round;fill-opacity:1;stroke-miterlimit:4;stroke-dasharray:none"
   d="m 266.69,784.53 c 0,10.39 -7.09,18.81 -15.85,18.81 -8.75,0 -15.84,-8.42 -15.84,-18.81 0,-10.39 7.09,-18.82 15.84,-18.82 8.76,0 15.85,8.43 15.85,18.82 z"
   inkscape:connector-curvature="0" />
					<path
   id="path3224"
   style="fill:#ffffff;stroke:#010101;stroke-width:1;stroke-linecap:round;stroke-linejoin:round;fill-opacity:1;stroke-miterlimit:4;stroke-dasharray:none"
   d="m 306.44,784.53 c 0,10.39 -7.1,18.81 -15.85,18.81 -8.75,0 -15.84,-8.42 -15.84,-18.81 0,-10.39 7.09,-18.82 15.84,-18.82 8.75,0 15.85,8.43 15.85,18.82 z"
   inkscape:connector-curvature="0" />
					<path
   id="path3222"
   style="fill:#ffffff;stroke:#010101;stroke-width:1;stroke-linecap:round;stroke-linejoin:round;fill-opacity:1;stroke-miterlimit:4;stroke-dasharray:none"
   d="m 287.64,784.53 c 0,10.39 -7.1,18.81 -15.85,18.81 -8.75,0 -15.84,-8.42 -15.84,-18.81 0,-10.39 7.09,-18.82 15.84,-18.82 8.75,0 15.85,8.43 15.85,18.82 z"
   inkscape:connector-curvature="0" />
				</g>
			</g>
			<g
   id="g256"
   style="fill:#ffffff;fill-opacity:1;stroke-width:1;stroke-miterlimit:4;stroke-dasharray:none">
				<path
   id="path3163"
   style="fill:#ffffff;stroke:#010101;stroke-width:1;stroke-linecap:round;stroke-linejoin:round;fill-opacity:1;stroke-miterlimit:4;stroke-dasharray:none"
   d="m 390.3,722.09 c -32.66,0 -59.19,26.54 -59.19,59.23 0,6.76 1.14,13.24 3.23,19.29 h 111.89 c 2.09,-6.05 3.22,-12.53 3.22,-19.29 0,-32.69 -26.49,-59.23 -59.15,-59.23 z"
   inkscape:connector-curvature="0" />
				<g
   id="g259"
   style="fill:#ffffff;fill-opacity:1;stroke-width:1;stroke-miterlimit:4;stroke-dasharray:none">
					<path
   id="path3226"
   style="fill:#ffffff;stroke:#010101;stroke-width:1;stroke-linecap:round;stroke-linejoin:round;fill-opacity:1;stroke-miterlimit:4;stroke-dasharray:none"
   d="m 388.62,784.53 c 0,10.39 -7.1,18.81 -15.85,18.81 -8.75,0 -15.84,-8.42 -15.84,-18.81 0,-10.39 7.09,-18.82 15.84,-18.82 8.76,0 15.85,8.43 15.85,18.82 z"
   inkscape:connector-curvature="0" />
					<path
   id="path3228"
   style="fill:#ffffff;stroke:#010101;stroke-width:1;stroke-linecap:round;stroke-linejoin:round;fill-opacity:1;stroke-miterlimit:4;stroke-dasharray:none"
   d="m 428.37,784.53 c 0,10.39 -7.1,18.81 -15.85,18.81 -8.75,0 -15.84,-8.42 -15.84,-18.81 0,-10.39 7.09,-18.82 15.84,-18.82 8.76,0 15.85,8.43 15.85,18.82 z"
   inkscape:connector-curvature="0" />
					<path
   id="path3230"
   style="fill:#ffffff;stroke:#010101;stroke-width:1;stroke-linecap:round;stroke-linejoin:round;fill-opacity:1;stroke-miterlimit:4;stroke-dasharray:none"
   d="m 409.57,784.53 c 0,10.39 -7.1,18.81 -15.85,18.81 -8.75,0 -15.84,-8.42 -15.84,-18.81 0,-10.39 7.09,-18.82 15.84,-18.82 8.76,0 15.85,8.43 15.85,18.82 z"
   inkscape:connector-curvature="0" />
				</g>
			</g>
		</g>
		<path
   id="path3242"
   style="fill:#ffffff;fill-opacity:1;stroke-width:1;stroke-miterlimit:4;stroke-dasharray:none"
   d="m 312.02,637.13 c 0,17.05 -13.81,30.88 -30.85,30.88 -17.04,0 -30.85,-13.83 -30.85,-30.88 0,-17.06 13.81,-30.89 30.85,-30.89 17.04,0 30.85,13.83 30.85,30.89 z"
   inkscape:connector-curvature="0" />
		<g
   id="g265"
   style="stroke-width:1;stroke-miterlimit:4;stroke-dasharray:none">
			<path
   id="path3242_1_"
   style="fill:#ffffff;fill-opacity:1;stroke-width:1;stroke-miterlimit:4;stroke-dasharray:none"
   d="m 361.67,665.56 c -12.13,19.61 -34.97,27.46 -51.01,17.54 -16.04,-9.92 -19.22,-33.86 -7.09,-53.47 12.13,-19.61 34.97,-27.47 51.01,-17.55 16.04,9.92 19.22,33.86 7.09,53.48 z"
   inkscape:connector-curvature="0" />
			<path
   id="path268"
   style="fill:#ffffff;stroke:#010101;stroke-width:1;fill-opacity:1;stroke-miterlimit:4;stroke-dasharray:none"
   d="m 363.91,649.71 c -11.13,28.05 -38.45,39.77 -61.04,26.18 -22.58,-13.59 -25.19,-43.32 -5.84,-66.41 19.36,-23.1 46.68,-34.82 61.03,-26.18 14.36,8.63 16.97,38.37 5.85,66.41 z"
   inkscape:connector-curvature="0" />
		</g>
		<path
   id="path3159"
   style="fill:#ffffff;stroke:#010101;stroke-width:1;stroke-linecap:round;stroke-linejoin:round;fill-opacity:1;stroke-miterlimit:4;stroke-dasharray:none"
   d="m 302.8,615.42 c 8.53,14.77 3.48,33.65 -11.28,42.17 -14.76,8.52 -33.64,3.46 -42.16,-11.31 -8.53,-14.78 -3.48,-33.66 11.28,-42.18 14.75,-8.52 33.63,-3.45 42.16,11.32 z"
   inkscape:connector-curvature="0" />
		<g
   id="g271"
   style="fill:#ffffff;fill-opacity:1;stroke-width:1;stroke-miterlimit:4;stroke-dasharray:none">
			<path
   id="path3244"
   style="fill:#ffffff;fill-opacity:1;stroke-width:1;stroke-miterlimit:4;stroke-dasharray:none"
   d="m 427.78,637.6 c 0,17.06 -13.81,30.88 -30.85,30.88 -17.04,0 -30.85,-13.82 -30.85,-30.88 0,-17.05 13.81,-30.88 30.85,-30.88 17.04,0 30.85,13.83 30.85,30.88 z"
   inkscape:connector-curvature="0" />
			<path
   id="path3161"
   style="fill:#ffffff;stroke:#010101;stroke-width:1;stroke-linecap:round;stroke-linejoin:round;fill-opacity:1;stroke-miterlimit:4;stroke-dasharray:none"
   d="m 413.76,652.66 c -12.07,12.07 -31.61,12.07 -43.66,0.02 -12.05,-12.04 -12.04,-31.59 0.02,-43.65 12.06,-12.06 31.6,-12.07 43.65,-0.02 12.05,12.05 12.05,31.59 -0.01,43.65 z"
   inkscape:connector-curvature="0" />
		</g>
		<path
   id="path3246"
   style="fill:#010101;fill-opacity:0.3137;stroke-width:1;stroke-miterlimit:4;stroke-dasharray:none"
   d="m 406.96,408.83 c 1.53,6.33 2.35,12.97 2.35,19.78 0,46.47 -37.71,100.3 -84.13,100.3 -33.84,0 -63,-28.61 -76.34,-62.12 10.33,38.69 42.52,74.97 80.62,74.97 46.43,0 84.13,-53.87 84.13,-100.34 0,-11.56 -2.36,-22.56 -6.59,-32.59 z"
   inkscape:connector-curvature="0" />
		<g
   id="g276"
   style="fill:#ffffff;fill-opacity:1;stroke-width:1;stroke-miterlimit:4;stroke-dasharray:none">
			<path
   id="path3264"
   style="fill:#ffffff;stroke:#010101;stroke-width:1;stroke-linecap:round;stroke-linejoin:round;fill-opacity:1;stroke-miterlimit:4;stroke-dasharray:none"
   d="m 289.8,638.24 c 5.78,3.34 8.09,10.17 5.16,15.25 -2.93,5.09 -10,6.49 -15.78,3.15 -5.78,-3.34 -8.09,-10.17 -5.16,-15.25 2.93,-5.08 9.99,-6.49 15.78,-3.15 z"
   inkscape:connector-curvature="0" />
			<path
   id="path3266"
   style="fill:#ffffff;stroke:#010101;stroke-width:1;stroke-linecap:round;stroke-linejoin:round;fill-opacity:1;stroke-miterlimit:4;stroke-dasharray:none"
   d="m 303.11,615.16 c 5.78,3.34 8.09,10.17 5.16,15.26 -2.93,5.08 -9.99,6.49 -15.78,3.14 -5.78,-3.34 -8.09,-10.17 -5.16,-15.25 2.93,-5.08 9.99,-6.49 15.78,-3.15 z"
   inkscape:connector-curvature="0" />
			<path
   id="path3268"
   style="fill:#ffffff;stroke:#010101;stroke-width:1;stroke-linecap:round;stroke-linejoin:round;fill-opacity:1;stroke-miterlimit:4;stroke-dasharray:none"
   d="m 302.16,629.97 c 5.78,3.35 8.1,10.17 5.16,15.26 -2.93,5.08 -9.99,6.49 -15.77,3.15 -5.79,-3.35 -8.1,-10.17 -5.17,-15.26 2.93,-5.08 10,-6.49 15.78,-3.15 z"
   inkscape:connector-curvature="0" />
		</g>
		<g
   id="g281"
   style="fill:#ffffff;fill-opacity:1;stroke-width:1;stroke-miterlimit:4;stroke-dasharray:none">
			<path
   id="path3270"
   style="fill:#ffffff;stroke:#010101;stroke-width:1;stroke-linecap:round;stroke-linejoin:round;fill-opacity:1;stroke-miterlimit:4;stroke-dasharray:none"
   d="m 377.47,636.31 c -6.45,1.73 -10.45,7.73 -8.94,13.39 1.52,5.67 7.98,8.86 14.43,7.13 6.45,-1.73 10.45,-7.73 8.93,-13.4 -1.51,-5.67 -7.97,-8.85 -14.42,-7.12 z"
   inkscape:connector-curvature="0" />
			<path
   id="path3272"
   style="fill:#ffffff;stroke:#010101;stroke-width:1;stroke-linecap:round;stroke-linejoin:round;fill-opacity:1;stroke-miterlimit:4;stroke-dasharray:none"
   d="m 370.58,610.57 c -6.45,1.73 -10.45,7.73 -8.93,13.39 1.51,5.67 7.97,8.86 14.42,7.13 6.45,-1.73 10.45,-7.73 8.94,-13.39 -1.52,-5.67 -7.98,-8.86 -14.43,-7.13 z"
   inkscape:connector-curvature="0" />
			<path
   id="path3274"
   style="fill:#ffffff;stroke:#010101;stroke-width:1;stroke-linecap:round;stroke-linejoin:round;fill-opacity:1;stroke-miterlimit:4;stroke-dasharray:none"
   d="m 367.66,625.12 c -6.45,1.73 -10.45,7.73 -8.93,13.39 1.51,5.67 7.97,8.86 14.42,7.13 6.45,-1.73 10.45,-7.73 8.94,-13.4 -1.52,-5.66 -7.98,-8.85 -14.43,-7.12 z"
   inkscape:connector-curvature="0" />
		</g>
		
	</g>
	<g
   id="g287"
   style="stroke-width:1;stroke-miterlimit:4;stroke-dasharray:none">
		<g
   id="g289"
   style="stroke-width:1;stroke-miterlimit:4;stroke-dasharray:none">
			<g
   id="g291"
   style="stroke-width:1;stroke-miterlimit:4;stroke-dasharray:none">
				<path
   id="path293"
   style="fill:#ffffff;stroke:#010101;stroke-width:1;stroke-linecap:round;stroke-linejoin:round;stroke-miterlimit:4;stroke-dasharray:none"
   d="M 371.33,2 C 252.67,37.347 231.33,104.32 231.24,147.7 218.5,139.64 203.65,135 187.79,135 c -15.87,0 -30.72,4.64 -43.46,12.7 C 144.24,104.32 122.9,37.35 4.24,2 4.239,2 2.559,173.94 110.05,188.38 c -4.35,10.13 -7.05,21.26 -7.67,32.99 -23.623,14.96 -38.345,36.07 -38.345,59.46 0,45.38 55.405,82.17 123.74,82.17 68.35,0 123.75,-36.79 123.75,-82.17 0,-23.39 -14.72,-44.5 -38.35,-59.46 -0.62,-11.73 -3.31,-22.86 -7.66,-32.99 C 373.005,173.94 371.325,2 371.325,2 Z"
   inkscape:connector-curvature="0" />
				
			</g>
			<g
   id="g296"
   style="fill:#ffffff;fill-opacity:1;stroke-width:1;stroke-miterlimit:4;stroke-dasharray:none">
				<path
   id="path298"
   style="fill:#ffffff;stroke:#010101;stroke-width:1;stroke-linecap:round;stroke-linejoin:round;fill-opacity:1;stroke-miterlimit:4;stroke-dasharray:none"
   d="m 125.59,166.27 c 0,0 19.16,-104.02 -104.33,-140.8 -0.002,-10e-4 13.684,150 104.33,140.8 z"
   inkscape:connector-curvature="0" />
				<path
   id="path300"
   style="fill:#ffffff;stroke:#010101;stroke-width:1;stroke-linecap:round;stroke-linejoin:round;fill-opacity:1;stroke-miterlimit:4;stroke-dasharray:none"
   d="m 249.98,166.27 c 0,0 -19.16,-104.02 104.34,-140.8 -0.01,-10e-4 -13.69,150 -104.34,140.8 z"
   inkscape:connector-curvature="0" />
			</g>
		</g>
		<g
   id="g302"
   style="stroke-width:1;stroke-miterlimit:4;stroke-dasharray:none">
			<path
   id="path3192_1_"
   style="fill:#ffffff;stroke:#010101;stroke-width:1;fill-opacity:1;stroke-miterlimit:4;stroke-dasharray:none"
   d="m 171.33,292.05 c 5.38,-5.75 28.22,-6.99 33,0.72 4.77,7.71 -7.18,23.69 -16.5,22.97 -9.3,-0.72 -21.53,-18.32 -16.5,-23.69 z"
   inkscape:connector-curvature="0" />
			<g
   id="g305"
   style="stroke-width:1;stroke-miterlimit:4;stroke-dasharray:none">
				<g
   id="g307"
   style="stroke-width:1;stroke-miterlimit:4;stroke-dasharray:none">
					<path
   id="path3177_1_"
   style="fill:#ffffff;stroke:#010101;stroke-width:1;stroke-linecap:round;stroke-linejoin:round;stroke-miterlimit:4;stroke-dasharray:none"
   d="m 184.83,222.85 c 0,15.18 -12.3,27.49 -27.48,27.49 -15.17,0 -27.47,-12.31 -27.47,-27.49 0,-15.19 12.3,-27.5 27.47,-27.5 15.18,0 27.48,12.31 27.48,27.5 z"
   inkscape:connector-curvature="0" />
					<path
   id="path3181_1_"
   style="fill:#010101;stroke-width:1;stroke-miterlimit:4;stroke-dasharray:none"
   d="m 176.35,226.23 c 0,4.91 -3.97,8.89 -8.87,8.89 -4.91,0 -8.88,-3.98 -8.88,-8.89 0,-4.91 3.97,-8.88 8.88,-8.88 4.9,0 8.87,3.97 8.87,8.88 z"
   inkscape:connector-curvature="0" />
				</g>
				<g
   id="g311"
   style="stroke-width:1;stroke-miterlimit:4;stroke-dasharray:none">
					<path
   id="path3179_1_"
   style="fill:#ffffff;stroke:#010101;stroke-width:1;stroke-linecap:round;stroke-linejoin:round;stroke-miterlimit:4;stroke-dasharray:none"
   d="m 245.69,222.85 c 0,15.18 -12.3,27.49 -27.47,27.49 -15.18,0 -27.48,-12.31 -27.48,-27.49 0,-15.19 12.3,-27.5 27.48,-27.5 15.17,0 27.47,12.31 27.47,27.5 z"
   inkscape:connector-curvature="0" />
					<path
   id="path3183_1_"
   style="fill:#010101;stroke-width:1;stroke-miterlimit:4;stroke-dasharray:none"
   d="m 216.95,226.23 c 0,4.91 -3.97,8.89 -8.87,8.89 -4.9,0 -8.88,-3.98 -8.88,-8.89 0,-4.91 3.98,-8.88 8.88,-8.88 4.9,0 8.87,3.97 8.87,8.88 z"
   inkscape:connector-curvature="0" />
				</g>
			</g>
			<g
   id="g315"
   style="stroke-width:1;stroke-miterlimit:4;stroke-dasharray:none">
				<path
   id="path317"
   style="fill:#ffffff;stroke:#010101;stroke-width:1;stroke-linejoin:round;stroke-miterlimit:4;stroke-dasharray:none"
   d="m 210.61,332.03 c -4.93,2.11 -14.62,-1.41 -21.2,-3.48 -0.47,-0.15 -0.84,-0.14 -1.16,-0.03 -0.31,-0.62 -0.83,-0.83 -1.64,-0.49 -4.93,2.11 -14.62,6.59 -21.2,4.52 -6.16,-1.93 1.76,16.08 3.96,17.59 2.05,1.4 11.46,1.38 13.44,-0.33 1.26,-1.1 3.74,-7.77 5.01,-13.47 1.37,5.86 4.34,12.96 5.56,13.8 2.04,1.4 11.45,1.38 13.43,-0.33 2.15,-1.87 8.87,-19.95 3.8,-17.78 z"
   inkscape:connector-curvature="0" />
				<g
   id="g3178"
   transform="translate(-2.5218,-5.0362)"
   style="stroke-width:1;stroke-miterlimit:4;stroke-dasharray:none">
					<path
   id="path2400"
   style="fill:none;stroke:#010101;stroke-width:1;stroke-linecap:round;stroke-linejoin:round;stroke-miterlimit:4;stroke-dasharray:none"
   d="m 250.14,286.4 c 5.77,21.5 -7.02,43.6 -28.56,49.36 -10.35,2.76 -21.37,1.31 -30.65,-4.03"
   inkscape:connector-curvature="0" />
					<path
   id="path3176"
   style="fill:none;stroke:#010101;stroke-width:1;stroke-linecap:round;stroke-linejoin:round;stroke-miterlimit:4;stroke-dasharray:none"
   d="m 130.48,286.4 c -5.77,21.5 7.01,43.6 28.56,49.36 10.34,2.76 21.37,1.31 30.64,-4.03"
   inkscape:connector-curvature="0" />
				</g>
			</g>
			<g
   id="g322"
   style="stroke-width:1;stroke-miterlimit:4;stroke-dasharray:none">
				<g
   id="g3188"
   transform="translate(0,-10.702)"
   style="stroke-width:1;stroke-miterlimit:4;stroke-dasharray:none">
					<path
   id="path3182"
   style="fill:none;stroke:#010101;stroke-width:1;stroke-linecap:round;stroke-miterlimit:4;stroke-dasharray:none"
   d="m 243.21,304.28 c 62.57,-18.33 93.15,4.3 93.15,4.3"
   inkscape:connector-curvature="0" />
					<path
   id="path3184"
   style="fill:none;stroke:#010101;stroke-width:1;stroke-linecap:round;stroke-miterlimit:4;stroke-dasharray:none"
   d="m 234.23,316.57 c 44.31,-9.88 73.33,15.33 73.33,15.33"
   inkscape:connector-curvature="0" />
					<path
   id="path3186"
   style="fill:none;stroke:#010101;stroke-width:1;stroke-linecap:round;stroke-miterlimit:4;stroke-dasharray:none"
   d="m 230.55,329.72 c 34.09,-2.84 47.14,21.11 47.14,21.11"
   inkscape:connector-curvature="0" />
				</g>
				<g
   id="g3193"
   transform="matrix(-1,0,0,1,651.56,-10.702)"
   style="stroke-width:1;stroke-miterlimit:4;stroke-dasharray:none">
					<path
   id="path3195"
   style="fill:none;stroke:#010101;stroke-width:1;stroke-linecap:round;stroke-miterlimit:4;stroke-dasharray:none"
   d="m 519.19,304.28 c 62.57,-18.33 93.15,4.3 93.15,4.3"
   inkscape:connector-curvature="0" />
					<path
   id="path3197"
   style="fill:none;stroke:#010101;stroke-width:1;stroke-linecap:round;stroke-miterlimit:4;stroke-dasharray:none"
   d="m 510.22,316.57 c 44.31,-9.88 73.32,15.33 73.32,15.33"
   inkscape:connector-curvature="0" />
					<path
   id="path3199"
   style="fill:none;stroke:#010101;stroke-width:1;stroke-linecap:round;stroke-miterlimit:4;stroke-dasharray:none"
   d="m 506.53,329.72 c 34.09,-2.84 47.15,21.11 47.15,21.11"
   inkscape:connector-curvature="0" />
				</g>
			</g>
		</g>
	</g>
</g>
<metadata
   id="metadata71"><rdf:RDF><cc:Work><dc:format>image/svg+xml</dc:format><dc:type
         rdf:resource="http://purl.org/dc/dcmitype/StillImage" /><cc:license
         rdf:resource="http://creativecommons.org/publicdomain/zero/1.0/" /><dc:publisher><cc:Agent
           rdf:about="http://openclipart.org/"><dc:title>Openclipart</dc:title></cc:Agent></dc:publisher><dc:title></dc:title><dc:date>2009-03-23T15:07:00</dc:date><dc:description>Cartoon bunny. Remixed from Lemmling's Cartton Cat (whiskers) and Cartoon Beaver (body)</dc:description><dc:source>https://openclipart.org/detail/23052/cartoon-bunny-by-studiofibonacci</dc:source><dc:creator><cc:Agent><dc:title>StudioFibonacci</dc:title></cc:Agent></dc:creator><dc:subject><rdf:Bag><rdf:li>animal</rdf:li><rdf:li>bunny</rdf:li><rdf:li>cartoon</rdf:li><rdf:li>easter</rdf:li><rdf:li>holiday</rdf:li><rdf:li>mammal</rdf:li><rdf:li>pink</rdf:li><rdf:li>rabbit</rdf:li><rdf:li>remix</rdf:li></rdf:Bag></dc:subject></cc:Work><cc:License
       rdf:about="http://creativecommons.org/publicdomain/zero/1.0/"><cc:permits
         rdf:resource="http://creativecommons.org/ns#Reproduction" /><cc:permits
         rdf:resource="http://creativecommons.org/ns#Distribution" /><cc:permits
         rdf:resource="http://creativecommons.org/ns#DerivativeWorks" /></cc:License></rdf:RDF></metadata></svg>