<?xml version="1.0" encoding="UTF-8" standalone="no"?>
<!-- Created with Inkscape (http://www.inkscape.org/) -->

<svg
   xmlns:dc="http://purl.org/dc/elements/1.1/"
   xmlns:cc="http://creativecommons.org/ns#"
   xmlns:rdf="http://www.w3.org/1999/02/22-rdf-syntax-ns#"
   xmlns:svg="http://www.w3.org/2000/svg"
   xmlns="http://www.w3.org/2000/svg"
   xmlns:sodipodi="http://sodipodi.sourceforge.net/DTD/sodipodi-0.dtd"
   xmlns:inkscape="http://www.inkscape.org/namespaces/inkscape"
   id="Layer_1"
   xml:space="preserve"
   version="1.0"
   viewBox="0 0 308.02844 331.5636"
   inkscape:version="0.92.3 (2405546, 2018-03-11)"
   sodipodi:docname="StudioFibonacci-Cartoon-triceratops.adapted.svg"
   width="308.02844"
   height="331.5636"><defs
   id="defs53" /><sodipodi:namedview
   pagecolor="#ffffff"
   bordercolor="#666666"
   borderopacity="1"
   objecttolerance="10"
   gridtolerance="10"
   guidetolerance="10"
   inkscape:pageopacity="0"
   inkscape:pageshadow="2"
   inkscape:window-width="2560"
   inkscape:window-height="1373"
   id="namedview51"
   showgrid="false"
   inkscape:zoom="2"
   inkscape:cx="154.02148"
   inkscape:cy="28.49519"
   inkscape:window-x="-9"
   inkscape:window-y="-9"
   inkscape:window-maximized="1"
   inkscape:current-layer="g236"
   fit-margin-top="25"
   fit-margin-left="25"
   fit-margin-right="25"
   fit-margin-bottom="25" />
<g
   id="g236"
   transform="translate(23.500001,23.503586)">
	
	
	<g
   id="g245"
   style="stroke-width:1;stroke-miterlimit:4;stroke-dasharray:none">
		
		<g
   id="g256"
   style="stroke-width:1;stroke-miterlimit:4;stroke-dasharray:none">
			
			
			
		</g>
	</g>
	<g
   id="g1029"
   transform="translate(-2.6098729e-6,6.447287e-6)"><g
     style="stroke-width:1;stroke-miterlimit:4;stroke-dasharray:none"
     transform="translate(-200.08,-237.53)"
     id="layer1_1_">
		<path
   inkscape:connector-curvature="0"
   d="m 296.06,467.13 c 63.81,-53.38 67.86,-6.63 121.64,-37.49 28.88,-20.41 21.98,-40.49 15.74,-52.12 -8.7,-16.22 -17.15,-22.82 -4.97,-22.26 9.27,0.42 53.64,37.93 15.29,77.47 -53.34,55.01 -77.58,8.92 -135.62,49.01 -49.34,34.08 -11.5,-13.77 -12.08,-14.61 z"
   style="fill:#ffffff;fill-opacity:1;stroke:#000000;stroke-width:1;stroke-miterlimit:4;stroke-dasharray:none"
   id="path3229" />
		
	</g><g
     id="g241">
		<path
   inkscape:connector-curvature="0"
   d="m 199.58,175.99 c 0.01,51.19 -41.48,92.69 -92.67,92.69 -51.191,0 -92.683,-41.51 -92.664,-92.7 -0.014,-51.19 41.482,-92.689 92.674,-92.687 51.19,0.003 92.68,41.507 92.66,92.697 z"
   style="fill:#ffffff;fill-opacity:1;stroke:#000000;stroke-width:1;stroke-linecap:round;stroke-linejoin:round;stroke-miterlimit:4;stroke-dasharray:none"
   id="path2383" />
		
	</g><g
     style="stroke-width:1;stroke-miterlimit:4;stroke-dasharray:none"
     id="g247">
			<path
   inkscape:connector-curvature="0"
   d="m 33.266,258.92 c -0.007,19.19 15.546,21.63 34.732,21.63 19.188,0 34.742,-2.44 34.732,-21.63 0.01,-19.18 -16.196,-29.78 -34.729,-34.74 -28.831,-7.73 -34.74,15.55 -34.735,34.74 z"
   style="fill:#ffffff;fill-opacity:1;stroke:#000000;stroke-width:1;stroke-linecap:round;stroke-linejoin:round;stroke-miterlimit:4;stroke-dasharray:none"
   id="path3245" />
			<g
   transform="translate(0,2)"
   style="stroke-width:1;stroke-miterlimit:4;stroke-dasharray:none"
   id="g250">
				<path
   inkscape:connector-curvature="0"
   d="m 95.035,269.74 c 1.391,5.19 -2.75,7 -8.076,8.43 -5.327,1.43 -9.82,1.92 -11.208,-3.26 -1.391,-5.19 1.802,-10.54 7.127,-11.97 5.326,-1.43 10.77,1.62 12.157,6.8 z"
   style="fill:#ffffff;stroke:#000000;stroke-width:1;stroke-linecap:round;stroke-linejoin:round;stroke-miterlimit:4;stroke-dasharray:none"
   id="path3239" />
				<path
   inkscape:connector-curvature="0"
   d="m 59.977,275.36 c -1.389,5.18 -5.882,4.68 -11.208,3.26 -5.326,-1.43 -9.467,-3.25 -8.076,-8.43 1.388,-5.19 6.832,-8.23 12.158,-6.81 5.325,1.43 8.516,6.79 7.126,11.98 z"
   style="fill:#ffffff;stroke:#000000;stroke-width:1;stroke-linecap:round;stroke-linejoin:round;stroke-miterlimit:4;stroke-dasharray:none"
   id="path3241" />
				<path
   inkscape:connector-curvature="0"
   d="m 77.135,274.5 c 0.002,5.37 -4.468,6.05 -9.982,6.05 -5.514,0 -9.983,-0.68 -9.981,-6.05 -0.002,-5.36 4.469,-9.72 9.982,-9.72 5.514,0 9.983,4.36 9.981,9.72 z"
   style="fill:#ffffff;stroke:#000000;stroke-width:1;stroke-linecap:round;stroke-linejoin:round;stroke-miterlimit:4;stroke-dasharray:none"
   id="path3243" />
			</g>
			
		</g><path
     inkscape:connector-curvature="0"
     d="m 180.56,258.93 c 0.01,19.18 -15.54,21.63 -34.73,21.63 -19.19,0 -34.74,-2.45 -34.73,-21.64 -0.01,-19.18 16.2,-29.78 34.73,-34.74 28.83,-7.72 34.74,15.56 34.73,34.75 z"
     style="fill:#ffffff;fill-opacity:1;stroke:#000000;stroke-width:1;stroke-linecap:round;stroke-linejoin:round;stroke-miterlimit:4;stroke-dasharray:none"
     id="path3220" /><g
     transform="translate(0,2)"
     style="stroke-width:1;stroke-miterlimit:4;stroke-dasharray:none"
     id="g259">
				<path
   inkscape:connector-curvature="0"
   d="m 173.71,269.74 c 1.39,5.19 -2.75,7.01 -8.07,8.43 -5.33,1.43 -9.82,1.93 -11.21,-3.26 -1.39,-5.18 1.8,-10.54 7.13,-11.97 5.32,-1.43 10.76,1.62 12.15,6.8 z"
   style="fill:#ffffff;stroke:#000000;stroke-width:1;stroke-linecap:round;stroke-linejoin:round;stroke-miterlimit:4;stroke-dasharray:none"
   id="path3235_1_" />
				<path
   inkscape:connector-curvature="0"
   d="m 138.65,275.36 c -1.39,5.18 -5.88,4.69 -11.2,3.26 -5.33,-1.43 -9.47,-3.24 -8.08,-8.43 1.39,-5.18 6.83,-8.23 12.16,-6.8 5.32,1.43 8.51,6.79 7.12,11.97 z"
   style="fill:#ffffff;stroke:#000000;stroke-width:1;stroke-linecap:round;stroke-linejoin:round;stroke-miterlimit:4;stroke-dasharray:none"
   id="path3237" />
				<path
   inkscape:connector-curvature="0"
   d="m 155.81,274.51 c 0.01,5.36 -4.47,6.05 -9.98,6.05 -5.51,0 -9.98,-0.69 -9.98,-6.05 0,-5.37 4.47,-9.72 9.98,-9.72 5.51,0 9.98,4.35 9.98,9.72 z"
   style="fill:#ffffff;stroke:#000000;stroke-width:1;stroke-linecap:round;stroke-linejoin:round;stroke-miterlimit:4;stroke-dasharray:none"
   id="path3224" />
			</g><g
     style="stroke-width:1;stroke-miterlimit:4;stroke-dasharray:none"
     id="g265">
		
		<g
   style="stroke-width:1;stroke-miterlimit:4;stroke-dasharray:none"
   id="g268">
			<path
   inkscape:connector-curvature="0"
   d="m 210.93,103.8 c 0,-11.193 -13.56,-20.776 -15.41,-30.798 -2.03,-11.044 6.47,-25.727 1.1,-34.585 -5.38,-8.883 -21.58,-7.54 -31.46,-13.423 C 156.98,20.129 151.61,4.496 139.64,2.186 130.3,0.382 118.47,12.269 106.46,12.269 94.51,12.269 82.676,0.419 73.341,2.276 61.484,4.634 56.238,20.3 48.071,25.241 38.314,31.143 22.098,29.794 16.673,38.654 11.271,47.477 19.652,62.181 17.537,73.156 15.611,83.148 1.997,92.645 2,103.8 c -0.003,10.36 14.17,17.39 17.144,25.58 3.36,9.25 -2.229,23.91 4.293,30.51 6.467,6.55 21.622,1.37 30.533,5.44 1.089,0.5 3.605,0.93 7.153,1.29 14.603,13.76 32.168,22.42 43.627,22.42 11.89,0 30.65,-8.58 45.65,-22.28 4.29,-0.4 7.33,-0.87 8.55,-1.43 8.91,-4.07 24.07,1.11 30.54,-5.44 6.52,-6.6 0.93,-21.26 4.29,-30.51 2.97,-8.19 17.15,-15.22 17.15,-25.58 z"
   style="fill:#ffffff;fill-opacity:1;stroke:#000000;stroke-width:1;stroke-linecap:round;stroke-linejoin:round;stroke-miterlimit:4;stroke-dasharray:none"
   id="path270" />
			
		</g>
		<g
   style="stroke-width:1;stroke-miterlimit:4;stroke-dasharray:none"
   id="g274">
			<g
   style="stroke-width:1;stroke-miterlimit:4;stroke-dasharray:none"
   id="g276">
				<g
   style="stroke-width:1;stroke-miterlimit:4;stroke-dasharray:none"
   id="g278">
					<path
   inkscape:connector-curvature="0"
   d="m 165.31,109.66 c 0.01,10.58 -8.58,19.17 -19.17,19.17 -10.59,0 -19.18,-8.59 -19.17,-19.18 -0.01,-10.589 8.58,-19.176 19.17,-19.175 10.59,0.002 19.18,8.588 19.17,19.185 z"
   style="fill:#ffffff;stroke:#000000;stroke-width:1;stroke-linecap:round;stroke-linejoin:round;stroke-miterlimit:4;stroke-dasharray:none"
   id="path3159_1_" />
					<path
   inkscape:connector-curvature="0"
   style="stroke-width:1;stroke-miterlimit:4;stroke-dasharray:none"
   d="m 148.27,113.04 c 0,3.53 -2.86,6.39 -6.39,6.39 -3.53,0 -6.39,-2.86 -6.39,-6.39 0,-3.53 2.86,-6.4 6.39,-6.4 3.53,0 6.39,2.87 6.39,6.4 z"
   id="path3161_1_" />
				</g>
				<g
   style="stroke-width:1;stroke-miterlimit:4;stroke-dasharray:none"
   id="g282">
					<path
   inkscape:connector-curvature="0"
   d="m 86.863,109.65 c 0.003,10.59 -8.583,19.18 -19.174,19.18 -10.591,0 -19.175,-8.59 -19.172,-19.18 C 48.515,99.058 57.1,90.471 67.691,90.472 78.282,90.473 86.867,99.06 86.863,109.65 Z"
   style="fill:#ffffff;stroke:#000000;stroke-width:1;stroke-linecap:round;stroke-linejoin:round;stroke-miterlimit:4;stroke-dasharray:none"
   id="path3157_1_" />
					<path
   inkscape:connector-curvature="0"
   style="stroke-width:1;stroke-miterlimit:4;stroke-dasharray:none"
   d="m 78.874,113.04 c 0.002,3.52 -2.86,6.39 -6.391,6.39 -3.531,0 -6.393,-2.87 -6.391,-6.4 -0.001,-3.53 2.861,-6.39 6.391,-6.39 3.531,0 6.392,2.86 6.391,6.4 z"
   id="path3163_1_" />
				</g>
			</g>
			<g
   style="stroke-width:1;stroke-miterlimit:4;stroke-dasharray:none"
   id="g286">
				<path
   inkscape:connector-curvature="0"
   style="stroke-width:1;stroke-miterlimit:4;stroke-dasharray:none"
   d="m 120.76,169.33 c -1.94,3.36 -5.5,4.94 -7.95,3.52 -2.45,-1.41 -2.86,-5.28 -0.92,-8.64 1.94,-3.36 5.5,-4.94 7.95,-3.53 2.45,1.42 2.86,5.29 0.92,8.65 z"
   id="path2398_2_" />
				<path
   inkscape:connector-curvature="0"
   style="stroke-width:1;stroke-miterlimit:4;stroke-dasharray:none"
   d="m 93.067,169.33 c 1.939,3.36 5.5,4.94 7.953,3.52 2.45,-1.41 2.86,-5.28 0.92,-8.64 -1.94,-3.36 -5.5,-4.94 -7.95,-3.53 -2.45,1.42 -2.864,5.29 -0.923,8.65 z"
   id="path2412_1_" />
			</g>
			<g
   style="stroke-width:1;stroke-miterlimit:4;stroke-dasharray:none"
   id="g290">
				<path
   inkscape:connector-curvature="0"
   d="m 113.87,154.62 c 4.37,-4.64 -3.99,-27.48 -7.45,-25.36 -3.46,2.13 -9.907,19.89 -6.925,24.59 2.805,4.42 9.775,5.65 14.375,0.77 z"
   style="fill:#ffffff;stroke:#000000;stroke-width:1;stroke-linejoin:round;stroke-miterlimit:4;stroke-dasharray:none"
   id="path3214_4_" />
				
			</g>
			<g
   style="stroke-width:1;stroke-miterlimit:4;stroke-dasharray:none"
   id="g294">
				<path
   inkscape:connector-curvature="0"
   d="m 125.61,68.875 c -4.3,-9.52 20.84,-40.438 25.07,-35.303 4.22,5.133 4.74,36.085 -2.39,41.779 -6.71,5.356 -18.16,3.54 -22.68,-6.476 z"
   style="fill:#ffffff;stroke:#000000;stroke-width:1;stroke-linejoin:round;stroke-miterlimit:4;stroke-dasharray:none"
   id="path3190_1_" />
				<g
   style="stroke-width:1;stroke-miterlimit:4;stroke-dasharray:none"
   id="g297">
					<path
   inkscape:connector-curvature="0"
   d="m 88.222,68.875 c 4.296,-9.52 -20.841,-40.438 -25.067,-35.303 -4.227,5.133 -4.738,36.085 2.391,41.779 6.706,5.356 18.156,3.54 22.676,-6.476 z"
   style="fill:#ffffff;stroke:#000000;stroke-width:1;stroke-linejoin:round;stroke-miterlimit:4;stroke-dasharray:none"
   id="path3214_3_" />
					
				</g>
			</g>
		</g>
	</g></g>
</g>
<metadata
   id="metadata48"><rdf:RDF><cc:Work><dc:format>image/svg+xml</dc:format><dc:type
         rdf:resource="http://purl.org/dc/dcmitype/StillImage" /><cc:license
         rdf:resource="http://creativecommons.org/publicdomain/zero/1.0/" /><dc:publisher><cc:Agent
           rdf:about="http://openclipart.org/"><dc:title>Openclipart</dc:title></cc:Agent></dc:publisher><dc:title></dc:title><dc:date>2009-03-30T17:01:10</dc:date><dc:description>Cartoon triceratops remixed from  Lemmling's Cartoon Elephant (most of body), Cartoon Cat (tail) and Cartoon Turtle (color).</dc:description><dc:source>https://openclipart.org/detail/23511/cartoon-triceratops-by-studiofibonacci</dc:source><dc:creator><cc:Agent><dc:title>StudioFibonacci</dc:title></cc:Agent></dc:creator><dc:subject><rdf:Bag><rdf:li>cartoon</rdf:li><rdf:li>dinosaur</rdf:li><rdf:li>lizard</rdf:li><rdf:li>remix</rdf:li><rdf:li>triceratops</rdf:li></rdf:Bag></dc:subject></cc:Work><cc:License
       rdf:about="http://creativecommons.org/publicdomain/zero/1.0/"><cc:permits
         rdf:resource="http://creativecommons.org/ns#Reproduction" /><cc:permits
         rdf:resource="http://creativecommons.org/ns#Distribution" /><cc:permits
         rdf:resource="http://creativecommons.org/ns#DerivativeWorks" /></cc:License></rdf:RDF></metadata></svg>