<?xml version="1.0" encoding="UTF-8" standalone="no"?>
<!-- Created with Inkscape (http://www.inkscape.org/) -->
<svg xmlns:rdf="http://www.w3.org/1999/02/22-rdf-syntax-ns#" xmlns="http://www.w3.org/2000/svg" xmlns:cc="http://web.resource.org/cc/" xmlns:dc="http://purl.org/dc/elements/1.1/" xmlns:svg="http://www.w3.org/2000/svg" xmlns:inkscape="http://www.inkscape.org/namespaces/inkscape" xmlns:sodipodi="http://sodipodi.sourceforge.net/DTD/sodipodi-0.dtd" xmlns:ns1="http://sozi.baierouge.fr" xmlns:xlink="http://www.w3.org/1999/xlink" id="Layer_1" xml:space="preserve" version="1.0" viewBox="0 0 275.943 429.984" inkscape:version="0.91 r13725">
<g id="g236">
	<g id="tail">
		<path id="path3229" style="stroke:#010101;stroke-width:4;fill:#a05b2c" d="m109.68 182.41c-9.44-63.58 54.4-67.86 47.22-93.169-7.48-26.324-36.52-18.886-51.62-22.663-15.113-3.777-12.885-17.733-3.78-25.181 6.92-5.666 63.55-8.729 76.8 32.735 18.44 57.678-45.33 52.878-45.33 107.02 0 46.03-22.03 1.26-23.29 1.26z"/>
		<path id="path3334" style="fill-opacity:.3137;fill:#010101" d="m162.89 51.663c3.32 4.186 6.04 9.138 7.91 14.969 18.43 57.678-45.32 52.888-45.32 107.03 0 18.7-3.66 22.4-8.06 20.22 6.79 9.21 15.56 16.33 15.56-12.72 0-54.14 63.75-49.35 45.32-107.03-3.13-9.792-8.67-17.09-15.41-22.467z"/>
		<path id="path3197_3_" style="stroke-linejoin:round;stroke:#010101;stroke-width:4;stroke-linecap:round;fill:#794522" d="m81.221 28.314c-10.629 1.507-25.23 11.393-24.634 15.032 13.605-4.227 20.248-3.969 27.466-0.712-8.168 3.019-17.265 10.486-18.093 18.523 4.049-3.143 10.399-6.06 17.422-6.697 2.973-0.27-8.458 22.859-4.657 25.504 6.445-12.704 11.258-17.29 18.624-20.198-3.526 7.962-4.505 19.691 0.684 25.885 0.546-4.907 2.727-11.199 6.847-16.555 1.98-2.558 17.66 20.835 21.79 18.738-8.14-11.688-9.91-18.098-8.98-25.963 5.35 6.873 15.21 13.284 23.13 11.642-3.51-2.415-9.11-7.515-11.88-12.512-1.98-3.572 26.26-4.187 26.43-8.814-14.18 1.467-20.64-0.093-27.07-4.707 8.6-1.353 18.99-6.884 21.38-14.601-5.26 2.618-13.42 4.35-21.47 2.65-1.95-0.412-3.9-1.024-5.79-1.875 0 0 14.26-22.523 10.38-25.054-6.07 12.89-11.43 14.815-18.71 17.94 3.29-8.063 4.61-17.015-0.76-23.053-0.4 4.978-2.44 11.421-6.49 16.938-1.87 2.542-18.133-20.493-22.197-18.274 8.486 11.443 10.438 17.797 9.75 25.687-5.549-6.711-15.604-12.829-23.463-10.954 6.124 3.961 13.009 11.045 10.291 11.43z"/>
	</g>
	<g id="body">
		<path id="path2383" style="stroke-linejoin:round;stroke:#010101;stroke-width:2.2041;stroke-linecap:round;fill:#a05b2c" d="m261.36 286.91c0.04 68.14-55.16 123.42-123.31 123.47-68.14 0.04-123.42-55.16-123.46-123.31-0.005-0.05-0.005-0.11-0.005-0.16-0.045-68.15 55.16-123.43 123.3-123.47 68.15-0.05 123.43 55.16 123.48 123.3v0.17z"/>
		<path id="path3339" style="fill-opacity:.3137;fill:#010101" d="m246.14 228.29c3.2 10.97 4.91 22.59 4.91 34.59 0 68.11-55.27 123.38-123.38 123.38-46.822 0-87.596-26.14-108.5-64.6 15.025 51.2 62.369 88.63 118.41 88.63 68.11 0 123.37-55.27 123.37-123.38 0-21.21-5.37-41.18-14.81-58.62z"/>
	</g>
	<g id="paws">
		<g id="g246">
			<path id="path3238" style="stroke-linejoin:round;stroke:#010101;stroke-width:4;stroke-linecap:round;fill:#a05b2c" d="m131.99 406.84c0 21.54-17.48 20.77-39.029 20.77-11.979 0-22.705 0.24-29.866-3.25-5.718-2.79-9.164-7.96-9.164-17.52 0-21.55 17.485-39.03 39.03-39.03 21.549 0 39.029 17.49 39.029 39.03z"/>
			<path id="path3332" style="fill-opacity:.3137;fill:#010101" d="m112.98 373.63c4.72 6.48 7.53 14.47 7.53 23.1 0 12.46-5.84 23.55-14.91 30.75 15.08-0.58 25.91-3.7 25.91-20.63 0-14.03-7.41-26.34-18.53-33.22z"/>
			<g id="g2469" transform="matrix(-1 0 0 1 652.48 -1.8279)">
				<path id="path2471" style="stroke:#010101;stroke-width:4;stroke-linecap:round;fill:none" d="m544.83 427.3c-3.5-11.34 0.5-24.56 0.5-24.56"/>
				<path id="path2473" style="stroke:#010101;stroke-width:4;stroke-linecap:round;fill:none" d="m562.86 429.81c4.29-18.25-0.62-32.73-0.62-32.73"/>
				<path id="path2475" style="stroke:#010101;stroke-width:4;stroke-linecap:round;fill:none" d="m581.11 427.92c8.81-13.85 1.26-25.18 1.26-25.18"/>
			</g>
		</g>
		<g id="g254">
			<path id="path3235" style="stroke-linejoin:round;stroke:#010101;stroke-width:4;stroke-linecap:round;fill:#a05b2c" d="m222.01 406.84c0 21.54-17.48 20.77-39.03 20.77-21.54 0-39.03 0.77-39.03-20.77s17.49-39.03 39.03-39.03c21.55 0 39.03 17.49 39.03 39.03z"/>
			<path id="path3327" style="fill-opacity:.3137;fill:#010101" d="m203.48 373.63c4.72 6.48 7.53 14.47 7.53 23.1 0 12.46-5.84 23.55-14.91 30.75 15.08-0.58 25.91-3.7 25.91-20.63 0-14.03-7.41-26.34-18.53-33.22z"/>
			<path id="path3349" style="fill-opacity:.3137;fill:#010101" d="m149.16 387.35c-3.31 5.73-5.21 12.41-5.21 19.5 0 17.51 11.55 20.26 27.43 20.69-15.78-6.58-23.8-22.21-22.22-40.19z"/>
			<g id="g2508" transform="translate(-.82294 -1.8279)">
				<path id="path2510" style="stroke:#010101;stroke-width:4;stroke-linecap:round;fill:none" d="m169.85 427.3c-3.5-11.34 0.5-24.56 0.5-24.56"/>
				<path id="path2512" style="stroke:#010101;stroke-width:4;stroke-linecap:round;fill:none" d="m187.88 429.81c4.29-18.25-0.62-32.73-0.62-32.73"/>
				<path id="path2514" style="stroke:#010101;stroke-width:4;stroke-linecap:round;fill:none" d="m206.13 427.92c8.81-13.85 1.26-25.18 1.26-25.18"/>
			</g>
		</g>
	</g>
	<g id="face">
		<g id="g264">
			<path id="path2479" style="stroke-linejoin:round;stroke:#010101;stroke-width:4;stroke-linecap:round;fill:#794522" d="m66.742 153.97c-14.965 0-27.116 12.15-27.116 27.12 0 9.68 5.088 18.17 12.733 22.97-8.083 14.29-12.733 30.78-12.733 48.35 0 54.33 44.067 98.44 98.394 98.44 54.33 0 98.44-44.11 98.44-98.44 0-17.57-4.65-34.06-12.73-48.35 7.63-4.8 12.73-13.3 12.73-22.97 0-14.97-12.15-27.12-27.11-27.12-9.68 0-18.13 5.11-22.93 12.73-14.3-8.09-30.81-12.73-48.4-12.73-17.58 0-34.06 4.64-48.351 12.73-4.797-7.62-13.254-12.73-22.927-12.73z"/>
			<path id="path2483" style="stroke-linejoin:round;stroke:#010101;stroke-width:4;stroke-linecap:round;fill:#502e18" d="m209.67 165.47c-5.44 0-10.19 2.87-12.9 7.15 8.32 5.6 15.48 12.76 21.08 21.08 4.27-2.72 7.11-7.51 7.11-12.94 0-8.43-6.85-15.29-15.29-15.29z"/>
			<path id="path2523" style="stroke-linejoin:round;stroke:#010101;stroke-width:4;stroke-linecap:round;fill:#502e18" d="m66.674 165.47c5.438 0 10.188 2.87 12.897 7.15-8.317 5.6-15.478 12.76-21.074 21.08-4.269-2.72-7.113-7.51-7.113-12.94 0-8.43 6.853-15.29 15.29-15.29z"/>
				<path id="path2413_2_" style="opacity:0.99;stroke-linejoin:round;stroke:#010101;stroke-linecap:round;stroke-width:4;fill:#794522" d="m210.79 190.94c8.12-14 50.87-14.82 53.78-8.18-21.46 6.02-29.97 12.01-36.67 22.43 13.29-2.98 31.59-0.92 39.52 8.93-11.38-0.97-28.48 2.63-40.11 14.57 12.32 3.2 26.58 4.07 31.46 16.21-14.54-2.94-28.54 5.31-28.54 5.31 14.71-6.76 45.12 17.22 43.66 24.32-21.01-7.45-31.41-7.46-42.9-2.81 12.59 5.22 26.35 17.46 27.15 30.08-8.74-7.35-24.78-14.27-41.18-11.22 8.23 9.72 19.37 18.65 16.36 31.38-10.18-10.78-27.23-7.72-27.23-7.72 16.05 2.1 28.29 33.23 23.28 38.47-13.83-17.48-22.64-23.02-34.84-25.19 7.88 11.12 13.03 28.8 7 39.91-3.49-10.87-13.4-25.27-28.91-31.4 1.8 12.61 6.49 26.1-2.83 35.28-2.89-14.55-12.31-26.94-12.31-26.94-4.44 11.93-4.77 35.02-17.34 38.64 4.42-14.16-0.21-22.62-2.8-32.69 0 0-7.24 18.53-2.83 32.69-12.57-3.62-14.89-26.71-19.33-38.64 0 0-9.61 13.06-12.71 27.56-9.178-9.32-4.286-22.74-2.3-35.31-15.593 5.89-25.721 20.14-29.375 30.96-5.866-11.21-0.45-28.81 7.595-39.81-12.23 1.99-21.119 7.4-35.212 24.67-4.927-5.32 7.965-40.19 24.046-42.04 0 0-14.425 0.78-24.604 11.56-3.009-12.73 8.137-21.66 16.361-31.38-16.392-3.05-32.441 3.87-41.177 11.22 0.798-12.62 14.562-24.85 27.145-30.08-11.486-4.65-21.89-4.64-42.898 2.81-1.454-7.1 28.953-31.08 43.661-24.31 0 0-13.398-11.3-28.168-9.95 6.167-11.53 20.436-10.85 33.033-12.7-10.271-13.13-26.885-18.56-38.298-18.83 8.948-8.94 27.365-9 40.259-4.59-5.539-11.09-13.344-17.97-34.025-26.28 3.607-6.29 46.022-0.84 52.575 13.97"/>
				<path id="path2413_5_" style="opacity:0.99;stroke-linejoin:round;stroke:#010101;stroke-linecap:round;stroke-width:4;fill:#794522" d="m82.857 176.92c-1.354-10.3-1.514-20.43-10.884-31.93 13.012-1.33 20.422 10.88 28.987 20.3 5.16-15.85 0.38-32.66-5.77-42.28 12.41 2.43 22.75 17.67 26.3 30.83 6.1-10.79 7.44-21.1 2.79-42.9 4.14-0.3 12.21 12.14 16.72 25.39 3.35 9.86 9.2-25.91 16.43-25.39-4.65 21.8-3.31 32.11 2.79 42.9 3.55-13.16 13.89-28.4 26.3-30.83-6.15 9.62-10.93 26.43-5.77 42.28 8.56-9.42 15.97-21.63 28.99-20.3-9.37 11.5-9.53 21.63-10.89 31.93"/>
		</g>
			<path id="path2383_1_" style="stroke-linejoin:round;stroke:#010101;stroke-width:2.2041;stroke-linecap:round;fill:#a05b2c" d="m212.69 262.89c0.03 41.26-33.4 74.74-74.67 74.76-41.264 0.03-74.738-33.4-74.765-74.66v-0.1c-0.028-41.27 33.401-74.74 74.665-74.77 41.26-0.03 74.74 33.4 74.77 74.67v0.1z"/>
		<g id="g272">
			<g id="g3178" transform="translate(-2.5218 -5.0362)">
				<path id="path2400" style="stroke-linejoin:round;stroke:#010101;stroke-width:4.2713;stroke-linecap:round;fill:none" d="m194.7 276.53c5.23 19.48-6.36 39.5-25.88 44.72-9.37 2.51-19.36 1.2-27.76-3.65"/>
				<path id="path3176" style="stroke-linejoin:round;stroke:#010101;stroke-width:4.2713;stroke-linecap:round;fill:none" d="m86.287 276.53c-5.23 19.48 6.354 39.5 25.873 44.72 9.37 2.51 19.36 1.2 27.77-3.65"/>
			</g>
			<path id="path2397" style="fill:#010101" d="m154.67 287.73c0 8.83-9.67 15.99-16.07 15.99-6.89 0-16.06-7.16-16.06-15.99s7.19-11.08 16.06-11.08 16.07 2.25 16.07 11.08z"/>
			<g id="g278">
				<path id="path2387" style="stroke-linejoin:round;stroke:#010101;stroke-width:9.931;stroke-linecap:round;fill:#ffffff" d="m134.25 241.9c0.01 12.78-10.35 23.15-23.13 23.15-12.773 0.01-23.141-10.34-23.148-23.12v-0.03c-0.009-12.78 10.344-23.15 23.128-23.15 12.77-0.01 23.14 10.34 23.15 23.12v0.03z"/>
				<path id="path2393" style="fill:#010101" d="m125.21 244.56c0 3.97-3.21 7.18-7.18 7.19-3.97 0-7.18-3.21-7.19-7.18v-0.01c0-3.96 3.21-7.18 7.18-7.18 3.97-0.01 7.18 3.2 7.19 7.17v0.01z"/>
			</g>
			<g id="g282">
				<path id="path2391" style="stroke-linejoin:round;stroke:#010101;stroke-width:9.931;stroke-linecap:round;fill:#ffffff" d="m187.97 241.9c0.01 12.78-10.34 23.15-23.12 23.15-12.78 0.01-23.15-10.34-23.15-23.12v-0.03c-0.01-12.78 10.34-23.15 23.12-23.15 12.78-0.01 23.14 10.34 23.15 23.12v0.03z"/>
				<path id="path2395" style="fill:#010101" d="m164.57 244.56c0 3.97-3.21 7.18-7.18 7.19-3.97 0-7.18-3.21-7.19-7.18v-0.01c0-3.96 3.22-7.18 7.18-7.18 3.97-0.01 7.18 3.2 7.19 7.17v0.01z"/>
			</g>
		</g>
		<g id="g286">
			<g id="g3188" transform="translate(0 -10.702)">
				<path id="path3182" style="stroke:#010101;stroke-width:4;stroke-linecap:round;fill:none" d="m180.61 291.73c44.67-16.61 66.5 3.89 66.5 3.89"/>
				<path id="path3184" style="stroke:#010101;stroke-width:4;stroke-linecap:round;fill:none" d="m174.2 302.87c31.64-8.96 52.35 13.89 52.35 13.89"/>
				<path id="path3186" style="stroke:#010101;stroke-width:4;stroke-linecap:round;fill:none" d="m171.57 314.78c24.34-2.58 33.66 19.12 33.66 19.12"/>
			</g>
			<g id="g3193" transform="matrix(-1 0 0 1 651.56 -10.702)">
				<path id="path3195" style="stroke:#010101;stroke-width:4;stroke-linecap:round;fill:none" d="m550.09 291.73c44.67-16.61 66.5 3.89 66.5 3.89"/>
				<path id="path3197_4_" style="stroke:#010101;stroke-width:4;stroke-linecap:round;fill:none" d="m543.68 302.87c31.63-8.96 52.35 13.89 52.35 13.89"/>
				<path id="path3199" style="stroke:#010101;stroke-width:4;stroke-linecap:round;fill:none" d="m541.05 314.78c24.34-2.58 33.65 19.12 33.65 19.12"/>
			</g>
		</g>
	</g>
</g>
<metadata><rdf:RDF><cc:Work><dc:format>image/svg+xml</dc:format><dc:type rdf:resource="http://purl.org/dc/dcmitype/StillImage"/><cc:license rdf:resource="http://creativecommons.org/licenses/publicdomain/"/><dc:publisher><cc:Agent rdf:about="http://openclipart.org/"><dc:title>Openclipart</dc:title></cc:Agent></dc:publisher><dc:title>Cartoon lion</dc:title><dc:date>2009-03-13T15:51:09</dc:date><dc:description>Cartoon lion. Remixed from Lemmling's Cartoon Cat and Cartoon Beaver.</dc:description><dc:source>https://openclipart.org/detail/22284/cartoon-lion-by-studiofibonacci</dc:source><dc:creator><cc:Agent><dc:title>StudioFibonacci</dc:title></cc:Agent></dc:creator><dc:subject><rdf:Bag><rdf:li>animal</rdf:li><rdf:li>cartoon</rdf:li><rdf:li>cat</rdf:li><rdf:li>lion</rdf:li><rdf:li>remix</rdf:li></rdf:Bag></dc:subject></cc:Work><cc:License rdf:about="http://creativecommons.org/licenses/publicdomain/"><cc:permits rdf:resource="http://creativecommons.org/ns#Reproduction"/><cc:permits rdf:resource="http://creativecommons.org/ns#Distribution"/><cc:permits rdf:resource="http://creativecommons.org/ns#DerivativeWorks"/></cc:License></rdf:RDF></metadata></svg>