<?xml version="1.0" encoding="UTF-8" standalone="no"?>
<!-- Created with Inkscape (http://www.inkscape.org/) -->

<svg
   xmlns:dc="http://purl.org/dc/elements/1.1/"
   xmlns:cc="http://creativecommons.org/ns#"
   xmlns:rdf="http://www.w3.org/1999/02/22-rdf-syntax-ns#"
   xmlns:svg="http://www.w3.org/2000/svg"
   xmlns="http://www.w3.org/2000/svg"
   xmlns:sodipodi="http://sodipodi.sourceforge.net/DTD/sodipodi-0.dtd"
   xmlns:inkscape="http://www.inkscape.org/namespaces/inkscape"
   id="Layer_1"
   xml:space="preserve"
   version="1.0"
   viewBox="0 0 704.78528 609.30445"
   inkscape:version="0.92.3 (2405546, 2018-03-11)"
   sodipodi:docname="StudioFibonacci-Cartoon-peacock.adapted.svg"
   width="704.78528"
   height="609.30444"><sodipodi:namedview
   pagecolor="#ffffff"
   bordercolor="#666666"
   borderopacity="1"
   objecttolerance="10"
   gridtolerance="10"
   guidetolerance="10"
   inkscape:pageopacity="0"
   inkscape:pageshadow="2"
   inkscape:window-width="2560"
   inkscape:window-height="1373"
   id="namedview113"
   showgrid="false"
   fit-margin-top="50"
   fit-margin-left="50"
   fit-margin-right="50"
   fit-margin-bottom="50"
   inkscape:zoom="1.9366345"
   inkscape:cx="352.39264"
   inkscape:cy="304.65222"
   inkscape:window-x="-9"
   inkscape:window-y="-9"
   inkscape:window-maximized="1"
   inkscape:current-layer="g302" /><defs
   id="defs115" />

<g
   style="stroke-width:0.83333333;stroke-miterlimit:4;stroke-dasharray:none;opacity:1"
   transform="matrix(1.2,0,0,1.2,49.994925,50.000415)"
   id="g237">
	<g
   style="stroke-width:0.83333333;stroke-miterlimit:4;stroke-dasharray:none;opacity:1"
   id="g239">
		<path
   inkscape:connector-curvature="0"
   d="M 458.98,152.17 C 380.9,123.4 378.15,284.36 243.19,313.58 c -24.94,5.4 69.96,63.14 171.55,2.47 98.8,-59 113.92,-132.89 44.24,-163.88 z"
   style="fill:#ffffff;stroke:#010101;stroke-width:0.83333333;stroke-miterlimit:4;stroke-dasharray:none;opacity:1"
   id="path3800_1_" />
		
		<path
   inkscape:connector-curvature="0"
   d="m 481.13,165.67 c -0.52,-0.43 -1.06,-0.84 -1.59,-1.27 6.54,33.25 -16.53,78.13 -70.86,121.88 -72.22,58.15 -150.5,43.7 -169.47,30.49 -1.1,12.94 84.52,53.66 175.54,-0.7 86.45,-51.62 108.81,-114.68 66.38,-150.4 z"
   style="fill:none;fill-opacity:0.3137;stroke-width:0.83333333;stroke-miterlimit:4;stroke-dasharray:none;opacity:1;stroke:#010101;stroke-opacity:1"
   id="path3200_2_" /><circle
   style="fill:#ffffff;stroke:#000000;stroke-width:0.83333333;stroke-miterlimit:4;stroke-dasharray:none;opacity:1"
   r="21.462999"
   cx="464.44"
   cy="202.42"
   id="circle242" />
	</g>
	<g
   style="stroke-width:0.83333333;stroke-miterlimit:4;stroke-dasharray:none;opacity:1"
   id="g245">
		<path
   inkscape:connector-curvature="0"
   d="m 398.74,106.69 c -82.87,-7.575 -43.86,148.61 -166.66,211.76 -22.7,11.67 83.92,42.88 166.35,-42.01 80.15,-82.56 75.64,-157.85 0.31,-169.75 z"
   style="fill:#ffffff;stroke:#010101;stroke-width:0.83333333;stroke-miterlimit:4;stroke-dasharray:none;opacity:1"
   id="path3800_3_" />
		
		<path
   inkscape:connector-curvature="0"
   d="m 423.63,114 c -0.61,-0.28 -1.25,-0.54 -1.87,-0.81 14.93,30.42 4.26,79.74 -36.9,136.06 -54.71,74.86 -134.06,81.16 -155.8,73.31 2.29,12.79 95.53,29.96 169.38,-46.1 70.14,-72.24 75.42,-138.94 25.19,-162.46 z"
   style="fill:none;fill-opacity:0.3137;stroke-width:0.83333333;stroke-miterlimit:4;stroke-dasharray:none;opacity:1;stroke:#010101;stroke-opacity:1"
   id="path3200_3_" /><circle
   style="fill:#ffffff;stroke:#000000;stroke-width:0.83333333;stroke-miterlimit:4;stroke-dasharray:none;opacity:1"
   r="21.462999"
   cx="424.26999"
   cy="154.91"
   id="circle248" />
	</g>
	<g
   style="stroke-width:0.83333333;stroke-miterlimit:4;stroke-dasharray:none;opacity:1"
   id="g251">
		<path
   inkscape:connector-curvature="0"
   d="m 355.4,75.532 c -83.22,-0.322 -30.75,151.87 -147.58,225.48 -21.59,13.61 87.34,35.41 162.06,-56.34 72.66,-89.23 61.6,-163.85 -14.48,-169.14 z"
   style="fill:#ffffff;stroke:#010101;stroke-width:0.83333333;stroke-miterlimit:4;stroke-dasharray:none;opacity:1"
   id="path3800_4_" />
		
		<path
   inkscape:connector-curvature="0"
   d="m 380.83,80.651 c -0.63,-0.229 -1.29,-0.431 -1.93,-0.648 17.52,29.007 11.19,79.067 -24.9,138.76 -47.98,79.35 -126.48,92.54 -148.82,86.62 3.39,12.53 97.77,21.51 164.71,-60.7 63.58,-78.08 63.03,-144.98 10.94,-164.03 z"
   style="fill:none;fill-opacity:0.3137;stroke-width:0.83333333;stroke-miterlimit:4;stroke-dasharray:none;opacity:1;stroke:#010101;stroke-opacity:1"
   id="path3200_4_" /><circle
   style="fill:#ffffff;stroke:#000000;stroke-width:0.83333333;stroke-miterlimit:4;stroke-dasharray:none;opacity:1"
   r="21.462999"
   cx="382.17999"
   cy="114.28"
   id="circle254" />
	</g>
	<g
   style="stroke-width:0.83333333;stroke-miterlimit:4;stroke-dasharray:none;opacity:1"
   id="g257">
		<path
   inkscape:connector-curvature="0"
   d="m 300.66,43.352 c -82,14.132 -3.9,154.9 -106.17,247.68 -18.91,17.15 92.16,19.71 149.81,-83.63 56.05,-100.49 32.2,-172.05 -43.64,-164.05 z"
   style="fill:#ffffff;stroke:#010101;stroke-width:0.83333333;stroke-miterlimit:4;stroke-dasharray:none;opacity:1"
   id="path3800_5_" />
		
		<path
   inkscape:connector-curvature="0"
   d="m 326.6,43.977 c -0.66,-0.117 -1.34,-0.202 -2.02,-0.304 22.3,25.522 24.75,75.917 -0.43,140.97 -33.46,86.48 -108.48,113.1 -131.51,111.15 5.52,11.76 100.02,4.21 151.67,-88.38 49.05,-87.93 36.89,-153.72 -17.71,-163.43 z"
   style="fill:none;fill-opacity:0.3137;stroke-width:0.83333333;stroke-miterlimit:4;stroke-dasharray:none;opacity:1;stroke:#010101;stroke-opacity:1"
   id="path3200_5_" /><circle
   style="fill:#ffffff;stroke:#000000;stroke-width:0.83333333;stroke-miterlimit:4;stroke-dasharray:none;opacity:1;fill-opacity:1"
   r="21.462999"
   cx="339.29001"
   cy="78.714996"
   id="circle260" />
	</g>
	<g
   style="stroke-width:0.83333333;stroke-miterlimit:4;stroke-dasharray:none;opacity:1"
   id="g263">
		<g
   style="stroke-width:0.83333333;stroke-miterlimit:4;stroke-dasharray:none;opacity:1"
   id="g265">
			<path
   inkscape:connector-curvature="0"
   d="m 55.013,138.76 c 81.897,-14.77 56.647,144.22 184.49,196.42 23.62,9.66 -79.87,50.05 -169.38,-27.34 C -16.926,232.58 -18.988,157.18 55.016,138.76 Z"
   style="fill:#ffffff;stroke:#010101;stroke-width:0.83333333;stroke-miterlimit:4;stroke-dasharray:none;opacity:1"
   id="path3169_1_" />
			<path
   inkscape:connector-curvature="0"
   d="m 6.427,222.81 c 8.568,26.08 29.64,55.57 63.711,85.03 89.512,77.38 193,37.01 169.38,27.36 -10.11,-4.13 -19.29,-8.93 -27.61,-14.25 -30.41,9.02 -96.02,9.63 -155.53,-41.82 C 34.321,260.05 17.713,240.97 6.425,222.81 Z m 105.63,-49.06 c 5.7,12.75 11.72,26.33 18.86,40.09 -6.57,-14.61 -12.48,-28.4 -18.86,-40.09 z"
   style="fill:none;fill-opacity:0.3137;stroke-width:0.83333333;stroke-miterlimit:4;stroke-dasharray:none;opacity:1;stroke:#010101;stroke-opacity:1"
   id="path3205_2_" />
		</g>
		<circle
   style="fill:#ffffff;stroke:#000000;stroke-width:0.83333333;stroke-miterlimit:4;stroke-dasharray:none;opacity:1"
   r="21.462999"
   cx="34.264999"
   cy="202.42"
   id="circle269" />
	</g>
	<g
   style="stroke-width:0.83333333;stroke-miterlimit:4;stroke-dasharray:none;opacity:1"
   id="g271">
		<g
   style="stroke-width:0.83333333;stroke-miterlimit:4;stroke-dasharray:none;opacity:1"
   id="g273">
			<path
   inkscape:connector-curvature="0"
   d="m 97.979,106.69 c 82.871,-7.571 43.861,148.61 166.66,211.76 22.7,11.67 -83.92,42.89 -166.35,-42 C 18.133,193.89 22.65,118.59 97.978,106.69 Z"
   style="fill:#ffffff;stroke:#010101;stroke-width:0.83333333;stroke-miterlimit:4;stroke-dasharray:none;opacity:1"
   id="path3169_3_" />
			<path
   inkscape:connector-curvature="0"
   d="m 42.252,186.19 c 6.263,26.73 24.684,57.94 56.058,90.25 82.43,84.9 189.05,53.7 166.35,42.03 -9.71,-4.99 -18.44,-10.58 -26.26,-16.6 -31.08,6.33 -96.5,1.22 -151.29,-55.22 C 66.796,225.72 51.915,205.27 42.252,186.19 Z m 109.51,-39.67 c 4.57,13.2 9.38,27.26 15.3,41.58 -5.28,-15.12 -9.96,-29.37 -15.3,-41.58 z"
   style="fill:none;fill-opacity:0.3137;stroke-width:0.83333333;stroke-miterlimit:4;stroke-dasharray:none;opacity:1;stroke:#010101;stroke-opacity:1"
   id="path3205_3_" />
		</g>
		<circle
   style="fill:#ffffff;stroke:#000000;stroke-width:0.83333333;stroke-miterlimit:4;stroke-dasharray:none;opacity:1"
   r="21.462999"
   cx="70.369003"
   cy="166.86"
   id="circle277" />
	</g>
	<g
   style="stroke-width:0.83333333;stroke-miterlimit:4;stroke-dasharray:none;opacity:1"
   id="g279">
		<g
   style="stroke-width:0.83333333;stroke-miterlimit:4;stroke-dasharray:none;opacity:1"
   id="g281">
			<path
   inkscape:connector-curvature="0"
   d="m 141.32,75.536 c 83.22,-0.323 30.75,151.86 147.57,225.48 21.6,13.6 -87.34,35.4 -162.05,-56.35 -72.658,-89.23 -61.596,-163.84 14.48,-169.13 z"
   style="fill:#ffffff;stroke:#010101;stroke-width:0.83333333;stroke-miterlimit:4;stroke-dasharray:none;opacity:1"
   id="path3169_4_" />
			<path
   inkscape:connector-curvature="0"
   d="m 78.879,149.88 c 3.91,27.16 19.54,59.87 47.981,94.79 74.71,91.76 183.64,69.97 162.05,56.36 -9.23,-5.82 -17.44,-12.14 -24.71,-18.82 -31.52,3.6 -96.24,-7.2 -145.9,-68.2 C 99.883,191.4 86.842,169.72 78.879,149.88 Z m 112.55,-29.98 c 3.4,13.55 6.96,27.97 11.61,42.76 -3.93,-15.53 -7.36,-30.13 -11.61,-42.76 z"
   style="fill:none;fill-opacity:0.3137;stroke-width:0.83333333;stroke-miterlimit:4;stroke-dasharray:none;opacity:1;stroke:#010101;stroke-opacity:1"
   id="path3205_4_" />
		</g>
		<circle
   style="fill:#ffffff;stroke:#000000;stroke-width:0.83333333;stroke-miterlimit:4;stroke-dasharray:none;opacity:1"
   r="21.462999"
   cx="111.1"
   cy="126.23"
   id="circle285" />
	</g>
	<g
   style="stroke-width:0.83333333;stroke-miterlimit:4;stroke-dasharray:none;opacity:1"
   id="g287">
		<g
   style="stroke-width:0.83333333;stroke-miterlimit:4;stroke-dasharray:none;opacity:1"
   id="g289">
			<path
   inkscape:connector-curvature="0"
   d="m 196.06,43.354 c 82,14.132 3.9,154.9 106.17,247.68 18.91,17.15 -92.16,19.71 -149.81,-83.63 -56.054,-100.49 -32.2,-172.05 43.64,-164.05 z"
   style="fill:#ffffff;stroke:#010101;stroke-width:0.83333333;stroke-miterlimit:4;stroke-dasharray:none;opacity:1"
   id="path3169_5_" />
			<path
   inkscape:connector-curvature="0"
   d="m 121.65,105.72 c -0.86,27.43 8.85,62.36 30.79,101.69 57.65,103.33 168.71,100.79 149.81,83.64 -8.09,-7.33 -15.07,-14.98 -21.07,-22.83 -31.66,-1.92 -93.52,-23.79 -131.84,-92.49 -14.21,-25.47 -23.29,-49.08 -27.69,-70.01 z M 237.7,95.743 c 1,13.937 2,28.757 4.01,44.117 -1.18,-15.97 -2.02,-30.94 -4.01,-44.117 z"
   style="fill:none;fill-opacity:0.3137;stroke-width:0.83333333;stroke-miterlimit:4;stroke-dasharray:none;opacity:1;stroke:#010101;stroke-opacity:1"
   id="path3205_5_" />
		</g>
		<circle
   style="fill:#ffffff;stroke:#000000;stroke-width:0.83333333;stroke-miterlimit:4;stroke-dasharray:none;opacity:1"
   r="21.462999"
   cx="159.41"
   cy="78.714996"
   id="circle293" />
	</g>
	<g
   style="stroke-width:0.83333333;stroke-miterlimit:4;stroke-dasharray:none;opacity:1"
   id="g295">
		<path
   inkscape:connector-curvature="0"
   d="m 247.63,284.43 c 0,0 132.48,-282.07 3.64,-282.43 -128.84,-0.363 -3.64,282.43 -3.64,282.43 z"
   style="fill:#ffffff;stroke:#010101;stroke-width:0.83333333;stroke-miterlimit:4;stroke-dasharray:none;opacity:1"
   id="path297" />
		
		<path
   inkscape:connector-curvature="0"
   d="m 247,0.235 c -0.67,0 -1.35,0.033 -2.03,0.05 26.38,21.264 37.55,70.469 24.05,138.9 -17.94,90.98 -8.65,90.71 -23.94,136.2 3.28,21.48 12.96,-17.12 47.75,-117.27 C 325.87,63.004 302.47,0.325 247,0.235 Z"
   style="fill:none;fill-opacity:0.3137;stroke-width:0.83333333;stroke-miterlimit:4;stroke-dasharray:none;opacity:1;stroke:#010101;stroke-opacity:1"
   id="path3200_6_" /><circle
   style="fill:#ffffff;stroke:#000000;stroke-width:0.83333333;stroke-miterlimit:4;stroke-dasharray:none;opacity:1"
   r="27.15"
   cx="252"
   cy="45.713001"
   id="circle299" />
	</g>
</g>
<g
   style="stroke-width:0.83333333;stroke-miterlimit:4;stroke-dasharray:none;opacity:1"
   transform="matrix(1.2,0,0,1.2,49.994925,50.000415)"
   id="g302">
	<g
   style="stroke-width:0.83333333;stroke-miterlimit:4;stroke-dasharray:none;opacity:1"
   transform="translate(-216.73,-178.06)"
   id="layer1">
		<path
   inkscape:connector-curvature="0"
   d="m 543.07,510.78 c 0.02,41.07 -33.27,74.37 -74.35,74.37 -41.07,0 -74.36,-33.3 -74.34,-74.37 -0.02,-41.07 33.27,-74.37 74.34,-74.37 41.08,0 74.37,33.3 74.35,74.37 z"
   style="fill:#ffffff;stroke:#010101;stroke-width:0.83333333;stroke-linecap:round;stroke-linejoin:round;stroke-miterlimit:4;stroke-dasharray:none;opacity:1"
   id="path2383" />
		
		<g
   style="stroke-width:0.83333333;stroke-miterlimit:4;stroke-dasharray:none;opacity:1"
   id="g307">
			<g
   style="fill:#ffffff;fill-opacity:1;stroke-width:0.83333333;stroke-miterlimit:4;stroke-dasharray:none;opacity:1"
   id="g309">
					<linearGradient
   x1="398.81"
   y1="283.48001"
   gradientTransform="matrix(1.7813,0,0,-1.7055,-203.83,1063.5)"
   x2="398.81"
   gradientUnits="userSpaceOnUse"
   y2="277.87"
   id="path3224_2_">
					<stop
   offset="0"
   style="stop-color:#fbb045;opacity:1"
   id="stop312" />
					<stop
   offset="1"
   style="stop-color:#c77829;opacity:1"
   id="stop314" />
				</linearGradient>
					<path
   inkscape:connector-curvature="0"
   d="m 516.24,578.98 c 0,8.63 -4.33,15.62 -9.67,15.62 -5.35,0 -9.67,-6.99 -9.67,-15.62 0,-8.63 4.32,-15.63 9.67,-15.63 5.34,0 9.67,7 9.67,15.63 z"
   style="fill:#ffffff;stroke:#010101;stroke-width:0.83333333;stroke-linecap:round;stroke-linejoin:round;fill-opacity:1;stroke-miterlimit:4;stroke-dasharray:none;opacity:1"
   id="path3224_3_" />
					<linearGradient
   x1="405.03"
   y1="283.48001"
   gradientTransform="matrix(1.7813,0,0,-1.7055,-238.33,1063.5)"
   x2="405.03"
   gradientUnits="userSpaceOnUse"
   y2="277.87"
   id="path3220_3_">
					<stop
   offset="0"
   style="stop-color:#fbb045;opacity:1"
   id="stop318" />
					<stop
   offset="1"
   style="stop-color:#c77829;opacity:1"
   id="stop320" />
				</linearGradient>
					<path
   inkscape:connector-curvature="0"
   d="m 492.82,578.98 c 0,8.63 -4.33,15.62 -9.67,15.62 -5.34,0 -9.67,-6.99 -9.67,-15.62 0,-8.63 4.33,-15.63 9.67,-15.63 5.34,0 9.67,7 9.67,15.63 z"
   style="fill:#ffffff;stroke:#010101;stroke-width:0.83333333;stroke-linecap:round;stroke-linejoin:round;fill-opacity:1;stroke-miterlimit:4;stroke-dasharray:none;opacity:1"
   id="path3220_2_" />
					<linearGradient
   x1="401.95999"
   y1="281.64001"
   gradientTransform="matrix(1.7813,0,0,-1.7055,-221.33,1063.5)"
   x2="401.95999"
   gradientUnits="userSpaceOnUse"
   y2="274.98001"
   id="path3222_2_">
					<stop
   offset="0"
   style="stop-color:#fbb045;opacity:1"
   id="stop324" />
					<stop
   offset="1"
   style="stop-color:#c77829;opacity:1"
   id="stop326" />
				</linearGradient>
					<path
   inkscape:connector-curvature="0"
   d="m 504.36,581.92 c 0,10.25 -4.33,18.56 -9.67,18.56 -5.34,0 -9.67,-8.31 -9.67,-18.56 0,-10.26 4.33,-18.57 9.67,-18.57 5.34,0 9.67,8.31 9.67,18.57 z"
   style="fill:#ffffff;stroke:#010101;stroke-width:0.83333333;stroke-linecap:round;stroke-linejoin:round;fill-opacity:1;stroke-miterlimit:4;stroke-dasharray:none;opacity:1"
   id="path3222_3_" />
			</g>
			<g
   style="fill:#ffffff;fill-opacity:1;stroke-width:0.83333333;stroke-miterlimit:4;stroke-dasharray:none;opacity:1"
   id="g329">
					<linearGradient
   x1="369.85001"
   y1="283.87"
   gradientTransform="matrix(1.7813,0,0,-1.7055,-203.83,1063.5)"
   x2="369.85001"
   gradientUnits="userSpaceOnUse"
   y2="278.26999"
   id="path3224_4_">
					<stop
   offset="0"
   style="stop-color:#fbb045;opacity:1"
   id="stop332" />
					<stop
   offset="1"
   style="stop-color:#c77829;opacity:1"
   id="stop334" />
				</linearGradient>
					<path
   inkscape:connector-curvature="0"
   d="m 464.65,578.3 c 0,8.63 -4.33,15.63 -9.67,15.63 -5.34,0 -9.67,-7 -9.67,-15.63 0,-8.63 4.33,-15.63 9.67,-15.63 5.34,0 9.67,7 9.67,15.63 z"
   style="fill:#ffffff;stroke:#010101;stroke-width:0.83333333;stroke-linecap:round;stroke-linejoin:round;fill-opacity:1;stroke-miterlimit:4;stroke-dasharray:none;opacity:1"
   id="path3224_1_" />
					<linearGradient
   x1="376.07001"
   y1="283.87"
   gradientTransform="matrix(1.7813,0,0,-1.7055,-238.33,1063.5)"
   x2="376.07001"
   gradientUnits="userSpaceOnUse"
   y2="278.26999"
   id="path3220_4_">
					<stop
   offset="0"
   style="stop-color:#fbb045;opacity:1"
   id="stop338" />
					<stop
   offset="1"
   style="stop-color:#c77829;opacity:1"
   id="stop340" />
				</linearGradient>
					<path
   inkscape:connector-curvature="0"
   d="m 441.24,578.3 c 0,8.63 -4.33,15.63 -9.68,15.63 -5.34,0 -9.67,-7 -9.67,-15.63 0,-8.63 4.33,-15.63 9.67,-15.63 5.34,0 9.68,7 9.68,15.63 z"
   style="fill:#ffffff;stroke:#010101;stroke-width:0.83333333;stroke-linecap:round;stroke-linejoin:round;fill-opacity:1;stroke-miterlimit:4;stroke-dasharray:none;opacity:1"
   id="path3220_1_" />
					<linearGradient
   x1="373"
   y1="282.04001"
   gradientTransform="matrix(1.7813,0,0,-1.7055,-221.33,1063.5)"
   x2="373"
   gradientUnits="userSpaceOnUse"
   y2="275.38"
   id="path3222_6_">
					<stop
   offset="0"
   style="stop-color:#fbb045;opacity:1"
   id="stop344" />
					<stop
   offset="1"
   style="stop-color:#c77829;opacity:1"
   id="stop346" />
				</linearGradient>
					<path
   inkscape:connector-curvature="0"
   d="m 452.78,581.24 c 0,10.25 -4.34,18.56 -9.68,18.56 -5.34,0 -9.67,-8.31 -9.67,-18.56 0,-10.26 4.33,-18.57 9.67,-18.57 5.34,0 9.68,8.31 9.68,18.57 z"
   style="fill:#ffffff;stroke:#010101;stroke-width:0.83333333;stroke-linecap:round;stroke-linejoin:round;fill-opacity:1;stroke-miterlimit:4;stroke-dasharray:none;opacity:1"
   id="path3222_1_" />
			</g>
			
		</g>
		<g
   style="stroke-width:0.83333333;stroke-miterlimit:4;stroke-dasharray:none;opacity:1"
   id="g350">
			<path
   inkscape:connector-curvature="0"
   d="m 521.82,462.84 c -32.66,11.74 9.61,63.9 -25.67,109.41 -6.52,8.41 39.28,1.42 55.47,-45.2 15.74,-45.33 0.77,-72.99 -29.8,-64.21 z"
   style="fill:#ffffff;stroke:#010101;stroke-width:0.83333333;stroke-miterlimit:4;stroke-dasharray:none;opacity:1"
   id="path3800_2_" />
			
		</g>
		<g
   style="stroke-width:0.83333333;stroke-miterlimit:4;stroke-dasharray:none;opacity:1"
   id="g354">
			<path
   inkscape:connector-curvature="0"
   d="m 415.63,462.84 c 32.66,11.74 -9.61,63.9 25.67,109.41 6.52,8.41 -39.28,1.42 -55.47,-45.2 -15.75,-45.33 -0.77,-72.99 29.8,-64.21 z"
   style="fill:#ffffff;stroke:#010101;stroke-width:0.83333333;stroke-miterlimit:4;stroke-dasharray:none;opacity:1"
   id="path3169_2_" />
			
		</g>
		<path
   inkscape:connector-curvature="0"
   d="m 433.07,460.99 c 16.63,-25.73 13.57,-87.38 13.57,-87.38 l 40.73,-2.22 c 0,0 -1.02,62.1 15.95,88.27"
   style="fill:#ffffff;stroke:#010101;stroke-width:0.83333333;stroke-linecap:round;stroke-linejoin:round;stroke-miterlimit:4;stroke-dasharray:none;opacity:1"
   id="path2399" />
		<ellipse
   cx="468.44"
   cy="462.70001"
   ry="11.539"
   rx="34.108002"
   style="fill:#ffffff;stroke-width:0.83333333;stroke-miterlimit:4;stroke-dasharray:none;opacity:1"
   id="ellipse359" />
		
		<path
   inkscape:connector-curvature="0"
   d="m 501.47,281.63 c -8.83,-6.22 -20.05,-9.87 -33.22,-9.87 -11.99,0 -22.21,2.85 -30.5,7.8 -9.49,6.56 -17.11,16.08 -21.78,27.4 -2.15,6.3 -3.27,13.17 -3.27,20.35 0,30.67 38.09,55.56 55.55,55.56 18.13,0 55.55,-24.89 55.55,-55.56 0,-7.4 -1.24,-14.47 -3.6,-20.93 -4.21,-9.93 -10.7,-18.45 -18.73,-24.75 z"
   style="fill:#ffffff;stroke:#010101;stroke-width:0.83333333;stroke-linecap:round;stroke-linejoin:round;stroke-miterlimit:4;stroke-dasharray:none;opacity:1"
   id="path362" />
		
	</g>
	<g
   style="stroke-width:0.83333333;stroke-miterlimit:4;stroke-dasharray:none;opacity:1"
   id="g365">
		<path
   inkscape:connector-curvature="0"
   d="m 233.96,109.67 c -12.52,0 -22.69,11.76 -22.69,26.25 0,14.48 10.17,26.24 22.69,26.24 7.36,0 13.89,-4.07 18.03,-10.36 4.15,6.3 10.69,10.36 18.05,10.36 12.52,0 22.68,-11.76 22.68,-26.24 0,-14.49 -10.16,-26.25 -22.68,-26.25 -7.36,0 -13.9,4.07 -18.05,10.36 -4.14,-6.29 -10.67,-10.36 -18.03,-10.36 z"
   style="stroke:#010101;stroke-width:0.83333333;stroke-linecap:round;stroke-miterlimit:4;stroke-dasharray:none;opacity:1"
   id="path2387_1_" />
		<g
   style="stroke-width:0.83333333;stroke-miterlimit:4;stroke-dasharray:none;opacity:1"
   id="g368">
			
				<linearGradient
   x1="434.69"
   y1="-128"
   gradientTransform="matrix(0.6415,0,0,-0.7781,-29.097,68.572)"
   x2="443.73999"
   gradientUnits="userSpaceOnUse"
   y2="-128"
   id="path2391_2_">
				<stop
   offset="0"
   style="stop-color:#fbb045;opacity:1"
   id="stop372" />
				<stop
   offset="1"
   style="stop-color:#c77829;opacity:1"
   id="stop374" />
			</linearGradient>
			<path
   inkscape:connector-curvature="0"
   d="m 251.41,152.59 c -6.35,0 -13.26,6.37 -12.98,10.39 0.27,4.02 11.33,20.78 13.81,20.78 2.49,0 12.16,-16.42 11.88,-21.11 -0.27,-4.69 -8.56,-10.39 -12.71,-10.06 z"
   style="fill:#ffffff;stroke:#010101;stroke-width:0.83333333;fill-opacity:1;stroke-miterlimit:4;stroke-dasharray:none;opacity:1"
   id="path2391_1_" />
		</g>
		<g
   style="stroke-width:0.83333333;stroke-miterlimit:4;stroke-dasharray:none;opacity:1"
   id="g377">
			<path
   inkscape:connector-curvature="0"
   d="m 236.6,113.51 c -10.69,0 -19.37,10.04 -19.37,22.41 0,12.36 8.68,22.4 19.37,22.4 6.28,0 11.85,-3.47 15.39,-8.84 3.54,5.38 9.13,8.84 15.41,8.84 10.69,0 19.37,-10.04 19.37,-22.4 0,-12.37 -8.68,-22.41 -19.37,-22.41 -6.28,0 -11.87,3.47 -15.41,8.84 -3.54,-5.37 -9.11,-8.84 -15.39,-8.84 z"
   style="fill:#ffffff;stroke:#010101;stroke-width:0.83333333;stroke-linecap:round;stroke-miterlimit:4;stroke-dasharray:none;opacity:1"
   id="path2387_4_" />
			<g
   style="stroke-width:0.83333333;stroke-miterlimit:4;stroke-dasharray:none;opacity:1"
   id="g380">
				<path
   inkscape:connector-curvature="0"
   d="m 250.77,137.43 c 0,3.1 -2.51,5.61 -5.61,5.61 -3.1,0 -5.61,-2.51 -5.61,-5.61 0,-3.09 2.51,-5.61 5.61,-5.61 3.1,0 5.61,2.51 5.61,5.61 z"
   style="fill:#010101;stroke:#010101;stroke-width:0.83333333;stroke-linecap:round;stroke-miterlimit:4;stroke-dasharray:none;opacity:1"
   id="path2411_1_" />
				<path
   inkscape:connector-curvature="0"
   d="m 244.59,135.47 c 0,0.8 -0.65,1.45 -1.45,1.45 -0.81,0 -1.46,-0.65 -1.46,-1.45 0,-0.81 0.65,-1.46 1.46,-1.46 0.8,0 1.45,0.65 1.45,1.46 z"
   style="fill:#ffffff;stroke-width:0.83333333;stroke-miterlimit:4;stroke-dasharray:none;opacity:1"
   id="path3341_1_" />
			</g>
			<g
   style="stroke-width:0.83333333;stroke-miterlimit:4;stroke-dasharray:none;opacity:1"
   id="g384">
				<path
   inkscape:connector-curvature="0"
   d="m 264.97,137.43 c 0,3.1 -2.51,5.61 -5.61,5.61 -3.1,0 -5.6,-2.51 -5.6,-5.61 0,-3.09 2.51,-5.61 5.6,-5.61 3.1,0 5.61,2.51 5.61,5.61 z"
   style="fill:#010101;stroke:#010101;stroke-width:0.83333333;stroke-linecap:round;stroke-miterlimit:4;stroke-dasharray:none;opacity:1"
   id="path3301_1_" />
				<path
   inkscape:connector-curvature="0"
   d="m 258.79,135.47 c 0,0.8 -0.65,1.45 -1.45,1.45 -0.81,0 -1.46,-0.65 -1.46,-1.45 0,-0.81 0.65,-1.46 1.46,-1.46 0.8,0 1.45,0.65 1.45,1.46 z"
   style="fill:#ffffff;stroke-width:0.83333333;stroke-miterlimit:4;stroke-dasharray:none;opacity:1"
   id="path3343_1_" />
			</g>
		</g>
	</g>
	<g
   style="stroke-width:0.83333333;stroke-miterlimit:4;stroke-dasharray:none;opacity:1"
   id="g388">
		<g
   style="stroke-width:0.83333333;stroke-miterlimit:4;stroke-dasharray:none;opacity:1"
   id="g390">
			<path
   inkscape:connector-curvature="0"
   d="m 271.72,106.45 c -4.05,-12.429 5.74,-30.949 5.74,-30.949 l -13.58,-2.292 c 0,0 1.31,20.02 -6.23,29.221"
   style="fill:#ffffff;stroke:#010101;stroke-width:0.83333333;stroke-linecap:round;stroke-miterlimit:4;stroke-dasharray:none;opacity:1"
   id="path3228_2_" />
			<path
   inkscape:connector-curvature="0"
   d="m 283.78,65.677 c 0.47,6.541 -4.46,12.215 -11,12.674 -6.54,0.46 -12.22,-4.469 -12.68,-11.01 v -0.009 c -0.46,-6.54 4.47,-12.214 11.01,-12.674 6.54,-0.459 12.21,4.47 12.67,11.009 z"
   style="fill:#ffffff;stroke:#010101;stroke-width:0.83333333;stroke-linecap:round;stroke-linejoin:round;stroke-miterlimit:4;stroke-dasharray:none;opacity:1"
   id="path3222_4_" />
		</g>
		<g
   style="stroke-width:0.83333333;stroke-miterlimit:4;stroke-dasharray:none;opacity:1"
   id="g394">
			<path
   inkscape:connector-curvature="0"
   d="m 245.52,104.12 c -8.06,-10.294 -5.19,-31.046 -5.19,-31.046 l -13.55,2.49 c 0,0 8.07,18.367 4.14,29.596"
   style="fill:#ffffff;stroke:#010101;stroke-width:0.83333333;stroke-linecap:round;stroke-miterlimit:4;stroke-dasharray:none;opacity:1"
   id="path3228_3_" />
			<path
   inkscape:connector-curvature="0"
   d="m 242.91,61.679 c 2.67,5.989 -0.03,13.007 -6.01,15.676 -5.99,2.669 -13.01,-0.022 -15.68,-6.011 v -0.007 c -2.67,-5.988 0.02,-13.007 6.01,-15.676 5.99,-2.668 13.01,0.023 15.67,6.011 0,0.001 0.01,0.005 0.01,0.007 z"
   style="fill:#ffffff;stroke:#010101;stroke-width:0.83333333;stroke-linecap:round;stroke-linejoin:round;stroke-miterlimit:4;stroke-dasharray:none;opacity:1"
   id="path3222_5_" />
		</g>
	</g>
</g>
<metadata
   id="metadata110"><rdf:RDF><cc:Work><dc:format>image/svg+xml</dc:format><dc:type
         rdf:resource="http://purl.org/dc/dcmitype/StillImage" /><cc:license
         rdf:resource="http://creativecommons.org/publicdomain/zero/1.0/" /><dc:publisher><cc:Agent
           rdf:about="http://openclipart.org/"><dc:title>Openclipart</dc:title></cc:Agent></dc:publisher><dc:title></dc:title><dc:date>2009-03-20T14:18:46</dc:date><dc:description>Cartoon Peacock remixed from Lemmling's Cartoon Giraffe (antennae)and Cartoon Owl.</dc:description><dc:source>https://openclipart.org/detail/22637/cartoon-peacock-by-studiofibonacci</dc:source><dc:creator><cc:Agent><dc:title>StudioFibonacci</dc:title></cc:Agent></dc:creator><dc:subject><rdf:Bag><rdf:li>bird</rdf:li><rdf:li>cartoon</rdf:li><rdf:li>color</rdf:li><rdf:li>peacock</rdf:li><rdf:li>remix</rdf:li></rdf:Bag></dc:subject></cc:Work><cc:License
       rdf:about="http://creativecommons.org/publicdomain/zero/1.0/"><cc:permits
         rdf:resource="http://creativecommons.org/ns#Reproduction" /><cc:permits
         rdf:resource="http://creativecommons.org/ns#Distribution" /><cc:permits
         rdf:resource="http://creativecommons.org/ns#DerivativeWorks" /></cc:License></rdf:RDF></metadata></svg>