<?xml version="1.0" encoding="utf-8"?>
<!-- Generator: Adobe Illustrator 22.0.1, SVG Export Plug-In . SVG Version: 6.00 Build 0)  -->
<svg version="1.1" xmlns="http://www.w3.org/2000/svg" xmlns:xlink="http://www.w3.org/1999/xlink" x="0px" y="0px"
	 viewBox="0 0 250 250" style="enable-background:new 0 0 250 250;" xml:space="preserve">
<style type="text/css">
	.st0{fill:#FFFFFF;}
	.st1{fill:#E48A92;}
	.st2{fill:#FDC578;}
	.st3{fill:#FFDDC9;}
	.st4{fill:#A1C575;}
</style>
<g id="Layer_6">
</g>
<g id="Layer_5">
</g>
<g id="Layer_4">
</g>
<g id="Layer_3">
</g>
<g id="Layer_2">
</g>
<g id="Layer_1">
	<g>
		<path class="st0" d="M126.9,151.8c3.4,1.8,11.4-5.7,14.3-9.3c2.9-3.6,8.5-6.5,13.1-3.6c4.6,2.9,8.5,13.2-3.2,20.2
			c-8,4.8-19,3.5-19,3.5L126.9,151.8z"/>
		<path d="M135.7,164.4c-2.2,0-3.6-0.2-3.8-0.2c-0.6-0.1-1.1-0.4-1.3-0.9l-5.3-10.8c-0.3-0.6-0.2-1.4,0.3-1.9
			c0.5-0.5,1.3-0.6,1.9-0.3c1.8,0.9,8.4-4.2,12.2-8.8c3.7-4.5,10.1-7.3,15.3-4c2.7,1.7,5.4,5.5,5.3,10.3c0,3.5-1.5,8.5-8.5,12.7
			C146.5,163.8,139.8,164.4,135.7,164.4z M133.3,161c2.7,0.2,10.9,0.4,17-3.3c4.5-2.7,6.9-6.1,6.9-9.9c0-3.3-1.9-6.3-3.7-7.5
			c-4-2.5-8.7,0.6-11,3.3c-0.1,0.1-7.2,8.5-12.9,9.9L133.3,161z"/>
		<path class="st0" d="M80.9,180.2c-3.1-4.1-14.5-5.6-11.7,5.9c1.1,4.7,7.9,9.9,12.6,8C86.4,192.3,80.9,180.2,80.9,180.2z"/>
		<path d="M79.7,196.2c-1.6,0-3.3-0.5-5-1.3c-3.5-1.8-6.4-5.2-7.2-8.3c-1.7-6.8,1.3-9.3,3.2-10.3c3.9-1.9,9.3,0,11.5,2.9
			c0.1,0.1,0.1,0.2,0.2,0.3c0.4,0.9,4.2,9.4,2.4,13.7c-0.5,1.2-1.3,2-2.5,2.5C81.5,196,80.6,196.2,79.7,196.2z M74.2,178.8
			c-0.7,0-1.4,0.1-2,0.4c-2.2,1-2,4.1-1.4,6.4c0.5,2.2,2.8,4.8,5.5,6.2c1.8,1,3.6,1.2,4.9,0.7c0.2-0.1,0.4-0.2,0.6-0.6
			c0.9-2.1-0.8-7.6-2.3-10.9C78.4,179.8,76.2,178.8,74.2,178.8z"/>
		<path class="st0" d="M119.4,149.6c9.4,2.4,20,27.8,10.8,44.8c-4.4,5.6-12.2,7.4-31.3,5.4c-18.9-1.9-21.1-13.3-21.4-18.3
			c-0.5-9.3,4-20.8,9.5-25.2C97.2,148.1,119.4,149.6,119.4,149.6z"/>
		<path d="M111.4,202.2c-3.6,0-7.9-0.3-12.7-0.8c-19.1-1.9-22.5-13.3-22.9-19.9C75.3,172,80,159.8,86,155
			c10.6-8.5,32.6-7.2,33.5-7.1c0.1,0,0.2,0,0.3,0c4.2,1.1,8.6,5.9,11.7,12.9c4.1,9.2,6.2,23.1,0.2,34.3c0,0.1-0.1,0.2-0.2,0.2
			C127.7,200.1,121.9,202.2,111.4,202.2z M115.4,151.2c-6.6,0-20.3,0.7-27.4,6.5c-5.2,4.1-9.3,15.2-8.9,23.8
			c0.3,6.8,4.1,15.1,19.9,16.7c19.9,2,26.2-0.3,29.7-4.7c5.4-10.2,3.2-23.1-0.3-31.2c-2.6-5.9-6.1-10.1-9.3-11
			C118.7,151.2,117.3,151.2,115.4,151.2z"/>
		<path class="st1" d="M83.1,160.9c-3.5,5.5-6,13.7-5.6,20.6c0.3,5,2.5,16.4,21.4,18.3c19.1,1.9,26.9,0.1,31.3-5.4
			c4.4-8.2,4.3-18.4,1.9-27C131.5,167.3,109.3,175.1,83.1,160.9z"/>
		<path d="M111.4,202.2c-3.6,0-7.9-0.3-12.7-0.8c-19.1-1.9-22.5-13.3-22.9-19.9c-0.3-7,2-15.5,5.9-21.6c0.5-0.7,1.4-1,2.2-0.6
			c20.2,11,38.1,8.8,47,6.5c0.7-0.2,0.9-0.2,1.3-0.2c0.7,0.1,1.2,0.6,1.4,1.2c2.9,10.3,2.2,20.5-2,28.2c0,0.1-0.1,0.2-0.2,0.2
			C127.7,200.1,121.9,202.2,111.4,202.2z M83.7,163.1c-3,5.4-4.9,12.6-4.6,18.3c0.3,6.8,4.1,15.1,19.9,16.7
			c19.9,2,26.2-0.3,29.7-4.7c3.5-6.5,4.2-15.2,2.1-24C121.3,171.7,103.7,173.4,83.7,163.1z"/>
		<path class="st0" d="M77.5,204.8c-1.7-1.7,0.4-13,12.8-13.5c10.5-0.4,15.4,8.2,13.7,13.1C102.6,208.2,82.4,209.7,77.5,204.8z"/>
		<path d="M90.2,209.6c-5.6,0-11.3-1-13.9-3.6l0,0c-1.5-1.4-1.1-4.6-0.2-7.1c1-2.6,4.5-8.8,14-9.3c5.5-0.2,10.4,1.9,13.3,5.8
			c2.2,3,3,6.6,2,9.5c-0.6,1.6-2.6,2.8-6.1,3.6C96.9,209.2,93.6,209.6,90.2,209.6z M78.7,203.7c2.3,2.1,9.5,3.1,16.6,2.3
			c4.7-0.6,6.8-1.6,7.1-2.1c0.6-1.8,0-4.3-1.5-6.4c-2.3-3-6.1-4.7-10.5-4.5c-5.9,0.2-8.9,3.1-10.3,5.5
			C78.6,200.9,78.5,203.1,78.7,203.7z M78.7,203.6C78.7,203.6,78.7,203.6,78.7,203.6C78.7,203.6,78.7,203.6,78.7,203.6L78.7,203.6z"
			/>
		<path class="st0" d="M116.6,203.3c-2.6-3.5,7-12.9,20-13.4c13-0.5,20.7,5.9,16.7,11.9C150.4,206.3,119.2,206.8,116.6,203.3z"/>
		<path d="M131.4,207.3c-5.5,0-14.3-0.4-16.1-3v0c-0.6-0.8-1.3-2.4-0.1-5c2.4-5,11.3-10.7,21.4-11.1c8.8-0.4,16.1,2.3,18.6,6.9
			c1.4,2.4,1.2,5.1-0.4,7.6c-2.5,3.7-15.4,4.4-20.8,4.5C133.2,207.3,132.4,207.3,131.4,207.3z M117.9,202.3c1.5,1.3,13.3,2.3,24.6,1
			c8.3-1,9.4-2.5,9.4-2.5c0.9-1.4,1-2.8,0.3-4.1c-1.6-2.8-7-5.5-15.6-5.2c-9.4,0.4-16.8,5.6-18.5,9.2
			C117.9,201.5,117.8,202,117.9,202.3z"/>
		<path class="st1" d="M111.8,151.1c9.7,8.8,7.3,19.4,8.9,24.6c2.7,8.9,13.6,7.3,15.4,1.4c1.8-5.9-3.1-18-10.5-24.2
			C119.8,147.9,111.8,151.1,111.8,151.1z"/>
		<path d="M128.7,183.6C128.7,183.6,128.7,183.6,128.7,183.6c-3.6,0-7.9-2-9.6-7.4c-0.5-1.5-0.6-3.3-0.8-5.4
			c-0.5-5.5-1-12.4-7.6-18.4c-0.4-0.4-0.6-1-0.5-1.5c0.1-0.6,0.5-1,1-1.3c0.4-0.1,9-3.5,15.6,2c7.6,6.4,13.1,19.3,11,26
			C136.7,181.1,132.9,183.6,128.7,183.6z M115,152c5.6,6.4,6.2,13.3,6.6,18.5c0.2,1.9,0.3,3.5,0.7,4.7c1.4,4.6,4.9,5.1,6.4,5.1
			c0,0,0,0,0,0c2.7,0,5.2-1.5,5.8-3.7c1.5-4.9-2.9-16.5-9.9-22.4C121.5,151.5,117.6,151.6,115,152z"/>
		<path class="st2" d="M133.5,174.9c-0.1,2.5-2.2,4.5-4.7,4.4c-2.5-0.1-4.5-2.2-4.4-4.7c0.1-2.5,2.2-4.5,4.7-4.4
			C131.6,170.3,133.6,172.4,133.5,174.9z"/>
		<path d="M128.9,180.6c-0.1,0-0.1,0-0.2,0c-1.5,0-3-0.7-4.1-1.8c-1.1-1.1-1.6-2.6-1.6-4.2c0-1.5,0.7-3,1.8-4.1
			c1.1-1.1,2.6-1.6,4.2-1.6c1.5,0,3,0.7,4.1,1.8c1.1,1.1,1.6,2.6,1.6,4.2C134.6,178.1,132.1,180.6,128.9,180.6z M128.9,171.5
			c-1.8,0-3.3,1.4-3.3,3.2c0,0.9,0.3,1.7,0.9,2.4c0.6,0.6,1.4,1,2.3,1c0.9,0,1.7-0.3,2.4-0.9c0.6-0.6,1-1.4,1-2.3
			c0-0.9-0.3-1.7-0.9-2.4c-0.6-0.6-1.4-1-2.3-1C129,171.5,129,171.5,128.9,171.5z"/>
		<path class="st0" d="M81.6,122c-0.2-5.1,3.8-21.9,26-23c-0.7-7.1-10.5-38.3,8.6-54.3c11-10.2,22.3-5.3,25.5-2.8
			c3.4,2.7,13.1,14.3,0.9,27c-12.9,13.3-24.7,18.1-24,30.1c3,0.3,8.3,1.4,16.3,6.5c2.3-5.2,16.7-24.3,36.7-18.4
			c20.1,5.9,28.7,30.9,22.3,40.2c-6.4,9.3-18.7,6.8-23.7-1.4c-5-8.2-11.5-13.8-19.2-14.8c-7.6-0.9-10.9,1.3-10.9,1.3
			s10.2,11.8,6.9,25c-2,8.3-7,15.5-20.8,17.7C114.7,157,82.8,151.9,81.6,122L81.6,122z"/>
		<path d="M121.5,157.1c-8.2,0-20.4-2.4-29.5-9.8c-7.6-6.2-11.7-14.7-12.2-25.3c0,0,0,0,0,0c-0.2-5.9,4.1-22.6,25.8-24.6
			c-0.1-0.8-0.3-1.7-0.5-2.7c-2.1-11.1-7.1-37.1,10-51.4c11.7-10.9,24.2-5.5,27.6-2.8c2.6,2,7,7.3,7.5,14.1
			c0.4,5.4-1.8,10.5-6.5,15.3c-3.9,4-7.7,7.3-11,10.1c-7.3,6.3-12.3,10.6-12.5,17.3c4.3,0.7,9,2.6,14,5.6c3.9-6.6,18-23.5,37.8-17.7
			c10.7,3.2,19.5,11.9,23.6,23.4c2.8,7.7,2.6,15-0.4,19.4c-3,4.4-7.6,6.8-12.7,6.7c-5.5-0.2-10.8-3.3-13.8-8.1
			c-3.5-5.8-9.5-13-17.9-14c-3.9-0.5-6.5-0.1-8,0.4c2.8,3.9,8.6,13.8,5.9,24.7c-2.7,10.9-9.7,16.9-22.1,19
			C125.2,157,123.5,157.1,121.5,157.1z M83.2,121.9c0.4,9.5,4.1,17.2,10.9,22.8c10.4,8.5,25.1,9.9,31.9,8.7
			c14.2-2.3,17.8-10,19.4-16.5c3-12.2-6.5-23.4-6.6-23.5c-0.3-0.4-0.5-0.8-0.4-1.3c0.1-0.5,0.3-0.9,0.7-1.2c0.4-0.3,4-2.6,12.1-1.6
			c7.7,1,14.8,6.3,20.4,15.6c2.4,3.9,6.6,6.4,11,6.5c4,0.1,7.5-1.7,9.9-5.2c2.4-3.4,2.4-9.7,0-16.3c-2.9-8.1-10-18-21.4-21.3
			c-19.4-5.7-33,13.7-34.7,17.5c-0.2,0.4-0.6,0.8-1,0.9c-0.5,0.1-1,0.1-1.4-0.2c-5.8-3.7-11-5.8-15.6-6.2c-0.8-0.1-1.5-0.8-1.5-1.6
			c-0.5-9.2,5.8-14.6,13.7-21.4c3.3-2.8,7-6,10.8-9.9c3.9-4.1,5.8-8.4,5.5-12.8c-0.4-5.7-4.2-10.2-6.2-11.7
			c-2.9-2.3-13.3-6.6-23.3,2.7c-15.7,13.1-11.1,36.8-8.9,48.2c0.4,2,0.7,3.6,0.8,4.7c0,0.5-0.1,0.9-0.4,1.3
			c-0.3,0.3-0.7,0.6-1.2,0.6C87.1,101.7,83,116.7,83.2,121.9z"/>
		<path d="M122.9,132.3c-0.3,1.2-2.8,1.6-5.5,1c-2.8-0.7-4.8-2.2-4.5-3.4c0.3-1.2,2.8-1.6,5.5-1
			C121.2,129.6,123.2,131.1,122.9,132.3z"/>
		<path class="st3" d="M115.2,83.8c-0.3,0.9-1.6,0.8-1.8-0.1c-3.8-20.7,11.3-39.8,20.3-33.1c5.8,4.3-7.7,11.8-12.7,20
			C118,75.4,116.2,80.4,115.2,83.8z"/>
		<path class="st3" d="M148.5,105c-1.1,0-1.3-1.3-0.4-2c4.2-3.7,12.2-6.7,20.2-4.6c12.4,3.3,15.9,17.7,13.5,20.7
			c-2.4,3.1-7.4-2.5-11.7-6.7C164.2,106.6,156.3,105.1,148.5,105z"/>
		<path d="M122.7,139.6c-2,2-11.4,3.8-16.1-5c-0.2-0.3-0.6-0.2-0.6,0.2c0.1,1.9,0.6,5.4,2.9,8.1c2.5,2.9,8.2,3.4,9.5-0.5
			c2.1-0.4,3.6-1.6,4.5-2.6C123,139.7,122.8,139.5,122.7,139.6z"/>
		<g>
			<path d="M112.7,120.5c0.1,2.1-1.5,3.8-3.6,3.9s-3.8-1.5-3.9-3.6c-0.1-2.1,1.5-3.8,3.6-3.9C110.9,116.9,112.6,118.5,112.7,120.5z"
				/>
		</g>
		<g>
			<path class="st0" d="M110.1,118.9c0,0.6-0.4,1.1-1,1.1c-0.6,0-1.1-0.4-1.1-1c0-0.6,0.4-1.1,1-1.1
				C109.6,117.9,110.1,118.4,110.1,118.9z"/>
		</g>
		<g>
			<path d="M134.4,129.1c0.1,2-1.5,3.8-3.6,3.9c-2,0.1-3.8-1.5-3.9-3.6c-0.1-2,1.5-3.8,3.6-3.9C132.6,125.5,134.3,127.1,134.4,129.1
				z"/>
		</g>
		<g>
			<path class="st0" d="M131.8,127.5c0,0.6-0.4,1.1-1,1.1c-0.6,0-1.1-0.4-1.1-1c0-0.6,0.4-1.1,1-1.1
				C131.3,126.5,131.8,126.9,131.8,127.5z"/>
		</g>
		<path class="st3" d="M102,130c-1,1-3.2,0.6-4.9-1.1c-1.8-1.6-2.4-3.8-1.5-4.8c1-1,3.2-0.6,4.9,1.1C102.2,126.8,102.9,129,102,130z
			"/>
		<path class="st3" d="M134.3,141.7c-0.2,1.4-2.3,2.2-4.7,1.8c-2.4-0.4-4.1-1.8-3.9-3.2c0.2-1.4,2.3-2.2,4.7-1.8
			C132.8,138.9,134.5,140.4,134.3,141.7z"/>
		<polygon class="st2" points="107.3,178.1 105.2,188.9 95.9,182.9 91.4,192.4 113.7,211.5 117.2,182.3 116.8,181.4 		"/>
		<path class="st2" d="M80.5,89c-1.5-3.8-5.8-5.7-9.6-4.2l-12.1,4.8c-3.8,1.5-5.7,5.8-4.2,9.6l1.6,4l25.8-10.5L80.5,89z"/>
		<path d="M56.1,104.8c-0.2,0-0.4,0-0.7-0.1c-0.4-0.2-0.7-0.5-0.9-0.9l-1.6-4c-0.9-2.3-0.8-4.7,0.1-7c1-2.2,2.8-3.9,5-4.8l12.1-4.8
			c2.3-0.9,4.7-0.8,7,0.1c2.2,1,3.9,2.8,4.8,5l1.4,3.7c0.3,0.9-0.1,1.8-0.9,2.2l-25.8,10.5C56.6,104.8,56.3,104.8,56.1,104.8z
			 M73.6,85.9c-0.7,0-1.4,0.1-2.1,0.4l-12.1,4.8c-1.4,0.6-2.6,1.6-3.2,3.1c-0.6,1.4-0.6,3-0.1,4.4l1,2.4l22.7-9.3l-0.8-2.1
			c0,0,0,0,0,0C78.1,87.3,75.9,85.9,73.6,85.9z"/>
		<polygon class="st4" points="81.9,92.6 56.1,103.2 91.1,192.2 91.4,192.4 95.9,182.9 105.2,188.9 107.3,178.1 116.8,181.4 		"/>
		<path d="M91.4,194.1c-0.4,0-0.8-0.1-1.1-0.4l-0.3-0.2c-0.2-0.2-0.4-0.4-0.5-0.7l-35-89.1c-0.3-0.9,0.1-1.8,0.9-2.2l25.8-10.5
			c0.4-0.2,0.9-0.2,1.3,0c0.4,0.2,0.7,0.5,0.9,0.9l34.9,88.7c0.2,0.6,0.1,1.3-0.4,1.8c-0.5,0.5-1.1,0.6-1.8,0.4l-7.7-2.7l-1.8,8.9
			c-0.1,0.5-0.5,1-1,1.2c-0.5,0.2-1.1,0.2-1.6-0.1l-7.7-5l-3.7,7.9c-0.2,0.5-0.7,0.8-1.2,0.9C91.6,194.1,91.5,194.1,91.4,194.1z
			 M58.3,104.1l33.1,84.3l2.9-6.3c0.2-0.4,0.6-0.8,1.1-0.9c0.5-0.1,1-0.1,1.4,0.2l7.2,4.7l1.7-8.4c0.1-0.5,0.4-0.9,0.8-1.1
			c0.4-0.2,0.9-0.3,1.4-0.1l6,2.1L81,94.8L58.3,104.1z"/>
		<path d="M95.9,184.5c-0.7,0-1.3-0.4-1.6-1.1l-32.9-82.4c-0.3-0.9,0.1-1.8,0.9-2.2c0.9-0.3,1.8,0.1,2.2,0.9l32.9,82.4
			c0.3,0.9-0.1,1.8-0.9,2.2C96.3,184.5,96.1,184.5,95.9,184.5z"/>
		<path d="M107.5,179.9c-0.7,0-1.3-0.4-1.6-1.1L73,96.3c-0.3-0.9,0.1-1.8,0.9-2.2c0.9-0.3,1.8,0.1,2.2,0.9l33,82.6
			c0.3,0.9-0.1,1.8-0.9,2.2C108,179.9,107.7,179.9,107.5,179.9z"/>
		<path d="M118.7,181.7l-0.4-0.9c-0.2-0.5-0.5-0.8-1-1l-9.5-3.3c-0.5-0.2-1-0.1-1.4,0.1c-0.4,0.2-0.7,0.7-0.8,1.1l-1.7,8.4l-7.2-4.7
			c-0.4-0.3-0.9-0.3-1.4-0.2c-0.5,0.1-0.8,0.5-1.1,0.9l-4.5,9.6c-0.3,0.7-0.1,1.5,0.4,2l22.3,19.1c0.3,0.3,0.7,0.4,1.1,0.4
			c0.2,0,0.4,0,0.6-0.1c0.6-0.2,1-0.7,1.1-1.4l3.5-29.2C118.9,182.2,118.8,181.9,118.7,181.7z M96.6,185.3l7.7,5
			c0.5,0.3,1,0.4,1.6,0.1c0.5-0.2,0.9-0.7,1-1.2l1.8-8.9l6.8,2.4l-2.3,19.1l-6,2L93.4,192L96.6,185.3z"/>
		<path class="st0" d="M68.8,158.8c-0.1-4.5,3.9-8.4,7.8-10.3c3.9-2,11.8-3.1,12.2,5.1c0.3,6.4-3.8,11.1-10,12.3
			C71,167.3,68.8,162.3,68.8,158.8z"/>
		<path d="M76.2,167.8c-2.4,0-4.4-0.7-6-1.9c-2.8-2.3-3.1-5.7-3.1-7l0,0c-0.1-5.5,4.6-9.8,8.7-11.8c3.1-1.6,7.7-2.4,10.9-0.5
			c1.6,0.9,3.5,2.9,3.7,7c0.3,7.1-4.2,12.7-11.4,14C78,167.7,77.1,167.8,76.2,167.8z M82.2,148.8c-1.7,0-3.5,0.5-4.9,1.2
			c-3.4,1.7-6.9,5.2-6.8,8.8l0,0c0,0.7,0.2,3,1.9,4.5c1.4,1.1,3.4,1.4,6.1,1c5.5-1,8.9-5.1,8.6-10.5c-0.1-2.2-0.8-3.6-2-4.3
			C84.2,148.9,83.3,148.8,82.2,148.8z"/>
	</g>
</g>
</svg>
