<?xml version="1.0" encoding="utf-8"?>
<!-- Generator: Adobe Illustrator 22.0.1, SVG Export Plug-In . SVG Version: 6.00 Build 0)  -->
<svg version="1.1" xmlns="http://www.w3.org/2000/svg" xmlns:xlink="http://www.w3.org/1999/xlink" x="0px" y="0px"
	 viewBox="0 0 250 250" style="enable-background:new 0 0 250 250;" xml:space="preserve">
<g id="Layer_6">
</g>
<g id="Layer_5">
	<g>
		<g>
			<path d="M87.5,216.6c0.3,0.1,0.4,0.3,0.3,0.8c-0.1,0.5-0.4,1.2-0.7,2c-0.5,1-2.4,2.3-5.6,1.7c-3.2-0.6-6.3-2.9-5.1-8.6
				c0.6-3.1,2.9-9.4,9.7-8.1c3.7,0.7,5,2.9,4.5,5.2c-0.4,2-1.8,2.6-3.9,2.2c-0.7-0.1-0.7-0.2-0.7-0.6c0.4-2.1,0.5-3.1-0.8-3.3
				c-2.9-0.6-4.1,3.4-4.4,5.2c-0.6,2.9,0.2,4.1,2.1,4.5C85.5,218,86.6,216.4,87.5,216.6z"/>
			<path d="M90.2,217.4c0.4-3.8,2.4-7.3,7.8-6.8c3.9,0.4,5.3,2.6,5,6.1c-0.3,3-1.9,7.8-7.8,7.2C90.9,223.4,89.9,220.6,90.2,217.4z
				 M94.2,217.5c-0.2,2.1,0.4,3.1,1.6,3.2c2.2,0.2,3-2.9,3.2-4.4c0.2-1.5-0.3-2.6-1.7-2.7C94.9,213.4,94.4,216.2,94.2,217.5z"/>
			<path d="M104.9,221c0-1.2,0.3-3.6,0.7-13.7c0-0.4,0-0.5,0.1-0.6c0.1-0.1,0.2-0.1,0.4-0.1l0.9,0c1.9,0,2.5,0.9,2.5,2
				c0,1.9-0.6,9.5-0.6,11.3c0,1.6,1.4,1.2,1.5,1.5c0,1.4-0.5,2.9-2.7,2.9C105.8,224.4,105,223.4,104.9,221z"/>
			<path d="M111.9,218.4c-0.5-3.8,0.8-7.7,6.1-8.3c3.9-0.5,5.7,1.4,6.2,4.8c0.4,3-0.2,8-6.1,8.7
				C113.8,224.1,112.3,221.6,111.9,218.4z M115.9,217.6c0.2,2.1,1,2.9,2.3,2.8c2.2-0.3,2.3-3.5,2.1-4.9c-0.2-1.5-0.8-2.4-2.2-2.3
				C115.6,213.5,115.7,216.3,115.9,217.6z"/>
			<path d="M132.4,213.5c-0.1-0.4-0.1-0.7-0.1-1.1c-0.1-0.7-0.3-1.1-0.9-1.1c-0.9,0.1-1.3,1.4-1.1,3.7c0.2,2,0.5,5.5,0.5,6
				c0,0.3-0.2,0.5-0.4,0.6l-0.8,0.1c-1.9,0.3-2.5-0.4-2.7-1.8c-0.2-1-0.3-3.1-0.9-10c0-0.4,0.1-0.7,0.4-0.8l0.9-0.2
				c1.8-0.3,2.4,0.4,2.7,1.4c0.5-1.6,1.8-2.4,2.8-2.5c1.2-0.2,2.7,0.4,3,2.3c0.3,1.7-0.5,3.3-2.2,3.5
				C133.2,213.7,132.5,213.7,132.4,213.5z"/>
			<path d="M139.4,201.8c1.3-0.2,2,0.3,2.1,1.2c0.2,1.1-0.6,2.1-2.3,2.4c-1.2,0.2-2-0.2-2.1-1.2C137,202.9,137.9,202,139.4,201.8z
				 M141,219.5c-1.9,0.3-2.5-0.5-2.7-1.9c-0.1-1-0.2-3.1-0.7-10.1c0-0.4,0-0.5,0-0.6c0.1-0.1,0.2-0.1,0.4-0.1l0.9-0.1
				c1.9-0.3,2.5,0.5,2.7,1.8c0.1,0.9,0.3,3.6,0.7,10.4c0,0.4-0.1,0.5-0.5,0.5L141,219.5z"/>
			<path d="M153,209.7c-0.1-0.8-0.5-1.5-1.6-1.4c-2.2,0.3-2.6,2.1-2.2,9.9c0,0.4-0.1,0.5-0.5,0.5l-0.8,0.1c-1.9,0.2-2.5-0.5-2.7-1.9
				c-0.1-1-0.2-3.1-0.5-10.1c0-0.4,0-0.5,0-0.6c0.1-0.1,0.2-0.1,0.4-0.1l0.9-0.1c1.9-0.2,2.5,0.7,2.7,1.7c0.8-1.8,1.9-2.5,3.7-2.7
				c2.6-0.3,4,0.6,4.4,3.8c0.2,1.5,0.2,7.4,0.3,8.2c0.1,0.7,0,0.7-0.5,0.8l-0.8,0.1c-2,0.2-2.5-0.5-2.7-1.8
				C153.1,214.8,153.2,211.2,153,209.7z"/>
			<path d="M163.6,216.9c-2.6-0.1-4.3-1.8-4.2-5.5c0.1-3,1.3-7.1,5.8-7c1.9,0.1,2.7,0.9,3,2c0,0,0.1-1.3,0.1-1.5
				c0-0.2,0.1-0.2,0.3-0.2l1.1,0c1.6,0.1,2.3,0.6,2.3,2.5c0,0.8-0.6,7.7-1.4,10.9c-0.5,2.1-2.1,4.1-6.5,4c-3.3-0.1-4.9-1.6-4.9-2.9
				c0-1.2,1.2-1.7,2.1-1.7c1.1,0,0.6,1.6,2.9,1.6c2.1,0.1,2.9-1.5,3-4.3C166.4,216.3,165.3,216.9,163.6,216.9z M167.9,210.2
				c0.1-1.9-0.5-2.6-1.7-2.7c-2.3-0.1-2.6,2.9-2.6,3.8c-0.1,1.6,0.4,2.4,1.7,2.4C167.6,213.8,167.9,211.4,167.9,210.2z"/>
		</g>
		<g>
			<path d="M206.6,97.7c-4.1-11.5-12.9-20.3-23.6-23.4C163,68.4,149,85.3,145.1,91.9c-5.1-3-9.7-4.9-14-5.6
				c0.3-6.8,5.2-11,12.5-17.3c3.3-2.9,7.1-6.1,11-10.1c4.6-4.8,6.8-9.9,6.5-15.3c-0.4-6.8-4.9-12.1-7.5-14.1
				c-3.4-2.7-15.9-8-27.6,2.8c-17.1,14.3-12.1,40.3-10,51.4c0.2,1,0.4,1.9,0.5,2.7c-7.9,0.7-13.4,3.4-17.3,6.8l-4.8-12.2
				c0,0,0,0,0,0c0,0,0,0,0,0l-1.4-3.7c-0.9-2.3-2.6-4-4.8-5c-2.2-1-4.7-1-7-0.1L69,76.8c-2.3,0.9-4,2.6-5,4.8c-1,2.2-1,4.7-0.1,7
				l1.6,4c0,0,0,0,0,0l17.8,45.2c-3,2.3-5.7,5.7-5.7,9.8c0,1.3,0.3,4.6,3,6.8c1.5,1.3,3.5,1.9,5.8,1.9c0.9,0,1.8-0.1,2.8-0.3
				c0,0,0,0,0.1,0c-1,2.8-1.8,5.7-2.2,8.5c-1.8-0.3-3.7-0.2-5.4,0.5c-1.9,0.9-4.8,3.5-3.2,10.3c0.8,3.2,3.6,6.5,7.2,8.4
				c1,0.5,2,0.9,3,1.1c-0.8,1.1-1.3,2.2-1.6,2.9c-1,2.5-1.3,5.6,0.2,7.1c2.6,2.6,8.4,3.6,13.9,3.6c3.4,0,6.7-0.4,9.2-1
				c2.6-0.6,4.4-1.4,5.4-2.5l7.8,6.6c0.3,0.3,0.7,0.4,1.1,0.4c0.2,0,0.4,0,0.6-0.1c0.6-0.2,1-0.7,1.1-1.4l0.8-6.6
				c2.9,1.9,10.3,2.2,15.3,2.2c0.9,0,1.8,0,2.5,0c5.4-0.1,18.3-0.8,20.8-4.5c1.6-2.4,1.8-5.1,0.4-7.6c-2.6-4.6-9.9-7.2-18.6-6.9
				c-0.8,0-1.6,0.1-2.4,0.2c0.6-2.4,1-4.8,1.1-7.2c1.2-1,2-2.2,2.5-3.7c1-3.4,0.2-8.3-1.9-13.1c4.1,0,10.7-0.6,16.1-3.9
				c7-4.2,8.5-9.3,8.5-12.7c0-4.8-2.6-8.7-5.3-10.3c-1.9-1.2-4.1-1.6-6.1-1.4c1.8-10.2-3.6-19.3-6.2-23c1.6-0.4,4.2-0.8,8-0.4
				c8.5,1,14.4,8.2,17.9,14c2.9,4.9,8.2,8,13.8,8.1c5.1,0.1,9.7-2.2,12.7-6.7C209.2,112.6,209.3,105.4,206.6,97.7z M91.9,83.7
				l32.9,83.8l-5.2-1.8l-32-80.2L91.9,83.7z M119.2,144.1c2,0.5,4,1,5.9,1.3c2.7,4,3.4,8.1,3.8,11.8c-1.5,0.1-3,0.1-4.6,0
				L119.2,144.1z M100.2,142.3c-0.2-4-2-5.9-3.6-6.8c-0.9-0.5-1.9-0.8-2.9-0.9L76,90.2l8.5-3.5l32,80.2l-1.6,8.1l-6.8-4.4l-8.9-22.3
				C99.9,146.5,100.3,144.5,100.2,142.3z M67,87.4c-0.6-1.4-0.5-3,0.1-4.4c0.6-1.4,1.7-2.5,3.2-3.1l12.1-4.8
				c0.7-0.3,1.4-0.4,2.1-0.4c0.8,0,1.6,0.2,2.3,0.5c1.4,0.6,2.5,1.7,3.1,3.2c0,0,0,0,0,0l0.8,2.1l-5.9,2.4c0,0,0,0,0,0c0,0,0,0,0,0
				L77.3,86l-9.4,3.8L67,87.4z M69.2,92.9l3.7-1.5l17.3,43.3c-1.5,0.3-2.9,0.7-4.1,1.4c-0.4,0.2-0.9,0.5-1.3,0.7
				c0.4-0.3,0.8-0.6,1.3-0.8L69.2,92.9z M88.6,153.3c-2.7,0.5-4.9,0.1-6.3-1c-1.2-1-2-2.8-2-4.7c-0.1-3.8,3.5-7.3,7-9.1
				c1.5-0.7,3.4-1.3,5.1-1.3c1.1,0,2.1,0.2,2.9,0.7c1.4,0.8,2.1,2.3,2.2,4.6C97.7,148,94.2,152.3,88.6,153.3z M97,151.7l8,19.9
				l-2.6,5.6l-9-22.7C94.7,153.8,96,152.9,97,151.7z M105.6,186.3c-12.2-2.6-15.3-10-15.6-16.1c-0.2-3.4,0.4-7.4,1.6-11.1l8.9,22.6
				c0.1,0.3,0.3,0.5,0.5,0.7l0.3,0.2c0,0,0,0,0,0c0,0,0,0,0,0L105.6,186.3z M87.1,180.7c-2.7-1.4-4.9-3.9-5.5-6.2
				c-0.6-2.4-0.8-5.4,1.4-6.4c0.6-0.3,1.3-0.4,2-0.4c0.5,0,1.1,0.1,1.7,0.2c0,0.1,0,0.1,0,0.2c0,0.1,0,0.2,0,0.2c0,0.7,0,1.4,0,2.1
				c0.2,3.2,1,7.4,4,11.2C89.6,181.7,88.4,181.4,87.1,180.7z M106.2,194.8c-7.1,0.8-14.3-0.2-16.6-2.3c-0.2-0.6-0.1-2.8,1.3-5.2
				c0.6-0.9,1.4-2,2.5-2.9c3.4,2.8,8.5,5.1,16.1,5.9c0.3,0,0.5,0,0.8,0.1l2.8,2.4C112.7,193.3,110.6,194.3,106.2,194.8z M124,190.6
				l-6,2l-13.7-11.7l3.1-6.7l7.7,5c0.5,0.3,1,0.3,1.6,0.1c0.5-0.2,0.9-0.7,1-1.2l1.8-8.9l6.8,2.4L124,190.6z M128,187.5
				c-0.1,0-0.2,0-0.3,0l1.9-16.2c0-0.3,0-0.6-0.1-0.8l-0.4-0.9l-3.6-9.1c1.2,0,2.4,0,3.6,0c0.1,1.7,0.3,3.2,0.7,4.5
				c1.7,5.5,6.1,7.4,9.6,7.4h0c1,0,2.1-0.2,3-0.4c0,0.4-0.1,0.7-0.1,1.1c0,0.1,0,0.2-0.1,0.4c-0.1,0.5-0.2,1-0.3,1.5l0,0
				c-0.5,2.7-1.4,5.2-2.6,7.4c-0.1,0.2-0.3,0.3-0.4,0.5c0,0-0.1,0.1-0.1,0.1c-0.1,0.1-0.2,0.2-0.3,0.4c0,0-0.1,0.1-0.1,0.1
				c-0.1,0.1-0.2,0.2-0.4,0.4c0,0-0.1,0.1-0.1,0.1c-0.1,0.1-0.3,0.2-0.4,0.4c0,0-0.1,0.1-0.1,0.1c-0.2,0.1-0.3,0.2-0.5,0.3
				c0,0-0.1,0-0.1,0.1c-0.2,0.1-0.3,0.2-0.5,0.3c0,0-0.1,0-0.1,0.1c-0.2,0.1-0.4,0.2-0.5,0.3c0,0-0.1,0-0.1,0.1
				c-0.2,0.1-0.4,0.2-0.6,0.3c0,0-0.1,0-0.1,0.1c-0.2,0.1-0.4,0.2-0.6,0.3c-0.1,0-0.1,0-0.2,0.1c-0.2,0.1-0.4,0.2-0.7,0.2
				c-0.1,0-0.1,0-0.2,0.1c-0.2,0.1-0.5,0.2-0.7,0.2c-0.1,0-0.1,0-0.2,0c-0.3,0.1-0.5,0.1-0.8,0.2c-0.1,0-0.1,0-0.2,0
				c-0.3,0.1-0.6,0.1-0.8,0.2c-0.1,0-0.2,0-0.2,0c-0.3,0.1-0.6,0.1-0.9,0.1c-0.1,0-0.2,0-0.3,0c-0.3,0-0.6,0.1-0.9,0.1
				C128.2,187.4,128.1,187.5,128,187.5z M136.4,163.9c0.1-1.8,1.6-3.3,3.4-3.3c0,0,0.1,0,0.1,0c0.9,0,1.8,0.4,2.4,1.1
				c0.6,0.7,1,1.5,0.9,2.4c0,0.9-0.4,1.8-1.1,2.4c-0.7,0.6-1.5,0.9-2.4,0.9c-0.9,0-1.8-0.4-2.4-1.1
				C136.7,165.7,136.3,164.8,136.4,163.9z M147.6,180.4c8.5-0.4,14,2.3,15.6,5.2c0.7,1.3,0.6,2.7-0.3,4.1c0,0-1.1,1.5-9.4,2.5
				c-11.3,1.3-23.1,0.3-24.6-1c-0.1-0.1-0.1-0.2-0.1-0.4c0.2,0,0.4,0,0.6-0.1c0.2,0,0.3,0,0.5-0.1c0.3,0,0.6-0.1,0.8-0.1
				c0.2,0,0.3-0.1,0.5-0.1c0.2,0,0.4-0.1,0.6-0.1c0.2,0,0.4-0.1,0.7-0.1c0.2,0,0.4-0.1,0.6-0.2c0.2-0.1,0.4-0.1,0.6-0.2
				c0.3-0.1,0.5-0.2,0.8-0.2c0.1,0,0.2-0.1,0.4-0.1c0.3-0.1,0.5-0.2,0.8-0.3c0.1,0,0.2-0.1,0.3-0.1c0.2-0.1,0.4-0.2,0.6-0.3
				c0.1-0.1,0.3-0.1,0.4-0.2c0.2-0.1,0.3-0.2,0.5-0.2c0.2-0.1,0.3-0.2,0.5-0.3c0.1-0.1,0.3-0.2,0.4-0.2c0.2-0.1,0.3-0.2,0.5-0.3
				c0.1,0,0.1-0.1,0.2-0.1c0.2-0.2,0.5-0.3,0.7-0.5c0.1-0.1,0.2-0.1,0.3-0.2c0.2-0.1,0.4-0.3,0.5-0.4c0,0,0,0,0,0
				c0.4-0.4,0.8-0.8,1.2-1.2c0.3-0.3,0.6-0.6,0.8-0.9c0.1-0.1,0.1-0.2,0.2-0.2c0.6-1,1-2.1,1.4-3.1
				C145.1,180.7,146.3,180.5,147.6,180.4z M144.2,159.5c-1.1-1.2-2.6-1.9-4.2-1.9c-3.4-0.1-6.2,2.5-6.3,5.9c0,1.2,0.3,2.3,0.8,3.3
				c-0.6-0.7-1-1.6-1.4-2.7c-0.4-1.2-0.5-2.8-0.7-4.7c-0.3-3.8-0.7-8.6-3.2-13.5c1.1,0.1,2.1,0.1,3.1,0.1c2,0,3.7-0.1,5.1-0.4
				c0.2,0,0.3-0.1,0.5-0.1c4.4,5,7.3,11.9,7.7,16.7C145.4,161.2,145,160.2,144.2,159.5z M164.3,129.1c1.9,1.2,3.8,4.1,3.7,7.5
				c0,3.8-2.4,7.2-6.9,9.9c-5.5,3.3-12.7,3.5-16.1,3.4c-1-1.8-2.2-3.6-3.4-5.2c9.2-2.5,14.8-7.7,17.4-16.2
				C160.8,128,162.6,128.1,164.3,129.1z M203.4,115.1c-2.4,3.5-5.9,5.3-9.9,5.2c-4.4-0.1-8.6-2.6-11-6.5
				c-5.6-9.2-12.6-14.6-20.4-15.6c-8-1-11.7,1.3-12.1,1.6c-0.4,0.3-0.7,0.7-0.7,1.2c-0.1,0.5,0.1,0.9,0.4,1.3
				c0.1,0.1,9.6,11.3,6.6,23.5c-1.6,6.4-5.2,14.1-19.4,16.5c-4.3,0.7-11.7,0.4-19.3-2.1l-17.2-43.8c3.7-3.6,9.4-6.5,18-6.9
				c0.5,0,0.9-0.2,1.2-0.6c0.3-0.3,0.4-0.8,0.4-1.3c-0.1-1.1-0.4-2.7-0.8-4.7c-2.2-11.4-6.8-35.1,8.9-48.2c10.1-9.3,20.5-5,23.3-2.7
				c2,1.6,5.8,6,6.2,11.7c0.3,4.4-1.6,8.7-5.5,12.8c-3.8,3.9-7.5,7.1-10.8,9.9c-7.9,6.8-14.2,12.2-13.7,21.4c0,0.8,0.7,1.5,1.5,1.6
				c4.5,0.5,9.8,2.6,15.6,6.2c0.4,0.3,0.9,0.3,1.4,0.2c0.5-0.1,0.8-0.5,1-0.9c1.7-3.8,15.4-23.2,34.7-17.5
				c11.4,3.4,18.5,13.2,21.4,21.3C205.8,105.4,205.8,111.7,203.4,115.1z"/>
			<path d="M123.8,118.7c-0.3,1.2,1.7,2.7,4.5,3.4c2.8,0.7,5.2,0.2,5.5-1c0.3-1.2-1.7-2.7-4.5-3.4C126.5,117,124,117.5,123.8,118.7z
				"/>
			<path d="M126,72.6c1-3.4,2.8-8.4,5.8-13.2c5.1-8.2,18.6-15.7,12.7-20c-9.1-6.7-24.1,12.4-20.3,33.1
				C124.4,73.4,125.8,73.5,126,72.6z"/>
			<path d="M179.1,87.2c-8-2.1-15.9,1-20.2,4.6c-0.8,0.7-0.7,2,0.4,2c7.9,0.1,15.7,1.6,21.6,7.4c4.3,4.2,9.3,9.7,11.7,6.7
				C195,104.8,191.5,90.4,179.1,87.2z"/>
			<path d="M133.6,128.4c-2,2-11.4,3.8-16.1-5c-0.2-0.3-0.6-0.2-0.6,0.2c0.1,1.9,0.6,5.4,2.9,8.1c2.5,2.9,8.2,3.4,9.5-0.5
				c2.1-0.4,3.6-1.6,4.5-2.6C133.9,128.5,133.7,128.3,133.6,128.4z"/>
			<path d="M120,113.3c2.1-0.1,3.7-1.8,3.6-3.9c-0.1-2.1-1.8-3.7-3.9-3.6c-2.1,0.1-3.7,1.8-3.6,3.9
				C116.2,111.8,117.9,113.4,120,113.3z M119.8,106.8c0.7,0,1.2,0.5,1.2,1.1c0,0.7-0.5,1.2-1.1,1.2c-0.7,0-1.2-0.5-1.2-1.1
				C118.6,107.4,119.1,106.8,119.8,106.8z"/>
			<path d="M141.4,114.4c-2,0.1-3.6,1.8-3.6,3.9c0.1,2,1.8,3.6,3.9,3.6c2-0.1,3.6-1.8,3.6-3.9C145.2,115.9,143.4,114.3,141.4,114.4z
				 M141.5,117.8c-0.7,0-1.2-0.5-1.3-1.2c0-0.7,0.5-1.2,1.2-1.3c0.7,0,1.2,0.5,1.3,1.2C142.7,117.2,142.2,117.7,141.5,117.8z"/>
		</g>
	</g>
</g>
<g id="Layer_4">
</g>
<g id="Layer_3">
</g>
<g id="Layer_2">
</g>
<g id="Layer_1">
</g>
</svg>
