<?xml version="1.0" encoding="utf-8"?>
<!-- Generator: Adobe Illustrator 22.0.1, SVG Export Plug-In . SVG Version: 6.00 Build 0)  -->
<svg version="1.1" xmlns="http://www.w3.org/2000/svg" xmlns:xlink="http://www.w3.org/1999/xlink" x="0px" y="0px"
	 viewBox="0 0 250 250" style="enable-background:new 0 0 250 250;" xml:space="preserve">
<g id="Layer_6">
</g>
<g id="Layer_5">
</g>
<g id="Layer_4">
	<g>
		<path d="M200.3,112.4c-4.1-11.5-12.9-20.3-23.6-23.4c-19.9-5.9-33.9,11.1-37.8,17.7c-5.1-3-9.7-4.9-14-5.6
			c0.3-6.8,5.2-11,12.5-17.3c3.3-2.9,7.1-6.1,11-10.1c4.6-4.8,6.8-9.9,6.5-15.3c-0.4-6.8-4.9-12.1-7.5-14.1
			c-3.4-2.7-15.9-8-27.6,2.8c-17.1,14.3-12.1,40.3-10,51.4c0.2,1,0.4,1.9,0.5,2.7c-7.9,0.7-13.4,3.4-17.3,6.8l-4.8-12.2c0,0,0,0,0,0
			c0,0,0,0,0,0l-1.4-3.7c-0.9-2.3-2.6-4-4.8-5c-2.2-1-4.7-1-7-0.1l-12.1,4.8c-2.3,0.9-4,2.6-5,4.8c-1,2.2-1,4.7-0.1,7l1.6,4
			c0,0,0,0,0,0L77,152.5c-3,2.3-5.7,5.7-5.7,9.8c0,1.3,0.3,4.6,3,6.8c1.5,1.3,3.5,1.9,5.8,1.9c0.9,0,1.8-0.1,2.8-0.3c0,0,0,0,0.1,0
			c-1,2.8-1.8,5.7-2.2,8.5c-1.8-0.3-3.7-0.2-5.4,0.5c-1.9,0.9-4.8,3.5-3.2,10.3c0.8,3.2,3.6,6.5,7.2,8.4c1,0.5,2,0.9,3,1.1
			c-0.8,1.1-1.3,2.2-1.6,2.9c-1,2.5-1.3,5.6,0.2,7.1c2.6,2.6,8.4,3.6,13.9,3.6c3.4,0,6.7-0.4,9.2-1c2.6-0.6,4.4-1.4,5.4-2.5l7.8,6.6
			c0.3,0.3,0.7,0.4,1.1,0.4c0.2,0,0.4,0,0.6-0.1c0.6-0.2,1-0.7,1.1-1.4l0.8-6.6c2.9,1.9,10.3,2.2,15.3,2.2c0.9,0,1.8,0,2.5,0
			c5.4-0.1,18.3-0.8,20.8-4.5c1.6-2.4,1.8-5.1,0.4-7.6c-2.6-4.6-9.9-7.2-18.6-6.9c-0.8,0-1.6,0.1-2.4,0.2c0.6-2.4,1-4.8,1.1-7.2
			c1.2-1,2-2.2,2.5-3.7c1-3.4,0.2-8.3-1.9-13.1c4.1,0,10.7-0.6,16.1-3.9c7-4.2,8.5-9.3,8.5-12.7c0-4.8-2.6-8.7-5.3-10.3
			c-1.9-1.2-4.1-1.6-6.1-1.4c1.8-10.2-3.6-19.3-6.2-23c1.6-0.4,4.2-0.8,8-0.4c8.5,1,14.4,8.2,17.9,14c2.9,4.9,8.2,8,13.8,8.1
			c5.1,0.1,9.7-2.2,12.7-6.7C202.9,127.4,203.1,120.1,200.3,112.4z M85.7,98.4l32.9,83.8l-5.2-1.8l-32-80.2L85.7,98.4z M113,158.8
			c2,0.5,4,1,5.9,1.3c2.7,4,3.4,8.1,3.8,11.8c-1.5,0.1-3,0.1-4.6,0L113,158.8z M94,157.1c-0.2-4-2-5.9-3.6-6.8
			c-0.9-0.5-1.9-0.8-2.9-0.9l-17.8-44.5l8.5-3.5l32,80.2l-1.6,8.1l-6.8-4.4L93,163C93.7,161.2,94.1,159.2,94,157.1z M60.7,102.1
			c-0.6-1.4-0.5-3,0.1-4.4s1.7-2.5,3.2-3.1l12.1-4.8c0.7-0.3,1.4-0.4,2.1-0.4c0.8,0,1.6,0.2,2.3,0.5c1.4,0.6,2.5,1.7,3.1,3.2
			c0,0,0,0,0,0l0.8,2.1l-5.9,2.4c0,0,0,0,0,0c0,0,0,0,0,0l-7.5,3.1l-9.4,3.8L60.7,102.1z M62.9,107.7l3.7-1.5l17.3,43.3
			c-1.5,0.3-2.9,0.7-4.1,1.4c-0.4,0.2-0.9,0.5-1.3,0.7c0.4-0.3,0.8-0.6,1.3-0.8L62.9,107.7z M82.4,168c-2.7,0.5-4.9,0.1-6.3-1
			c-1.2-1-2-2.8-2-4.7c-0.1-3.8,3.5-7.3,7-9.1c1.5-0.7,3.4-1.3,5.1-1.3c1.1,0,2.1,0.2,2.9,0.7c1.4,0.8,2.1,2.3,2.2,4.6
			C91.5,162.8,88,167,82.4,168z M90.8,166.5l8,19.9l-2.6,5.6l-9-22.7C88.5,168.5,89.7,167.6,90.8,166.5z M99.4,201.1
			c-12.2-2.6-15.3-10-15.6-16.1c-0.2-3.4,0.4-7.4,1.6-11.1l8.9,22.6c0.1,0.3,0.3,0.5,0.5,0.7l0.3,0.2c0,0,0,0,0,0c0,0,0,0,0,0
			L99.4,201.1z M80.9,195.4c-2.7-1.4-4.9-3.9-5.5-6.2c-0.6-2.4-0.8-5.4,1.4-6.4c0.6-0.3,1.3-0.4,2-0.4c0.5,0,1.1,0.1,1.7,0.2
			c0,0.1,0,0.1,0,0.2c0,0.1,0,0.2,0,0.2c0,0.7,0,1.4,0,2.1c0.2,3.2,1,7.4,4,11.2C83.4,196.4,82.2,196.1,80.9,195.4z M100,209.5
			c-7.1,0.8-14.3-0.2-16.6-2.3c-0.2-0.6-0.1-2.8,1.3-5.2c0.6-0.9,1.4-2,2.5-2.9c3.4,2.8,8.5,5.1,16.1,5.9c0.3,0,0.5,0,0.8,0.1
			l2.8,2.4C106.4,208,104.3,209,100,209.5z M117.8,205.3l-6,2l-13.7-11.7l3.1-6.7l7.7,5c0.5,0.3,1,0.3,1.6,0.1
			c0.5-0.2,0.9-0.7,1-1.2l1.8-8.9l6.8,2.4L117.8,205.3z M121.8,202.2c-0.1,0-0.2,0-0.3,0l1.9-16.2c0-0.3,0-0.6-0.1-0.8l-0.4-0.9
			l-3.6-9.1c1.2,0,2.4,0,3.6,0c0.1,1.7,0.3,3.2,0.7,4.5c1.7,5.5,6.1,7.4,9.6,7.4h0c1,0,2.1-0.2,3-0.4c0,0.4-0.1,0.7-0.1,1.1
			c0,0.1,0,0.2-0.1,0.4c-0.1,0.5-0.2,1-0.3,1.5l0,0c-0.5,2.7-1.4,5.2-2.6,7.4c-0.1,0.2-0.3,0.3-0.4,0.5c0,0-0.1,0.1-0.1,0.1
			c-0.1,0.1-0.2,0.2-0.3,0.4c0,0-0.1,0.1-0.1,0.1c-0.1,0.1-0.2,0.2-0.4,0.4c0,0-0.1,0.1-0.1,0.1c-0.1,0.1-0.3,0.2-0.4,0.4
			c0,0-0.1,0.1-0.1,0.1c-0.2,0.1-0.3,0.2-0.5,0.3c0,0-0.1,0-0.1,0.1c-0.2,0.1-0.3,0.2-0.5,0.3c0,0-0.1,0-0.1,0.1
			c-0.2,0.1-0.4,0.2-0.5,0.3c0,0-0.1,0-0.1,0.1c-0.2,0.1-0.4,0.2-0.6,0.3c0,0-0.1,0-0.1,0.1c-0.2,0.1-0.4,0.2-0.6,0.3
			c-0.1,0-0.1,0-0.2,0.1c-0.2,0.1-0.4,0.2-0.7,0.2c-0.1,0-0.1,0-0.2,0.1c-0.2,0.1-0.5,0.2-0.7,0.2c-0.1,0-0.1,0-0.2,0
			c-0.3,0.1-0.5,0.1-0.8,0.2c-0.1,0-0.1,0-0.2,0c-0.3,0.1-0.6,0.1-0.8,0.2c-0.1,0-0.2,0-0.2,0c-0.3,0.1-0.6,0.1-0.9,0.1
			c-0.1,0-0.2,0-0.3,0c-0.3,0-0.6,0.1-0.9,0.1C122,202.2,121.9,202.2,121.8,202.2z M130.1,178.6c0.1-1.8,1.6-3.3,3.4-3.3
			c0,0,0.1,0,0.1,0c0.9,0,1.8,0.4,2.4,1.1c0.6,0.7,1,1.5,0.9,2.4c0,0.9-0.4,1.8-1.1,2.4c-0.7,0.6-1.5,0.9-2.4,0.9
			c-0.9,0-1.8-0.4-2.4-1.1C130.4,180.4,130.1,179.6,130.1,178.6z M141.3,195.2c8.5-0.4,14,2.3,15.6,5.2c0.7,1.3,0.6,2.7-0.3,4.1
			c0,0-1.1,1.5-9.4,2.5c-11.3,1.3-23.1,0.3-24.6-1c-0.1-0.1-0.1-0.2-0.1-0.4c0.2,0,0.4,0,0.6-0.1c0.2,0,0.3,0,0.5-0.1
			c0.3,0,0.6-0.1,0.8-0.1c0.2,0,0.3-0.1,0.5-0.1c0.2,0,0.4-0.1,0.6-0.1c0.2,0,0.4-0.1,0.7-0.1c0.2,0,0.4-0.1,0.6-0.2
			c0.2-0.1,0.4-0.1,0.6-0.2c0.3-0.1,0.5-0.2,0.8-0.2c0.1,0,0.2-0.1,0.4-0.1c0.3-0.1,0.5-0.2,0.8-0.3c0.1,0,0.2-0.1,0.3-0.1
			c0.2-0.1,0.4-0.2,0.6-0.3c0.1-0.1,0.3-0.1,0.4-0.2c0.2-0.1,0.3-0.2,0.5-0.2c0.2-0.1,0.3-0.2,0.5-0.3c0.1-0.1,0.3-0.2,0.4-0.2
			c0.2-0.1,0.3-0.2,0.5-0.3c0.1,0,0.1-0.1,0.2-0.1c0.2-0.2,0.5-0.3,0.7-0.5c0.1-0.1,0.2-0.1,0.3-0.2c0.2-0.1,0.4-0.3,0.5-0.4
			c0,0,0,0,0,0c0.4-0.4,0.8-0.8,1.2-1.2c0.3-0.3,0.6-0.6,0.8-0.9c0.1-0.1,0.1-0.2,0.2-0.2c0.6-1,1-2.1,1.4-3.1
			C138.9,195.4,140.1,195.2,141.3,195.2z M138,174.2c-1.1-1.2-2.6-1.9-4.2-1.9c-3.4-0.1-6.2,2.5-6.3,5.9c0,1.2,0.3,2.3,0.8,3.3
			c-0.6-0.7-1-1.6-1.4-2.7c-0.4-1.2-0.5-2.8-0.7-4.7c-0.3-3.8-0.7-8.6-3.2-13.5c1.1,0.1,2.1,0.1,3.1,0.1c2,0,3.7-0.1,5.1-0.4
			c0.2,0,0.3-0.1,0.5-0.1c4.4,5,7.3,11.9,7.7,16.7C139.2,175.9,138.7,175,138,174.2z M158.1,143.8c1.9,1.2,3.8,4.1,3.7,7.5
			c0,3.8-2.4,7.2-6.9,9.9c-5.5,3.3-12.7,3.5-16.1,3.4c-1-1.8-2.2-3.6-3.4-5.2c9.2-2.5,14.8-7.7,17.4-16.2
			C154.6,142.7,156.4,142.8,158.1,143.8z M197.2,129.8c-2.4,3.5-5.9,5.3-9.9,5.2c-4.4-0.1-8.6-2.6-11-6.5
			c-5.6-9.2-12.6-14.6-20.4-15.6c-8-1-11.7,1.3-12.1,1.6c-0.4,0.3-0.7,0.7-0.7,1.2c-0.1,0.5,0.1,0.9,0.4,1.3
			c0.1,0.1,9.6,11.3,6.6,23.5c-1.6,6.4-5.2,14.1-19.4,16.5c-4.3,0.7-11.7,0.4-19.3-2.1l-17.2-43.8c3.7-3.6,9.4-6.5,18-6.9
			c0.5,0,0.9-0.2,1.2-0.6c0.3-0.3,0.4-0.8,0.4-1.3c-0.1-1.1-0.4-2.7-0.8-4.7c-2.2-11.4-6.8-35.1,8.9-48.2c10.1-9.3,20.5-5,23.3-2.7
			c2,1.6,5.8,6,6.2,11.7c0.3,4.4-1.6,8.7-5.5,12.8c-3.8,3.9-7.5,7.1-10.8,9.9c-7.9,6.8-14.2,12.2-13.7,21.4c0,0.8,0.7,1.5,1.5,1.6
			c4.5,0.5,9.8,2.6,15.6,6.2c0.4,0.3,0.9,0.3,1.4,0.2c0.5-0.1,0.8-0.5,1-0.9c1.7-3.8,15.4-23.2,34.7-17.5
			c11.4,3.4,18.5,13.2,21.4,21.3C199.5,120.1,199.5,126.4,197.2,129.8z"/>
		<path d="M117.5,133.4c-0.3,1.2,1.7,2.7,4.5,3.4c2.8,0.7,5.2,0.2,5.5-1c0.3-1.2-1.7-2.7-4.5-3.4
			C120.3,131.8,117.8,132.2,117.5,133.4z"/>
		<path d="M119.8,87.4c1-3.4,2.8-8.4,5.8-13.2c5.1-8.2,18.6-15.7,12.7-20c-9.1-6.7-24.1,12.4-20.3,33.1
			C118.2,88.2,119.6,88.3,119.8,87.4z"/>
		<path d="M172.9,101.9c-8-2.1-15.9,1-20.2,4.6c-0.8,0.7-0.7,2,0.4,2c7.9,0.1,15.7,1.6,21.6,7.4c4.3,4.2,9.3,9.7,11.7,6.7
			C188.8,119.6,185.3,105.2,172.9,101.9z"/>
		<path d="M127.3,143.2c-2,2-11.4,3.8-16.1-5c-0.2-0.3-0.6-0.2-0.6,0.2c0.1,1.9,0.6,5.4,2.9,8.1c2.5,2.9,8.2,3.4,9.5-0.5
			c2.1-0.4,3.6-1.6,4.5-2.6C127.6,143.3,127.5,143,127.3,143.2z"/>
		<path d="M113.8,128c2.1-0.1,3.7-1.8,3.6-3.9c-0.1-2.1-1.8-3.7-3.9-3.6c-2.1,0.1-3.7,1.8-3.6,3.9C110,126.5,111.7,128.1,113.8,128z
			 M113.5,121.5c0.7,0,1.2,0.5,1.2,1.1c0,0.7-0.5,1.2-1.1,1.2c-0.7,0-1.2-0.5-1.2-1.1C112.4,122.1,112.9,121.5,113.5,121.5z"/>
		<path d="M135.2,129.1c-2,0.1-3.6,1.8-3.6,3.9c0.1,2,1.8,3.6,3.9,3.6c2-0.1,3.6-1.8,3.6-3.9C138.9,130.6,137.2,129,135.2,129.1z
			 M135.3,132.5c-0.7,0-1.2-0.5-1.3-1.2c0-0.7,0.5-1.2,1.2-1.3c0.7,0,1.2,0.5,1.3,1.2C136.5,131.9,136,132.4,135.3,132.5z"/>
	</g>
</g>
<g id="Layer_3">
</g>
<g id="Layer_2">
</g>
<g id="Layer_1">
</g>
</svg>
