<?xml version="1.0" encoding="utf-8"?>
<!-- Generator: Adobe Illustrator 22.0.1, SVG Export Plug-In . SVG Version: 6.00 Build 0)  -->
<svg version="1.1" xmlns="http://www.w3.org/2000/svg" xmlns:xlink="http://www.w3.org/1999/xlink" x="0px" y="0px"
	 viewBox="0 0 250 250" style="enable-background:new 0 0 250 250;" xml:space="preserve">
<style type="text/css">
	.st0{fill:url(#SVGID_1_);}
	.st1{fill:#FFFFFF;}
	.st2{fill:#E48A92;}
	.st3{fill:#FDC578;}
	.st4{fill:#FFDDC9;}
	.st5{fill:#A1C575;}
</style>
<g id="Layer_6">
</g>
<g id="Layer_5">
</g>
<g id="Layer_4">
</g>
<g id="Layer_3">
	<g>
		<radialGradient id="SVGID_1_" cx="118.3584" cy="144.9803" r="122.3606" gradientUnits="userSpaceOnUse">
			<stop  offset="0" style="stop-color:#FFFFFF"/>
			<stop  offset="0.9919" style="stop-color:#F9C5A6"/>
		</radialGradient>
		<path class="st0" d="M189.6,223.7H60.4c-18.3,0-33.1-14.8-33.1-33.1V61.4c0-18.3,14.8-33.1,33.1-33.1h129.2
			c18.3,0,33.1,14.8,33.1,33.1v129.2C222.7,208.9,207.9,223.7,189.6,223.7z"/>
		<g>
			<g>
				<path class="st1" d="M129.4,152.8c3.4,1.7,11.2-5.6,14.1-9.1c2.9-3.6,8.4-6.4,13-3.6c4.5,2.9,8.4,13-3.1,19.9
					c-7.9,4.8-18.7,3.4-18.7,3.4L129.4,152.8z"/>
				<path d="M138.2,165.3c-2.1,0-3.5-0.2-3.7-0.2c-0.6-0.1-1-0.4-1.3-0.9l-5.2-10.7c-0.3-0.6-0.2-1.4,0.3-1.9
					c0.5-0.5,1.3-0.6,1.9-0.3c1.8,0.9,8.3-4.1,12.1-8.7c3.6-4.4,10-7.2,15.1-3.9c2.6,1.7,5.3,5.5,5.2,10.2c0,3.4-1.5,8.4-8.4,12.6
					C148.8,164.7,142.2,165.3,138.2,165.3z M135.7,161.9c2.6,0.2,10.7,0.4,16.8-3.3c4.4-2.7,6.8-6,6.8-9.8c0-3.3-1.8-6.2-3.7-7.4
					c-3.9-2.5-8.6,0.6-10.8,3.2c-0.1,0.1-7.1,8.4-12.7,9.8L135.7,161.9z"/>
			</g>
			<g>
				<path class="st1" d="M84.1,180.9c-3.1-4-14.3-5.5-11.6,5.8c1.1,4.6,7.8,9.7,12.4,7.9C89.6,192.8,84.1,180.9,84.1,180.9z"/>
				<path d="M82.9,196.6c-1.6,0-3.2-0.4-4.9-1.3c-3.5-1.8-6.3-5.1-7.1-8.2c-1.6-6.7,1.3-9.2,3.1-10.1c3.8-1.8,9.1,0,11.3,2.9
					c0.1,0.1,0.1,0.2,0.2,0.3c0.4,0.9,4.1,9.2,2.4,13.5c-0.5,1.2-1.3,2-2.4,2.4C84.8,196.5,83.9,196.6,82.9,196.6z M77.5,179.5
					c-0.7,0-1.4,0.1-2,0.4c-2.2,1-1.9,4-1.4,6.4c0.5,2.2,2.7,4.7,5.4,6.1c1.8,0.9,3.5,1.2,4.8,0.7c0.2-0.1,0.4-0.2,0.6-0.6
					c0.9-2.2-0.9-7.7-2.2-10.7C81.7,180.5,79.5,179.5,77.5,179.5z"/>
			</g>
			<g>
				<path class="st1" d="M122,150.7c9.3,2.3,19.7,27.4,10.6,44.1c-4.3,5.5-12,7.3-30.8,5.4c-18.6-1.9-20.8-13.1-21.1-18.1
					c-0.5-9.1,4-20.5,9.4-24.8C100.2,149.3,122,150.7,122,150.7z"/>
				<path d="M114.2,202.6c-3.6,0-7.7-0.3-12.6-0.7c-18.9-1.9-22.2-13.1-22.5-19.6c-0.5-9.5,4.1-21.5,10-26.2c10.5-8.4,32.1-7.1,33-7
					c0.1,0,0.2,0,0.3,0c4.1,1,8.4,5.8,11.5,12.7c4,9.1,6.1,22.7,0.2,33.8c0,0.1-0.1,0.2-0.2,0.2
					C130.3,200.5,124.6,202.6,114.2,202.6z M118.2,152.3c-6.5,0-20,0.7-27,6.4c-5.1,4.1-9.2,15-8.8,23.4c0.3,6.7,4,14.9,19.6,16.5
					c19.6,2,25.8-0.3,29.3-4.6c5.3-10,3.2-22.8-0.3-30.8c-2.6-5.8-6.1-9.9-9.1-10.8C121.3,152.3,120,152.3,118.2,152.3z"/>
			</g>
			<g>
				<path class="st2" d="M86.3,161.8c-3.5,5.4-5.9,13.5-5.5,20.3c0.2,5,2.4,16.2,21.1,18.1c18.8,1.9,26.5,0.1,30.8-5.4
					c4.4-8.1,4.2-18.1,1.8-26.6C134,168.2,112.1,175.8,86.3,161.8z"/>
				<path d="M114.2,202.6c-3.6,0-7.7-0.3-12.6-0.7c-18.9-1.9-22.2-13.1-22.5-19.6c-0.3-6.9,1.9-15.3,5.8-21.3c0.5-0.7,1.4-1,2.2-0.6
					c19.9,10.9,37.6,8.7,46.3,6.4c0.7-0.2,0.9-0.2,1.3-0.2c0.6,0.1,1.2,0.6,1.3,1.2c2.8,10.1,2.1,20.2-2,27.8c0,0.1-0.1,0.2-0.2,0.2
					C130.3,200.5,124.6,202.6,114.2,202.6z M86.9,164c-3,5.3-4.8,12.4-4.5,18.1c0.3,6.7,4,14.9,19.6,16.5c19.6,2,25.8-0.3,29.3-4.6
					c3.4-6.4,4.2-15,2-23.7C124,172.4,106.6,174.2,86.9,164z"/>
			</g>
			<g>
				<path class="st1" d="M80.8,205.1c-1.6-1.6,0.4-12.8,12.6-13.3c10.4-0.4,15.2,8.1,13.5,13C105.6,208.5,85.6,209.9,80.8,205.1z"/>
				<path d="M93.3,209.8c-5.5,0-11.1-1-13.7-3.6v0c-1.4-1.4-1.1-4.5-0.2-7c1-2.6,4.4-8.7,13.8-9.1c5.4-0.2,10.3,1.9,13.1,5.8
					c2.2,3,3,6.6,2,9.4c-0.6,1.6-2.5,2.8-6,3.6C99.9,209.5,96.7,209.8,93.3,209.8z M82,204c2.2,2.1,9.4,3.1,16.3,2.2
					c4.6-0.5,6.7-1.6,7-2.1c0.6-1.7,0-4.2-1.5-6.3c-2.2-3-6-4.6-10.4-4.4c-5.8,0.2-8.7,3.1-10.1,5.4C81.9,201.3,81.8,203.4,82,204z
					 M82,204L82,204L82,204z M81.9,203.9L81.9,203.9L81.9,203.9z"/>
			</g>
			<g>
				<path class="st1" d="M119.3,203.7c-2.6-3.5,6.9-12.7,19.7-13.2c12.8-0.5,20.4,5.8,16.5,11.7
					C152.6,206.5,121.9,207.1,119.3,203.7z"/>
				<path d="M133.9,207.5c-5.5,0-14.1-0.4-15.9-2.9l0,0c-0.6-0.8-1.3-2.4-0.1-4.9c2.4-4.9,11.1-10.5,21.1-11
					c8.6-0.4,15.8,2.3,18.4,6.8c1.3,2.4,1.2,5.1-0.4,7.5c-2.5,3.7-15.2,4.3-20.5,4.5C135.7,207.5,134.9,207.5,133.9,207.5z
					 M120.7,202.7c1.5,1.3,13.1,2.3,24.3,1c8.2-0.9,9.3-2.4,9.3-2.4c0.9-1.4,1-2.7,0.3-4c-1.6-2.8-6.9-5.5-15.3-5.1
					c-9.3,0.4-16.5,5.5-18.2,9.1C120.6,201.8,120.5,202.4,120.7,202.7z"/>
			</g>
			<g>
				<g>
					<path class="st2" d="M114.6,152.2c9.5,8.6,7.2,19.1,8.8,24.2c2.7,8.7,13.4,7.2,15.2,1.4c1.8-5.8-3-17.7-10.3-23.9
						C122.5,149.1,114.6,152.2,114.6,152.2z"/>
					<path d="M131.3,184.2C131.3,184.2,131.3,184.2,131.3,184.2c-3.5,0-7.8-1.9-9.5-7.3c-0.5-1.5-0.6-3.3-0.8-5.3
						c-0.4-5.4-1-12.2-7.5-18.1c-0.4-0.4-0.6-1-0.5-1.5c0.1-0.6,0.5-1,1-1.2c0.4-0.1,8.9-3.4,15.3,2c7.5,6.3,12.9,19,10.8,25.6
						C139.1,181.8,135.4,184.2,131.3,184.2z M117.8,153.1c5.5,6.3,6.1,13.1,6.5,18.2c0.2,1.9,0.3,3.5,0.6,4.7c1.4,4.5,4.9,5,6.3,5
						c0,0,0,0,0,0c2.7,0,5.1-1.5,5.7-3.6c1.5-4.9-2.8-16.3-9.8-22.1C124.1,152.6,120.3,152.6,117.8,153.1z"/>
				</g>
				<g>
					<path class="st3" d="M136,175.7c-0.1,2.5-2.1,4.4-4.6,4.4c-2.5-0.1-4.4-2.1-4.4-4.6c0.1-2.5,2.1-4.4,4.6-4.4
						S136.1,173.2,136,175.7z"/>
					<path d="M131.5,181.3c-0.1,0-0.1,0-0.2,0c-1.5,0-2.9-0.7-4-1.8c-1-1.1-1.6-2.6-1.6-4.1c0-1.5,0.7-2.9,1.8-4
						c1.1-1,2.6-1.6,4.1-1.6c3.2,0.1,5.6,2.7,5.5,5.9v0C137.1,178.8,134.6,181.3,131.5,181.3z M131.5,172.3c-0.8,0-1.6,0.3-2.2,0.9
						c-0.6,0.6-1,1.4-1,2.3c0,0.9,0.3,1.7,0.9,2.3c0.6,0.6,1.4,1,2.3,1c1.8,0.1,3.3-1.4,3.4-3.2c0.1-1.8-1.4-3.3-3.2-3.4
						C131.6,172.3,131.5,172.3,131.5,172.3z"/>
				</g>
			</g>
			<g>
				<path class="st1" d="M84.8,123.5c-0.2-5,3.8-21.6,25.6-22.7c-0.7-7-10.4-37.8,8.5-53.5c10.8-10,22-5.2,25.2-2.7
					c3.3,2.6,12.9,14.1,0.8,26.6c-12.7,13.1-24.3,17.9-23.7,29.7c2.9,0.3,8.2,1.4,16.1,6.4c2.3-5.1,16.4-24,36.2-18.1
					s28.3,30.5,22,39.6c-6.3,9.1-18.4,6.7-23.3-1.4c-4.9-8.1-11.4-13.7-18.9-14.6c-7.5-0.9-10.7,1.3-10.7,1.3s10,11.6,6.8,24.6
					c-2,8.2-6.9,15.2-20.5,17.5C117.5,158,86,152.9,84.8,123.5L84.8,123.5z"/>
				<path d="M124.2,158.1c-8.1,0-20.1-2.4-29.1-9.7c-7.5-6.1-11.6-14.5-12-24.9c0,0,0,0,0,0c-0.2-5.8,4-22.3,25.4-24.3
					c-0.1-0.8-0.3-1.7-0.5-2.7c-2.1-10.9-7-36.6,9.8-50.6c11.5-10.7,23.8-5.5,27.2-2.8c2.5,2,6.9,7.2,7.4,13.9
					c0.3,5.3-1.8,10.4-6.4,15.1c-3.8,4-7.6,7.2-10.9,10c-7.2,6.2-12.1,10.4-12.4,17.1c4.2,0.7,8.8,2.5,13.8,5.5
					c3.9-6.5,17.7-23.2,37.3-17.4c10.6,3.1,19.3,11.7,23.3,23.1c2.7,7.6,2.6,14.8-0.4,19.1c-3,4.4-7.4,6.7-12.5,6.6
					c-5.5-0.2-10.7-3.2-13.6-8c-3.5-5.7-9.4-12.8-17.7-13.8c-3.8-0.5-6.4-0.1-7.9,0.3c2.8,3.9,8.5,13.6,5.8,24.3
					c-2.6,10.8-9.6,16.7-21.8,18.7C127.8,158,126.1,158.1,124.2,158.1z M86.4,123.4c0.4,9.4,4,17,10.8,22.5
					c10.3,8.4,24.8,9.7,31.5,8.6c14-2.3,17.6-9.9,19.1-16.2c3-12-6.4-23.1-6.5-23.2c-0.3-0.4-0.4-0.8-0.4-1.3
					c0.1-0.5,0.3-0.9,0.7-1.1c0.4-0.3,4-2.5,11.9-1.6c7.6,0.9,14.6,6.3,20.1,15.4c2.3,3.8,6.5,6.3,10.8,6.4c3.9,0.1,7.4-1.7,9.7-5.1
					c2.3-3.4,2.3-9.6,0-16.1c-2.8-8-9.9-17.7-21.1-21c-19.1-5.6-32.6,13.5-34.3,17.2c-0.2,0.4-0.6,0.8-1,0.9c-0.5,0.1-1,0.1-1.4-0.2
					c-5.7-3.6-10.9-5.7-15.3-6.1c-0.8-0.1-1.4-0.7-1.5-1.6c-0.5-9.1,5.7-14.4,13.5-21.1c3.2-2.8,6.9-5.9,10.7-9.8
					c3.9-4,5.7-8.3,5.4-12.6c-0.4-5.6-4.2-10-6.1-11.6c-2.8-2.2-13.1-6.5-23,2.7c-15.4,12.9-10.9,36.3-8.8,47.5
					c0.4,2,0.7,3.5,0.8,4.6c0,0.4-0.1,0.9-0.4,1.2c-0.3,0.3-0.7,0.5-1.2,0.6C90.2,103.5,86.2,118.3,86.4,123.4L86.4,123.4z"/>
			</g>
			<g>
				<g>
					<path d="M125.5,133.6c-0.3,1.2-2.7,1.6-5.5,0.9c-2.7-0.7-4.7-2.2-4.4-3.4c0.3-1.2,2.7-1.6,5.5-0.9
						C123.8,130.9,125.8,132.5,125.5,133.6z"/>
				</g>
				<g>
					<g>
						<path class="st4" d="M117.9,85.8c-0.3,0.9-1.6,0.8-1.8-0.1c-3.8-20.4,11.1-39.2,20-32.6c5.7,4.3-7.6,11.6-12.6,19.7
							C120.7,77.6,118.9,82.5,117.9,85.8z"/>
					</g>
					<g>
						<path class="st4" d="M150.7,106.7c-1.1,0-1.2-1.2-0.4-2c4.2-3.6,12-6.7,19.9-4.6c12.2,3.2,15.7,17.4,13.3,20.4
							c-2.4,3-7.3-2.5-11.5-6.6C166.2,108.3,158.5,106.8,150.7,106.7z"/>
					</g>
					<g>
						<path d="M125.3,140.8c-2,1.9-11.2,3.7-15.9-4.9c-0.2-0.3-0.6-0.2-0.6,0.2c0.1,1.9,0.6,5.3,2.9,8c2.5,2.9,8,3.3,9.3-0.4
							c2.1-0.4,3.5-1.6,4.4-2.5C125.6,140.9,125.5,140.7,125.3,140.8z"/>
					</g>
					<g>
						<g>
							<path d="M115.5,122.1c0.1,2-1.5,3.8-3.5,3.8c-2,0.1-3.8-1.5-3.8-3.5c-0.1-2,1.5-3.8,3.5-3.8
								C113.7,118.4,115.4,120,115.5,122.1z"/>
						</g>
						<g>
							<path class="st1" d="M112.9,120.5c0,0.6-0.4,1-1,1.1c-0.6,0-1-0.4-1.1-1c0-0.6,0.4-1,1-1.1
								C112.4,119.5,112.9,119.9,112.9,120.5z"/>
						</g>
					</g>
					<g>
						<g>
							<path d="M136.8,130.5c0.1,2-1.5,3.7-3.5,3.8c-2,0.1-3.7-1.5-3.8-3.5c-0.1-2,1.5-3.7,3.5-3.8
								C135,126.9,136.8,128.5,136.8,130.5z"/>
						</g>
						<g>
							<path class="st1" d="M134.3,129c0,0.6-0.4,1.1-1,1.1c-0.6,0-1.1-0.4-1.1-1c0-0.6,0.4-1.1,1-1.1
								C133.8,127.9,134.3,128.4,134.3,129z"/>
						</g>
					</g>
				</g>
			</g>
			<g>
				<g>
					<g>
						
							<ellipse transform="matrix(0.6769 -0.7361 0.7361 0.6769 -61.7257 116.392)" class="st4" cx="101.7" cy="128.5" rx="2.5" ry="4.3"/>
					</g>
					<g>
						
							<ellipse transform="matrix(0.1605 -0.987 0.987 0.1605 -29.1678 250.2419)" class="st4" cx="132.5" cy="142.3" rx="2.5" ry="4.3"/>
					</g>
				</g>
			</g>
			<g>
				<polygon class="st3" points="110.2,178.8 108.1,189.4 98.9,183.5 94.5,192.9 116.5,211.7 119.9,182.9 119.5,182 				"/>
				<g>
					<g>
						<path class="st3" d="M83.7,90.9c-1.5-3.8-5.7-5.6-9.5-4.1l-12,4.7c-3.8,1.5-5.6,5.7-4.1,9.5l1.6,4l25.4-10.4L83.7,90.9z"/>
						<path d="M59.7,106.6c-0.2,0-0.4,0-0.6-0.1c-0.4-0.2-0.7-0.5-0.9-0.9l-1.6-4c-0.9-2.2-0.8-4.7,0.1-6.9c1-2.2,2.7-3.9,4.9-4.8
							l12-4.7c4.6-1.8,9.8,0.5,11.6,5.1l1.4,3.6c0.3,0.8-0.1,1.8-0.9,2.1l-25.4,10.4C60.1,106.5,59.9,106.6,59.7,106.6z M76.9,87.9
							c-0.7,0-1.4,0.1-2.1,0.4l-12,4.7c-1.4,0.6-2.5,1.6-3.1,3c-0.6,1.4-0.6,2.9-0.1,4.3l0.9,2.4L83,93.6l-0.8-2.1c0,0,0,0,0,0
							C81.3,89.3,79.2,87.9,76.9,87.9z"/>
					</g>
					<g>
						<polygon class="st5" points="85.2,94.5 59.7,104.9 94.2,192.7 94.5,192.9 98.9,183.5 108.1,189.4 110.2,178.8 119.5,182 
													"/>
						<path d="M94.5,194.6c-0.4,0-0.8-0.1-1.1-0.4l-0.3-0.2c-0.2-0.2-0.4-0.4-0.5-0.7l-34.5-87.8c-0.3-0.8,0.1-1.8,0.9-2.1L84.5,93
							c0.4-0.2,0.9-0.2,1.3,0c0.4,0.2,0.7,0.5,0.9,0.9l34.4,87.5c0.2,0.6,0.1,1.3-0.3,1.7c-0.4,0.5-1.1,0.6-1.7,0.4l-7.6-2.6
							l-1.8,8.8c-0.1,0.5-0.5,1-1,1.2c-0.5,0.2-1.1,0.2-1.5-0.1l-7.6-4.9l-3.6,7.7c-0.2,0.5-0.6,0.8-1.1,0.9
							C94.7,194.6,94.6,194.6,94.5,194.6z M61.9,105.9L94.5,189l2.9-6.2c0.2-0.4,0.6-0.8,1-0.9c0.5-0.1,0.9-0.1,1.3,0.2l7.1,4.6
							l1.6-8.3c0.1-0.5,0.4-0.9,0.8-1.1c0.4-0.2,0.9-0.3,1.4-0.1l6,2.1L84.2,96.7L61.9,105.9z"/>
					</g>
				</g>
				<g>
					<path d="M98.9,185.1c-0.7,0-1.3-0.4-1.5-1l-32.4-81.2c-0.3-0.8,0.1-1.8,0.9-2.1c0.8-0.3,1.8,0.1,2.1,0.9l32.4,81.2
						c0.3,0.8-0.1,1.8-0.9,2.1C99.3,185.1,99.1,185.1,98.9,185.1z"/>
				</g>
				<g>
					<path d="M110.4,180.6c-0.7,0-1.3-0.4-1.5-1L76.3,98.1c-0.3-0.8,0.1-1.8,0.9-2.1c0.8-0.3,1.8,0.1,2.1,0.9l32.5,81.4
						c0.3,0.8-0.1,1.8-0.9,2.1C110.8,180.6,110.6,180.6,110.4,180.6z"/>
				</g>
			</g>
			<path d="M121.4,182.3l-0.3-0.9c-0.2-0.4-0.5-0.8-1-1l-9.3-3.3c-0.4-0.2-0.9-0.1-1.4,0.1c-0.4,0.2-0.7,0.6-0.8,1.1l-1.6,8.3
				l-7.1-4.6c-0.4-0.3-0.9-0.3-1.3-0.2c-0.5,0.1-0.8,0.5-1,0.9l-4.4,9.4c-0.3,0.7-0.1,1.5,0.4,2l22,18.8c0.3,0.3,0.7,0.4,1.1,0.4
				c0.2,0,0.4,0,0.6-0.1c0.6-0.2,1-0.7,1-1.3l3.4-28.8C121.6,182.8,121.5,182.6,121.4,182.3z M99.6,185.9l7.6,4.9
				c0.5,0.3,1,0.3,1.5,0.1c0.5-0.2,0.9-0.7,1-1.2l1.8-8.8l6.7,2.4l-2.3,18.8L110,204l-13.5-11.6L99.6,185.9z"/>
			<g>
				<path class="st1" d="M72.2,159.8c-0.1-4.4,3.8-8.2,7.6-10.2c3.8-1.9,11.6-3,12,5.1c0.3,6.3-3.7,11-9.9,12.1
					C74.4,168.1,72.2,163.2,72.2,159.8z"/>
				<path d="M79.5,168.6c-2.4,0-4.3-0.6-5.9-1.9c-2.7-2.2-3.1-5.6-3.1-6.9l0,0c-0.1-5.4,4.6-9.6,8.6-11.7c3.1-1.6,7.6-2.3,10.7-0.5
					c1.6,0.9,3.5,2.8,3.7,6.9c0.3,7-4.2,12.5-11.2,13.8C81.3,168.5,80.4,168.6,79.5,168.6z M73.8,159.8c0,0.7,0.2,3,1.9,4.4
					c1.3,1.1,3.4,1.4,6,1c5.4-1,8.8-5.1,8.5-10.4c-0.1-2.1-0.8-3.5-2-4.2c-2-1.1-5.3-0.6-7.6,0.6C77.2,152.8,73.8,156.2,73.8,159.8
					L73.8,159.8z"/>
			</g>
		</g>
	</g>
</g>
<g id="Layer_2">
</g>
<g id="Layer_1">
</g>
</svg>
