<?xml version="1.0" encoding="utf-8"?>
<!-- Generator: Adobe Illustrator 22.0.1, SVG Export Plug-In . SVG Version: 6.00 Build 0)  -->
<svg version="1.1" xmlns="http://www.w3.org/2000/svg" xmlns:xlink="http://www.w3.org/1999/xlink" x="0px" y="0px"
	 viewBox="0 0 250 250" style="enable-background:new 0 0 250 250;" xml:space="preserve">
<style type="text/css">
	.st0{fill:#FFFFFF;}
	.st1{fill:#E48A92;}
	.st2{fill:#FDC578;}
	.st3{fill:#FFDDC9;}
	.st4{fill:#A1C575;}
</style>
<g id="Layer_6">
</g>
<g id="Layer_5">
</g>
<g id="Layer_4">
</g>
<g id="Layer_3">
</g>
<g id="Layer_2">
	<g>
		<g>
			<path d="M81.4,215.4c0.3,0.1,0.4,0.3,0.3,0.8c-0.1,0.5-0.4,1.2-0.7,2c-0.5,1-2.4,2.3-5.6,1.7c-3.2-0.6-6.3-2.9-5.1-8.6
				c0.6-3.1,2.9-9.4,9.7-8.1c3.7,0.7,5,2.9,4.5,5.2c-0.4,2-1.8,2.6-3.9,2.2c-0.7-0.1-0.7-0.2-0.7-0.6c0.4-2.1,0.5-3.1-0.8-3.3
				c-2.9-0.6-4.1,3.4-4.4,5.2c-0.6,2.9,0.2,4.1,2.1,4.5C79.3,216.9,80.4,215.2,81.4,215.4z"/>
			<path d="M84.1,216.2c0.4-3.8,2.4-7.3,7.8-6.8c3.9,0.4,5.3,2.6,5,6.1c-0.3,3-1.9,7.8-7.8,7.2C84.7,222.2,83.7,219.5,84.1,216.2z
				 M88.1,216.4c-0.2,2.1,0.4,3.1,1.6,3.2c2.2,0.2,3-2.9,3.2-4.4c0.2-1.5-0.3-2.6-1.7-2.7C88.8,212.2,88.2,215,88.1,216.4z"/>
			<path d="M98.8,219.9c0-1.2,0.3-3.6,0.7-13.7c0-0.4,0-0.5,0.1-0.6c0.1-0.1,0.2-0.1,0.4-0.1l0.9,0c1.9,0,2.5,0.9,2.5,2
				c0,1.9-0.6,9.5-0.6,11.3c0,1.6,1.4,1.2,1.5,1.5c0,1.4-0.5,2.9-2.7,2.9C99.7,223.2,98.8,222.2,98.8,219.9z"/>
			<path d="M105.8,217.2c-0.5-3.8,0.8-7.7,6.1-8.3c3.9-0.5,5.7,1.4,6.2,4.8c0.4,3-0.2,8-6.1,8.7
				C107.7,222.9,106.1,220.5,105.8,217.2z M109.7,216.5c0.2,2.1,1,2.9,2.3,2.8c2.2-0.3,2.3-3.5,2.1-4.9c-0.2-1.5-0.8-2.4-2.2-2.3
				C109.5,212.3,109.6,215.1,109.7,216.5z"/>
			<path d="M126.3,212.3c-0.1-0.4-0.1-0.7-0.1-1.1c-0.1-0.7-0.3-1.1-0.9-1.1c-0.9,0.1-1.3,1.4-1.1,3.7c0.2,2,0.5,5.5,0.5,6
				c0,0.3-0.2,0.5-0.4,0.6l-0.8,0.1c-1.9,0.3-2.5-0.4-2.7-1.8c-0.2-1-0.3-3.1-0.9-10c0-0.4,0.1-0.7,0.4-0.8l0.9-0.2
				c1.8-0.3,2.4,0.4,2.7,1.4c0.5-1.6,1.8-2.4,2.8-2.5c1.2-0.2,2.7,0.4,3,2.3c0.3,1.7-0.5,3.3-2.2,3.5
				C127,212.5,126.3,212.5,126.3,212.3z"/>
			<path d="M133.3,200.6c1.3-0.2,2,0.3,2.1,1.2c0.2,1.1-0.6,2.1-2.3,2.4c-1.2,0.2-2-0.2-2.1-1.2
				C130.9,201.7,131.7,200.8,133.3,200.6z M134.8,218.4c-1.9,0.3-2.5-0.5-2.7-1.9c-0.1-1-0.2-3.1-0.7-10.1c0-0.4,0-0.5,0-0.6
				c0.1-0.1,0.2-0.1,0.4-0.1l0.9-0.1c1.9-0.3,2.5,0.5,2.7,1.8c0.1,0.9,0.3,3.6,0.7,10.4c0,0.4-0.1,0.5-0.5,0.5L134.8,218.4z"/>
			<path d="M146.9,208.5c-0.1-0.8-0.5-1.5-1.6-1.4c-2.2,0.3-2.6,2.1-2.2,9.9c0,0.4-0.1,0.5-0.5,0.5l-0.8,0.1
				c-1.9,0.2-2.5-0.5-2.7-1.9c-0.1-1-0.2-3.1-0.5-10.1c0-0.4,0-0.5,0-0.6c0.1-0.1,0.2-0.1,0.4-0.1l0.9-0.1c1.9-0.2,2.5,0.7,2.7,1.7
				c0.8-1.8,1.9-2.5,3.7-2.7c2.6-0.3,4,0.6,4.4,3.8c0.2,1.5,0.2,7.4,0.3,8.2c0.1,0.7,0,0.7-0.5,0.8l-0.8,0.1c-2,0.2-2.5-0.5-2.7-1.8
				C147,213.6,147.1,210.1,146.9,208.5z"/>
			<path d="M157.5,215.7c-2.6-0.1-4.3-1.8-4.2-5.5c0.1-3,1.3-7.1,5.8-7c1.9,0.1,2.7,0.9,3,2c0,0,0.1-1.3,0.1-1.5
				c0-0.2,0.1-0.2,0.3-0.2l1.1,0c1.6,0.1,2.3,0.6,2.3,2.5c0,0.8-0.6,7.7-1.4,10.9c-0.5,2.1-2.1,4.1-6.5,4c-3.3-0.1-4.9-1.6-4.9-2.9
				c0-1.2,1.2-1.7,2.1-1.7c1.1,0,0.6,1.6,2.9,1.6c2.1,0.1,2.9-1.5,3-4.3C160.3,215.1,159.2,215.7,157.5,215.7z M161.8,209.1
				c0.1-1.9-0.5-2.6-1.7-2.7c-2.3-0.1-2.6,2.9-2.6,3.8c-0.1,1.6,0.4,2.4,1.7,2.4C161.4,212.7,161.7,210.3,161.8,209.1z"/>
		</g>
		<g>
			<g>
				<path class="st0" d="M131.6,139.4c3.4,1.8,11.4-5.7,14.3-9.3c2.9-3.6,8.5-6.5,13.1-3.6c4.6,2.9,8.5,13.2-3.2,20.2
					c-8,4.8-19,3.5-19,3.5L131.6,139.4z"/>
				<path d="M140.5,152.1c-2.2,0-3.6-0.2-3.8-0.2c-0.6-0.1-1.1-0.4-1.3-0.9l-5.3-10.8c-0.3-0.6-0.2-1.4,0.3-1.9
					c0.5-0.5,1.3-0.6,1.9-0.3c1.8,0.9,8.4-4.2,12.2-8.8c3.7-4.5,10.1-7.3,15.3-4c2.7,1.7,5.4,5.5,5.3,10.3c0,3.5-1.5,8.5-8.5,12.7
					C151.2,151.5,144.6,152.1,140.5,152.1z M138,148.7c2.7,0.2,10.9,0.4,17-3.3c4.5-2.7,6.9-6.1,6.9-9.9c0-3.3-1.9-6.3-3.7-7.5
					c-4-2.5-8.7,0.6-11,3.3c-0.1,0.1-7.2,8.5-12.9,9.9L138,148.7z"/>
			</g>
			<g>
				<path class="st0" d="M85.6,167.9c-3.1-4.1-14.5-5.6-11.7,5.9c1.1,4.7,7.9,9.9,12.6,8C91.2,180,85.6,167.9,85.6,167.9z"/>
				<path d="M84.4,183.9c-1.6,0-3.3-0.5-5-1.3c-3.5-1.8-6.4-5.2-7.2-8.3c-1.7-6.8,1.3-9.3,3.2-10.3c3.9-1.9,9.3,0,11.5,2.9
					c0.1,0.1,0.1,0.2,0.2,0.3c0.4,0.9,4.2,9.4,2.4,13.7c-0.5,1.2-1.3,2-2.5,2.5C86.3,183.7,85.4,183.9,84.4,183.9z M78.9,166.5
					c-0.7,0-1.4,0.1-2,0.4c-2.2,1-2,4.1-1.4,6.4c0.5,2.2,2.8,4.8,5.5,6.2c1.8,1,3.6,1.2,4.9,0.7c0.2-0.1,0.4-0.2,0.6-0.6
					c0.9-2.1-0.8-7.6-2.3-10.9C83.1,167.5,80.9,166.5,78.9,166.5z"/>
			</g>
			<g>
				<path class="st0" d="M124.1,137.3c9.4,2.4,20,27.8,10.8,44.8c-4.4,5.6-12.2,7.4-31.3,5.4c-18.9-1.9-21.1-13.3-21.4-18.3
					c-0.5-9.3,4-20.8,9.5-25.2C102,135.8,124.1,137.3,124.1,137.3z"/>
				<path d="M116.2,189.9c-3.6,0-7.9-0.3-12.7-0.8c-19.1-1.9-22.5-13.3-22.9-19.9c-0.5-9.6,4.2-21.8,10.1-26.5
					c10.6-8.5,32.6-7.2,33.5-7.1c0.1,0,0.2,0,0.3,0c4.2,1.1,8.6,5.9,11.7,12.9c4.1,9.2,6.2,23.1,0.2,34.3c0,0.1-0.1,0.2-0.2,0.2
					C132.5,187.8,126.6,189.9,116.2,189.9z M120.2,138.8c-6.6,0-20.3,0.7-27.4,6.5c-5.2,4.1-9.3,15.2-8.9,23.8
					c0.3,6.8,4.1,15.1,19.9,16.7c19.9,2,26.2-0.3,29.7-4.7c5.4-10.2,3.2-23.1-0.3-31.2c-2.6-5.9-6.1-10.1-9.3-11
					C123.4,138.9,122.1,138.8,120.2,138.8z"/>
			</g>
			<g>
				<path class="st1" d="M87.8,148.5c-3.5,5.5-6,13.7-5.6,20.6c0.3,5,2.5,16.4,21.4,18.3c19.1,1.9,26.9,0.1,31.3-5.4
					c4.4-8.2,4.3-18.4,1.9-27C136.2,155,114,162.8,87.8,148.5z"/>
				<path d="M116.2,189.9c-3.6,0-7.9-0.3-12.7-0.8c-19.1-1.9-22.5-13.3-22.9-19.9c-0.3-7,2-15.5,5.9-21.6c0.5-0.7,1.4-1,2.2-0.6
					c20.2,11,38.1,8.8,47,6.5c0.7-0.2,0.9-0.2,1.3-0.2c0.7,0.1,1.2,0.6,1.4,1.2c2.9,10.3,2.2,20.5-2,28.2c0,0.1-0.1,0.2-0.2,0.2
					C132.5,187.8,126.6,189.9,116.2,189.9z M88.4,150.8c-3,5.4-4.9,12.6-4.6,18.3c0.3,6.8,4.1,15.1,19.9,16.7
					c19.9,2,26.2-0.3,29.7-4.7c3.5-6.5,4.2-15.2,2.1-24C126.1,159.3,108.4,161.1,88.4,150.8z"/>
			</g>
			<g>
				<path class="st0" d="M82.2,192.4c-1.7-1.7,0.4-13,12.8-13.5c10.5-0.4,15.4,8.2,13.7,13.1C107.4,195.9,87.2,197.3,82.2,192.4z"/>
				<path d="M95,197.2c-5.6,0-11.3-1-13.9-3.6l0,0c-1.5-1.4-1.1-4.6-0.2-7.1c1-2.6,4.5-8.8,14-9.3c5.5-0.2,10.4,1.9,13.3,5.8
					c2.2,3,3,6.6,2,9.5c-0.6,1.6-2.6,2.8-6.1,3.6C101.6,196.9,98.3,197.2,95,197.2z M83.5,191.3c2.3,2.1,9.5,3.1,16.6,2.3
					c4.7-0.6,6.8-1.6,7.1-2.1c0.6-1.8,0-4.3-1.5-6.4c-2.3-3-6.1-4.7-10.5-4.5c-5.9,0.2-8.9,3.1-10.3,5.5
					C83.3,188.6,83.3,190.8,83.5,191.3z M83.5,191.4L83.5,191.4L83.5,191.4z M83.4,191.3C83.4,191.3,83.4,191.3,83.4,191.3
					C83.4,191.3,83.4,191.3,83.4,191.3L83.4,191.3z"/>
			</g>
			<g>
				<path class="st0" d="M121.4,191c-2.6-3.5,7-12.9,20-13.4c13-0.5,20.7,5.9,16.7,11.9C155.1,193.9,123.9,194.5,121.4,191z"/>
				<path d="M136.1,194.9c-5.5,0-14.3-0.4-16.1-3v0c-0.6-0.8-1.3-2.4-0.1-5c2.4-5,11.3-10.7,21.4-11.1c8.8-0.4,16.1,2.3,18.6,6.9
					c1.4,2.4,1.2,5.1-0.4,7.6c-2.5,3.7-15.4,4.4-20.8,4.5C137.9,194.9,137.1,194.9,136.1,194.9z M122.7,190c1.5,1.3,13.3,2.3,24.6,1
					c8.3-1,9.4-2.5,9.4-2.5c0.9-1.4,1-2.8,0.3-4.1c-1.6-2.8-7-5.5-15.6-5.2c-9.4,0.4-16.8,5.6-18.5,9.2
					C122.6,189.1,122.5,189.7,122.7,190z M122.7,190L122.7,190L122.7,190z"/>
			</g>
			<g>
				<g>
					<path class="st1" d="M116.5,138.8c9.7,8.8,7.3,19.4,8.9,24.6c2.7,8.9,13.6,7.3,15.4,1.4c1.8-5.9-3.1-18-10.5-24.2
						C124.5,135.6,116.5,138.8,116.5,138.8z"/>
					<path d="M133.5,171.3C133.5,171.3,133.5,171.3,133.5,171.3c-3.6,0-7.9-2-9.6-7.4c-0.5-1.5-0.6-3.3-0.8-5.4
						c-0.5-5.5-1-12.4-7.6-18.4c-0.4-0.4-0.6-1-0.5-1.5c0.1-0.6,0.5-1,1-1.3c0.4-0.1,9-3.5,15.6,2c7.6,6.4,13.1,19.3,11,26
						C141.4,168.8,137.7,171.3,133.5,171.3z M119.8,139.7c5.6,6.4,6.2,13.3,6.6,18.4c0.2,1.9,0.3,3.5,0.7,4.7c1.4,4.6,5,5.1,6.4,5.1
						c2.7,0,5.2-1.5,5.8-3.7c1.5-4.9-2.9-16.5-9.9-22.4C126.2,139.2,122.3,139.3,119.8,139.7z"/>
				</g>
				<g>
					<path class="st2" d="M138.2,162.6c-0.1,2.5-2.2,4.5-4.7,4.4c-2.5-0.1-4.5-2.2-4.4-4.7c0.1-2.5,2.2-4.5,4.7-4.4
						C136.3,158,138.3,160.1,138.2,162.6z"/>
					<path d="M133.7,168.3c-0.1,0-0.1,0-0.2,0c-1.5,0-3-0.7-4.1-1.8c-1.1-1.1-1.6-2.6-1.6-4.2c0-1.5,0.7-3,1.8-4.1
						c1.1-1.1,2.6-1.6,4.2-1.6c1.5,0,3,0.7,4.1,1.8c1.1,1.1,1.6,2.6,1.6,4.2c0,1.5-0.7,3-1.8,4C136.6,167.7,135.2,168.3,133.7,168.3
						z M133.7,159.2c-0.8,0-1.7,0.3-2.3,0.9c-0.6,0.6-1,1.4-1,2.3c0,0.9,0.3,1.7,0.9,2.4c0.6,0.6,1.4,1,2.3,1c0.9,0,1.7-0.3,2.4-0.9
						c0.6-0.6,1-1.4,1-2.3s-0.3-1.7-0.9-2.4c-0.6-0.6-1.4-1-2.3-1C133.7,159.2,133.7,159.2,133.7,159.2z"/>
				</g>
			</g>
			<g>
				<path class="st0" d="M86.3,109.6c-0.2-5.1,3.8-21.9,26-23c-0.7-7.1-10.5-38.3,8.6-54.3c11-10.2,22.3-5.3,25.5-2.8
					c3.4,2.7,13.1,14.3,0.9,27c-12.9,13.3-24.7,18.1-24,30.1c3,0.3,8.3,1.4,16.3,6.5c2.3-5.2,16.7-24.3,36.7-18.4
					c20.1,5.9,28.7,30.9,22.3,40.2c-6.4,9.3-18.7,6.8-23.7-1.4c-5-8.2-11.5-13.8-19.2-14.8c-7.6-0.9-10.9,1.3-10.9,1.3
					s10.2,11.8,6.9,25c-2,8.3-7,15.5-20.8,17.7C119.5,144.7,87.5,139.5,86.3,109.6L86.3,109.6z"/>
				<path d="M126.3,144.8c-8.2,0-20.4-2.4-29.5-9.8c-7.6-6.2-11.7-14.7-12.2-25.3c0,0,0,0,0,0c-0.2-5.9,4.1-22.6,25.8-24.6
					c-0.1-0.8-0.3-1.7-0.5-2.7c-2.1-11.1-7.1-37.1,10-51.4c11.7-10.9,24.2-5.5,27.6-2.8c2.6,2,7,7.3,7.5,14.1
					c0.4,5.4-1.8,10.5-6.5,15.3c-3.9,4-7.7,7.3-11,10.1c-7.3,6.3-12.3,10.6-12.5,17.3c4.3,0.7,9,2.6,14,5.6
					c3.9-6.6,18-23.5,37.8-17.7c10.7,3.2,19.5,11.9,23.6,23.4c2.8,7.7,2.6,15-0.4,19.4c-3,4.4-7.6,6.8-12.7,6.7
					c-5.5-0.2-10.8-3.3-13.8-8.1c-3.5-5.8-9.5-13-17.9-14c-3.9-0.5-6.5-0.1-8,0.4c2.8,3.9,8.6,13.8,5.9,24.7
					c-2.7,10.9-9.7,16.9-22.1,19C129.9,144.6,128.2,144.8,126.3,144.8z M88,109.6c0.4,9.5,4.1,17.2,10.9,22.8
					c10.4,8.5,25.1,9.9,31.9,8.7c14.2-2.3,17.8-10,19.4-16.5c3-12.2-6.5-23.4-6.6-23.5c-0.3-0.4-0.5-0.8-0.4-1.3
					c0.1-0.5,0.3-0.9,0.7-1.2c0.4-0.3,4-2.6,12.1-1.6c7.7,1,14.8,6.3,20.4,15.6c2.4,3.9,6.6,6.4,11,6.5c4,0.1,7.5-1.7,9.9-5.2
					c2.4-3.4,2.4-9.7,0-16.3c-2.9-8.1-10-18-21.4-21.3c-19.4-5.7-33,13.7-34.7,17.5c-0.2,0.4-0.6,0.8-1,0.9c-0.5,0.1-1,0.1-1.4-0.2
					c-5.8-3.7-11-5.8-15.6-6.2c-0.8-0.1-1.5-0.8-1.5-1.6c-0.5-9.2,5.8-14.6,13.7-21.4c3.3-2.8,7-6,10.8-9.9
					c3.9-4.1,5.8-8.4,5.5-12.8c-0.4-5.7-4.2-10.2-6.2-11.7c-2.9-2.3-13.3-6.6-23.3,2.7c-15.7,13.1-11.1,36.8-8.9,48.2
					c0.4,2,0.7,3.6,0.8,4.7c0,0.5-0.1,0.9-0.4,1.3c-0.3,0.3-0.7,0.6-1.2,0.6C91.8,89.4,87.8,104.4,88,109.6z"/>
			</g>
			<g>
				<g>
					<path d="M127.6,120c-0.3,1.2-2.8,1.6-5.5,1c-2.8-0.7-4.8-2.2-4.5-3.4c0.3-1.2,2.8-1.6,5.5-1C125.9,117.2,127.9,118.8,127.6,120
						z"/>
				</g>
				<g>
					<g>
						<path class="st3" d="M119.9,71.5c-0.3,0.9-1.6,0.8-1.8-0.1c-3.8-20.7,11.3-39.8,20.3-33.1c5.8,4.3-7.7,11.8-12.7,20
							C122.7,63.1,120.9,68.1,119.9,71.5z"/>
					</g>
					<g>
						<path class="st3" d="M153.2,92.6c-1.1,0-1.3-1.3-0.4-2C157,87,165,83.9,173,86c12.4,3.3,15.9,17.7,13.5,20.7
							c-2.4,3.1-7.4-2.5-11.7-6.7C168.9,94.2,161.1,92.7,153.2,92.6z"/>
					</g>
					<g>
						<path d="M127.4,127.3c-2,2-11.4,3.8-16.1-5c-0.2-0.3-0.6-0.2-0.6,0.2c0.1,1.9,0.6,5.4,2.9,8.1c2.5,2.9,8.2,3.4,9.5-0.5
							c2.1-0.4,3.6-1.6,4.5-2.6C127.7,127.4,127.6,127.1,127.4,127.3z"/>
					</g>
					<g>
						<g>
							<path d="M117.4,108.2c0.1,2.1-1.5,3.8-3.6,3.9c-2.1,0.1-3.8-1.5-3.9-3.6c-0.1-2.1,1.5-3.8,3.6-3.9
								C115.6,104.5,117.4,106.1,117.4,108.2z"/>
						</g>
						<g>
							<path class="st0" d="M114.9,106.6c0,0.6-0.4,1.1-1,1.1c-0.6,0-1.1-0.4-1.1-1c0-0.6,0.4-1.1,1-1.1
								C114.4,105.6,114.8,106,114.9,106.6z"/>
						</g>
					</g>
					<g>
						<g>
							<path d="M139.1,116.8c0.1,2-1.5,3.8-3.6,3.9c-2,0.1-3.8-1.5-3.9-3.6c-0.1-2,1.5-3.8,3.6-3.9
								C137.3,113.1,139,114.7,139.1,116.8z"/>
						</g>
						<g>
							<path class="st0" d="M136.6,115.2c0,0.6-0.4,1.1-1,1.1c-0.6,0-1.1-0.4-1.1-1c0-0.6,0.4-1.1,1-1.1
								C136,114.1,136.5,114.6,136.6,115.2z"/>
						</g>
					</g>
				</g>
			</g>
			<g>
				<g>
					<g>
						<path class="st3" d="M106.7,117.7c-1,1-3.2,0.6-4.9-1.1c-1.8-1.6-2.4-3.8-1.5-4.8c1-1,3.2-0.6,4.9,1.1
							C107,114.5,107.6,116.7,106.7,117.7z"/>
					</g>
					<g>
						<path class="st3" d="M139,129.4c-0.2,1.4-2.3,2.2-4.7,1.8c-2.4-0.4-4.1-1.8-3.9-3.2c0.2-1.4,2.3-2.2,4.7-1.8
							C137.5,126.6,139.3,128,139,129.4z"/>
					</g>
				</g>
			</g>
			<g>
				<polygon class="st2" points="112.1,165.7 109.9,176.5 100.6,170.5 96.1,180.1 118.4,199.2 121.9,169.9 121.6,169 				"/>
				<g>
					<g>
						<path class="st2" d="M85.2,76.6c-1.5-3.8-5.8-5.7-9.6-4.2l-12.1,4.8c-3.8,1.5-5.7,5.8-4.2,9.6l1.6,4l25.8-10.5L85.2,76.6z"/>
						<path d="M60.9,92.5c-0.2,0-0.4,0-0.7-0.1c-0.4-0.2-0.7-0.5-0.9-0.9l-1.6-4c-0.9-2.3-0.8-4.7,0.1-7c1-2.2,2.8-3.9,5-4.8
							L75,70.9c4.7-1.8,10,0.5,11.8,5.1l1.4,3.7c0.3,0.9-0.1,1.8-0.9,2.2L61.5,92.4C61.3,92.5,61.1,92.5,60.9,92.5z M78.3,73.6
							c-0.7,0-1.4,0.1-2.1,0.4l-12.1,4.8c-1.4,0.6-2.6,1.6-3.2,3.1c-0.6,1.4-0.6,3-0.1,4.4l1,2.4l22.7-9.3l-0.8-2.1c0,0,0,0,0,0
							C82.8,75,80.6,73.6,78.3,73.6z"/>
					</g>
					<g>
						<polygon class="st4" points="86.7,80.3 60.9,90.8 95.9,179.9 96.1,180.1 100.6,170.5 109.9,176.5 112.1,165.7 121.6,169 
													"/>
						<path d="M96.1,181.8c-0.4,0-0.8-0.1-1.1-0.4l-0.3-0.2c-0.2-0.2-0.4-0.4-0.5-0.7l-35-89.1c-0.3-0.9,0.1-1.8,0.9-2.2L86,78.7
							c0.4-0.2,0.9-0.2,1.3,0c0.4,0.2,0.7,0.5,0.9,0.9l34.9,88.7c0.2,0.6,0.1,1.3-0.4,1.8c-0.5,0.5-1.1,0.6-1.8,0.4l-7.7-2.7
							l-1.8,8.9c-0.1,0.5-0.5,1-1,1.2c-0.5,0.2-1.1,0.2-1.6-0.1l-7.7-5l-3.7,7.9c-0.2,0.5-0.7,0.8-1.2,0.9
							C96.4,181.8,96.2,181.8,96.1,181.8z M63,91.8l33.1,84.3l2.9-6.3c0.2-0.4,0.6-0.8,1.1-0.9c0.5-0.1,1-0.1,1.4,0.2l7.2,4.7
							l1.7-8.4c0.1-0.5,0.4-0.9,0.8-1.1c0.4-0.2,0.9-0.3,1.4-0.1l6,2.1L85.7,82.5L63,91.8z"/>
					</g>
				</g>
				<g>
					<path d="M100.6,172.2c-0.7,0-1.3-0.4-1.6-1.1L66.1,88.8c-0.3-0.9,0.1-1.8,0.9-2.2c0.9-0.3,1.8,0.1,2.2,0.9l32.9,82.4
						c0.3,0.9-0.1,1.8-0.9,2.2C101,172.2,100.8,172.2,100.6,172.2z"/>
				</g>
				<g>
					<path d="M112.3,167.6c-0.7,0-1.3-0.4-1.6-1.1l-33-82.6c-0.3-0.9,0.1-1.8,0.9-2.2c0.9-0.3,1.8,0.1,2.2,0.9l33,82.6
						c0.3,0.9-0.1,1.8-0.9,2.2C112.7,167.6,112.5,167.6,112.3,167.6z"/>
				</g>
			</g>
			<path d="M123.5,169.3l-0.4-0.9c-0.2-0.5-0.5-0.8-1-1l-9.5-3.3c-0.5-0.2-1-0.1-1.4,0.1c-0.4,0.2-0.7,0.7-0.8,1.1l-1.7,8.4
				l-7.2-4.7c-0.4-0.3-0.9-0.3-1.4-0.2c-0.5,0.1-0.8,0.5-1.1,0.9l-4.5,9.6c-0.3,0.7-0.1,1.5,0.4,2l22.3,19.1
				c0.3,0.3,0.7,0.4,1.1,0.4c0.2,0,0.4,0,0.6-0.1c0.6-0.2,1-0.7,1.1-1.4l3.5-29.2C123.6,169.9,123.6,169.6,123.5,169.3z M101.3,173
				l7.7,5c0.5,0.3,1,0.4,1.6,0.1c0.5-0.2,0.9-0.7,1-1.2l1.8-8.9l6.8,2.4l-2.3,19.1l-6,2l-13.7-11.7L101.3,173z"/>
			<g>
				<path class="st0" d="M73.5,146.5c-0.1-4.5,3.9-8.4,7.8-10.3c3.9-2,11.8-3.1,12.2,5.1c0.3,6.4-3.8,11.1-10,12.3
					C75.8,154.9,73.5,150,73.5,146.5z"/>
				<path d="M80.9,155.5c-2.4,0-4.4-0.7-6-1.9c-2.8-2.3-3.1-5.7-3.1-7c0,0,0,0,0,0c-0.1-5.5,4.6-9.8,8.7-11.8
					c3.1-1.6,7.7-2.4,10.9-0.5c1.6,0.9,3.5,2.9,3.7,7c0.3,7.1-4.2,12.7-11.4,14C82.7,155.4,81.8,155.5,80.9,155.5z M75.2,146.5
					c0,0.7,0.2,3,1.9,4.5c1.4,1.1,3.4,1.4,6.1,1c5.5-1,8.9-5.1,8.6-10.5c-0.1-2.2-0.8-3.6-2-4.3c-2-1.2-5.4-0.6-7.7,0.6
					C78.6,139.4,75.1,142.8,75.2,146.5L75.2,146.5z"/>
			</g>
		</g>
	</g>
</g>
<g id="Layer_1">
</g>
</svg>
